<?xml version="1.0" encoding="utf-8"?>
<svg xmlns="http://www.w3.org/2000/svg" xmlns:xlink="http://www.w3.org/1999/xlink" width="600" height="400" viewBox="0 0 2400 1600">
<defs>
  <clipPath id="clip740">
    <rect x="0" y="0" width="2400" height="1600"/>
  </clipPath>
</defs>
<path clip-path="url(#clip740)" d="
M0 1600 L2400 1600 L2400 0 L0 0  Z
  " fill="#ffffff" fill-rule="evenodd" fill-opacity="1"/>
<defs>
  <clipPath id="clip741">
    <rect x="480" y="0" width="1681" height="1600"/>
  </clipPath>
</defs>
<path clip-path="url(#clip740)" d="
M186.274 1423.18 L2352.76 1423.18 L2352.76 47.2441 L186.274 47.2441  Z
  " fill="#ffffff" fill-rule="evenodd" fill-opacity="1"/>
<defs>
  <clipPath id="clip742">
    <rect x="186" y="47" width="2167" height="1377"/>
  </clipPath>
</defs>
<polyline clip-path="url(#clip742)" style="stroke:#000000; stroke-linecap:butt; stroke-linejoin:round; stroke-width:2; stroke-opacity:0.1; fill:none" points="
  186.274,1423.18 186.274,47.2441 
  "/>
<polyline clip-path="url(#clip742)" style="stroke:#000000; stroke-linecap:butt; stroke-linejoin:round; stroke-width:2; stroke-opacity:0.1; fill:none" points="
  619.57,1423.18 619.57,47.2441 
  "/>
<polyline clip-path="url(#clip742)" style="stroke:#000000; stroke-linecap:butt; stroke-linejoin:round; stroke-width:2; stroke-opacity:0.1; fill:none" points="
  1052.87,1423.18 1052.87,47.2441 
  "/>
<polyline clip-path="url(#clip742)" style="stroke:#000000; stroke-linecap:butt; stroke-linejoin:round; stroke-width:2; stroke-opacity:0.1; fill:none" points="
  1486.16,1423.18 1486.16,47.2441 
  "/>
<polyline clip-path="url(#clip742)" style="stroke:#000000; stroke-linecap:butt; stroke-linejoin:round; stroke-width:2; stroke-opacity:0.1; fill:none" points="
  1919.46,1423.18 1919.46,47.2441 
  "/>
<polyline clip-path="url(#clip742)" style="stroke:#000000; stroke-linecap:butt; stroke-linejoin:round; stroke-width:2; stroke-opacity:0.1; fill:none" points="
  2352.76,1423.18 2352.76,47.2441 
  "/>
<polyline clip-path="url(#clip740)" style="stroke:#000000; stroke-linecap:butt; stroke-linejoin:round; stroke-width:4; stroke-opacity:1; fill:none" points="
  186.274,1423.18 2352.76,1423.18 
  "/>
<polyline clip-path="url(#clip740)" style="stroke:#000000; stroke-linecap:butt; stroke-linejoin:round; stroke-width:4; stroke-opacity:1; fill:none" points="
  186.274,1423.18 186.274,1404.28 
  "/>
<polyline clip-path="url(#clip740)" style="stroke:#000000; stroke-linecap:butt; stroke-linejoin:round; stroke-width:4; stroke-opacity:1; fill:none" points="
  619.57,1423.18 619.57,1404.28 
  "/>
<polyline clip-path="url(#clip740)" style="stroke:#000000; stroke-linecap:butt; stroke-linejoin:round; stroke-width:4; stroke-opacity:1; fill:none" points="
  1052.87,1423.18 1052.87,1404.28 
  "/>
<polyline clip-path="url(#clip740)" style="stroke:#000000; stroke-linecap:butt; stroke-linejoin:round; stroke-width:4; stroke-opacity:1; fill:none" points="
  1486.16,1423.18 1486.16,1404.28 
  "/>
<polyline clip-path="url(#clip740)" style="stroke:#000000; stroke-linecap:butt; stroke-linejoin:round; stroke-width:4; stroke-opacity:1; fill:none" points="
  1919.46,1423.18 1919.46,1404.28 
  "/>
<polyline clip-path="url(#clip740)" style="stroke:#000000; stroke-linecap:butt; stroke-linejoin:round; stroke-width:4; stroke-opacity:1; fill:none" points="
  2352.76,1423.18 2352.76,1404.28 
  "/>
<path clip-path="url(#clip740)" d="M163.658 1454.1 Q160.047 1454.1 158.219 1457.66 Q156.413 1461.2 156.413 1468.33 Q156.413 1475.44 158.219 1479.01 Q160.047 1482.55 163.658 1482.55 Q167.293 1482.55 169.098 1479.01 Q170.927 1475.44 170.927 1468.33 Q170.927 1461.2 169.098 1457.66 Q167.293 1454.1 163.658 1454.1 M163.658 1450.39 Q169.469 1450.39 172.524 1455 Q175.603 1459.58 175.603 1468.33 Q175.603 1477.06 172.524 1481.67 Q169.469 1486.25 163.658 1486.25 Q157.848 1486.25 154.77 1481.67 Q151.714 1477.06 151.714 1468.33 Q151.714 1459.58 154.77 1455 Q157.848 1450.39 163.658 1450.39 Z" fill="#000000" fill-rule="evenodd" fill-opacity="1" /><path clip-path="url(#clip740)" d="M183.82 1479.7 L188.705 1479.7 L188.705 1485.58 L183.82 1485.58 L183.82 1479.7 Z" fill="#000000" fill-rule="evenodd" fill-opacity="1" /><path clip-path="url(#clip740)" d="M208.89 1454.1 Q205.279 1454.1 203.45 1457.66 Q201.644 1461.2 201.644 1468.33 Q201.644 1475.44 203.45 1479.01 Q205.279 1482.55 208.89 1482.55 Q212.524 1482.55 214.329 1479.01 Q216.158 1475.44 216.158 1468.33 Q216.158 1461.2 214.329 1457.66 Q212.524 1454.1 208.89 1454.1 M208.89 1450.39 Q214.7 1450.39 217.755 1455 Q220.834 1459.58 220.834 1468.33 Q220.834 1477.06 217.755 1481.67 Q214.7 1486.25 208.89 1486.25 Q203.079 1486.25 200.001 1481.67 Q196.945 1477.06 196.945 1468.33 Q196.945 1459.58 200.001 1455 Q203.079 1450.39 208.89 1450.39 Z" fill="#000000" fill-rule="evenodd" fill-opacity="1" /><path clip-path="url(#clip740)" d="M597.753 1454.1 Q594.142 1454.1 592.314 1457.66 Q590.508 1461.2 590.508 1468.33 Q590.508 1475.44 592.314 1479.01 Q594.142 1482.55 597.753 1482.55 Q601.388 1482.55 603.193 1479.01 Q605.022 1475.44 605.022 1468.33 Q605.022 1461.2 603.193 1457.66 Q601.388 1454.1 597.753 1454.1 M597.753 1450.39 Q603.564 1450.39 606.619 1455 Q609.698 1459.58 609.698 1468.33 Q609.698 1477.06 606.619 1481.67 Q603.564 1486.25 597.753 1486.25 Q591.943 1486.25 588.865 1481.67 Q585.809 1477.06 585.809 1468.33 Q585.809 1459.58 588.865 1455 Q591.943 1450.39 597.753 1450.39 Z" fill="#000000" fill-rule="evenodd" fill-opacity="1" /><path clip-path="url(#clip740)" d="M617.915 1479.7 L622.8 1479.7 L622.8 1485.58 L617.915 1485.58 L617.915 1479.7 Z" fill="#000000" fill-rule="evenodd" fill-opacity="1" /><path clip-path="url(#clip740)" d="M637.012 1481.64 L653.332 1481.64 L653.332 1485.58 L631.387 1485.58 L631.387 1481.64 Q634.049 1478.89 638.633 1474.26 Q643.239 1469.61 644.42 1468.27 Q646.665 1465.74 647.545 1464.01 Q648.448 1462.25 648.448 1460.56 Q648.448 1457.8 646.503 1456.07 Q644.582 1454.33 641.48 1454.33 Q639.281 1454.33 636.827 1455.09 Q634.397 1455.86 631.619 1457.41 L631.619 1452.69 Q634.443 1451.55 636.897 1450.97 Q639.35 1450.39 641.387 1450.39 Q646.758 1450.39 649.952 1453.08 Q653.147 1455.77 653.147 1460.26 Q653.147 1462.39 652.336 1464.31 Q651.549 1466.2 649.443 1468.8 Q648.864 1469.47 645.762 1472.69 Q642.661 1475.88 637.012 1481.64 Z" fill="#000000" fill-rule="evenodd" fill-opacity="1" /><path clip-path="url(#clip740)" d="M1030.01 1454.1 Q1026.4 1454.1 1024.57 1457.66 Q1022.76 1461.2 1022.76 1468.33 Q1022.76 1475.44 1024.57 1479.01 Q1026.4 1482.55 1030.01 1482.55 Q1033.64 1482.55 1035.45 1479.01 Q1037.28 1475.44 1037.28 1468.33 Q1037.28 1461.2 1035.45 1457.66 Q1033.64 1454.1 1030.01 1454.1 M1030.01 1450.39 Q1035.82 1450.39 1038.87 1455 Q1041.95 1459.58 1041.95 1468.33 Q1041.95 1477.06 1038.87 1481.67 Q1035.82 1486.25 1030.01 1486.25 Q1024.2 1486.25 1021.12 1481.67 Q1018.06 1477.06 1018.06 1468.33 Q1018.06 1459.58 1021.12 1455 Q1024.2 1450.39 1030.01 1450.39 Z" fill="#000000" fill-rule="evenodd" fill-opacity="1" /><path clip-path="url(#clip740)" d="M1050.17 1479.7 L1055.05 1479.7 L1055.05 1485.58 L1050.17 1485.58 L1050.17 1479.7 Z" fill="#000000" fill-rule="evenodd" fill-opacity="1" /><path clip-path="url(#clip740)" d="M1078.09 1455.09 L1066.28 1473.54 L1078.09 1473.54 L1078.09 1455.09 M1076.86 1451.02 L1082.74 1451.02 L1082.74 1473.54 L1087.67 1473.54 L1087.67 1477.43 L1082.74 1477.43 L1082.74 1485.58 L1078.09 1485.58 L1078.09 1477.43 L1062.48 1477.43 L1062.48 1472.92 L1076.86 1451.02 Z" fill="#000000" fill-rule="evenodd" fill-opacity="1" /><path clip-path="url(#clip740)" d="M1463.47 1454.1 Q1459.86 1454.1 1458.03 1457.66 Q1456.22 1461.2 1456.22 1468.33 Q1456.22 1475.44 1458.03 1479.01 Q1459.86 1482.55 1463.47 1482.55 Q1467.1 1482.55 1468.91 1479.01 Q1470.73 1475.44 1470.73 1468.33 Q1470.73 1461.2 1468.91 1457.66 Q1467.1 1454.1 1463.47 1454.1 M1463.47 1450.39 Q1469.28 1450.39 1472.33 1455 Q1475.41 1459.58 1475.41 1468.33 Q1475.41 1477.06 1472.33 1481.67 Q1469.28 1486.25 1463.47 1486.25 Q1457.66 1486.25 1454.58 1481.67 Q1451.52 1477.06 1451.52 1468.33 Q1451.52 1459.58 1454.58 1455 Q1457.66 1450.39 1463.47 1450.39 Z" fill="#000000" fill-rule="evenodd" fill-opacity="1" /><path clip-path="url(#clip740)" d="M1483.63 1479.7 L1488.51 1479.7 L1488.51 1485.58 L1483.63 1485.58 L1483.63 1479.7 Z" fill="#000000" fill-rule="evenodd" fill-opacity="1" /><path clip-path="url(#clip740)" d="M1509.28 1466.44 Q1506.13 1466.44 1504.28 1468.59 Q1502.45 1470.74 1502.45 1474.49 Q1502.45 1478.22 1504.28 1480.39 Q1506.13 1482.55 1509.28 1482.55 Q1512.42 1482.55 1514.25 1480.39 Q1516.11 1478.22 1516.11 1474.49 Q1516.11 1470.74 1514.25 1468.59 Q1512.42 1466.44 1509.28 1466.44 M1518.56 1451.78 L1518.56 1456.04 Q1516.8 1455.21 1514.99 1454.77 Q1513.21 1454.33 1511.45 1454.33 Q1506.82 1454.33 1504.37 1457.45 Q1501.94 1460.58 1501.59 1466.9 Q1502.96 1464.89 1505.02 1463.82 Q1507.08 1462.73 1509.55 1462.73 Q1514.76 1462.73 1517.77 1465.9 Q1520.8 1469.05 1520.8 1474.49 Q1520.8 1479.82 1517.66 1483.03 Q1514.51 1486.25 1509.28 1486.25 Q1503.28 1486.25 1500.11 1481.67 Q1496.94 1477.06 1496.94 1468.33 Q1496.94 1460.14 1500.83 1455.28 Q1504.72 1450.39 1511.27 1450.39 Q1513.03 1450.39 1514.81 1450.74 Q1516.61 1451.09 1518.56 1451.78 Z" fill="#000000" fill-rule="evenodd" fill-opacity="1" /><path clip-path="url(#clip740)" d="M1896.89 1454.1 Q1893.28 1454.1 1891.45 1457.66 Q1889.64 1461.2 1889.64 1468.33 Q1889.64 1475.44 1891.45 1479.01 Q1893.28 1482.55 1896.89 1482.55 Q1900.52 1482.55 1902.33 1479.01 Q1904.16 1475.44 1904.16 1468.33 Q1904.16 1461.2 1902.33 1457.66 Q1900.52 1454.1 1896.89 1454.1 M1896.89 1450.39 Q1902.7 1450.39 1905.76 1455 Q1908.83 1459.58 1908.83 1468.33 Q1908.83 1477.06 1905.76 1481.67 Q1902.7 1486.25 1896.89 1486.25 Q1891.08 1486.25 1888 1481.67 Q1884.95 1477.06 1884.95 1468.33 Q1884.95 1459.58 1888 1455 Q1891.08 1450.39 1896.89 1450.39 Z" fill="#000000" fill-rule="evenodd" fill-opacity="1" /><path clip-path="url(#clip740)" d="M1917.05 1479.7 L1921.94 1479.7 L1921.94 1485.58 L1917.05 1485.58 L1917.05 1479.7 Z" fill="#000000" fill-rule="evenodd" fill-opacity="1" /><path clip-path="url(#clip740)" d="M1942.12 1469.17 Q1938.79 1469.17 1936.87 1470.95 Q1934.97 1472.73 1934.97 1475.86 Q1934.97 1478.98 1936.87 1480.77 Q1938.79 1482.55 1942.12 1482.55 Q1945.45 1482.55 1947.38 1480.77 Q1949.3 1478.96 1949.3 1475.86 Q1949.3 1472.73 1947.38 1470.95 Q1945.48 1469.17 1942.12 1469.17 M1937.45 1467.18 Q1934.44 1466.44 1932.75 1464.38 Q1931.08 1462.32 1931.08 1459.35 Q1931.08 1455.21 1934.02 1452.8 Q1936.98 1450.39 1942.12 1450.39 Q1947.28 1450.39 1950.22 1452.8 Q1953.16 1455.21 1953.16 1459.35 Q1953.16 1462.32 1951.47 1464.38 Q1949.81 1466.44 1946.82 1467.18 Q1950.2 1467.96 1952.08 1470.26 Q1953.97 1472.55 1953.97 1475.86 Q1953.97 1480.88 1950.89 1483.57 Q1947.84 1486.25 1942.12 1486.25 Q1936.4 1486.25 1933.33 1483.57 Q1930.27 1480.88 1930.27 1475.86 Q1930.27 1472.55 1932.17 1470.26 Q1934.07 1467.96 1937.45 1467.18 M1935.73 1459.79 Q1935.73 1462.48 1937.4 1463.98 Q1939.09 1465.49 1942.12 1465.49 Q1945.13 1465.49 1946.82 1463.98 Q1948.53 1462.48 1948.53 1459.79 Q1948.53 1457.11 1946.82 1455.6 Q1945.13 1454.1 1942.12 1454.1 Q1939.09 1454.1 1937.4 1455.6 Q1935.73 1457.11 1935.73 1459.79 Z" fill="#000000" fill-rule="evenodd" fill-opacity="1" /><path clip-path="url(#clip740)" d="M2319.91 1481.64 L2327.55 1481.64 L2327.55 1455.28 L2319.24 1456.95 L2319.24 1452.69 L2327.5 1451.02 L2332.18 1451.02 L2332.18 1481.64 L2339.82 1481.64 L2339.82 1485.58 L2319.91 1485.58 L2319.91 1481.64 Z" fill="#000000" fill-rule="evenodd" fill-opacity="1" /><path clip-path="url(#clip740)" d="M2349.26 1479.7 L2354.14 1479.7 L2354.14 1485.58 L2349.26 1485.58 L2349.26 1479.7 Z" fill="#000000" fill-rule="evenodd" fill-opacity="1" /><path clip-path="url(#clip740)" d="M2374.33 1454.1 Q2370.72 1454.1 2368.89 1457.66 Q2367.08 1461.2 2367.08 1468.33 Q2367.08 1475.44 2368.89 1479.01 Q2370.72 1482.55 2374.33 1482.55 Q2377.96 1482.55 2379.77 1479.01 Q2381.6 1475.44 2381.6 1468.33 Q2381.6 1461.2 2379.77 1457.66 Q2377.96 1454.1 2374.33 1454.1 M2374.33 1450.39 Q2380.14 1450.39 2383.2 1455 Q2386.27 1459.58 2386.27 1468.33 Q2386.27 1477.06 2383.2 1481.67 Q2380.14 1486.25 2374.33 1486.25 Q2368.52 1486.25 2365.44 1481.67 Q2362.39 1477.06 2362.39 1468.33 Q2362.39 1459.58 2365.44 1455 Q2368.52 1450.39 2374.33 1450.39 Z" fill="#000000" fill-rule="evenodd" fill-opacity="1" /><path clip-path="url(#clip740)" d="M1268.58 1522.27 L1268.58 1532.4 L1280.64 1532.4 L1280.64 1536.95 L1268.58 1536.95 L1268.58 1556.3 Q1268.58 1560.66 1269.75 1561.9 Q1270.96 1563.14 1274.62 1563.14 L1280.64 1563.14 L1280.64 1568.04 L1274.62 1568.04 Q1267.84 1568.04 1265.27 1565.53 Q1262.69 1562.98 1262.69 1556.3 L1262.69 1536.95 L1258.39 1536.95 L1258.39 1532.4 L1262.69 1532.4 L1262.69 1522.27 L1268.58 1522.27 Z" fill="#000000" fill-rule="evenodd" fill-opacity="1" /><polyline clip-path="url(#clip742)" style="stroke:#000000; stroke-linecap:butt; stroke-linejoin:round; stroke-width:2; stroke-opacity:0.1; fill:none" points="
  186.274,1230.8 2352.76,1230.8 
  "/>
<polyline clip-path="url(#clip742)" style="stroke:#000000; stroke-linecap:butt; stroke-linejoin:round; stroke-width:2; stroke-opacity:0.1; fill:none" points="
  186.274,1009.59 2352.76,1009.59 
  "/>
<polyline clip-path="url(#clip742)" style="stroke:#000000; stroke-linecap:butt; stroke-linejoin:round; stroke-width:2; stroke-opacity:0.1; fill:none" points="
  186.274,788.376 2352.76,788.376 
  "/>
<polyline clip-path="url(#clip742)" style="stroke:#000000; stroke-linecap:butt; stroke-linejoin:round; stroke-width:2; stroke-opacity:0.1; fill:none" points="
  186.274,567.165 2352.76,567.165 
  "/>
<polyline clip-path="url(#clip742)" style="stroke:#000000; stroke-linecap:butt; stroke-linejoin:round; stroke-width:2; stroke-opacity:0.1; fill:none" points="
  186.274,345.954 2352.76,345.954 
  "/>
<polyline clip-path="url(#clip742)" style="stroke:#000000; stroke-linecap:butt; stroke-linejoin:round; stroke-width:2; stroke-opacity:0.1; fill:none" points="
  186.274,124.744 2352.76,124.744 
  "/>
<polyline clip-path="url(#clip740)" style="stroke:#000000; stroke-linecap:butt; stroke-linejoin:round; stroke-width:4; stroke-opacity:1; fill:none" points="
  186.274,1423.18 186.274,47.2441 
  "/>
<polyline clip-path="url(#clip740)" style="stroke:#000000; stroke-linecap:butt; stroke-linejoin:round; stroke-width:4; stroke-opacity:1; fill:none" points="
  186.274,1230.8 205.172,1230.8 
  "/>
<polyline clip-path="url(#clip740)" style="stroke:#000000; stroke-linecap:butt; stroke-linejoin:round; stroke-width:4; stroke-opacity:1; fill:none" points="
  186.274,1009.59 205.172,1009.59 
  "/>
<polyline clip-path="url(#clip740)" style="stroke:#000000; stroke-linecap:butt; stroke-linejoin:round; stroke-width:4; stroke-opacity:1; fill:none" points="
  186.274,788.376 205.172,788.376 
  "/>
<polyline clip-path="url(#clip740)" style="stroke:#000000; stroke-linecap:butt; stroke-linejoin:round; stroke-width:4; stroke-opacity:1; fill:none" points="
  186.274,567.165 205.172,567.165 
  "/>
<polyline clip-path="url(#clip740)" style="stroke:#000000; stroke-linecap:butt; stroke-linejoin:round; stroke-width:4; stroke-opacity:1; fill:none" points="
  186.274,345.954 205.172,345.954 
  "/>
<polyline clip-path="url(#clip740)" style="stroke:#000000; stroke-linecap:butt; stroke-linejoin:round; stroke-width:4; stroke-opacity:1; fill:none" points="
  186.274,124.744 205.172,124.744 
  "/>
<path clip-path="url(#clip740)" d="M62.9365 1216.6 Q59.3254 1216.6 57.4967 1220.16 Q55.6912 1223.7 55.6912 1230.83 Q55.6912 1237.94 57.4967 1241.5 Q59.3254 1245.05 62.9365 1245.05 Q66.5707 1245.05 68.3763 1241.5 Q70.205 1237.94 70.205 1230.83 Q70.205 1223.7 68.3763 1220.16 Q66.5707 1216.6 62.9365 1216.6 M62.9365 1212.89 Q68.7467 1212.89 71.8022 1217.5 Q74.8809 1222.08 74.8809 1230.83 Q74.8809 1239.56 71.8022 1244.17 Q68.7467 1248.75 62.9365 1248.75 Q57.1264 1248.75 54.0477 1244.17 Q50.9921 1239.56 50.9921 1230.83 Q50.9921 1222.08 54.0477 1217.5 Q57.1264 1212.89 62.9365 1212.89 Z" fill="#000000" fill-rule="evenodd" fill-opacity="1" /><path clip-path="url(#clip740)" d="M83.0984 1242.2 L87.9827 1242.2 L87.9827 1248.08 L83.0984 1248.08 L83.0984 1242.2 Z" fill="#000000" fill-rule="evenodd" fill-opacity="1" /><path clip-path="url(#clip740)" d="M98.2141 1213.52 L116.57 1213.52 L116.57 1217.45 L102.496 1217.45 L102.496 1225.93 Q103.515 1225.58 104.534 1225.42 Q105.552 1225.23 106.571 1225.23 Q112.358 1225.23 115.737 1228.4 Q119.117 1231.57 119.117 1236.99 Q119.117 1242.57 115.645 1245.67 Q112.172 1248.75 105.853 1248.75 Q103.677 1248.75 101.409 1248.38 Q99.1632 1248.01 96.7558 1247.27 L96.7558 1242.57 Q98.8391 1243.7 101.061 1244.26 Q103.284 1244.81 105.76 1244.81 Q109.765 1244.81 112.103 1242.71 Q114.441 1240.6 114.441 1236.99 Q114.441 1233.38 112.103 1231.27 Q109.765 1229.17 105.76 1229.17 Q103.885 1229.17 102.01 1229.58 Q100.159 1230 98.2141 1230.88 L98.2141 1213.52 Z" fill="#000000" fill-rule="evenodd" fill-opacity="1" /><path clip-path="url(#clip740)" d="M138.33 1216.6 Q134.719 1216.6 132.89 1220.16 Q131.084 1223.7 131.084 1230.83 Q131.084 1237.94 132.89 1241.5 Q134.719 1245.05 138.33 1245.05 Q141.964 1245.05 143.769 1241.5 Q145.598 1237.94 145.598 1230.83 Q145.598 1223.7 143.769 1220.16 Q141.964 1216.6 138.33 1216.6 M138.33 1212.89 Q144.14 1212.89 147.195 1217.5 Q150.274 1222.08 150.274 1230.83 Q150.274 1239.56 147.195 1244.17 Q144.14 1248.75 138.33 1248.75 Q132.519 1248.75 129.441 1244.17 Q126.385 1239.56 126.385 1230.83 Q126.385 1222.08 129.441 1217.5 Q132.519 1212.89 138.33 1212.89 Z" fill="#000000" fill-rule="evenodd" fill-opacity="1" /><path clip-path="url(#clip740)" d="M63.9319 995.386 Q60.3208 995.386 58.4921 998.95 Q56.6865 1002.49 56.6865 1009.62 Q56.6865 1016.73 58.4921 1020.29 Q60.3208 1023.83 63.9319 1023.83 Q67.5661 1023.83 69.3717 1020.29 Q71.2004 1016.73 71.2004 1009.62 Q71.2004 1002.49 69.3717 998.95 Q67.5661 995.386 63.9319 995.386 M63.9319 991.682 Q69.742 991.682 72.7976 996.288 Q75.8763 1000.87 75.8763 1009.62 Q75.8763 1018.35 72.7976 1022.95 Q69.742 1027.54 63.9319 1027.54 Q58.1217 1027.54 55.043 1022.95 Q51.9875 1018.35 51.9875 1009.62 Q51.9875 1000.87 55.043 996.288 Q58.1217 991.682 63.9319 991.682 Z" fill="#000000" fill-rule="evenodd" fill-opacity="1" /><path clip-path="url(#clip740)" d="M84.0938 1020.99 L88.978 1020.99 L88.978 1026.87 L84.0938 1026.87 L84.0938 1020.99 Z" fill="#000000" fill-rule="evenodd" fill-opacity="1" /><path clip-path="url(#clip740)" d="M97.9826 992.307 L120.205 992.307 L120.205 994.298 L107.658 1026.87 L102.774 1026.87 L114.58 996.242 L97.9826 996.242 L97.9826 992.307 Z" fill="#000000" fill-rule="evenodd" fill-opacity="1" /><path clip-path="url(#clip740)" d="M129.371 992.307 L147.728 992.307 L147.728 996.242 L133.654 996.242 L133.654 1004.71 Q134.672 1004.37 135.691 1004.21 Q136.709 1004.02 137.728 1004.02 Q143.515 1004.02 146.894 1007.19 Q150.274 1010.36 150.274 1015.78 Q150.274 1021.36 146.802 1024.46 Q143.33 1027.54 137.01 1027.54 Q134.834 1027.54 132.566 1027.17 Q130.32 1026.8 127.913 1026.06 L127.913 1021.36 Q129.996 1022.49 132.219 1023.05 Q134.441 1023.6 136.918 1023.6 Q140.922 1023.6 143.26 1021.5 Q145.598 1019.39 145.598 1015.78 Q145.598 1012.17 143.26 1010.06 Q140.922 1007.96 136.918 1007.96 Q135.043 1007.96 133.168 1008.37 Q131.316 1008.79 129.371 1009.67 L129.371 992.307 Z" fill="#000000" fill-rule="evenodd" fill-opacity="1" /><path clip-path="url(#clip740)" d="M53.7467 801.721 L61.3856 801.721 L61.3856 775.355 L53.0754 777.022 L53.0754 772.763 L61.3393 771.096 L66.0152 771.096 L66.0152 801.721 L73.654 801.721 L73.654 805.656 L53.7467 805.656 L53.7467 801.721 Z" fill="#000000" fill-rule="evenodd" fill-opacity="1" /><path clip-path="url(#clip740)" d="M83.0984 799.777 L87.9827 799.777 L87.9827 805.656 L83.0984 805.656 L83.0984 799.777 Z" fill="#000000" fill-rule="evenodd" fill-opacity="1" /><path clip-path="url(#clip740)" d="M108.168 774.175 Q104.557 774.175 102.728 777.74 Q100.922 781.281 100.922 788.411 Q100.922 795.517 102.728 799.082 Q104.557 802.624 108.168 802.624 Q111.802 802.624 113.608 799.082 Q115.436 795.517 115.436 788.411 Q115.436 781.281 113.608 777.74 Q111.802 774.175 108.168 774.175 M108.168 770.471 Q113.978 770.471 117.033 775.078 Q120.112 779.661 120.112 788.411 Q120.112 797.138 117.033 801.744 Q113.978 806.327 108.168 806.327 Q102.358 806.327 99.2789 801.744 Q96.2234 797.138 96.2234 788.411 Q96.2234 779.661 99.2789 775.078 Q102.358 770.471 108.168 770.471 Z" fill="#000000" fill-rule="evenodd" fill-opacity="1" /><path clip-path="url(#clip740)" d="M138.33 774.175 Q134.719 774.175 132.89 777.74 Q131.084 781.281 131.084 788.411 Q131.084 795.517 132.89 799.082 Q134.719 802.624 138.33 802.624 Q141.964 802.624 143.769 799.082 Q145.598 795.517 145.598 788.411 Q145.598 781.281 143.769 777.74 Q141.964 774.175 138.33 774.175 M138.33 770.471 Q144.14 770.471 147.195 775.078 Q150.274 779.661 150.274 788.411 Q150.274 797.138 147.195 801.744 Q144.14 806.327 138.33 806.327 Q132.519 806.327 129.441 801.744 Q126.385 797.138 126.385 788.411 Q126.385 779.661 129.441 775.078 Q132.519 770.471 138.33 770.471 Z" fill="#000000" fill-rule="evenodd" fill-opacity="1" /><path clip-path="url(#clip740)" d="M54.7421 580.51 L62.381 580.51 L62.381 554.145 L54.0708 555.811 L54.0708 551.552 L62.3347 549.885 L67.0106 549.885 L67.0106 580.51 L74.6494 580.51 L74.6494 584.445 L54.7421 584.445 L54.7421 580.51 Z" fill="#000000" fill-rule="evenodd" fill-opacity="1" /><path clip-path="url(#clip740)" d="M84.0938 578.566 L88.978 578.566 L88.978 584.445 L84.0938 584.445 L84.0938 578.566 Z" fill="#000000" fill-rule="evenodd" fill-opacity="1" /><path clip-path="url(#clip740)" d="M103.191 580.51 L119.51 580.51 L119.51 584.445 L97.566 584.445 L97.566 580.51 Q100.228 577.755 104.811 573.126 Q109.418 568.473 110.598 567.131 Q112.844 564.607 113.723 562.871 Q114.626 561.112 114.626 559.422 Q114.626 556.668 112.682 554.932 Q110.76 553.195 107.658 553.195 Q105.459 553.195 103.006 553.959 Q100.575 554.723 97.7974 556.274 L97.7974 551.552 Q100.621 550.418 103.075 549.839 Q105.529 549.26 107.566 549.26 Q112.936 549.26 116.131 551.945 Q119.325 554.631 119.325 559.121 Q119.325 561.251 118.515 563.172 Q117.728 565.07 115.621 567.663 Q115.043 568.334 111.941 571.552 Q108.839 574.746 103.191 580.51 Z" fill="#000000" fill-rule="evenodd" fill-opacity="1" /><path clip-path="url(#clip740)" d="M129.371 549.885 L147.728 549.885 L147.728 553.82 L133.654 553.82 L133.654 562.293 Q134.672 561.945 135.691 561.783 Q136.709 561.598 137.728 561.598 Q143.515 561.598 146.894 564.769 Q150.274 567.941 150.274 573.357 Q150.274 578.936 146.802 582.038 Q143.33 585.117 137.01 585.117 Q134.834 585.117 132.566 584.746 Q130.32 584.376 127.913 583.635 L127.913 578.936 Q129.996 580.07 132.219 580.626 Q134.441 581.181 136.918 581.181 Q140.922 581.181 143.26 579.075 Q145.598 576.968 145.598 573.357 Q145.598 569.746 143.26 567.64 Q140.922 565.533 136.918 565.533 Q135.043 565.533 133.168 565.95 Q131.316 566.367 129.371 567.246 L129.371 549.885 Z" fill="#000000" fill-rule="evenodd" fill-opacity="1" /><path clip-path="url(#clip740)" d="M53.7467 359.299 L61.3856 359.299 L61.3856 332.934 L53.0754 334.6 L53.0754 330.341 L61.3393 328.674 L66.0152 328.674 L66.0152 359.299 L73.654 359.299 L73.654 363.234 L53.7467 363.234 L53.7467 359.299 Z" fill="#000000" fill-rule="evenodd" fill-opacity="1" /><path clip-path="url(#clip740)" d="M83.0984 357.355 L87.9827 357.355 L87.9827 363.234 L83.0984 363.234 L83.0984 357.355 Z" fill="#000000" fill-rule="evenodd" fill-opacity="1" /><path clip-path="url(#clip740)" d="M98.2141 328.674 L116.57 328.674 L116.57 332.61 L102.496 332.61 L102.496 341.082 Q103.515 340.735 104.534 340.572 Q105.552 340.387 106.571 340.387 Q112.358 340.387 115.737 343.559 Q119.117 346.73 119.117 352.147 Q119.117 357.725 115.645 360.827 Q112.172 363.906 105.853 363.906 Q103.677 363.906 101.409 363.535 Q99.1632 363.165 96.7558 362.424 L96.7558 357.725 Q98.8391 358.859 101.061 359.415 Q103.284 359.971 105.76 359.971 Q109.765 359.971 112.103 357.864 Q114.441 355.758 114.441 352.147 Q114.441 348.535 112.103 346.429 Q109.765 344.322 105.76 344.322 Q103.885 344.322 102.01 344.739 Q100.159 345.156 98.2141 346.035 L98.2141 328.674 Z" fill="#000000" fill-rule="evenodd" fill-opacity="1" /><path clip-path="url(#clip740)" d="M138.33 331.753 Q134.719 331.753 132.89 335.318 Q131.084 338.86 131.084 345.989 Q131.084 353.096 132.89 356.66 Q134.719 360.202 138.33 360.202 Q141.964 360.202 143.769 356.66 Q145.598 353.096 145.598 345.989 Q145.598 338.86 143.769 335.318 Q141.964 331.753 138.33 331.753 M138.33 328.049 Q144.14 328.049 147.195 332.656 Q150.274 337.239 150.274 345.989 Q150.274 354.716 147.195 359.322 Q144.14 363.906 138.33 363.906 Q132.519 363.906 129.441 359.322 Q126.385 354.716 126.385 345.989 Q126.385 337.239 129.441 332.656 Q132.519 328.049 138.33 328.049 Z" fill="#000000" fill-rule="evenodd" fill-opacity="1" /><path clip-path="url(#clip740)" d="M54.7421 138.088 L62.381 138.088 L62.381 111.723 L54.0708 113.389 L54.0708 109.13 L62.3347 107.464 L67.0106 107.464 L67.0106 138.088 L74.6494 138.088 L74.6494 142.024 L54.7421 142.024 L54.7421 138.088 Z" fill="#000000" fill-rule="evenodd" fill-opacity="1" /><path clip-path="url(#clip740)" d="M84.0938 136.144 L88.978 136.144 L88.978 142.024 L84.0938 142.024 L84.0938 136.144 Z" fill="#000000" fill-rule="evenodd" fill-opacity="1" /><path clip-path="url(#clip740)" d="M97.9826 107.464 L120.205 107.464 L120.205 109.454 L107.658 142.024 L102.774 142.024 L114.58 111.399 L97.9826 111.399 L97.9826 107.464 Z" fill="#000000" fill-rule="evenodd" fill-opacity="1" /><path clip-path="url(#clip740)" d="M129.371 107.464 L147.728 107.464 L147.728 111.399 L133.654 111.399 L133.654 119.871 Q134.672 119.524 135.691 119.362 Q136.709 119.176 137.728 119.176 Q143.515 119.176 146.894 122.348 Q150.274 125.519 150.274 130.936 Q150.274 136.514 146.802 139.616 Q143.33 142.695 137.01 142.695 Q134.834 142.695 132.566 142.324 Q130.32 141.954 127.913 141.213 L127.913 136.514 Q129.996 137.649 132.219 138.204 Q134.441 138.76 136.918 138.76 Q140.922 138.76 143.26 136.653 Q145.598 134.547 145.598 130.936 Q145.598 127.325 143.26 125.218 Q140.922 123.112 136.918 123.112 Q135.043 123.112 133.168 123.528 Q131.316 123.945 129.371 124.825 L129.371 107.464 Z" fill="#000000" fill-rule="evenodd" fill-opacity="1" /><polyline clip-path="url(#clip742)" style="stroke:#009af9; stroke-linecap:butt; stroke-linejoin:round; stroke-width:4; stroke-opacity:1; fill:none" points="
  186.274,1230.8 321.679,1185.06 457.084,1163.72 592.489,1148.55 727.894,1214.11 863.3,1188.68 998.705,1060.47 1134.11,970.985 1269.51,839.114 1404.92,1330.9 
  1540.33,1384.24 1675.73,1269.92 1811.14,1134.48 1946.54,824.273 2081.95,600.87 2217.35,378.84 2352.76,232.59 
  "/>
<polyline clip-path="url(#clip742)" style="stroke:#e26f46; stroke-linecap:butt; stroke-linejoin:round; stroke-width:4; stroke-opacity:1; fill:none" points="
  186.274,1230.8 321.679,1185.38 457.084,1164.71 592.489,1150.33 727.894,1216.97 863.3,1192.26 998.705,1064.52 1134.11,975.787 1269.51,844.687 1404.92,1297.17 
  1540.33,1356.68 1675.73,1230.77 1811.14,1081.44 1946.54,738.497 2081.95,491.62 2217.35,246.507 2352.76,86.1857 
  "/>
<path clip-path="url(#clip740)" d="
M1812.21 248.629 L2280.54 248.629 L2280.54 93.1086 L1812.21 93.1086  Z
  " fill="#ffffff" fill-rule="evenodd" fill-opacity="1"/>
<polyline clip-path="url(#clip740)" style="stroke:#000000; stroke-linecap:butt; stroke-linejoin:round; stroke-width:4; stroke-opacity:1; fill:none" points="
  1812.21,248.629 2280.54,248.629 2280.54,93.1086 1812.21,93.1086 1812.21,248.629 
  "/>
<polyline clip-path="url(#clip740)" style="stroke:#009af9; stroke-linecap:butt; stroke-linejoin:round; stroke-width:4; stroke-opacity:1; fill:none" points="
  1836.28,144.949 1980.71,144.949 
  "/>
<path clip-path="url(#clip740)" d="M2004.78 151.997 L2004.78 136.303 L2009.04 136.303 L2009.04 151.835 Q2009.04 155.516 2010.48 157.368 Q2011.91 159.196 2014.78 159.196 Q2018.23 159.196 2020.22 156.997 Q2022.23 154.798 2022.23 151.002 L2022.23 136.303 L2026.49 136.303 L2026.49 162.229 L2022.23 162.229 L2022.23 158.247 Q2020.68 160.608 2018.62 161.766 Q2016.59 162.9 2013.88 162.9 Q2009.41 162.9 2007.1 160.122 Q2004.78 157.344 2004.78 151.997 M2015.5 135.678 L2015.5 135.678 Z" fill="#000000" fill-rule="evenodd" fill-opacity="1" /><path clip-path="url(#clip740)" d="M2036.68 158.293 L2044.32 158.293 L2044.32 131.928 L2036.01 133.595 L2036.01 129.335 L2044.27 127.669 L2048.95 127.669 L2048.95 158.293 L2056.59 158.293 L2056.59 162.229 L2036.68 162.229 L2036.68 158.293 Z" fill="#000000" fill-rule="evenodd" fill-opacity="1" /><path clip-path="url(#clip740)" d="M2075.66 126.257 Q2072.56 131.581 2071.05 136.789 Q2069.55 141.997 2069.55 147.344 Q2069.55 152.692 2071.05 157.946 Q2072.58 163.178 2075.66 168.479 L2071.96 168.479 Q2068.48 163.039 2066.75 157.784 Q2065.04 152.53 2065.04 147.344 Q2065.04 142.182 2066.75 136.951 Q2068.46 131.72 2071.96 126.257 L2075.66 126.257 Z" fill="#000000" fill-rule="evenodd" fill-opacity="1" /><path clip-path="url(#clip740)" d="M2088.14 128.942 L2088.14 136.303 L2096.91 136.303 L2096.91 139.613 L2088.14 139.613 L2088.14 153.687 Q2088.14 156.858 2088.99 157.761 Q2089.87 158.664 2092.54 158.664 L2096.91 158.664 L2096.91 162.229 L2092.54 162.229 Q2087.6 162.229 2085.73 160.4 Q2083.85 158.548 2083.85 153.687 L2083.85 139.613 L2080.73 139.613 L2080.73 136.303 L2083.85 136.303 L2083.85 128.942 L2088.14 128.942 Z" fill="#000000" fill-rule="evenodd" fill-opacity="1" /><path clip-path="url(#clip740)" d="M2101.84 126.257 L2105.54 126.257 Q2109.02 131.72 2110.73 136.951 Q2112.47 142.182 2112.47 147.344 Q2112.47 152.53 2110.73 157.784 Q2109.02 163.039 2105.54 168.479 L2101.84 168.479 Q2104.92 163.178 2106.42 157.946 Q2107.95 152.692 2107.95 147.344 Q2107.95 141.997 2106.42 136.789 Q2104.92 131.581 2101.84 126.257 Z" fill="#000000" fill-rule="evenodd" fill-opacity="1" /><polyline clip-path="url(#clip740)" style="stroke:#e26f46; stroke-linecap:butt; stroke-linejoin:round; stroke-width:4; stroke-opacity:1; fill:none" points="
  1836.28,196.789 1980.71,196.789 
  "/>
<path clip-path="url(#clip740)" d="M2004.78 179.509 L2034.02 179.509 L2034.02 183.444 L2021.75 183.444 L2021.75 214.069 L2017.05 214.069 L2017.05 183.444 L2004.78 183.444 L2004.78 179.509 Z" fill="#000000" fill-rule="evenodd" fill-opacity="1" /><path clip-path="url(#clip740)" d="M2046.4 192.124 Q2045.68 191.708 2044.83 191.522 Q2043.99 191.314 2042.98 191.314 Q2039.36 191.314 2037.42 193.675 Q2035.5 196.013 2035.5 200.411 L2035.5 214.069 L2031.22 214.069 L2031.22 188.143 L2035.5 188.143 L2035.5 192.171 Q2036.84 189.809 2038.99 188.675 Q2041.15 187.518 2044.23 187.518 Q2044.67 187.518 2045.2 187.587 Q2045.73 187.634 2046.38 187.749 L2046.4 192.124 Z" fill="#000000" fill-rule="evenodd" fill-opacity="1" /><path clip-path="url(#clip740)" d="M2050.43 203.837 L2050.43 188.143 L2054.69 188.143 L2054.69 203.675 Q2054.69 207.356 2056.12 209.208 Q2057.56 211.036 2060.43 211.036 Q2063.88 211.036 2065.87 208.837 Q2067.88 206.638 2067.88 202.842 L2067.88 188.143 L2072.14 188.143 L2072.14 214.069 L2067.88 214.069 L2067.88 210.087 Q2066.33 212.448 2064.27 213.606 Q2062.23 214.74 2059.53 214.74 Q2055.06 214.74 2052.74 211.962 Q2050.43 209.184 2050.43 203.837 M2061.15 187.518 L2061.15 187.518 Z" fill="#000000" fill-rule="evenodd" fill-opacity="1" /><path clip-path="url(#clip740)" d="M2103.09 200.041 L2103.09 202.124 L2083.51 202.124 Q2083.79 206.522 2086.15 208.837 Q2088.53 211.129 2092.77 211.129 Q2095.22 211.129 2097.51 210.527 Q2099.83 209.925 2102.1 208.721 L2102.1 212.749 Q2099.8 213.721 2097.4 214.231 Q2094.99 214.74 2092.51 214.74 Q2086.31 214.74 2082.67 211.129 Q2079.06 207.518 2079.06 201.36 Q2079.06 194.995 2082.49 191.268 Q2085.94 187.518 2091.77 187.518 Q2097 187.518 2100.04 190.897 Q2103.09 194.254 2103.09 200.041 M2098.83 198.791 Q2098.79 195.296 2096.86 193.212 Q2094.97 191.129 2091.82 191.129 Q2088.25 191.129 2086.1 193.143 Q2083.97 195.157 2083.65 198.814 L2098.83 198.791 Z" fill="#000000" fill-rule="evenodd" fill-opacity="1" /><path clip-path="url(#clip740)" d="M2124.71 203.837 L2124.71 188.143 L2128.97 188.143 L2128.97 203.675 Q2128.97 207.356 2130.41 209.208 Q2131.84 211.036 2134.71 211.036 Q2138.16 211.036 2140.15 208.837 Q2142.16 206.638 2142.16 202.842 L2142.16 188.143 L2146.42 188.143 L2146.42 214.069 L2142.16 214.069 L2142.16 210.087 Q2140.61 212.448 2138.55 213.606 Q2136.52 214.74 2133.81 214.74 Q2129.34 214.74 2127.03 211.962 Q2124.71 209.184 2124.71 203.837 M2135.43 187.518 L2135.43 187.518 Z" fill="#000000" fill-rule="evenodd" fill-opacity="1" /><path clip-path="url(#clip740)" d="M2156.61 210.133 L2164.25 210.133 L2164.25 183.768 L2155.94 185.435 L2155.94 181.175 L2164.2 179.509 L2168.88 179.509 L2168.88 210.133 L2176.52 210.133 L2176.52 214.069 L2156.61 214.069 L2156.61 210.133 Z" fill="#000000" fill-rule="evenodd" fill-opacity="1" /><path clip-path="url(#clip740)" d="M2195.59 178.097 Q2192.49 183.421 2190.98 188.629 Q2189.48 193.837 2189.48 199.184 Q2189.48 204.532 2190.98 209.786 Q2192.51 215.018 2195.59 220.319 L2191.89 220.319 Q2188.41 214.879 2186.68 209.624 Q2184.97 204.37 2184.97 199.184 Q2184.97 194.022 2186.68 188.791 Q2188.39 183.56 2191.89 178.097 L2195.59 178.097 Z" fill="#000000" fill-rule="evenodd" fill-opacity="1" /><path clip-path="url(#clip740)" d="M2208.07 180.782 L2208.07 188.143 L2216.84 188.143 L2216.84 191.453 L2208.07 191.453 L2208.07 205.527 Q2208.07 208.698 2208.92 209.601 Q2209.8 210.504 2212.47 210.504 L2216.84 210.504 L2216.84 214.069 L2212.47 214.069 Q2207.53 214.069 2205.66 212.24 Q2203.78 210.388 2203.78 205.527 L2203.78 191.453 L2200.66 191.453 L2200.66 188.143 L2203.78 188.143 L2203.78 180.782 L2208.07 180.782 Z" fill="#000000" fill-rule="evenodd" fill-opacity="1" /><path clip-path="url(#clip740)" d="M2221.77 178.097 L2225.47 178.097 Q2228.95 183.56 2230.66 188.791 Q2232.4 194.022 2232.4 199.184 Q2232.4 204.37 2230.66 209.624 Q2228.95 214.879 2225.47 220.319 L2221.77 220.319 Q2224.85 215.018 2226.35 209.786 Q2227.88 204.532 2227.88 199.184 Q2227.88 193.837 2226.35 188.629 Q2224.85 183.421 2221.77 178.097 Z" fill="#000000" fill-rule="evenodd" fill-opacity="1" /></svg>
