<?xml version="1.0" encoding="utf-8"?>
<svg xmlns="http://www.w3.org/2000/svg" xmlns:xlink="http://www.w3.org/1999/xlink" width="600" height="400" viewBox="0 0 2400 1600">
<defs>
  <clipPath id="clip860">
    <rect x="0" y="0" width="2400" height="1600"/>
  </clipPath>
</defs>
<path clip-path="url(#clip860)" d="
M0 1600 L2400 1600 L2400 0 L0 0  Z
  " fill="#ffffff" fill-rule="evenodd" fill-opacity="1"/>
<defs>
  <clipPath id="clip861">
    <rect x="480" y="0" width="1681" height="1600"/>
  </clipPath>
</defs>
<path clip-path="url(#clip860)" d="
M156.112 1423.18 L2352.76 1423.18 L2352.76 47.2441 L156.112 47.2441  Z
  " fill="#ffffff" fill-rule="evenodd" fill-opacity="1"/>
<defs>
  <clipPath id="clip862">
    <rect x="156" y="47" width="2198" height="1377"/>
  </clipPath>
</defs>
<polyline clip-path="url(#clip862)" style="stroke:#000000; stroke-linecap:butt; stroke-linejoin:round; stroke-width:2; stroke-opacity:0.1; fill:none" points="
  156.112,1423.18 156.112,47.2441 
  "/>
<polyline clip-path="url(#clip862)" style="stroke:#000000; stroke-linecap:butt; stroke-linejoin:round; stroke-width:2; stroke-opacity:0.1; fill:none" points="
  595.441,1423.18 595.441,47.2441 
  "/>
<polyline clip-path="url(#clip862)" style="stroke:#000000; stroke-linecap:butt; stroke-linejoin:round; stroke-width:2; stroke-opacity:0.1; fill:none" points="
  1034.77,1423.18 1034.77,47.2441 
  "/>
<polyline clip-path="url(#clip862)" style="stroke:#000000; stroke-linecap:butt; stroke-linejoin:round; stroke-width:2; stroke-opacity:0.1; fill:none" points="
  1474.1,1423.18 1474.1,47.2441 
  "/>
<polyline clip-path="url(#clip862)" style="stroke:#000000; stroke-linecap:butt; stroke-linejoin:round; stroke-width:2; stroke-opacity:0.1; fill:none" points="
  1913.43,1423.18 1913.43,47.2441 
  "/>
<polyline clip-path="url(#clip862)" style="stroke:#000000; stroke-linecap:butt; stroke-linejoin:round; stroke-width:2; stroke-opacity:0.1; fill:none" points="
  2352.76,1423.18 2352.76,47.2441 
  "/>
<polyline clip-path="url(#clip860)" style="stroke:#000000; stroke-linecap:butt; stroke-linejoin:round; stroke-width:4; stroke-opacity:1; fill:none" points="
  156.112,1423.18 2352.76,1423.18 
  "/>
<polyline clip-path="url(#clip860)" style="stroke:#000000; stroke-linecap:butt; stroke-linejoin:round; stroke-width:4; stroke-opacity:1; fill:none" points="
  156.112,1423.18 156.112,1404.28 
  "/>
<polyline clip-path="url(#clip860)" style="stroke:#000000; stroke-linecap:butt; stroke-linejoin:round; stroke-width:4; stroke-opacity:1; fill:none" points="
  595.441,1423.18 595.441,1404.28 
  "/>
<polyline clip-path="url(#clip860)" style="stroke:#000000; stroke-linecap:butt; stroke-linejoin:round; stroke-width:4; stroke-opacity:1; fill:none" points="
  1034.77,1423.18 1034.77,1404.28 
  "/>
<polyline clip-path="url(#clip860)" style="stroke:#000000; stroke-linecap:butt; stroke-linejoin:round; stroke-width:4; stroke-opacity:1; fill:none" points="
  1474.1,1423.18 1474.1,1404.28 
  "/>
<polyline clip-path="url(#clip860)" style="stroke:#000000; stroke-linecap:butt; stroke-linejoin:round; stroke-width:4; stroke-opacity:1; fill:none" points="
  1913.43,1423.18 1913.43,1404.28 
  "/>
<polyline clip-path="url(#clip860)" style="stroke:#000000; stroke-linecap:butt; stroke-linejoin:round; stroke-width:4; stroke-opacity:1; fill:none" points="
  2352.76,1423.18 2352.76,1404.28 
  "/>
<path clip-path="url(#clip860)" d="M133.497 1454.1 Q129.885 1454.1 128.057 1457.66 Q126.251 1461.2 126.251 1468.33 Q126.251 1475.44 128.057 1479.01 Q129.885 1482.55 133.497 1482.55 Q137.131 1482.55 138.936 1479.01 Q140.765 1475.44 140.765 1468.33 Q140.765 1461.2 138.936 1457.66 Q137.131 1454.1 133.497 1454.1 M133.497 1450.39 Q139.307 1450.39 142.362 1455 Q145.441 1459.58 145.441 1468.33 Q145.441 1477.06 142.362 1481.67 Q139.307 1486.25 133.497 1486.25 Q127.686 1486.25 124.608 1481.67 Q121.552 1477.06 121.552 1468.33 Q121.552 1459.58 124.608 1455 Q127.686 1450.39 133.497 1450.39 Z" fill="#000000" fill-rule="evenodd" fill-opacity="1" /><path clip-path="url(#clip860)" d="M153.658 1479.7 L158.543 1479.7 L158.543 1485.58 L153.658 1485.58 L153.658 1479.7 Z" fill="#000000" fill-rule="evenodd" fill-opacity="1" /><path clip-path="url(#clip860)" d="M178.728 1454.1 Q175.117 1454.1 173.288 1457.66 Q171.482 1461.2 171.482 1468.33 Q171.482 1475.44 173.288 1479.01 Q175.117 1482.55 178.728 1482.55 Q182.362 1482.55 184.168 1479.01 Q185.996 1475.44 185.996 1468.33 Q185.996 1461.2 184.168 1457.66 Q182.362 1454.1 178.728 1454.1 M178.728 1450.39 Q184.538 1450.39 187.593 1455 Q190.672 1459.58 190.672 1468.33 Q190.672 1477.06 187.593 1481.67 Q184.538 1486.25 178.728 1486.25 Q172.918 1486.25 169.839 1481.67 Q166.783 1477.06 166.783 1468.33 Q166.783 1459.58 169.839 1455 Q172.918 1450.39 178.728 1450.39 Z" fill="#000000" fill-rule="evenodd" fill-opacity="1" /><path clip-path="url(#clip860)" d="M573.624 1454.1 Q570.013 1454.1 568.184 1457.66 Q566.379 1461.2 566.379 1468.33 Q566.379 1475.44 568.184 1479.01 Q570.013 1482.55 573.624 1482.55 Q577.258 1482.55 579.064 1479.01 Q580.892 1475.44 580.892 1468.33 Q580.892 1461.2 579.064 1457.66 Q577.258 1454.1 573.624 1454.1 M573.624 1450.39 Q579.434 1450.39 582.49 1455 Q585.568 1459.58 585.568 1468.33 Q585.568 1477.06 582.49 1481.67 Q579.434 1486.25 573.624 1486.25 Q567.814 1486.25 564.735 1481.67 Q561.679 1477.06 561.679 1468.33 Q561.679 1459.58 564.735 1455 Q567.814 1450.39 573.624 1450.39 Z" fill="#000000" fill-rule="evenodd" fill-opacity="1" /><path clip-path="url(#clip860)" d="M593.786 1479.7 L598.67 1479.7 L598.67 1485.58 L593.786 1485.58 L593.786 1479.7 Z" fill="#000000" fill-rule="evenodd" fill-opacity="1" /><path clip-path="url(#clip860)" d="M612.883 1481.64 L629.202 1481.64 L629.202 1485.58 L607.258 1485.58 L607.258 1481.64 Q609.92 1478.89 614.503 1474.26 Q619.11 1469.61 620.29 1468.27 Q622.536 1465.74 623.415 1464.01 Q624.318 1462.25 624.318 1460.56 Q624.318 1457.8 622.374 1456.07 Q620.452 1454.33 617.35 1454.33 Q615.151 1454.33 612.698 1455.09 Q610.267 1455.86 607.489 1457.41 L607.489 1452.69 Q610.313 1451.55 612.767 1450.97 Q615.221 1450.39 617.258 1450.39 Q622.628 1450.39 625.823 1453.08 Q629.017 1455.77 629.017 1460.26 Q629.017 1462.39 628.207 1464.31 Q627.42 1466.2 625.313 1468.8 Q624.735 1469.47 621.633 1472.69 Q618.531 1475.88 612.883 1481.64 Z" fill="#000000" fill-rule="evenodd" fill-opacity="1" /><path clip-path="url(#clip860)" d="M1011.91 1454.1 Q1008.3 1454.1 1006.47 1457.66 Q1004.67 1461.2 1004.67 1468.33 Q1004.67 1475.44 1006.47 1479.01 Q1008.3 1482.55 1011.91 1482.55 Q1015.55 1482.55 1017.35 1479.01 Q1019.18 1475.44 1019.18 1468.33 Q1019.18 1461.2 1017.35 1457.66 Q1015.55 1454.1 1011.91 1454.1 M1011.91 1450.39 Q1017.72 1450.39 1020.78 1455 Q1023.86 1459.58 1023.86 1468.33 Q1023.86 1477.06 1020.78 1481.67 Q1017.72 1486.25 1011.91 1486.25 Q1006.1 1486.25 1003.02 1481.67 Q999.967 1477.06 999.967 1468.33 Q999.967 1459.58 1003.02 1455 Q1006.1 1450.39 1011.91 1450.39 Z" fill="#000000" fill-rule="evenodd" fill-opacity="1" /><path clip-path="url(#clip860)" d="M1032.07 1479.7 L1036.96 1479.7 L1036.96 1485.58 L1032.07 1485.58 L1032.07 1479.7 Z" fill="#000000" fill-rule="evenodd" fill-opacity="1" /><path clip-path="url(#clip860)" d="M1059.99 1455.09 L1048.18 1473.54 L1059.99 1473.54 L1059.99 1455.09 M1058.76 1451.02 L1064.64 1451.02 L1064.64 1473.54 L1069.57 1473.54 L1069.57 1477.43 L1064.64 1477.43 L1064.64 1485.58 L1059.99 1485.58 L1059.99 1477.43 L1044.39 1477.43 L1044.39 1472.92 L1058.76 1451.02 Z" fill="#000000" fill-rule="evenodd" fill-opacity="1" /><path clip-path="url(#clip860)" d="M1451.4 1454.1 Q1447.79 1454.1 1445.96 1457.66 Q1444.16 1461.2 1444.16 1468.33 Q1444.16 1475.44 1445.96 1479.01 Q1447.79 1482.55 1451.4 1482.55 Q1455.04 1482.55 1456.84 1479.01 Q1458.67 1475.44 1458.67 1468.33 Q1458.67 1461.2 1456.84 1457.66 Q1455.04 1454.1 1451.4 1454.1 M1451.4 1450.39 Q1457.21 1450.39 1460.27 1455 Q1463.35 1459.58 1463.35 1468.33 Q1463.35 1477.06 1460.27 1481.67 Q1457.21 1486.25 1451.4 1486.25 Q1445.59 1486.25 1442.51 1481.67 Q1439.46 1477.06 1439.46 1468.33 Q1439.46 1459.58 1442.51 1455 Q1445.59 1450.39 1451.4 1450.39 Z" fill="#000000" fill-rule="evenodd" fill-opacity="1" /><path clip-path="url(#clip860)" d="M1471.56 1479.7 L1476.45 1479.7 L1476.45 1485.58 L1471.56 1485.58 L1471.56 1479.7 Z" fill="#000000" fill-rule="evenodd" fill-opacity="1" /><path clip-path="url(#clip860)" d="M1497.21 1466.44 Q1494.06 1466.44 1492.21 1468.59 Q1490.38 1470.74 1490.38 1474.49 Q1490.38 1478.22 1492.21 1480.39 Q1494.06 1482.55 1497.21 1482.55 Q1500.36 1482.55 1502.19 1480.39 Q1504.04 1478.22 1504.04 1474.49 Q1504.04 1470.74 1502.19 1468.59 Q1500.36 1466.44 1497.21 1466.44 M1506.49 1451.78 L1506.49 1456.04 Q1504.73 1455.21 1502.93 1454.77 Q1501.15 1454.33 1499.39 1454.33 Q1494.76 1454.33 1492.3 1457.45 Q1489.87 1460.58 1489.53 1466.9 Q1490.89 1464.89 1492.95 1463.82 Q1495.01 1462.73 1497.49 1462.73 Q1502.7 1462.73 1505.71 1465.9 Q1508.74 1469.05 1508.74 1474.49 Q1508.74 1479.82 1505.59 1483.03 Q1502.44 1486.25 1497.21 1486.25 Q1491.22 1486.25 1488.05 1481.67 Q1484.87 1477.06 1484.87 1468.33 Q1484.87 1460.14 1488.76 1455.28 Q1492.65 1450.39 1499.2 1450.39 Q1500.96 1450.39 1502.74 1450.74 Q1504.55 1451.09 1506.49 1451.78 Z" fill="#000000" fill-rule="evenodd" fill-opacity="1" /><path clip-path="url(#clip860)" d="M1890.86 1454.1 Q1887.25 1454.1 1885.42 1457.66 Q1883.61 1461.2 1883.61 1468.33 Q1883.61 1475.44 1885.42 1479.01 Q1887.25 1482.55 1890.86 1482.55 Q1894.49 1482.55 1896.3 1479.01 Q1898.13 1475.44 1898.13 1468.33 Q1898.13 1461.2 1896.3 1457.66 Q1894.49 1454.1 1890.86 1454.1 M1890.86 1450.39 Q1896.67 1450.39 1899.72 1455 Q1902.8 1459.58 1902.8 1468.33 Q1902.8 1477.06 1899.72 1481.67 Q1896.67 1486.25 1890.86 1486.25 Q1885.05 1486.25 1881.97 1481.67 Q1878.91 1477.06 1878.91 1468.33 Q1878.91 1459.58 1881.97 1455 Q1885.05 1450.39 1890.86 1450.39 Z" fill="#000000" fill-rule="evenodd" fill-opacity="1" /><path clip-path="url(#clip860)" d="M1911.02 1479.7 L1915.9 1479.7 L1915.9 1485.58 L1911.02 1485.58 L1911.02 1479.7 Z" fill="#000000" fill-rule="evenodd" fill-opacity="1" /><path clip-path="url(#clip860)" d="M1936.09 1469.17 Q1932.76 1469.17 1930.83 1470.95 Q1928.94 1472.73 1928.94 1475.86 Q1928.94 1478.98 1930.83 1480.77 Q1932.76 1482.55 1936.09 1482.55 Q1939.42 1482.55 1941.34 1480.77 Q1943.26 1478.96 1943.26 1475.86 Q1943.26 1472.73 1941.34 1470.95 Q1939.45 1469.17 1936.09 1469.17 M1931.41 1467.18 Q1928.4 1466.44 1926.71 1464.38 Q1925.05 1462.32 1925.05 1459.35 Q1925.05 1455.21 1927.99 1452.8 Q1930.95 1450.39 1936.09 1450.39 Q1941.25 1450.39 1944.19 1452.8 Q1947.13 1455.21 1947.13 1459.35 Q1947.13 1462.32 1945.44 1464.38 Q1943.77 1466.44 1940.79 1467.18 Q1944.17 1467.96 1946.04 1470.26 Q1947.94 1472.55 1947.94 1475.86 Q1947.94 1480.88 1944.86 1483.57 Q1941.81 1486.25 1936.09 1486.25 Q1930.37 1486.25 1927.29 1483.57 Q1924.24 1480.88 1924.24 1475.86 Q1924.24 1472.55 1926.14 1470.26 Q1928.03 1467.96 1931.41 1467.18 M1929.7 1459.79 Q1929.7 1462.48 1931.37 1463.98 Q1933.06 1465.49 1936.09 1465.49 Q1939.1 1465.49 1940.79 1463.98 Q1942.5 1462.48 1942.5 1459.79 Q1942.5 1457.11 1940.79 1455.6 Q1939.1 1454.1 1936.09 1454.1 Q1933.06 1454.1 1931.37 1455.6 Q1929.7 1457.11 1929.7 1459.79 Z" fill="#000000" fill-rule="evenodd" fill-opacity="1" /><path clip-path="url(#clip860)" d="M2319.91 1481.64 L2327.55 1481.64 L2327.55 1455.28 L2319.24 1456.95 L2319.24 1452.69 L2327.5 1451.02 L2332.18 1451.02 L2332.18 1481.64 L2339.82 1481.64 L2339.82 1485.58 L2319.91 1485.58 L2319.91 1481.64 Z" fill="#000000" fill-rule="evenodd" fill-opacity="1" /><path clip-path="url(#clip860)" d="M2349.26 1479.7 L2354.14 1479.7 L2354.14 1485.58 L2349.26 1485.58 L2349.26 1479.7 Z" fill="#000000" fill-rule="evenodd" fill-opacity="1" /><path clip-path="url(#clip860)" d="M2374.33 1454.1 Q2370.72 1454.1 2368.89 1457.66 Q2367.08 1461.2 2367.08 1468.33 Q2367.08 1475.44 2368.89 1479.01 Q2370.72 1482.55 2374.33 1482.55 Q2377.96 1482.55 2379.77 1479.01 Q2381.6 1475.44 2381.6 1468.33 Q2381.6 1461.2 2379.77 1457.66 Q2377.96 1454.1 2374.33 1454.1 M2374.33 1450.39 Q2380.14 1450.39 2383.2 1455 Q2386.27 1459.58 2386.27 1468.33 Q2386.27 1477.06 2383.2 1481.67 Q2380.14 1486.25 2374.33 1486.25 Q2368.52 1486.25 2365.44 1481.67 Q2362.39 1477.06 2362.39 1468.33 Q2362.39 1459.58 2365.44 1455 Q2368.52 1450.39 2374.33 1450.39 Z" fill="#000000" fill-rule="evenodd" fill-opacity="1" /><path clip-path="url(#clip860)" d="M1253.5 1522.27 L1253.5 1532.4 L1265.56 1532.4 L1265.56 1536.95 L1253.5 1536.95 L1253.5 1556.3 Q1253.5 1560.66 1254.67 1561.9 Q1255.88 1563.14 1259.54 1563.14 L1265.56 1563.14 L1265.56 1568.04 L1259.54 1568.04 Q1252.76 1568.04 1250.18 1565.53 Q1247.61 1562.98 1247.61 1556.3 L1247.61 1536.95 L1243.31 1536.95 L1243.31 1532.4 L1247.61 1532.4 L1247.61 1522.27 L1253.5 1522.27 Z" fill="#000000" fill-rule="evenodd" fill-opacity="1" /><polyline clip-path="url(#clip862)" style="stroke:#000000; stroke-linecap:butt; stroke-linejoin:round; stroke-width:2; stroke-opacity:0.1; fill:none" points="
  156.112,1395.14 2352.76,1395.14 
  "/>
<polyline clip-path="url(#clip862)" style="stroke:#000000; stroke-linecap:butt; stroke-linejoin:round; stroke-width:2; stroke-opacity:0.1; fill:none" points="
  156.112,1164.75 2352.76,1164.75 
  "/>
<polyline clip-path="url(#clip862)" style="stroke:#000000; stroke-linecap:butt; stroke-linejoin:round; stroke-width:2; stroke-opacity:0.1; fill:none" points="
  156.112,934.359 2352.76,934.359 
  "/>
<polyline clip-path="url(#clip862)" style="stroke:#000000; stroke-linecap:butt; stroke-linejoin:round; stroke-width:2; stroke-opacity:0.1; fill:none" points="
  156.112,703.97 2352.76,703.97 
  "/>
<polyline clip-path="url(#clip862)" style="stroke:#000000; stroke-linecap:butt; stroke-linejoin:round; stroke-width:2; stroke-opacity:0.1; fill:none" points="
  156.112,473.58 2352.76,473.58 
  "/>
<polyline clip-path="url(#clip862)" style="stroke:#000000; stroke-linecap:butt; stroke-linejoin:round; stroke-width:2; stroke-opacity:0.1; fill:none" points="
  156.112,243.191 2352.76,243.191 
  "/>
<polyline clip-path="url(#clip860)" style="stroke:#000000; stroke-linecap:butt; stroke-linejoin:round; stroke-width:4; stroke-opacity:1; fill:none" points="
  156.112,1423.18 156.112,47.2441 
  "/>
<polyline clip-path="url(#clip860)" style="stroke:#000000; stroke-linecap:butt; stroke-linejoin:round; stroke-width:4; stroke-opacity:1; fill:none" points="
  156.112,1395.14 175.01,1395.14 
  "/>
<polyline clip-path="url(#clip860)" style="stroke:#000000; stroke-linecap:butt; stroke-linejoin:round; stroke-width:4; stroke-opacity:1; fill:none" points="
  156.112,1164.75 175.01,1164.75 
  "/>
<polyline clip-path="url(#clip860)" style="stroke:#000000; stroke-linecap:butt; stroke-linejoin:round; stroke-width:4; stroke-opacity:1; fill:none" points="
  156.112,934.359 175.01,934.359 
  "/>
<polyline clip-path="url(#clip860)" style="stroke:#000000; stroke-linecap:butt; stroke-linejoin:round; stroke-width:4; stroke-opacity:1; fill:none" points="
  156.112,703.97 175.01,703.97 
  "/>
<polyline clip-path="url(#clip860)" style="stroke:#000000; stroke-linecap:butt; stroke-linejoin:round; stroke-width:4; stroke-opacity:1; fill:none" points="
  156.112,473.58 175.01,473.58 
  "/>
<polyline clip-path="url(#clip860)" style="stroke:#000000; stroke-linecap:butt; stroke-linejoin:round; stroke-width:4; stroke-opacity:1; fill:none" points="
  156.112,243.191 175.01,243.191 
  "/>
<path clip-path="url(#clip860)" d="M62.9365 1380.94 Q59.3254 1380.94 57.4967 1384.5 Q55.6912 1388.04 55.6912 1395.17 Q55.6912 1402.28 57.4967 1405.84 Q59.3254 1409.39 62.9365 1409.39 Q66.5707 1409.39 68.3763 1405.84 Q70.205 1402.28 70.205 1395.17 Q70.205 1388.04 68.3763 1384.5 Q66.5707 1380.94 62.9365 1380.94 M62.9365 1377.23 Q68.7467 1377.23 71.8022 1381.84 Q74.8809 1386.42 74.8809 1395.17 Q74.8809 1403.9 71.8022 1408.51 Q68.7467 1413.09 62.9365 1413.09 Q57.1264 1413.09 54.0477 1408.51 Q50.9921 1403.9 50.9921 1395.17 Q50.9921 1386.42 54.0477 1381.84 Q57.1264 1377.23 62.9365 1377.23 Z" fill="#000000" fill-rule="evenodd" fill-opacity="1" /><path clip-path="url(#clip860)" d="M83.0984 1406.54 L87.9827 1406.54 L87.9827 1412.42 L83.0984 1412.42 L83.0984 1406.54 Z" fill="#000000" fill-rule="evenodd" fill-opacity="1" /><path clip-path="url(#clip860)" d="M108.168 1380.94 Q104.557 1380.94 102.728 1384.5 Q100.922 1388.04 100.922 1395.17 Q100.922 1402.28 102.728 1405.84 Q104.557 1409.39 108.168 1409.39 Q111.802 1409.39 113.608 1405.84 Q115.436 1402.28 115.436 1395.17 Q115.436 1388.04 113.608 1384.5 Q111.802 1380.94 108.168 1380.94 M108.168 1377.23 Q113.978 1377.23 117.033 1381.84 Q120.112 1386.42 120.112 1395.17 Q120.112 1403.9 117.033 1408.51 Q113.978 1413.09 108.168 1413.09 Q102.358 1413.09 99.2789 1408.51 Q96.2234 1403.9 96.2234 1395.17 Q96.2234 1386.42 99.2789 1381.84 Q102.358 1377.23 108.168 1377.23 Z" fill="#000000" fill-rule="evenodd" fill-opacity="1" /><path clip-path="url(#clip860)" d="M63.9319 1150.55 Q60.3208 1150.55 58.4921 1154.11 Q56.6865 1157.65 56.6865 1164.78 Q56.6865 1171.89 58.4921 1175.45 Q60.3208 1179 63.9319 1179 Q67.5661 1179 69.3717 1175.45 Q71.2004 1171.89 71.2004 1164.78 Q71.2004 1157.65 69.3717 1154.11 Q67.5661 1150.55 63.9319 1150.55 M63.9319 1146.84 Q69.742 1146.84 72.7976 1151.45 Q75.8763 1156.03 75.8763 1164.78 Q75.8763 1173.51 72.7976 1178.12 Q69.742 1182.7 63.9319 1182.7 Q58.1217 1182.7 55.043 1178.12 Q51.9875 1173.51 51.9875 1164.78 Q51.9875 1156.03 55.043 1151.45 Q58.1217 1146.84 63.9319 1146.84 Z" fill="#000000" fill-rule="evenodd" fill-opacity="1" /><path clip-path="url(#clip860)" d="M84.0938 1176.15 L88.978 1176.15 L88.978 1182.03 L84.0938 1182.03 L84.0938 1176.15 Z" fill="#000000" fill-rule="evenodd" fill-opacity="1" /><path clip-path="url(#clip860)" d="M99.2095 1147.47 L117.566 1147.47 L117.566 1151.4 L103.492 1151.4 L103.492 1159.88 Q104.51 1159.53 105.529 1159.37 Q106.547 1159.18 107.566 1159.18 Q113.353 1159.18 116.733 1162.35 Q120.112 1165.52 120.112 1170.94 Q120.112 1176.52 116.64 1179.62 Q113.168 1182.7 106.848 1182.7 Q104.672 1182.7 102.404 1182.33 Q100.159 1181.96 97.7511 1181.22 L97.7511 1176.52 Q99.8345 1177.65 102.057 1178.21 Q104.279 1178.76 106.756 1178.76 Q110.76 1178.76 113.098 1176.66 Q115.436 1174.55 115.436 1170.94 Q115.436 1167.33 113.098 1165.22 Q110.76 1163.12 106.756 1163.12 Q104.881 1163.12 103.006 1163.53 Q101.154 1163.95 99.2095 1164.83 L99.2095 1147.47 Z" fill="#000000" fill-rule="evenodd" fill-opacity="1" /><path clip-path="url(#clip860)" d="M53.7467 947.704 L61.3856 947.704 L61.3856 921.338 L53.0754 923.005 L53.0754 918.745 L61.3393 917.079 L66.0152 917.079 L66.0152 947.704 L73.654 947.704 L73.654 951.639 L53.7467 951.639 L53.7467 947.704 Z" fill="#000000" fill-rule="evenodd" fill-opacity="1" /><path clip-path="url(#clip860)" d="M83.0984 945.759 L87.9827 945.759 L87.9827 951.639 L83.0984 951.639 L83.0984 945.759 Z" fill="#000000" fill-rule="evenodd" fill-opacity="1" /><path clip-path="url(#clip860)" d="M108.168 920.158 Q104.557 920.158 102.728 923.722 Q100.922 927.264 100.922 934.394 Q100.922 941.5 102.728 945.065 Q104.557 948.606 108.168 948.606 Q111.802 948.606 113.608 945.065 Q115.436 941.5 115.436 934.394 Q115.436 927.264 113.608 923.722 Q111.802 920.158 108.168 920.158 M108.168 916.454 Q113.978 916.454 117.033 921.06 Q120.112 925.644 120.112 934.394 Q120.112 943.12 117.033 947.727 Q113.978 952.31 108.168 952.31 Q102.358 952.31 99.2789 947.727 Q96.2234 943.12 96.2234 934.394 Q96.2234 925.644 99.2789 921.06 Q102.358 916.454 108.168 916.454 Z" fill="#000000" fill-rule="evenodd" fill-opacity="1" /><path clip-path="url(#clip860)" d="M54.7421 717.314 L62.381 717.314 L62.381 690.949 L54.0708 692.615 L54.0708 688.356 L62.3347 686.69 L67.0106 686.69 L67.0106 717.314 L74.6494 717.314 L74.6494 721.25 L54.7421 721.25 L54.7421 717.314 Z" fill="#000000" fill-rule="evenodd" fill-opacity="1" /><path clip-path="url(#clip860)" d="M84.0938 715.37 L88.978 715.37 L88.978 721.25 L84.0938 721.25 L84.0938 715.37 Z" fill="#000000" fill-rule="evenodd" fill-opacity="1" /><path clip-path="url(#clip860)" d="M99.2095 686.69 L117.566 686.69 L117.566 690.625 L103.492 690.625 L103.492 699.097 Q104.51 698.75 105.529 698.588 Q106.547 698.402 107.566 698.402 Q113.353 698.402 116.733 701.574 Q120.112 704.745 120.112 710.162 Q120.112 715.74 116.64 718.842 Q113.168 721.921 106.848 721.921 Q104.672 721.921 102.404 721.55 Q100.159 721.18 97.7511 720.439 L97.7511 715.74 Q99.8345 716.875 102.057 717.43 Q104.279 717.986 106.756 717.986 Q110.76 717.986 113.098 715.879 Q115.436 713.773 115.436 710.162 Q115.436 706.551 113.098 704.444 Q110.76 702.338 106.756 702.338 Q104.881 702.338 103.006 702.754 Q101.154 703.171 99.2095 704.051 L99.2095 686.69 Z" fill="#000000" fill-rule="evenodd" fill-opacity="1" /><path clip-path="url(#clip860)" d="M56.9643 486.925 L73.2837 486.925 L73.2837 490.86 L51.3393 490.86 L51.3393 486.925 Q54.0014 484.17 58.5847 479.541 Q63.1911 474.888 64.3717 473.545 Q66.617 471.022 67.4967 469.286 Q68.3994 467.527 68.3994 465.837 Q68.3994 463.083 66.455 461.346 Q64.5337 459.61 61.4319 459.61 Q59.2328 459.61 56.7791 460.374 Q54.3486 461.138 51.5708 462.689 L51.5708 457.967 Q54.3949 456.833 56.8486 456.254 Q59.3023 455.675 61.3393 455.675 Q66.7096 455.675 69.9041 458.36 Q73.0985 461.046 73.0985 465.536 Q73.0985 467.666 72.2883 469.587 Q71.5013 471.485 69.3948 474.078 Q68.8161 474.749 65.7143 477.967 Q62.6124 481.161 56.9643 486.925 Z" fill="#000000" fill-rule="evenodd" fill-opacity="1" /><path clip-path="url(#clip860)" d="M83.0984 484.981 L87.9827 484.981 L87.9827 490.86 L83.0984 490.86 L83.0984 484.981 Z" fill="#000000" fill-rule="evenodd" fill-opacity="1" /><path clip-path="url(#clip860)" d="M108.168 459.379 Q104.557 459.379 102.728 462.944 Q100.922 466.485 100.922 473.615 Q100.922 480.721 102.728 484.286 Q104.557 487.828 108.168 487.828 Q111.802 487.828 113.608 484.286 Q115.436 480.721 115.436 473.615 Q115.436 466.485 113.608 462.944 Q111.802 459.379 108.168 459.379 M108.168 455.675 Q113.978 455.675 117.033 460.282 Q120.112 464.865 120.112 473.615 Q120.112 482.342 117.033 486.948 Q113.978 491.531 108.168 491.531 Q102.358 491.531 99.2789 486.948 Q96.2234 482.342 96.2234 473.615 Q96.2234 464.865 99.2789 460.282 Q102.358 455.675 108.168 455.675 Z" fill="#000000" fill-rule="evenodd" fill-opacity="1" /><path clip-path="url(#clip860)" d="M57.9597 256.536 L74.279 256.536 L74.279 260.471 L52.3347 260.471 L52.3347 256.536 Q54.9967 253.781 59.58 249.151 Q64.1865 244.499 65.367 243.156 Q67.6124 240.633 68.492 238.897 Q69.3948 237.138 69.3948 235.448 Q69.3948 232.693 67.4504 230.957 Q65.5291 229.221 62.4272 229.221 Q60.2282 229.221 57.7745 229.985 Q55.344 230.749 52.5662 232.3 L52.5662 227.577 Q55.3903 226.443 57.8439 225.865 Q60.2976 225.286 62.3347 225.286 Q67.705 225.286 70.8994 227.971 Q74.0939 230.656 74.0939 235.147 Q74.0939 237.277 73.2837 239.198 Q72.4966 241.096 70.3902 243.689 Q69.8115 244.36 66.7096 247.577 Q63.6078 250.772 57.9597 256.536 Z" fill="#000000" fill-rule="evenodd" fill-opacity="1" /><path clip-path="url(#clip860)" d="M84.0938 254.591 L88.978 254.591 L88.978 260.471 L84.0938 260.471 L84.0938 254.591 Z" fill="#000000" fill-rule="evenodd" fill-opacity="1" /><path clip-path="url(#clip860)" d="M99.2095 225.911 L117.566 225.911 L117.566 229.846 L103.492 229.846 L103.492 238.318 Q104.51 237.971 105.529 237.809 Q106.547 237.624 107.566 237.624 Q113.353 237.624 116.733 240.795 Q120.112 243.966 120.112 249.383 Q120.112 254.962 116.64 258.063 Q113.168 261.142 106.848 261.142 Q104.672 261.142 102.404 260.772 Q100.159 260.401 97.7511 259.661 L97.7511 254.962 Q99.8345 256.096 102.057 256.651 Q104.279 257.207 106.756 257.207 Q110.76 257.207 113.098 255.1 Q115.436 252.994 115.436 249.383 Q115.436 245.772 113.098 243.665 Q110.76 241.559 106.756 241.559 Q104.881 241.559 103.006 241.976 Q101.154 242.392 99.2095 243.272 L99.2095 225.911 Z" fill="#000000" fill-rule="evenodd" fill-opacity="1" /><polyline clip-path="url(#clip862)" style="stroke:#009af9; stroke-linecap:butt; stroke-linejoin:round; stroke-width:4; stroke-opacity:1; fill:none" points="
  156.112,981.02 156.844,997.336 157.574,998.955 158.395,980.689 159.319,972.365 160.358,970.741 161.527,962.917 162.842,962.719 164.322,978.408 165.987,983.799 
  167.86,1011.86 169.966,1000.16 172.337,1007.18 175.003,1000.5 178.003,999.567 181.378,992.914 185.174,995.805 189.446,983.068 194.251,998.345 199.657,970.811 
  205.738,959.547 212.58,951.805 220.276,940.929 228.935,925.186 238.677,914.2 249.636,848.9 261.965,810.228 275.835,814.088 291.438,837.674 308.993,687.069 
  328.741,674.255 350.958,727.996 375.952,686.416 404.071,737.932 433.372,644.334 466.336,613.146 500.508,474.818 538.952,561.587 573.69,517.066 612.77,582.139 
  650.623,666.487 692.261,701.287 736.47,648.441 786.205,681.458 830.507,726.202 880.304,817.482 931.422,762.658 988.93,867.27 1038.33,1089.72 1087.2,1060.33 
  1142.19,1098.64 1191.38,1043.62 1246.72,1071.59 1293.81,1070.77 1346.8,908.499 1400.74,969.44 1453.49,911.379 1512.82,885.852 1570.19,665 1634.73,526.29 
  1707.33,635.633 1758.69,679.914 1816.48,351.903 1881.49,693.348 1943.93,501.413 2014.17,553.269 2069.2,277.186 2131.1,341.842 2174.51,243.43 2223.33,466.33 
  2260.82,381.604 2303,308.632 2350.45,265.561 2352.76,194.828 
  "/>
<polyline clip-path="url(#clip862)" style="stroke:#e26f46; stroke-linecap:butt; stroke-linejoin:round; stroke-width:4; stroke-opacity:1; fill:none" points="
  156.112,1161.3 156.844,1170.51 157.574,1171.42 158.395,1161.11 159.319,1156.41 160.358,1155.49 161.527,1151.08 162.842,1150.96 164.322,1159.82 165.987,1162.87 
  167.86,1178.71 169.966,1172.1 172.337,1176.07 175.003,1172.3 178.003,1171.77 181.378,1168.01 185.174,1169.65 189.446,1162.45 194.251,1171.08 199.657,1155.53 
  205.738,1149.17 212.58,1144.8 220.276,1138.66 228.935,1129.77 238.677,1123.57 249.636,1086.69 261.965,1064.86 275.835,1067.04 291.438,1080.35 308.993,995.312 
  328.741,988.077 350.958,1018.42 375.952,994.943 404.071,1024.03 433.372,971.181 466.336,953.57 500.508,875.46 538.952,924.456 573.69,899.317 612.77,936.061 
  650.623,983.69 692.261,1003.34 736.47,973.5 786.205,992.144 830.507,1017.41 880.304,1068.95 931.422,1037.99 988.93,1097.07 1038.33,1222.67 1087.2,1206.08 
  1142.19,1227.71 1191.38,1196.65 1246.72,1212.44 1293.81,1211.97 1346.8,1120.35 1400.74,1154.76 1453.49,1121.97 1512.82,1107.56 1570.19,982.85 1634.73,904.525 
  1707.33,966.268 1758.69,991.272 1816.48,806.054 1881.49,998.858 1943.93,890.478 2014.17,919.759 2069.2,763.863 2131.1,800.373 2174.51,744.803 2223.33,870.667 
  2260.82,822.825 2303,781.62 2350.45,757.299 2352.76,717.358 
  "/>
<polyline clip-path="url(#clip862)" style="stroke:#3da44d; stroke-linecap:butt; stroke-linejoin:round; stroke-width:4; stroke-opacity:1; fill:none" points="
  156.112,1041.48 156.844,1055.42 157.574,1056.8 158.395,1041.2 159.319,1034.09 160.358,1032.7 161.527,1026.02 162.842,1025.85 164.322,1039.25 165.987,1043.85 
  167.86,1067.82 169.966,1057.82 172.337,1063.82 175.003,1058.12 178.003,1057.32 181.378,1051.64 185.174,1054.11 189.446,1043.23 194.251,1056.28 199.657,1032.76 
  205.738,1023.14 212.58,1016.53 220.276,1007.24 228.935,993.799 238.677,984.417 249.636,928.651 261.965,895.625 275.835,898.921 291.438,919.064 308.993,790.447 
  328.741,779.504 350.958,825.399 375.952,789.89 404.071,833.885 433.372,753.952 466.336,727.318 500.508,609.185 538.952,683.286 573.69,645.265 612.77,700.837 
  650.623,772.87 692.261,802.59 736.47,757.46 786.205,785.656 830.507,823.867 880.304,901.82 931.422,855 988.93,944.339 1038.33,1134.31 1087.2,1109.21 
  1142.19,1141.93 1191.38,1094.94 1246.72,1118.83 1293.81,1118.12 1346.8,979.549 1400.74,1031.59 1453.49,982.008 1512.82,960.208 1570.19,771.6 1634.73,653.142 
  1707.33,746.521 1758.69,784.337 1816.48,504.216 1881.49,795.81 1943.93,631.897 2014.17,676.183 2069.2,440.408 2131.1,495.624 2174.51,411.58 2223.33,601.936 
  2260.82,529.58 2303,467.263 2350.45,430.48 2352.76,370.074 
  "/>
<polyline clip-path="url(#clip862)" style="stroke:#c271d2; stroke-linecap:butt; stroke-linejoin:round; stroke-width:4; stroke-opacity:1; fill:none" points="
  156.112,1379.91 156.844,1380.51 157.574,1380.57 158.395,1379.9 159.319,1379.6 160.358,1379.54 161.527,1379.25 162.842,1379.24 164.322,1379.82 165.987,1380.02 
  167.86,1381.05 169.966,1380.62 172.337,1380.88 175.003,1380.63 178.003,1380.6 181.378,1380.35 185.174,1380.46 189.446,1379.99 194.251,1380.55 199.657,1379.54 
  205.738,1379.13 212.58,1378.84 220.276,1378.44 228.935,1377.86 238.677,1377.46 249.636,1375.06 261.965,1373.64 275.835,1373.78 291.438,1374.65 308.993,1369.11 
  328.741,1368.64 350.958,1370.61 375.952,1369.08 404.071,1370.98 433.372,1367.54 466.336,1366.39 500.508,1361.31 538.952,1364.5 573.69,1362.86 612.77,1365.25 
  650.623,1368.35 692.261,1369.63 736.47,1367.69 786.205,1368.9 830.507,1370.55 880.304,1373.9 931.422,1371.89 988.93,1375.73 1038.33,1383.91 1087.2,1382.83 
  1142.19,1384.24 1191.38,1382.22 1246.72,1383.24 1293.81,1383.21 1346.8,1377.25 1400.74,1379.49 1453.49,1377.35 1512.82,1376.42 1570.19,1368.3 1634.73,1363.2 
  1707.33,1367.22 1758.69,1368.85 1816.48,1356.79 1881.49,1369.34 1943.93,1362.28 2014.17,1364.19 2069.2,1354.04 2131.1,1356.42 2174.51,1352.8 2223.33,1360.99 
  2260.82,1357.88 2303,1355.2 2350.45,1353.61 2352.76,1351.01 
  "/>
<polyline clip-path="url(#clip862)" style="stroke:#ac8d18; stroke-linecap:butt; stroke-linejoin:round; stroke-width:4; stroke-opacity:1; fill:none" points="
  156.112,943.537 156.844,961.33 157.574,963.095 158.395,943.176 159.319,934.099 160.358,932.328 161.527,923.796 162.842,923.58 164.322,940.689 165.987,946.567 
  167.86,977.166 169.966,964.406 172.337,972.062 175.003,964.78 178.003,963.763 181.378,956.508 185.174,959.66 189.446,945.771 194.251,962.43 199.657,932.404 
  205.738,920.12 212.58,911.678 220.276,899.818 228.935,882.65 238.677,870.669 249.636,799.459 261.965,757.287 275.835,761.496 291.438,787.216 308.993,622.98 
  328.741,609.007 350.958,667.612 375.952,622.268 404.071,678.447 433.372,576.378 466.336,542.367 500.508,391.518 538.952,486.141 573.69,437.59 612.77,508.553 
  650.623,600.535 692.261,638.486 736.47,580.857 786.205,616.862 830.507,665.656 880.304,765.197 931.422,705.41 988.93,819.492 1038.33,1062.07 1087.2,1030.03 
  1142.19,1071.8 1191.38,1011.81 1246.72,1042.3 1293.81,1041.41 1346.8,864.452 1400.74,930.909 1453.49,867.593 1512.82,839.756 1570.19,598.914 1634.73,447.649 
  1707.33,566.889 1758.69,615.178 1816.48,257.477 1881.49,629.828 1943.93,420.52 2014.17,477.07 2069.2,175.998 2131.1,246.506 2174.51,139.187 2223.33,382.262 
  2260.82,289.867 2303,210.291 2350.45,163.321 2352.76,86.1857 
  "/>
<polyline clip-path="url(#clip862)" style="stroke:#00a9ad; stroke-linecap:butt; stroke-linejoin:round; stroke-width:4; stroke-opacity:1; fill:none" points="
  156.112,1193.69 156.844,1201.63 157.574,1202.41 158.395,1193.53 159.319,1189.48 160.358,1188.69 161.527,1184.88 162.842,1184.79 164.322,1192.42 165.987,1195.04 
  167.86,1208.69 169.966,1203 172.337,1206.41 175.003,1203.17 178.003,1202.71 181.378,1199.48 185.174,1200.88 189.446,1194.69 194.251,1202.12 199.657,1188.72 
  205.738,1183.24 212.58,1179.48 220.276,1174.19 228.935,1166.53 238.677,1161.19 249.636,1129.42 261.965,1110.61 275.835,1112.49 291.438,1123.96 308.993,1050.7 
  328.741,1044.47 350.958,1070.61 375.952,1050.38 404.071,1075.44 433.372,1029.91 466.336,1014.74 500.508,947.449 538.952,989.658 573.69,968.001 612.77,999.655 
  650.623,1040.69 692.261,1057.61 736.47,1031.91 786.205,1047.97 830.507,1069.73 880.304,1114.14 931.422,1087.47 988.93,1138.36 1038.33,1246.57 1087.2,1232.27 
  1142.19,1250.91 1191.38,1224.14 1246.72,1237.75 1293.81,1237.35 1346.8,1158.41 1400.74,1188.06 1453.49,1159.81 1512.82,1147.4 1570.19,1039.96 1634.73,972.487 
  1707.33,1025.68 1758.69,1047.22 1816.48,887.657 1881.49,1053.75 1943.93,960.386 2014.17,985.612 2069.2,851.311 2131.1,882.763 2174.51,834.891 2223.33,943.32 
  2260.82,902.105 2303,866.608 2350.45,845.656 2352.76,811.248 
  "/>
<polyline clip-path="url(#clip862)" style="stroke:#ed5d92; stroke-linecap:butt; stroke-linejoin:round; stroke-width:4; stroke-opacity:1; fill:none" points="
  156.112,1020.6 156.844,1035.36 157.574,1036.82 158.395,1020.3 159.319,1012.78 160.358,1011.31 161.527,1004.23 162.842,1004.05 164.322,1018.24 165.987,1023.12 
  167.86,1048.49 169.966,1037.91 172.337,1044.26 175.003,1038.22 178.003,1037.38 181.378,1031.36 185.174,1033.97 189.446,1022.46 194.251,1036.27 199.657,1011.37 
  205.738,1001.18 212.58,994.181 220.276,984.345 228.935,970.106 238.677,960.17 249.636,901.112 261.965,866.136 275.835,869.627 291.438,890.959 308.993,754.749 
  328.741,743.161 350.958,791.765 375.952,754.159 404.071,800.751 433.372,716.1 466.336,687.893 500.508,562.786 538.952,641.262 573.69,600.997 612.77,659.849 
  650.623,736.135 692.261,767.609 736.47,719.814 786.205,749.675 830.507,790.143 880.304,872.697 931.422,823.113 988.93,917.727 1038.33,1118.91 1087.2,1092.33 
  1142.19,1126.98 1191.38,1077.22 1246.72,1102.51 1293.81,1101.77 1346.8,955.014 1400.74,1010.13 1453.49,957.619 1512.82,934.532 1570.19,734.79 1634.73,609.339 
  1707.33,708.23 1758.69,748.279 1816.48,451.62 1881.49,760.429 1943.93,586.839 2014.17,633.739 2069.2,384.045 2131.1,442.521 2174.51,353.516 2223.33,555.11 
  2260.82,478.482 2303,412.486 2350.45,373.532 2352.76,309.559 
  "/>
<polyline clip-path="url(#clip862)" style="stroke:#c68125; stroke-linecap:butt; stroke-linejoin:round; stroke-width:4; stroke-opacity:1; fill:none" points="
  156.112,1242.56 156.844,1248.58 157.574,1249.17 158.395,1242.44 159.319,1239.38 160.358,1238.78 161.527,1235.89 162.842,1235.82 164.322,1241.6 165.987,1243.59 
  167.86,1253.93 169.966,1249.61 172.337,1252.2 175.003,1249.74 178.003,1249.4 181.378,1246.95 185.174,1248.01 189.446,1243.32 194.251,1248.95 199.657,1238.8 
  205.738,1234.65 212.58,1231.8 220.276,1227.79 228.935,1221.99 238.677,1217.95 249.636,1193.89 261.965,1179.64 275.835,1181.06 291.438,1189.75 308.993,1134.26 
  328.741,1129.54 350.958,1149.34 375.952,1134.02 404.071,1153 433.372,1118.52 466.336,1107.03 500.508,1056.06 538.952,1088.03 573.69,1071.63 612.77,1095.6 
  650.623,1126.68 692.261,1139.5 736.47,1120.03 786.205,1132.2 830.507,1148.68 880.304,1182.31 931.422,1162.11 988.93,1200.66 1038.33,1282.61 1087.2,1271.78 
  1142.19,1285.9 1191.38,1265.63 1246.72,1275.93 1293.81,1275.63 1346.8,1215.85 1400.74,1238.3 1453.49,1216.91 1512.82,1207.5 1570.19,1126.13 1634.73,1075.03 
  1707.33,1115.31 1758.69,1131.63 1816.48,1010.78 1881.49,1136.58 1943.93,1065.86 2014.17,1084.97 2069.2,983.251 2131.1,1007.07 2174.51,970.815 2223.33,1052.94 
  2260.82,1021.72 2303,994.837 2350.45,978.969 2352.76,952.908 
  "/>
<path clip-path="url(#clip860)" d="
M1927.78 559.669 L2279.53 559.669 L2279.53 93.1086 L1927.78 93.1086  Z
  " fill="#ffffff" fill-rule="evenodd" fill-opacity="1"/>
<polyline clip-path="url(#clip860)" style="stroke:#000000; stroke-linecap:butt; stroke-linejoin:round; stroke-width:4; stroke-opacity:1; fill:none" points="
  1927.78,559.669 2279.53,559.669 2279.53,93.1086 1927.78,93.1086 1927.78,559.669 
  "/>
<polyline clip-path="url(#clip860)" style="stroke:#009af9; stroke-linecap:butt; stroke-linejoin:round; stroke-width:4; stroke-opacity:1; fill:none" points="
  1952.19,144.949 2098.63,144.949 
  "/>
<path clip-path="url(#clip860)" d="M2123.04 151.997 L2123.04 136.303 L2127.29 136.303 L2127.29 151.835 Q2127.29 155.516 2128.73 157.368 Q2130.17 159.196 2133.04 159.196 Q2136.48 159.196 2138.48 156.997 Q2140.49 154.798 2140.49 151.002 L2140.49 136.303 L2144.75 136.303 L2144.75 162.229 L2140.49 162.229 L2140.49 158.247 Q2138.94 160.608 2136.88 161.766 Q2134.84 162.9 2132.13 162.9 Q2127.67 162.9 2125.35 160.122 Q2123.04 157.344 2123.04 151.997 M2133.75 135.678 L2133.75 135.678 Z" fill="#000000" fill-rule="evenodd" fill-opacity="1" /><path clip-path="url(#clip860)" d="M2154.93 158.293 L2162.57 158.293 L2162.57 131.928 L2154.26 133.595 L2154.26 129.335 L2162.53 127.669 L2167.2 127.669 L2167.2 158.293 L2174.84 158.293 L2174.84 162.229 L2154.93 162.229 L2154.93 158.293 Z" fill="#000000" fill-rule="evenodd" fill-opacity="1" /><path clip-path="url(#clip860)" d="M2193.91 126.257 Q2190.81 131.581 2189.31 136.789 Q2187.8 141.997 2187.8 147.344 Q2187.8 152.692 2189.31 157.946 Q2190.84 163.178 2193.91 168.479 L2190.21 168.479 Q2186.74 163.039 2185 157.784 Q2183.29 152.53 2183.29 147.344 Q2183.29 142.182 2185 136.951 Q2186.72 131.72 2190.21 126.257 L2193.91 126.257 Z" fill="#000000" fill-rule="evenodd" fill-opacity="1" /><path clip-path="url(#clip860)" d="M2206.39 128.942 L2206.39 136.303 L2215.16 136.303 L2215.16 139.613 L2206.39 139.613 L2206.39 153.687 Q2206.39 156.858 2207.25 157.761 Q2208.13 158.664 2210.79 158.664 L2215.16 158.664 L2215.16 162.229 L2210.79 162.229 Q2205.86 162.229 2203.98 160.4 Q2202.11 158.548 2202.11 153.687 L2202.11 139.613 L2198.98 139.613 L2198.98 136.303 L2202.11 136.303 L2202.11 128.942 L2206.39 128.942 Z" fill="#000000" fill-rule="evenodd" fill-opacity="1" /><path clip-path="url(#clip860)" d="M2220.1 126.257 L2223.8 126.257 Q2227.27 131.72 2228.98 136.951 Q2230.72 142.182 2230.72 147.344 Q2230.72 152.53 2228.98 157.784 Q2227.27 163.039 2223.8 168.479 L2220.1 168.479 Q2223.17 163.178 2224.68 157.946 Q2226.21 152.692 2226.21 147.344 Q2226.21 141.997 2224.68 136.789 Q2223.17 131.581 2220.1 126.257 Z" fill="#000000" fill-rule="evenodd" fill-opacity="1" /><polyline clip-path="url(#clip860)" style="stroke:#e26f46; stroke-linecap:butt; stroke-linejoin:round; stroke-width:4; stroke-opacity:1; fill:none" points="
  1952.19,196.789 2098.63,196.789 
  "/>
<path clip-path="url(#clip860)" d="M2123.04 203.837 L2123.04 188.143 L2127.29 188.143 L2127.29 203.675 Q2127.29 207.356 2128.73 209.208 Q2130.17 211.036 2133.04 211.036 Q2136.48 211.036 2138.48 208.837 Q2140.49 206.638 2140.49 202.842 L2140.49 188.143 L2144.75 188.143 L2144.75 214.069 L2140.49 214.069 L2140.49 210.087 Q2138.94 212.448 2136.88 213.606 Q2134.84 214.74 2132.13 214.74 Q2127.67 214.74 2125.35 211.962 Q2123.04 209.184 2123.04 203.837 M2133.75 187.518 L2133.75 187.518 Z" fill="#000000" fill-rule="evenodd" fill-opacity="1" /><path clip-path="url(#clip860)" d="M2158.15 210.133 L2174.47 210.133 L2174.47 214.069 L2152.53 214.069 L2152.53 210.133 Q2155.19 207.379 2159.77 202.749 Q2164.38 198.096 2165.56 196.754 Q2167.8 194.231 2168.68 192.495 Q2169.59 190.735 2169.59 189.046 Q2169.59 186.291 2167.64 184.555 Q2165.72 182.819 2162.62 182.819 Q2160.42 182.819 2157.97 183.583 Q2155.54 184.347 2152.76 185.897 L2152.76 181.175 Q2155.58 180.041 2158.04 179.462 Q2160.49 178.884 2162.53 178.884 Q2167.9 178.884 2171.09 181.569 Q2174.29 184.254 2174.29 188.745 Q2174.29 190.874 2173.48 192.796 Q2172.69 194.694 2170.58 197.286 Q2170 197.958 2166.9 201.175 Q2163.8 204.37 2158.15 210.133 Z" fill="#000000" fill-rule="evenodd" fill-opacity="1" /><path clip-path="url(#clip860)" d="M2193.91 178.097 Q2190.81 183.421 2189.31 188.629 Q2187.8 193.837 2187.8 199.184 Q2187.8 204.532 2189.31 209.786 Q2190.84 215.018 2193.91 220.319 L2190.21 220.319 Q2186.74 214.879 2185 209.624 Q2183.29 204.37 2183.29 199.184 Q2183.29 194.022 2185 188.791 Q2186.72 183.56 2190.21 178.097 L2193.91 178.097 Z" fill="#000000" fill-rule="evenodd" fill-opacity="1" /><path clip-path="url(#clip860)" d="M2206.39 180.782 L2206.39 188.143 L2215.16 188.143 L2215.16 191.453 L2206.39 191.453 L2206.39 205.527 Q2206.39 208.698 2207.25 209.601 Q2208.13 210.504 2210.79 210.504 L2215.16 210.504 L2215.16 214.069 L2210.79 214.069 Q2205.86 214.069 2203.98 212.24 Q2202.11 210.388 2202.11 205.527 L2202.11 191.453 L2198.98 191.453 L2198.98 188.143 L2202.11 188.143 L2202.11 180.782 L2206.39 180.782 Z" fill="#000000" fill-rule="evenodd" fill-opacity="1" /><path clip-path="url(#clip860)" d="M2220.1 178.097 L2223.8 178.097 Q2227.27 183.56 2228.98 188.791 Q2230.72 194.022 2230.72 199.184 Q2230.72 204.37 2228.98 209.624 Q2227.27 214.879 2223.8 220.319 L2220.1 220.319 Q2223.17 215.018 2224.68 209.786 Q2226.21 204.532 2226.21 199.184 Q2226.21 193.837 2224.68 188.629 Q2223.17 183.421 2220.1 178.097 Z" fill="#000000" fill-rule="evenodd" fill-opacity="1" /><polyline clip-path="url(#clip860)" style="stroke:#3da44d; stroke-linecap:butt; stroke-linejoin:round; stroke-width:4; stroke-opacity:1; fill:none" points="
  1952.19,248.629 2098.63,248.629 
  "/>
<path clip-path="url(#clip860)" d="M2123.04 255.677 L2123.04 239.983 L2127.29 239.983 L2127.29 255.515 Q2127.29 259.196 2128.73 261.048 Q2130.17 262.876 2133.04 262.876 Q2136.48 262.876 2138.48 260.677 Q2140.49 258.478 2140.49 254.682 L2140.49 239.983 L2144.75 239.983 L2144.75 265.909 L2140.49 265.909 L2140.49 261.927 Q2138.94 264.288 2136.88 265.446 Q2134.84 266.58 2132.13 266.58 Q2127.67 266.58 2125.35 263.802 Q2123.04 261.024 2123.04 255.677 M2133.75 239.358 L2133.75 239.358 Z" fill="#000000" fill-rule="evenodd" fill-opacity="1" /><path clip-path="url(#clip860)" d="M2168.29 247.274 Q2171.65 247.992 2173.52 250.261 Q2175.42 252.529 2175.42 255.862 Q2175.42 260.978 2171.9 263.779 Q2168.38 266.58 2161.9 266.58 Q2159.73 266.58 2157.41 266.14 Q2155.12 265.723 2152.67 264.867 L2152.67 260.353 Q2154.61 261.487 2156.92 262.066 Q2159.24 262.645 2161.76 262.645 Q2166.16 262.645 2168.45 260.909 Q2170.77 259.173 2170.77 255.862 Q2170.77 252.807 2168.61 251.094 Q2166.48 249.358 2162.66 249.358 L2158.64 249.358 L2158.64 245.515 L2162.85 245.515 Q2166.3 245.515 2168.13 244.149 Q2169.96 242.761 2169.96 240.168 Q2169.96 237.506 2168.06 236.094 Q2166.18 234.659 2162.66 234.659 Q2160.74 234.659 2158.54 235.075 Q2156.35 235.492 2153.71 236.372 L2153.71 232.205 Q2156.37 231.464 2158.68 231.094 Q2161.02 230.724 2163.08 230.724 Q2168.41 230.724 2171.51 233.154 Q2174.61 235.562 2174.61 239.682 Q2174.61 242.552 2172.97 244.543 Q2171.32 246.511 2168.29 247.274 Z" fill="#000000" fill-rule="evenodd" fill-opacity="1" /><path clip-path="url(#clip860)" d="M2193.91 229.937 Q2190.81 235.261 2189.31 240.469 Q2187.8 245.677 2187.8 251.024 Q2187.8 256.372 2189.31 261.626 Q2190.84 266.858 2193.91 272.159 L2190.21 272.159 Q2186.74 266.719 2185 261.464 Q2183.29 256.21 2183.29 251.024 Q2183.29 245.862 2185 240.631 Q2186.72 235.4 2190.21 229.937 L2193.91 229.937 Z" fill="#000000" fill-rule="evenodd" fill-opacity="1" /><path clip-path="url(#clip860)" d="M2206.39 232.622 L2206.39 239.983 L2215.16 239.983 L2215.16 243.293 L2206.39 243.293 L2206.39 257.367 Q2206.39 260.538 2207.25 261.441 Q2208.13 262.344 2210.79 262.344 L2215.16 262.344 L2215.16 265.909 L2210.79 265.909 Q2205.86 265.909 2203.98 264.08 Q2202.11 262.228 2202.11 257.367 L2202.11 243.293 L2198.98 243.293 L2198.98 239.983 L2202.11 239.983 L2202.11 232.622 L2206.39 232.622 Z" fill="#000000" fill-rule="evenodd" fill-opacity="1" /><path clip-path="url(#clip860)" d="M2220.1 229.937 L2223.8 229.937 Q2227.27 235.4 2228.98 240.631 Q2230.72 245.862 2230.72 251.024 Q2230.72 256.21 2228.98 261.464 Q2227.27 266.719 2223.8 272.159 L2220.1 272.159 Q2223.17 266.858 2224.68 261.626 Q2226.21 256.372 2226.21 251.024 Q2226.21 245.677 2224.68 240.469 Q2223.17 235.261 2220.1 229.937 Z" fill="#000000" fill-rule="evenodd" fill-opacity="1" /><polyline clip-path="url(#clip860)" style="stroke:#c271d2; stroke-linecap:butt; stroke-linejoin:round; stroke-width:4; stroke-opacity:1; fill:none" points="
  1952.19,300.469 2098.63,300.469 
  "/>
<path clip-path="url(#clip860)" d="M2123.04 307.517 L2123.04 291.823 L2127.29 291.823 L2127.29 307.355 Q2127.29 311.036 2128.73 312.888 Q2130.17 314.716 2133.04 314.716 Q2136.48 314.716 2138.48 312.517 Q2140.49 310.318 2140.49 306.522 L2140.49 291.823 L2144.75 291.823 L2144.75 317.749 L2140.49 317.749 L2140.49 313.767 Q2138.94 316.128 2136.88 317.286 Q2134.84 318.42 2132.13 318.42 Q2127.67 318.42 2125.35 315.642 Q2123.04 312.864 2123.04 307.517 M2133.75 291.198 L2133.75 291.198 Z" fill="#000000" fill-rule="evenodd" fill-opacity="1" /><path clip-path="url(#clip860)" d="M2166.97 287.263 L2155.16 305.712 L2166.97 305.712 L2166.97 287.263 M2165.74 283.189 L2171.62 283.189 L2171.62 305.712 L2176.55 305.712 L2176.55 309.601 L2171.62 309.601 L2171.62 317.749 L2166.97 317.749 L2166.97 309.601 L2151.37 309.601 L2151.37 305.087 L2165.74 283.189 Z" fill="#000000" fill-rule="evenodd" fill-opacity="1" /><path clip-path="url(#clip860)" d="M2193.91 281.777 Q2190.81 287.101 2189.31 292.309 Q2187.8 297.517 2187.8 302.864 Q2187.8 308.212 2189.31 313.466 Q2190.84 318.698 2193.91 323.999 L2190.21 323.999 Q2186.74 318.559 2185 313.304 Q2183.29 308.05 2183.29 302.864 Q2183.29 297.702 2185 292.471 Q2186.72 287.24 2190.21 281.777 L2193.91 281.777 Z" fill="#000000" fill-rule="evenodd" fill-opacity="1" /><path clip-path="url(#clip860)" d="M2206.39 284.462 L2206.39 291.823 L2215.16 291.823 L2215.16 295.133 L2206.39 295.133 L2206.39 309.207 Q2206.39 312.378 2207.25 313.281 Q2208.13 314.184 2210.79 314.184 L2215.16 314.184 L2215.16 317.749 L2210.79 317.749 Q2205.86 317.749 2203.98 315.92 Q2202.11 314.068 2202.11 309.207 L2202.11 295.133 L2198.98 295.133 L2198.98 291.823 L2202.11 291.823 L2202.11 284.462 L2206.39 284.462 Z" fill="#000000" fill-rule="evenodd" fill-opacity="1" /><path clip-path="url(#clip860)" d="M2220.1 281.777 L2223.8 281.777 Q2227.27 287.24 2228.98 292.471 Q2230.72 297.702 2230.72 302.864 Q2230.72 308.05 2228.98 313.304 Q2227.27 318.559 2223.8 323.999 L2220.1 323.999 Q2223.17 318.698 2224.68 313.466 Q2226.21 308.212 2226.21 302.864 Q2226.21 297.517 2224.68 292.309 Q2223.17 287.101 2220.1 281.777 Z" fill="#000000" fill-rule="evenodd" fill-opacity="1" /><polyline clip-path="url(#clip860)" style="stroke:#ac8d18; stroke-linecap:butt; stroke-linejoin:round; stroke-width:4; stroke-opacity:1; fill:none" points="
  1952.19,352.309 2098.63,352.309 
  "/>
<path clip-path="url(#clip860)" d="M2123.04 359.357 L2123.04 343.663 L2127.29 343.663 L2127.29 359.195 Q2127.29 362.876 2128.73 364.728 Q2130.17 366.556 2133.04 366.556 Q2136.48 366.556 2138.48 364.357 Q2140.49 362.158 2140.49 358.362 L2140.49 343.663 L2144.75 343.663 L2144.75 369.589 L2140.49 369.589 L2140.49 365.607 Q2138.94 367.968 2136.88 369.126 Q2134.84 370.26 2132.13 370.26 Q2127.67 370.26 2125.35 367.482 Q2123.04 364.704 2123.04 359.357 M2133.75 343.038 L2133.75 343.038 Z" fill="#000000" fill-rule="evenodd" fill-opacity="1" /><path clip-path="url(#clip860)" d="M2154.17 335.029 L2172.53 335.029 L2172.53 338.964 L2158.45 338.964 L2158.45 347.436 Q2159.47 347.089 2160.49 346.927 Q2161.51 346.742 2162.53 346.742 Q2168.31 346.742 2171.69 349.913 Q2175.07 353.084 2175.07 358.501 Q2175.07 364.079 2171.6 367.181 Q2168.13 370.26 2161.81 370.26 Q2159.63 370.26 2157.36 369.89 Q2155.12 369.519 2152.71 368.778 L2152.71 364.079 Q2154.79 365.214 2157.02 365.769 Q2159.24 366.325 2161.72 366.325 Q2165.72 366.325 2168.06 364.218 Q2170.4 362.112 2170.4 358.501 Q2170.4 354.89 2168.06 352.783 Q2165.72 350.677 2161.72 350.677 Q2159.84 350.677 2157.97 351.093 Q2156.11 351.51 2154.17 352.39 L2154.17 335.029 Z" fill="#000000" fill-rule="evenodd" fill-opacity="1" /><path clip-path="url(#clip860)" d="M2193.91 333.617 Q2190.81 338.941 2189.31 344.149 Q2187.8 349.357 2187.8 354.704 Q2187.8 360.052 2189.31 365.306 Q2190.84 370.538 2193.91 375.839 L2190.21 375.839 Q2186.74 370.399 2185 365.144 Q2183.29 359.89 2183.29 354.704 Q2183.29 349.542 2185 344.311 Q2186.72 339.08 2190.21 333.617 L2193.91 333.617 Z" fill="#000000" fill-rule="evenodd" fill-opacity="1" /><path clip-path="url(#clip860)" d="M2206.39 336.302 L2206.39 343.663 L2215.16 343.663 L2215.16 346.973 L2206.39 346.973 L2206.39 361.047 Q2206.39 364.218 2207.25 365.121 Q2208.13 366.024 2210.79 366.024 L2215.16 366.024 L2215.16 369.589 L2210.79 369.589 Q2205.86 369.589 2203.98 367.76 Q2202.11 365.908 2202.11 361.047 L2202.11 346.973 L2198.98 346.973 L2198.98 343.663 L2202.11 343.663 L2202.11 336.302 L2206.39 336.302 Z" fill="#000000" fill-rule="evenodd" fill-opacity="1" /><path clip-path="url(#clip860)" d="M2220.1 333.617 L2223.8 333.617 Q2227.27 339.08 2228.98 344.311 Q2230.72 349.542 2230.72 354.704 Q2230.72 359.89 2228.98 365.144 Q2227.27 370.399 2223.8 375.839 L2220.1 375.839 Q2223.17 370.538 2224.68 365.306 Q2226.21 360.052 2226.21 354.704 Q2226.21 349.357 2224.68 344.149 Q2223.17 338.941 2220.1 333.617 Z" fill="#000000" fill-rule="evenodd" fill-opacity="1" /><polyline clip-path="url(#clip860)" style="stroke:#00a9ad; stroke-linecap:butt; stroke-linejoin:round; stroke-width:4; stroke-opacity:1; fill:none" points="
  1952.19,404.149 2098.63,404.149 
  "/>
<path clip-path="url(#clip860)" d="M2123.04 411.197 L2123.04 395.503 L2127.29 395.503 L2127.29 411.035 Q2127.29 414.716 2128.73 416.568 Q2130.17 418.396 2133.04 418.396 Q2136.48 418.396 2138.48 416.197 Q2140.49 413.998 2140.49 410.202 L2140.49 395.503 L2144.75 395.503 L2144.75 421.429 L2140.49 421.429 L2140.49 417.447 Q2138.94 419.808 2136.88 420.966 Q2134.84 422.1 2132.13 422.1 Q2127.67 422.1 2125.35 419.322 Q2123.04 416.544 2123.04 411.197 M2133.75 394.878 L2133.75 394.878 Z" fill="#000000" fill-rule="evenodd" fill-opacity="1" /><path clip-path="url(#clip860)" d="M2164.7 402.285 Q2161.55 402.285 2159.7 404.438 Q2157.87 406.591 2157.87 410.341 Q2157.87 414.068 2159.7 416.243 Q2161.55 418.396 2164.7 418.396 Q2167.85 418.396 2169.68 416.243 Q2171.53 414.068 2171.53 410.341 Q2171.53 406.591 2169.68 404.438 Q2167.85 402.285 2164.7 402.285 M2173.98 387.633 L2173.98 391.892 Q2172.23 391.058 2170.42 390.619 Q2168.64 390.179 2166.88 390.179 Q2162.25 390.179 2159.79 393.304 Q2157.36 396.429 2157.02 402.748 Q2158.38 400.734 2160.44 399.669 Q2162.5 398.582 2164.98 398.582 Q2170.19 398.582 2173.2 401.753 Q2176.23 404.901 2176.23 410.341 Q2176.23 415.665 2173.08 418.882 Q2169.93 422.1 2164.7 422.1 Q2158.71 422.1 2155.54 417.517 Q2152.36 412.91 2152.36 404.183 Q2152.36 395.989 2156.25 391.128 Q2160.14 386.244 2166.69 386.244 Q2168.45 386.244 2170.23 386.591 Q2172.04 386.938 2173.98 387.633 Z" fill="#000000" fill-rule="evenodd" fill-opacity="1" /><path clip-path="url(#clip860)" d="M2193.91 385.457 Q2190.81 390.781 2189.31 395.989 Q2187.8 401.197 2187.8 406.544 Q2187.8 411.892 2189.31 417.146 Q2190.84 422.378 2193.91 427.679 L2190.21 427.679 Q2186.74 422.239 2185 416.984 Q2183.29 411.73 2183.29 406.544 Q2183.29 401.382 2185 396.151 Q2186.72 390.92 2190.21 385.457 L2193.91 385.457 Z" fill="#000000" fill-rule="evenodd" fill-opacity="1" /><path clip-path="url(#clip860)" d="M2206.39 388.142 L2206.39 395.503 L2215.16 395.503 L2215.16 398.813 L2206.39 398.813 L2206.39 412.887 Q2206.39 416.058 2207.25 416.961 Q2208.13 417.864 2210.79 417.864 L2215.16 417.864 L2215.16 421.429 L2210.79 421.429 Q2205.86 421.429 2203.98 419.6 Q2202.11 417.748 2202.11 412.887 L2202.11 398.813 L2198.98 398.813 L2198.98 395.503 L2202.11 395.503 L2202.11 388.142 L2206.39 388.142 Z" fill="#000000" fill-rule="evenodd" fill-opacity="1" /><path clip-path="url(#clip860)" d="M2220.1 385.457 L2223.8 385.457 Q2227.27 390.92 2228.98 396.151 Q2230.72 401.382 2230.72 406.544 Q2230.72 411.73 2228.98 416.984 Q2227.27 422.239 2223.8 427.679 L2220.1 427.679 Q2223.17 422.378 2224.68 417.146 Q2226.21 411.892 2226.21 406.544 Q2226.21 401.197 2224.68 395.989 Q2223.17 390.781 2220.1 385.457 Z" fill="#000000" fill-rule="evenodd" fill-opacity="1" /><polyline clip-path="url(#clip860)" style="stroke:#ed5d92; stroke-linecap:butt; stroke-linejoin:round; stroke-width:4; stroke-opacity:1; fill:none" points="
  1952.19,455.989 2098.63,455.989 
  "/>
<path clip-path="url(#clip860)" d="M2123.04 463.037 L2123.04 447.343 L2127.29 447.343 L2127.29 462.875 Q2127.29 466.556 2128.73 468.408 Q2130.17 470.236 2133.04 470.236 Q2136.48 470.236 2138.48 468.037 Q2140.49 465.838 2140.49 462.042 L2140.49 447.343 L2144.75 447.343 L2144.75 473.269 L2140.49 473.269 L2140.49 469.287 Q2138.94 471.648 2136.88 472.806 Q2134.84 473.94 2132.13 473.94 Q2127.67 473.94 2125.35 471.162 Q2123.04 468.384 2123.04 463.037 M2133.75 446.718 L2133.75 446.718 Z" fill="#000000" fill-rule="evenodd" fill-opacity="1" /><path clip-path="url(#clip860)" d="M2152.94 438.709 L2175.16 438.709 L2175.16 440.699 L2162.62 473.269 L2157.73 473.269 L2169.54 442.644 L2152.94 442.644 L2152.94 438.709 Z" fill="#000000" fill-rule="evenodd" fill-opacity="1" /><path clip-path="url(#clip860)" d="M2193.91 437.297 Q2190.81 442.621 2189.31 447.829 Q2187.8 453.037 2187.8 458.384 Q2187.8 463.732 2189.31 468.986 Q2190.84 474.218 2193.91 479.519 L2190.21 479.519 Q2186.74 474.079 2185 468.824 Q2183.29 463.57 2183.29 458.384 Q2183.29 453.222 2185 447.991 Q2186.72 442.76 2190.21 437.297 L2193.91 437.297 Z" fill="#000000" fill-rule="evenodd" fill-opacity="1" /><path clip-path="url(#clip860)" d="M2206.39 439.982 L2206.39 447.343 L2215.16 447.343 L2215.16 450.653 L2206.39 450.653 L2206.39 464.727 Q2206.39 467.898 2207.25 468.801 Q2208.13 469.704 2210.79 469.704 L2215.16 469.704 L2215.16 473.269 L2210.79 473.269 Q2205.86 473.269 2203.98 471.44 Q2202.11 469.588 2202.11 464.727 L2202.11 450.653 L2198.98 450.653 L2198.98 447.343 L2202.11 447.343 L2202.11 439.982 L2206.39 439.982 Z" fill="#000000" fill-rule="evenodd" fill-opacity="1" /><path clip-path="url(#clip860)" d="M2220.1 437.297 L2223.8 437.297 Q2227.27 442.76 2228.98 447.991 Q2230.72 453.222 2230.72 458.384 Q2230.72 463.57 2228.98 468.824 Q2227.27 474.079 2223.8 479.519 L2220.1 479.519 Q2223.17 474.218 2224.68 468.986 Q2226.21 463.732 2226.21 458.384 Q2226.21 453.037 2224.68 447.829 Q2223.17 442.621 2220.1 437.297 Z" fill="#000000" fill-rule="evenodd" fill-opacity="1" /><polyline clip-path="url(#clip860)" style="stroke:#c68125; stroke-linecap:butt; stroke-linejoin:round; stroke-width:4; stroke-opacity:1; fill:none" points="
  1952.19,507.829 2098.63,507.829 
  "/>
<path clip-path="url(#clip860)" d="M2123.04 514.877 L2123.04 499.183 L2127.29 499.183 L2127.29 514.715 Q2127.29 518.396 2128.73 520.248 Q2130.17 522.076 2133.04 522.076 Q2136.48 522.076 2138.48 519.877 Q2140.49 517.678 2140.49 513.882 L2140.49 499.183 L2144.75 499.183 L2144.75 525.109 L2140.49 525.109 L2140.49 521.127 Q2138.94 523.488 2136.88 524.646 Q2134.84 525.78 2132.13 525.78 Q2127.67 525.78 2125.35 523.002 Q2123.04 520.224 2123.04 514.877 M2133.75 498.558 L2133.75 498.558 Z" fill="#000000" fill-rule="evenodd" fill-opacity="1" /><path clip-path="url(#clip860)" d="M2164.12 508.697 Q2160.79 508.697 2158.87 510.479 Q2156.97 512.261 2156.97 515.386 Q2156.97 518.511 2158.87 520.294 Q2160.79 522.076 2164.12 522.076 Q2167.46 522.076 2169.38 520.294 Q2171.3 518.488 2171.3 515.386 Q2171.3 512.261 2169.38 510.479 Q2167.48 508.697 2164.12 508.697 M2159.45 506.706 Q2156.44 505.965 2154.75 503.905 Q2153.08 501.845 2153.08 498.882 Q2153.08 494.738 2156.02 492.331 Q2158.98 489.924 2164.12 489.924 Q2169.29 489.924 2172.23 492.331 Q2175.16 494.738 2175.16 498.882 Q2175.16 501.845 2173.48 503.905 Q2171.81 505.965 2168.82 506.706 Q2172.2 507.493 2174.08 509.785 Q2175.98 512.076 2175.98 515.386 Q2175.98 520.41 2172.9 523.095 Q2169.84 525.78 2164.12 525.78 Q2158.41 525.78 2155.33 523.095 Q2152.27 520.41 2152.27 515.386 Q2152.27 512.076 2154.17 509.785 Q2156.07 507.493 2159.45 506.706 M2157.73 499.322 Q2157.73 502.007 2159.4 503.512 Q2161.09 505.016 2164.12 505.016 Q2167.13 505.016 2168.82 503.512 Q2170.54 502.007 2170.54 499.322 Q2170.54 496.637 2168.82 495.132 Q2167.13 493.627 2164.12 493.627 Q2161.09 493.627 2159.4 495.132 Q2157.73 496.637 2157.73 499.322 Z" fill="#000000" fill-rule="evenodd" fill-opacity="1" /><path clip-path="url(#clip860)" d="M2193.91 489.137 Q2190.81 494.461 2189.31 499.669 Q2187.8 504.877 2187.8 510.224 Q2187.8 515.572 2189.31 520.826 Q2190.84 526.058 2193.91 531.359 L2190.21 531.359 Q2186.74 525.919 2185 520.664 Q2183.29 515.41 2183.29 510.224 Q2183.29 505.062 2185 499.831 Q2186.72 494.6 2190.21 489.137 L2193.91 489.137 Z" fill="#000000" fill-rule="evenodd" fill-opacity="1" /><path clip-path="url(#clip860)" d="M2206.39 491.822 L2206.39 499.183 L2215.16 499.183 L2215.16 502.493 L2206.39 502.493 L2206.39 516.567 Q2206.39 519.738 2207.25 520.641 Q2208.13 521.544 2210.79 521.544 L2215.16 521.544 L2215.16 525.109 L2210.79 525.109 Q2205.86 525.109 2203.98 523.28 Q2202.11 521.428 2202.11 516.567 L2202.11 502.493 L2198.98 502.493 L2198.98 499.183 L2202.11 499.183 L2202.11 491.822 L2206.39 491.822 Z" fill="#000000" fill-rule="evenodd" fill-opacity="1" /><path clip-path="url(#clip860)" d="M2220.1 489.137 L2223.8 489.137 Q2227.27 494.6 2228.98 499.831 Q2230.72 505.062 2230.72 510.224 Q2230.72 515.41 2228.98 520.664 Q2227.27 525.919 2223.8 531.359 L2220.1 531.359 Q2223.17 526.058 2224.68 520.826 Q2226.21 515.572 2226.21 510.224 Q2226.21 504.877 2224.68 499.669 Q2223.17 494.461 2220.1 489.137 Z" fill="#000000" fill-rule="evenodd" fill-opacity="1" /></svg>
