<?xml version="1.0" encoding="utf-8"?>
<svg xmlns="http://www.w3.org/2000/svg" xmlns:xlink="http://www.w3.org/1999/xlink" width="600" height="400" viewBox="0 0 2400 1600">
<defs>
  <clipPath id="clip930">
    <rect x="0" y="0" width="2400" height="1600"/>
  </clipPath>
</defs>
<path clip-path="url(#clip930)" d="
M0 1600 L2400 1600 L2400 0 L0 0  Z
  " fill="#ffffff" fill-rule="evenodd" fill-opacity="1"/>
<defs>
  <clipPath id="clip931">
    <rect x="480" y="0" width="1681" height="1600"/>
  </clipPath>
</defs>
<path clip-path="url(#clip930)" d="
M184.191 1423.18 L2352.76 1423.18 L2352.76 47.2441 L184.191 47.2441  Z
  " fill="#ffffff" fill-rule="evenodd" fill-opacity="1"/>
<defs>
  <clipPath id="clip932">
    <rect x="184" y="47" width="2170" height="1377"/>
  </clipPath>
</defs>
<polyline clip-path="url(#clip932)" style="stroke:#000000; stroke-linecap:butt; stroke-linejoin:round; stroke-width:2; stroke-opacity:0.1; fill:none" points="
  184.191,1423.18 184.191,47.2441 
  "/>
<polyline clip-path="url(#clip932)" style="stroke:#000000; stroke-linecap:butt; stroke-linejoin:round; stroke-width:2; stroke-opacity:0.1; fill:none" points="
  617.904,1423.18 617.904,47.2441 
  "/>
<polyline clip-path="url(#clip932)" style="stroke:#000000; stroke-linecap:butt; stroke-linejoin:round; stroke-width:2; stroke-opacity:0.1; fill:none" points="
  1051.62,1423.18 1051.62,47.2441 
  "/>
<polyline clip-path="url(#clip932)" style="stroke:#000000; stroke-linecap:butt; stroke-linejoin:round; stroke-width:2; stroke-opacity:0.1; fill:none" points="
  1485.33,1423.18 1485.33,47.2441 
  "/>
<polyline clip-path="url(#clip932)" style="stroke:#000000; stroke-linecap:butt; stroke-linejoin:round; stroke-width:2; stroke-opacity:0.1; fill:none" points="
  1919.04,1423.18 1919.04,47.2441 
  "/>
<polyline clip-path="url(#clip932)" style="stroke:#000000; stroke-linecap:butt; stroke-linejoin:round; stroke-width:2; stroke-opacity:0.1; fill:none" points="
  2352.76,1423.18 2352.76,47.2441 
  "/>
<polyline clip-path="url(#clip930)" style="stroke:#000000; stroke-linecap:butt; stroke-linejoin:round; stroke-width:4; stroke-opacity:1; fill:none" points="
  184.191,1423.18 2352.76,1423.18 
  "/>
<polyline clip-path="url(#clip930)" style="stroke:#000000; stroke-linecap:butt; stroke-linejoin:round; stroke-width:4; stroke-opacity:1; fill:none" points="
  184.191,1423.18 184.191,1404.28 
  "/>
<polyline clip-path="url(#clip930)" style="stroke:#000000; stroke-linecap:butt; stroke-linejoin:round; stroke-width:4; stroke-opacity:1; fill:none" points="
  617.904,1423.18 617.904,1404.28 
  "/>
<polyline clip-path="url(#clip930)" style="stroke:#000000; stroke-linecap:butt; stroke-linejoin:round; stroke-width:4; stroke-opacity:1; fill:none" points="
  1051.62,1423.18 1051.62,1404.28 
  "/>
<polyline clip-path="url(#clip930)" style="stroke:#000000; stroke-linecap:butt; stroke-linejoin:round; stroke-width:4; stroke-opacity:1; fill:none" points="
  1485.33,1423.18 1485.33,1404.28 
  "/>
<polyline clip-path="url(#clip930)" style="stroke:#000000; stroke-linecap:butt; stroke-linejoin:round; stroke-width:4; stroke-opacity:1; fill:none" points="
  1919.04,1423.18 1919.04,1404.28 
  "/>
<polyline clip-path="url(#clip930)" style="stroke:#000000; stroke-linecap:butt; stroke-linejoin:round; stroke-width:4; stroke-opacity:1; fill:none" points="
  2352.76,1423.18 2352.76,1404.28 
  "/>
<path clip-path="url(#clip930)" d="M184.191 1454.1 Q180.58 1454.1 178.751 1457.66 Q176.945 1461.2 176.945 1468.33 Q176.945 1475.44 178.751 1479.01 Q180.58 1482.55 184.191 1482.55 Q187.825 1482.55 189.63 1479.01 Q191.459 1475.44 191.459 1468.33 Q191.459 1461.2 189.63 1457.66 Q187.825 1454.1 184.191 1454.1 M184.191 1450.39 Q190.001 1450.39 193.056 1455 Q196.135 1459.58 196.135 1468.33 Q196.135 1477.06 193.056 1481.67 Q190.001 1486.25 184.191 1486.25 Q178.381 1486.25 175.302 1481.67 Q172.246 1477.06 172.246 1468.33 Q172.246 1459.58 175.302 1455 Q178.381 1450.39 184.191 1450.39 Z" fill="#000000" fill-rule="evenodd" fill-opacity="1" /><path clip-path="url(#clip930)" d="M608.182 1451.02 L626.538 1451.02 L626.538 1454.96 L612.464 1454.96 L612.464 1463.43 Q613.482 1463.08 614.501 1462.92 Q615.519 1462.73 616.538 1462.73 Q622.325 1462.73 625.705 1465.9 Q629.084 1469.08 629.084 1474.49 Q629.084 1480.07 625.612 1483.17 Q622.14 1486.25 615.82 1486.25 Q613.644 1486.25 611.376 1485.88 Q609.131 1485.51 606.723 1484.77 L606.723 1480.07 Q608.807 1481.2 611.029 1481.76 Q613.251 1482.32 615.728 1482.32 Q619.732 1482.32 622.07 1480.21 Q624.408 1478.1 624.408 1474.49 Q624.408 1470.88 622.07 1468.77 Q619.732 1466.67 615.728 1466.67 Q613.853 1466.67 611.978 1467.08 Q610.126 1467.5 608.182 1468.38 L608.182 1451.02 Z" fill="#000000" fill-rule="evenodd" fill-opacity="1" /><path clip-path="url(#clip930)" d="M1026.3 1481.64 L1033.94 1481.64 L1033.94 1455.28 L1025.63 1456.95 L1025.63 1452.69 L1033.9 1451.02 L1038.57 1451.02 L1038.57 1481.64 L1046.21 1481.64 L1046.21 1485.58 L1026.3 1485.58 L1026.3 1481.64 Z" fill="#000000" fill-rule="evenodd" fill-opacity="1" /><path clip-path="url(#clip930)" d="M1065.66 1454.1 Q1062.04 1454.1 1060.22 1457.66 Q1058.41 1461.2 1058.41 1468.33 Q1058.41 1475.44 1060.22 1479.01 Q1062.04 1482.55 1065.66 1482.55 Q1069.29 1482.55 1071.1 1479.01 Q1072.92 1475.44 1072.92 1468.33 Q1072.92 1461.2 1071.1 1457.66 Q1069.29 1454.1 1065.66 1454.1 M1065.66 1450.39 Q1071.47 1450.39 1074.52 1455 Q1077.6 1459.58 1077.6 1468.33 Q1077.6 1477.06 1074.52 1481.67 Q1071.47 1486.25 1065.66 1486.25 Q1059.85 1486.25 1056.77 1481.67 Q1053.71 1477.06 1053.71 1468.33 Q1053.71 1459.58 1056.77 1455 Q1059.85 1450.39 1065.66 1450.39 Z" fill="#000000" fill-rule="evenodd" fill-opacity="1" /><path clip-path="url(#clip930)" d="M1460.52 1481.64 L1468.15 1481.64 L1468.15 1455.28 L1459.84 1456.95 L1459.84 1452.69 L1468.11 1451.02 L1472.78 1451.02 L1472.78 1481.64 L1480.42 1481.64 L1480.42 1485.58 L1460.52 1485.58 L1460.52 1481.64 Z" fill="#000000" fill-rule="evenodd" fill-opacity="1" /><path clip-path="url(#clip930)" d="M1489.91 1451.02 L1508.27 1451.02 L1508.27 1454.96 L1494.2 1454.96 L1494.2 1463.43 Q1495.21 1463.08 1496.23 1462.92 Q1497.25 1462.73 1498.27 1462.73 Q1504.06 1462.73 1507.44 1465.9 Q1510.82 1469.08 1510.82 1474.49 Q1510.82 1480.07 1507.34 1483.17 Q1503.87 1486.25 1497.55 1486.25 Q1495.38 1486.25 1493.11 1485.88 Q1490.86 1485.51 1488.45 1484.77 L1488.45 1480.07 Q1490.54 1481.2 1492.76 1481.76 Q1494.98 1482.32 1497.46 1482.32 Q1501.46 1482.32 1503.8 1480.21 Q1506.14 1478.1 1506.14 1474.49 Q1506.14 1470.88 1503.8 1468.77 Q1501.46 1466.67 1497.46 1466.67 Q1495.58 1466.67 1493.71 1467.08 Q1491.86 1467.5 1489.91 1468.38 L1489.91 1451.02 Z" fill="#000000" fill-rule="evenodd" fill-opacity="1" /><path clip-path="url(#clip930)" d="M1897.82 1481.64 L1914.14 1481.64 L1914.14 1485.58 L1892.19 1485.58 L1892.19 1481.64 Q1894.85 1478.89 1899.44 1474.26 Q1904.04 1469.61 1905.22 1468.27 Q1907.47 1465.74 1908.35 1464.01 Q1909.25 1462.25 1909.25 1460.56 Q1909.25 1457.8 1907.31 1456.07 Q1905.39 1454.33 1902.28 1454.33 Q1900.08 1454.33 1897.63 1455.09 Q1895.2 1455.86 1892.42 1457.41 L1892.42 1452.69 Q1895.25 1451.55 1897.7 1450.97 Q1900.15 1450.39 1902.19 1450.39 Q1907.56 1450.39 1910.76 1453.08 Q1913.95 1455.77 1913.95 1460.26 Q1913.95 1462.39 1913.14 1464.31 Q1912.35 1466.2 1910.25 1468.8 Q1909.67 1469.47 1906.57 1472.69 Q1903.46 1475.88 1897.82 1481.64 Z" fill="#000000" fill-rule="evenodd" fill-opacity="1" /><path clip-path="url(#clip930)" d="M1933.95 1454.1 Q1930.34 1454.1 1928.51 1457.66 Q1926.7 1461.2 1926.7 1468.33 Q1926.7 1475.44 1928.51 1479.01 Q1930.34 1482.55 1933.95 1482.55 Q1937.58 1482.55 1939.39 1479.01 Q1941.22 1475.44 1941.22 1468.33 Q1941.22 1461.2 1939.39 1457.66 Q1937.58 1454.1 1933.95 1454.1 M1933.95 1450.39 Q1939.76 1450.39 1942.82 1455 Q1945.89 1459.58 1945.89 1468.33 Q1945.89 1477.06 1942.82 1481.67 Q1939.76 1486.25 1933.95 1486.25 Q1928.14 1486.25 1925.06 1481.67 Q1922.01 1477.06 1922.01 1468.33 Q1922.01 1459.58 1925.06 1455 Q1928.14 1450.39 1933.95 1450.39 Z" fill="#000000" fill-rule="evenodd" fill-opacity="1" /><path clip-path="url(#clip930)" d="M2332.03 1481.64 L2348.35 1481.64 L2348.35 1485.58 L2326.4 1485.58 L2326.4 1481.64 Q2329.06 1478.89 2333.65 1474.26 Q2338.25 1469.61 2339.43 1468.27 Q2341.68 1465.74 2342.56 1464.01 Q2343.46 1462.25 2343.46 1460.56 Q2343.46 1457.8 2341.52 1456.07 Q2339.6 1454.33 2336.49 1454.33 Q2334.3 1454.33 2331.84 1455.09 Q2329.41 1455.86 2326.63 1457.41 L2326.63 1452.69 Q2329.46 1451.55 2331.91 1450.97 Q2334.36 1450.39 2336.4 1450.39 Q2341.77 1450.39 2344.97 1453.08 Q2348.16 1455.77 2348.16 1460.26 Q2348.16 1462.39 2347.35 1464.31 Q2346.56 1466.2 2344.46 1468.8 Q2343.88 1469.47 2340.78 1472.69 Q2337.67 1475.88 2332.03 1481.64 Z" fill="#000000" fill-rule="evenodd" fill-opacity="1" /><path clip-path="url(#clip930)" d="M2358.21 1451.02 L2376.56 1451.02 L2376.56 1454.96 L2362.49 1454.96 L2362.49 1463.43 Q2363.51 1463.08 2364.53 1462.92 Q2365.55 1462.73 2366.56 1462.73 Q2372.35 1462.73 2375.73 1465.9 Q2379.11 1469.08 2379.11 1474.49 Q2379.11 1480.07 2375.64 1483.17 Q2372.17 1486.25 2365.85 1486.25 Q2363.67 1486.25 2361.4 1485.88 Q2359.16 1485.51 2356.75 1484.77 L2356.75 1480.07 Q2358.83 1481.2 2361.05 1481.76 Q2363.28 1482.32 2365.75 1482.32 Q2369.76 1482.32 2372.1 1480.21 Q2374.43 1478.1 2374.43 1474.49 Q2374.43 1470.88 2372.1 1468.77 Q2369.76 1466.67 2365.75 1466.67 Q2363.88 1466.67 2362 1467.08 Q2360.15 1467.5 2358.21 1468.38 L2358.21 1451.02 Z" fill="#000000" fill-rule="evenodd" fill-opacity="1" /><path clip-path="url(#clip930)" d="M1267.53 1522.27 L1267.53 1532.4 L1279.6 1532.4 L1279.6 1536.95 L1267.53 1536.95 L1267.53 1556.3 Q1267.53 1560.66 1268.71 1561.9 Q1269.92 1563.14 1273.58 1563.14 L1279.6 1563.14 L1279.6 1568.04 L1273.58 1568.04 Q1266.8 1568.04 1264.22 1565.53 Q1261.65 1562.98 1261.65 1556.3 L1261.65 1536.95 L1257.35 1536.95 L1257.35 1532.4 L1261.65 1532.4 L1261.65 1522.27 L1267.53 1522.27 Z" fill="#000000" fill-rule="evenodd" fill-opacity="1" /><polyline clip-path="url(#clip932)" style="stroke:#000000; stroke-linecap:butt; stroke-linejoin:round; stroke-width:2; stroke-opacity:0.1; fill:none" points="
  184.191,1245.95 2352.76,1245.95 
  "/>
<polyline clip-path="url(#clip932)" style="stroke:#000000; stroke-linecap:butt; stroke-linejoin:round; stroke-width:2; stroke-opacity:0.1; fill:none" points="
  184.191,977.586 2352.76,977.586 
  "/>
<polyline clip-path="url(#clip932)" style="stroke:#000000; stroke-linecap:butt; stroke-linejoin:round; stroke-width:2; stroke-opacity:0.1; fill:none" points="
  184.191,709.222 2352.76,709.222 
  "/>
<polyline clip-path="url(#clip932)" style="stroke:#000000; stroke-linecap:butt; stroke-linejoin:round; stroke-width:2; stroke-opacity:0.1; fill:none" points="
  184.191,440.857 2352.76,440.857 
  "/>
<polyline clip-path="url(#clip932)" style="stroke:#000000; stroke-linecap:butt; stroke-linejoin:round; stroke-width:2; stroke-opacity:0.1; fill:none" points="
  184.191,172.493 2352.76,172.493 
  "/>
<polyline clip-path="url(#clip930)" style="stroke:#000000; stroke-linecap:butt; stroke-linejoin:round; stroke-width:4; stroke-opacity:1; fill:none" points="
  184.191,1423.18 184.191,47.2441 
  "/>
<polyline clip-path="url(#clip930)" style="stroke:#000000; stroke-linecap:butt; stroke-linejoin:round; stroke-width:4; stroke-opacity:1; fill:none" points="
  184.191,1245.95 203.088,1245.95 
  "/>
<polyline clip-path="url(#clip930)" style="stroke:#000000; stroke-linecap:butt; stroke-linejoin:round; stroke-width:4; stroke-opacity:1; fill:none" points="
  184.191,977.586 203.088,977.586 
  "/>
<polyline clip-path="url(#clip930)" style="stroke:#000000; stroke-linecap:butt; stroke-linejoin:round; stroke-width:4; stroke-opacity:1; fill:none" points="
  184.191,709.222 203.088,709.222 
  "/>
<polyline clip-path="url(#clip930)" style="stroke:#000000; stroke-linecap:butt; stroke-linejoin:round; stroke-width:4; stroke-opacity:1; fill:none" points="
  184.191,440.857 203.088,440.857 
  "/>
<polyline clip-path="url(#clip930)" style="stroke:#000000; stroke-linecap:butt; stroke-linejoin:round; stroke-width:4; stroke-opacity:1; fill:none" points="
  184.191,172.493 203.088,172.493 
  "/>
<path clip-path="url(#clip930)" d="M81.0614 1228.67 L99.4178 1228.67 L99.4178 1232.61 L85.3438 1232.61 L85.3438 1241.08 Q86.3623 1240.73 87.3808 1240.57 Q88.3993 1240.38 89.4178 1240.38 Q95.2049 1240.38 98.5845 1243.55 Q101.964 1246.73 101.964 1252.14 Q101.964 1257.72 98.4919 1260.82 Q95.0197 1263.9 88.7003 1263.9 Q86.5243 1263.9 84.2558 1263.53 Q82.0105 1263.16 79.6031 1262.42 L79.6031 1257.72 Q81.6864 1258.86 83.9086 1259.41 Q86.1308 1259.97 88.6077 1259.97 Q92.6123 1259.97 94.9502 1257.86 Q97.2882 1255.75 97.2882 1252.14 Q97.2882 1248.53 94.9502 1246.43 Q92.6123 1244.32 88.6077 1244.32 Q86.7327 1244.32 84.8577 1244.74 Q83.0058 1245.15 81.0614 1246.03 L81.0614 1228.67 Z" fill="#000000" fill-rule="evenodd" fill-opacity="1" /><path clip-path="url(#clip930)" d="M111.177 1257.35 L116.061 1257.35 L116.061 1263.23 L111.177 1263.23 L111.177 1257.35 Z" fill="#000000" fill-rule="evenodd" fill-opacity="1" /><path clip-path="url(#clip930)" d="M136.246 1231.75 Q132.635 1231.75 130.807 1235.31 Q129.001 1238.86 129.001 1245.99 Q129.001 1253.09 130.807 1256.66 Q132.635 1260.2 136.246 1260.2 Q139.881 1260.2 141.686 1256.66 Q143.515 1253.09 143.515 1245.99 Q143.515 1238.86 141.686 1235.31 Q139.881 1231.75 136.246 1231.75 M136.246 1228.05 Q142.056 1228.05 145.112 1232.65 Q148.191 1237.24 148.191 1245.99 Q148.191 1254.71 145.112 1259.32 Q142.056 1263.9 136.246 1263.9 Q130.436 1263.9 127.357 1259.32 Q124.302 1254.71 124.302 1245.99 Q124.302 1237.24 127.357 1232.65 Q130.436 1228.05 136.246 1228.05 Z" fill="#000000" fill-rule="evenodd" fill-opacity="1" /><path clip-path="url(#clip930)" d="M80.8299 960.306 L103.052 960.306 L103.052 962.297 L90.5058 994.866 L85.6216 994.866 L97.4271 964.241 L80.8299 964.241 L80.8299 960.306 Z" fill="#000000" fill-rule="evenodd" fill-opacity="1" /><path clip-path="url(#clip930)" d="M112.172 988.987 L117.057 988.987 L117.057 994.866 L112.172 994.866 L112.172 988.987 Z" fill="#000000" fill-rule="evenodd" fill-opacity="1" /><path clip-path="url(#clip930)" d="M127.288 960.306 L145.644 960.306 L145.644 964.241 L131.57 964.241 L131.57 972.714 Q132.589 972.366 133.607 972.204 Q134.626 972.019 135.644 972.019 Q141.431 972.019 144.811 975.19 Q148.191 978.362 148.191 983.778 Q148.191 989.357 144.718 992.459 Q141.246 995.538 134.927 995.538 Q132.751 995.538 130.482 995.167 Q128.237 994.797 125.83 994.056 L125.83 989.357 Q127.913 990.491 130.135 991.047 Q132.357 991.602 134.834 991.602 Q138.839 991.602 141.177 989.496 Q143.515 987.389 143.515 983.778 Q143.515 980.167 141.177 978.061 Q138.839 975.954 134.834 975.954 Q132.959 975.954 131.084 976.371 Q129.232 976.788 127.288 977.667 L127.288 960.306 Z" fill="#000000" fill-rule="evenodd" fill-opacity="1" /><path clip-path="url(#clip930)" d="M51.6634 722.567 L59.3023 722.567 L59.3023 696.201 L50.9921 697.868 L50.9921 693.608 L59.256 691.942 L63.9319 691.942 L63.9319 722.567 L71.5707 722.567 L71.5707 726.502 L51.6634 726.502 L51.6634 722.567 Z" fill="#000000" fill-rule="evenodd" fill-opacity="1" /><path clip-path="url(#clip930)" d="M91.0151 695.02 Q87.404 695.02 85.5753 698.585 Q83.7697 702.127 83.7697 709.257 Q83.7697 716.363 85.5753 719.928 Q87.404 723.469 91.0151 723.469 Q94.6493 723.469 96.4548 719.928 Q98.2835 716.363 98.2835 709.257 Q98.2835 702.127 96.4548 698.585 Q94.6493 695.02 91.0151 695.02 M91.0151 691.317 Q96.8252 691.317 99.8808 695.923 Q102.959 700.507 102.959 709.257 Q102.959 717.983 99.8808 722.59 Q96.8252 727.173 91.0151 727.173 Q85.2049 727.173 82.1262 722.59 Q79.0707 717.983 79.0707 709.257 Q79.0707 700.507 82.1262 695.923 Q85.2049 691.317 91.0151 691.317 Z" fill="#000000" fill-rule="evenodd" fill-opacity="1" /><path clip-path="url(#clip930)" d="M111.177 720.622 L116.061 720.622 L116.061 726.502 L111.177 726.502 L111.177 720.622 Z" fill="#000000" fill-rule="evenodd" fill-opacity="1" /><path clip-path="url(#clip930)" d="M136.246 695.02 Q132.635 695.02 130.807 698.585 Q129.001 702.127 129.001 709.257 Q129.001 716.363 130.807 719.928 Q132.635 723.469 136.246 723.469 Q139.881 723.469 141.686 719.928 Q143.515 716.363 143.515 709.257 Q143.515 702.127 141.686 698.585 Q139.881 695.02 136.246 695.02 M136.246 691.317 Q142.056 691.317 145.112 695.923 Q148.191 700.507 148.191 709.257 Q148.191 717.983 145.112 722.59 Q142.056 727.173 136.246 727.173 Q130.436 727.173 127.357 722.59 Q124.302 717.983 124.302 709.257 Q124.302 700.507 127.357 695.923 Q130.436 691.317 136.246 691.317 Z" fill="#000000" fill-rule="evenodd" fill-opacity="1" /><path clip-path="url(#clip930)" d="M52.6588 454.202 L60.2976 454.202 L60.2976 427.837 L51.9875 429.503 L51.9875 425.244 L60.2513 423.577 L64.9272 423.577 L64.9272 454.202 L72.5661 454.202 L72.5661 458.137 L52.6588 458.137 L52.6588 454.202 Z" fill="#000000" fill-rule="evenodd" fill-opacity="1" /><path clip-path="url(#clip930)" d="M86.0382 454.202 L102.358 454.202 L102.358 458.137 L80.4133 458.137 L80.4133 454.202 Q83.0753 451.448 87.6586 446.818 Q92.2651 442.165 93.4456 440.823 Q95.691 438.299 96.5706 436.563 Q97.4734 434.804 97.4734 433.114 Q97.4734 430.36 95.5289 428.624 Q93.6076 426.887 90.5058 426.887 Q88.3067 426.887 85.8531 427.651 Q83.4225 428.415 80.6447 429.966 L80.6447 425.244 Q83.4688 424.11 85.9225 423.531 Q88.3762 422.952 90.4132 422.952 Q95.7836 422.952 98.978 425.637 Q102.172 428.323 102.172 432.813 Q102.172 434.943 101.362 436.864 Q100.575 438.762 98.4687 441.355 Q97.89 442.026 94.7882 445.244 Q91.6864 448.438 86.0382 454.202 Z" fill="#000000" fill-rule="evenodd" fill-opacity="1" /><path clip-path="url(#clip930)" d="M112.172 452.258 L117.057 452.258 L117.057 458.137 L112.172 458.137 L112.172 452.258 Z" fill="#000000" fill-rule="evenodd" fill-opacity="1" /><path clip-path="url(#clip930)" d="M127.288 423.577 L145.644 423.577 L145.644 427.512 L131.57 427.512 L131.57 435.985 Q132.589 435.637 133.607 435.475 Q134.626 435.29 135.644 435.29 Q141.431 435.29 144.811 438.461 Q148.191 441.633 148.191 447.049 Q148.191 452.628 144.718 455.73 Q141.246 458.809 134.927 458.809 Q132.751 458.809 130.482 458.438 Q128.237 458.068 125.83 457.327 L125.83 452.628 Q127.913 453.762 130.135 454.318 Q132.357 454.873 134.834 454.873 Q138.839 454.873 141.177 452.767 Q143.515 450.66 143.515 447.049 Q143.515 443.438 141.177 441.332 Q138.839 439.225 134.834 439.225 Q132.959 439.225 131.084 439.642 Q129.232 440.059 127.288 440.938 L127.288 423.577 Z" fill="#000000" fill-rule="evenodd" fill-opacity="1" /><path clip-path="url(#clip930)" d="M51.6634 185.838 L59.3023 185.838 L59.3023 159.472 L50.9921 161.139 L50.9921 156.879 L59.256 155.213 L63.9319 155.213 L63.9319 185.838 L71.5707 185.838 L71.5707 189.773 L51.6634 189.773 L51.6634 185.838 Z" fill="#000000" fill-rule="evenodd" fill-opacity="1" /><path clip-path="url(#clip930)" d="M81.0614 155.213 L99.4178 155.213 L99.4178 159.148 L85.3438 159.148 L85.3438 167.62 Q86.3623 167.273 87.3808 167.111 Q88.3993 166.926 89.4178 166.926 Q95.2049 166.926 98.5845 170.097 Q101.964 173.268 101.964 178.685 Q101.964 184.264 98.4919 187.365 Q95.0197 190.444 88.7003 190.444 Q86.5243 190.444 84.2558 190.074 Q82.0105 189.703 79.6031 188.963 L79.6031 184.264 Q81.6864 185.398 83.9086 185.953 Q86.1308 186.509 88.6077 186.509 Q92.6123 186.509 94.9502 184.402 Q97.2882 182.296 97.2882 178.685 Q97.2882 175.074 94.9502 172.967 Q92.6123 170.861 88.6077 170.861 Q86.7327 170.861 84.8577 171.278 Q83.0058 171.694 81.0614 172.574 L81.0614 155.213 Z" fill="#000000" fill-rule="evenodd" fill-opacity="1" /><path clip-path="url(#clip930)" d="M111.177 183.893 L116.061 183.893 L116.061 189.773 L111.177 189.773 L111.177 183.893 Z" fill="#000000" fill-rule="evenodd" fill-opacity="1" /><path clip-path="url(#clip930)" d="M136.246 158.292 Q132.635 158.292 130.807 161.856 Q129.001 165.398 129.001 172.528 Q129.001 179.634 130.807 183.199 Q132.635 186.74 136.246 186.74 Q139.881 186.74 141.686 183.199 Q143.515 179.634 143.515 172.528 Q143.515 165.398 141.686 161.856 Q139.881 158.292 136.246 158.292 M136.246 154.588 Q142.056 154.588 145.112 159.194 Q148.191 163.778 148.191 172.528 Q148.191 181.254 145.112 185.861 Q142.056 190.444 136.246 190.444 Q130.436 190.444 127.357 185.861 Q124.302 181.254 124.302 172.528 Q124.302 163.778 127.357 159.194 Q130.436 154.588 136.246 154.588 Z" fill="#000000" fill-rule="evenodd" fill-opacity="1" /><polyline clip-path="url(#clip932)" style="stroke:#009af9; stroke-linecap:butt; stroke-linejoin:round; stroke-width:12; stroke-opacity:1; fill:none" points="
  184.191,709.222 186.34,735.492 188.489,761.119 190.638,786.12 192.788,810.508 194.937,834.3 197.086,857.509 199.235,880.15 201.384,902.238 203.534,923.784 
  205.683,944.804 207.832,965.309 209.981,985.312 212.131,1004.83 214.28,1023.86 216.429,1042.43 218.578,1060.55 220.727,1078.22 222.877,1095.46 225.026,1112.28 
  227.175,1128.68 229.324,1144.69 231.474,1160.3 233.623,1175.53 235.772,1190.39 237.921,1204.89 240.07,1219.03 242.22,1232.82 244.369,1246.28 246.518,1259.4 
  248.667,1272.21 250.817,1284.7 252.966,1296.89 255.115,1308.78 257.264,1320.38 259.413,1331.69 261.563,1342.73 263.712,1353.49 265.861,1364 268.01,1374.24 
  270.16,1384.24 272.309,337.419 274.458,372.789 276.607,407.294 278.756,440.955 280.906,473.792 283.055,505.824 285.204,537.073 287.353,567.556 289.503,597.293 
  291.652,626.302 293.801,654.601 295.95,682.207 298.099,709.137 300.249,735.408 302.398,761.037 304.547,786.039 306.696,810.429 308.846,834.222 310.995,857.434 
  313.144,880.078 315.293,902.169 317.442,923.719 319.592,944.741 321.741,965.248 323.89,985.253 326.039,1004.77 328.189,1023.81 330.338,1042.38 332.487,1060.49 
  334.636,1078.17 336.785,1095.41 338.935,1112.22 341.084,1128.63 343.233,1144.64 345.382,1160.25 347.532,1175.48 349.681,1190.34 351.83,1204.84 353.979,1218.98 
  356.128,1232.77 358.278,180.196 360.427,219.413 362.576,257.671 364.725,294.992 366.875,331.4 369.024,366.917 371.173,401.565 373.322,435.364 375.471,468.336 
  377.621,500.501 379.77,531.879 381.919,562.488 384.068,592.349 386.218,621.48 388.367,649.897 390.516,677.62 392.665,704.664 394.814,731.046 396.964,756.782 
  399.113,781.889 401.262,806.381 403.411,830.273 405.561,853.581 407.71,876.318 409.859,898.499 412.008,920.137 414.157,941.245 416.307,961.837 418.456,981.925 
  420.605,1001.52 422.754,1020.64 424.904,1039.29 427.053,1057.48 429.202,1075.23 431.351,1092.54 433.5,1109.43 435.65,1125.91 437.799,1141.98 439.948,1157.66 
  442.097,1172.96 444.247,1187.88 446.396,153.168 448.545,193.048 450.694,231.952 452.843,269.903 454.993,306.926 457.142,343.043 459.291,378.275 461.44,412.644 
  463.59,446.172 465.739,478.879 467.888,510.785 470.037,541.911 472.186,572.274 474.336,601.895 476.485,630.791 478.634,658.98 480.783,686.48 482.933,713.307 
  485.082,739.478 487.231,765.009 489.38,789.915 491.529,814.212 493.679,837.913 495.828,861.035 497.977,883.59 500.126,905.593 502.276,927.057 504.425,947.996 
  506.574,968.422 508.723,988.348 510.872,1007.79 513.022,1026.75 515.171,1045.25 517.32,1063.29 519.469,1080.9 521.619,1098.07 523.768,1114.83 525.917,1131.17 
  528.066,1147.12 530.215,1162.67 532.365,119.177 534.514,159.887 536.663,199.602 538.812,238.345 540.962,276.139 543.111,313.008 545.26,348.975 547.409,384.061 
  549.558,418.289 551.708,451.678 553.857,484.251 556.006,516.026 558.155,547.024 560.305,577.263 562.454,606.763 564.603,635.541 566.752,663.615 568.901,691.002 
  571.051,717.718 573.2,743.781 575.349,769.205 577.498,794.008 579.648,818.203 581.797,841.806 583.946,864.831 586.095,887.293 588.244,909.205 590.394,930.581 
  592.543,951.434 594.692,971.777 596.841,991.622 598.991,1010.98 601.14,1029.87 603.289,1048.29 605.438,1066.26 607.587,1083.79 609.737,1100.9 611.886,1117.58 
  614.035,1133.86 616.184,1149.74 618.334,97.076 620.483,138.328 622.632,178.571 624.781,217.829 626.93,256.126 629.08,293.486 631.229,329.931 633.378,365.484 
  635.527,400.166 637.677,433.999 639.826,467.004 641.975,499.201 644.124,530.61 646.273,561.25 648.423,591.141 650.572,620.3 652.721,648.746 654.87,676.496 
  657.02,703.568 659.169,729.977 661.318,755.741 663.467,780.874 665.616,805.391 667.766,829.309 669.915,852.64 672.064,875.401 674.213,897.604 676.363,919.264 
  678.512,940.393 680.661,961.005 682.81,981.113 684.959,1000.73 687.109,1019.86 689.258,1038.53 691.407,1056.74 693.556,1074.51 695.706,1091.84 697.855,1108.75 
  700.004,1125.24 702.153,1141.33 704.302,1157.02 706.452,120.988 708.601,161.654 710.75,201.326 712.899,240.027 715.049,277.78 717.198,314.609 719.347,350.537 
  721.496,385.584 723.645,419.774 725.795,453.128 727.944,485.665 730.093,517.405 732.242,548.369 734.392,578.576 736.541,608.043 738.69,636.79 740.839,664.833 
  742.988,692.19 745.138,718.877 747.287,744.912 749.436,770.309 751.585,795.084 753.735,819.253 755.884,842.83 758.033,865.83 760.182,888.268 762.331,910.156 
  764.481,931.509 766.63,952.339 768.779,972.659 770.928,992.483 773.078,1011.82 775.227,1030.69 777.376,1049.09 779.525,1067.04 781.674,1084.56 783.824,1101.64 
  785.973,1118.31 788.122,1134.57 790.271,1150.43 792.421,105.133 794.57,146.188 796.719,186.238 798.868,225.309 801.017,263.423 803.167,300.604 805.316,336.875 
  807.465,372.257 809.614,406.774 811.764,440.445 813.913,473.292 816.062,505.335 818.211,536.594 820.36,567.088 822.51,596.836 824.659,625.856 826.808,654.166 
  828.957,681.784 831.107,708.726 833.256,735.009 835.405,760.65 837.554,785.662 839.703,810.062 841.853,833.865 844.002,857.085 846.151,879.737 848.3,901.834 
  850.45,923.39 852.599,944.418 854.748,964.932 856.897,984.943 859.046,1004.47 861.196,1023.51 863.345,1042.09 865.494,1060.21 867.643,1077.89 869.793,1095.14 
  871.942,1111.97 874.091,1128.38 876.24,1144.39 878.389,89.7431 880.539,131.174 882.688,171.592 884.837,211.02 886.986,249.483 889.136,287.005 891.285,323.609 
  893.434,359.316 895.583,394.149 897.732,428.129 899.882,461.278 902.031,493.615 904.18,525.161 906.329,555.935 908.479,585.957 910.628,615.243 912.777,643.814 
  914.926,671.685 917.075,698.874 919.225,725.398 921.374,751.273 923.523,776.514 925.672,801.138 927.822,825.159 929.971,848.591 932.12,871.45 934.269,893.75 
  936.418,915.504 938.568,936.726 940.717,957.429 942.866,977.625 945.015,997.326 947.165,1016.55 949.314,1035.3 951.463,1053.59 953.612,1071.43 955.761,1088.83 
  957.911,1105.81 960.06,1122.38 962.209,1138.54 964.358,1154.3 966.508,116.248 968.657,157.03 970.806,196.816 972.955,235.627 975.104,273.489 977.254,310.423 
  979.403,346.453 981.552,381.602 983.701,415.889 985.851,449.337 988,481.967 990.149,513.797 992.298,544.849 994.447,575.141 996.597,604.692 998.746,633.52 
  1000.9,661.643 1003.04,689.078 1005.19,715.842 1007.34,741.951 1009.49,767.421 1011.64,792.268 1013.79,816.506 1015.94,840.151 1018.09,863.217 1020.24,885.719 
  1022.39,907.669 1024.54,929.082 1026.69,949.971 1028.84,970.349 1030.98,990.228 1033.13,1009.62 1035.28,1028.54 1037.43,1047 1039.58,1065 1041.73,1082.56 
  1043.88,1099.7 1046.03,1116.41 1048.18,1132.72 1050.33,1148.62 1052.48,101.268 1054.63,142.417 1056.77,182.56 1058.92,221.72 1061.07,259.921 1063.22,297.188 
  1065.37,333.542 1067.52,369.006 1069.67,403.602 1071.82,437.351 1073.97,470.274 1076.12,502.391 1078.27,533.722 1080.42,564.287 1082.57,594.103 1084.71,623.191 
  1086.86,651.567 1089.01,679.248 1091.16,706.252 1093.31,732.596 1095.46,758.294 1097.61,783.364 1099.76,807.82 1101.91,831.677 1104.06,854.95 1106.21,877.654 
  1108.36,899.802 1110.51,921.408 1112.65,942.485 1114.8,963.047 1116.95,983.105 1119.1,1002.67 1121.25,1021.76 1123.4,1040.38 1125.55,1058.55 1127.7,1076.27 
  1129.85,1093.56 1132,1110.42 1134.15,1126.87 1136.3,1142.92 1138.45,86.1857 1140.59,127.704 1142.74,168.206 1144.89,207.718 1147.04,246.263 1149.19,283.864 
  1151.34,320.544 1153.49,356.327 1155.64,391.233 1157.79,425.285 1159.94,458.503 1162.09,490.908 1164.24,522.52 1166.39,553.358 1168.53,583.442 1170.68,612.79 
  1172.83,641.42 1174.98,669.35 1177.13,696.596 1179.28,723.176 1181.43,749.106 1183.58,774.401 1185.73,799.077 1187.88,823.148 1190.03,846.631 1192.18,869.538 
  1194.33,891.884 1196.47,913.684 1198.62,934.95 1200.77,955.695 1202.92,975.933 1205.07,995.676 1207.22,1014.94 1209.37,1033.72 1211.52,1052.05 1213.67,1069.93 
  1215.82,1087.38 1217.97,1104.39 1220.12,1120.99 1222.27,1137.18 1224.41,1152.98 1226.56,112.869 1228.71,153.734 1230.86,193.6 1233.01,232.49 1235.16,270.428 
  1237.31,307.437 1239.46,343.54 1241.61,378.759 1243.76,413.116 1245.91,446.632 1248.06,479.328 1250.2,511.224 1252.35,542.339 1254.5,572.693 1256.65,602.304 
  1258.8,631.19 1260.95,659.37 1263.1,686.861 1265.25,713.679 1267.4,739.841 1269.55,765.362 1271.7,790.259 1273.85,814.546 1276,838.238 1278.14,861.351 
  1280.29,883.898 1282.44,905.893 1284.59,927.35 1286.74,948.282 1288.89,968.701 1291.04,988.622 1293.19,1008.05 1295.34,1027.01 1297.49,1045.5 1299.64,1063.55 
  1301.79,1081.14 1303.94,1098.31 1306.08,1115.06 1308.23,1131.4 1310.38,1147.34 1312.53,97.9056 1314.68,139.137 1316.83,179.36 1318.98,218.599 1321.13,256.877 
  1323.28,294.218 1325.43,330.645 1327.58,366.18 1329.73,400.845 1331.88,434.662 1334.02,467.65 1336.17,499.832 1338.32,531.225 1340.47,561.851 1342.62,591.727 
  1344.77,620.872 1346.92,649.304 1349.07,677.041 1351.22,704.099 1353.37,730.496 1355.52,756.246 1357.67,781.367 1359.82,805.872 1361.96,829.777 1364.11,853.097 
  1366.26,875.846 1368.41,898.038 1370.56,919.687 1372.71,940.806 1374.86,961.408 1377.01,981.506 1379.16,1001.11 1381.31,1020.24 1383.46,1038.9 1385.61,1057.1 
  1387.76,1074.86 1389.9,1092.18 1392.05,1109.08 1394.2,1125.56 1396.35,1141.64 1398.5,1157.33 1400.65,124.41 1402.8,164.993 1404.95,204.583 1407.1,243.204 
  1409.25,280.88 1411.4,317.633 1413.55,353.487 1415.7,388.463 1417.84,422.582 1419.99,455.867 1422.14,488.336 1424.29,520.011 1426.44,550.911 1428.59,581.055 
  1430.74,610.462 1432.89,639.149 1435.04,667.134 1437.19,694.435 1439.34,721.068 1441.49,747.049 1443.63,772.393 1445.78,797.118 1447.93,821.237 1450.08,844.766 
  1452.23,867.719 1454.38,890.11 1456.53,911.953 1458.68,933.261 1460.83,954.049 1462.98,974.327 1465.13,994.11 1467.28,1013.41 1469.43,1032.23 1471.57,1050.6 
  1473.72,1068.52 1475.87,1085.99 1478.02,1103.04 1480.17,1119.68 1482.32,1135.9 1484.47,1151.73 1486.62,109.552 1488.77,150.499 1490.92,190.444 1493.07,229.411 
  1495.22,267.425 1497.37,304.508 1499.51,340.683 1501.66,375.972 1503.81,410.398 1505.96,443.98 1508.11,476.741 1510.26,508.699 1512.41,539.876 1514.56,570.29 
  1516.71,599.959 1518.86,628.903 1521.01,657.139 1523.16,684.684 1525.31,711.556 1527.45,737.77 1529.6,763.342 1531.75,788.289 1533.9,812.624 1536.05,836.364 
  1538.2,859.523 1540.35,882.114 1542.5,904.153 1544.65,925.652 1546.8,946.625 1548.95,967.085 1551.1,987.044 1553.25,1006.52 1555.39,1025.51 1557.54,1044.04 
  1559.69,1062.12 1561.84,1079.75 1563.99,1096.95 1566.14,1113.73 1568.29,1130.11 1570.44,1146.08 1572.59,94.5611 1574.74,135.874 1576.89,176.177 1579.04,215.493 
  1581.19,253.847 1583.33,291.263 1585.48,327.762 1587.63,363.367 1589.78,398.101 1591.93,431.985 1594.08,465.039 1596.23,497.284 1598.38,528.74 1600.53,559.427 
  1602.68,589.363 1604.83,618.566 1606.98,647.055 1609.13,674.847 1611.27,701.959 1613.42,728.407 1615.57,754.208 1617.72,779.378 1619.87,803.931 1622.02,827.884 
  1624.17,851.25 1626.32,874.044 1628.47,896.28 1630.62,917.972 1632.77,939.134 1634.92,959.777 1637.06,979.916 1639.21,999.561 1641.36,1018.73 1643.51,1037.42 
  1645.66,1055.66 1647.81,1073.45 1649.96,1090.81 1652.11,1107.74 1654.26,1124.26 1656.41,1140.37 1658.56,1156.09 1660.71,121.12 1662.86,161.783 1665,201.452 
  1667.15,240.15 1669.3,277.901 1671.45,314.727 1673.6,350.652 1675.75,385.697 1677.9,419.885 1680.05,453.235 1682.2,485.769 1684.35,517.507 1686.5,548.468 
  1688.65,578.671 1690.8,608.136 1692.94,636.88 1695.09,664.921 1697.24,692.275 1699.39,718.961 1701.54,744.994 1703.69,770.389 1705.84,795.163 1707.99,819.331 
  1710.14,842.906 1712.29,865.905 1714.44,888.34 1716.59,910.226 1718.74,931.577 1720.88,952.405 1723.03,972.724 1725.18,992.545 1727.33,1011.88 1729.48,1030.74 
  1731.63,1049.15 1733.78,1067.1 1735.93,1084.61 1738.08,1101.69 1740.23,1118.36 1742.38,1134.62 1744.53,1150.48 1746.68,106.232 1748.82,147.26 1750.97,187.284 
  1753.12,226.328 1755.27,264.417 1757.42,301.574 1759.57,337.82 1761.72,373.18 1763.87,407.673 1766.02,441.323 1768.17,474.148 1770.32,506.171 1772.47,537.409 
  1774.62,567.884 1776.76,597.612 1778.91,626.614 1781.06,654.906 1783.21,682.506 1785.36,709.43 1787.51,735.696 1789.66,761.319 1791.81,786.314 1793.96,810.698 
  1796.11,834.485 1798.26,857.689 1800.41,880.326 1802.56,902.408 1804.7,923.95 1806.85,944.965 1809,965.466 1811.15,985.466 1813.3,1004.98 1815.45,1024.01 
  1817.6,1042.57 1819.75,1060.69 1821.9,1078.36 1824.05,1095.59 1826.2,1112.41 1828.35,1128.81 1830.49,1144.81 1832.64,91.2119 1834.79,132.607 1836.94,172.99 
  1839.09,212.384 1841.24,250.815 1843.39,288.304 1845.54,324.876 1847.69,360.552 1849.84,395.355 1851.99,429.306 1854.14,462.426 1856.29,494.735 1858.43,526.253 
  1860.58,557 1862.73,586.995 1864.88,616.256 1867.03,644.801 1869.18,672.648 1871.33,699.814 1873.48,726.315 1875.63,752.168 1877.78,777.388 1879.93,801.991 
  1882.08,825.991 1884.23,849.403 1886.37,872.243 1888.52,894.523 1890.67,916.258 1892.82,937.461 1894.97,958.145 1897.12,978.323 1899.27,998.007 1901.42,1017.21 
  1903.57,1035.94 1905.72,1054.22 1907.87,1072.05 1910.02,1089.44 1912.17,1106.4 1914.31,1122.95 1916.46,1139.1 1918.61,1154.85 1920.76,117.822 1922.91,158.567 
  1925.06,198.314 1927.21,237.089 1929.36,274.914 1931.51,311.814 1933.66,347.81 1935.81,382.924 1937.96,417.179 1940.11,450.596 1942.25,483.195 1944.4,514.996 
  1946.55,546.018 1948.7,576.282 1950.85,605.805 1953,634.606 1955.15,662.703 1957.3,690.112 1959.45,716.85 1961.6,742.934 1963.75,768.38 1965.9,793.203 
  1968.05,817.418 1970.19,841.04 1972.34,864.084 1974.49,886.564 1976.64,908.494 1978.79,929.887 1980.94,950.757 1983.09,971.116 1985.24,990.977 1987.39,1010.35 
  1989.54,1029.25 1991.69,1047.69 1993.84,1065.68 1995.99,1083.23 1998.13,1100.34 2000.28,1117.04 2002.43,1133.33 2004.58,1149.22 2006.73,102.906 2008.88,144.015 
  2011.03,184.119 2013.18,223.241 2015.33,261.406 2017.48,298.636 2019.63,334.955 2021.78,370.384 2023.92,404.946 2026.07,438.662 2028.22,471.553 2030.37,503.639 
  2032.52,534.939 2034.67,565.474 2036.82,595.261 2038.97,624.32 2041.12,652.668 2043.27,680.323 2045.42,707.301 2047.57,733.619 2049.72,759.293 2051.86,784.338 
  2054.01,808.771 2056.16,832.605 2058.31,855.856 2060.46,878.537 2062.61,900.663 2064.76,922.248 2066.91,943.304 2069.06,963.845 2071.21,983.884 2073.36,1003.43 
  2075.51,1022.5 2077.66,1041.11 2079.8,1059.25 2081.95,1076.96 2084.1,1094.23 2086.25,1111.08 2088.4,1127.51 2090.55,1143.55 2092.7,87.8555 2094.85,129.333 
  2097,169.795 2099.15,209.268 2101.3,247.774 2103.45,285.338 2105.6,321.983 2107.74,357.73 2109.89,392.602 2112.04,426.62 2114.19,459.805 2116.34,492.179 
  2118.49,523.76 2120.64,554.568 2122.79,584.622 2124.94,613.942 2127.09,642.544 2129.24,670.446 2131.39,697.666 2133.54,724.219 2135.68,750.123 2137.83,775.392 
  2139.98,800.043 2142.13,824.091 2144.28,847.55 2146.43,870.435 2148.58,892.759 2150.73,914.538 2152.88,935.783 2155.03,956.509 2157.18,976.727 2159.33,996.451 
  2161.48,1015.69 2163.62,1034.46 2165.77,1052.77 2167.92,1070.64 2170.07,1088.06 2172.22,1105.06 2174.37,1121.64 2176.52,1137.82 2178.67,1153.6 2180.82,114.519 
  2182.97,155.345 2185.12,195.171 2187.27,234.023 2189.42,271.923 2191.56,308.896 2193.71,344.964 2195.86,380.148 2198.01,414.471 2200.16,447.954 2202.31,480.617 
  2204.46,512.481 2206.61,543.565 2208.76,573.889 2210.91,603.471 2213.06,632.329 2215.21,660.481 2217.35,687.944 2219.5,714.736 2221.65,740.872 2223.8,766.368 
  2225.95,791.241 2228.1,815.504 2230.25,839.173 2232.4,862.263 2234.55,884.788 2236.7,906.761 2238.85,928.196 2241,949.107 2243.15,969.506 2245.29,989.406 
  2247.44,1008.82 2249.59,1027.76 2251.74,1046.23 2253.89,1064.26 2256.04,1081.84 2258.19,1098.99 2260.34,1115.72 2262.49,1132.04 2264.64,1147.97 2266.79,99.5729 
  2268.94,140.763 2271.09,180.946 2273.23,220.146 2275.38,258.386 2277.53,295.69 2279.68,332.081 2281.83,367.581 2283.98,402.212 2286.13,435.995 2288.28,468.951 
  2290.43,501.1 2292.58,532.463 2294.73,563.058 2296.88,592.905 2299.03,622.022 2301.17,650.426 2303.32,678.136 2305.47,705.167 2307.62,731.537 2309.77,757.262 
  2311.92,782.356 2314.07,806.837 2316.22,830.718 2318.37,854.015 2320.52,876.741 2322.67,898.912 2324.82,920.539 2326.97,941.638 2329.11,962.22 2331.26,982.299 
  2333.41,1001.89 2335.56,1020.99 2337.71,1039.63 2339.86,1057.82 2342.01,1075.56 2344.16,1092.86 2346.31,1109.74 2348.46,1126.21 2350.61,1142.28 2352.76,1157.95 
  
  "/>
<path clip-path="url(#clip930)" d="
M1931.83 196.789 L2280.47 196.789 L2280.47 93.1086 L1931.83 93.1086  Z
  " fill="#ffffff" fill-rule="evenodd" fill-opacity="1"/>
<polyline clip-path="url(#clip930)" style="stroke:#000000; stroke-linecap:butt; stroke-linejoin:round; stroke-width:4; stroke-opacity:1; fill:none" points="
  1931.83,196.789 2280.47,196.789 2280.47,93.1086 1931.83,93.1086 1931.83,196.789 
  "/>
<polyline clip-path="url(#clip930)" style="stroke:#009af9; stroke-linecap:butt; stroke-linejoin:round; stroke-width:4; stroke-opacity:1; fill:none" points="
  1955.93,144.949 2100.5,144.949 
  "/>
<path clip-path="url(#clip930)" d="M2124.6 151.997 L2124.6 136.303 L2128.85 136.303 L2128.85 151.835 Q2128.85 155.516 2130.29 157.368 Q2131.73 159.196 2134.6 159.196 Q2138.04 159.196 2140.04 156.997 Q2142.05 154.798 2142.05 151.002 L2142.05 136.303 L2146.31 136.303 L2146.31 162.229 L2142.05 162.229 L2142.05 158.247 Q2140.5 160.608 2138.44 161.766 Q2136.4 162.9 2133.69 162.9 Q2129.23 162.9 2126.91 160.122 Q2124.6 157.344 2124.6 151.997 M2135.31 135.678 L2135.31 135.678 Z" fill="#000000" fill-rule="evenodd" fill-opacity="1" /><path clip-path="url(#clip930)" d="M2156.49 158.293 L2164.13 158.293 L2164.13 131.928 L2155.82 133.595 L2155.82 129.335 L2164.09 127.669 L2168.76 127.669 L2168.76 158.293 L2176.4 158.293 L2176.4 162.229 L2156.49 162.229 L2156.49 158.293 Z" fill="#000000" fill-rule="evenodd" fill-opacity="1" /><path clip-path="url(#clip930)" d="M2195.47 126.257 Q2192.37 131.581 2190.87 136.789 Q2189.36 141.997 2189.36 147.344 Q2189.36 152.692 2190.87 157.946 Q2192.4 163.178 2195.47 168.479 L2191.77 168.479 Q2188.3 163.039 2186.56 157.784 Q2184.85 152.53 2184.85 147.344 Q2184.85 142.182 2186.56 136.951 Q2188.28 131.72 2191.77 126.257 L2195.47 126.257 Z" fill="#000000" fill-rule="evenodd" fill-opacity="1" /><path clip-path="url(#clip930)" d="M2207.95 128.942 L2207.95 136.303 L2216.72 136.303 L2216.72 139.613 L2207.95 139.613 L2207.95 153.687 Q2207.95 156.858 2208.81 157.761 Q2209.69 158.664 2212.35 158.664 L2216.72 158.664 L2216.72 162.229 L2212.35 162.229 Q2207.42 162.229 2205.54 160.4 Q2203.67 158.548 2203.67 153.687 L2203.67 139.613 L2200.54 139.613 L2200.54 136.303 L2203.67 136.303 L2203.67 128.942 L2207.95 128.942 Z" fill="#000000" fill-rule="evenodd" fill-opacity="1" /><path clip-path="url(#clip930)" d="M2221.66 126.257 L2225.36 126.257 Q2228.83 131.72 2230.54 136.951 Q2232.28 142.182 2232.28 147.344 Q2232.28 152.53 2230.54 157.784 Q2228.83 163.039 2225.36 168.479 L2221.66 168.479 Q2224.73 163.178 2226.24 157.946 Q2227.77 152.692 2227.77 147.344 Q2227.77 141.997 2226.24 136.789 Q2224.73 131.581 2221.66 126.257 Z" fill="#000000" fill-rule="evenodd" fill-opacity="1" /></svg>
