<?xml version="1.0" encoding="utf-8"?>
<svg xmlns="http://www.w3.org/2000/svg" xmlns:xlink="http://www.w3.org/1999/xlink" width="600" height="400" viewBox="0 0 2400 1600">
<defs>
  <clipPath id="clip650">
    <rect x="0" y="0" width="2400" height="1600"/>
  </clipPath>
</defs>
<path clip-path="url(#clip650)" d="
M0 1600 L2400 1600 L2400 0 L0 0  Z
  " fill="#ffffff" fill-rule="evenodd" fill-opacity="1"/>
<defs>
  <clipPath id="clip651">
    <rect x="480" y="0" width="1681" height="1600"/>
  </clipPath>
</defs>
<defs>
  <clipPath id="clip652">
    <rect x="141" y="47" width="2212" height="1440"/>
  </clipPath>
</defs>
<path clip-path="url(#clip652)" d="
M1179 806.848 L1174.55 779.94 L1198.6 770.554 L1232.74 775.445 L1229.06 800.68 L1213.14 817.377 L1179 806.848  Z
  " fill="#ffffff" fill-rule="evenodd" fill-opacity="1"/>
<polyline clip-path="url(#clip652)" style="stroke:#000000; stroke-linecap:butt; stroke-linejoin:round; stroke-width:2; stroke-opacity:0.1; fill:none" points="
  861.94,1236.69 1261.37,865.789 
  "/>
<polyline clip-path="url(#clip652)" style="stroke:#000000; stroke-linecap:butt; stroke-linejoin:round; stroke-width:2; stroke-opacity:0.1; fill:none" points="
  1261.37,865.789 1263.33,230.898 
  "/>
<polyline clip-path="url(#clip652)" style="stroke:#000000; stroke-linecap:butt; stroke-linejoin:round; stroke-width:2; stroke-opacity:0.1; fill:none" points="
  1025.66,1303.04 1404.88,909.745 
  "/>
<polyline clip-path="url(#clip652)" style="stroke:#000000; stroke-linecap:butt; stroke-linejoin:round; stroke-width:2; stroke-opacity:0.1; fill:none" points="
  1404.88,909.745 1427.52,261.82 
  "/>
<polyline clip-path="url(#clip652)" style="stroke:#000000; stroke-linecap:butt; stroke-linejoin:round; stroke-width:2; stroke-opacity:0.1; fill:none" points="
  1200.5,1373.89 1556.24,956.107 
  "/>
<polyline clip-path="url(#clip652)" style="stroke:#000000; stroke-linecap:butt; stroke-linejoin:round; stroke-width:2; stroke-opacity:0.1; fill:none" points="
  1556.24,956.107 1602.03,294.686 
  "/>
<polyline clip-path="url(#clip652)" style="stroke:#000000; stroke-linecap:butt; stroke-linejoin:round; stroke-width:2; stroke-opacity:0.1; fill:none" points="
  1387.62,1449.71 1716.13,1005.08 
  "/>
<polyline clip-path="url(#clip652)" style="stroke:#000000; stroke-linecap:butt; stroke-linejoin:round; stroke-width:2; stroke-opacity:0.1; fill:none" points="
  1716.13,1005.08 1787.87,329.686 
  "/>
<polyline clip-path="url(#clip650)" style="stroke:#000000; stroke-linecap:butt; stroke-linejoin:round; stroke-width:4; stroke-opacity:1; fill:none" points="
  713.703,1176.62 1410.89,1459.14 
  "/>
<polyline clip-path="url(#clip650)" style="stroke:#000000; stroke-linecap:butt; stroke-linejoin:round; stroke-width:4; stroke-opacity:1; fill:none" points="
  861.94,1236.69 867.796,1231.26 
  "/>
<polyline clip-path="url(#clip650)" style="stroke:#000000; stroke-linecap:butt; stroke-linejoin:round; stroke-width:4; stroke-opacity:1; fill:none" points="
  1025.66,1303.04 1031.25,1297.24 
  "/>
<polyline clip-path="url(#clip650)" style="stroke:#000000; stroke-linecap:butt; stroke-linejoin:round; stroke-width:4; stroke-opacity:1; fill:none" points="
  1200.5,1373.89 1205.78,1367.69 
  "/>
<polyline clip-path="url(#clip650)" style="stroke:#000000; stroke-linecap:butt; stroke-linejoin:round; stroke-width:4; stroke-opacity:1; fill:none" points="
  1387.62,1449.71 1392.53,1443.07 
  "/>
<path clip-path="url(#clip650)" d="M761.58 1264.67 L791.256 1264.67 L791.256 1268.6 L761.58 1268.6 L761.58 1264.67 Z" fill="#000000" fill-rule="evenodd" fill-opacity="1" /><path clip-path="url(#clip650)" d="M802.158 1277.56 L809.797 1277.56 L809.797 1251.19 L801.487 1252.86 L801.487 1248.6 L809.751 1246.94 L814.427 1246.94 L814.427 1277.56 L822.066 1277.56 L822.066 1281.5 L802.158 1281.5 L802.158 1277.56 Z" fill="#000000" fill-rule="evenodd" fill-opacity="1" /><path clip-path="url(#clip650)" d="M841.51 1250.01 Q837.899 1250.01 836.07 1253.58 Q834.265 1257.12 834.265 1264.25 Q834.265 1271.36 836.07 1274.92 Q837.899 1278.46 841.51 1278.46 Q845.144 1278.46 846.95 1274.92 Q848.778 1271.36 848.778 1264.25 Q848.778 1257.12 846.95 1253.58 Q845.144 1250.01 841.51 1250.01 M841.51 1246.31 Q847.32 1246.31 850.376 1250.92 Q853.454 1255.5 853.454 1264.25 Q853.454 1272.98 850.376 1277.58 Q847.32 1282.17 841.51 1282.17 Q835.7 1282.17 832.621 1277.58 Q829.565 1272.98 829.565 1264.25 Q829.565 1255.5 832.621 1250.92 Q835.7 1246.31 841.51 1246.31 Z" fill="#000000" fill-rule="evenodd" fill-opacity="1" /><path clip-path="url(#clip650)" d="M1005.23 1316.36 Q1001.62 1316.36 999.79 1319.92 Q997.984 1323.46 997.984 1330.59 Q997.984 1337.7 999.79 1341.26 Q1001.62 1344.81 1005.23 1344.81 Q1008.86 1344.81 1010.67 1341.26 Q1012.5 1337.7 1012.5 1330.59 Q1012.5 1323.46 1010.67 1319.92 Q1008.86 1316.36 1005.23 1316.36 M1005.23 1312.65 Q1011.04 1312.65 1014.1 1317.26 Q1017.17 1321.84 1017.17 1330.59 Q1017.17 1339.32 1014.1 1343.93 Q1011.04 1348.51 1005.23 1348.51 Q999.42 1348.51 996.341 1343.93 Q993.285 1339.32 993.285 1330.59 Q993.285 1321.84 996.341 1317.26 Q999.42 1312.65 1005.23 1312.65 Z" fill="#000000" fill-rule="evenodd" fill-opacity="1" /><path clip-path="url(#clip650)" d="M1140.72 1414.75 L1148.35 1414.75 L1148.35 1388.39 L1140.04 1390.05 L1140.04 1385.79 L1148.31 1384.13 L1152.98 1384.13 L1152.98 1414.75 L1160.62 1414.75 L1160.62 1418.69 L1140.72 1418.69 L1140.72 1414.75 Z" fill="#000000" fill-rule="evenodd" fill-opacity="1" /><path clip-path="url(#clip650)" d="M1180.07 1387.21 Q1176.46 1387.21 1174.63 1390.77 Q1172.82 1394.31 1172.82 1401.44 Q1172.82 1408.55 1174.63 1412.11 Q1176.46 1415.65 1180.07 1415.65 Q1183.7 1415.65 1185.51 1412.11 Q1187.34 1408.55 1187.34 1401.44 Q1187.34 1394.31 1185.51 1390.77 Q1183.7 1387.21 1180.07 1387.21 M1180.07 1383.5 Q1185.88 1383.5 1188.93 1388.11 Q1192.01 1392.69 1192.01 1401.44 Q1192.01 1410.17 1188.93 1414.77 Q1185.88 1419.36 1180.07 1419.36 Q1174.26 1419.36 1171.18 1414.77 Q1168.12 1410.17 1168.12 1401.44 Q1168.12 1392.69 1171.18 1388.11 Q1174.26 1383.5 1180.07 1383.5 Z" fill="#000000" fill-rule="evenodd" fill-opacity="1" /><path clip-path="url(#clip650)" d="M1331.06 1490.58 L1347.38 1490.58 L1347.38 1494.52 L1325.43 1494.52 L1325.43 1490.58 Q1328.1 1487.83 1332.68 1483.2 Q1337.29 1478.54 1338.47 1477.2 Q1340.71 1474.68 1341.59 1472.94 Q1342.49 1471.18 1342.49 1469.49 Q1342.49 1466.74 1340.55 1465 Q1338.63 1463.27 1335.53 1463.27 Q1333.33 1463.27 1330.87 1464.03 Q1328.44 1464.79 1325.67 1466.34 L1325.67 1461.62 Q1328.49 1460.49 1330.94 1459.91 Q1333.4 1459.33 1335.43 1459.33 Q1340.8 1459.33 1344 1462.02 Q1347.19 1464.7 1347.19 1469.19 Q1347.19 1471.32 1346.38 1473.24 Q1345.6 1475.14 1343.49 1477.73 Q1342.91 1478.4 1339.81 1481.62 Q1336.71 1484.82 1331.06 1490.58 Z" fill="#000000" fill-rule="evenodd" fill-opacity="1" /><path clip-path="url(#clip650)" d="M1367.19 1463.03 Q1363.58 1463.03 1361.75 1466.6 Q1359.95 1470.14 1359.95 1477.27 Q1359.95 1484.38 1361.75 1487.94 Q1363.58 1491.48 1367.19 1491.48 Q1370.83 1491.48 1372.63 1487.94 Q1374.46 1484.38 1374.46 1477.27 Q1374.46 1470.14 1372.63 1466.6 Q1370.83 1463.03 1367.19 1463.03 M1367.19 1459.33 Q1373 1459.33 1376.06 1463.94 Q1379.14 1468.52 1379.14 1477.27 Q1379.14 1486 1376.06 1490.6 Q1373 1495.19 1367.19 1495.19 Q1361.38 1495.19 1358.3 1490.6 Q1355.25 1486 1355.25 1477.27 Q1355.25 1468.52 1358.3 1463.94 Q1361.38 1459.33 1367.19 1459.33 Z" fill="#000000" fill-rule="evenodd" fill-opacity="1" /><polyline clip-path="url(#clip652)" style="stroke:#000000; stroke-linecap:butt; stroke-linejoin:round; stroke-width:2; stroke-opacity:0.1; fill:none" points="
  1454.41,1399.14 768.231,1130.63 
  "/>
<polyline clip-path="url(#clip652)" style="stroke:#000000; stroke-linecap:butt; stroke-linejoin:round; stroke-width:2; stroke-opacity:0.1; fill:none" points="
  768.231,1130.63 688.918,420.769 
  "/>
<polyline clip-path="url(#clip652)" style="stroke:#000000; stroke-linecap:butt; stroke-linejoin:round; stroke-width:2; stroke-opacity:0.1; fill:none" points="
  1522.98,1304.6 854.894,1057.53 
  "/>
<polyline clip-path="url(#clip652)" style="stroke:#000000; stroke-linecap:butt; stroke-linejoin:round; stroke-width:2; stroke-opacity:0.1; fill:none" points="
  854.894,1057.53 792.802,367.498 
  "/>
<polyline clip-path="url(#clip652)" style="stroke:#000000; stroke-linecap:butt; stroke-linejoin:round; stroke-width:2; stroke-opacity:0.1; fill:none" points="
  1585.86,1217.91 935.182,989.806 
  "/>
<polyline clip-path="url(#clip652)" style="stroke:#000000; stroke-linecap:butt; stroke-linejoin:round; stroke-width:2; stroke-opacity:0.1; fill:none" points="
  935.182,989.806 887.886,318.739 
  "/>
<polyline clip-path="url(#clip652)" style="stroke:#000000; stroke-linecap:butt; stroke-linejoin:round; stroke-width:2; stroke-opacity:0.1; fill:none" points="
  1643.73,1138.13 1009.77,926.888 
  "/>
<polyline clip-path="url(#clip652)" style="stroke:#000000; stroke-linecap:butt; stroke-linejoin:round; stroke-width:2; stroke-opacity:0.1; fill:none" points="
  1009.77,926.888 975.242,273.943 
  "/>
<polyline clip-path="url(#clip652)" style="stroke:#000000; stroke-linecap:butt; stroke-linejoin:round; stroke-width:2; stroke-opacity:0.1; fill:none" points="
  1697.16,1064.46 1079.25,868.282 
  "/>
<polyline clip-path="url(#clip652)" style="stroke:#000000; stroke-linecap:butt; stroke-linejoin:round; stroke-width:2; stroke-opacity:0.1; fill:none" points="
  1079.25,868.282 1055.78,232.645 
  "/>
<polyline clip-path="url(#clip650)" style="stroke:#000000; stroke-linecap:butt; stroke-linejoin:round; stroke-width:4; stroke-opacity:1; fill:none" points="
  1410.89,1459.14 1735.86,1011.12 
  "/>
<polyline clip-path="url(#clip650)" style="stroke:#000000; stroke-linecap:butt; stroke-linejoin:round; stroke-width:4; stroke-opacity:1; fill:none" points="
  1454.41,1399.14 1445.04,1395.47 
  "/>
<polyline clip-path="url(#clip650)" style="stroke:#000000; stroke-linecap:butt; stroke-linejoin:round; stroke-width:4; stroke-opacity:1; fill:none" points="
  1522.98,1304.6 1513.91,1301.24 
  "/>
<polyline clip-path="url(#clip650)" style="stroke:#000000; stroke-linecap:butt; stroke-linejoin:round; stroke-width:4; stroke-opacity:1; fill:none" points="
  1585.86,1217.91 1577.07,1214.82 
  "/>
<polyline clip-path="url(#clip650)" style="stroke:#000000; stroke-linecap:butt; stroke-linejoin:round; stroke-width:4; stroke-opacity:1; fill:none" points="
  1643.73,1138.13 1635.2,1135.28 
  "/>
<polyline clip-path="url(#clip650)" style="stroke:#000000; stroke-linecap:butt; stroke-linejoin:round; stroke-width:4; stroke-opacity:1; fill:none" points="
  1697.16,1064.46 1688.88,1061.83 
  "/>
<path clip-path="url(#clip650)" d="M1475.26 1419.46 L1504.93 1419.46 L1504.93 1423.39 L1475.26 1423.39 L1475.26 1419.46 Z" fill="#000000" fill-rule="evenodd" fill-opacity="1" /><path clip-path="url(#clip650)" d="M1519.05 1432.35 L1535.37 1432.35 L1535.37 1436.29 L1513.43 1436.29 L1513.43 1432.35 Q1516.09 1429.6 1520.67 1424.97 Q1525.28 1420.32 1526.46 1418.97 Q1528.71 1416.45 1529.59 1414.71 Q1530.49 1412.95 1530.49 1411.27 Q1530.49 1408.51 1528.54 1406.77 Q1526.62 1405.04 1523.52 1405.04 Q1521.32 1405.04 1518.87 1405.8 Q1516.44 1406.57 1513.66 1408.12 L1513.66 1403.39 Q1516.48 1402.26 1518.94 1401.68 Q1521.39 1401.1 1523.43 1401.1 Q1528.8 1401.1 1531.99 1403.79 Q1535.19 1406.47 1535.19 1410.96 Q1535.19 1413.09 1534.38 1415.02 Q1533.59 1416.91 1531.48 1419.51 Q1530.91 1420.18 1527.8 1423.39 Q1524.7 1426.59 1519.05 1432.35 Z" fill="#000000" fill-rule="evenodd" fill-opacity="1" /><path clip-path="url(#clip650)" d="M1555.19 1404.81 Q1551.58 1404.81 1549.75 1408.37 Q1547.94 1411.91 1547.94 1419.04 Q1547.94 1426.15 1549.75 1429.71 Q1551.58 1433.26 1555.19 1433.26 Q1558.82 1433.26 1560.63 1429.71 Q1562.46 1426.15 1562.46 1419.04 Q1562.46 1411.91 1560.63 1408.37 Q1558.82 1404.81 1555.19 1404.81 M1555.19 1401.1 Q1561 1401.1 1564.05 1405.71 Q1567.13 1410.29 1567.13 1419.04 Q1567.13 1427.77 1564.05 1432.38 Q1561 1436.96 1555.19 1436.96 Q1549.38 1436.96 1546.3 1432.38 Q1543.24 1427.77 1543.24 1419.04 Q1543.24 1410.29 1546.3 1405.71 Q1549.38 1401.1 1555.19 1401.1 Z" fill="#000000" fill-rule="evenodd" fill-opacity="1" /><path clip-path="url(#clip650)" d="M1543.83 1324.92 L1573.51 1324.92 L1573.51 1328.86 L1543.83 1328.86 L1543.83 1324.92 Z" fill="#000000" fill-rule="evenodd" fill-opacity="1" /><path clip-path="url(#clip650)" d="M1584.41 1337.81 L1592.05 1337.81 L1592.05 1311.45 L1583.74 1313.11 L1583.74 1308.86 L1592 1307.19 L1596.68 1307.19 L1596.68 1337.81 L1604.32 1337.81 L1604.32 1341.75 L1584.41 1341.75 L1584.41 1337.81 Z" fill="#000000" fill-rule="evenodd" fill-opacity="1" /><path clip-path="url(#clip650)" d="M1623.76 1310.27 Q1620.15 1310.27 1618.32 1313.83 Q1616.52 1317.37 1616.52 1324.5 Q1616.52 1331.61 1618.32 1335.17 Q1620.15 1338.72 1623.76 1338.72 Q1627.4 1338.72 1629.2 1335.17 Q1631.03 1331.61 1631.03 1324.5 Q1631.03 1317.37 1629.2 1313.83 Q1627.4 1310.27 1623.76 1310.27 M1623.76 1306.56 Q1629.57 1306.56 1632.63 1311.17 Q1635.71 1315.75 1635.71 1324.5 Q1635.71 1333.23 1632.63 1337.84 Q1629.57 1342.42 1623.76 1342.42 Q1617.95 1342.42 1614.87 1337.84 Q1611.82 1333.23 1611.82 1324.5 Q1611.82 1315.75 1614.87 1311.17 Q1617.95 1306.56 1623.76 1306.56 Z" fill="#000000" fill-rule="evenodd" fill-opacity="1" /><path clip-path="url(#clip650)" d="M1618.66 1223.58 Q1615.04 1223.58 1613.22 1227.14 Q1611.41 1230.68 1611.41 1237.81 Q1611.41 1244.92 1613.22 1248.48 Q1615.04 1252.03 1618.66 1252.03 Q1622.29 1252.03 1624.1 1248.48 Q1625.92 1244.92 1625.92 1237.81 Q1625.92 1230.68 1624.1 1227.14 Q1622.29 1223.58 1618.66 1223.58 M1618.66 1219.87 Q1624.47 1219.87 1627.52 1224.48 Q1630.6 1229.06 1630.6 1237.81 Q1630.6 1246.54 1627.52 1251.15 Q1624.47 1255.73 1618.66 1255.73 Q1612.85 1255.73 1609.77 1251.15 Q1606.71 1246.54 1606.71 1237.81 Q1606.71 1229.06 1609.77 1224.48 Q1612.85 1219.87 1618.66 1219.87 Z" fill="#000000" fill-rule="evenodd" fill-opacity="1" /><path clip-path="url(#clip650)" d="M1665.25 1171.34 L1672.89 1171.34 L1672.89 1144.98 L1664.58 1146.65 L1664.58 1142.39 L1672.84 1140.72 L1677.52 1140.72 L1677.52 1171.34 L1685.16 1171.34 L1685.16 1175.28 L1665.25 1175.28 L1665.25 1171.34 Z" fill="#000000" fill-rule="evenodd" fill-opacity="1" /><path clip-path="url(#clip650)" d="M1704.6 1143.8 Q1700.99 1143.8 1699.16 1147.36 Q1697.36 1150.9 1697.36 1158.03 Q1697.36 1165.14 1699.16 1168.71 Q1700.99 1172.25 1704.6 1172.25 Q1708.24 1172.25 1710.04 1168.71 Q1711.87 1165.14 1711.87 1158.03 Q1711.87 1150.9 1710.04 1147.36 Q1708.24 1143.8 1704.6 1143.8 M1704.6 1140.09 Q1710.41 1140.09 1713.47 1144.7 Q1716.55 1149.28 1716.55 1158.03 Q1716.55 1166.76 1713.47 1171.37 Q1710.41 1175.95 1704.6 1175.95 Q1698.79 1175.95 1695.71 1171.37 Q1692.66 1166.76 1692.66 1158.03 Q1692.66 1149.28 1695.71 1144.7 Q1698.79 1140.09 1704.6 1140.09 Z" fill="#000000" fill-rule="evenodd" fill-opacity="1" /><path clip-path="url(#clip650)" d="M1723.63 1097.68 L1739.95 1097.68 L1739.95 1101.62 L1718.01 1101.62 L1718.01 1097.68 Q1720.67 1094.93 1725.25 1090.3 Q1729.86 1085.64 1731.04 1084.3 Q1733.29 1081.78 1734.17 1080.04 Q1735.07 1078.28 1735.07 1076.59 Q1735.07 1073.84 1733.13 1072.1 Q1731.2 1070.37 1728.1 1070.37 Q1725.9 1070.37 1723.45 1071.13 Q1721.02 1071.89 1718.24 1073.44 L1718.24 1068.72 Q1721.07 1067.59 1723.52 1067.01 Q1725.97 1066.43 1728.01 1066.43 Q1733.38 1066.43 1736.57 1069.12 Q1739.77 1071.8 1739.77 1076.29 Q1739.77 1078.42 1738.96 1080.34 Q1738.17 1082.24 1736.06 1084.83 Q1735.49 1085.5 1732.38 1088.72 Q1729.28 1091.92 1723.63 1097.68 Z" fill="#000000" fill-rule="evenodd" fill-opacity="1" /><path clip-path="url(#clip650)" d="M1759.77 1070.13 Q1756.16 1070.13 1754.33 1073.7 Q1752.52 1077.24 1752.52 1084.37 Q1752.52 1091.48 1754.33 1095.04 Q1756.16 1098.58 1759.77 1098.58 Q1763.4 1098.58 1765.21 1095.04 Q1767.04 1091.48 1767.04 1084.37 Q1767.04 1077.24 1765.21 1073.7 Q1763.4 1070.13 1759.77 1070.13 M1759.77 1066.43 Q1765.58 1066.43 1768.63 1071.04 Q1771.71 1075.62 1771.71 1084.37 Q1771.71 1093.1 1768.63 1097.7 Q1765.58 1102.29 1759.77 1102.29 Q1753.96 1102.29 1750.88 1097.7 Q1747.82 1093.1 1747.82 1084.37 Q1747.82 1075.62 1750.88 1071.04 Q1753.96 1066.43 1759.77 1066.43 Z" fill="#000000" fill-rule="evenodd" fill-opacity="1" /><polyline clip-path="url(#clip652)" style="stroke:#000000; stroke-linecap:butt; stroke-linejoin:round; stroke-width:2; stroke-opacity:0.1; fill:none" points="
  711.497,1159.09 1129.54,809.958 
  "/>
<polyline clip-path="url(#clip652)" style="stroke:#000000; stroke-linecap:butt; stroke-linejoin:round; stroke-width:2; stroke-opacity:0.1; fill:none" points="
  1129.54,809.958 1737.7,994.447 
  "/>
<polyline clip-path="url(#clip652)" style="stroke:#000000; stroke-linecap:butt; stroke-linejoin:round; stroke-width:2; stroke-opacity:0.1; fill:none" points="
  695.768,1034.05 1126.71,699.561 
  "/>
<polyline clip-path="url(#clip652)" style="stroke:#000000; stroke-linecap:butt; stroke-linejoin:round; stroke-width:2; stroke-opacity:0.1; fill:none" points="
  1126.71,699.561 1750.85,875.873 
  "/>
<polyline clip-path="url(#clip652)" style="stroke:#000000; stroke-linecap:butt; stroke-linejoin:round; stroke-width:2; stroke-opacity:0.1; fill:none" points="
  679.086,901.442 1123.76,583.746 
  "/>
<polyline clip-path="url(#clip652)" style="stroke:#000000; stroke-linecap:butt; stroke-linejoin:round; stroke-width:2; stroke-opacity:0.1; fill:none" points="
  1123.76,583.746 1764.72,750.767 
  "/>
<polyline clip-path="url(#clip652)" style="stroke:#000000; stroke-linecap:butt; stroke-linejoin:round; stroke-width:2; stroke-opacity:0.1; fill:none" points="
  661.364,760.564 1120.65,462.102 
  "/>
<polyline clip-path="url(#clip652)" style="stroke:#000000; stroke-linecap:butt; stroke-linejoin:round; stroke-width:2; stroke-opacity:0.1; fill:none" points="
  1120.65,462.102 1779.37,618.575 
  "/>
<polyline clip-path="url(#clip652)" style="stroke:#000000; stroke-linecap:butt; stroke-linejoin:round; stroke-width:2; stroke-opacity:0.1; fill:none" points="
  642.501,610.615 1117.38,334.18 
  "/>
<polyline clip-path="url(#clip652)" style="stroke:#000000; stroke-linecap:butt; stroke-linejoin:round; stroke-width:2; stroke-opacity:0.1; fill:none" points="
  1117.38,334.18 1794.88,478.677 
  "/>
<polyline clip-path="url(#clip650)" style="stroke:#000000; stroke-linecap:butt; stroke-linejoin:round; stroke-width:4; stroke-opacity:1; fill:none" points="
  713.703,1176.62 622.88,454.634 
  "/>
<polyline clip-path="url(#clip650)" style="stroke:#000000; stroke-linecap:butt; stroke-linejoin:round; stroke-width:4; stroke-opacity:1; fill:none" points="
  711.497,1159.09 717.597,1154 
  "/>
<polyline clip-path="url(#clip650)" style="stroke:#000000; stroke-linecap:butt; stroke-linejoin:round; stroke-width:4; stroke-opacity:1; fill:none" points="
  695.768,1034.05 702.088,1029.14 
  "/>
<polyline clip-path="url(#clip650)" style="stroke:#000000; stroke-linecap:butt; stroke-linejoin:round; stroke-width:4; stroke-opacity:1; fill:none" points="
  679.086,901.442 685.644,896.757 
  "/>
<polyline clip-path="url(#clip650)" style="stroke:#000000; stroke-linecap:butt; stroke-linejoin:round; stroke-width:4; stroke-opacity:1; fill:none" points="
  661.364,760.564 668.177,756.137 
  "/>
<polyline clip-path="url(#clip650)" style="stroke:#000000; stroke-linecap:butt; stroke-linejoin:round; stroke-width:4; stroke-opacity:1; fill:none" points="
  642.501,610.615 649.588,606.49 
  "/>
<path clip-path="url(#clip650)" d="M670.753 1144.89 Q667.142 1144.89 665.313 1148.45 Q663.508 1152 663.508 1159.13 Q663.508 1166.23 665.313 1169.8 Q667.142 1173.34 670.753 1173.34 Q674.387 1173.34 676.193 1169.8 Q678.022 1166.23 678.022 1159.13 Q678.022 1152 676.193 1148.45 Q674.387 1144.89 670.753 1144.89 M670.753 1141.19 Q676.563 1141.19 679.619 1145.79 Q682.697 1150.38 682.697 1159.13 Q682.697 1167.85 679.619 1172.46 Q676.563 1177.04 670.753 1177.04 Q664.943 1177.04 661.864 1172.46 Q658.809 1167.85 658.809 1159.13 Q658.809 1150.38 661.864 1145.79 Q664.943 1141.19 670.753 1141.19 Z" fill="#000000" fill-rule="evenodd" fill-opacity="1" /><path clip-path="url(#clip650)" d="M615.672 1047.39 L623.31 1047.39 L623.31 1021.03 L615 1022.69 L615 1018.44 L623.264 1016.77 L627.94 1016.77 L627.94 1047.39 L635.579 1047.39 L635.579 1051.33 L615.672 1051.33 L615.672 1047.39 Z" fill="#000000" fill-rule="evenodd" fill-opacity="1" /><path clip-path="url(#clip650)" d="M655.023 1019.85 Q651.412 1019.85 649.583 1023.41 Q647.778 1026.95 647.778 1034.08 Q647.778 1041.19 649.583 1044.75 Q651.412 1048.3 655.023 1048.3 Q658.657 1048.3 660.463 1044.75 Q662.292 1041.19 662.292 1034.08 Q662.292 1026.95 660.463 1023.41 Q658.657 1019.85 655.023 1019.85 M655.023 1016.14 Q660.833 1016.14 663.889 1020.75 Q666.968 1025.33 666.968 1034.08 Q666.968 1042.81 663.889 1047.42 Q660.833 1052 655.023 1052 Q649.213 1052 646.134 1047.42 Q643.079 1042.81 643.079 1034.08 Q643.079 1025.33 646.134 1020.75 Q649.213 1016.14 655.023 1016.14 Z" fill="#000000" fill-rule="evenodd" fill-opacity="1" /><path clip-path="url(#clip650)" d="M602.208 914.787 L618.527 914.787 L618.527 918.722 L596.583 918.722 L596.583 914.787 Q599.245 912.032 603.828 907.403 Q608.435 902.75 609.615 901.407 Q611.861 898.884 612.74 897.148 Q613.643 895.389 613.643 893.699 Q613.643 890.944 611.699 889.208 Q609.777 887.472 606.675 887.472 Q604.476 887.472 602.023 888.236 Q599.592 889 596.814 890.551 L596.814 885.829 Q599.638 884.694 602.092 884.116 Q604.546 883.537 606.583 883.537 Q611.953 883.537 615.148 886.222 Q618.342 888.907 618.342 893.398 Q618.342 895.528 617.532 897.449 Q616.745 899.347 614.638 901.94 Q614.06 902.611 610.958 905.828 Q607.856 909.023 602.208 914.787 Z" fill="#000000" fill-rule="evenodd" fill-opacity="1" /><path clip-path="url(#clip650)" d="M638.342 887.241 Q634.731 887.241 632.902 890.805 Q631.097 894.347 631.097 901.477 Q631.097 908.583 632.902 912.148 Q634.731 915.69 638.342 915.69 Q641.976 915.69 643.782 912.148 Q645.61 908.583 645.61 901.477 Q645.61 894.347 643.782 890.805 Q641.976 887.241 638.342 887.241 M638.342 883.537 Q644.152 883.537 647.208 888.143 Q650.286 892.727 650.286 901.477 Q650.286 910.203 647.208 914.81 Q644.152 919.393 638.342 919.393 Q632.532 919.393 629.453 914.81 Q626.397 910.203 626.397 901.477 Q626.397 892.727 629.453 888.143 Q632.532 883.537 638.342 883.537 Z" fill="#000000" fill-rule="evenodd" fill-opacity="1" /><path clip-path="url(#clip650)" d="M594.625 759.21 Q597.981 759.927 599.856 762.196 Q601.754 764.464 601.754 767.798 Q601.754 772.913 598.236 775.714 Q594.717 778.515 588.236 778.515 Q586.06 778.515 583.745 778.075 Q581.454 777.659 579 776.802 L579 772.288 Q580.944 773.423 583.259 774.001 Q585.574 774.58 588.097 774.58 Q592.495 774.58 594.787 772.844 Q597.102 771.108 597.102 767.798 Q597.102 764.742 594.949 763.029 Q592.819 761.293 589 761.293 L584.972 761.293 L584.972 757.45 L589.185 757.45 Q592.634 757.45 594.463 756.085 Q596.291 754.696 596.291 752.103 Q596.291 749.441 594.393 748.029 Q592.518 746.594 589 746.594 Q587.079 746.594 584.879 747.011 Q582.68 747.427 580.042 748.307 L580.042 744.14 Q582.704 743.4 585.018 743.029 Q587.356 742.659 589.416 742.659 Q594.741 742.659 597.842 745.089 Q600.944 747.497 600.944 751.617 Q600.944 754.488 599.301 756.478 Q597.657 758.446 594.625 759.21 Z" fill="#000000" fill-rule="evenodd" fill-opacity="1" /><path clip-path="url(#clip650)" d="M620.62 746.363 Q617.009 746.363 615.18 749.927 Q613.375 753.469 613.375 760.599 Q613.375 767.705 615.18 771.27 Q617.009 774.812 620.62 774.812 Q624.254 774.812 626.06 771.27 Q627.888 767.705 627.888 760.599 Q627.888 753.469 626.06 749.927 Q624.254 746.363 620.62 746.363 M620.62 742.659 Q626.43 742.659 629.486 747.265 Q632.564 751.849 632.564 760.599 Q632.564 769.325 629.486 773.932 Q626.43 778.515 620.62 778.515 Q614.81 778.515 611.731 773.932 Q608.676 769.325 608.676 760.599 Q608.676 751.849 611.731 747.265 Q614.81 742.659 620.62 742.659 Z" fill="#000000" fill-rule="evenodd" fill-opacity="1" /><path clip-path="url(#clip650)" d="M574.442 597.409 L562.637 615.858 L574.442 615.858 L574.442 597.409 M573.216 593.335 L579.095 593.335 L579.095 615.858 L584.026 615.858 L584.026 619.747 L579.095 619.747 L579.095 627.895 L574.442 627.895 L574.442 619.747 L558.841 619.747 L558.841 615.233 L573.216 593.335 Z" fill="#000000" fill-rule="evenodd" fill-opacity="1" /><path clip-path="url(#clip650)" d="M601.757 596.414 Q598.146 596.414 596.317 599.979 Q594.512 603.521 594.512 610.65 Q594.512 617.757 596.317 621.321 Q598.146 624.863 601.757 624.863 Q605.391 624.863 607.197 621.321 Q609.026 617.757 609.026 610.65 Q609.026 603.521 607.197 599.979 Q605.391 596.414 601.757 596.414 M601.757 592.71 Q607.567 592.71 610.623 597.317 Q613.701 601.9 613.701 610.65 Q613.701 619.377 610.623 623.983 Q607.567 628.567 601.757 628.567 Q595.947 628.567 592.868 623.983 Q589.813 619.377 589.813 610.65 Q589.813 601.9 592.868 597.317 Q595.947 592.71 601.757 592.71 Z" fill="#000000" fill-rule="evenodd" fill-opacity="1" /><polyline clip-path="url(#clip652)" style="stroke:#009af9; stroke-linecap:butt; stroke-linejoin:round; stroke-width:4; stroke-opacity:1; fill:none" points="
  1244.37,1081.06 1244.37,1081.05 1244.38,1080.95 1244.51,1080.23 1244.86,1078.86 1245.53,1077.15 1246.8,1075.08 1249.07,1072.63 1253.08,1069.67 1260.09,1065.79 
  1272.66,1059.85 1294.79,1049.6 1331.59,1030.91 1393.92,993.11 1494.92,913.466 1635.37,753.555 1740.22,523.789 1645.31,443.375 1427.45,559.056 1261.23,665.656 
  1146.65,726.076 1094.08,748.137 1060.4,762.781 1039.3,770.725 1016.51,770.765 996.027,756.431 989.481,729.38 1007.07,714.12 1035.48,730.044 1041.93,757.105 
  1018.99,773.39 990.466,751.671 996.029,715.7 1028.24,719.929 1044.26,754.661 1024.07,775.464 988.87,752.407 995.7,713.199 1031.69,720.563 1045.8,758.664 
  1019.77,777.661 984.792,747.519 999.328,708.85 1037.25,723.685 1047.03,763.222 1014.1,778.994 981.251,742.623 1002.48,705.468 1041.47,725.813 1048.56,766.605 
  1010.61,780.445 978.406,740.098 1003.43,702.604 1043.98,725.554 1051.01,768.147 1010.78,783.297 976.072,741.534 1001.18,699.865 1044.37,721.984 1054.62,767.097 
  1016.09,787.812 975.088,748.588 994.584,697.957 1041.46,714.502 1058.89,762.503 1027.35,792.046 977.76,761.533 983.093,699.887 1033.35,703.651 1062.4,754.384 
  1041.92,792.4 984.691,775.96 970.368,709.88 1020.22,692.955 1063.17,740.905 1056.57,786.383 993.452,788.051 962.456,726.638 1006.52,685.853 1057.12,720.107 
  1067.94,773.873 1023.42,803.611 967.648,763.959 977.107,688.428 1036.29,693.402 1073.05,750.505 1057.46,798.946 991.07,796.049 954.13,723.147 1002.56,676.619 
  1061.02,712.578 1078.05,771.053 1041.31,812.494 974.984,788.255 955.284,698.271 1016.74,674.189 1075.37,728.95 1079.94,786.227 1021.94,818.711 956.887,772.097 
  965.746,675.778 1036.23,677.43 1085.53,741.817 1079.59,801.666 1002.39,819.807 941.616,750.493 978.848,661.233 1052.55,682.338 1093.88,750.339 1082.15,811.557 
  1011,830.17 938.012,760.687 964.876,658.256 1045.95,669.433 1097.73,738.831 1096.04,806.014 1020.3,840.661 941.223,784.17 948.912,657.779 1035.97,654.749 
  1101.77,728.338 1108.56,800.615 1052.37,850.575 966.117,825.416 917.154,690.085 999.287,633.482 1087.1,687.983 1120.79,763.171 1108.82,828.493 1050.37,863.145 
  949.742,825.089 906.669,683.877 996.112,621.507 1089.59,675.837 1130.46,753.592 1128.48,821.557 1083.83,870.005 996.01,870.029 892.95,751.491 938.361,616.923 
  1051.69,627.732 1126.52,707.752 1150.12,789.137 1132.88,855.591 1084.11,892.036 968.403,877.428 871.196,733.29 944.808,590.824 1065.55,616.849 1142.77,702.257 
  1170.65,782.903 1164.89,854.038 1138.06,896.047 1063.49,926.988 915.987,872.902 843.371,676.811 951.732,557.443 1085.22,601.293 1162.61,686.939 1195.27,757.074 
  1207.92,819.104 1209.02,852.667 1204.7,891.148 1194.85,921.455 1170.18,954.663 1102.18,986.092 959.435,970.404 796.457,794.306 851.481,524.876 1039.23,512.025 
  1176.72,618.227 1255.79,737.265 1282.21,792.223 1309.17,830.516 1348.67,846.131 1423.55,823.851 1540.4,714.813 1568.22,606.688 1463.78,621.048 1347.76,696.736 
  1291.33,756.57 1274.08,801.662 1278.18,844.122 1298.08,870.527 1348.43,879.04 1464.46,820.63 1586.6,672.566 1563.82,570.011 1419.12,630.858 1301.13,715.662 
  1247.74,778.585 1230.41,826.531 1224.19,865.381 1220.54,896.571 1216.27,923.78 1208.24,951.1 1191.18,977.813 1149.51,1005.03 1045.82,1020.26 857.044,939.39 
  752.232,642.051 903.673,463.209 1091.2,511.28 1200.21,607.107 1271.52,703.413 1305.48,760.128 1335.01,795.954 1373.55,808.919 1436.8,787.806 1522.15,703.479 
  1531.3,631.085 1450.82,646.565 1358.51,711.629 1322.13,762.543 1322.87,804.866 1360.4,825.3 1435.69,799.893 1538,693.084 1530.97,615.969 1424.84,654.21 
  1334.35,725.747 1302.88,782.885 1311.45,825.082 1350.13,843.16 1437.44,812.506 1551.77,691.4 1545.35,600.812 1424.59,645.148 1322.16,723.203 1282.77,785.067 
  1281.53,829.646 1301.84,861.272 1350.45,870.836 1466.43,812.781 1584.1,665.614 1548.97,577.383 1408.19,641.481 1301.08,721.572 1254.37,781.941 1240.7,829.364 
  1238.84,864.116 1241.47,894.244 1248.59,920.429 1264.75,941.793 1311.8,949.18 1413.42,906.318 1581.91,747.192 1657.49,541.03 1517.52,546.432 1337.38,655.152 
  1239.86,722.989 1180.84,776.5 1149.8,818.248 1121.01,851.983 1074.09,877.573 993.83,871.635 894.735,765.276 916.337,630.783 1023.53,611.789 1113.36,683.476 
  1148.95,761.735 1148.63,827.274 1118.01,876.923 1048.47,901.185 917.057,839.561 872.199,667.686 985.848,583.463 1097.78,640.187 1157.26,725.652 1175.16,795.144 
  1167.92,858.334 1141.94,899.324 1072.27,930.999 926.177,887.485 836.705,699.277 931.476,556.379 1069.93,585.596 1157.06,671.128 1196.69,746.524 1213.56,815.06 
  1216.53,856.014 1215.2,890.287 1209.95,921.376 1198.11,950.912 1166.41,983.183 1087.39,1008.4 918,971.058 762.821,736.695 853.543,496.348 1046.01,496.438 
  1178.36,596.493 1256.35,698.915 1291.54,761.105 1319.83,802.084 1355.31,820.761 1415.85,808.751 1510.08,732.516 1551.55,634.548 1480.42,626.376 1376.21,688.257 
  1320.03,745.034 1303.11,793.319 1325.43,835.097 1371.41,840.02 1485.96,773.219 1567.73,648.921 1503.78,607.277 1388.27,669.267 1310.37,737.28 1282.57,790.806 
  1287.91,841.32 1312.51,864.744 1381.2,861.408 1512.63,768.267 1595.23,617.573 1516.27,586.954 1381.08,660.41 1295.39,728.85 1258.61,777.842 1244.4,823.407 
  1242.42,853.363 1245.15,883.756 1252.54,908.913 1269.45,930.402 1313.23,938.674 1411.91,899.425 1568.88,755.798 1651.68,556.823 1528.27,546.445 1353.99,648.433 
  1252.97,719.299 1193.27,774.795 1163.27,818.368 1137.65,854.07 1096.66,884.63 1023.97,893.342 905.587,815.092 881.951,659.027 986.424,590.188 1096.29,646.389 
  1150.61,725.469 1167.73,795.055 1156.81,859.503 1125.11,898.617 1039.44,921.279 897.687,845.386 856.701,647.586 988.515,563.572 1109.81,628.819 1168.78,707.876 
  1191.93,766.607 1200.81,823.959 1198.7,864.721 1187.65,903.279 1163.14,937.467 1096.81,969.409 948.387,947.399 805.46,767.777 881.049,527.933 1052.24,534.618 
  1172.62,634.749 1236.91,737.138 1262.44,799.135 1281.2,838.702 1309.21,865.241 1359.94,869.05 1462.56,816.055 1578.87,677.44 1566.62,576.96 1432.83,626.317 
  1313.07,710.642 1259.37,771.93 1242.64,816.28 1238.42,854.812 1239.44,883.118 1244.48,911.555 1254.89,934.102 1282.23,950.764 1350.17,939.737 1491.85,847.417 
  1644.62,641.633 1619.79,515.591 1436.19,591.225 1279.78,693.581 1193.92,760.898 1159.35,802.404 1130.08,840.662 1091.25,869.633 1021.96,877.78 916.984,807.123 
  896.774,664.68 990.751,605.898 1093.5,661.589 1140.12,736.774 1150.19,806.305 1125.1,866.652 1070.3,896.43 944.54,862.42 869.059,707.515 960.609,586.496 
  1076.22,623.93 1147.02,708.852 1171.66,785.032 1164.03,859.176 1137.03,898.556 1057.01,928.526 909.307,867.954 844.047,666.409 974.951,554.987 1101.51,612.957 
  1174.47,704.703 1201.29,772.168 1210.54,827.128 1211.07,861.684 1206.5,898.32 1196.31,928.57 1170.79,961.372 1097.2,992.516 948.213,971.11 785.288,775.841 
  862.466,509.552 1051.98,512.821 1183.05,618.643 1261.85,736.9 1288.88,790.347 1317.79,826.793 1360.38,838.826 1439.87,808.507 1548.35,694.374 1552.08,605.108 
  1443.16,635.535 1335.27,712.282 1290.71,770.1 1282.58,814.68 1297.3,850.771 1334.15,867.281 1424.07,839.196 1553.52,715.265 1581.72,588.013 1454.46,616.254 
  1328.16,700.881 1268.84,763.574 1250.42,806.213 1245.84,846.009 1248.88,877.049 1258.89,905.098 1280.85,925.376 1343.65,924.293 1472.73,849.402 1621.7,664.439 
  1600.42,531.241 1421.28,608.556 1276.11,706.474 1194.72,784.271 1169.18,826.267 1140.8,867.074 1096.5,897.684 1008.57,901.693 882.496,796.103 886.326,624.06 
  1011.88,583.429 1122.87,661.678 1169.83,745.884 1181.43,808.137 1173.68,864.035 1149.14,904.491 1085.86,937.486 939.54,906.754 829.831,728.565 906.83,556.004 
  1052.47,566.903 1152.95,653.729 1200.71,734.515 1221.78,802.228 1229.33,848.542 1233.35,882.851 1236.9,908.301 1242.99,932.989 1254.32,952.421 1280.59,964.359 
  1341.78,953.105 1477.36,868.583 1638.06,670.546 1632.49,506.392 1435.83,586.593 1265.39,697.705 1179.71,762.857 1144.03,803.005 1111.75,838.576 1066.85,862.024 
  990.541,853.51 906.101,751 935.398,637.639 1033.21,631.721 1107.97,699.753 1134.49,774.842 1121.76,837.569 1072.47,875.019 971.844,859.31 888.295,727.726 
  954.878,609.118 1063.51,634.823 1130.77,714.415 1151.03,792.023 1130.17,861.222 1080.58,894.325 956.928,871.698 869.02,721.473 953.407,587.286 1071.67,620.013 
  1145.96,705.985 1172.08,784.402 1165.07,858.376 1138.32,898.458 1059.8,929.152 911.002,870.599 842.722,669.196 973.335,554.103 1100.53,611.226 1174.56,703.378 
  1202.04,771.693 1211.47,825.651 1212.43,860.39 1208.8,896.007 1200.19,925.927 1179.33,957.735 1120,990.616 991.341,989.708 810.662,845.746 812.796,552.282 
  1011.29,493.187 1165.41,595.98 1245.63,701.509 1281.39,768.837 1307.99,811.807 1342.59,833.504 1403.31,825.127 1506.01,748.739 1565.29,634.694 1495.45,613.049 
  1383.3,675.42 1314.17,737.597 1288.32,788.542 1294.89,837.004 1321.84,858.603 1395,849.514 1522.13,751.19 1587.27,611.393 1484.48,603.802 1359.64,679.406 
  1286.25,746.087 1260.89,791.03 1253.89,833.333 1257.97,866.304 1271.91,894.408 1303.12,911.571 1391.51,891.096 1535.86,775.558 1632.01,589.937 1538.99,555.424 
  1377.72,643.543 1275.36,717.194 1219.51,774.205 1192.98,822.221 1176.05,858.352 1149.76,895.533 1103.6,924.713 1004.91,927.567 866.89,819.444 857.913,614.975 
  997.824,553.807 1125.54,631.516 1185.47,718.222 1208.92,784.64 1217.03,839.687 1217.7,874.576 1214.96,907.511 1208.34,936.113 1192.28,965.987 1144.73,999.052 
  1038.34,1012.9 843.573,916.478 766.067,612.712 931.998,467.148 1110.9,531.881 1208.48,625.576 1271.65,716.847 1303.73,772.477 1332.33,805.493 1373.65,816.625 
  1442.03,790.486 1532.96,694.513 1534.05,622.769 1443.4,646.42 1349.98,714.132 1312.94,767.161 1312.88,810.181 1345.48,834.364 1415.14,819.207 1529.19,718.459 
  1555.18,614.641 1451.42,633.879 1344.6,707.63 1297.54,766.805 1289.83,812.102 1308.74,847.412 1353.48,858.032 1459.92,808.071 1571.6,673.165 1544.38,587.735 
  1413.5,644.419 1310.76,722.319 1267.31,783.217 1258.78,823.028 1263.34,861.005 1279.04,888.322 1317.4,903.539 1419.81,868.767 1564.53,732.671 1616.99,566.777 
  1471.77,590.219 1325.63,683.226 1248.16,748.701 1212.59,800.652 1193.25,848.054 1177.06,883.011 1145.96,919.656 1086.37,945.763 952.068,922.679 827.893,759.946 
  894.485,552.517 1047.09,556.25 1157.66,648.952 1209.73,736.059 1232.05,804.066 1242.34,849.687 1250.87,880.984 1265.43,908.348 1292.68,924.727 1355.07,917.447 
  1487.51,834.079 1624.33,653.916 1591.34,534.326 1419.47,611.078 1280.63,704.991 1204.72,775.642 1177.37,819.702 1153.12,859.758 1116.7,893.666 1046.94,911.792 
  919.045,855.377 858.159,686.188 959.36,573.4 1080.67,614.314 1153.38,698.016 1182.58,771.627 1186.24,845.872 1174.03,886.356 1137.12,928.171 1052.68,951.087 
  887.791,875.794 823.67,652.788 952.367,532.51 1096.27,585.374 1178,673.722 1218.75,752.632 1239.09,821.387 1248.36,858.415 1260.63,890.065 1281.45,912.119 
  1326.15,918.601 1424.99,877.175 1573.86,733.385 1632.4,559.607 1487.33,574.896 1332.1,671.186 1245.63,737.869 1201.16,790.801 1175.34,839.594 1153.28,874.563 
  1110.49,908.654 1031.8,920.766 890.914,836.616 855.403,651.664 979.586,562.811 1101.63,621.275 1168.3,707.196 1192.93,770.956 1200.79,828.645 1197.52,870.416 
  1184.54,908.994 1155.21,943.712 1071.18,972.597 911.158,924.323 796.636,701.49 900.135,519.633 1064.37,541.935 1170.66,633.29 1229.55,723.397 1257.67,789.108 
  1275.52,830.858 1298.9,860.411 1339.49,872.448 1420.35,845.513 1548.83,727.344 1594.71,594.263 1483.12,598.774 1351.9,679.253 1278.71,743.58 1249.15,790.633 
  1238.22,834.301 1236.39,864.807 1237.67,892.395 1241.89,917.675 1250.93,939.796 1273.59,956.853 1329.31,952.813 1452.66,884.893 1618.37,700.146 1645.56,515.312 
  1454.72,577.249 1281.36,689.259 1188.99,758.954 1152.2,800.609 1120.8,838.347 1079.01,864.96 1005.71,865.37 909.005,776.445 917.334,646.73 1015.43,619.049 
  1105.35,686.991 1138.72,762.035 1134.79,828.05 1095.49,874.325 1011.18,883.181 895.356,782.473 911.751,625.709 1030.17,608.344 1124.09,689.978 1157.64,775.003 
  1152.89,840.901 1119.53,887.725 1040.18,909.953 899.815,831.149 870.722,644.094 1000.43,576.789 1113.88,646.311 1169.67,734.474 1185.37,797.849 1182.3,856.085 
  1164.52,897.594 1118.54,935.159 1002.08,941.88 850.896,819.487 857.42,586.039 1018.8,544.783 1149.66,639.961 1209.26,736.355 1231.08,802.986 1241.76,851.268 
  1249.97,882.263 1264.54,910.217 1291.55,926.607 1354.62,919.167 1488.47,834.535 1626.63,651.315 1590.28,533.053 1416.45,612.178 1278.33,705.694 1201.88,776.889 
  1174.63,820.476 1149.42,860.5 1111.19,893.61 1037.7,908.745 908.639,840.363 863.972,669 973.123,575.434 1091,625.701 1156.68,709.023 1181.26,779.544 
  1182.08,847.156 1167.15,888.749 1125.34,928.683 1026.47,944.012 869.119,844.671 841.676,617.276 997.154,541.22 1127.91,619.079 1194.84,711.037 1222.89,782.636 
  1235.48,838.841 1242.32,873.698 1251.3,903.199 1267.19,925.905 1301.48,937.305 1380.25,915.401 1530.03,799.978 1649.13,600.127 1578.15,529.842 1404.65,616.311 
  1279,700.925 1206.37,761.915 1173.5,805.616 1148.83,843.887 1115.67,876.972 1056.7,897.175 950.197,864.802 871.087,723.659 937.475,594.868 1054.53,610.971 
  1133.5,688.828 1166.84,767.958 1168.75,832.856 1148.94,880.87 1099.38,917.24 982.176,912.514 855.035,775.881 897.905,581.248 1041.2,575.869 1147.08,666.725 
  1193.64,757.892 1205.35,815.698 1205.81,859.973 1198.68,899.069 1181.73,933.518 1138.19,968.172 1017.34,981.291 843.549,872.106 808.207,590.23 994.727,502.225 
  1143.36,589.798 1221.17,685.783 1261.55,763.165 1286.85,815.736 1312.6,844.246 1360.36,853.105 1446.47,815.225 1561.04,689.671 1562.47,592.707 1443.05,628.447 
  1326.8,709.873 1276.98,769.5 1264.35,808.655 1266.49,849.428 1280.67,877.597 1316.18,895.058 1402.58,872.439 1545.22,751.163 1616.38,586.707 1492.79,583.063 
  1349.75,669.655 1264.06,738.983 1225.24,791.821 1207.64,837.515 1197.07,870.034 1180.35,905.63 1151.56,936.978 1087,962.981 948.346,938.758 813.882,769.451 
  878.23,540.509 1042.06,537.588 1162.98,633.714 1224.18,728.846 1250.35,795.057 1266.74,839.053 1286.76,869.517 1323.11,885.504 1396.54,868.186 1532.37,759.248 
  1609.85,605.888 1511.3,579.435 1371.81,658.628 1280.55,730.056 1239.16,782.958 1219.94,836.983 1212.39,871.354 1203.39,904.697 1188.01,936.172 1155.05,967.134 
  1077.55,990.472 912.946,946.76 780.07,725.272 873.098,509.641 1049.52,516.275 1171.14,611.098 1240.59,707.162 1273.39,772.234 1296.66,814.725 1326.54,840.222 
  1377.93,841.892 1471.5,789.638 1565.76,667.438 1538.2,597.316 1421.78,644.989 1325.19,717.273 1282.66,774.623 1274.41,817.702 1285.06,854.167 1313.61,875.7 
  1383.43,867.802 1520.2,766.932 1602.94,613.822 1523.38,579.543 1384.18,654.166 1293.15,724.277 1251.36,775.373 1232.6,827.434 1227.69,862.108 1225.25,893.624 
  1223.49,917.971 1220.84,941.849 1215.88,964.658 1204.71,987.873 1177.84,1011.64 1109.97,1034.11 951.953,1017.33 756.125,819.864 813.966,484.638 1039.45,465.777 
  1200.48,586.273 1285.61,693.833 1323.21,750.715 1356.73,783.502 1399.23,788.575 1464.3,754.03 1521.7,673.546 1492.24,642.656 1410.33,680.699 1354.39,732.886 
  1339.93,778.16 1370.83,803.207 1436.56,782.367 1521.92,692.068 1506.96,634.591 1416.26,671.708 1346.39,733.704 1329.42,783.861 1360.48,813.176 1428.02,795.489 
  1527.32,696.947 1520.62,625.755 1420.57,663.066 1339.3,731.234 1316.14,785.88 1337.86,822.307 1395.14,821.121 1505.53,741.023 1553.68,630.085 1463.52,631.983 
  1360.64,698.944 1308.7,759.428 1299.98,805.936 1324.13,840.433 1377.46,842.679 1495.65,767.379 1573.45,637.526 1496.81,606.989 1379.09,673.35 1303.59,740.86 
  1277.11,792.577 1280.39,844.021 1300.81,869.213 1358.95,874.98 1482.76,803.591 1595.62,647.038 1553.61,572.675 1412.78,635.929 1304.84,714.059 1254.63,770.698 
  1235.22,818.577 1229.08,856.964 1226.82,888.284 1225.52,914.263 1224.21,935.391 1221.81,957.609 1217.06,978.337 1205.67,999.913 1178.11,1021.84 1106.87,1043.03 
  944.599,1023.17 744.53,812.39 790.383,494.264 1016.17,448.516 1187.85,564.067 1282.51,675.565 1323.43,735.255 1357.22,772.166 1394.68,781.625 1451.52,757.63 
  1509.48,689.991 1497.5,649.354 1427.84,673.859 1366.94,725.158 1348.92,768.337 1374.27,793.699 1436.79,775.049 1513.12,695.051 1498.78,642.832 1416.31,677.097 
  1353.34,735.396 1341.89,781.617 1383.33,802.076 1457.53,766.979 1530.16,666.472 1480.84,639.804 1389.09,691.801 1337.81,748.721 1333.8,793.781 1385.03,811.254 
  1464.74,769.209 1541.11,656.003 1481.99,632.79 1382.28,690.638 1327.59,749.839 1319.17,797.454 1358.8,825.826 1429.5,804.061 1540.15,689.923 1529.6,615.227 
  1418.48,657.859 1330.59,729.456 1301.51,787.582 1313.71,829.368 1355.95,844.027 1452.83,802.591 1560.76,674.623 1531.66,599.763 1408.64,654.581 1316.55,728.215 
  1280.96,787.626 1280.92,833.51 1301.28,863.459 1351.77,872.355 1469.36,811.761 1586.74,662.372 1547.91,576.2 1406.12,641.93 1299.41,721.779 1252.84,781.265 
  1238.2,829.878 1235.56,865.15 1236.58,893.168 1240.65,920.158 1249.2,942.528 1271.64,960.233 1327.15,956.339 1453.26,886.724 1622.78,695.95 1644.37,511.203 
  1446.92,580.648 1272.9,693.538 1181.58,762.915 1146.17,803.25 1113.53,839.912 1068.64,863.91 990.966,855.959 904.305,752.079 933.882,635.753 1033.45,629.677 
  1109.5,698.728 1136.71,774.574 1124.96,837.762 1077.38,876.593 978.094,865.756 886.843,737.555 946.626,608.712 1058.42,628.4 1130.45,708.514 1153.95,788.08 
  1138.61,856.036 1094.75,893.659 984.551,890.493 871.751,759.603 922.939,594.463 1051.17,602.926 1139.84,689.202 1174.66,775.323 1175.56,840.581 1156.32,887.908 
  1107.31,925.619 985.839,924.275 847.858,784.045 888.827,573.885 1041.52,566.105 1153.56,661.254 1204.27,757.558 1218.66,819.557 1222.56,863.905 1222.86,895.713 
  1221.41,923.25 1217.79,948.585 1209.23,974.075 1183.76,1003.11 1125.38,1027.35 972.714,1020.64 770.369,843.716 804.105,499.509 1033.89,466.854 1199.38,589.521 
  1280.77,693.074 1319.75,753.152 1352.62,786.472 1395.74,792.7 1462.08,758.823 1524.77,674.181 1496.74,639.242 1412.33,677.159 1352.42,731.282 1335.15,778.141 
  1361.55,806.629 1423.94,792.96 1516.5,707.358 1521.93,632.562 1431.95,659.527 1348.28,726.608 1323.75,778.661 1343.43,814.451 1400.63,812.515 1503.86,735.829 
  1544.69,633.27 1457.72,639.263 1359.97,705.076 1315,762.871 1312.41,807.414 1346.01,833.825 1415.7,818.47 1532.27,713.462 1552.08,612.966 1444.03,638.165 
  1339.19,713.039 1295.75,772.428 1291.61,817.469 1313.99,849.776 1365.88,855.312 1483.19,787.939 1580.26,648.52 1519.87,592.684 1392.02,658.623 1302.7,731.071 
  1266.9,786.196 1259.78,833.222 1266.93,866.75 1288.21,893.179 1337.2,900.641 1472.56,829.666 1602.66,668.077 1589.5,553.725 1437.69,610.365 1300.98,702.843 
  1236.42,764.84 1208.88,814.145 1193.05,856.173 1175.84,891.859 1143.61,926.634 1077.73,951.329 934.181,916.648 819.422,736.906 908.907,540.158 1060.03,559.034 
  1164.66,652.237 1215.61,739.428 1238.11,807.043 1249.48,850.121 1261.62,881.853 1283,905.717 1326.12,913.311 1422.71,874.571 1569.25,735.055 1628.57,564.848 
  1488.51,576.781 1335.95,670.99 1250.03,738.034 1206.75,791.11 1182.26,840.68 1162.65,875.609 1124.57,911.468 1054.25,930.465 911.45,872.172 839.243,689.672 
  949.421,554.584 1080.33,594.53 1162.89,682.553 1197.44,754.05 1211.48,816.871 1213.63,853.091 1211.48,888.538 1205,918.762 1189.89,949.497 1150.51,982.007 
  1055.14,1001.43 878.984,933.692 769.154,668.927 900.159,486.162 1078.52,522.375 1187.36,616.704 1254.42,711.594 1286.59,772.227 1312.29,811.013 1347.22,830.708 
  1407.1,820.848 1507.04,744.837 1562.2,635.964 1494.86,615.209 1384.99,675.987 1317.45,736.943 1292.11,787.696 1299.85,834.451 1329.29,854.693 1406.84,840.01 
  1531.34,735.512 1579.54,605.558 1469.9,613.503 1349.04,690.448 1284.9,754.205 1264.7,797.802 1262.29,840.6 1272.29,871.727 1298.38,894.646 1359.65,892.972 
  1501.38,801.728 1614.23,634.468 1566.07,556.457 1415.72,624.888 1298.27,706.619 1239.18,764.675 1212.33,813.689 1197.8,854.751 1183.03,889.572 1156.17,924.351 
  1102.32,952.632 980.099,945.59 834.234,807.439 855.008,571.06 1017.93,534.531 1153.12,631.065 1215.07,725.329 1241.32,794.179 1256.12,841.972 1271.02,873.732 
  1298.35,896.182 1352.26,896.273 1470.18,830.664 1599.31,673.209 1585.56,554.286 1431.81,614.336 1296.96,706.67 1232.35,771.979 1207.8,820.312 1192.78,861.413 
  1174.76,897.472 1140.5,931.767 1068.3,954.733 916,906.648 814.548,709.544 908.415,537.869 1059.57,556.8 1161.01,644.862 1213.01,728.624 1237.88,796.791 
  1250.58,842.142 1262.75,874.113 1283.78,899.025 1324.37,908.257 1414.39,875.685 1557.7,746.002 1627.09,576.955 1500.69,573.18 1350.11,663.515 1259.65,733.071 
  1214.59,787.05 1190.5,838.025 1173.95,872.594 1142.69,910.141 1086.18,936.091 960.104,916.876 838.521,765.742 893.612,565.537 1040.6,562.274 1150.49,652.438 
  1201.5,739.923 1220.71,805.338 1227.56,852.325 1230.65,886.286 1233.06,912.191 1236.56,935.731 1243.01,956.289 1257.28,972.527 1263.04,975.226 
  "/>
<path clip-path="url(#clip650)" d="
M1893.43 198.898 L2279.06 198.898 L2279.06 95.2176 L1893.43 95.2176  Z
  " fill="#ffffff" fill-rule="evenodd" fill-opacity="1"/>
<polyline clip-path="url(#clip650)" style="stroke:#000000; stroke-linecap:butt; stroke-linejoin:round; stroke-width:4; stroke-opacity:1; fill:none" points="
  1893.43,198.898 2279.06,198.898 2279.06,95.2176 1893.43,95.2176 1893.43,198.898 
  "/>
<polyline clip-path="url(#clip650)" style="stroke:#009af9; stroke-linecap:butt; stroke-linejoin:round; stroke-width:4; stroke-opacity:1; fill:none" points="
  1917.99,147.058 2065.39,147.058 
  "/>
<path clip-path="url(#clip650)" d="M2100.58 128.366 Q2097.47 133.69 2095.97 138.898 Q2094.47 144.106 2094.47 149.453 Q2094.47 154.801 2095.97 160.055 Q2097.5 165.287 2100.58 170.588 L2096.87 170.588 Q2093.4 165.148 2091.66 159.893 Q2089.95 154.639 2089.95 149.453 Q2089.95 144.291 2091.66 139.06 Q2093.38 133.828 2096.87 128.366 L2100.58 128.366 Z" fill="#000000" fill-rule="evenodd" fill-opacity="1" /><path clip-path="url(#clip650)" d="M2130.39 138.412 L2121.02 151.027 L2130.88 164.338 L2125.85 164.338 L2118.31 154.152 L2110.76 164.338 L2105.74 164.338 L2115.81 150.773 L2106.6 138.412 L2111.62 138.412 L2118.49 147.648 L2125.37 138.412 L2130.39 138.412 Z" fill="#000000" fill-rule="evenodd" fill-opacity="1" /><path clip-path="url(#clip650)" d="M2137.98 158.458 L2142.87 158.458 L2142.87 162.439 L2139.07 169.847 L2136.09 169.847 L2137.98 162.439 L2137.98 158.458 Z" fill="#000000" fill-rule="evenodd" fill-opacity="1" /><path clip-path="url(#clip650)" d="M2162.75 166.745 Q2160.95 171.375 2159.23 172.787 Q2157.52 174.199 2154.65 174.199 L2151.25 174.199 L2151.25 170.634 L2153.75 170.634 Q2155.51 170.634 2156.48 169.8 Q2157.45 168.967 2158.63 165.865 L2159.4 163.921 L2148.91 138.412 L2153.42 138.412 L2161.53 158.689 L2169.63 138.412 L2174.14 138.412 L2162.75 166.745 Z" fill="#000000" fill-rule="evenodd" fill-opacity="1" /><path clip-path="url(#clip650)" d="M2181.11 158.458 L2185.99 158.458 L2185.99 162.439 L2182.2 169.847 L2179.21 169.847 L2181.11 162.439 L2181.11 158.458 Z" fill="#000000" fill-rule="evenodd" fill-opacity="1" /><path clip-path="url(#clip650)" d="M2193.24 138.412 L2213.47 138.412 L2213.47 142.301 L2197.45 160.935 L2213.47 160.935 L2213.47 164.338 L2192.66 164.338 L2192.66 160.449 L2208.68 141.815 L2193.24 141.815 L2193.24 138.412 Z" fill="#000000" fill-rule="evenodd" fill-opacity="1" /><path clip-path="url(#clip650)" d="M2219.3 128.366 L2223.01 128.366 Q2226.48 133.828 2228.19 139.06 Q2229.93 144.291 2229.93 149.453 Q2229.93 154.639 2228.19 159.893 Q2226.48 165.148 2223.01 170.588 L2219.3 170.588 Q2222.38 165.287 2223.89 160.055 Q2225.41 154.801 2225.41 149.453 Q2225.41 144.106 2223.89 138.898 Q2222.38 133.69 2219.3 128.366 Z" fill="#000000" fill-rule="evenodd" fill-opacity="1" /></svg>
