<?xml version="1.0" encoding="utf-8"?>
<svg xmlns="http://www.w3.org/2000/svg" xmlns:xlink="http://www.w3.org/1999/xlink" width="600" height="400" viewBox="0 0 2400 1600">
<defs>
  <clipPath id="clip780">
    <rect x="0" y="0" width="2400" height="1600"/>
  </clipPath>
</defs>
<path clip-path="url(#clip780)" d="
M0 1600 L2400 1600 L2400 0 L0 0  Z
  " fill="#ffffff" fill-rule="evenodd" fill-opacity="1"/>
<defs>
  <clipPath id="clip781">
    <rect x="480" y="0" width="1681" height="1600"/>
  </clipPath>
</defs>
<path clip-path="url(#clip780)" d="
M112.177 1423.18 L2352.76 1423.18 L2352.76 47.2441 L112.177 47.2441  Z
  " fill="#ffffff" fill-rule="evenodd" fill-opacity="1"/>
<defs>
  <clipPath id="clip782">
    <rect x="112" y="47" width="2242" height="1377"/>
  </clipPath>
</defs>
<polyline clip-path="url(#clip782)" style="stroke:#000000; stroke-linecap:butt; stroke-linejoin:round; stroke-width:2; stroke-opacity:0.1; fill:none" points="
  112.177,1423.18 112.177,47.2441 
  "/>
<polyline clip-path="url(#clip782)" style="stroke:#000000; stroke-linecap:butt; stroke-linejoin:round; stroke-width:2; stroke-opacity:0.1; fill:none" points="
  560.293,1423.18 560.293,47.2441 
  "/>
<polyline clip-path="url(#clip782)" style="stroke:#000000; stroke-linecap:butt; stroke-linejoin:round; stroke-width:2; stroke-opacity:0.1; fill:none" points="
  1008.41,1423.18 1008.41,47.2441 
  "/>
<polyline clip-path="url(#clip782)" style="stroke:#000000; stroke-linecap:butt; stroke-linejoin:round; stroke-width:2; stroke-opacity:0.1; fill:none" points="
  1456.52,1423.18 1456.52,47.2441 
  "/>
<polyline clip-path="url(#clip782)" style="stroke:#000000; stroke-linecap:butt; stroke-linejoin:round; stroke-width:2; stroke-opacity:0.1; fill:none" points="
  1904.64,1423.18 1904.64,47.2441 
  "/>
<polyline clip-path="url(#clip782)" style="stroke:#000000; stroke-linecap:butt; stroke-linejoin:round; stroke-width:2; stroke-opacity:0.1; fill:none" points="
  2352.76,1423.18 2352.76,47.2441 
  "/>
<polyline clip-path="url(#clip780)" style="stroke:#000000; stroke-linecap:butt; stroke-linejoin:round; stroke-width:4; stroke-opacity:1; fill:none" points="
  112.177,1423.18 2352.76,1423.18 
  "/>
<polyline clip-path="url(#clip780)" style="stroke:#000000; stroke-linecap:butt; stroke-linejoin:round; stroke-width:4; stroke-opacity:1; fill:none" points="
  112.177,1423.18 112.177,1404.28 
  "/>
<polyline clip-path="url(#clip780)" style="stroke:#000000; stroke-linecap:butt; stroke-linejoin:round; stroke-width:4; stroke-opacity:1; fill:none" points="
  560.293,1423.18 560.293,1404.28 
  "/>
<polyline clip-path="url(#clip780)" style="stroke:#000000; stroke-linecap:butt; stroke-linejoin:round; stroke-width:4; stroke-opacity:1; fill:none" points="
  1008.41,1423.18 1008.41,1404.28 
  "/>
<polyline clip-path="url(#clip780)" style="stroke:#000000; stroke-linecap:butt; stroke-linejoin:round; stroke-width:4; stroke-opacity:1; fill:none" points="
  1456.52,1423.18 1456.52,1404.28 
  "/>
<polyline clip-path="url(#clip780)" style="stroke:#000000; stroke-linecap:butt; stroke-linejoin:round; stroke-width:4; stroke-opacity:1; fill:none" points="
  1904.64,1423.18 1904.64,1404.28 
  "/>
<polyline clip-path="url(#clip780)" style="stroke:#000000; stroke-linecap:butt; stroke-linejoin:round; stroke-width:4; stroke-opacity:1; fill:none" points="
  2352.76,1423.18 2352.76,1404.28 
  "/>
<path clip-path="url(#clip780)" d="M89.5616 1454.1 Q85.9505 1454.1 84.1218 1457.66 Q82.3162 1461.2 82.3162 1468.33 Q82.3162 1475.44 84.1218 1479.01 Q85.9505 1482.55 89.5616 1482.55 Q93.1958 1482.55 95.0013 1479.01 Q96.83 1475.44 96.83 1468.33 Q96.83 1461.2 95.0013 1457.66 Q93.1958 1454.1 89.5616 1454.1 M89.5616 1450.39 Q95.3717 1450.39 98.4272 1455 Q101.506 1459.58 101.506 1468.33 Q101.506 1477.06 98.4272 1481.67 Q95.3717 1486.25 89.5616 1486.25 Q83.7514 1486.25 80.6727 1481.67 Q77.6172 1477.06 77.6172 1468.33 Q77.6172 1459.58 80.6727 1455 Q83.7514 1450.39 89.5616 1450.39 Z" fill="#000000" fill-rule="evenodd" fill-opacity="1" /><path clip-path="url(#clip780)" d="M109.723 1479.7 L114.608 1479.7 L114.608 1485.58 L109.723 1485.58 L109.723 1479.7 Z" fill="#000000" fill-rule="evenodd" fill-opacity="1" /><path clip-path="url(#clip780)" d="M134.793 1454.1 Q131.182 1454.1 129.353 1457.66 Q127.547 1461.2 127.547 1468.33 Q127.547 1475.44 129.353 1479.01 Q131.182 1482.55 134.793 1482.55 Q138.427 1482.55 140.233 1479.01 Q142.061 1475.44 142.061 1468.33 Q142.061 1461.2 140.233 1457.66 Q138.427 1454.1 134.793 1454.1 M134.793 1450.39 Q140.603 1450.39 143.658 1455 Q146.737 1459.58 146.737 1468.33 Q146.737 1477.06 143.658 1481.67 Q140.603 1486.25 134.793 1486.25 Q128.983 1486.25 125.904 1481.67 Q122.848 1477.06 122.848 1468.33 Q122.848 1459.58 125.904 1455 Q128.983 1450.39 134.793 1450.39 Z" fill="#000000" fill-rule="evenodd" fill-opacity="1" /><path clip-path="url(#clip780)" d="M538.476 1454.1 Q534.865 1454.1 533.036 1457.66 Q531.231 1461.2 531.231 1468.33 Q531.231 1475.44 533.036 1479.01 Q534.865 1482.55 538.476 1482.55 Q542.11 1482.55 543.916 1479.01 Q545.744 1475.44 545.744 1468.33 Q545.744 1461.2 543.916 1457.66 Q542.11 1454.1 538.476 1454.1 M538.476 1450.39 Q544.286 1450.39 547.342 1455 Q550.42 1459.58 550.42 1468.33 Q550.42 1477.06 547.342 1481.67 Q544.286 1486.25 538.476 1486.25 Q532.666 1486.25 529.587 1481.67 Q526.532 1477.06 526.532 1468.33 Q526.532 1459.58 529.587 1455 Q532.666 1450.39 538.476 1450.39 Z" fill="#000000" fill-rule="evenodd" fill-opacity="1" /><path clip-path="url(#clip780)" d="M558.638 1479.7 L563.522 1479.7 L563.522 1485.58 L558.638 1485.58 L558.638 1479.7 Z" fill="#000000" fill-rule="evenodd" fill-opacity="1" /><path clip-path="url(#clip780)" d="M577.735 1481.64 L594.054 1481.64 L594.054 1485.58 L572.11 1485.58 L572.11 1481.64 Q574.772 1478.89 579.355 1474.26 Q583.962 1469.61 585.142 1468.27 Q587.388 1465.74 588.267 1464.01 Q589.17 1462.25 589.17 1460.56 Q589.17 1457.8 587.226 1456.07 Q585.304 1454.33 582.203 1454.33 Q580.003 1454.33 577.55 1455.09 Q575.119 1455.86 572.341 1457.41 L572.341 1452.69 Q575.166 1451.55 577.619 1450.97 Q580.073 1450.39 582.11 1450.39 Q587.48 1450.39 590.675 1453.08 Q593.869 1455.77 593.869 1460.26 Q593.869 1462.39 593.059 1464.31 Q592.272 1466.2 590.165 1468.8 Q589.587 1469.47 586.485 1472.69 Q583.383 1475.88 577.735 1481.64 Z" fill="#000000" fill-rule="evenodd" fill-opacity="1" /><path clip-path="url(#clip780)" d="M985.55 1454.1 Q981.939 1454.1 980.11 1457.66 Q978.305 1461.2 978.305 1468.33 Q978.305 1475.44 980.11 1479.01 Q981.939 1482.55 985.55 1482.55 Q989.184 1482.55 990.99 1479.01 Q992.818 1475.44 992.818 1468.33 Q992.818 1461.2 990.99 1457.66 Q989.184 1454.1 985.55 1454.1 M985.55 1450.39 Q991.36 1450.39 994.416 1455 Q997.494 1459.58 997.494 1468.33 Q997.494 1477.06 994.416 1481.67 Q991.36 1486.25 985.55 1486.25 Q979.74 1486.25 976.661 1481.67 Q973.606 1477.06 973.606 1468.33 Q973.606 1459.58 976.661 1455 Q979.74 1450.39 985.55 1450.39 Z" fill="#000000" fill-rule="evenodd" fill-opacity="1" /><path clip-path="url(#clip780)" d="M1005.71 1479.7 L1010.6 1479.7 L1010.6 1485.58 L1005.71 1485.58 L1005.71 1479.7 Z" fill="#000000" fill-rule="evenodd" fill-opacity="1" /><path clip-path="url(#clip780)" d="M1033.63 1455.09 L1021.82 1473.54 L1033.63 1473.54 L1033.63 1455.09 M1032.4 1451.02 L1038.28 1451.02 L1038.28 1473.54 L1043.21 1473.54 L1043.21 1477.43 L1038.28 1477.43 L1038.28 1485.58 L1033.63 1485.58 L1033.63 1477.43 L1018.03 1477.43 L1018.03 1472.92 L1032.4 1451.02 Z" fill="#000000" fill-rule="evenodd" fill-opacity="1" /><path clip-path="url(#clip780)" d="M1433.83 1454.1 Q1430.22 1454.1 1428.39 1457.66 Q1426.58 1461.2 1426.58 1468.33 Q1426.58 1475.44 1428.39 1479.01 Q1430.22 1482.55 1433.83 1482.55 Q1437.46 1482.55 1439.27 1479.01 Q1441.1 1475.44 1441.1 1468.33 Q1441.1 1461.2 1439.27 1457.66 Q1437.46 1454.1 1433.83 1454.1 M1433.83 1450.39 Q1439.64 1450.39 1442.69 1455 Q1445.77 1459.58 1445.77 1468.33 Q1445.77 1477.06 1442.69 1481.67 Q1439.64 1486.25 1433.83 1486.25 Q1428.02 1486.25 1424.94 1481.67 Q1421.88 1477.06 1421.88 1468.33 Q1421.88 1459.58 1424.94 1455 Q1428.02 1450.39 1433.83 1450.39 Z" fill="#000000" fill-rule="evenodd" fill-opacity="1" /><path clip-path="url(#clip780)" d="M1453.99 1479.7 L1458.87 1479.7 L1458.87 1485.58 L1453.99 1485.58 L1453.99 1479.7 Z" fill="#000000" fill-rule="evenodd" fill-opacity="1" /><path clip-path="url(#clip780)" d="M1479.64 1466.44 Q1476.49 1466.44 1474.64 1468.59 Q1472.81 1470.74 1472.81 1474.49 Q1472.81 1478.22 1474.64 1480.39 Q1476.49 1482.55 1479.64 1482.55 Q1482.79 1482.55 1484.61 1480.39 Q1486.47 1478.22 1486.47 1474.49 Q1486.47 1470.74 1484.61 1468.59 Q1482.79 1466.44 1479.64 1466.44 M1488.92 1451.78 L1488.92 1456.04 Q1487.16 1455.21 1485.36 1454.77 Q1483.57 1454.33 1481.81 1454.33 Q1477.18 1454.33 1474.73 1457.45 Q1472.3 1460.58 1471.95 1466.9 Q1473.32 1464.89 1475.38 1463.82 Q1477.44 1462.73 1479.92 1462.73 Q1485.12 1462.73 1488.13 1465.9 Q1491.17 1469.05 1491.17 1474.49 Q1491.17 1479.82 1488.02 1483.03 Q1484.87 1486.25 1479.64 1486.25 Q1473.64 1486.25 1470.47 1481.67 Q1467.3 1477.06 1467.3 1468.33 Q1467.3 1460.14 1471.19 1455.28 Q1475.08 1450.39 1481.63 1450.39 Q1483.39 1450.39 1485.17 1450.74 Q1486.98 1451.09 1488.92 1451.78 Z" fill="#000000" fill-rule="evenodd" fill-opacity="1" /><path clip-path="url(#clip780)" d="M1882.07 1454.1 Q1878.46 1454.1 1876.63 1457.66 Q1874.83 1461.2 1874.83 1468.33 Q1874.83 1475.44 1876.63 1479.01 Q1878.46 1482.55 1882.07 1482.55 Q1885.71 1482.55 1887.51 1479.01 Q1889.34 1475.44 1889.34 1468.33 Q1889.34 1461.2 1887.51 1457.66 Q1885.71 1454.1 1882.07 1454.1 M1882.07 1450.39 Q1887.88 1450.39 1890.94 1455 Q1894.02 1459.58 1894.02 1468.33 Q1894.02 1477.06 1890.94 1481.67 Q1887.88 1486.25 1882.07 1486.25 Q1876.26 1486.25 1873.18 1481.67 Q1870.13 1477.06 1870.13 1468.33 Q1870.13 1459.58 1873.18 1455 Q1876.26 1450.39 1882.07 1450.39 Z" fill="#000000" fill-rule="evenodd" fill-opacity="1" /><path clip-path="url(#clip780)" d="M1902.23 1479.7 L1907.12 1479.7 L1907.12 1485.58 L1902.23 1485.58 L1902.23 1479.7 Z" fill="#000000" fill-rule="evenodd" fill-opacity="1" /><path clip-path="url(#clip780)" d="M1927.3 1469.17 Q1923.97 1469.17 1922.05 1470.95 Q1920.15 1472.73 1920.15 1475.86 Q1920.15 1478.98 1922.05 1480.77 Q1923.97 1482.55 1927.3 1482.55 Q1930.64 1482.55 1932.56 1480.77 Q1934.48 1478.96 1934.48 1475.86 Q1934.48 1472.73 1932.56 1470.95 Q1930.66 1469.17 1927.3 1469.17 M1922.63 1467.18 Q1919.62 1466.44 1917.93 1464.38 Q1916.26 1462.32 1916.26 1459.35 Q1916.26 1455.21 1919.2 1452.8 Q1922.16 1450.39 1927.3 1450.39 Q1932.46 1450.39 1935.4 1452.8 Q1938.34 1455.21 1938.34 1459.35 Q1938.34 1462.32 1936.65 1464.38 Q1934.99 1466.44 1932 1467.18 Q1935.38 1467.96 1937.26 1470.26 Q1939.15 1472.55 1939.15 1475.86 Q1939.15 1480.88 1936.08 1483.57 Q1933.02 1486.25 1927.3 1486.25 Q1921.58 1486.25 1918.51 1483.57 Q1915.45 1480.88 1915.45 1475.86 Q1915.45 1472.55 1917.35 1470.26 Q1919.25 1467.96 1922.63 1467.18 M1920.91 1459.79 Q1920.91 1462.48 1922.58 1463.98 Q1924.27 1465.49 1927.3 1465.49 Q1930.31 1465.49 1932 1463.98 Q1933.71 1462.48 1933.71 1459.79 Q1933.71 1457.11 1932 1455.6 Q1930.31 1454.1 1927.3 1454.1 Q1924.27 1454.1 1922.58 1455.6 Q1920.91 1457.11 1920.91 1459.79 Z" fill="#000000" fill-rule="evenodd" fill-opacity="1" /><path clip-path="url(#clip780)" d="M2319.91 1481.64 L2327.55 1481.64 L2327.55 1455.28 L2319.24 1456.95 L2319.24 1452.69 L2327.5 1451.02 L2332.18 1451.02 L2332.18 1481.64 L2339.82 1481.64 L2339.82 1485.58 L2319.91 1485.58 L2319.91 1481.64 Z" fill="#000000" fill-rule="evenodd" fill-opacity="1" /><path clip-path="url(#clip780)" d="M2349.26 1479.7 L2354.14 1479.7 L2354.14 1485.58 L2349.26 1485.58 L2349.26 1479.7 Z" fill="#000000" fill-rule="evenodd" fill-opacity="1" /><path clip-path="url(#clip780)" d="M2374.33 1454.1 Q2370.72 1454.1 2368.89 1457.66 Q2367.08 1461.2 2367.08 1468.33 Q2367.08 1475.44 2368.89 1479.01 Q2370.72 1482.55 2374.33 1482.55 Q2377.96 1482.55 2379.77 1479.01 Q2381.6 1475.44 2381.6 1468.33 Q2381.6 1461.2 2379.77 1457.66 Q2377.96 1454.1 2374.33 1454.1 M2374.33 1450.39 Q2380.14 1450.39 2383.2 1455 Q2386.27 1459.58 2386.27 1468.33 Q2386.27 1477.06 2383.2 1481.67 Q2380.14 1486.25 2374.33 1486.25 Q2368.52 1486.25 2365.44 1481.67 Q2362.39 1477.06 2362.39 1468.33 Q2362.39 1459.58 2365.44 1455 Q2368.52 1450.39 2374.33 1450.39 Z" fill="#000000" fill-rule="evenodd" fill-opacity="1" /><path clip-path="url(#clip780)" d="M1231.53 1522.27 L1231.53 1532.4 L1243.59 1532.4 L1243.59 1536.95 L1231.53 1536.95 L1231.53 1556.3 Q1231.53 1560.66 1232.71 1561.9 Q1233.91 1563.14 1237.58 1563.14 L1243.59 1563.14 L1243.59 1568.04 L1237.58 1568.04 Q1230.8 1568.04 1228.22 1565.53 Q1225.64 1562.98 1225.64 1556.3 L1225.64 1536.95 L1221.34 1536.95 L1221.34 1532.4 L1225.64 1532.4 L1225.64 1522.27 L1231.53 1522.27 Z" fill="#000000" fill-rule="evenodd" fill-opacity="1" /><polyline clip-path="url(#clip782)" style="stroke:#000000; stroke-linecap:butt; stroke-linejoin:round; stroke-width:2; stroke-opacity:0.1; fill:none" points="
  112.177,1149.32 2352.76,1149.32 
  "/>
<polyline clip-path="url(#clip782)" style="stroke:#000000; stroke-linecap:butt; stroke-linejoin:round; stroke-width:2; stroke-opacity:0.1; fill:none" points="
  112.177,842.028 2352.76,842.028 
  "/>
<polyline clip-path="url(#clip782)" style="stroke:#000000; stroke-linecap:butt; stroke-linejoin:round; stroke-width:2; stroke-opacity:0.1; fill:none" points="
  112.177,534.74 2352.76,534.74 
  "/>
<polyline clip-path="url(#clip782)" style="stroke:#000000; stroke-linecap:butt; stroke-linejoin:round; stroke-width:2; stroke-opacity:0.1; fill:none" points="
  112.177,227.451 2352.76,227.451 
  "/>
<polyline clip-path="url(#clip780)" style="stroke:#000000; stroke-linecap:butt; stroke-linejoin:round; stroke-width:4; stroke-opacity:1; fill:none" points="
  112.177,1423.18 112.177,47.2441 
  "/>
<polyline clip-path="url(#clip780)" style="stroke:#000000; stroke-linecap:butt; stroke-linejoin:round; stroke-width:4; stroke-opacity:1; fill:none" points="
  112.177,1149.32 131.075,1149.32 
  "/>
<polyline clip-path="url(#clip780)" style="stroke:#000000; stroke-linecap:butt; stroke-linejoin:round; stroke-width:4; stroke-opacity:1; fill:none" points="
  112.177,842.028 131.075,842.028 
  "/>
<polyline clip-path="url(#clip780)" style="stroke:#000000; stroke-linecap:butt; stroke-linejoin:round; stroke-width:4; stroke-opacity:1; fill:none" points="
  112.177,534.74 131.075,534.74 
  "/>
<polyline clip-path="url(#clip780)" style="stroke:#000000; stroke-linecap:butt; stroke-linejoin:round; stroke-width:4; stroke-opacity:1; fill:none" points="
  112.177,227.451 131.075,227.451 
  "/>
<path clip-path="url(#clip780)" d="M56.2699 1162.66 L63.9087 1162.66 L63.9087 1136.3 L55.5986 1137.96 L55.5986 1133.7 L63.8624 1132.04 L68.5383 1132.04 L68.5383 1162.66 L76.1772 1162.66 L76.1772 1166.6 L56.2699 1166.6 L56.2699 1162.66 Z" fill="#000000" fill-rule="evenodd" fill-opacity="1" /><path clip-path="url(#clip780)" d="M59.8578 855.373 L76.1772 855.373 L76.1772 859.308 L54.2328 859.308 L54.2328 855.373 Q56.8949 852.618 61.4782 847.989 Q66.0846 843.336 67.2652 841.993 Q69.5105 839.47 70.3902 837.734 Q71.2929 835.975 71.2929 834.285 Q71.2929 831.53 69.3485 829.794 Q67.4272 828.058 64.3254 828.058 Q62.1263 828.058 59.6726 828.822 Q57.2421 829.586 54.4643 831.137 L54.4643 826.415 Q57.2884 825.28 59.7421 824.702 Q62.1958 824.123 64.2328 824.123 Q69.6031 824.123 72.7976 826.808 Q75.992 829.493 75.992 833.984 Q75.992 836.114 75.1818 838.035 Q74.3948 839.933 72.2883 842.526 Q71.7096 843.197 68.6078 846.415 Q65.5059 849.609 59.8578 855.373 Z" fill="#000000" fill-rule="evenodd" fill-opacity="1" /><path clip-path="url(#clip780)" d="M69.0476 533.385 Q72.404 534.103 74.279 536.372 Q76.1772 538.64 76.1772 541.973 Q76.1772 547.089 72.6587 549.89 Q69.1402 552.691 62.6587 552.691 Q60.4828 552.691 58.168 552.251 Q55.8764 551.834 53.4227 550.978 L53.4227 546.464 Q55.3671 547.598 57.6819 548.177 Q59.9967 548.756 62.5198 548.756 Q66.918 548.756 69.2096 547.02 Q71.5244 545.284 71.5244 541.973 Q71.5244 538.918 69.3717 537.205 Q67.242 535.469 63.4226 535.469 L59.3949 535.469 L59.3949 531.626 L63.6078 531.626 Q67.0569 531.626 68.8855 530.26 Q70.7142 528.872 70.7142 526.279 Q70.7142 523.617 68.8161 522.205 Q66.9411 520.77 63.4226 520.77 Q61.5013 520.77 59.3023 521.186 Q57.1032 521.603 54.4643 522.483 L54.4643 518.316 Q57.1264 517.575 59.4412 517.205 Q61.7791 516.835 63.8393 516.835 Q69.1633 516.835 72.2652 519.265 Q75.367 521.673 75.367 525.793 Q75.367 528.663 73.7235 530.654 Q72.08 532.622 69.0476 533.385 Z" fill="#000000" fill-rule="evenodd" fill-opacity="1" /><path clip-path="url(#clip780)" d="M66.5939 214.245 L54.7884 232.694 L66.5939 232.694 L66.5939 214.245 M65.367 210.171 L71.2466 210.171 L71.2466 232.694 L76.1772 232.694 L76.1772 236.583 L71.2466 236.583 L71.2466 244.731 L66.5939 244.731 L66.5939 236.583 L50.9921 236.583 L50.9921 232.069 L65.367 210.171 Z" fill="#000000" fill-rule="evenodd" fill-opacity="1" /><polyline clip-path="url(#clip782)" style="stroke:#009af9; stroke-linecap:butt; stroke-linejoin:round; stroke-width:4; stroke-opacity:1; fill:none" points="
  112.177,1302.96 112.969,1307.2 113.754,1304.83 114.638,1307.95 115.632,1312.83 116.75,1312.92 118.008,1310.6 119.423,1310.64 121.016,1312.65 122.807,1315.91 
  124.822,1320.79 127.089,1323.34 129.64,1323.2 132.509,1323.86 135.737,1338.63 139.368,1343.95 143.454,1337.73 148.05,1337.12 153.22,1340.29 159.037,1344.68 
  165.581,1345.47 172.943,1342 181.225,1348.97 190.543,1351.03 201.025,1350.46 212.817,1340.03 226.084,1345.09 241.009,1353.45 257.799,1354.73 276.688,1356.54 
  297.939,1355.87 321.845,1363.65 348.74,1363.98 378.997,1354.38 413.036,1370.34 451.33,1361.45 494.411,1380.65 535.902,1384.23 582.579,1369.32 635.091,1373.38 
  688.306,1356.63 748.172,1338.12 815.522,1296.52 891.29,1252.25 976.529,1223.61 1047.97,1239.81 1117.55,1214.44 1195.82,1134.39 1283.89,1155.65 1329.5,1100.32 
  1380.82,1034.92 1438.55,878.433 1492.82,976.983 1535.86,985.957 1584.29,976.668 1633.18,865.019 1688.19,556.589 1736.92,530.705 1786.41,484.656 1842.09,193.506 
  1899.52,131.962 1953.62,92.0517 2004.96,87.6055 2057.73,399.726 2105.14,577.685 2149.21,243.194 2198.79,227.861 2242.2,361.013 2283.35,260.095 2329.63,549.01 
  2352.76,534.658 
  "/>
<polyline clip-path="url(#clip782)" style="stroke:#e26f46; stroke-linecap:butt; stroke-linejoin:round; stroke-width:4; stroke-opacity:1; fill:none" points="
  112.177,1302.96 112.969,1307.2 113.754,1304.83 114.638,1307.95 115.632,1312.83 116.75,1312.92 118.008,1310.6 119.423,1310.64 121.016,1312.65 122.807,1315.91 
  124.822,1320.79 127.089,1323.34 129.64,1323.2 132.509,1323.86 135.737,1338.63 139.368,1343.95 143.454,1337.72 148.05,1337.11 153.22,1340.28 159.037,1344.68 
  165.581,1345.47 172.943,1341.99 181.225,1348.97 190.543,1351.03 201.025,1350.46 212.817,1340.03 226.084,1345.09 241.009,1353.45 257.799,1354.74 276.688,1356.55 
  297.939,1355.88 321.845,1363.67 348.74,1364.01 378.997,1354.4 413.036,1370.37 451.33,1361.47 494.411,1380.65 535.902,1384.24 582.579,1369.32 635.091,1373.4 
  688.306,1356.64 748.172,1338.11 815.522,1296.41 891.29,1252.02 976.529,1223.33 1047.97,1239.69 1117.55,1214.3 1195.82,1134 1283.89,1155.58 1329.5,1100.18 
  1380.82,1034.68 1438.55,877.826 1492.82,976.571 1535.86,985.64 1584.29,976.419 1633.18,864.572 1688.19,555.312 1736.92,529.517 1786.41,483.499 1842.09,191.533 
  1899.52,130.079 1953.62,90.3436 2004.96,86.1857 2057.73,398.083 2105.14,576.405 2149.21,241.006 2198.79,225.864 2242.2,359.501 2283.35,258.425 2329.63,546.972 
  2352.76,532.618 
  "/>
<path clip-path="url(#clip780)" d="
M1801.5 248.629 L2278.07 248.629 L2278.07 93.1086 L1801.5 93.1086  Z
  " fill="#ffffff" fill-rule="evenodd" fill-opacity="1"/>
<polyline clip-path="url(#clip780)" style="stroke:#000000; stroke-linecap:butt; stroke-linejoin:round; stroke-width:4; stroke-opacity:1; fill:none" points="
  1801.5,248.629 2278.07,248.629 2278.07,93.1086 1801.5,93.1086 1801.5,248.629 
  "/>
<polyline clip-path="url(#clip780)" style="stroke:#009af9; stroke-linecap:butt; stroke-linejoin:round; stroke-width:4; stroke-opacity:1; fill:none" points="
  1826.4,144.949 1975.77,144.949 
  "/>
<path clip-path="url(#clip780)" d="M2000.66 151.997 L2000.66 136.303 L2004.92 136.303 L2004.92 151.835 Q2004.92 155.516 2006.36 157.368 Q2007.79 159.196 2010.66 159.196 Q2014.11 159.196 2016.1 156.997 Q2018.12 154.798 2018.12 151.002 L2018.12 136.303 L2022.38 136.303 L2022.38 162.229 L2018.12 162.229 L2018.12 158.247 Q2016.57 160.608 2014.51 161.766 Q2012.47 162.9 2009.76 162.9 Q2005.29 162.9 2002.98 160.122 Q2000.66 157.344 2000.66 151.997 M2011.38 135.678 L2011.38 135.678 Z" fill="#000000" fill-rule="evenodd" fill-opacity="1" /><path clip-path="url(#clip780)" d="M2032.56 158.293 L2040.2 158.293 L2040.2 131.928 L2031.89 133.595 L2031.89 129.335 L2040.16 127.669 L2044.83 127.669 L2044.83 158.293 L2052.47 158.293 L2052.47 162.229 L2032.56 162.229 L2032.56 158.293 Z" fill="#000000" fill-rule="evenodd" fill-opacity="1" /><path clip-path="url(#clip780)" d="M2071.54 126.257 Q2068.44 131.581 2066.94 136.789 Q2065.43 141.997 2065.43 147.344 Q2065.43 152.692 2066.94 157.946 Q2068.47 163.178 2071.54 168.479 L2067.84 168.479 Q2064.37 163.039 2062.63 157.784 Q2060.92 152.53 2060.92 147.344 Q2060.92 142.182 2062.63 136.951 Q2064.35 131.72 2067.84 126.257 L2071.54 126.257 Z" fill="#000000" fill-rule="evenodd" fill-opacity="1" /><path clip-path="url(#clip780)" d="M2084.02 128.942 L2084.02 136.303 L2092.79 136.303 L2092.79 139.613 L2084.02 139.613 L2084.02 153.687 Q2084.02 156.858 2084.88 157.761 Q2085.76 158.664 2088.42 158.664 L2092.79 158.664 L2092.79 162.229 L2088.42 162.229 Q2083.49 162.229 2081.61 160.4 Q2079.74 158.548 2079.74 153.687 L2079.74 139.613 L2076.61 139.613 L2076.61 136.303 L2079.74 136.303 L2079.74 128.942 L2084.02 128.942 Z" fill="#000000" fill-rule="evenodd" fill-opacity="1" /><path clip-path="url(#clip780)" d="M2097.72 126.257 L2101.43 126.257 Q2104.9 131.72 2106.61 136.951 Q2108.35 142.182 2108.35 147.344 Q2108.35 152.53 2106.61 157.784 Q2104.9 163.039 2101.43 168.479 L2097.72 168.479 Q2100.8 163.178 2102.31 157.946 Q2103.84 152.692 2103.84 147.344 Q2103.84 141.997 2102.31 136.789 Q2100.8 131.581 2097.72 126.257 Z" fill="#000000" fill-rule="evenodd" fill-opacity="1" /><polyline clip-path="url(#clip780)" style="stroke:#e26f46; stroke-linecap:butt; stroke-linejoin:round; stroke-width:4; stroke-opacity:1; fill:none" points="
  1826.4,196.789 1975.77,196.789 
  "/>
<path clip-path="url(#clip780)" d="M2000.66 179.509 L2029.9 179.509 L2029.9 183.444 L2017.63 183.444 L2017.63 214.069 L2012.93 214.069 L2012.93 183.444 L2000.66 183.444 L2000.66 179.509 Z" fill="#000000" fill-rule="evenodd" fill-opacity="1" /><path clip-path="url(#clip780)" d="M2042.28 192.124 Q2041.57 191.708 2040.71 191.522 Q2039.88 191.314 2038.86 191.314 Q2035.25 191.314 2033.3 193.675 Q2031.38 196.013 2031.38 200.411 L2031.38 214.069 L2027.1 214.069 L2027.1 188.143 L2031.38 188.143 L2031.38 192.171 Q2032.72 189.809 2034.88 188.675 Q2037.03 187.518 2040.11 187.518 Q2040.55 187.518 2041.08 187.587 Q2041.61 187.634 2042.26 187.749 L2042.28 192.124 Z" fill="#000000" fill-rule="evenodd" fill-opacity="1" /><path clip-path="url(#clip780)" d="M2046.31 203.837 L2046.31 188.143 L2050.57 188.143 L2050.57 203.675 Q2050.57 207.356 2052.01 209.208 Q2053.44 211.036 2056.31 211.036 Q2059.76 211.036 2061.75 208.837 Q2063.77 206.638 2063.77 202.842 L2063.77 188.143 L2068.03 188.143 L2068.03 214.069 L2063.77 214.069 L2063.77 210.087 Q2062.22 212.448 2060.16 213.606 Q2058.12 214.74 2055.41 214.74 Q2050.94 214.74 2048.63 211.962 Q2046.31 209.184 2046.31 203.837 M2057.03 187.518 L2057.03 187.518 Z" fill="#000000" fill-rule="evenodd" fill-opacity="1" /><path clip-path="url(#clip780)" d="M2098.97 200.041 L2098.97 202.124 L2079.39 202.124 Q2079.67 206.522 2082.03 208.837 Q2084.41 211.129 2088.65 211.129 Q2091.1 211.129 2093.4 210.527 Q2095.71 209.925 2097.98 208.721 L2097.98 212.749 Q2095.69 213.721 2093.28 214.231 Q2090.87 214.74 2088.4 214.74 Q2082.19 214.74 2078.56 211.129 Q2074.95 207.518 2074.95 201.36 Q2074.95 194.995 2078.37 191.268 Q2081.82 187.518 2087.66 187.518 Q2092.89 187.518 2095.92 190.897 Q2098.97 194.254 2098.97 200.041 M2094.72 198.791 Q2094.67 195.296 2092.75 193.212 Q2090.85 191.129 2087.7 191.129 Q2084.14 191.129 2081.98 193.143 Q2079.85 195.157 2079.53 198.814 L2094.72 198.791 Z" fill="#000000" fill-rule="evenodd" fill-opacity="1" /><path clip-path="url(#clip780)" d="M2120.59 203.837 L2120.59 188.143 L2124.85 188.143 L2124.85 203.675 Q2124.85 207.356 2126.29 209.208 Q2127.72 211.036 2130.59 211.036 Q2134.04 211.036 2136.03 208.837 Q2138.05 206.638 2138.05 202.842 L2138.05 188.143 L2142.31 188.143 L2142.31 214.069 L2138.05 214.069 L2138.05 210.087 Q2136.5 212.448 2134.44 213.606 Q2132.4 214.74 2129.69 214.74 Q2125.22 214.74 2122.91 211.962 Q2120.59 209.184 2120.59 203.837 M2131.31 187.518 L2131.31 187.518 Z" fill="#000000" fill-rule="evenodd" fill-opacity="1" /><path clip-path="url(#clip780)" d="M2152.49 210.133 L2160.13 210.133 L2160.13 183.768 L2151.82 185.435 L2151.82 181.175 L2160.09 179.509 L2164.76 179.509 L2164.76 210.133 L2172.4 210.133 L2172.4 214.069 L2152.49 214.069 L2152.49 210.133 Z" fill="#000000" fill-rule="evenodd" fill-opacity="1" /><path clip-path="url(#clip780)" d="M2191.47 178.097 Q2188.37 183.421 2186.87 188.629 Q2185.36 193.837 2185.36 199.184 Q2185.36 204.532 2186.87 209.786 Q2188.4 215.018 2191.47 220.319 L2187.77 220.319 Q2184.3 214.879 2182.56 209.624 Q2180.85 204.37 2180.85 199.184 Q2180.85 194.022 2182.56 188.791 Q2184.27 183.56 2187.77 178.097 L2191.47 178.097 Z" fill="#000000" fill-rule="evenodd" fill-opacity="1" /><path clip-path="url(#clip780)" d="M2203.95 180.782 L2203.95 188.143 L2212.72 188.143 L2212.72 191.453 L2203.95 191.453 L2203.95 205.527 Q2203.95 208.698 2204.81 209.601 Q2205.69 210.504 2208.35 210.504 L2212.72 210.504 L2212.72 214.069 L2208.35 214.069 Q2203.42 214.069 2201.54 212.24 Q2199.67 210.388 2199.67 205.527 L2199.67 191.453 L2196.54 191.453 L2196.54 188.143 L2199.67 188.143 L2199.67 180.782 L2203.95 180.782 Z" fill="#000000" fill-rule="evenodd" fill-opacity="1" /><path clip-path="url(#clip780)" d="M2217.65 178.097 L2221.36 178.097 Q2224.83 183.56 2226.54 188.791 Q2228.28 194.022 2228.28 199.184 Q2228.28 204.37 2226.54 209.624 Q2224.83 214.879 2221.36 220.319 L2217.65 220.319 Q2220.73 215.018 2222.24 209.786 Q2223.77 204.532 2223.77 199.184 Q2223.77 193.837 2222.24 188.629 Q2220.73 183.421 2217.65 178.097 Z" fill="#000000" fill-rule="evenodd" fill-opacity="1" /></svg>
