<?xml version="1.0" encoding="utf-8"?>
<svg xmlns="http://www.w3.org/2000/svg" xmlns:xlink="http://www.w3.org/1999/xlink" width="600" height="400" viewBox="0 0 2400 1600">
<defs>
  <clipPath id="clip940">
    <rect x="0" y="0" width="2400" height="1600"/>
  </clipPath>
</defs>
<path clip-path="url(#clip940)" d="
M0 1600 L2400 1600 L2400 0 L0 0  Z
  " fill="#ffffff" fill-rule="evenodd" fill-opacity="1"/>
<defs>
  <clipPath id="clip941">
    <rect x="480" y="0" width="1681" height="1600"/>
  </clipPath>
</defs>
<path clip-path="url(#clip940)" d="
M139.446 1423.18 L2352.76 1423.18 L2352.76 47.2441 L139.446 47.2441  Z
  " fill="#ffffff" fill-rule="evenodd" fill-opacity="1"/>
<defs>
  <clipPath id="clip942">
    <rect x="139" y="47" width="2214" height="1377"/>
  </clipPath>
</defs>
<polyline clip-path="url(#clip942)" style="stroke:#000000; stroke-linecap:butt; stroke-linejoin:round; stroke-width:2; stroke-opacity:0.1; fill:none" points="
  139.446,1423.18 139.446,47.2441 
  "/>
<polyline clip-path="url(#clip942)" style="stroke:#000000; stroke-linecap:butt; stroke-linejoin:round; stroke-width:2; stroke-opacity:0.1; fill:none" points="
  582.108,1423.18 582.108,47.2441 
  "/>
<polyline clip-path="url(#clip942)" style="stroke:#000000; stroke-linecap:butt; stroke-linejoin:round; stroke-width:2; stroke-opacity:0.1; fill:none" points="
  1024.77,1423.18 1024.77,47.2441 
  "/>
<polyline clip-path="url(#clip942)" style="stroke:#000000; stroke-linecap:butt; stroke-linejoin:round; stroke-width:2; stroke-opacity:0.1; fill:none" points="
  1467.43,1423.18 1467.43,47.2441 
  "/>
<polyline clip-path="url(#clip942)" style="stroke:#000000; stroke-linecap:butt; stroke-linejoin:round; stroke-width:2; stroke-opacity:0.1; fill:none" points="
  1910.09,1423.18 1910.09,47.2441 
  "/>
<polyline clip-path="url(#clip942)" style="stroke:#000000; stroke-linecap:butt; stroke-linejoin:round; stroke-width:2; stroke-opacity:0.1; fill:none" points="
  2352.76,1423.18 2352.76,47.2441 
  "/>
<polyline clip-path="url(#clip940)" style="stroke:#000000; stroke-linecap:butt; stroke-linejoin:round; stroke-width:4; stroke-opacity:1; fill:none" points="
  139.446,1423.18 2352.76,1423.18 
  "/>
<polyline clip-path="url(#clip940)" style="stroke:#000000; stroke-linecap:butt; stroke-linejoin:round; stroke-width:4; stroke-opacity:1; fill:none" points="
  139.446,1423.18 139.446,1404.28 
  "/>
<polyline clip-path="url(#clip940)" style="stroke:#000000; stroke-linecap:butt; stroke-linejoin:round; stroke-width:4; stroke-opacity:1; fill:none" points="
  582.108,1423.18 582.108,1404.28 
  "/>
<polyline clip-path="url(#clip940)" style="stroke:#000000; stroke-linecap:butt; stroke-linejoin:round; stroke-width:4; stroke-opacity:1; fill:none" points="
  1024.77,1423.18 1024.77,1404.28 
  "/>
<polyline clip-path="url(#clip940)" style="stroke:#000000; stroke-linecap:butt; stroke-linejoin:round; stroke-width:4; stroke-opacity:1; fill:none" points="
  1467.43,1423.18 1467.43,1404.28 
  "/>
<polyline clip-path="url(#clip940)" style="stroke:#000000; stroke-linecap:butt; stroke-linejoin:round; stroke-width:4; stroke-opacity:1; fill:none" points="
  1910.09,1423.18 1910.09,1404.28 
  "/>
<polyline clip-path="url(#clip940)" style="stroke:#000000; stroke-linecap:butt; stroke-linejoin:round; stroke-width:4; stroke-opacity:1; fill:none" points="
  2352.76,1423.18 2352.76,1404.28 
  "/>
<path clip-path="url(#clip940)" d="M139.446 1454.1 Q135.834 1454.1 134.006 1457.66 Q132.2 1461.2 132.2 1468.33 Q132.2 1475.44 134.006 1479.01 Q135.834 1482.55 139.446 1482.55 Q143.08 1482.55 144.885 1479.01 Q146.714 1475.44 146.714 1468.33 Q146.714 1461.2 144.885 1457.66 Q143.08 1454.1 139.446 1454.1 M139.446 1450.39 Q145.256 1450.39 148.311 1455 Q151.39 1459.58 151.39 1468.33 Q151.39 1477.06 148.311 1481.67 Q145.256 1486.25 139.446 1486.25 Q133.635 1486.25 130.557 1481.67 Q127.501 1477.06 127.501 1468.33 Q127.501 1459.58 130.557 1455 Q133.635 1450.39 139.446 1450.39 Z" fill="#000000" fill-rule="evenodd" fill-opacity="1" /><path clip-path="url(#clip940)" d="M572.49 1481.64 L580.128 1481.64 L580.128 1455.28 L571.818 1456.95 L571.818 1452.69 L580.082 1451.02 L584.758 1451.02 L584.758 1481.64 L592.397 1481.64 L592.397 1485.58 L572.49 1485.58 L572.49 1481.64 Z" fill="#000000" fill-rule="evenodd" fill-opacity="1" /><path clip-path="url(#clip940)" d="M1019.42 1481.64 L1035.74 1481.64 L1035.74 1485.58 L1013.8 1485.58 L1013.8 1481.64 Q1016.46 1478.89 1021.04 1474.26 Q1025.65 1469.61 1026.83 1468.27 Q1029.08 1465.74 1029.95 1464.01 Q1030.86 1462.25 1030.86 1460.56 Q1030.86 1457.8 1028.91 1456.07 Q1026.99 1454.33 1023.89 1454.33 Q1021.69 1454.33 1019.24 1455.09 Q1016.81 1455.86 1014.03 1457.41 L1014.03 1452.69 Q1016.85 1451.55 1019.31 1450.97 Q1021.76 1450.39 1023.8 1450.39 Q1029.17 1450.39 1032.36 1453.08 Q1035.56 1455.77 1035.56 1460.26 Q1035.56 1462.39 1034.75 1464.31 Q1033.96 1466.2 1031.85 1468.8 Q1031.27 1469.47 1028.17 1472.69 Q1025.07 1475.88 1019.42 1481.64 Z" fill="#000000" fill-rule="evenodd" fill-opacity="1" /><path clip-path="url(#clip940)" d="M1471.68 1466.95 Q1475.04 1467.66 1476.91 1469.93 Q1478.81 1472.2 1478.81 1475.53 Q1478.81 1480.65 1475.29 1483.45 Q1471.77 1486.25 1465.29 1486.25 Q1463.11 1486.25 1460.8 1485.81 Q1458.51 1485.39 1456.05 1484.54 L1456.05 1480.02 Q1458 1481.16 1460.31 1481.74 Q1462.63 1482.32 1465.15 1482.32 Q1469.55 1482.32 1471.84 1480.58 Q1474.16 1478.84 1474.16 1475.53 Q1474.16 1472.48 1472 1470.77 Q1469.87 1469.03 1466.05 1469.03 L1462.03 1469.03 L1462.03 1465.19 L1466.24 1465.19 Q1469.69 1465.19 1471.52 1463.82 Q1473.35 1462.43 1473.35 1459.84 Q1473.35 1457.18 1471.45 1455.77 Q1469.57 1454.33 1466.05 1454.33 Q1464.13 1454.33 1461.93 1454.75 Q1459.74 1455.16 1457.1 1456.04 L1457.1 1451.88 Q1459.76 1451.14 1462.07 1450.77 Q1464.41 1450.39 1466.47 1450.39 Q1471.8 1450.39 1474.9 1452.83 Q1478 1455.23 1478 1459.35 Q1478 1462.22 1476.36 1464.21 Q1474.71 1466.18 1471.68 1466.95 Z" fill="#000000" fill-rule="evenodd" fill-opacity="1" /><path clip-path="url(#clip940)" d="M1913.1 1455.09 L1901.3 1473.54 L1913.1 1473.54 L1913.1 1455.09 M1911.88 1451.02 L1917.76 1451.02 L1917.76 1473.54 L1922.69 1473.54 L1922.69 1477.43 L1917.76 1477.43 L1917.76 1485.58 L1913.1 1485.58 L1913.1 1477.43 L1897.5 1477.43 L1897.5 1472.92 L1911.88 1451.02 Z" fill="#000000" fill-rule="evenodd" fill-opacity="1" /><path clip-path="url(#clip940)" d="M2343.03 1451.02 L2361.39 1451.02 L2361.39 1454.96 L2347.32 1454.96 L2347.32 1463.43 Q2348.33 1463.08 2349.35 1462.92 Q2350.37 1462.73 2351.39 1462.73 Q2357.18 1462.73 2360.56 1465.9 Q2363.94 1469.08 2363.94 1474.49 Q2363.94 1480.07 2360.46 1483.17 Q2356.99 1486.25 2350.67 1486.25 Q2348.5 1486.25 2346.23 1485.88 Q2343.98 1485.51 2341.58 1484.77 L2341.58 1480.07 Q2343.66 1481.2 2345.88 1481.76 Q2348.1 1482.32 2350.58 1482.32 Q2354.58 1482.32 2356.92 1480.21 Q2359.26 1478.1 2359.26 1474.49 Q2359.26 1470.88 2356.92 1468.77 Q2354.58 1466.67 2350.58 1466.67 Q2348.71 1466.67 2346.83 1467.08 Q2344.98 1467.5 2343.03 1468.38 L2343.03 1451.02 Z" fill="#000000" fill-rule="evenodd" fill-opacity="1" /><path clip-path="url(#clip940)" d="M1245.16 1522.27 L1245.16 1532.4 L1257.22 1532.4 L1257.22 1536.95 L1245.16 1536.95 L1245.16 1556.3 Q1245.16 1560.66 1246.34 1561.9 Q1247.55 1563.14 1251.21 1563.14 L1257.22 1563.14 L1257.22 1568.04 L1251.21 1568.04 Q1244.43 1568.04 1241.85 1565.53 Q1239.27 1562.98 1239.27 1556.3 L1239.27 1536.95 L1234.98 1536.95 L1234.98 1532.4 L1239.27 1532.4 L1239.27 1522.27 L1245.16 1522.27 Z" fill="#000000" fill-rule="evenodd" fill-opacity="1" /><polyline clip-path="url(#clip942)" style="stroke:#000000; stroke-linecap:butt; stroke-linejoin:round; stroke-width:2; stroke-opacity:0.1; fill:none" points="
  139.446,1271.35 2352.76,1271.35 
  "/>
<polyline clip-path="url(#clip942)" style="stroke:#000000; stroke-linecap:butt; stroke-linejoin:round; stroke-width:2; stroke-opacity:0.1; fill:none" points="
  139.446,1088.3 2352.76,1088.3 
  "/>
<polyline clip-path="url(#clip942)" style="stroke:#000000; stroke-linecap:butt; stroke-linejoin:round; stroke-width:2; stroke-opacity:0.1; fill:none" points="
  139.446,905.236 2352.76,905.236 
  "/>
<polyline clip-path="url(#clip942)" style="stroke:#000000; stroke-linecap:butt; stroke-linejoin:round; stroke-width:2; stroke-opacity:0.1; fill:none" points="
  139.446,722.176 2352.76,722.176 
  "/>
<polyline clip-path="url(#clip942)" style="stroke:#000000; stroke-linecap:butt; stroke-linejoin:round; stroke-width:2; stroke-opacity:0.1; fill:none" points="
  139.446,539.117 2352.76,539.117 
  "/>
<polyline clip-path="url(#clip942)" style="stroke:#000000; stroke-linecap:butt; stroke-linejoin:round; stroke-width:2; stroke-opacity:0.1; fill:none" points="
  139.446,356.057 2352.76,356.057 
  "/>
<polyline clip-path="url(#clip942)" style="stroke:#000000; stroke-linecap:butt; stroke-linejoin:round; stroke-width:2; stroke-opacity:0.1; fill:none" points="
  139.446,172.998 2352.76,172.998 
  "/>
<polyline clip-path="url(#clip940)" style="stroke:#000000; stroke-linecap:butt; stroke-linejoin:round; stroke-width:4; stroke-opacity:1; fill:none" points="
  139.446,1423.18 139.446,47.2441 
  "/>
<polyline clip-path="url(#clip940)" style="stroke:#000000; stroke-linecap:butt; stroke-linejoin:round; stroke-width:4; stroke-opacity:1; fill:none" points="
  139.446,1271.35 158.343,1271.35 
  "/>
<polyline clip-path="url(#clip940)" style="stroke:#000000; stroke-linecap:butt; stroke-linejoin:round; stroke-width:4; stroke-opacity:1; fill:none" points="
  139.446,1088.3 158.343,1088.3 
  "/>
<polyline clip-path="url(#clip940)" style="stroke:#000000; stroke-linecap:butt; stroke-linejoin:round; stroke-width:4; stroke-opacity:1; fill:none" points="
  139.446,905.236 158.343,905.236 
  "/>
<polyline clip-path="url(#clip940)" style="stroke:#000000; stroke-linecap:butt; stroke-linejoin:round; stroke-width:4; stroke-opacity:1; fill:none" points="
  139.446,722.176 158.343,722.176 
  "/>
<polyline clip-path="url(#clip940)" style="stroke:#000000; stroke-linecap:butt; stroke-linejoin:round; stroke-width:4; stroke-opacity:1; fill:none" points="
  139.446,539.117 158.343,539.117 
  "/>
<polyline clip-path="url(#clip940)" style="stroke:#000000; stroke-linecap:butt; stroke-linejoin:round; stroke-width:4; stroke-opacity:1; fill:none" points="
  139.446,356.057 158.343,356.057 
  "/>
<polyline clip-path="url(#clip940)" style="stroke:#000000; stroke-linecap:butt; stroke-linejoin:round; stroke-width:4; stroke-opacity:1; fill:none" points="
  139.446,172.998 158.343,172.998 
  "/>
<path clip-path="url(#clip940)" d="M87.1262 1284.7 L103.446 1284.7 L103.446 1288.63 L81.5012 1288.63 L81.5012 1284.7 Q84.1632 1281.94 88.7466 1277.32 Q93.353 1272.66 94.5336 1271.32 Q96.7789 1268.8 97.6585 1267.06 Q98.5613 1265.3 98.5613 1263.61 Q98.5613 1260.86 96.6169 1259.12 Q94.6956 1257.38 91.5938 1257.38 Q89.3947 1257.38 86.941 1258.15 Q84.5105 1258.91 81.7327 1260.46 L81.7327 1255.74 Q84.5568 1254.61 87.0105 1254.03 Q89.4641 1253.45 91.5012 1253.45 Q96.8715 1253.45 100.066 1256.13 Q103.26 1258.82 103.26 1263.31 Q103.26 1265.44 102.45 1267.36 Q101.663 1269.26 99.5567 1271.85 Q98.978 1272.52 95.8761 1275.74 Q92.7743 1278.94 87.1262 1284.7 Z" fill="#000000" fill-rule="evenodd" fill-opacity="1" /><path clip-path="url(#clip940)" d="M93.8623 1075.09 L82.0568 1093.54 L93.8623 1093.54 L93.8623 1075.09 M92.6354 1071.02 L98.515 1071.02 L98.515 1093.54 L103.446 1093.54 L103.446 1097.43 L98.515 1097.43 L98.515 1105.58 L93.8623 1105.58 L93.8623 1097.43 L78.2605 1097.43 L78.2605 1092.91 L92.6354 1071.02 Z" fill="#000000" fill-rule="evenodd" fill-opacity="1" /><path clip-path="url(#clip940)" d="M91.9178 903.372 Q88.7697 903.372 86.9179 905.525 Q85.0892 907.678 85.0892 911.428 Q85.0892 915.155 86.9179 917.33 Q88.7697 919.483 91.9178 919.483 Q95.066 919.483 96.8947 917.33 Q98.7465 915.155 98.7465 911.428 Q98.7465 907.678 96.8947 905.525 Q95.066 903.372 91.9178 903.372 M101.2 888.72 L101.2 892.979 Q99.4409 892.145 97.6354 891.706 Q95.853 891.266 94.0937 891.266 Q89.4641 891.266 87.0105 894.391 Q84.5799 897.516 84.2327 903.835 Q85.5984 901.821 87.6586 900.757 Q89.7188 899.669 92.1956 899.669 Q97.4039 899.669 100.413 902.84 Q103.446 905.988 103.446 911.428 Q103.446 916.752 100.297 919.969 Q97.1493 923.187 91.9178 923.187 Q85.9225 923.187 82.7512 918.604 Q79.5799 913.997 79.5799 905.27 Q79.5799 897.076 83.4688 892.215 Q87.3577 887.331 93.9086 887.331 Q95.6678 887.331 97.4502 887.678 Q99.2558 888.025 101.2 888.72 Z" fill="#000000" fill-rule="evenodd" fill-opacity="1" /><path clip-path="url(#clip940)" d="M91.5938 723.044 Q88.2604 723.044 86.3392 724.827 Q84.441 726.609 84.441 729.734 Q84.441 732.859 86.3392 734.641 Q88.2604 736.424 91.5938 736.424 Q94.9271 736.424 96.8484 734.641 Q98.7696 732.836 98.7696 729.734 Q98.7696 726.609 96.8484 724.827 Q94.9502 723.044 91.5938 723.044 M86.9179 721.053 Q83.9086 720.313 82.2188 718.253 Q80.5522 716.192 80.5522 713.229 Q80.5522 709.086 83.492 706.679 Q86.4549 704.271 91.5938 704.271 Q96.7558 704.271 99.6956 706.679 Q102.635 709.086 102.635 713.229 Q102.635 716.192 100.946 718.253 Q99.2789 720.313 96.2928 721.053 Q99.6724 721.84 101.547 724.132 Q103.446 726.424 103.446 729.734 Q103.446 734.757 100.367 737.442 Q97.3113 740.127 91.5938 740.127 Q85.8762 740.127 82.7975 737.442 Q79.742 734.757 79.742 729.734 Q79.742 726.424 81.6401 724.132 Q83.5382 721.84 86.9179 721.053 M85.2049 713.669 Q85.2049 716.354 86.8716 717.859 Q88.5614 719.364 91.5938 719.364 Q94.603 719.364 96.2928 717.859 Q98.0058 716.354 98.0058 713.669 Q98.0058 710.984 96.2928 709.479 Q94.603 707.975 91.5938 707.975 Q88.5614 707.975 86.8716 709.479 Q85.2049 710.984 85.2049 713.669 Z" fill="#000000" fill-rule="evenodd" fill-opacity="1" /><path clip-path="url(#clip940)" d="M52.1495 552.461 L59.7884 552.461 L59.7884 526.096 L51.4782 527.763 L51.4782 523.503 L59.7421 521.837 L64.418 521.837 L64.418 552.461 L72.0568 552.461 L72.0568 556.397 L52.1495 556.397 L52.1495 552.461 Z" fill="#000000" fill-rule="evenodd" fill-opacity="1" /><path clip-path="url(#clip940)" d="M91.5012 524.915 Q87.8901 524.915 86.0614 528.48 Q84.2558 532.022 84.2558 539.151 Q84.2558 546.258 86.0614 549.823 Q87.8901 553.364 91.5012 553.364 Q95.1354 553.364 96.941 549.823 Q98.7696 546.258 98.7696 539.151 Q98.7696 532.022 96.941 528.48 Q95.1354 524.915 91.5012 524.915 M91.5012 521.212 Q97.3113 521.212 100.367 525.818 Q103.446 530.401 103.446 539.151 Q103.446 547.878 100.367 552.485 Q97.3113 557.068 91.5012 557.068 Q85.691 557.068 82.6123 552.485 Q79.5568 547.878 79.5568 539.151 Q79.5568 530.401 82.6123 525.818 Q85.691 521.212 91.5012 521.212 Z" fill="#000000" fill-rule="evenodd" fill-opacity="1" /><path clip-path="url(#clip940)" d="M53.7467 369.402 L61.3856 369.402 L61.3856 343.036 L53.0754 344.703 L53.0754 340.444 L61.3393 338.777 L66.0152 338.777 L66.0152 369.402 L73.654 369.402 L73.654 373.337 L53.7467 373.337 L53.7467 369.402 Z" fill="#000000" fill-rule="evenodd" fill-opacity="1" /><path clip-path="url(#clip940)" d="M87.1262 369.402 L103.446 369.402 L103.446 373.337 L81.5012 373.337 L81.5012 369.402 Q84.1632 366.647 88.7466 362.018 Q93.353 357.365 94.5336 356.022 Q96.7789 353.499 97.6585 351.763 Q98.5613 350.004 98.5613 348.314 Q98.5613 345.559 96.6169 343.823 Q94.6956 342.087 91.5938 342.087 Q89.3947 342.087 86.941 342.851 Q84.5105 343.615 81.7327 345.166 L81.7327 340.444 Q84.5568 339.309 87.0105 338.731 Q89.4641 338.152 91.5012 338.152 Q96.8715 338.152 100.066 340.837 Q103.26 343.522 103.26 348.013 Q103.26 350.143 102.45 352.064 Q101.663 353.962 99.5567 356.555 Q98.978 357.226 95.8761 360.444 Q92.7743 363.638 87.1262 369.402 Z" fill="#000000" fill-rule="evenodd" fill-opacity="1" /><path clip-path="url(#clip940)" d="M51.6634 186.342 L59.3023 186.342 L59.3023 159.977 L50.9921 161.643 L50.9921 157.384 L59.256 155.718 L63.9319 155.718 L63.9319 186.342 L71.5707 186.342 L71.5707 190.278 L51.6634 190.278 L51.6634 186.342 Z" fill="#000000" fill-rule="evenodd" fill-opacity="1" /><path clip-path="url(#clip940)" d="M93.8623 159.792 L82.0568 178.241 L93.8623 178.241 L93.8623 159.792 M92.6354 155.718 L98.515 155.718 L98.515 178.241 L103.446 178.241 L103.446 182.129 L98.515 182.129 L98.515 190.278 L93.8623 190.278 L93.8623 182.129 L78.2605 182.129 L78.2605 177.616 L92.6354 155.718 Z" fill="#000000" fill-rule="evenodd" fill-opacity="1" /><polyline clip-path="url(#clip942)" style="stroke:#009af9; stroke-linecap:butt; stroke-linejoin:round; stroke-width:4; stroke-opacity:1; fill:none" points="
  139.446,1362.88 143.872,1362.88 148.299,1362.87 152.725,1362.91 157.152,1363.03 161.579,1363.21 166.005,1363.46 170.432,1363.9 174.859,1364.27 179.285,1364.72 
  183.712,1365.08 188.138,1365.27 192.565,1365.69 196.992,1365.92 201.418,1366.35 205.845,1366.79 210.271,1367.17 214.698,1367.7 219.125,1368.25 223.551,1368.92 
  227.978,1369.65 232.405,1370.04 236.831,1370.35 241.258,1370.88 245.684,1371.3 250.111,1371.42 254.538,1371.8 258.964,1372.28 263.391,1372.67 267.818,1373.12 
  272.244,1373.27 276.671,1373.33 281.097,1373.19 285.524,1373.14 289.951,1373.14 294.377,1373.31 298.804,1373.43 303.231,1373.67 307.657,1373.99 312.084,1374.54 
  316.51,1375.06 320.937,1375.7 325.364,1376.14 329.79,1376.52 334.217,1376.79 338.643,1377.19 343.07,1377.7 347.497,1378.01 351.923,1378.16 356.35,1378.32 
  360.777,1378.47 365.203,1378.65 369.63,1378.87 374.056,1379.22 378.483,1379.59 382.91,1380.08 387.336,1380.5 391.763,1381.01 396.19,1381.37 400.616,1381.83 
  405.043,1382.21 409.469,1382.54 413.896,1382.77 418.323,1383.08 422.749,1383.46 427.176,1383.77 431.603,1384.02 436.029,1384.11 440.456,1384.19 444.882,1384.24 
  449.309,1384.13 453.736,1383.88 458.162,1383.7 462.589,1383.51 467.015,1383.53 471.442,1383.4 475.869,1383.46 480.295,1383.2 484.722,1383.09 489.149,1382.76 
  493.575,1382.31 498.002,1381.52 502.428,1380.74 506.855,1379.83 511.282,1378.8 515.708,1377.71 520.135,1376.48 524.562,1375.14 528.988,1373.76 533.415,1372.54 
  537.841,1371.53 542.268,1370.43 546.695,1369.31 551.121,1368.18 555.548,1366.78 559.975,1365.31 564.401,1363.8 568.828,1362.31 573.254,1360.71 577.681,1359.08 
  582.108,1357.26 586.534,1355.43 590.961,1353.65 595.387,1352.06 599.814,1350.29 604.241,1348.52 608.667,1346.55 613.094,1344.52 617.521,1342.44 621.947,1340.31 
  626.374,1338.11 630.8,1335.79 635.227,1333.44 639.654,1331.04 644.08,1328.59 648.507,1326.08 652.934,1323.55 657.36,1321 661.787,1318.44 666.213,1315.78 
  670.64,1313.05 675.067,1310.32 679.493,1307.54 683.92,1304.84 688.347,1302.2 692.773,1299.27 697.2,1296.4 701.626,1293.43 706.053,1290.31 710.48,1287.2 
  714.906,1283.89 719.333,1280.49 723.759,1277.12 728.186,1273.62 732.613,1270.02 737.039,1266.38 741.466,1262.68 745.893,1258.87 750.319,1254.96 754.746,1250.98 
  759.172,1247.2 763.599,1243.38 768.026,1239.51 772.452,1235.57 776.879,1231.68 781.306,1227.92 785.732,1224.09 790.159,1219.94 794.585,1216.06 799.012,1211.66 
  803.439,1206.97 807.865,1202.11 812.292,1197.13 816.719,1192 821.145,1186.8 825.572,1181.6 829.998,1176.48 834.425,1171.06 838.852,1165.49 843.278,1159.79 
  847.705,1154.11 852.131,1148.63 856.558,1142.88 860.985,1137.07 865.411,1131.82 869.838,1127.02 874.265,1123.14 878.691,1119.31 883.118,1114.89 887.544,1110.31 
  891.971,1105.92 896.398,1101.19 900.824,1095.42 905.251,1089.51 909.678,1083.55 914.104,1077.36 918.531,1071.53 922.957,1065.44 927.384,1058.81 931.811,1052.49 
  936.237,1046.28 940.664,1040.33 945.091,1035.66 949.517,1029.78 953.944,1023.17 958.37,1016.23 962.797,1008.54 967.224,1001.05 971.65,993.429 976.077,986.496 
  980.503,978.585 984.93,970.338 989.357,961.301 993.783,951.562 998.21,941.654 1002.64,931.434 1007.06,921.005 1011.49,910.366 1015.92,899.524 1020.34,888.46 
  1024.77,877.141 1029.2,865.597 1033.62,853.865 1038.05,841.865 1042.48,829.614 1046.9,817.119 1051.33,804.374 1055.76,791.771 1060.18,778.967 1064.61,765.803 
  1069.04,752.418 1073.46,739.14 1077.89,725.629 1082.32,712.843 1086.74,700.372 1091.17,687.805 1095.6,676.25 1100.02,665.65 1104.45,655.919 1108.88,644.562 
  1113.3,633.928 1117.73,623.225 1122.16,613.098 1126.58,601.964 1131.01,592.713 1135.44,583.12 1139.86,573.049 1144.29,565.224 1148.72,555.52 1153.14,544.62 
  1157.57,534.968 1161.99,526.629 1166.42,518.044 1170.85,509.909 1175.27,502.312 1179.7,495.584 1184.13,489.035 1188.55,484.909 1192.98,480.044 1197.41,476.586 
  1201.83,472.287 1206.26,467.045 1210.69,458.75 1215.11,451.115 1219.54,443.469 1223.97,439.295 1228.39,433.656 1232.82,423.679 1237.25,417.111 1241.67,412.684 
  1246.1,408.189 1250.53,400.062 1254.95,390.816 1259.38,382.04 1263.81,370.226 1268.23,359.275 1272.66,350.788 1277.09,343.146 1281.51,337.19 1285.94,331.449 
  1290.37,323.764 1294.79,318.069 1299.22,310.257 1303.65,304.647 1308.07,297.621 1312.5,288.536 1316.93,284.078 1321.35,281.642 1325.78,276.788 1330.21,279.227 
  1334.63,276.378 1339.06,278.557 1343.49,280.361 1347.91,282.294 1352.34,281.662 1356.77,282.386 1361.19,280.786 1365.62,280.365 1370.05,282.101 1374.47,284.124 
  1378.9,286.289 1383.33,289.932 1387.75,290.166 1392.18,289.563 1396.61,287.501 1401.03,283.942 1405.46,280.311 1409.89,279.254 1414.31,277.809 1418.74,276.937 
  1423.17,276.839 1427.59,275.926 1432.02,272.073 1436.45,268.352 1440.87,263.294 1445.3,258.484 1449.73,256.334 1454.15,255.454 1458.58,254.843 1463.01,252.167 
  1467.43,250.773 1471.86,251.541 1476.29,251.03 1480.71,252.896 1485.14,256.673 1489.56,263.808 1493.99,268.461 1498.42,272.221 1502.84,276.496 1507.27,281.781 
  1511.7,284.97 1516.12,289.447 1520.55,293.179 1524.98,295.772 1529.4,300.226 1533.83,305.859 1538.26,309.854 1542.68,313.959 1547.11,318.064 1551.54,323.092 
  1555.96,327.805 1560.39,333.299 1564.82,338.447 1569.24,338.705 1573.67,336.36 1578.1,334.85 1582.52,331.542 1586.95,328.315 1591.38,325.041 1595.8,324.067 
  1600.23,319.622 1604.66,316.249 1609.08,312.195 1613.51,307.434 1617.94,304.317 1622.36,299.702 1626.79,294.568 1631.22,290.341 1635.64,283.933 1640.07,279.578 
  1644.5,276 1648.92,276.216 1653.35,276.539 1657.78,278.176 1662.2,283.958 1666.63,289.697 1671.06,298.8 1675.48,306.994 1679.91,313.317 1684.34,319.168 
  1688.76,325.074 1693.19,331.359 1697.62,337.929 1702.04,344.935 1706.47,352.592 1710.9,358.582 1715.32,362.371 1719.75,362.95 1724.18,363.085 1728.6,365.178 
  1733.03,365.78 1737.46,369.343 1741.88,372.773 1746.31,376.873 1750.74,384.413 1755.16,390.647 1759.59,397.733 1764.02,403.435 1768.44,410.813 1772.87,421.299 
  1777.3,430.706 1781.72,439.376 1786.15,450.762 1790.58,464.246 1795,478.969 1799.43,491.003 1803.85,501.842 1808.28,513.151 1812.71,525.193 1817.13,537.148 
  1821.56,547.9 1825.99,558.602 1830.41,568.481 1834.84,578.227 1839.27,586.144 1843.69,593.415 1848.12,596.514 1852.55,600.318 1856.97,604.659 1861.4,609.653 
  1865.83,614.08 1870.25,617.086 1874.68,619.417 1879.11,620.778 1883.53,620.916 1887.96,619.677 1892.39,615.754 1896.81,612.863 1901.24,612.424 1905.67,610.545 
  1910.09,610.771 1914.52,610.686 1918.95,612.801 1923.37,616.812 1927.8,623.433 1932.23,631.293 1936.65,637.554 1941.08,642.769 1945.51,648.479 1949.93,654.645 
  1954.36,660.804 1958.79,667.502 1963.21,675.206 1967.64,679.857 1972.07,683.261 1976.49,685.49 1980.92,687.878 1985.35,690.7 1989.77,692.217 1994.2,695.203 
  1998.63,696.71 2003.05,700.833 2007.48,706.181 2011.91,709.235 2016.33,710.967 2020.76,711.314 2025.19,710.241 2029.61,709.686 2034.04,708.688 2038.47,708.448 
  2042.89,709.914 2047.32,711.022 2051.75,711.755 2056.17,711.381 2060.6,711.791 2065.03,712.908 2069.45,712.88 2073.88,714.378 2078.31,712.423 2082.73,712.462 
  2087.16,712.57 2091.59,711.738 2096.01,709.782 2100.44,706.82 2104.87,702.006 2109.29,696.371 2113.72,688.54 2118.15,679.015 2122.57,668.412 2127,657.95 
  2131.42,646.736 2135.85,635.247 2140.28,623.466 2144.7,610.238 2149.13,596.502 2153.56,583.176 2157.98,570.342 2162.41,557.414 2166.84,544.962 2171.26,532.045 
  2175.69,520.277 2180.12,509.262 2184.54,498.611 2188.97,488.888 2193.4,481.401 2197.82,475.661 2202.25,471.936 2206.68,468.532 2211.1,463.939 2215.53,459.528 
  2219.96,454.435 2224.38,447.982 2228.81,442.337 2233.24,434.998 2237.66,425.696 2242.09,417.861 2246.52,410.683 2250.94,401.045 2255.37,391.626 2259.8,380.193 
  2264.22,369.021 2268.65,357.116 2273.08,343.822 2277.5,328.818 2281.93,313.158 2286.36,297.39 2290.78,282.271 2295.21,265.886 2299.64,250.036 2304.06,234.51 
  2308.49,221.42 2312.92,206.502 2317.34,191.917 2321.77,179.263 2326.2,169.426 2330.62,158.362 2335.05,145.26 2339.48,133.801 2343.9,116.622 2348.33,100.52 
  2352.76,86.1857 
  "/>
<path clip-path="url(#clip940)" d="
M1925.37 196.789 L2278.98 196.789 L2278.98 93.1086 L1925.37 93.1086  Z
  " fill="#ffffff" fill-rule="evenodd" fill-opacity="1"/>
<polyline clip-path="url(#clip940)" style="stroke:#000000; stroke-linecap:butt; stroke-linejoin:round; stroke-width:4; stroke-opacity:1; fill:none" points="
  1925.37,196.789 2278.98,196.789 2278.98,93.1086 1925.37,93.1086 1925.37,196.789 
  "/>
<polyline clip-path="url(#clip940)" style="stroke:#009af9; stroke-linecap:butt; stroke-linejoin:round; stroke-width:4; stroke-opacity:1; fill:none" points="
  1949.96,144.949 2097.52,144.949 
  "/>
<path clip-path="url(#clip940)" d="M2122.11 151.997 L2122.11 136.303 L2126.37 136.303 L2126.37 151.835 Q2126.37 155.516 2127.8 157.368 Q2129.24 159.196 2132.11 159.196 Q2135.56 159.196 2137.55 156.997 Q2139.56 154.798 2139.56 151.002 L2139.56 136.303 L2143.82 136.303 L2143.82 162.229 L2139.56 162.229 L2139.56 158.247 Q2138.01 160.608 2135.95 161.766 Q2133.92 162.9 2131.21 162.9 Q2126.74 162.9 2124.42 160.122 Q2122.11 157.344 2122.11 151.997 M2132.83 135.678 L2132.83 135.678 Z" fill="#000000" fill-rule="evenodd" fill-opacity="1" /><path clip-path="url(#clip940)" d="M2154.01 158.293 L2161.65 158.293 L2161.65 131.928 L2153.34 133.595 L2153.34 129.335 L2161.6 127.669 L2166.28 127.669 L2166.28 158.293 L2173.91 158.293 L2173.91 162.229 L2154.01 162.229 L2154.01 158.293 Z" fill="#000000" fill-rule="evenodd" fill-opacity="1" /><path clip-path="url(#clip940)" d="M2192.99 126.257 Q2189.89 131.581 2188.38 136.789 Q2186.88 141.997 2186.88 147.344 Q2186.88 152.692 2188.38 157.946 Q2189.91 163.178 2192.99 168.479 L2189.29 168.479 Q2185.81 163.039 2184.08 157.784 Q2182.36 152.53 2182.36 147.344 Q2182.36 142.182 2184.08 136.951 Q2185.79 131.72 2189.29 126.257 L2192.99 126.257 Z" fill="#000000" fill-rule="evenodd" fill-opacity="1" /><path clip-path="url(#clip940)" d="M2205.47 128.942 L2205.47 136.303 L2214.24 136.303 L2214.24 139.613 L2205.47 139.613 L2205.47 153.687 Q2205.47 156.858 2206.32 157.761 Q2207.2 158.664 2209.86 158.664 L2214.24 158.664 L2214.24 162.229 L2209.86 162.229 Q2204.93 162.229 2203.06 160.4 Q2201.18 158.548 2201.18 153.687 L2201.18 139.613 L2198.06 139.613 L2198.06 136.303 L2201.18 136.303 L2201.18 128.942 L2205.47 128.942 Z" fill="#000000" fill-rule="evenodd" fill-opacity="1" /><path clip-path="url(#clip940)" d="M2219.17 126.257 L2222.87 126.257 Q2226.35 131.72 2228.06 136.951 Q2229.79 142.182 2229.79 147.344 Q2229.79 152.53 2228.06 157.784 Q2226.35 163.039 2222.87 168.479 L2219.17 168.479 Q2222.25 163.178 2223.75 157.946 Q2225.28 152.692 2225.28 147.344 Q2225.28 141.997 2223.75 136.789 Q2222.25 131.581 2219.17 126.257 Z" fill="#000000" fill-rule="evenodd" fill-opacity="1" /></svg>
