<?xml version="1.0" encoding="utf-8"?>
<svg xmlns="http://www.w3.org/2000/svg" xmlns:xlink="http://www.w3.org/1999/xlink" width="600" height="400" viewBox="0 0 2400 1600">
<defs>
  <clipPath id="clip290">
    <rect x="0" y="0" width="2400" height="1600"/>
  </clipPath>
</defs>
<path clip-path="url(#clip290)" d="
M0 1600 L2400 1600 L2400 0 L0 0  Z
  " fill="#ffffff" fill-rule="evenodd" fill-opacity="1"/>
<defs>
  <clipPath id="clip291">
    <rect x="480" y="0" width="1681" height="1600"/>
  </clipPath>
</defs>
<path clip-path="url(#clip290)" d="
M184.191 1486.45 L2352.76 1486.45 L2352.76 47.2441 L184.191 47.2441  Z
  " fill="#ffffff" fill-rule="evenodd" fill-opacity="1"/>
<defs>
  <clipPath id="clip292">
    <rect x="184" y="47" width="2170" height="1440"/>
  </clipPath>
</defs>
<polyline clip-path="url(#clip292)" style="stroke:#000000; stroke-linecap:butt; stroke-linejoin:round; stroke-width:2; stroke-opacity:0.1; fill:none" points="
  245.565,1486.45 245.565,47.2441 
  "/>
<polyline clip-path="url(#clip292)" style="stroke:#000000; stroke-linecap:butt; stroke-linejoin:round; stroke-width:2; stroke-opacity:0.1; fill:none" points="
  757.019,1486.45 757.019,47.2441 
  "/>
<polyline clip-path="url(#clip292)" style="stroke:#000000; stroke-linecap:butt; stroke-linejoin:round; stroke-width:2; stroke-opacity:0.1; fill:none" points="
  1268.47,1486.45 1268.47,47.2441 
  "/>
<polyline clip-path="url(#clip292)" style="stroke:#000000; stroke-linecap:butt; stroke-linejoin:round; stroke-width:2; stroke-opacity:0.1; fill:none" points="
  1779.93,1486.45 1779.93,47.2441 
  "/>
<polyline clip-path="url(#clip292)" style="stroke:#000000; stroke-linecap:butt; stroke-linejoin:round; stroke-width:2; stroke-opacity:0.1; fill:none" points="
  2291.38,1486.45 2291.38,47.2441 
  "/>
<polyline clip-path="url(#clip290)" style="stroke:#000000; stroke-linecap:butt; stroke-linejoin:round; stroke-width:4; stroke-opacity:1; fill:none" points="
  184.191,1486.45 2352.76,1486.45 
  "/>
<polyline clip-path="url(#clip290)" style="stroke:#000000; stroke-linecap:butt; stroke-linejoin:round; stroke-width:4; stroke-opacity:1; fill:none" points="
  245.565,1486.45 245.565,1467.55 
  "/>
<polyline clip-path="url(#clip290)" style="stroke:#000000; stroke-linecap:butt; stroke-linejoin:round; stroke-width:4; stroke-opacity:1; fill:none" points="
  757.019,1486.45 757.019,1467.55 
  "/>
<polyline clip-path="url(#clip290)" style="stroke:#000000; stroke-linecap:butt; stroke-linejoin:round; stroke-width:4; stroke-opacity:1; fill:none" points="
  1268.47,1486.45 1268.47,1467.55 
  "/>
<polyline clip-path="url(#clip290)" style="stroke:#000000; stroke-linecap:butt; stroke-linejoin:round; stroke-width:4; stroke-opacity:1; fill:none" points="
  1779.93,1486.45 1779.93,1467.55 
  "/>
<polyline clip-path="url(#clip290)" style="stroke:#000000; stroke-linecap:butt; stroke-linejoin:round; stroke-width:4; stroke-opacity:1; fill:none" points="
  2291.38,1486.45 2291.38,1467.55 
  "/>
<path clip-path="url(#clip290)" d="M222.95 1517.37 Q219.338 1517.37 217.51 1520.93 Q215.704 1524.47 215.704 1531.6 Q215.704 1538.71 217.51 1542.27 Q219.338 1545.82 222.95 1545.82 Q226.584 1545.82 228.389 1542.27 Q230.218 1538.71 230.218 1531.6 Q230.218 1524.47 228.389 1520.93 Q226.584 1517.37 222.95 1517.37 M222.95 1513.66 Q228.76 1513.66 231.815 1518.27 Q234.894 1522.85 234.894 1531.6 Q234.894 1540.33 231.815 1544.94 Q228.76 1549.52 222.95 1549.52 Q217.139 1549.52 214.061 1544.94 Q211.005 1540.33 211.005 1531.6 Q211.005 1522.85 214.061 1518.27 Q217.139 1513.66 222.95 1513.66 Z" fill="#000000" fill-rule="evenodd" fill-opacity="1" /><path clip-path="url(#clip290)" d="M243.111 1542.97 L247.996 1542.97 L247.996 1548.85 L243.111 1548.85 L243.111 1542.97 Z" fill="#000000" fill-rule="evenodd" fill-opacity="1" /><path clip-path="url(#clip290)" d="M268.181 1517.37 Q264.57 1517.37 262.741 1520.93 Q260.935 1524.47 260.935 1531.6 Q260.935 1538.71 262.741 1542.27 Q264.57 1545.82 268.181 1545.82 Q271.815 1545.82 273.621 1542.27 Q275.449 1538.71 275.449 1531.6 Q275.449 1524.47 273.621 1520.93 Q271.815 1517.37 268.181 1517.37 M268.181 1513.66 Q273.991 1513.66 277.046 1518.27 Q280.125 1522.85 280.125 1531.6 Q280.125 1540.33 277.046 1544.94 Q273.991 1549.52 268.181 1549.52 Q262.371 1549.52 259.292 1544.94 Q256.236 1540.33 256.236 1531.6 Q256.236 1522.85 259.292 1518.27 Q262.371 1513.66 268.181 1513.66 Z" fill="#000000" fill-rule="evenodd" fill-opacity="1" /><path clip-path="url(#clip290)" d="M728.755 1544.91 L745.075 1544.91 L745.075 1548.85 L723.131 1548.85 L723.131 1544.91 Q725.793 1542.16 730.376 1537.53 Q734.982 1532.88 736.163 1531.53 Q738.408 1529.01 739.288 1527.27 Q740.191 1525.51 740.191 1523.82 Q740.191 1521.07 738.246 1519.33 Q736.325 1517.6 733.223 1517.6 Q731.024 1517.6 728.57 1518.36 Q726.14 1519.13 723.362 1520.68 L723.362 1515.95 Q726.186 1514.82 728.64 1514.24 Q731.093 1513.66 733.13 1513.66 Q738.501 1513.66 741.695 1516.35 Q744.89 1519.03 744.89 1523.52 Q744.89 1525.65 744.079 1527.57 Q743.292 1529.47 741.186 1532.07 Q740.607 1532.74 737.505 1535.95 Q734.404 1539.15 728.755 1544.91 Z" fill="#000000" fill-rule="evenodd" fill-opacity="1" /><path clip-path="url(#clip290)" d="M754.89 1542.97 L759.774 1542.97 L759.774 1548.85 L754.89 1548.85 L754.89 1542.97 Z" fill="#000000" fill-rule="evenodd" fill-opacity="1" /><path clip-path="url(#clip290)" d="M770.005 1514.29 L788.362 1514.29 L788.362 1518.22 L774.288 1518.22 L774.288 1526.7 Q775.306 1526.35 776.325 1526.19 Q777.343 1526 778.362 1526 Q784.149 1526 787.528 1529.17 Q790.908 1532.34 790.908 1537.76 Q790.908 1543.34 787.436 1546.44 Q783.964 1549.52 777.644 1549.52 Q775.468 1549.52 773.2 1549.15 Q770.954 1548.78 768.547 1548.04 L768.547 1543.34 Q770.63 1544.47 772.852 1545.03 Q775.075 1545.58 777.552 1545.58 Q781.556 1545.58 783.894 1543.48 Q786.232 1541.37 786.232 1537.76 Q786.232 1534.15 783.894 1532.04 Q781.556 1529.94 777.552 1529.94 Q775.677 1529.94 773.802 1530.35 Q771.95 1530.77 770.005 1531.65 L770.005 1514.29 Z" fill="#000000" fill-rule="evenodd" fill-opacity="1" /><path clip-path="url(#clip290)" d="M1235.64 1514.29 L1253.99 1514.29 L1253.99 1518.22 L1239.92 1518.22 L1239.92 1526.7 Q1240.94 1526.35 1241.96 1526.19 Q1242.98 1526 1243.99 1526 Q1249.78 1526 1253.16 1529.17 Q1256.54 1532.34 1256.54 1537.76 Q1256.54 1543.34 1253.07 1546.44 Q1249.6 1549.52 1243.28 1549.52 Q1241.1 1549.52 1238.83 1549.15 Q1236.59 1548.78 1234.18 1548.04 L1234.18 1543.34 Q1236.26 1544.47 1238.49 1545.03 Q1240.71 1545.58 1243.18 1545.58 Q1247.19 1545.58 1249.53 1543.48 Q1251.86 1541.37 1251.86 1537.76 Q1251.86 1534.15 1249.53 1532.04 Q1247.19 1529.94 1243.18 1529.94 Q1241.31 1529.94 1239.43 1530.35 Q1237.58 1530.77 1235.64 1531.65 L1235.64 1514.29 Z" fill="#000000" fill-rule="evenodd" fill-opacity="1" /><path clip-path="url(#clip290)" d="M1265.75 1542.97 L1270.64 1542.97 L1270.64 1548.85 L1265.75 1548.85 L1265.75 1542.97 Z" fill="#000000" fill-rule="evenodd" fill-opacity="1" /><path clip-path="url(#clip290)" d="M1290.82 1517.37 Q1287.21 1517.37 1285.38 1520.93 Q1283.58 1524.47 1283.58 1531.6 Q1283.58 1538.71 1285.38 1542.27 Q1287.21 1545.82 1290.82 1545.82 Q1294.46 1545.82 1296.26 1542.27 Q1298.09 1538.71 1298.09 1531.6 Q1298.09 1524.47 1296.26 1520.93 Q1294.46 1517.37 1290.82 1517.37 M1290.82 1513.66 Q1296.63 1513.66 1299.69 1518.27 Q1302.77 1522.85 1302.77 1531.6 Q1302.77 1540.33 1299.69 1544.94 Q1296.63 1549.52 1290.82 1549.52 Q1285.01 1549.52 1281.93 1544.94 Q1278.88 1540.33 1278.88 1531.6 Q1278.88 1522.85 1281.93 1518.27 Q1285.01 1513.66 1290.82 1513.66 Z" fill="#000000" fill-rule="evenodd" fill-opacity="1" /><path clip-path="url(#clip290)" d="M1746.25 1514.29 L1768.47 1514.29 L1768.47 1516.28 L1755.92 1548.85 L1751.04 1548.85 L1762.84 1518.22 L1746.25 1518.22 L1746.25 1514.29 Z" fill="#000000" fill-rule="evenodd" fill-opacity="1" /><path clip-path="url(#clip290)" d="M1777.59 1542.97 L1782.47 1542.97 L1782.47 1548.85 L1777.59 1548.85 L1777.59 1542.97 Z" fill="#000000" fill-rule="evenodd" fill-opacity="1" /><path clip-path="url(#clip290)" d="M1792.71 1514.29 L1811.06 1514.29 L1811.06 1518.22 L1796.99 1518.22 L1796.99 1526.7 Q1798.01 1526.35 1799.02 1526.19 Q1800.04 1526 1801.06 1526 Q1806.85 1526 1810.23 1529.17 Q1813.61 1532.34 1813.61 1537.76 Q1813.61 1543.34 1810.14 1546.44 Q1806.66 1549.52 1800.34 1549.52 Q1798.17 1549.52 1795.9 1549.15 Q1793.65 1548.78 1791.25 1548.04 L1791.25 1543.34 Q1793.33 1544.47 1795.55 1545.03 Q1797.77 1545.58 1800.25 1545.58 Q1804.26 1545.58 1806.59 1543.48 Q1808.93 1541.37 1808.93 1537.76 Q1808.93 1534.15 1806.59 1532.04 Q1804.26 1529.94 1800.25 1529.94 Q1798.38 1529.94 1796.5 1530.35 Q1794.65 1530.77 1792.71 1531.65 L1792.71 1514.29 Z" fill="#000000" fill-rule="evenodd" fill-opacity="1" /><path clip-path="url(#clip290)" d="M2243.45 1544.91 L2251.09 1544.91 L2251.09 1518.55 L2242.78 1520.21 L2242.78 1515.95 L2251.05 1514.29 L2255.72 1514.29 L2255.72 1544.91 L2263.36 1544.91 L2263.36 1548.85 L2243.45 1548.85 L2243.45 1544.91 Z" fill="#000000" fill-rule="evenodd" fill-opacity="1" /><path clip-path="url(#clip290)" d="M2282.81 1517.37 Q2279.19 1517.37 2277.37 1520.93 Q2275.56 1524.47 2275.56 1531.6 Q2275.56 1538.71 2277.37 1542.27 Q2279.19 1545.82 2282.81 1545.82 Q2286.44 1545.82 2288.24 1542.27 Q2290.07 1538.71 2290.07 1531.6 Q2290.07 1524.47 2288.24 1520.93 Q2286.44 1517.37 2282.81 1517.37 M2282.81 1513.66 Q2288.62 1513.66 2291.67 1518.27 Q2294.75 1522.85 2294.75 1531.6 Q2294.75 1540.33 2291.67 1544.94 Q2288.62 1549.52 2282.81 1549.52 Q2276.99 1549.52 2273.92 1544.94 Q2270.86 1540.33 2270.86 1531.6 Q2270.86 1522.85 2273.92 1518.27 Q2276.99 1513.66 2282.81 1513.66 Z" fill="#000000" fill-rule="evenodd" fill-opacity="1" /><path clip-path="url(#clip290)" d="M2302.97 1542.97 L2307.85 1542.97 L2307.85 1548.85 L2302.97 1548.85 L2302.97 1542.97 Z" fill="#000000" fill-rule="evenodd" fill-opacity="1" /><path clip-path="url(#clip290)" d="M2328.04 1517.37 Q2324.43 1517.37 2322.6 1520.93 Q2320.79 1524.47 2320.79 1531.6 Q2320.79 1538.71 2322.6 1542.27 Q2324.43 1545.82 2328.04 1545.82 Q2331.67 1545.82 2333.48 1542.27 Q2335.3 1538.71 2335.3 1531.6 Q2335.3 1524.47 2333.48 1520.93 Q2331.67 1517.37 2328.04 1517.37 M2328.04 1513.66 Q2333.85 1513.66 2336.9 1518.27 Q2339.98 1522.85 2339.98 1531.6 Q2339.98 1540.33 2336.9 1544.94 Q2333.85 1549.52 2328.04 1549.52 Q2322.23 1549.52 2319.15 1544.94 Q2316.09 1540.33 2316.09 1531.6 Q2316.09 1522.85 2319.15 1518.27 Q2322.23 1513.66 2328.04 1513.66 Z" fill="#000000" fill-rule="evenodd" fill-opacity="1" /><polyline clip-path="url(#clip292)" style="stroke:#000000; stroke-linecap:butt; stroke-linejoin:round; stroke-width:2; stroke-opacity:0.1; fill:none" points="
  184.191,1448.18 2352.76,1448.18 
  "/>
<polyline clip-path="url(#clip292)" style="stroke:#000000; stroke-linecap:butt; stroke-linejoin:round; stroke-width:2; stroke-opacity:0.1; fill:none" points="
  184.191,1206.59 2352.76,1206.59 
  "/>
<polyline clip-path="url(#clip292)" style="stroke:#000000; stroke-linecap:butt; stroke-linejoin:round; stroke-width:2; stroke-opacity:0.1; fill:none" points="
  184.191,965 2352.76,965 
  "/>
<polyline clip-path="url(#clip292)" style="stroke:#000000; stroke-linecap:butt; stroke-linejoin:round; stroke-width:2; stroke-opacity:0.1; fill:none" points="
  184.191,723.409 2352.76,723.409 
  "/>
<polyline clip-path="url(#clip292)" style="stroke:#000000; stroke-linecap:butt; stroke-linejoin:round; stroke-width:2; stroke-opacity:0.1; fill:none" points="
  184.191,481.818 2352.76,481.818 
  "/>
<polyline clip-path="url(#clip292)" style="stroke:#000000; stroke-linecap:butt; stroke-linejoin:round; stroke-width:2; stroke-opacity:0.1; fill:none" points="
  184.191,240.226 2352.76,240.226 
  "/>
<polyline clip-path="url(#clip290)" style="stroke:#000000; stroke-linecap:butt; stroke-linejoin:round; stroke-width:4; stroke-opacity:1; fill:none" points="
  184.191,1486.45 184.191,47.2441 
  "/>
<polyline clip-path="url(#clip290)" style="stroke:#000000; stroke-linecap:butt; stroke-linejoin:round; stroke-width:4; stroke-opacity:1; fill:none" points="
  184.191,1448.18 203.088,1448.18 
  "/>
<polyline clip-path="url(#clip290)" style="stroke:#000000; stroke-linecap:butt; stroke-linejoin:round; stroke-width:4; stroke-opacity:1; fill:none" points="
  184.191,1206.59 203.088,1206.59 
  "/>
<polyline clip-path="url(#clip290)" style="stroke:#000000; stroke-linecap:butt; stroke-linejoin:round; stroke-width:4; stroke-opacity:1; fill:none" points="
  184.191,965 203.088,965 
  "/>
<polyline clip-path="url(#clip290)" style="stroke:#000000; stroke-linecap:butt; stroke-linejoin:round; stroke-width:4; stroke-opacity:1; fill:none" points="
  184.191,723.409 203.088,723.409 
  "/>
<polyline clip-path="url(#clip290)" style="stroke:#000000; stroke-linecap:butt; stroke-linejoin:round; stroke-width:4; stroke-opacity:1; fill:none" points="
  184.191,481.818 203.088,481.818 
  "/>
<polyline clip-path="url(#clip290)" style="stroke:#000000; stroke-linecap:butt; stroke-linejoin:round; stroke-width:4; stroke-opacity:1; fill:none" points="
  184.191,240.226 203.088,240.226 
  "/>
<path clip-path="url(#clip290)" d="M91.0151 1433.98 Q87.404 1433.98 85.5753 1437.55 Q83.7697 1441.09 83.7697 1448.22 Q83.7697 1455.32 85.5753 1458.89 Q87.404 1462.43 91.0151 1462.43 Q94.6493 1462.43 96.4548 1458.89 Q98.2835 1455.32 98.2835 1448.22 Q98.2835 1441.09 96.4548 1437.55 Q94.6493 1433.98 91.0151 1433.98 M91.0151 1430.28 Q96.8252 1430.28 99.8808 1434.88 Q102.959 1439.47 102.959 1448.22 Q102.959 1456.94 99.8808 1461.55 Q96.8252 1466.13 91.0151 1466.13 Q85.2049 1466.13 82.1262 1461.55 Q79.0707 1456.94 79.0707 1448.22 Q79.0707 1439.47 82.1262 1434.88 Q85.2049 1430.28 91.0151 1430.28 Z" fill="#000000" fill-rule="evenodd" fill-opacity="1" /><path clip-path="url(#clip290)" d="M111.177 1459.58 L116.061 1459.58 L116.061 1465.46 L111.177 1465.46 L111.177 1459.58 Z" fill="#000000" fill-rule="evenodd" fill-opacity="1" /><path clip-path="url(#clip290)" d="M136.246 1433.98 Q132.635 1433.98 130.807 1437.55 Q129.001 1441.09 129.001 1448.22 Q129.001 1455.32 130.807 1458.89 Q132.635 1462.43 136.246 1462.43 Q139.881 1462.43 141.686 1458.89 Q143.515 1455.32 143.515 1448.22 Q143.515 1441.09 141.686 1437.55 Q139.881 1433.98 136.246 1433.98 M136.246 1430.28 Q142.056 1430.28 145.112 1434.88 Q148.191 1439.47 148.191 1448.22 Q148.191 1456.94 145.112 1461.55 Q142.056 1466.13 136.246 1466.13 Q130.436 1466.13 127.357 1461.55 Q124.302 1456.94 124.302 1448.22 Q124.302 1439.47 127.357 1434.88 Q130.436 1430.28 136.246 1430.28 Z" fill="#000000" fill-rule="evenodd" fill-opacity="1" /><path clip-path="url(#clip290)" d="M86.0382 1219.94 L102.358 1219.94 L102.358 1223.87 L80.4133 1223.87 L80.4133 1219.94 Q83.0753 1217.18 87.6586 1212.55 Q92.2651 1207.9 93.4456 1206.56 Q95.691 1204.03 96.5706 1202.3 Q97.4734 1200.54 97.4734 1198.85 Q97.4734 1196.09 95.5289 1194.36 Q93.6076 1192.62 90.5058 1192.62 Q88.3067 1192.62 85.8531 1193.39 Q83.4225 1194.15 80.6447 1195.7 L80.6447 1190.98 Q83.4688 1189.84 85.9225 1189.27 Q88.3762 1188.69 90.4132 1188.69 Q95.7836 1188.69 98.978 1191.37 Q102.172 1194.06 102.172 1198.55 Q102.172 1200.68 101.362 1202.6 Q100.575 1204.5 98.4687 1207.09 Q97.89 1207.76 94.7882 1210.98 Q91.6864 1214.17 86.0382 1219.94 Z" fill="#000000" fill-rule="evenodd" fill-opacity="1" /><path clip-path="url(#clip290)" d="M112.172 1217.99 L117.057 1217.99 L117.057 1223.87 L112.172 1223.87 L112.172 1217.99 Z" fill="#000000" fill-rule="evenodd" fill-opacity="1" /><path clip-path="url(#clip290)" d="M127.288 1189.31 L145.644 1189.31 L145.644 1193.25 L131.57 1193.25 L131.57 1201.72 Q132.589 1201.37 133.607 1201.21 Q134.626 1201.02 135.644 1201.02 Q141.431 1201.02 144.811 1204.2 Q148.191 1207.37 148.191 1212.78 Q148.191 1218.36 144.718 1221.46 Q141.246 1224.54 134.927 1224.54 Q132.751 1224.54 130.482 1224.17 Q128.237 1223.8 125.83 1223.06 L125.83 1218.36 Q127.913 1219.5 130.135 1220.05 Q132.357 1220.61 134.834 1220.61 Q138.839 1220.61 141.177 1218.5 Q143.515 1216.39 143.515 1212.78 Q143.515 1209.17 141.177 1207.07 Q138.839 1204.96 134.834 1204.96 Q132.959 1204.96 131.084 1205.38 Q129.232 1205.79 127.288 1206.67 L127.288 1189.31 Z" fill="#000000" fill-rule="evenodd" fill-opacity="1" /><path clip-path="url(#clip290)" d="M81.0614 947.72 L99.4178 947.72 L99.4178 951.655 L85.3438 951.655 L85.3438 960.127 Q86.3623 959.78 87.3808 959.618 Q88.3993 959.433 89.4178 959.433 Q95.2049 959.433 98.5845 962.604 Q101.964 965.776 101.964 971.192 Q101.964 976.771 98.4919 979.873 Q95.0197 982.951 88.7003 982.951 Q86.5243 982.951 84.2558 982.581 Q82.0105 982.211 79.6031 981.47 L79.6031 976.771 Q81.6864 977.905 83.9086 978.461 Q86.1308 979.016 88.6077 979.016 Q92.6123 979.016 94.9502 976.91 Q97.2882 974.803 97.2882 971.192 Q97.2882 967.581 94.9502 965.475 Q92.6123 963.368 88.6077 963.368 Q86.7327 963.368 84.8577 963.785 Q83.0058 964.201 81.0614 965.081 L81.0614 947.72 Z" fill="#000000" fill-rule="evenodd" fill-opacity="1" /><path clip-path="url(#clip290)" d="M111.177 976.4 L116.061 976.4 L116.061 982.28 L111.177 982.28 L111.177 976.4 Z" fill="#000000" fill-rule="evenodd" fill-opacity="1" /><path clip-path="url(#clip290)" d="M136.246 950.799 Q132.635 950.799 130.807 954.364 Q129.001 957.905 129.001 965.035 Q129.001 972.141 130.807 975.706 Q132.635 979.248 136.246 979.248 Q139.881 979.248 141.686 975.706 Q143.515 972.141 143.515 965.035 Q143.515 957.905 141.686 954.364 Q139.881 950.799 136.246 950.799 M136.246 947.095 Q142.056 947.095 145.112 951.702 Q148.191 956.285 148.191 965.035 Q148.191 973.762 145.112 978.368 Q142.056 982.951 136.246 982.951 Q130.436 982.951 127.357 978.368 Q124.302 973.762 124.302 965.035 Q124.302 956.285 127.357 951.702 Q130.436 947.095 136.246 947.095 Z" fill="#000000" fill-rule="evenodd" fill-opacity="1" /><path clip-path="url(#clip290)" d="M80.8299 706.129 L103.052 706.129 L103.052 708.12 L90.5058 740.689 L85.6216 740.689 L97.4271 710.064 L80.8299 710.064 L80.8299 706.129 Z" fill="#000000" fill-rule="evenodd" fill-opacity="1" /><path clip-path="url(#clip290)" d="M112.172 734.809 L117.057 734.809 L117.057 740.689 L112.172 740.689 L112.172 734.809 Z" fill="#000000" fill-rule="evenodd" fill-opacity="1" /><path clip-path="url(#clip290)" d="M127.288 706.129 L145.644 706.129 L145.644 710.064 L131.57 710.064 L131.57 718.536 Q132.589 718.189 133.607 718.027 Q134.626 717.842 135.644 717.842 Q141.431 717.842 144.811 721.013 Q148.191 724.184 148.191 729.601 Q148.191 735.18 144.718 738.281 Q141.246 741.36 134.927 741.36 Q132.751 741.36 130.482 740.99 Q128.237 740.619 125.83 739.879 L125.83 735.18 Q127.913 736.314 130.135 736.869 Q132.357 737.425 134.834 737.425 Q138.839 737.425 141.177 735.318 Q143.515 733.212 143.515 729.601 Q143.515 725.99 141.177 723.883 Q138.839 721.777 134.834 721.777 Q132.959 721.777 131.084 722.194 Q129.232 722.61 127.288 723.49 L127.288 706.129 Z" fill="#000000" fill-rule="evenodd" fill-opacity="1" /><path clip-path="url(#clip290)" d="M51.6634 495.162 L59.3023 495.162 L59.3023 468.797 L50.9921 470.463 L50.9921 466.204 L59.256 464.538 L63.9319 464.538 L63.9319 495.162 L71.5707 495.162 L71.5707 499.098 L51.6634 499.098 L51.6634 495.162 Z" fill="#000000" fill-rule="evenodd" fill-opacity="1" /><path clip-path="url(#clip290)" d="M91.0151 467.616 Q87.404 467.616 85.5753 471.181 Q83.7697 474.723 83.7697 481.852 Q83.7697 488.959 85.5753 492.524 Q87.404 496.065 91.0151 496.065 Q94.6493 496.065 96.4548 492.524 Q98.2835 488.959 98.2835 481.852 Q98.2835 474.723 96.4548 471.181 Q94.6493 467.616 91.0151 467.616 M91.0151 463.913 Q96.8252 463.913 99.8808 468.519 Q102.959 473.102 102.959 481.852 Q102.959 490.579 99.8808 495.186 Q96.8252 499.769 91.0151 499.769 Q85.2049 499.769 82.1262 495.186 Q79.0707 490.579 79.0707 481.852 Q79.0707 473.102 82.1262 468.519 Q85.2049 463.913 91.0151 463.913 Z" fill="#000000" fill-rule="evenodd" fill-opacity="1" /><path clip-path="url(#clip290)" d="M111.177 493.218 L116.061 493.218 L116.061 499.098 L111.177 499.098 L111.177 493.218 Z" fill="#000000" fill-rule="evenodd" fill-opacity="1" /><path clip-path="url(#clip290)" d="M136.246 467.616 Q132.635 467.616 130.807 471.181 Q129.001 474.723 129.001 481.852 Q129.001 488.959 130.807 492.524 Q132.635 496.065 136.246 496.065 Q139.881 496.065 141.686 492.524 Q143.515 488.959 143.515 481.852 Q143.515 474.723 141.686 471.181 Q139.881 467.616 136.246 467.616 M136.246 463.913 Q142.056 463.913 145.112 468.519 Q148.191 473.102 148.191 481.852 Q148.191 490.579 145.112 495.186 Q142.056 499.769 136.246 499.769 Q130.436 499.769 127.357 495.186 Q124.302 490.579 124.302 481.852 Q124.302 473.102 127.357 468.519 Q130.436 463.913 136.246 463.913 Z" fill="#000000" fill-rule="evenodd" fill-opacity="1" /><path clip-path="url(#clip290)" d="M52.6588 253.571 L60.2976 253.571 L60.2976 227.206 L51.9875 228.872 L51.9875 224.613 L60.2513 222.946 L64.9272 222.946 L64.9272 253.571 L72.5661 253.571 L72.5661 257.506 L52.6588 257.506 L52.6588 253.571 Z" fill="#000000" fill-rule="evenodd" fill-opacity="1" /><path clip-path="url(#clip290)" d="M86.0382 253.571 L102.358 253.571 L102.358 257.506 L80.4133 257.506 L80.4133 253.571 Q83.0753 250.817 87.6586 246.187 Q92.2651 241.534 93.4456 240.192 Q95.691 237.668 96.5706 235.932 Q97.4734 234.173 97.4734 232.483 Q97.4734 229.729 95.5289 227.993 Q93.6076 226.256 90.5058 226.256 Q88.3067 226.256 85.8531 227.02 Q83.4225 227.784 80.6447 229.335 L80.6447 224.613 Q83.4688 223.479 85.9225 222.9 Q88.3762 222.321 90.4132 222.321 Q95.7836 222.321 98.978 225.006 Q102.172 227.692 102.172 232.182 Q102.172 234.312 101.362 236.233 Q100.575 238.131 98.4687 240.724 Q97.89 241.395 94.7882 244.613 Q91.6864 247.807 86.0382 253.571 Z" fill="#000000" fill-rule="evenodd" fill-opacity="1" /><path clip-path="url(#clip290)" d="M112.172 251.627 L117.057 251.627 L117.057 257.506 L112.172 257.506 L112.172 251.627 Z" fill="#000000" fill-rule="evenodd" fill-opacity="1" /><path clip-path="url(#clip290)" d="M127.288 222.946 L145.644 222.946 L145.644 226.881 L131.57 226.881 L131.57 235.354 Q132.589 235.006 133.607 234.844 Q134.626 234.659 135.644 234.659 Q141.431 234.659 144.811 237.83 Q148.191 241.002 148.191 246.418 Q148.191 251.997 144.718 255.099 Q141.246 258.178 134.927 258.178 Q132.751 258.178 130.482 257.807 Q128.237 257.437 125.83 256.696 L125.83 251.997 Q127.913 253.131 130.135 253.687 Q132.357 254.242 134.834 254.242 Q138.839 254.242 141.177 252.136 Q143.515 250.029 143.515 246.418 Q143.515 242.807 141.177 240.701 Q138.839 238.594 134.834 238.594 Q132.959 238.594 131.084 239.011 Q129.232 239.428 127.288 240.307 L127.288 222.946 Z" fill="#000000" fill-rule="evenodd" fill-opacity="1" /><path clip-path="url(#clip292)" d="
M245.565 1351.55 L266.023 1353.65 L286.481 1347.23 L306.94 1346.02 L327.398 1338.03 L347.856 1323.66 L368.314 1311.6 L388.772 1306.87 L409.23 1285.2 L429.689 1258.24 
  L450.147 1245.52 L470.605 1238.34 L491.063 1218.37 L511.521 1191.87 L531.979 1144.91 L552.438 1111.76 L572.896 1025.78 L593.354 991.277 L613.812 941.035 L634.27 959.203 
  L654.728 902.735 L675.187 921.032 L695.645 1034.3 L716.103 1125.54 L736.561 1211.39 L757.019 1274.26 L777.477 1300.51 L797.936 1337.31 L818.394 1366.76 L838.852 1374.72 
  L859.31 1391.79 L879.768 1397.48 L900.226 1400.09 L920.685 1404.16 L941.143 1403.99 L961.601 1400.85 L982.059 1401.74 L1002.52 1398.23 L1022.98 1396.5 L1043.43 1388.75 
  L1063.89 1384.14 L1084.35 1373.28 L1104.81 1369.48 L1125.27 1355.68 L1145.72 1342.81 L1166.18 1334.54 L1186.64 1318.55 L1207.1 1295.37 L1227.56 1273.92 L1248.02 1257.27 
  L1268.47 1220.48 L1288.93 1189.28 L1309.39 1166.13 L1329.85 1135.43 L1350.31 1076.58 L1370.76 1096.28 L1391.22 1156.76 L1411.68 1225.63 L1432.14 1271.72 L1452.6 1306.75 
  L1473.05 1345.31 L1493.51 1364.48 L1513.97 1382.08 L1534.43 1387.82 L1554.89 1405.15 L1575.35 1416.63 L1595.8 1418.59 L1616.26 1423.49 L1636.72 1426.32 L1657.18 1427.77 
  L1677.64 1429.08 L1698.09 1427.43 L1718.55 1428.08 L1739.01 1427.18 L1759.47 1425.3 L1779.93 1420.65 L1800.39 1417.75 L1820.84 1414.1 L1841.3 1408.94 L1861.76 1402.91 
  L1882.22 1393.79 L1902.68 1381.08 L1923.13 1370.82 L1943.59 1350.38 L1964.05 1333.16 L1984.51 1307.67 L2004.97 1298.89 L2025.43 1287.62 L2045.88 1275.4 L2066.34 1293.46 
  L2086.8 1297.85 L2107.26 1289.89 L2127.72 1285.3 L2148.17 1313.95 L2168.63 1334.83 L2189.09 1365.22 L2209.55 1384.25 L2230.01 1390.41 L2250.47 1394.51 L2270.92 1396.57 
  L2291.38 1397.31 L2291.38 846.024 L2270.92 672.251 L2250.47 554.506 L2230.01 337.195 L2209.55 385.819 L2189.09 555.982 L2168.63 687.141 L2148.17 761.445 L2127.72 815.391 
  L2107.26 719.015 L2086.8 677.2 L2066.34 607.575 L2045.88 605.819 L2025.43 656.001 L2004.97 691.98 L1984.51 798.673 L1964.05 851.924 L1943.59 870.758 L1923.13 904.741 
  L1902.68 923.653 L1882.22 960.249 L1861.76 1001.44 L1841.3 1045.54 L1820.84 1085.76 L1800.39 1126.57 L1779.93 1161.9 L1759.47 1191.72 L1739.01 1218.04 L1718.55 1238.45 
  L1698.09 1260.92 L1677.64 1278.13 L1657.18 1294.43 L1636.72 1300.84 L1616.26 1287.01 L1595.8 1233.26 L1575.35 1125.01 L1554.89 1010.4 L1534.43 855.585 L1513.97 753.417 
  L1493.51 417.769 L1473.05 87.9763 L1452.6 171.729 L1432.14 385.298 L1411.68 588.5 L1391.22 740.764 L1370.76 741.846 L1350.31 684.505 L1329.85 716.975 L1309.39 769.903 
  L1288.93 797.076 L1268.47 847.294 L1248.02 869.85 L1227.56 909.192 L1207.1 961.484 L1186.64 1016.17 L1166.18 1068.58 L1145.72 1114.04 L1125.27 1136.97 L1104.81 1173.59 
  L1084.35 1207.58 L1063.89 1237.67 L1043.43 1263.5 L1022.98 1282.39 L1002.52 1293.1 L982.059 1304.72 L961.601 1312.97 L941.143 1326.18 L920.685 1332.78 L900.226 1334.92 
  L879.768 1330.66 L859.31 1317.4 L838.852 1277.24 L818.394 1222.63 L797.936 1139.35 L777.477 1028.15 L757.019 908.924 L736.561 756.26 L716.103 697.634 L695.645 655.644 
  L675.187 671.497 L654.728 740.859 L634.27 750.258 L613.812 767.752 L593.354 814.847 L572.896 858 L552.438 911.016 L531.979 973.695 L511.521 1037.27 L491.063 1070.8 
  L470.605 1117.68 L450.147 1156.66 L429.689 1190.08 L409.23 1216.04 L388.772 1244.36 L368.314 1269.82 L347.856 1284.55 L327.398 1307.09 L306.94 1314.51 L286.481 1329.67 
  L266.023 1339.45 L245.565 1351.55  Z
  " fill="#009af9" fill-rule="evenodd" fill-opacity="0.5"/>
<polyline clip-path="url(#clip292)" style="stroke:#009af9; stroke-linecap:butt; stroke-linejoin:round; stroke-width:12; stroke-opacity:1; fill:none" points="
  245.565,1351.55 266.023,1348.94 286.481,1338.6 306.94,1332.4 327.398,1325.9 347.856,1313.84 368.314,1301.39 388.772,1285.72 409.23,1254.87 429.689,1224.34 
  450.147,1194.4 470.605,1151.43 491.063,1116.91 511.521,1084.05 531.979,1046.85 552.438,991.694 572.896,958.706 593.354,903.829 613.812,889.404 634.27,835.414 
  654.728,816.166 675.187,820.086 695.645,856.625 716.103,939.835 736.561,1017.98 757.019,1117.72 777.477,1196.33 797.936,1264.09 818.394,1302.07 838.852,1320.65 
  859.31,1335.94 879.768,1349.19 900.226,1352.09 920.685,1350.99 941.143,1345.21 961.601,1334.69 982.059,1331.77 1002.52,1319.23 1022.98,1307.14 1043.43,1293.65 
  1063.89,1282.3 1084.35,1267.36 1104.81,1255.58 1125.27,1231.69 1145.72,1213.96 1166.18,1182.75 1186.64,1169.29 1207.1,1141.5 1227.56,1087.29 1248.02,1013.42 
  1268.47,960.865 1288.93,893.684 1309.39,879.937 1329.85,922.52 1350.31,932.628 1370.76,928.144 1391.22,952.596 1411.68,1035.41 1432.14,1145.65 1452.6,1219.7 
  1473.05,1267.75 1493.51,1301.1 1513.97,1319.15 1534.43,1334.97 1554.89,1346.43 1575.35,1357.73 1595.8,1361.6 1616.26,1361.9 1636.72,1356.79 1657.18,1357.42 
  1677.64,1357.14 1698.09,1358.89 1718.55,1359.33 1739.01,1351.42 1759.47,1338.05 1779.93,1326.6 1800.39,1311.97 1820.84,1292.13 1841.3,1272.19 1861.76,1247.76 
  1882.22,1222.98 1902.68,1186.1 1923.13,1138.12 1943.59,1090.27 1964.05,1028.17 1984.51,1023.47 2004.97,1030.98 2025.43,1019.85 2045.88,1009.21 2066.34,1001.76 
  2086.8,964.898 2107.26,967.736 2127.72,997.497 2148.17,1131.01 2168.63,1178.29 2189.09,1202.46 2209.55,1232.47 2230.01,1293.5 2250.47,1322.53 2270.92,1327.2 
  2291.38,1315.22 
  "/>
<path clip-path="url(#clip292)" d="
M245.565 1351.55 L266.023 1372.93 L286.481 1387.56 L306.94 1399.61 L327.398 1407.28 L347.856 1414.08 L368.314 1420.43 L388.772 1424.91 L409.23 1426.46 L429.689 1428.58 
  L450.147 1429.25 L470.605 1430.18 L491.063 1430.29 L511.521 1430.15 L531.979 1430.41 L552.438 1430.24 L572.896 1427.07 L593.354 1425.57 L613.812 1417.64 L634.27 1406.37 
  L654.728 1387.21 L675.187 1362.99 L695.645 1314.93 L716.103 1246.63 L736.561 1174.46 L757.019 1087.57 L777.477 1123.58 L797.936 1164.63 L818.394 1216.05 L838.852 1260.57 
  L859.31 1294.16 L879.768 1329.96 L900.226 1349.55 L920.685 1369.46 L941.143 1379.53 L961.601 1390.11 L982.059 1398.58 L1002.52 1408.52 L1022.98 1414.57 L1043.43 1418.31 
  L1063.89 1421.35 L1084.35 1423.99 L1104.81 1426.77 L1125.27 1431.46 L1145.72 1434.3 L1166.18 1436.42 L1186.64 1438.17 L1207.1 1439.56 L1227.56 1440.51 L1248.02 1441.05 
  L1268.47 1441.28 L1288.93 1441.26 L1309.39 1440.73 L1329.85 1440.66 L1350.31 1438.99 L1370.76 1437.87 L1391.22 1435.29 L1411.68 1431.48 L1432.14 1420.43 L1452.6 1391.64 
  L1473.05 1355.71 L1493.51 1294.98 L1513.97 1254.78 L1534.43 1287.09 L1554.89 1314.26 L1575.35 1338.51 L1595.8 1358.59 L1616.26 1374.57 L1636.72 1387.64 L1657.18 1398 
  L1677.64 1406.36 L1698.09 1414.47 L1718.55 1420.71 L1739.01 1425.28 L1759.47 1428.94 L1779.93 1431.96 L1800.39 1434.3 L1820.84 1436.72 L1841.3 1438.27 L1861.76 1438.76 
  L1882.22 1440.37 L1902.68 1441.57 L1923.13 1442.56 L1943.59 1443.35 L1964.05 1444.02 L1984.51 1444.48 L2004.97 1445.05 L2025.43 1445.22 L2045.88 1445.58 L2066.34 1445.67 
  L2086.8 1445.72 L2107.26 1445.5 L2127.72 1444.88 L2148.17 1443.95 L2168.63 1441.8 L2189.09 1436.36 L2209.55 1423.56 L2230.01 1404.66 L2250.47 1409.31 L2270.92 1415.26 
  L2291.38 1419.48 L2291.38 746.203 L2270.92 844.729 L2250.47 1001.48 L2230.01 1057.39 L2209.55 1048.34 L2189.09 1006.78 L2168.63 906.676 L2148.17 857.529 L2127.72 842.585 
  L2107.26 890.033 L2086.8 1018.72 L2066.34 1084.63 L2045.88 1100.87 L2025.43 1133.91 L2004.97 1180.87 L1984.51 1230.34 L1964.05 1282.91 L1943.59 1325.08 L1923.13 1355.9 
  L1902.68 1377.09 L1882.22 1392.49 L1861.76 1400.47 L1841.3 1400.89 L1820.84 1397.5 L1800.39 1384.61 L1779.93 1371.67 L1759.47 1351.37 L1739.01 1325.72 L1718.55 1294.01 
  L1698.09 1263.9 L1677.64 1217.23 L1657.18 1151.19 L1636.72 1081.57 L1616.26 1001.27 L1595.8 920.341 L1575.35 820.188 L1554.89 668.648 L1534.43 424.342 L1513.97 464.209 
  L1493.51 762.661 L1473.05 1034.31 L1452.6 981.595 L1432.14 925.354 L1411.68 919.774 L1391.22 959.637 L1370.76 1046.78 L1350.31 1115.62 L1329.85 1190.1 L1309.39 1251.07 
  L1288.93 1301.71 L1268.47 1339.02 L1248.02 1364.79 L1227.56 1381.61 L1207.1 1393.12 L1186.64 1401.6 L1166.18 1407.01 L1145.72 1405.28 L1125.27 1397.81 L1104.81 1394.32 
  L1084.35 1389.18 L1063.89 1377.71 L1043.43 1373.94 L1022.98 1366.75 L1002.52 1347.3 L982.059 1324.82 L961.601 1304.81 L941.143 1262.36 L920.685 1215.89 L900.226 1187.27 
  L879.768 1144.21 L859.31 1047.24 L838.852 986.155 L818.394 952.476 L797.936 916.444 L777.477 892.346 L757.019 916.599 L736.561 959.957 L716.103 1004.64 L695.645 1065.91 
  L675.187 1129.68 L654.728 1212.27 L634.27 1288.41 L613.812 1336.31 L593.354 1370.71 L572.896 1393.83 L552.438 1406.44 L531.979 1413.96 L511.521 1416.21 L491.063 1418.19 
  L470.605 1414.79 L450.147 1412.9 L429.689 1410.76 L409.23 1410.73 L388.772 1411.84 L368.314 1409.26 L347.856 1404 L327.398 1395.75 L306.94 1386.11 L286.481 1380.39 
  L266.023 1368.13 L245.565 1351.55  Z
  " fill="#e26f46" fill-rule="evenodd" fill-opacity="0.5"/>
<polyline clip-path="url(#clip292)" style="stroke:#e26f46; stroke-linecap:butt; stroke-linejoin:round; stroke-width:12; stroke-opacity:1; fill:none" points="
  245.565,1351.55 266.023,1368.86 286.481,1381.96 306.94,1392.8 327.398,1401.52 347.856,1407.72 368.314,1412.61 388.772,1416.84 409.23,1420.4 429.689,1422.76 
  450.147,1425.78 470.605,1425.17 491.063,1424.03 511.521,1422.19 531.979,1418.79 552.438,1415.55 572.896,1409.17 593.354,1399.13 613.812,1384.23 634.27,1365.97 
  654.728,1341.45 675.187,1300.29 695.645,1214.28 716.103,1149.99 736.561,1074.94 757.019,1077.61 777.477,1062.72 797.936,1065.71 818.394,1090.31 838.852,1122.85 
  859.31,1177.3 879.768,1221.56 900.226,1256.01 920.685,1290.99 941.143,1316.32 961.601,1341.28 982.059,1362.61 1002.52,1379.03 1022.98,1388.26 1043.43,1398.55 
  1063.89,1406.11 1084.35,1409.4 1104.81,1411.82 1125.27,1414.13 1145.72,1417.53 1166.18,1420.22 1186.64,1419.76 1207.1,1420 1227.56,1418.76 1248.02,1416.45 
  1268.47,1410.69 1288.93,1397.93 1309.39,1380.05 1329.85,1348.81 1350.31,1287.61 1370.76,1194.46 1391.22,1136.37 1411.68,1115.87 1432.14,1116.06 1452.6,1146.18 
  1473.05,1135.75 1493.51,1155.21 1513.97,1184.45 1534.43,1196.91 1554.89,1236.88 1575.35,1279.09 1595.8,1310.58 1616.26,1329.72 1636.72,1356.83 1657.18,1371.01 
  1677.64,1386.4 1698.09,1396.57 1718.55,1401.88 1739.01,1408.69 1759.47,1412.34 1779.93,1413.61 1800.39,1415.88 1820.84,1421.59 1841.3,1426.55 1861.76,1429.38 
  1882.22,1430.46 1902.68,1430.19 1923.13,1427.91 1943.59,1427.01 1964.05,1425.1 1984.51,1422.59 2004.97,1417.61 2025.43,1402.56 2045.88,1385.47 2066.34,1356.23 
  2086.8,1312.12 2107.26,1238.48 2127.72,1219.1 2148.17,1199.76 2168.63,1216.13 2189.09,1228.05 2209.55,1233.18 2230.01,1273.63 2250.47,1256.92 2270.92,1253.65 
  2291.38,1293.18 
  "/>
</svg>
