<?xml version="1.0" encoding="utf-8"?>
<svg xmlns="http://www.w3.org/2000/svg" xmlns:xlink="http://www.w3.org/1999/xlink" width="600" height="400" viewBox="0 0 2400 1600">
<defs>
  <clipPath id="clip900">
    <rect x="0" y="0" width="2400" height="1600"/>
  </clipPath>
</defs>
<path clip-path="url(#clip900)" d="
M0 1600 L2400 1600 L2400 0 L0 0  Z
  " fill="#ffffff" fill-rule="evenodd" fill-opacity="1"/>
<defs>
  <clipPath id="clip901">
    <rect x="480" y="0" width="1681" height="1600"/>
  </clipPath>
</defs>
<path clip-path="url(#clip900)" d="
M156.112 1423.18 L2352.76 1423.18 L2352.76 47.2441 L156.112 47.2441  Z
  " fill="#ffffff" fill-rule="evenodd" fill-opacity="1"/>
<defs>
  <clipPath id="clip902">
    <rect x="156" y="47" width="2198" height="1377"/>
  </clipPath>
</defs>
<polyline clip-path="url(#clip902)" style="stroke:#000000; stroke-linecap:butt; stroke-linejoin:round; stroke-width:2; stroke-opacity:0.1; fill:none" points="
  156.112,1423.18 156.112,47.2441 
  "/>
<polyline clip-path="url(#clip902)" style="stroke:#000000; stroke-linecap:butt; stroke-linejoin:round; stroke-width:2; stroke-opacity:0.1; fill:none" points="
  595.441,1423.18 595.441,47.2441 
  "/>
<polyline clip-path="url(#clip902)" style="stroke:#000000; stroke-linecap:butt; stroke-linejoin:round; stroke-width:2; stroke-opacity:0.1; fill:none" points="
  1034.77,1423.18 1034.77,47.2441 
  "/>
<polyline clip-path="url(#clip902)" style="stroke:#000000; stroke-linecap:butt; stroke-linejoin:round; stroke-width:2; stroke-opacity:0.1; fill:none" points="
  1474.1,1423.18 1474.1,47.2441 
  "/>
<polyline clip-path="url(#clip902)" style="stroke:#000000; stroke-linecap:butt; stroke-linejoin:round; stroke-width:2; stroke-opacity:0.1; fill:none" points="
  1913.43,1423.18 1913.43,47.2441 
  "/>
<polyline clip-path="url(#clip902)" style="stroke:#000000; stroke-linecap:butt; stroke-linejoin:round; stroke-width:2; stroke-opacity:0.1; fill:none" points="
  2352.76,1423.18 2352.76,47.2441 
  "/>
<polyline clip-path="url(#clip900)" style="stroke:#000000; stroke-linecap:butt; stroke-linejoin:round; stroke-width:4; stroke-opacity:1; fill:none" points="
  156.112,1423.18 2352.76,1423.18 
  "/>
<polyline clip-path="url(#clip900)" style="stroke:#000000; stroke-linecap:butt; stroke-linejoin:round; stroke-width:4; stroke-opacity:1; fill:none" points="
  156.112,1423.18 156.112,1404.28 
  "/>
<polyline clip-path="url(#clip900)" style="stroke:#000000; stroke-linecap:butt; stroke-linejoin:round; stroke-width:4; stroke-opacity:1; fill:none" points="
  595.441,1423.18 595.441,1404.28 
  "/>
<polyline clip-path="url(#clip900)" style="stroke:#000000; stroke-linecap:butt; stroke-linejoin:round; stroke-width:4; stroke-opacity:1; fill:none" points="
  1034.77,1423.18 1034.77,1404.28 
  "/>
<polyline clip-path="url(#clip900)" style="stroke:#000000; stroke-linecap:butt; stroke-linejoin:round; stroke-width:4; stroke-opacity:1; fill:none" points="
  1474.1,1423.18 1474.1,1404.28 
  "/>
<polyline clip-path="url(#clip900)" style="stroke:#000000; stroke-linecap:butt; stroke-linejoin:round; stroke-width:4; stroke-opacity:1; fill:none" points="
  1913.43,1423.18 1913.43,1404.28 
  "/>
<polyline clip-path="url(#clip900)" style="stroke:#000000; stroke-linecap:butt; stroke-linejoin:round; stroke-width:4; stroke-opacity:1; fill:none" points="
  2352.76,1423.18 2352.76,1404.28 
  "/>
<path clip-path="url(#clip900)" d="M133.497 1454.1 Q129.885 1454.1 128.057 1457.66 Q126.251 1461.2 126.251 1468.33 Q126.251 1475.44 128.057 1479.01 Q129.885 1482.55 133.497 1482.55 Q137.131 1482.55 138.936 1479.01 Q140.765 1475.44 140.765 1468.33 Q140.765 1461.2 138.936 1457.66 Q137.131 1454.1 133.497 1454.1 M133.497 1450.39 Q139.307 1450.39 142.362 1455 Q145.441 1459.58 145.441 1468.33 Q145.441 1477.06 142.362 1481.67 Q139.307 1486.25 133.497 1486.25 Q127.686 1486.25 124.608 1481.67 Q121.552 1477.06 121.552 1468.33 Q121.552 1459.58 124.608 1455 Q127.686 1450.39 133.497 1450.39 Z" fill="#000000" fill-rule="evenodd" fill-opacity="1" /><path clip-path="url(#clip900)" d="M153.658 1479.7 L158.543 1479.7 L158.543 1485.58 L153.658 1485.58 L153.658 1479.7 Z" fill="#000000" fill-rule="evenodd" fill-opacity="1" /><path clip-path="url(#clip900)" d="M178.728 1454.1 Q175.117 1454.1 173.288 1457.66 Q171.482 1461.2 171.482 1468.33 Q171.482 1475.44 173.288 1479.01 Q175.117 1482.55 178.728 1482.55 Q182.362 1482.55 184.168 1479.01 Q185.996 1475.44 185.996 1468.33 Q185.996 1461.2 184.168 1457.66 Q182.362 1454.1 178.728 1454.1 M178.728 1450.39 Q184.538 1450.39 187.593 1455 Q190.672 1459.58 190.672 1468.33 Q190.672 1477.06 187.593 1481.67 Q184.538 1486.25 178.728 1486.25 Q172.918 1486.25 169.839 1481.67 Q166.783 1477.06 166.783 1468.33 Q166.783 1459.58 169.839 1455 Q172.918 1450.39 178.728 1450.39 Z" fill="#000000" fill-rule="evenodd" fill-opacity="1" /><path clip-path="url(#clip900)" d="M573.624 1454.1 Q570.013 1454.1 568.184 1457.66 Q566.379 1461.2 566.379 1468.33 Q566.379 1475.44 568.184 1479.01 Q570.013 1482.55 573.624 1482.55 Q577.258 1482.55 579.064 1479.01 Q580.892 1475.44 580.892 1468.33 Q580.892 1461.2 579.064 1457.66 Q577.258 1454.1 573.624 1454.1 M573.624 1450.39 Q579.434 1450.39 582.49 1455 Q585.568 1459.58 585.568 1468.33 Q585.568 1477.06 582.49 1481.67 Q579.434 1486.25 573.624 1486.25 Q567.814 1486.25 564.735 1481.67 Q561.679 1477.06 561.679 1468.33 Q561.679 1459.58 564.735 1455 Q567.814 1450.39 573.624 1450.39 Z" fill="#000000" fill-rule="evenodd" fill-opacity="1" /><path clip-path="url(#clip900)" d="M593.786 1479.7 L598.67 1479.7 L598.67 1485.58 L593.786 1485.58 L593.786 1479.7 Z" fill="#000000" fill-rule="evenodd" fill-opacity="1" /><path clip-path="url(#clip900)" d="M612.883 1481.64 L629.202 1481.64 L629.202 1485.58 L607.258 1485.58 L607.258 1481.64 Q609.92 1478.89 614.503 1474.26 Q619.11 1469.61 620.29 1468.27 Q622.536 1465.74 623.415 1464.01 Q624.318 1462.25 624.318 1460.56 Q624.318 1457.8 622.374 1456.07 Q620.452 1454.33 617.35 1454.33 Q615.151 1454.33 612.698 1455.09 Q610.267 1455.86 607.489 1457.41 L607.489 1452.69 Q610.313 1451.55 612.767 1450.97 Q615.221 1450.39 617.258 1450.39 Q622.628 1450.39 625.823 1453.08 Q629.017 1455.77 629.017 1460.26 Q629.017 1462.39 628.207 1464.31 Q627.42 1466.2 625.313 1468.8 Q624.735 1469.47 621.633 1472.69 Q618.531 1475.88 612.883 1481.64 Z" fill="#000000" fill-rule="evenodd" fill-opacity="1" /><path clip-path="url(#clip900)" d="M1011.91 1454.1 Q1008.3 1454.1 1006.47 1457.66 Q1004.67 1461.2 1004.67 1468.33 Q1004.67 1475.44 1006.47 1479.01 Q1008.3 1482.55 1011.91 1482.55 Q1015.55 1482.55 1017.35 1479.01 Q1019.18 1475.44 1019.18 1468.33 Q1019.18 1461.2 1017.35 1457.66 Q1015.55 1454.1 1011.91 1454.1 M1011.91 1450.39 Q1017.72 1450.39 1020.78 1455 Q1023.86 1459.58 1023.86 1468.33 Q1023.86 1477.06 1020.78 1481.67 Q1017.72 1486.25 1011.91 1486.25 Q1006.1 1486.25 1003.02 1481.67 Q999.967 1477.06 999.967 1468.33 Q999.967 1459.58 1003.02 1455 Q1006.1 1450.39 1011.91 1450.39 Z" fill="#000000" fill-rule="evenodd" fill-opacity="1" /><path clip-path="url(#clip900)" d="M1032.07 1479.7 L1036.96 1479.7 L1036.96 1485.58 L1032.07 1485.58 L1032.07 1479.7 Z" fill="#000000" fill-rule="evenodd" fill-opacity="1" /><path clip-path="url(#clip900)" d="M1059.99 1455.09 L1048.18 1473.54 L1059.99 1473.54 L1059.99 1455.09 M1058.76 1451.02 L1064.64 1451.02 L1064.64 1473.54 L1069.57 1473.54 L1069.57 1477.43 L1064.64 1477.43 L1064.64 1485.58 L1059.99 1485.58 L1059.99 1477.43 L1044.39 1477.43 L1044.39 1472.92 L1058.76 1451.02 Z" fill="#000000" fill-rule="evenodd" fill-opacity="1" /><path clip-path="url(#clip900)" d="M1451.4 1454.1 Q1447.79 1454.1 1445.96 1457.66 Q1444.16 1461.2 1444.16 1468.33 Q1444.16 1475.44 1445.96 1479.01 Q1447.79 1482.55 1451.4 1482.55 Q1455.04 1482.55 1456.84 1479.01 Q1458.67 1475.44 1458.67 1468.33 Q1458.67 1461.2 1456.84 1457.66 Q1455.04 1454.1 1451.4 1454.1 M1451.4 1450.39 Q1457.21 1450.39 1460.27 1455 Q1463.35 1459.58 1463.35 1468.33 Q1463.35 1477.06 1460.27 1481.67 Q1457.21 1486.25 1451.4 1486.25 Q1445.59 1486.25 1442.51 1481.67 Q1439.46 1477.06 1439.46 1468.33 Q1439.46 1459.58 1442.51 1455 Q1445.59 1450.39 1451.4 1450.39 Z" fill="#000000" fill-rule="evenodd" fill-opacity="1" /><path clip-path="url(#clip900)" d="M1471.56 1479.7 L1476.45 1479.7 L1476.45 1485.58 L1471.56 1485.58 L1471.56 1479.7 Z" fill="#000000" fill-rule="evenodd" fill-opacity="1" /><path clip-path="url(#clip900)" d="M1497.21 1466.44 Q1494.06 1466.44 1492.21 1468.59 Q1490.38 1470.74 1490.38 1474.49 Q1490.38 1478.22 1492.21 1480.39 Q1494.06 1482.55 1497.21 1482.55 Q1500.36 1482.55 1502.19 1480.39 Q1504.04 1478.22 1504.04 1474.49 Q1504.04 1470.74 1502.19 1468.59 Q1500.36 1466.44 1497.21 1466.44 M1506.49 1451.78 L1506.49 1456.04 Q1504.73 1455.21 1502.93 1454.77 Q1501.15 1454.33 1499.39 1454.33 Q1494.76 1454.33 1492.3 1457.45 Q1489.87 1460.58 1489.53 1466.9 Q1490.89 1464.89 1492.95 1463.82 Q1495.01 1462.73 1497.49 1462.73 Q1502.7 1462.73 1505.71 1465.9 Q1508.74 1469.05 1508.74 1474.49 Q1508.74 1479.82 1505.59 1483.03 Q1502.44 1486.25 1497.21 1486.25 Q1491.22 1486.25 1488.05 1481.67 Q1484.87 1477.06 1484.87 1468.33 Q1484.87 1460.14 1488.76 1455.28 Q1492.65 1450.39 1499.2 1450.39 Q1500.96 1450.39 1502.74 1450.74 Q1504.55 1451.09 1506.49 1451.78 Z" fill="#000000" fill-rule="evenodd" fill-opacity="1" /><path clip-path="url(#clip900)" d="M1890.86 1454.1 Q1887.25 1454.1 1885.42 1457.66 Q1883.61 1461.2 1883.61 1468.33 Q1883.61 1475.44 1885.42 1479.01 Q1887.25 1482.55 1890.86 1482.55 Q1894.49 1482.55 1896.3 1479.01 Q1898.13 1475.44 1898.13 1468.33 Q1898.13 1461.2 1896.3 1457.66 Q1894.49 1454.1 1890.86 1454.1 M1890.86 1450.39 Q1896.67 1450.39 1899.72 1455 Q1902.8 1459.58 1902.8 1468.33 Q1902.8 1477.06 1899.72 1481.67 Q1896.67 1486.25 1890.86 1486.25 Q1885.05 1486.25 1881.97 1481.67 Q1878.91 1477.06 1878.91 1468.33 Q1878.91 1459.58 1881.97 1455 Q1885.05 1450.39 1890.86 1450.39 Z" fill="#000000" fill-rule="evenodd" fill-opacity="1" /><path clip-path="url(#clip900)" d="M1911.02 1479.7 L1915.9 1479.7 L1915.9 1485.58 L1911.02 1485.58 L1911.02 1479.7 Z" fill="#000000" fill-rule="evenodd" fill-opacity="1" /><path clip-path="url(#clip900)" d="M1936.09 1469.17 Q1932.76 1469.17 1930.83 1470.95 Q1928.94 1472.73 1928.94 1475.86 Q1928.94 1478.98 1930.83 1480.77 Q1932.76 1482.55 1936.09 1482.55 Q1939.42 1482.55 1941.34 1480.77 Q1943.26 1478.96 1943.26 1475.86 Q1943.26 1472.73 1941.34 1470.95 Q1939.45 1469.17 1936.09 1469.17 M1931.41 1467.18 Q1928.4 1466.44 1926.71 1464.38 Q1925.05 1462.32 1925.05 1459.35 Q1925.05 1455.21 1927.99 1452.8 Q1930.95 1450.39 1936.09 1450.39 Q1941.25 1450.39 1944.19 1452.8 Q1947.13 1455.21 1947.13 1459.35 Q1947.13 1462.32 1945.44 1464.38 Q1943.77 1466.44 1940.79 1467.18 Q1944.17 1467.96 1946.04 1470.26 Q1947.94 1472.55 1947.94 1475.86 Q1947.94 1480.88 1944.86 1483.57 Q1941.81 1486.25 1936.09 1486.25 Q1930.37 1486.25 1927.29 1483.57 Q1924.24 1480.88 1924.24 1475.86 Q1924.24 1472.55 1926.14 1470.26 Q1928.03 1467.96 1931.41 1467.18 M1929.7 1459.79 Q1929.7 1462.48 1931.37 1463.98 Q1933.06 1465.49 1936.09 1465.49 Q1939.1 1465.49 1940.79 1463.98 Q1942.5 1462.48 1942.5 1459.79 Q1942.5 1457.11 1940.79 1455.6 Q1939.1 1454.1 1936.09 1454.1 Q1933.06 1454.1 1931.37 1455.6 Q1929.7 1457.11 1929.7 1459.79 Z" fill="#000000" fill-rule="evenodd" fill-opacity="1" /><path clip-path="url(#clip900)" d="M2319.91 1481.64 L2327.55 1481.64 L2327.55 1455.28 L2319.24 1456.95 L2319.24 1452.69 L2327.5 1451.02 L2332.18 1451.02 L2332.18 1481.64 L2339.82 1481.64 L2339.82 1485.58 L2319.91 1485.58 L2319.91 1481.64 Z" fill="#000000" fill-rule="evenodd" fill-opacity="1" /><path clip-path="url(#clip900)" d="M2349.26 1479.7 L2354.14 1479.7 L2354.14 1485.58 L2349.26 1485.58 L2349.26 1479.7 Z" fill="#000000" fill-rule="evenodd" fill-opacity="1" /><path clip-path="url(#clip900)" d="M2374.33 1454.1 Q2370.72 1454.1 2368.89 1457.66 Q2367.08 1461.2 2367.08 1468.33 Q2367.08 1475.44 2368.89 1479.01 Q2370.72 1482.55 2374.33 1482.55 Q2377.96 1482.55 2379.77 1479.01 Q2381.6 1475.44 2381.6 1468.33 Q2381.6 1461.2 2379.77 1457.66 Q2377.96 1454.1 2374.33 1454.1 M2374.33 1450.39 Q2380.14 1450.39 2383.2 1455 Q2386.27 1459.58 2386.27 1468.33 Q2386.27 1477.06 2383.2 1481.67 Q2380.14 1486.25 2374.33 1486.25 Q2368.52 1486.25 2365.44 1481.67 Q2362.39 1477.06 2362.39 1468.33 Q2362.39 1459.58 2365.44 1455 Q2368.52 1450.39 2374.33 1450.39 Z" fill="#000000" fill-rule="evenodd" fill-opacity="1" /><path clip-path="url(#clip900)" d="M1253.5 1522.27 L1253.5 1532.4 L1265.56 1532.4 L1265.56 1536.95 L1253.5 1536.95 L1253.5 1556.3 Q1253.5 1560.66 1254.67 1561.9 Q1255.88 1563.14 1259.54 1563.14 L1265.56 1563.14 L1265.56 1568.04 L1259.54 1568.04 Q1252.76 1568.04 1250.18 1565.53 Q1247.61 1562.98 1247.61 1556.3 L1247.61 1536.95 L1243.31 1536.95 L1243.31 1532.4 L1247.61 1532.4 L1247.61 1522.27 L1253.5 1522.27 Z" fill="#000000" fill-rule="evenodd" fill-opacity="1" /><polyline clip-path="url(#clip902)" style="stroke:#000000; stroke-linecap:butt; stroke-linejoin:round; stroke-width:2; stroke-opacity:0.1; fill:none" points="
  156.112,1387.79 2352.76,1387.79 
  "/>
<polyline clip-path="url(#clip902)" style="stroke:#000000; stroke-linecap:butt; stroke-linejoin:round; stroke-width:2; stroke-opacity:0.1; fill:none" points="
  156.112,955.108 2352.76,955.108 
  "/>
<polyline clip-path="url(#clip902)" style="stroke:#000000; stroke-linecap:butt; stroke-linejoin:round; stroke-width:2; stroke-opacity:0.1; fill:none" points="
  156.112,522.427 2352.76,522.427 
  "/>
<polyline clip-path="url(#clip902)" style="stroke:#000000; stroke-linecap:butt; stroke-linejoin:round; stroke-width:2; stroke-opacity:0.1; fill:none" points="
  156.112,89.7456 2352.76,89.7456 
  "/>
<polyline clip-path="url(#clip900)" style="stroke:#000000; stroke-linecap:butt; stroke-linejoin:round; stroke-width:4; stroke-opacity:1; fill:none" points="
  156.112,1423.18 156.112,47.2441 
  "/>
<polyline clip-path="url(#clip900)" style="stroke:#000000; stroke-linecap:butt; stroke-linejoin:round; stroke-width:4; stroke-opacity:1; fill:none" points="
  156.112,1387.79 175.01,1387.79 
  "/>
<polyline clip-path="url(#clip900)" style="stroke:#000000; stroke-linecap:butt; stroke-linejoin:round; stroke-width:4; stroke-opacity:1; fill:none" points="
  156.112,955.108 175.01,955.108 
  "/>
<polyline clip-path="url(#clip900)" style="stroke:#000000; stroke-linecap:butt; stroke-linejoin:round; stroke-width:4; stroke-opacity:1; fill:none" points="
  156.112,522.427 175.01,522.427 
  "/>
<polyline clip-path="url(#clip900)" style="stroke:#000000; stroke-linecap:butt; stroke-linejoin:round; stroke-width:4; stroke-opacity:1; fill:none" points="
  156.112,89.7456 175.01,89.7456 
  "/>
<path clip-path="url(#clip900)" d="M62.9365 1373.59 Q59.3254 1373.59 57.4967 1377.15 Q55.6912 1380.69 55.6912 1387.82 Q55.6912 1394.93 57.4967 1398.49 Q59.3254 1402.04 62.9365 1402.04 Q66.5707 1402.04 68.3763 1398.49 Q70.205 1394.93 70.205 1387.82 Q70.205 1380.69 68.3763 1377.15 Q66.5707 1373.59 62.9365 1373.59 M62.9365 1369.88 Q68.7467 1369.88 71.8022 1374.49 Q74.8809 1379.07 74.8809 1387.82 Q74.8809 1396.55 71.8022 1401.16 Q68.7467 1405.74 62.9365 1405.74 Q57.1264 1405.74 54.0477 1401.16 Q50.9921 1396.55 50.9921 1387.82 Q50.9921 1379.07 54.0477 1374.49 Q57.1264 1369.88 62.9365 1369.88 Z" fill="#000000" fill-rule="evenodd" fill-opacity="1" /><path clip-path="url(#clip900)" d="M83.0984 1399.19 L87.9827 1399.19 L87.9827 1405.07 L83.0984 1405.07 L83.0984 1399.19 Z" fill="#000000" fill-rule="evenodd" fill-opacity="1" /><path clip-path="url(#clip900)" d="M108.168 1373.59 Q104.557 1373.59 102.728 1377.15 Q100.922 1380.69 100.922 1387.82 Q100.922 1394.93 102.728 1398.49 Q104.557 1402.04 108.168 1402.04 Q111.802 1402.04 113.608 1398.49 Q115.436 1394.93 115.436 1387.82 Q115.436 1380.69 113.608 1377.15 Q111.802 1373.59 108.168 1373.59 M108.168 1369.88 Q113.978 1369.88 117.033 1374.49 Q120.112 1379.07 120.112 1387.82 Q120.112 1396.55 117.033 1401.16 Q113.978 1405.74 108.168 1405.74 Q102.358 1405.74 99.2789 1401.16 Q96.2234 1396.55 96.2234 1387.82 Q96.2234 1379.07 99.2789 1374.49 Q102.358 1369.88 108.168 1369.88 Z" fill="#000000" fill-rule="evenodd" fill-opacity="1" /><path clip-path="url(#clip900)" d="M63.9319 940.907 Q60.3208 940.907 58.4921 944.471 Q56.6865 948.013 56.6865 955.143 Q56.6865 962.249 58.4921 965.814 Q60.3208 969.355 63.9319 969.355 Q67.5661 969.355 69.3717 965.814 Q71.2004 962.249 71.2004 955.143 Q71.2004 948.013 69.3717 944.471 Q67.5661 940.907 63.9319 940.907 M63.9319 937.203 Q69.742 937.203 72.7976 941.809 Q75.8763 946.393 75.8763 955.143 Q75.8763 963.869 72.7976 968.476 Q69.742 973.059 63.9319 973.059 Q58.1217 973.059 55.043 968.476 Q51.9875 963.869 51.9875 955.143 Q51.9875 946.393 55.043 941.809 Q58.1217 937.203 63.9319 937.203 Z" fill="#000000" fill-rule="evenodd" fill-opacity="1" /><path clip-path="url(#clip900)" d="M84.0938 966.508 L88.978 966.508 L88.978 972.388 L84.0938 972.388 L84.0938 966.508 Z" fill="#000000" fill-rule="evenodd" fill-opacity="1" /><path clip-path="url(#clip900)" d="M99.2095 937.828 L117.566 937.828 L117.566 941.763 L103.492 941.763 L103.492 950.235 Q104.51 949.888 105.529 949.726 Q106.547 949.541 107.566 949.541 Q113.353 949.541 116.733 952.712 Q120.112 955.883 120.112 961.3 Q120.112 966.879 116.64 969.98 Q113.168 973.059 106.848 973.059 Q104.672 973.059 102.404 972.689 Q100.159 972.318 97.7511 971.578 L97.7511 966.879 Q99.8345 968.013 102.057 968.568 Q104.279 969.124 106.756 969.124 Q110.76 969.124 113.098 967.018 Q115.436 964.911 115.436 961.3 Q115.436 957.689 113.098 955.582 Q110.76 953.476 106.756 953.476 Q104.881 953.476 103.006 953.893 Q101.154 954.309 99.2095 955.189 L99.2095 937.828 Z" fill="#000000" fill-rule="evenodd" fill-opacity="1" /><path clip-path="url(#clip900)" d="M53.7467 535.772 L61.3856 535.772 L61.3856 509.406 L53.0754 511.073 L53.0754 506.813 L61.3393 505.147 L66.0152 505.147 L66.0152 535.772 L73.654 535.772 L73.654 539.707 L53.7467 539.707 L53.7467 535.772 Z" fill="#000000" fill-rule="evenodd" fill-opacity="1" /><path clip-path="url(#clip900)" d="M83.0984 533.827 L87.9827 533.827 L87.9827 539.707 L83.0984 539.707 L83.0984 533.827 Z" fill="#000000" fill-rule="evenodd" fill-opacity="1" /><path clip-path="url(#clip900)" d="M108.168 508.225 Q104.557 508.225 102.728 511.79 Q100.922 515.332 100.922 522.461 Q100.922 529.568 102.728 533.133 Q104.557 536.674 108.168 536.674 Q111.802 536.674 113.608 533.133 Q115.436 529.568 115.436 522.461 Q115.436 515.332 113.608 511.79 Q111.802 508.225 108.168 508.225 M108.168 504.522 Q113.978 504.522 117.033 509.128 Q120.112 513.711 120.112 522.461 Q120.112 531.188 117.033 535.795 Q113.978 540.378 108.168 540.378 Q102.358 540.378 99.2789 535.795 Q96.2234 531.188 96.2234 522.461 Q96.2234 513.711 99.2789 509.128 Q102.358 504.522 108.168 504.522 Z" fill="#000000" fill-rule="evenodd" fill-opacity="1" /><path clip-path="url(#clip900)" d="M54.7421 103.09 L62.381 103.09 L62.381 76.7248 L54.0708 78.3915 L54.0708 74.1322 L62.3347 72.4656 L67.0106 72.4656 L67.0106 103.09 L74.6494 103.09 L74.6494 107.026 L54.7421 107.026 L54.7421 103.09 Z" fill="#000000" fill-rule="evenodd" fill-opacity="1" /><path clip-path="url(#clip900)" d="M84.0938 101.146 L88.978 101.146 L88.978 107.026 L84.0938 107.026 L84.0938 101.146 Z" fill="#000000" fill-rule="evenodd" fill-opacity="1" /><path clip-path="url(#clip900)" d="M99.2095 72.4656 L117.566 72.4656 L117.566 76.4008 L103.492 76.4008 L103.492 84.8729 Q104.51 84.5257 105.529 84.3637 Q106.547 84.1785 107.566 84.1785 Q113.353 84.1785 116.733 87.3498 Q120.112 90.5211 120.112 95.9377 Q120.112 101.516 116.64 104.618 Q113.168 107.697 106.848 107.697 Q104.672 107.697 102.404 107.327 Q100.159 106.956 97.7511 106.215 L97.7511 101.516 Q99.8345 102.651 102.057 103.206 Q104.279 103.762 106.756 103.762 Q110.76 103.762 113.098 101.655 Q115.436 99.5488 115.436 95.9377 Q115.436 92.3266 113.098 90.2201 Q110.76 88.1137 106.756 88.1137 Q104.881 88.1137 103.006 88.5303 Q101.154 88.947 99.2095 89.8266 L99.2095 72.4656 Z" fill="#000000" fill-rule="evenodd" fill-opacity="1" /><polyline clip-path="url(#clip902)" style="stroke:#009af9; stroke-linecap:butt; stroke-linejoin:round; stroke-width:4; stroke-opacity:1; fill:none" points="
  156.112,522.427 156.112,522.639 156.113,522.678 156.113,522.817 156.113,523.223 156.114,523.803 156.114,523.176 156.115,523.923 156.115,524.181 156.116,524.504 
  156.116,524.406 156.117,524.645 156.118,524.786 156.119,524.592 156.12,524.56 156.122,524.85 156.123,523.657 156.125,523.001 156.126,523.471 156.128,523.285 
  156.131,523.494 156.133,523.963 156.136,523.732 156.139,522.826 156.143,522.406 156.147,521.435 156.152,522.355 156.157,523.083 156.163,520.283 156.169,521.809 
  156.177,523.325 156.185,522.81 156.194,522.197 156.205,523.224 156.217,520.006 156.23,520.194 156.245,523.096 156.262,522.059 156.281,521.801 156.302,517.3 
  156.326,521.132 156.353,524.805 156.383,524.193 156.418,524.961 156.456,522.546 156.499,519.386 156.548,517.186 156.603,517.081 156.664,513.481 156.733,507.237 
  156.811,503.525 156.899,510.307 156.997,519.946 157.108,516.334 157.233,527.774 157.373,532.801 157.531,544.59 157.709,538.106 157.909,541.365 158.134,538.675 
  158.387,529.226 158.671,533.224 158.991,543.226 159.351,543.994 159.757,547.559 160.212,532.033 160.725,530.023 161.302,524.27 161.951,559.83 162.681,569.859 
  163.402,576.749 164.213,593.196 165.125,572.501 166.151,558.97 167.306,532.731 168.605,533.85 170.066,555.464 171.71,519.508 173.559,471.022 175.64,503.491 
  176.51,512.292 177.489,539.469 178.59,511.02 179.829,495.552 181.223,525.85 182.791,485.601 184.555,488.182 186.54,478.178 188.772,486.469 191.284,469.107 
  194.11,454.393 197.289,404.737 200.865,458.471 204.889,463.016 209.415,475.408 214.507,458.492 220.236,405.406 226.681,442.153 233.931,441.7 237.808,489.642 
  242.169,528.122 244.768,557.194 247.692,507.107 250.981,549.083 253.031,466.917 255.337,457.012 257.931,460.372 260.85,500.919 264.133,530.087 267.827,451.13 
  268.782,484.052 269.855,506.402 271.063,503.823 272.422,545.175 273.854,537.497 275.465,525.97 277.277,526.596 279.315,500.854 281.609,456.464 283.15,496.343 
  284.884,474.899 286.835,486.333 289.029,522.144 291.498,548.886 294.275,597.322 297.4,629.086 300.627,620.3 303.46,639.617 306.647,657.648 310.057,635.094 
  313.893,637.371 316.362,622.615 319.14,593.85 322.265,660.634 323.553,649.343 325.002,679.46 326.457,686.509 328.094,672.726 329.562,673.209 331.213,628.903 
  331.851,623.861 332.569,613.249 333.376,603.654 334.285,620.891 335.307,657.578 335.903,656.946 336.574,651.533 337.329,657.126 338.179,653.364 339.134,638.846 
  340.209,616.803 341.419,614.705 342.779,642.13 344.017,611.989 345.409,617.867 346.975,601.015 348.737,609.865 350.719,604.06 352.949,581.961 355.458,619.61 
  358.28,606.977 361.455,592.219 365.027,599.75 368.208,591.314 371.786,596.278 375.812,604.374 380.34,589.687 385.435,624.542 391.167,567.093 397.615,552.592 
  401.339,578.729 403.238,625.412 405.374,642.383 407.778,650.441 410.482,681.893 412.176,719.627 414.081,703.764 416.224,723.642 418.635,697.887 421.348,665.882 
  424.4,625.218 427.833,660.859 431.695,611.996 436.04,615.662 439.693,615.239 443.802,608.656 448.425,551.469 452.83,552.862 457.785,527.669 463.36,540.474 
  469.632,553.31 476.688,476.553 484.625,456.919 491.683,408.889 494.414,379.19 497.487,351.783 500.944,416.254 504.833,355.18 509.208,462.184 510.448,468.276 
  511.842,405.566 513.411,409.567 515.176,448.692 517.161,417.999 519.394,406.442 521.561,390.388 523.998,360.038 526.739,393.762 529.824,408.559 533.294,347.608 
  537.197,300.344 541.589,181.913 543.047,153.98 544.686,103.698 546.531,94.1097 548.606,86.1857 550.941,108.775 553.567,137.985 556.522,149.347 559.846,207.134 
  563.585,206.487 567.792,281.037 570.337,323.06 573.2,279.072 576.421,328.396 580.045,345.791 584.121,373.7 586.308,342.173 588.768,331.401 591.536,289.052 
  594.649,244.181 598.152,219.29 602.092,286.614 606.496,278.625 611.45,224.459 614.737,324.535 618.436,262.315 622.596,251.513 627.277,165.666 632.543,129.864 
  638.467,131.381 645.025,268.359 649.652,266.419 654.857,373.371 657.778,410.084 661.064,444.314 664.76,446.731 668.919,414.294 671.666,418.069 674.756,400.204 
  678.232,430.423 682.143,516.343 683.586,509.602 685.209,496.482 687.035,464.702 688.39,454.201 689.915,474.707 691.63,485.193 693.56,495.103 695.731,466.662 
  698.173,477.294 700.92,467.858 703.788,475.435 707.013,446.508 710.642,449.544 714.725,445.124 719.318,449.593 724.484,523.582 727.394,573.067 730.668,505.977 
  734.35,536.619 738.493,544.055 743.154,557.193 748.398,558.566 754.297,564.039 760.933,584.499 767.604,639.507 775.11,745.591 783.553,763.579 793.052,735.93 
  803.738,690.18 815.759,813.54 821.78,747.884 828.554,762.118 836.174,714.278 841.81,713.412 846.069,697.431 850.861,679.038 856.252,609.987 862.317,610.299 
  869.14,669.506 876.816,614.076 881.367,582.669 886.487,643.665 889.037,680.641 891.905,691.239 895.132,672.417 898.762,666.149 902.846,607.06 907.44,521.745 
  911.04,598.807 915.09,667.031 919.646,606.976 924.772,504.879 926.643,524.414 928.748,500.958 931.116,512.211 933.78,511.755 936.778,532.072 940.15,576.651 
  943.943,540.043 948.211,552.476 953.012,607.218 955.113,570.953 957.477,618.512 960.137,587.497 963.129,574.83 966.495,570.627 970.282,547.414 974.542,581.599 
  979.335,584.804 984.727,531.607 990.793,542.003 997.617,536.413 1005.29,573.266 1013.93,539.739 1023.65,558.738 1030.02,563.765 1037.19,509.17 1045.26,613.565 
  1054.34,655.802 1064.55,641.032 1076.04,656.96 1080.19,620.521 1084.86,710.894 1090.11,762.533 1096.02,694.108 1102.67,697.935 1110.15,686.104 1118.56,613.272 
  1128.03,682.27 1138.68,673.656 1150.66,746.319 1154,779.507 1157.76,824.631 1161.99,859.749 1166.74,901.886 1172.09,871.725 1178.11,876.987 1184.88,865.924 
  1192.5,902.164 1195.56,918.025 1199,932.284 1202.87,911.757 1207.23,913.859 1212.13,935.663 1217.64,965.463 1223.84,977.816 1230.81,959.835 1238.66,933.965 
  1247.49,951.397 1257.42,969.091 1268.59,984.15 1281.17,993.083 1295.31,993.801 1302.69,977.077 1310.99,978.843 1320.33,972.465 1330.84,922.56 1337.64,984.641 
  1342.78,931.711 1348.57,939.866 1355.08,941.133 1362.4,994.264 1370.64,927.108 1375.02,914.475 1379.95,935.494 1385.49,934.526 1391.73,910.695 1398.75,946.622 
  1406.64,974.124 1415.53,962.51 1425.52,1034.41 1436.76,1045.83 1449.41,1050.08 1463.64,1035.23 1479.64,1040.98 1497.65,1071.31 1517.91,1041.52 1540.7,984.124 
  1566.34,938.711 1577.99,978.611 1591.1,977.455 1605.85,947.577 1611.26,970.205 1617.34,964.115 1624.19,960.716 1631.89,975.089 1640.55,947.484 1650.3,925.737 
  1661.26,957.836 1673.6,984.338 1687.47,961.636 1692.67,939.247 1698.52,943.844 1705.1,919.128 1712.51,979.905 1714.94,959.744 1717.67,976.103 1720.75,993.28 
  1724.21,978.473 1728.1,977.425 1732.48,950.23 1737.41,948.811 1742.96,961.488 1749.19,970.341 1756.21,949.935 1764.1,966.63 1772.98,981.196 1782.98,984.005 
  1792.23,1006.81 1802.65,1020.4 1814.37,954.585 1827.55,955.19 1842.38,958.891 1859.06,928.489 1877.83,857.527 1883.21,880.008 1889.27,889.531 1896.09,855.998 
  1903.76,803.815 1912.38,730.603 1922.09,736.989 1933.01,697.843 1945.29,665.812 1957.26,672.38 1970.72,596.18 1985.86,569.667 2002.9,529.721 2022.07,472.845 
  2030.45,441.678 2039.88,445.461 2044.93,478.082 2050.61,516.633 2057,471.818 2063.89,467.978 2071.64,480.501 2080.37,532.134 2087.25,505.646 2094.99,514.088 
  2103.7,442.223 2113.49,524.38 2119.54,525.768 2126.33,487.439 2133.98,459.589 2136.03,452.92 2138.34,449.731 2140.94,470.971 2143.87,518.117 2147.15,590.463 
  2150.85,470.928 2152.2,469.884 2153.72,455.629 2155.43,464.836 2157.35,450.653 2159.52,480.362 2161.95,500.371 2164.69,576.933 2167.34,556.285 2170.32,576.235 
  2173.67,569.409 2177.44,609.499 2181.69,614.005 2186.46,621.842 2191.83,695.102 2197.87,675.758 2204.67,620.535 2212.32,584.865 2220.92,656.174 2230.6,717.342 
  2241.48,705.265 2253.73,676.143 2263.51,618.964 2274.51,538.041 2286.88,385.713 2300.8,278.204 2306.57,342.511 2310.91,461.313 2313.16,521.336 2315.7,572.314 
  2318.55,558.484 2321.76,557.063 2325.37,565.448 2329.17,602.711 2333.44,660.427 2338.25,666.147 2343.66,672.743 2349.75,640.282 2352.76,694.317 
  "/>
<polyline clip-path="url(#clip902)" style="stroke:#e26f46; stroke-linecap:butt; stroke-linejoin:round; stroke-width:4; stroke-opacity:1; fill:none" points="
  156.112,522.427 156.112,522.291 156.113,522.417 156.113,523.025 156.113,522.866 156.114,522.409 156.114,522.372 156.115,523.295 156.115,524.524 156.116,522.9 
  156.116,523.303 156.117,522.522 156.118,521.867 156.119,522.736 156.12,521.658 156.122,522.132 156.123,521.228 156.125,520.653 156.126,520.693 156.128,521.506 
  156.131,517.852 156.133,513.705 156.136,514.888 156.139,512.378 156.143,510.956 156.147,509.612 156.152,509.544 156.157,509.443 156.163,509.671 156.169,511.956 
  156.177,515.801 156.185,519.983 156.194,521.648 156.205,523.01 156.217,517.86 156.23,516.949 156.245,519.779 156.262,522.73 156.281,525.225 156.302,518.192 
  156.326,514.874 156.353,521.039 156.383,520.909 156.418,528.582 156.456,504.82 156.499,503.518 156.548,497.135 156.603,489.86 156.664,496.073 156.733,495.383 
  156.811,484.958 156.899,508.77 156.997,546.527 157.108,536.671 157.233,532.849 157.373,542.44 157.531,546.611 157.709,556.986 157.909,552.513 158.134,571.051 
  158.387,548.138 158.671,531.172 158.991,530.895 159.351,533.187 159.757,498.902 160.212,497.321 160.725,462.867 161.302,481.711 161.951,547.948 162.681,607.512 
  163.402,686.932 164.213,732.508 165.125,709.519 166.151,708.331 167.306,675.967 168.605,601.715 170.066,667.726 171.71,680.646 173.559,604.279 175.64,687.699 
  176.51,714.442 177.489,751.281 178.59,719.206 179.829,672.311 181.223,709.602 182.791,720.01 184.555,774.981 186.54,792.697 188.772,800.575 191.284,867.723 
  194.11,877.129 197.289,900.239 200.865,967.124 204.889,958.63 209.415,966.818 214.507,955.026 220.236,907.97 226.681,867.292 233.931,766.837 237.808,800.529 
  242.169,776.021 244.768,723.396 247.692,683.022 250.981,671.124 253.031,569.037 255.337,568.32 257.931,572.623 260.85,549.211 264.133,655.605 267.827,628.751 
  268.782,682.782 269.855,660.409 271.063,670.753 272.422,636.308 273.854,618.39 275.465,542.207 277.277,505.594 279.315,440.609 281.609,438.624 283.15,478.662 
  284.884,489.865 286.835,437.022 289.029,503.802 291.498,552.571 294.275,519.427 297.4,517.533 300.627,545.458 303.46,647.418 306.647,595.527 310.057,540.141 
  313.893,497.618 316.362,459.458 319.14,374.597 322.265,429.68 323.553,418.929 325.002,416.977 326.457,480.207 328.094,363.103 329.562,388.402 331.213,385.229 
  331.851,379.749 332.569,426.588 333.376,364.821 334.285,391.223 335.307,310.17 335.903,301.179 336.574,289.236 337.329,375.076 338.179,337.734 339.134,410.109 
  340.209,342.73 341.419,328.17 342.779,310.875 344.017,283.884 345.409,312.717 346.975,292.11 348.737,274.587 350.719,271.783 352.949,285.321 355.458,304.851 
  358.28,324.953 361.455,408.054 365.027,290.753 368.208,329.077 371.786,452.886 375.812,420.723 380.34,566.937 385.435,614.166 391.167,567.1 397.615,495.53 
  401.339,625.477 403.238,678.58 405.374,688.695 407.778,740.859 410.482,781.724 412.176,787.314 414.081,814.642 416.224,836.784 418.635,838.946 421.348,846.839 
  424.4,776.367 427.833,758.265 431.695,794.546 436.04,834.898 439.693,833.622 443.802,858.528 448.425,886.858 452.83,898.795 457.785,909.968 463.36,945.137 
  469.632,970.933 476.688,983.409 484.625,1042.29 491.683,937.395 494.414,943.612 497.487,937.955 500.944,928.805 504.833,875.795 509.208,1005.63 510.448,1011.18 
  511.842,965.814 513.411,969.445 515.176,966.892 517.161,968.232 519.394,1008.53 521.561,1014.57 523.998,1015.91 526.739,1046.05 529.824,1088.89 533.294,1064.08 
  537.197,1006.88 541.589,1032.77 543.047,1020.75 544.686,1003.43 546.531,1030.59 548.606,1065.76 550.941,1074.53 553.567,1078.87 556.522,1072.18 559.846,1073.85 
  563.585,1030.03 567.792,1085.68 570.337,1092.49 573.2,1083.12 576.421,1072.09 580.045,1081.18 584.121,1068.88 586.308,1062.99 588.768,1031.76 591.536,1021.59 
  594.649,994.825 598.152,967.412 602.092,983.735 606.496,943.634 611.45,877.761 614.737,890.036 618.436,844.305 622.596,866.238 627.277,851.262 632.543,833.974 
  638.467,707.067 645.025,878.638 649.652,877.873 654.857,904.975 657.778,898.982 661.064,934.348 664.76,951.61 668.919,885.298 671.666,887.265 674.756,840.722 
  678.232,857.861 682.143,871.015 683.586,870.184 685.209,836.021 687.035,804.948 688.39,738.112 689.915,791.446 691.63,826.198 693.56,836.285 695.731,832.164 
  698.173,861.835 700.92,814.68 703.788,850.879 707.013,781.249 710.642,746.119 714.725,804.519 719.318,830.666 724.484,907.115 727.394,984.829 730.668,929.552 
  734.35,951.303 738.493,1019.44 743.154,942.637 748.398,930.889 754.297,930.847 760.933,935.522 767.604,1028.63 775.11,1059.11 783.553,1140.42 793.052,1144.15 
  803.738,1179.83 815.759,1231.59 821.78,1217.89 828.554,1230.09 836.174,1199.55 841.81,1232.55 846.069,1217.17 850.861,1219.87 856.252,1190.86 862.317,1147.18 
  869.14,1149.2 876.816,1163.21 881.367,1157.89 886.487,1221.2 889.037,1213.42 891.905,1189.09 895.132,1169.83 898.762,1176.9 902.846,1176.44 907.44,1149.78 
  911.04,1179.66 915.09,1195.28 919.646,1161.8 924.772,1135.5 926.643,1176.65 928.748,1173.69 931.116,1179.83 933.78,1195.94 936.778,1214.9 940.15,1232.91 
  943.943,1242.09 948.211,1244.94 953.012,1243.47 955.113,1245.28 957.477,1247.82 960.137,1249.09 963.129,1247.07 966.495,1241.77 970.282,1237.4 974.542,1263.93 
  979.335,1266 984.727,1249.88 990.793,1229.65 997.617,1244.05 1005.29,1235.66 1013.93,1213.66 1023.65,1176.02 1030.02,1216.04 1037.19,1201.59 1045.26,1226.93 
  1054.34,1232.75 1064.55,1242.08 1076.04,1257.54 1080.19,1264.91 1084.86,1282.22 1090.11,1295.25 1096.02,1289.8 1102.67,1288.28 1110.15,1275.29 1118.56,1257.96 
  1128.03,1275.32 1138.68,1253.34 1150.66,1246.54 1154,1243.27 1157.76,1268.21 1161.99,1267.8 1166.74,1282.73 1172.09,1281.06 1178.11,1281.99 1184.88,1256.21 
  1192.5,1274.11 1195.56,1289.91 1199,1289.14 1202.87,1284.46 1207.23,1279.89 1212.13,1285.57 1217.64,1283.78 1223.84,1292.1 1230.81,1279.74 1238.66,1294.9 
  1247.49,1296.87 1257.42,1306.11 1268.59,1316.72 1281.17,1321.97 1295.31,1329.14 1302.69,1333.33 1310.99,1337.37 1320.33,1338.78 1330.84,1344.34 1337.64,1356.19 
  1342.78,1346.92 1348.57,1349.53 1355.08,1346.05 1362.4,1351.11 1370.64,1341.8 1375.02,1340.83 1379.95,1340.94 1385.49,1346.28 1391.73,1348.75 1398.75,1354.23 
  1406.64,1356.09 1415.53,1352.77 1425.52,1360.25 1436.76,1358.21 1449.41,1352.3 1463.64,1359.11 1479.64,1364.89 1497.65,1366.19 1517.91,1366.08 1540.7,1359.79 
  1566.34,1354.82 1577.99,1359.71 1591.1,1358.29 1605.85,1363.39 1611.26,1368.03 1617.34,1366.78 1624.19,1369.59 1631.89,1371.48 1640.55,1369.09 1650.3,1371.1 
  1661.26,1374.34 1673.6,1376.55 1687.47,1373.22 1692.67,1371.62 1698.52,1374.3 1705.1,1372.64 1712.51,1374.21 1714.94,1373.77 1717.67,1375.35 1720.75,1376.63 
  1724.21,1376.86 1728.1,1376.56 1732.48,1376.4 1737.41,1377.77 1742.96,1378.31 1749.19,1378.58 1756.21,1378.54 1764.1,1379.97 1772.98,1381.12 1782.98,1382.81 
  1792.23,1383.05 1802.65,1384.24 1814.37,1383.19 1827.55,1381.88 1842.38,1381.8 1859.06,1380.77 1877.83,1382.82 1883.21,1382.95 1889.27,1381.64 1896.09,1381.4 
  1903.76,1381.04 1912.38,1380.43 1922.09,1380.12 1933.01,1379.13 1945.29,1378.9 1957.26,1377.58 1970.72,1380.51 1985.86,1380.21 2002.9,1379.69 2022.07,1381.43 
  2030.45,1381.19 2039.88,1379.76 2044.93,1380.23 2050.61,1381.06 2057,1379.86 2063.89,1381.47 2071.64,1381.53 2080.37,1381.99 2087.25,1381.32 2094.99,1381.96 
  2103.7,1382.25 2113.49,1382.6 2119.54,1382.26 2126.33,1381.85 2133.98,1380.19 2136.03,1379.67 2138.34,1379.03 2140.94,1379.25 2143.87,1380.14 2147.15,1380.27 
  2150.85,1380.48 2152.2,1380.47 2153.72,1380.85 2155.43,1380.95 2157.35,1381.31 2159.52,1381.68 2161.95,1381.67 2164.69,1381.87 2167.34,1381.87 2170.32,1382.14 
  2173.67,1381.47 2177.44,1381.71 2181.69,1381.82 2186.46,1381.31 2191.83,1381.34 2197.87,1380.06 2204.67,1379.79 2212.32,1379.67 2220.92,1381.68 2230.6,1381.13 
  2241.48,1381.93 2253.73,1380.53 2263.51,1378.19 2274.51,1376.3 2286.88,1373.93 2300.8,1374.57 2306.57,1375.19 2310.91,1379.04 2313.16,1379.59 2315.7,1379.81 
  2318.55,1378.37 2321.76,1378.57 2325.37,1378.3 2329.17,1377.74 2333.44,1377.9 2338.25,1377.86 2343.66,1378.06 2349.75,1376.26 2352.76,1378.13 
  "/>
<path clip-path="url(#clip900)" d="
M1927.78 248.629 L2279.53 248.629 L2279.53 93.1086 L1927.78 93.1086  Z
  " fill="#ffffff" fill-rule="evenodd" fill-opacity="1"/>
<polyline clip-path="url(#clip900)" style="stroke:#000000; stroke-linecap:butt; stroke-linejoin:round; stroke-width:4; stroke-opacity:1; fill:none" points="
  1927.78,248.629 2279.53,248.629 2279.53,93.1086 1927.78,93.1086 1927.78,248.629 
  "/>
<polyline clip-path="url(#clip900)" style="stroke:#009af9; stroke-linecap:butt; stroke-linejoin:round; stroke-width:4; stroke-opacity:1; fill:none" points="
  1952.19,144.949 2098.63,144.949 
  "/>
<path clip-path="url(#clip900)" d="M2123.04 151.997 L2123.04 136.303 L2127.29 136.303 L2127.29 151.835 Q2127.29 155.516 2128.73 157.368 Q2130.17 159.196 2133.04 159.196 Q2136.48 159.196 2138.48 156.997 Q2140.49 154.798 2140.49 151.002 L2140.49 136.303 L2144.75 136.303 L2144.75 162.229 L2140.49 162.229 L2140.49 158.247 Q2138.94 160.608 2136.88 161.766 Q2134.84 162.9 2132.13 162.9 Q2127.67 162.9 2125.35 160.122 Q2123.04 157.344 2123.04 151.997 M2133.75 135.678 L2133.75 135.678 Z" fill="#000000" fill-rule="evenodd" fill-opacity="1" /><path clip-path="url(#clip900)" d="M2154.93 158.293 L2162.57 158.293 L2162.57 131.928 L2154.26 133.595 L2154.26 129.335 L2162.53 127.669 L2167.2 127.669 L2167.2 158.293 L2174.84 158.293 L2174.84 162.229 L2154.93 162.229 L2154.93 158.293 Z" fill="#000000" fill-rule="evenodd" fill-opacity="1" /><path clip-path="url(#clip900)" d="M2193.91 126.257 Q2190.81 131.581 2189.31 136.789 Q2187.8 141.997 2187.8 147.344 Q2187.8 152.692 2189.31 157.946 Q2190.84 163.178 2193.91 168.479 L2190.21 168.479 Q2186.74 163.039 2185 157.784 Q2183.29 152.53 2183.29 147.344 Q2183.29 142.182 2185 136.951 Q2186.72 131.72 2190.21 126.257 L2193.91 126.257 Z" fill="#000000" fill-rule="evenodd" fill-opacity="1" /><path clip-path="url(#clip900)" d="M2206.39 128.942 L2206.39 136.303 L2215.16 136.303 L2215.16 139.613 L2206.39 139.613 L2206.39 153.687 Q2206.39 156.858 2207.25 157.761 Q2208.13 158.664 2210.79 158.664 L2215.16 158.664 L2215.16 162.229 L2210.79 162.229 Q2205.86 162.229 2203.98 160.4 Q2202.11 158.548 2202.11 153.687 L2202.11 139.613 L2198.98 139.613 L2198.98 136.303 L2202.11 136.303 L2202.11 128.942 L2206.39 128.942 Z" fill="#000000" fill-rule="evenodd" fill-opacity="1" /><path clip-path="url(#clip900)" d="M2220.1 126.257 L2223.8 126.257 Q2227.27 131.72 2228.98 136.951 Q2230.72 142.182 2230.72 147.344 Q2230.72 152.53 2228.98 157.784 Q2227.27 163.039 2223.8 168.479 L2220.1 168.479 Q2223.17 163.178 2224.68 157.946 Q2226.21 152.692 2226.21 147.344 Q2226.21 141.997 2224.68 136.789 Q2223.17 131.581 2220.1 126.257 Z" fill="#000000" fill-rule="evenodd" fill-opacity="1" /><polyline clip-path="url(#clip900)" style="stroke:#e26f46; stroke-linecap:butt; stroke-linejoin:round; stroke-width:4; stroke-opacity:1; fill:none" points="
  1952.19,196.789 2098.63,196.789 
  "/>
<path clip-path="url(#clip900)" d="M2123.04 203.837 L2123.04 188.143 L2127.29 188.143 L2127.29 203.675 Q2127.29 207.356 2128.73 209.208 Q2130.17 211.036 2133.04 211.036 Q2136.48 211.036 2138.48 208.837 Q2140.49 206.638 2140.49 202.842 L2140.49 188.143 L2144.75 188.143 L2144.75 214.069 L2140.49 214.069 L2140.49 210.087 Q2138.94 212.448 2136.88 213.606 Q2134.84 214.74 2132.13 214.74 Q2127.67 214.74 2125.35 211.962 Q2123.04 209.184 2123.04 203.837 M2133.75 187.518 L2133.75 187.518 Z" fill="#000000" fill-rule="evenodd" fill-opacity="1" /><path clip-path="url(#clip900)" d="M2158.15 210.133 L2174.47 210.133 L2174.47 214.069 L2152.53 214.069 L2152.53 210.133 Q2155.19 207.379 2159.77 202.749 Q2164.38 198.096 2165.56 196.754 Q2167.8 194.231 2168.68 192.495 Q2169.59 190.735 2169.59 189.046 Q2169.59 186.291 2167.64 184.555 Q2165.72 182.819 2162.62 182.819 Q2160.42 182.819 2157.97 183.583 Q2155.54 184.347 2152.76 185.897 L2152.76 181.175 Q2155.58 180.041 2158.04 179.462 Q2160.49 178.884 2162.53 178.884 Q2167.9 178.884 2171.09 181.569 Q2174.29 184.254 2174.29 188.745 Q2174.29 190.874 2173.48 192.796 Q2172.69 194.694 2170.58 197.286 Q2170 197.958 2166.9 201.175 Q2163.8 204.37 2158.15 210.133 Z" fill="#000000" fill-rule="evenodd" fill-opacity="1" /><path clip-path="url(#clip900)" d="M2193.91 178.097 Q2190.81 183.421 2189.31 188.629 Q2187.8 193.837 2187.8 199.184 Q2187.8 204.532 2189.31 209.786 Q2190.84 215.018 2193.91 220.319 L2190.21 220.319 Q2186.74 214.879 2185 209.624 Q2183.29 204.37 2183.29 199.184 Q2183.29 194.022 2185 188.791 Q2186.72 183.56 2190.21 178.097 L2193.91 178.097 Z" fill="#000000" fill-rule="evenodd" fill-opacity="1" /><path clip-path="url(#clip900)" d="M2206.39 180.782 L2206.39 188.143 L2215.16 188.143 L2215.16 191.453 L2206.39 191.453 L2206.39 205.527 Q2206.39 208.698 2207.25 209.601 Q2208.13 210.504 2210.79 210.504 L2215.16 210.504 L2215.16 214.069 L2210.79 214.069 Q2205.86 214.069 2203.98 212.24 Q2202.11 210.388 2202.11 205.527 L2202.11 191.453 L2198.98 191.453 L2198.98 188.143 L2202.11 188.143 L2202.11 180.782 L2206.39 180.782 Z" fill="#000000" fill-rule="evenodd" fill-opacity="1" /><path clip-path="url(#clip900)" d="M2220.1 178.097 L2223.8 178.097 Q2227.27 183.56 2228.98 188.791 Q2230.72 194.022 2230.72 199.184 Q2230.72 204.37 2228.98 209.624 Q2227.27 214.879 2223.8 220.319 L2220.1 220.319 Q2223.17 215.018 2224.68 209.786 Q2226.21 204.532 2226.21 199.184 Q2226.21 193.837 2224.68 188.629 Q2223.17 183.421 2220.1 178.097 Z" fill="#000000" fill-rule="evenodd" fill-opacity="1" /></svg>
