<?xml version="1.0" encoding="utf-8"?>
<svg xmlns="http://www.w3.org/2000/svg" xmlns:xlink="http://www.w3.org/1999/xlink" width="600" height="400" viewBox="0 0 2400 1600">
<defs>
  <clipPath id="clip980">
    <rect x="0" y="0" width="2400" height="1600"/>
  </clipPath>
</defs>
<path clip-path="url(#clip980)" d="
M0 1600 L2400 1600 L2400 0 L0 0  Z
  " fill="#ffffff" fill-rule="evenodd" fill-opacity="1"/>
<defs>
  <clipPath id="clip981">
    <rect x="480" y="0" width="1681" height="1600"/>
  </clipPath>
</defs>
<path clip-path="url(#clip980)" d="
M138.959 1423.18 L2352.76 1423.18 L2352.76 47.2441 L138.959 47.2441  Z
  " fill="#ffffff" fill-rule="evenodd" fill-opacity="1"/>
<defs>
  <clipPath id="clip982">
    <rect x="138" y="47" width="2215" height="1377"/>
  </clipPath>
</defs>
<polyline clip-path="url(#clip982)" style="stroke:#000000; stroke-linecap:butt; stroke-linejoin:round; stroke-width:2; stroke-opacity:0.1; fill:none" points="
  138.959,1423.18 138.959,47.2441 
  "/>
<polyline clip-path="url(#clip982)" style="stroke:#000000; stroke-linecap:butt; stroke-linejoin:round; stroke-width:2; stroke-opacity:0.1; fill:none" points="
  581.719,1423.18 581.719,47.2441 
  "/>
<polyline clip-path="url(#clip982)" style="stroke:#000000; stroke-linecap:butt; stroke-linejoin:round; stroke-width:2; stroke-opacity:0.1; fill:none" points="
  1024.48,1423.18 1024.48,47.2441 
  "/>
<polyline clip-path="url(#clip982)" style="stroke:#000000; stroke-linecap:butt; stroke-linejoin:round; stroke-width:2; stroke-opacity:0.1; fill:none" points="
  1467.24,1423.18 1467.24,47.2441 
  "/>
<polyline clip-path="url(#clip982)" style="stroke:#000000; stroke-linecap:butt; stroke-linejoin:round; stroke-width:2; stroke-opacity:0.1; fill:none" points="
  1910,1423.18 1910,47.2441 
  "/>
<polyline clip-path="url(#clip982)" style="stroke:#000000; stroke-linecap:butt; stroke-linejoin:round; stroke-width:2; stroke-opacity:0.1; fill:none" points="
  2352.76,1423.18 2352.76,47.2441 
  "/>
<polyline clip-path="url(#clip980)" style="stroke:#000000; stroke-linecap:butt; stroke-linejoin:round; stroke-width:4; stroke-opacity:1; fill:none" points="
  138.959,1423.18 2352.76,1423.18 
  "/>
<polyline clip-path="url(#clip980)" style="stroke:#000000; stroke-linecap:butt; stroke-linejoin:round; stroke-width:4; stroke-opacity:1; fill:none" points="
  138.959,1423.18 138.959,1404.28 
  "/>
<polyline clip-path="url(#clip980)" style="stroke:#000000; stroke-linecap:butt; stroke-linejoin:round; stroke-width:4; stroke-opacity:1; fill:none" points="
  581.719,1423.18 581.719,1404.28 
  "/>
<polyline clip-path="url(#clip980)" style="stroke:#000000; stroke-linecap:butt; stroke-linejoin:round; stroke-width:4; stroke-opacity:1; fill:none" points="
  1024.48,1423.18 1024.48,1404.28 
  "/>
<polyline clip-path="url(#clip980)" style="stroke:#000000; stroke-linecap:butt; stroke-linejoin:round; stroke-width:4; stroke-opacity:1; fill:none" points="
  1467.24,1423.18 1467.24,1404.28 
  "/>
<polyline clip-path="url(#clip980)" style="stroke:#000000; stroke-linecap:butt; stroke-linejoin:round; stroke-width:4; stroke-opacity:1; fill:none" points="
  1910,1423.18 1910,1404.28 
  "/>
<polyline clip-path="url(#clip980)" style="stroke:#000000; stroke-linecap:butt; stroke-linejoin:round; stroke-width:4; stroke-opacity:1; fill:none" points="
  2352.76,1423.18 2352.76,1404.28 
  "/>
<path clip-path="url(#clip980)" d="M138.959 1454.1 Q135.348 1454.1 133.52 1457.66 Q131.714 1461.2 131.714 1468.33 Q131.714 1475.44 133.52 1479.01 Q135.348 1482.55 138.959 1482.55 Q142.594 1482.55 144.399 1479.01 Q146.228 1475.44 146.228 1468.33 Q146.228 1461.2 144.399 1457.66 Q142.594 1454.1 138.959 1454.1 M138.959 1450.39 Q144.77 1450.39 147.825 1455 Q150.904 1459.58 150.904 1468.33 Q150.904 1477.06 147.825 1481.67 Q144.77 1486.25 138.959 1486.25 Q133.149 1486.25 130.071 1481.67 Q127.015 1477.06 127.015 1468.33 Q127.015 1459.58 130.071 1455 Q133.149 1450.39 138.959 1450.39 Z" fill="#000000" fill-rule="evenodd" fill-opacity="1" /><path clip-path="url(#clip980)" d="M572.101 1481.64 L579.74 1481.64 L579.74 1455.28 L571.429 1456.95 L571.429 1452.69 L579.693 1451.02 L584.369 1451.02 L584.369 1481.64 L592.008 1481.64 L592.008 1485.58 L572.101 1485.58 L572.101 1481.64 Z" fill="#000000" fill-rule="evenodd" fill-opacity="1" /><path clip-path="url(#clip980)" d="M1019.13 1481.64 L1035.45 1481.64 L1035.45 1485.58 L1013.51 1485.58 L1013.51 1481.64 Q1016.17 1478.89 1020.75 1474.26 Q1025.36 1469.61 1026.54 1468.27 Q1028.78 1465.74 1029.66 1464.01 Q1030.57 1462.25 1030.57 1460.56 Q1030.57 1457.8 1028.62 1456.07 Q1026.7 1454.33 1023.6 1454.33 Q1021.4 1454.33 1018.95 1455.09 Q1016.52 1455.86 1013.74 1457.41 L1013.74 1452.69 Q1016.56 1451.55 1019.02 1450.97 Q1021.47 1450.39 1023.51 1450.39 Q1028.88 1450.39 1032.07 1453.08 Q1035.27 1455.77 1035.27 1460.26 Q1035.27 1462.39 1034.45 1464.31 Q1033.67 1466.2 1031.56 1468.8 Q1030.98 1469.47 1027.88 1472.69 Q1024.78 1475.88 1019.13 1481.64 Z" fill="#000000" fill-rule="evenodd" fill-opacity="1" /><path clip-path="url(#clip980)" d="M1471.48 1466.95 Q1474.84 1467.66 1476.72 1469.93 Q1478.61 1472.2 1478.61 1475.53 Q1478.61 1480.65 1475.1 1483.45 Q1471.58 1486.25 1465.1 1486.25 Q1462.92 1486.25 1460.61 1485.81 Q1458.31 1485.39 1455.86 1484.54 L1455.86 1480.02 Q1457.8 1481.16 1460.12 1481.74 Q1462.43 1482.32 1464.96 1482.32 Q1469.36 1482.32 1471.65 1480.58 Q1473.96 1478.84 1473.96 1475.53 Q1473.96 1472.48 1471.81 1470.77 Q1469.68 1469.03 1465.86 1469.03 L1461.83 1469.03 L1461.83 1465.19 L1466.05 1465.19 Q1469.49 1465.19 1471.32 1463.82 Q1473.15 1462.43 1473.15 1459.84 Q1473.15 1457.18 1471.25 1455.77 Q1469.38 1454.33 1465.86 1454.33 Q1463.94 1454.33 1461.74 1454.75 Q1459.54 1455.16 1456.9 1456.04 L1456.9 1451.88 Q1459.56 1451.14 1461.88 1450.77 Q1464.22 1450.39 1466.28 1450.39 Q1471.6 1450.39 1474.7 1452.83 Q1477.8 1455.23 1477.8 1459.35 Q1477.8 1462.22 1476.16 1464.21 Q1474.52 1466.18 1471.48 1466.95 Z" fill="#000000" fill-rule="evenodd" fill-opacity="1" /><path clip-path="url(#clip980)" d="M1913.01 1455.09 L1901.2 1473.54 L1913.01 1473.54 L1913.01 1455.09 M1911.78 1451.02 L1917.66 1451.02 L1917.66 1473.54 L1922.59 1473.54 L1922.59 1477.43 L1917.66 1477.43 L1917.66 1485.58 L1913.01 1485.58 L1913.01 1477.43 L1897.4 1477.43 L1897.4 1472.92 L1911.78 1451.02 Z" fill="#000000" fill-rule="evenodd" fill-opacity="1" /><path clip-path="url(#clip980)" d="M2343.03 1451.02 L2361.39 1451.02 L2361.39 1454.96 L2347.32 1454.96 L2347.32 1463.43 Q2348.33 1463.08 2349.35 1462.92 Q2350.37 1462.73 2351.39 1462.73 Q2357.18 1462.73 2360.56 1465.9 Q2363.94 1469.08 2363.94 1474.49 Q2363.94 1480.07 2360.46 1483.17 Q2356.99 1486.25 2350.67 1486.25 Q2348.5 1486.25 2346.23 1485.88 Q2343.98 1485.51 2341.58 1484.77 L2341.58 1480.07 Q2343.66 1481.2 2345.88 1481.76 Q2348.1 1482.32 2350.58 1482.32 Q2354.58 1482.32 2356.92 1480.21 Q2359.26 1478.1 2359.26 1474.49 Q2359.26 1470.88 2356.92 1468.77 Q2354.58 1466.67 2350.58 1466.67 Q2348.71 1466.67 2346.83 1467.08 Q2344.98 1467.5 2343.03 1468.38 L2343.03 1451.02 Z" fill="#000000" fill-rule="evenodd" fill-opacity="1" /><path clip-path="url(#clip980)" d="M1244.92 1522.27 L1244.92 1532.4 L1256.98 1532.4 L1256.98 1536.95 L1244.92 1536.95 L1244.92 1556.3 Q1244.92 1560.66 1246.1 1561.9 Q1247.31 1563.14 1250.97 1563.14 L1256.98 1563.14 L1256.98 1568.04 L1250.97 1568.04 Q1244.19 1568.04 1241.61 1565.53 Q1239.03 1562.98 1239.03 1556.3 L1239.03 1536.95 L1234.73 1536.95 L1234.73 1532.4 L1239.03 1532.4 L1239.03 1522.27 L1244.92 1522.27 Z" fill="#000000" fill-rule="evenodd" fill-opacity="1" /><polyline clip-path="url(#clip982)" style="stroke:#000000; stroke-linecap:butt; stroke-linejoin:round; stroke-width:2; stroke-opacity:0.1; fill:none" points="
  138.959,1388.63 2352.76,1388.63 
  "/>
<polyline clip-path="url(#clip982)" style="stroke:#000000; stroke-linecap:butt; stroke-linejoin:round; stroke-width:2; stroke-opacity:0.1; fill:none" points="
  138.959,1025.56 2352.76,1025.56 
  "/>
<polyline clip-path="url(#clip982)" style="stroke:#000000; stroke-linecap:butt; stroke-linejoin:round; stroke-width:2; stroke-opacity:0.1; fill:none" points="
  138.959,662.484 2352.76,662.484 
  "/>
<polyline clip-path="url(#clip982)" style="stroke:#000000; stroke-linecap:butt; stroke-linejoin:round; stroke-width:2; stroke-opacity:0.1; fill:none" points="
  138.959,299.412 2352.76,299.412 
  "/>
<polyline clip-path="url(#clip980)" style="stroke:#000000; stroke-linecap:butt; stroke-linejoin:round; stroke-width:4; stroke-opacity:1; fill:none" points="
  138.959,1423.18 138.959,47.2441 
  "/>
<polyline clip-path="url(#clip980)" style="stroke:#000000; stroke-linecap:butt; stroke-linejoin:round; stroke-width:4; stroke-opacity:1; fill:none" points="
  138.959,1388.63 157.857,1388.63 
  "/>
<polyline clip-path="url(#clip980)" style="stroke:#000000; stroke-linecap:butt; stroke-linejoin:round; stroke-width:4; stroke-opacity:1; fill:none" points="
  138.959,1025.56 157.857,1025.56 
  "/>
<polyline clip-path="url(#clip980)" style="stroke:#000000; stroke-linecap:butt; stroke-linejoin:round; stroke-width:4; stroke-opacity:1; fill:none" points="
  138.959,662.484 157.857,662.484 
  "/>
<polyline clip-path="url(#clip980)" style="stroke:#000000; stroke-linecap:butt; stroke-linejoin:round; stroke-width:4; stroke-opacity:1; fill:none" points="
  138.959,299.412 157.857,299.412 
  "/>
<path clip-path="url(#clip980)" d="M91.0151 1374.43 Q87.404 1374.43 85.5753 1377.99 Q83.7697 1381.53 83.7697 1388.66 Q83.7697 1395.77 85.5753 1399.33 Q87.404 1402.88 91.0151 1402.88 Q94.6493 1402.88 96.4548 1399.33 Q98.2835 1395.77 98.2835 1388.66 Q98.2835 1381.53 96.4548 1377.99 Q94.6493 1374.43 91.0151 1374.43 M91.0151 1370.72 Q96.8252 1370.72 99.8808 1375.33 Q102.959 1379.91 102.959 1388.66 Q102.959 1397.39 99.8808 1402 Q96.8252 1406.58 91.0151 1406.58 Q85.2049 1406.58 82.1262 1402 Q79.0707 1397.39 79.0707 1388.66 Q79.0707 1379.91 82.1262 1375.33 Q85.2049 1370.72 91.0151 1370.72 Z" fill="#000000" fill-rule="evenodd" fill-opacity="1" /><path clip-path="url(#clip980)" d="M82.0568 1008.28 L100.413 1008.28 L100.413 1012.21 L86.3392 1012.21 L86.3392 1020.68 Q87.3577 1020.34 88.3762 1020.17 Q89.3947 1019.99 90.4132 1019.99 Q96.2002 1019.99 99.5798 1023.16 Q102.959 1026.33 102.959 1031.75 Q102.959 1037.33 99.4872 1040.43 Q96.015 1043.51 89.6956 1043.51 Q87.5197 1043.51 85.2512 1043.14 Q83.0058 1042.77 80.5984 1042.03 L80.5984 1037.33 Q82.6818 1038.46 84.904 1039.02 Q87.1262 1039.57 89.603 1039.57 Q93.6076 1039.57 95.9456 1037.47 Q98.2835 1035.36 98.2835 1031.75 Q98.2835 1028.14 95.9456 1026.03 Q93.6076 1023.92 89.603 1023.92 Q87.728 1023.92 85.8531 1024.34 Q84.0012 1024.76 82.0568 1025.64 L82.0568 1008.28 Z" fill="#000000" fill-rule="evenodd" fill-opacity="1" /><path clip-path="url(#clip980)" d="M51.6634 675.829 L59.3023 675.829 L59.3023 649.464 L50.9921 651.13 L50.9921 646.871 L59.256 645.204 L63.9319 645.204 L63.9319 675.829 L71.5707 675.829 L71.5707 679.764 L51.6634 679.764 L51.6634 675.829 Z" fill="#000000" fill-rule="evenodd" fill-opacity="1" /><path clip-path="url(#clip980)" d="M91.0151 648.283 Q87.404 648.283 85.5753 651.848 Q83.7697 655.389 83.7697 662.519 Q83.7697 669.625 85.5753 673.19 Q87.404 676.732 91.0151 676.732 Q94.6493 676.732 96.4548 673.19 Q98.2835 669.625 98.2835 662.519 Q98.2835 655.389 96.4548 651.848 Q94.6493 648.283 91.0151 648.283 M91.0151 644.579 Q96.8252 644.579 99.8808 649.186 Q102.959 653.769 102.959 662.519 Q102.959 671.246 99.8808 675.852 Q96.8252 680.436 91.0151 680.436 Q85.2049 680.436 82.1262 675.852 Q79.0707 671.246 79.0707 662.519 Q79.0707 653.769 82.1262 649.186 Q85.2049 644.579 91.0151 644.579 Z" fill="#000000" fill-rule="evenodd" fill-opacity="1" /><path clip-path="url(#clip980)" d="M52.6588 312.757 L60.2976 312.757 L60.2976 286.391 L51.9875 288.058 L51.9875 283.799 L60.2513 282.132 L64.9272 282.132 L64.9272 312.757 L72.5661 312.757 L72.5661 316.692 L52.6588 316.692 L52.6588 312.757 Z" fill="#000000" fill-rule="evenodd" fill-opacity="1" /><path clip-path="url(#clip980)" d="M82.0568 282.132 L100.413 282.132 L100.413 286.067 L86.3392 286.067 L86.3392 294.539 Q87.3577 294.192 88.3762 294.03 Q89.3947 293.845 90.4132 293.845 Q96.2002 293.845 99.5798 297.016 Q102.959 300.187 102.959 305.604 Q102.959 311.183 99.4872 314.285 Q96.015 317.363 89.6956 317.363 Q87.5197 317.363 85.2512 316.993 Q83.0058 316.623 80.5984 315.882 L80.5984 311.183 Q82.6818 312.317 84.904 312.873 Q87.1262 313.428 89.603 313.428 Q93.6076 313.428 95.9456 311.322 Q98.2835 309.215 98.2835 305.604 Q98.2835 301.993 95.9456 299.887 Q93.6076 297.78 89.603 297.78 Q87.728 297.78 85.8531 298.197 Q84.0012 298.613 82.0568 299.493 L82.0568 282.132 Z" fill="#000000" fill-rule="evenodd" fill-opacity="1" /><polyline clip-path="url(#clip982)" style="stroke:#009af9; stroke-linecap:butt; stroke-linejoin:round; stroke-width:4; stroke-opacity:1; fill:none" points="
  138.959,1316.01 143.387,1316.01 147.815,1316.18 152.242,1316.41 156.67,1316.52 161.097,1316.36 165.525,1316.29 169.953,1316.19 174.38,1316.08 178.808,1315.92 
  183.235,1316.1 187.663,1316.52 192.091,1317.04 196.518,1317.78 200.946,1318.78 205.373,1319.85 209.801,1320.9 214.229,1322 218.656,1323.1 223.084,1324.2 
  227.511,1325.09 231.939,1325.91 236.366,1326.81 240.794,1327.61 245.222,1328.36 249.649,1329.04 254.077,1329.76 258.504,1330.53 262.932,1331.26 267.36,1332.09 
  271.787,1332.82 276.215,1333.71 280.642,1334.53 285.07,1335.39 289.498,1336.31 293.925,1337.23 298.353,1338.15 302.78,1339.1 307.208,1340.07 311.636,1341.02 
  316.063,1341.97 320.491,1342.9 324.918,1343.79 329.346,1344.58 333.774,1345.32 338.201,1345.97 342.629,1346.62 347.056,1347.31 351.484,1347.99 355.911,1348.49 
  360.339,1349.04 364.767,1349.59 369.194,1350.11 373.622,1350.72 378.049,1351.22 382.477,1351.76 386.905,1352.33 391.332,1352.94 395.76,1353.56 400.187,1354.18 
  404.615,1354.77 409.043,1355.35 413.47,1355.95 417.898,1356.52 422.325,1357.04 426.753,1357.61 431.181,1358.22 435.608,1358.78 440.036,1359.28 444.463,1359.84 
  448.891,1360.37 453.319,1360.91 457.746,1361.41 462.174,1361.93 466.601,1362.46 471.029,1362.97 475.457,1363.48 479.884,1363.98 484.312,1364.45 488.739,1364.84 
  493.167,1365.26 497.594,1365.62 502.022,1365.95 506.45,1366.31 510.877,1366.68 515.305,1367.06 519.732,1367.46 524.16,1367.86 528.588,1368.26 533.015,1368.64 
  537.443,1369.01 541.87,1369.37 546.298,1369.7 550.726,1370.01 555.153,1370.35 559.581,1370.7 564.008,1371.04 568.436,1371.36 572.864,1371.69 577.291,1372 
  581.719,1372.33 586.146,1372.64 590.574,1372.95 595.002,1373.25 599.429,1373.56 603.857,1373.86 608.284,1374.15 612.712,1374.43 617.139,1374.67 621.567,1374.92 
  625.995,1375.16 630.422,1375.39 634.85,1375.62 639.277,1375.84 643.705,1376.08 648.133,1376.32 652.56,1376.55 656.988,1376.79 661.415,1377.03 665.843,1377.26 
  670.271,1377.49 674.698,1377.71 679.126,1377.93 683.553,1378.14 687.981,1378.34 692.409,1378.54 696.836,1378.74 701.264,1378.92 705.691,1379.09 710.119,1379.26 
  714.547,1379.42 718.974,1379.57 723.402,1379.71 727.829,1379.86 732.257,1380 736.684,1380.15 741.112,1380.3 745.54,1380.45 749.967,1380.58 754.395,1380.71 
  758.822,1380.84 763.25,1380.98 767.678,1381.08 772.105,1381.21 776.533,1381.33 780.96,1381.46 785.388,1381.59 789.816,1381.72 794.243,1381.85 798.671,1381.95 
  803.098,1382.05 807.526,1382.11 811.954,1382.18 816.381,1382.22 820.809,1382.25 825.236,1382.24 829.664,1382.24 834.092,1382.25 838.519,1382.26 842.947,1382.26 
  847.374,1382.26 851.802,1382.24 856.229,1382.22 860.657,1382.19 865.085,1382.18 869.512,1382.19 873.94,1382.19 878.367,1382.2 882.795,1382.2 887.223,1382.2 
  891.65,1382.22 896.078,1382.24 900.505,1382.26 904.933,1382.3 909.361,1382.33 913.788,1382.37 918.216,1382.44 922.643,1382.48 927.071,1382.51 931.499,1382.56 
  935.926,1382.61 940.354,1382.68 944.781,1382.75 949.209,1382.83 953.637,1382.9 958.064,1382.95 962.492,1383 966.919,1383.04 971.347,1383.1 975.775,1383.13 
  980.202,1383.17 984.63,1383.21 989.057,1383.22 993.485,1383.26 997.912,1383.29 1002.34,1383.33 1006.77,1383.39 1011.2,1383.42 1015.62,1383.44 1020.05,1383.45 
  1024.48,1383.48 1028.91,1383.5 1033.33,1383.5 1037.76,1383.52 1042.19,1383.54 1046.62,1383.58 1051.04,1383.62 1055.47,1383.66 1059.9,1383.68 1064.33,1383.73 
  1068.75,1383.76 1073.18,1383.82 1077.61,1383.87 1082.04,1383.93 1086.46,1383.99 1090.89,1384.04 1095.32,1384.09 1099.75,1384.15 1104.17,1384.2 1108.6,1384.23 
  1113.03,1384.24 1117.46,1384.22 1121.89,1384.2 1126.31,1384.18 1130.74,1384.12 1135.17,1384.07 1139.6,1384.03 1144.02,1383.99 1148.45,1383.96 1152.88,1383.94 
  1157.31,1383.91 1161.73,1383.9 1166.16,1383.89 1170.59,1383.89 1175.02,1383.89 1179.44,1383.88 1183.87,1383.85 1188.3,1383.82 1192.73,1383.79 1197.15,1383.75 
  1201.58,1383.71 1206.01,1383.63 1210.44,1383.55 1214.86,1383.48 1219.29,1383.42 1223.72,1383.36 1228.15,1383.27 1232.57,1383.18 1237,1383.07 1241.43,1382.97 
  1245.86,1382.86 1250.29,1382.74 1254.71,1382.63 1259.14,1382.52 1263.57,1382.42 1268,1382.31 1272.42,1382.21 1276.85,1382.09 1281.28,1381.97 1285.71,1381.85 
  1290.13,1381.73 1294.56,1381.61 1298.99,1381.51 1303.42,1381.39 1307.84,1381.29 1312.27,1381.19 1316.7,1381.09 1321.13,1381 1325.55,1380.93 1329.98,1380.87 
  1334.41,1380.78 1338.84,1380.71 1343.26,1380.63 1347.69,1380.56 1352.12,1380.51 1356.55,1380.49 1360.98,1380.44 1365.4,1380.36 1369.83,1380.29 1374.26,1380.24 
  1378.69,1380.21 1383.11,1380.2 1387.54,1380.14 1391.97,1380.12 1396.4,1380.08 1400.82,1380.06 1405.25,1380.01 1409.68,1379.93 1414.11,1379.86 1418.53,1379.81 
  1422.96,1379.74 1427.39,1379.64 1431.82,1379.51 1436.24,1379.41 1440.67,1379.29 1445.1,1379.18 1449.53,1379.08 1453.95,1378.98 1458.38,1378.91 1462.81,1378.83 
  1467.24,1378.76 1471.66,1378.67 1476.09,1378.61 1480.52,1378.56 1484.95,1378.54 1489.38,1378.51 1493.8,1378.48 1498.23,1378.45 1502.66,1378.4 1507.09,1378.37 
  1511.51,1378.32 1515.94,1378.31 1520.37,1378.22 1524.8,1378.11 1529.22,1377.98 1533.65,1377.84 1538.08,1377.67 1542.51,1377.5 1546.93,1377.33 1551.36,1377.17 
  1555.79,1377.03 1560.22,1376.88 1564.64,1376.73 1569.07,1376.57 1573.5,1376.43 1577.93,1376.28 1582.35,1376.13 1586.78,1375.99 1591.21,1375.91 1595.64,1375.76 
  1600.07,1375.57 1604.49,1375.41 1608.92,1375.24 1613.35,1375.07 1617.78,1374.92 1622.2,1374.75 1626.63,1374.6 1631.06,1374.43 1635.49,1374.25 1639.91,1374.06 
  1644.34,1373.86 1648.77,1373.66 1653.2,1373.46 1657.62,1373.2 1662.05,1372.91 1666.48,1372.6 1670.91,1372.29 1675.33,1371.97 1679.76,1371.64 1684.19,1371.31 
  1688.62,1371.02 1693.04,1370.71 1697.47,1370.41 1701.9,1370.18 1706.33,1369.99 1710.75,1369.91 1715.18,1369.89 1719.61,1369.85 1724.04,1369.78 1728.47,1369.77 
  1732.89,1369.8 1737.32,1369.84 1741.75,1369.89 1746.18,1370.01 1750.6,1370.09 1755.03,1370.12 1759.46,1370.03 1763.89,1369.95 1768.31,1369.94 1772.74,1369.89 
  1777.17,1369.76 1781.6,1369.74 1786.02,1369.71 1790.45,1369.71 1794.88,1369.73 1799.31,1369.84 1803.73,1369.92 1808.16,1370.02 1812.59,1370.13 1817.02,1370.27 
  1821.44,1370.32 1825.87,1370.36 1830.3,1370.41 1834.73,1370.51 1839.16,1370.57 1843.58,1370.59 1848.01,1370.62 1852.44,1370.64 1856.87,1370.66 1861.29,1370.66 
  1865.72,1370.7 1870.15,1370.72 1874.58,1370.73 1879,1370.77 1883.43,1370.81 1887.86,1370.91 1892.29,1370.98 1896.71,1371.03 1901.14,1371.2 1905.57,1371.39 
  1910,1371.54 1914.42,1371.59 1918.85,1371.67 1923.28,1371.64 1927.71,1371.57 1932.13,1371.5 1936.56,1371.29 1940.99,1371.07 1945.42,1370.85 1949.84,1370.62 
  1954.27,1370.33 1958.7,1370.01 1963.13,1369.7 1967.56,1369.35 1971.98,1369.02 1976.41,1368.65 1980.84,1368.26 1985.27,1367.85 1989.69,1367.46 1994.12,1367.05 
  1998.55,1366.67 2002.98,1366.25 2007.4,1365.82 2011.83,1365.42 2016.26,1365.02 2020.69,1364.67 2025.11,1364.35 2029.54,1364.06 2033.97,1363.76 2038.4,1363.48 
  2042.82,1363.15 2047.25,1362.78 2051.68,1362.46 2056.11,1362.04 2060.53,1361.61 2064.96,1361.21 2069.39,1360.71 2073.82,1360.31 2078.25,1359.92 2082.67,1359.61 
  2087.1,1359.41 2091.53,1359.12 2095.96,1358.82 2100.38,1358.58 2104.81,1358.26 2109.24,1357.93 2113.67,1357.56 2118.09,1357.2 2122.52,1356.83 2126.95,1356.55 
  2131.38,1356.48 2135.8,1356.3 2140.23,1356.18 2144.66,1356.04 2149.09,1355.94 2153.51,1355.74 2157.94,1355.6 2162.37,1355.53 2166.8,1355.63 2171.22,1355.54 
  2175.65,1355.46 2180.08,1355.38 2184.51,1355.28 2188.93,1355 2193.36,1354.78 2197.79,1354.55 2202.22,1354.22 2206.65,1353.78 2211.07,1353.23 2215.5,1352.65 
  2219.93,1352.12 2224.36,1351.62 2228.78,1351.12 2233.21,1350.55 2237.64,1350.05 2242.07,1349.52 2246.49,1349.04 2250.92,1348.63 2255.35,1348.21 2259.78,1347.76 
  2264.2,1347.29 2268.63,1346.93 2273.06,1346.52 2277.49,1346.15 2281.91,1345.85 2286.34,1345.89 2290.77,1345.76 2295.2,1345.71 2299.62,1345.79 2304.05,1345.73 
  2308.48,1345.43 2312.91,1345.06 2317.34,1344.75 2321.76,1344.55 2326.19,1344.39 2330.62,1344.15 2335.05,1343.99 2339.47,1343.57 2343.9,1342.95 2348.33,1342.4 
  2352.76,1341.92 
  "/>
<polyline clip-path="url(#clip982)" style="stroke:#e26f46; stroke-linecap:butt; stroke-linejoin:round; stroke-width:4; stroke-opacity:1; fill:none" points="
  138.959,1316.01 143.387,1317.47 147.815,1318.89 152.242,1320.28 156.67,1321.57 161.097,1322.8 165.525,1324.04 169.953,1325.21 174.38,1326.29 178.808,1327.42 
  183.235,1328.54 187.663,1329.58 192.091,1330.63 196.518,1331.74 200.946,1332.82 205.373,1333.71 209.801,1334.58 214.229,1335.4 218.656,1336.12 223.084,1336.76 
  227.511,1337.48 231.939,1338.09 236.366,1338.59 240.794,1338.98 245.222,1339.28 249.649,1339.73 254.077,1340.05 258.504,1340.43 262.932,1340.62 267.36,1340.71 
  271.787,1340.79 276.215,1340.78 280.642,1340.45 285.07,1340.23 289.498,1340.1 293.925,1339.91 298.353,1339.7 302.78,1339.16 307.208,1338.4 311.636,1337.73 
  316.063,1337.16 320.491,1336.58 324.918,1335.77 329.346,1334.95 333.774,1334.42 338.201,1333.87 342.629,1333.37 347.056,1333.23 351.484,1333.21 355.911,1333.46 
  360.339,1333.74 364.767,1334 369.194,1334.41 373.622,1334.95 378.049,1335.31 382.477,1335.67 386.905,1335.97 391.332,1336.09 395.76,1336.09 400.187,1336.17 
  404.615,1336.4 409.043,1336.57 413.47,1336.8 417.898,1337.1 422.325,1337.48 426.753,1337.9 431.181,1338.44 435.608,1338.86 440.036,1339.19 444.463,1339.37 
  448.891,1339.5 453.319,1339.76 457.746,1339.93 462.174,1340.2 466.601,1340.63 471.029,1340.89 475.457,1341.19 479.884,1341.34 484.312,1341.45 488.739,1341.47 
  493.167,1341.49 497.594,1341.47 502.022,1341.35 506.45,1341.33 510.877,1341.19 515.305,1340.88 519.732,1340.65 524.16,1340.46 528.588,1340.24 533.015,1339.89 
  537.443,1339.75 541.87,1339.6 546.298,1339.6 550.726,1339.52 555.153,1339.35 559.581,1339.32 564.008,1339.25 568.436,1339.26 572.864,1339.11 577.291,1339.03 
  581.719,1338.98 586.146,1338.83 590.574,1338.81 595.002,1338.79 599.429,1338.86 603.857,1338.98 608.284,1339.21 612.712,1339.55 617.139,1339.86 621.567,1339.98 
  625.995,1340.23 630.422,1340.59 634.85,1341.12 639.277,1341.57 643.705,1341.93 648.133,1342.33 652.56,1342.7 656.988,1342.93 661.415,1343.14 665.843,1343.27 
  670.271,1343.38 674.698,1343.5 679.126,1343.46 683.553,1343.49 687.981,1343.45 692.409,1343.33 696.836,1343.33 701.264,1343.32 705.691,1343.26 710.119,1343.32 
  714.547,1343.51 718.974,1343.85 723.402,1344.1 727.829,1344.38 732.257,1344.68 736.684,1344.86 741.112,1345.05 745.54,1345.22 749.967,1345.6 754.395,1345.92 
  758.822,1346.07 763.25,1346.22 767.678,1346.47 772.105,1346.66 776.533,1346.72 780.96,1346.76 785.388,1346.82 789.816,1347 794.243,1347.01 798.671,1346.96 
  803.098,1346.98 807.526,1346.8 811.954,1346.55 816.381,1346.02 820.809,1345.42 825.236,1344.76 829.664,1344.08 834.092,1343.39 838.519,1342.59 842.947,1341.85 
  847.374,1341.01 851.802,1340.08 856.229,1339.11 860.657,1338.14 865.085,1337.18 869.512,1336.2 873.94,1335.25 878.367,1334.33 882.795,1333.41 887.223,1332.48 
  891.65,1331.63 896.078,1330.73 900.505,1329.85 904.933,1328.9 909.361,1327.89 913.788,1326.74 918.216,1325.52 922.643,1324.31 927.071,1323.08 931.499,1321.77 
  935.926,1320.45 940.354,1319.16 944.781,1317.8 949.209,1316.42 953.637,1314.98 958.064,1313.51 962.492,1312.01 966.919,1310.49 971.347,1308.94 975.775,1307.36 
  980.202,1305.76 984.63,1304.16 989.057,1302.78 993.485,1301.32 997.912,1299.99 1002.34,1298.57 1006.77,1296.93 1011.2,1295.39 1015.62,1293.71 1020.05,1292.06 
  1024.48,1290.38 1028.91,1288.64 1033.33,1286.99 1037.76,1285.48 1042.19,1283.85 1046.62,1282.17 1051.04,1280.66 1055.47,1279.15 1059.9,1278.28 1064.33,1277.68 
  1068.75,1276.64 1073.18,1275.53 1077.61,1274.3 1082.04,1272.99 1086.46,1271.6 1090.89,1270.16 1095.32,1269.15 1099.75,1268.2 1104.17,1267.08 1108.6,1265.64 
  1113.03,1264.17 1117.46,1262.62 1121.89,1260.73 1126.31,1258.68 1130.74,1256.33 1135.17,1253.97 1139.6,1251.47 1144.02,1249.09 1148.45,1246.73 1152.88,1244.4 
  1157.31,1242.4 1161.73,1240.25 1166.16,1237.98 1170.59,1236.02 1175.02,1234.51 1179.44,1232.93 1183.87,1231.13 1188.3,1229.63 1192.73,1228.95 1197.15,1228.73 
  1201.58,1227.81 1206.01,1227.08 1210.44,1225.8 1214.86,1224.54 1219.29,1223.12 1223.72,1221.54 1228.15,1219.48 1232.57,1217.28 1237,1214.83 1241.43,1212.63 
  1245.86,1209.56 1250.29,1206.13 1254.71,1202.51 1259.14,1198.8 1263.57,1195.03 1268,1191.26 1272.42,1187.35 1276.85,1183.36 1281.28,1179.29 1285.71,1175.1 
  1290.13,1170.84 1294.56,1166.53 1298.99,1162.09 1303.42,1157.57 1307.84,1153.14 1312.27,1148.6 1316.7,1143.81 1321.13,1138.96 1325.55,1134.37 1329.98,1130.09 
  1334.41,1125.37 1338.84,1120.79 1343.26,1116.52 1347.69,1112.26 1352.12,1107.04 1356.55,1101.56 1360.98,1096.14 1365.4,1091 1369.83,1085.74 1374.26,1080.32 
  1378.69,1074.67 1383.11,1068.72 1387.54,1062.36 1391.97,1055.84 1396.4,1049.23 1400.82,1042.51 1405.25,1035.6 1409.68,1028.55 1414.11,1021.45 1418.53,1014.15 
  1422.96,1006.67 1427.39,999.212 1431.82,991.687 1436.24,983.763 1440.67,975.673 1445.1,967.453 1449.53,959.191 1453.95,950.794 1458.38,942.285 1462.81,933.78 
  1467.24,925.027 1471.66,915.916 1476.09,906.729 1480.52,898.058 1484.95,889.259 1489.38,879.96 1493.8,870.61 1498.23,860.941 1502.66,850.395 1507.09,839.635 
  1511.51,828.656 1515.94,817.458 1520.37,806.319 1524.8,794.824 1529.22,783.4 1533.65,771.506 1538.08,759.291 1542.51,747.386 1546.93,735.548 1551.36,722.55 
  1555.79,709.417 1560.22,696.07 1564.64,682.224 1569.07,668.096 1573.5,653.813 1577.93,639.293 1582.35,624.641 1586.78,609.79 1591.21,594.222 1595.64,578.376 
  1600.07,563.503 1604.49,547.671 1608.92,531.022 1613.35,514.318 1617.78,497.384 1622.2,480.422 1626.63,462.97 1631.06,444.49 1635.49,426.817 1639.91,409.111 
  1644.34,391.303 1648.77,374.693 1653.2,358.391 1657.62,340.119 1662.05,322.379 1666.48,308.442 1670.91,298.587 1675.33,291.99 1679.76,284.498 1684.19,278.055 
  1688.62,272.222 1693.04,267.733 1697.47,259.543 1701.9,260.528 1706.33,266.038 1710.75,269.227 1715.18,270.992 1719.61,276.558 1724.04,282.964 1728.47,286.831 
  1732.89,291.465 1737.32,298.502 1741.75,300.918 1746.18,301.388 1750.6,302.776 1755.03,303.969 1759.46,308.102 1763.89,310.071 1768.31,309.448 1772.74,302.828 
  1777.17,292.533 1781.6,283.018 1786.02,274.799 1790.45,269.688 1794.88,259.948 1799.31,247.529 1803.73,240.272 1808.16,234.999 1812.59,223.763 1817.02,213.066 
  1821.44,206.438 1825.87,199.579 1830.3,195.814 1834.73,189.629 1839.16,181.904 1843.58,174.531 1848.01,167.841 1852.44,166.514 1856.87,157.27 1861.29,148.171 
  1865.72,143.393 1870.15,142.827 1874.58,146.557 1879,154.578 1883.43,161.425 1887.86,170.893 1892.29,182.4 1896.71,192.298 1901.14,199.832 1905.57,207.435 
  1910,212.656 1914.42,221.036 1918.85,229.43 1923.28,236.708 1927.71,241.076 1932.13,242.994 1936.56,248.357 1940.99,249.01 1945.42,248.599 1949.84,249.415 
  1954.27,244.421 1958.7,237.879 1963.13,232.179 1967.56,225.246 1971.98,217.999 1976.41,210.481 1980.84,201.452 1985.27,192.236 1989.69,188.714 1994.12,183.03 
  1998.55,176.788 2002.98,171.409 2007.4,167.263 2011.83,167.769 2016.26,168.492 2020.69,166.04 2025.11,165.846 2029.54,167.821 2033.97,166.409 2038.4,168.354 
  2042.82,173.464 2047.25,175.659 2051.68,174.649 2056.11,174.617 2060.53,167.197 2064.96,157.306 2069.39,148.266 2073.82,139.225 2078.25,131.268 2082.67,123.016 
  2087.1,116.33 2091.53,107.262 2095.96,97.6105 2100.38,90.4546 2104.81,86.1857 2109.24,86.8567 2113.67,87.9722 2118.09,87.7469 2122.52,91.7255 2126.95,98.1142 
  2131.38,101.842 2135.8,102.386 2140.23,104.827 2144.66,104.594 2149.09,105.245 2153.51,107.507 2157.94,107.739 2162.37,110.191 2166.8,113.034 2171.22,115.723 
  2175.65,119.471 2180.08,126.046 2184.51,128.83 2188.93,133.222 2193.36,134.514 2197.79,135.118 2202.22,136.093 2206.65,143.181 2211.07,148.914 2215.5,151.538 
  2219.93,161.99 2224.36,174.201 2228.78,191.681 2233.21,207.234 2237.64,220.973 2242.07,229.299 2246.49,233.911 2250.92,238.79 2255.35,244.849 2259.78,251.035 
  2264.2,261.795 2268.63,274.821 2273.06,284.083 2277.49,288.695 2281.91,289.604 2286.34,290.179 2290.77,286.692 2295.2,280.669 2299.62,274.436 2304.05,268.324 
  2308.48,262.136 2312.91,253.528 2317.34,246.67 2321.76,244.065 2326.19,236.416 2330.62,223.143 2335.05,215.739 2339.47,207.907 2343.9,196.554 2348.33,180.854 
  2352.76,160.761 
  "/>
<path clip-path="url(#clip980)" d="
M1925.3 248.629 L2278.96 248.629 L2278.96 93.1086 L1925.3 93.1086  Z
  " fill="#ffffff" fill-rule="evenodd" fill-opacity="1"/>
<polyline clip-path="url(#clip980)" style="stroke:#000000; stroke-linecap:butt; stroke-linejoin:round; stroke-width:4; stroke-opacity:1; fill:none" points="
  1925.3,248.629 2278.96,248.629 2278.96,93.1086 1925.3,93.1086 1925.3,248.629 
  "/>
<polyline clip-path="url(#clip980)" style="stroke:#009af9; stroke-linecap:butt; stroke-linejoin:round; stroke-width:4; stroke-opacity:1; fill:none" points="
  1949.9,144.949 2097.48,144.949 
  "/>
<path clip-path="url(#clip980)" d="M2122.08 151.997 L2122.08 136.303 L2126.34 136.303 L2126.34 151.835 Q2126.34 155.516 2127.78 157.368 Q2129.21 159.196 2132.08 159.196 Q2135.53 159.196 2137.52 156.997 Q2139.54 154.798 2139.54 151.002 L2139.54 136.303 L2143.8 136.303 L2143.8 162.229 L2139.54 162.229 L2139.54 158.247 Q2137.99 160.608 2135.93 161.766 Q2133.89 162.9 2131.18 162.9 Q2126.71 162.9 2124.4 160.122 Q2122.08 157.344 2122.08 151.997 M2132.8 135.678 L2132.8 135.678 Z" fill="#000000" fill-rule="evenodd" fill-opacity="1" /><path clip-path="url(#clip980)" d="M2153.98 158.293 L2161.62 158.293 L2161.62 131.928 L2153.31 133.595 L2153.31 129.335 L2161.57 127.669 L2166.25 127.669 L2166.25 158.293 L2173.89 158.293 L2173.89 162.229 L2153.98 162.229 L2153.98 158.293 Z" fill="#000000" fill-rule="evenodd" fill-opacity="1" /><path clip-path="url(#clip980)" d="M2192.96 126.257 Q2189.86 131.581 2188.36 136.789 Q2186.85 141.997 2186.85 147.344 Q2186.85 152.692 2188.36 157.946 Q2189.88 163.178 2192.96 168.479 L2189.26 168.479 Q2185.79 163.039 2184.05 157.784 Q2182.34 152.53 2182.34 147.344 Q2182.34 142.182 2184.05 136.951 Q2185.76 131.72 2189.26 126.257 L2192.96 126.257 Z" fill="#000000" fill-rule="evenodd" fill-opacity="1" /><path clip-path="url(#clip980)" d="M2205.44 128.942 L2205.44 136.303 L2214.21 136.303 L2214.21 139.613 L2205.44 139.613 L2205.44 153.687 Q2205.44 156.858 2206.3 157.761 Q2207.17 158.664 2209.84 158.664 L2214.21 158.664 L2214.21 162.229 L2209.84 162.229 Q2204.91 162.229 2203.03 160.4 Q2201.16 158.548 2201.16 153.687 L2201.16 139.613 L2198.03 139.613 L2198.03 136.303 L2201.16 136.303 L2201.16 128.942 L2205.44 128.942 Z" fill="#000000" fill-rule="evenodd" fill-opacity="1" /><path clip-path="url(#clip980)" d="M2219.14 126.257 L2222.85 126.257 Q2226.32 131.72 2228.03 136.951 Q2229.77 142.182 2229.77 147.344 Q2229.77 152.53 2228.03 157.784 Q2226.32 163.039 2222.85 168.479 L2219.14 168.479 Q2222.22 163.178 2223.73 157.946 Q2225.25 152.692 2225.25 147.344 Q2225.25 141.997 2223.73 136.789 Q2222.22 131.581 2219.14 126.257 Z" fill="#000000" fill-rule="evenodd" fill-opacity="1" /><polyline clip-path="url(#clip980)" style="stroke:#e26f46; stroke-linecap:butt; stroke-linejoin:round; stroke-width:4; stroke-opacity:1; fill:none" points="
  1949.9,196.789 2097.48,196.789 
  "/>
<path clip-path="url(#clip980)" d="M2122.08 203.837 L2122.08 188.143 L2126.34 188.143 L2126.34 203.675 Q2126.34 207.356 2127.78 209.208 Q2129.21 211.036 2132.08 211.036 Q2135.53 211.036 2137.52 208.837 Q2139.54 206.638 2139.54 202.842 L2139.54 188.143 L2143.8 188.143 L2143.8 214.069 L2139.54 214.069 L2139.54 210.087 Q2137.99 212.448 2135.93 213.606 Q2133.89 214.74 2131.18 214.74 Q2126.71 214.74 2124.4 211.962 Q2122.08 209.184 2122.08 203.837 M2132.8 187.518 L2132.8 187.518 Z" fill="#000000" fill-rule="evenodd" fill-opacity="1" /><path clip-path="url(#clip980)" d="M2157.2 210.133 L2173.52 210.133 L2173.52 214.069 L2151.57 214.069 L2151.57 210.133 Q2154.24 207.379 2158.82 202.749 Q2163.42 198.096 2164.61 196.754 Q2166.85 194.231 2167.73 192.495 Q2168.63 190.735 2168.63 189.046 Q2168.63 186.291 2166.69 184.555 Q2164.77 182.819 2161.67 182.819 Q2159.47 182.819 2157.01 183.583 Q2154.58 184.347 2151.8 185.897 L2151.8 181.175 Q2154.63 180.041 2157.08 179.462 Q2159.54 178.884 2161.57 178.884 Q2166.94 178.884 2170.14 181.569 Q2173.33 184.254 2173.33 188.745 Q2173.33 190.874 2172.52 192.796 Q2171.74 194.694 2169.63 197.286 Q2169.05 197.958 2165.95 201.175 Q2162.85 204.37 2157.2 210.133 Z" fill="#000000" fill-rule="evenodd" fill-opacity="1" /><path clip-path="url(#clip980)" d="M2192.96 178.097 Q2189.86 183.421 2188.36 188.629 Q2186.85 193.837 2186.85 199.184 Q2186.85 204.532 2188.36 209.786 Q2189.88 215.018 2192.96 220.319 L2189.26 220.319 Q2185.79 214.879 2184.05 209.624 Q2182.34 204.37 2182.34 199.184 Q2182.34 194.022 2184.05 188.791 Q2185.76 183.56 2189.26 178.097 L2192.96 178.097 Z" fill="#000000" fill-rule="evenodd" fill-opacity="1" /><path clip-path="url(#clip980)" d="M2205.44 180.782 L2205.44 188.143 L2214.21 188.143 L2214.21 191.453 L2205.44 191.453 L2205.44 205.527 Q2205.44 208.698 2206.3 209.601 Q2207.17 210.504 2209.84 210.504 L2214.21 210.504 L2214.21 214.069 L2209.84 214.069 Q2204.91 214.069 2203.03 212.24 Q2201.16 210.388 2201.16 205.527 L2201.16 191.453 L2198.03 191.453 L2198.03 188.143 L2201.16 188.143 L2201.16 180.782 L2205.44 180.782 Z" fill="#000000" fill-rule="evenodd" fill-opacity="1" /><path clip-path="url(#clip980)" d="M2219.14 178.097 L2222.85 178.097 Q2226.32 183.56 2228.03 188.791 Q2229.77 194.022 2229.77 199.184 Q2229.77 204.37 2228.03 209.624 Q2226.32 214.879 2222.85 220.319 L2219.14 220.319 Q2222.22 215.018 2223.73 209.786 Q2225.25 204.532 2225.25 199.184 Q2225.25 193.837 2223.73 188.629 Q2222.22 183.421 2219.14 178.097 Z" fill="#000000" fill-rule="evenodd" fill-opacity="1" /></svg>
