<?xml version="1.0" encoding="utf-8"?>
<svg xmlns="http://www.w3.org/2000/svg" xmlns:xlink="http://www.w3.org/1999/xlink" width="600" height="400" viewBox="0 0 2400 1600">
<defs>
  <clipPath id="clip660">
    <rect x="0" y="0" width="2400" height="1600"/>
  </clipPath>
</defs>
<path clip-path="url(#clip660)" d="
M0 1600 L2400 1600 L2400 0 L0 0  Z
  " fill="#ffffff" fill-rule="evenodd" fill-opacity="1"/>
<defs>
  <clipPath id="clip661">
    <rect x="480" y="0" width="1681" height="1600"/>
  </clipPath>
</defs>
<path clip-path="url(#clip660)" d="
M155.765 1423.18 L2352.76 1423.18 L2352.76 47.2441 L155.765 47.2441  Z
  " fill="#ffffff" fill-rule="evenodd" fill-opacity="1"/>
<defs>
  <clipPath id="clip662">
    <rect x="155" y="47" width="2198" height="1377"/>
  </clipPath>
</defs>
<polyline clip-path="url(#clip662)" style="stroke:#000000; stroke-linecap:butt; stroke-linejoin:round; stroke-width:2; stroke-opacity:0.1; fill:none" points="
  155.765,1423.18 155.765,47.2441 
  "/>
<polyline clip-path="url(#clip662)" style="stroke:#000000; stroke-linecap:butt; stroke-linejoin:round; stroke-width:2; stroke-opacity:0.1; fill:none" points="
  595.163,1423.18 595.163,47.2441 
  "/>
<polyline clip-path="url(#clip662)" style="stroke:#000000; stroke-linecap:butt; stroke-linejoin:round; stroke-width:2; stroke-opacity:0.1; fill:none" points="
  1034.56,1423.18 1034.56,47.2441 
  "/>
<polyline clip-path="url(#clip662)" style="stroke:#000000; stroke-linecap:butt; stroke-linejoin:round; stroke-width:2; stroke-opacity:0.1; fill:none" points="
  1473.96,1423.18 1473.96,47.2441 
  "/>
<polyline clip-path="url(#clip662)" style="stroke:#000000; stroke-linecap:butt; stroke-linejoin:round; stroke-width:2; stroke-opacity:0.1; fill:none" points="
  1913.36,1423.18 1913.36,47.2441 
  "/>
<polyline clip-path="url(#clip662)" style="stroke:#000000; stroke-linecap:butt; stroke-linejoin:round; stroke-width:2; stroke-opacity:0.1; fill:none" points="
  2352.76,1423.18 2352.76,47.2441 
  "/>
<polyline clip-path="url(#clip660)" style="stroke:#000000; stroke-linecap:butt; stroke-linejoin:round; stroke-width:4; stroke-opacity:1; fill:none" points="
  155.765,1423.18 2352.76,1423.18 
  "/>
<polyline clip-path="url(#clip660)" style="stroke:#000000; stroke-linecap:butt; stroke-linejoin:round; stroke-width:4; stroke-opacity:1; fill:none" points="
  155.765,1423.18 155.765,1404.28 
  "/>
<polyline clip-path="url(#clip660)" style="stroke:#000000; stroke-linecap:butt; stroke-linejoin:round; stroke-width:4; stroke-opacity:1; fill:none" points="
  595.163,1423.18 595.163,1404.28 
  "/>
<polyline clip-path="url(#clip660)" style="stroke:#000000; stroke-linecap:butt; stroke-linejoin:round; stroke-width:4; stroke-opacity:1; fill:none" points="
  1034.56,1423.18 1034.56,1404.28 
  "/>
<polyline clip-path="url(#clip660)" style="stroke:#000000; stroke-linecap:butt; stroke-linejoin:round; stroke-width:4; stroke-opacity:1; fill:none" points="
  1473.96,1423.18 1473.96,1404.28 
  "/>
<polyline clip-path="url(#clip660)" style="stroke:#000000; stroke-linecap:butt; stroke-linejoin:round; stroke-width:4; stroke-opacity:1; fill:none" points="
  1913.36,1423.18 1913.36,1404.28 
  "/>
<polyline clip-path="url(#clip660)" style="stroke:#000000; stroke-linecap:butt; stroke-linejoin:round; stroke-width:4; stroke-opacity:1; fill:none" points="
  2352.76,1423.18 2352.76,1404.28 
  "/>
<path clip-path="url(#clip660)" d="M133.149 1454.1 Q129.538 1454.1 127.71 1457.66 Q125.904 1461.2 125.904 1468.33 Q125.904 1475.44 127.71 1479.01 Q129.538 1482.55 133.149 1482.55 Q136.784 1482.55 138.589 1479.01 Q140.418 1475.44 140.418 1468.33 Q140.418 1461.2 138.589 1457.66 Q136.784 1454.1 133.149 1454.1 M133.149 1450.39 Q138.959 1450.39 142.015 1455 Q145.094 1459.58 145.094 1468.33 Q145.094 1477.06 142.015 1481.67 Q138.959 1486.25 133.149 1486.25 Q127.339 1486.25 124.26 1481.67 Q121.205 1477.06 121.205 1468.33 Q121.205 1459.58 124.26 1455 Q127.339 1450.39 133.149 1450.39 Z" fill="#000000" fill-rule="evenodd" fill-opacity="1" /><path clip-path="url(#clip660)" d="M153.311 1479.7 L158.195 1479.7 L158.195 1485.58 L153.311 1485.58 L153.311 1479.7 Z" fill="#000000" fill-rule="evenodd" fill-opacity="1" /><path clip-path="url(#clip660)" d="M178.381 1454.1 Q174.769 1454.1 172.941 1457.66 Q171.135 1461.2 171.135 1468.33 Q171.135 1475.44 172.941 1479.01 Q174.769 1482.55 178.381 1482.55 Q182.015 1482.55 183.82 1479.01 Q185.649 1475.44 185.649 1468.33 Q185.649 1461.2 183.82 1457.66 Q182.015 1454.1 178.381 1454.1 M178.381 1450.39 Q184.191 1450.39 187.246 1455 Q190.325 1459.58 190.325 1468.33 Q190.325 1477.06 187.246 1481.67 Q184.191 1486.25 178.381 1486.25 Q172.57 1486.25 169.492 1481.67 Q166.436 1477.06 166.436 1468.33 Q166.436 1459.58 169.492 1455 Q172.57 1450.39 178.381 1450.39 Z" fill="#000000" fill-rule="evenodd" fill-opacity="1" /><path clip-path="url(#clip660)" d="M573.346 1454.1 Q569.735 1454.1 567.906 1457.66 Q566.101 1461.2 566.101 1468.33 Q566.101 1475.44 567.906 1479.01 Q569.735 1482.55 573.346 1482.55 Q576.98 1482.55 578.786 1479.01 Q580.615 1475.44 580.615 1468.33 Q580.615 1461.2 578.786 1457.66 Q576.98 1454.1 573.346 1454.1 M573.346 1450.39 Q579.156 1450.39 582.212 1455 Q585.29 1459.58 585.29 1468.33 Q585.29 1477.06 582.212 1481.67 Q579.156 1486.25 573.346 1486.25 Q567.536 1486.25 564.457 1481.67 Q561.402 1477.06 561.402 1468.33 Q561.402 1459.58 564.457 1455 Q567.536 1450.39 573.346 1450.39 Z" fill="#000000" fill-rule="evenodd" fill-opacity="1" /><path clip-path="url(#clip660)" d="M593.508 1479.7 L598.392 1479.7 L598.392 1485.58 L593.508 1485.58 L593.508 1479.7 Z" fill="#000000" fill-rule="evenodd" fill-opacity="1" /><path clip-path="url(#clip660)" d="M612.605 1481.64 L628.924 1481.64 L628.924 1485.58 L606.98 1485.58 L606.98 1481.64 Q609.642 1478.89 614.226 1474.26 Q618.832 1469.61 620.013 1468.27 Q622.258 1465.74 623.137 1464.01 Q624.04 1462.25 624.04 1460.56 Q624.04 1457.8 622.096 1456.07 Q620.175 1454.33 617.073 1454.33 Q614.874 1454.33 612.42 1455.09 Q609.989 1455.86 607.212 1457.41 L607.212 1452.69 Q610.036 1451.55 612.489 1450.97 Q614.943 1450.39 616.98 1450.39 Q622.35 1450.39 625.545 1453.08 Q628.739 1455.77 628.739 1460.26 Q628.739 1462.39 627.929 1464.31 Q627.142 1466.2 625.036 1468.8 Q624.457 1469.47 621.355 1472.69 Q618.253 1475.88 612.605 1481.64 Z" fill="#000000" fill-rule="evenodd" fill-opacity="1" /><path clip-path="url(#clip660)" d="M1011.7 1454.1 Q1008.09 1454.1 1006.26 1457.66 Q1004.46 1461.2 1004.46 1468.33 Q1004.46 1475.44 1006.26 1479.01 Q1008.09 1482.55 1011.7 1482.55 Q1015.34 1482.55 1017.14 1479.01 Q1018.97 1475.44 1018.97 1468.33 Q1018.97 1461.2 1017.14 1457.66 Q1015.34 1454.1 1011.7 1454.1 M1011.7 1450.39 Q1017.51 1450.39 1020.57 1455 Q1023.65 1459.58 1023.65 1468.33 Q1023.65 1477.06 1020.57 1481.67 Q1017.51 1486.25 1011.7 1486.25 Q1005.89 1486.25 1002.81 1481.67 Q999.758 1477.06 999.758 1468.33 Q999.758 1459.58 1002.81 1455 Q1005.89 1450.39 1011.7 1450.39 Z" fill="#000000" fill-rule="evenodd" fill-opacity="1" /><path clip-path="url(#clip660)" d="M1031.86 1479.7 L1036.75 1479.7 L1036.75 1485.58 L1031.86 1485.58 L1031.86 1479.7 Z" fill="#000000" fill-rule="evenodd" fill-opacity="1" /><path clip-path="url(#clip660)" d="M1059.78 1455.09 L1047.98 1473.54 L1059.78 1473.54 L1059.78 1455.09 M1058.55 1451.02 L1064.43 1451.02 L1064.43 1473.54 L1069.36 1473.54 L1069.36 1477.43 L1064.43 1477.43 L1064.43 1485.58 L1059.78 1485.58 L1059.78 1477.43 L1044.18 1477.43 L1044.18 1472.92 L1058.55 1451.02 Z" fill="#000000" fill-rule="evenodd" fill-opacity="1" /><path clip-path="url(#clip660)" d="M1451.26 1454.1 Q1447.65 1454.1 1445.82 1457.66 Q1444.02 1461.2 1444.02 1468.33 Q1444.02 1475.44 1445.82 1479.01 Q1447.65 1482.55 1451.26 1482.55 Q1454.9 1482.55 1456.7 1479.01 Q1458.53 1475.44 1458.53 1468.33 Q1458.53 1461.2 1456.7 1457.66 Q1454.9 1454.1 1451.26 1454.1 M1451.26 1450.39 Q1457.07 1450.39 1460.13 1455 Q1463.21 1459.58 1463.21 1468.33 Q1463.21 1477.06 1460.13 1481.67 Q1457.07 1486.25 1451.26 1486.25 Q1445.45 1486.25 1442.37 1481.67 Q1439.32 1477.06 1439.32 1468.33 Q1439.32 1459.58 1442.37 1455 Q1445.45 1450.39 1451.26 1450.39 Z" fill="#000000" fill-rule="evenodd" fill-opacity="1" /><path clip-path="url(#clip660)" d="M1471.42 1479.7 L1476.31 1479.7 L1476.31 1485.58 L1471.42 1485.58 L1471.42 1479.7 Z" fill="#000000" fill-rule="evenodd" fill-opacity="1" /><path clip-path="url(#clip660)" d="M1497.07 1466.44 Q1493.92 1466.44 1492.07 1468.59 Q1490.24 1470.74 1490.24 1474.49 Q1490.24 1478.22 1492.07 1480.39 Q1493.92 1482.55 1497.07 1482.55 Q1500.22 1482.55 1502.05 1480.39 Q1503.9 1478.22 1503.9 1474.49 Q1503.9 1470.74 1502.05 1468.59 Q1500.22 1466.44 1497.07 1466.44 M1506.36 1451.78 L1506.36 1456.04 Q1504.6 1455.21 1502.79 1454.77 Q1501.01 1454.33 1499.25 1454.33 Q1494.62 1454.33 1492.17 1457.45 Q1489.73 1460.58 1489.39 1466.9 Q1490.75 1464.89 1492.81 1463.82 Q1494.87 1462.73 1497.35 1462.73 Q1502.56 1462.73 1505.57 1465.9 Q1508.6 1469.05 1508.6 1474.49 Q1508.6 1479.82 1505.45 1483.03 Q1502.3 1486.25 1497.07 1486.25 Q1491.08 1486.25 1487.91 1481.67 Q1484.73 1477.06 1484.73 1468.33 Q1484.73 1460.14 1488.62 1455.28 Q1492.51 1450.39 1499.06 1450.39 Q1500.82 1450.39 1502.61 1450.74 Q1504.41 1451.09 1506.36 1451.78 Z" fill="#000000" fill-rule="evenodd" fill-opacity="1" /><path clip-path="url(#clip660)" d="M1890.79 1454.1 Q1887.18 1454.1 1885.35 1457.66 Q1883.54 1461.2 1883.54 1468.33 Q1883.54 1475.44 1885.35 1479.01 Q1887.18 1482.55 1890.79 1482.55 Q1894.42 1482.55 1896.23 1479.01 Q1898.06 1475.44 1898.06 1468.33 Q1898.06 1461.2 1896.23 1457.66 Q1894.42 1454.1 1890.79 1454.1 M1890.79 1450.39 Q1896.6 1450.39 1899.65 1455 Q1902.73 1459.58 1902.73 1468.33 Q1902.73 1477.06 1899.65 1481.67 Q1896.6 1486.25 1890.79 1486.25 Q1884.98 1486.25 1881.9 1481.67 Q1878.84 1477.06 1878.84 1468.33 Q1878.84 1459.58 1881.9 1455 Q1884.98 1450.39 1890.79 1450.39 Z" fill="#000000" fill-rule="evenodd" fill-opacity="1" /><path clip-path="url(#clip660)" d="M1910.95 1479.7 L1915.83 1479.7 L1915.83 1485.58 L1910.95 1485.58 L1910.95 1479.7 Z" fill="#000000" fill-rule="evenodd" fill-opacity="1" /><path clip-path="url(#clip660)" d="M1936.02 1469.17 Q1932.69 1469.17 1930.77 1470.95 Q1928.87 1472.73 1928.87 1475.86 Q1928.87 1478.98 1930.77 1480.77 Q1932.69 1482.55 1936.02 1482.55 Q1939.35 1482.55 1941.27 1480.77 Q1943.2 1478.96 1943.2 1475.86 Q1943.2 1472.73 1941.27 1470.95 Q1939.38 1469.17 1936.02 1469.17 M1931.34 1467.18 Q1928.33 1466.44 1926.64 1464.38 Q1924.98 1462.32 1924.98 1459.35 Q1924.98 1455.21 1927.92 1452.8 Q1930.88 1450.39 1936.02 1450.39 Q1941.18 1450.39 1944.12 1452.8 Q1947.06 1455.21 1947.06 1459.35 Q1947.06 1462.32 1945.37 1464.38 Q1943.7 1466.44 1940.72 1467.18 Q1944.1 1467.96 1945.97 1470.26 Q1947.87 1472.55 1947.87 1475.86 Q1947.87 1480.88 1944.79 1483.57 Q1941.74 1486.25 1936.02 1486.25 Q1930.3 1486.25 1927.22 1483.57 Q1924.17 1480.88 1924.17 1475.86 Q1924.17 1472.55 1926.07 1470.26 Q1927.96 1467.96 1931.34 1467.18 M1929.63 1459.79 Q1929.63 1462.48 1931.3 1463.98 Q1932.99 1465.49 1936.02 1465.49 Q1939.03 1465.49 1940.72 1463.98 Q1942.43 1462.48 1942.43 1459.79 Q1942.43 1457.11 1940.72 1455.6 Q1939.03 1454.1 1936.02 1454.1 Q1932.99 1454.1 1931.3 1455.6 Q1929.63 1457.11 1929.63 1459.79 Z" fill="#000000" fill-rule="evenodd" fill-opacity="1" /><path clip-path="url(#clip660)" d="M2319.91 1481.64 L2327.55 1481.64 L2327.55 1455.28 L2319.24 1456.95 L2319.24 1452.69 L2327.5 1451.02 L2332.18 1451.02 L2332.18 1481.64 L2339.82 1481.64 L2339.82 1485.58 L2319.91 1485.58 L2319.91 1481.64 Z" fill="#000000" fill-rule="evenodd" fill-opacity="1" /><path clip-path="url(#clip660)" d="M2349.26 1479.7 L2354.14 1479.7 L2354.14 1485.58 L2349.26 1485.58 L2349.26 1479.7 Z" fill="#000000" fill-rule="evenodd" fill-opacity="1" /><path clip-path="url(#clip660)" d="M2374.33 1454.1 Q2370.72 1454.1 2368.89 1457.66 Q2367.08 1461.2 2367.08 1468.33 Q2367.08 1475.44 2368.89 1479.01 Q2370.72 1482.55 2374.33 1482.55 Q2377.96 1482.55 2379.77 1479.01 Q2381.6 1475.44 2381.6 1468.33 Q2381.6 1461.2 2379.77 1457.66 Q2377.96 1454.1 2374.33 1454.1 M2374.33 1450.39 Q2380.14 1450.39 2383.2 1455 Q2386.27 1459.58 2386.27 1468.33 Q2386.27 1477.06 2383.2 1481.67 Q2380.14 1486.25 2374.33 1486.25 Q2368.52 1486.25 2365.44 1481.67 Q2362.39 1477.06 2362.39 1468.33 Q2362.39 1459.58 2365.44 1455 Q2368.52 1450.39 2374.33 1450.39 Z" fill="#000000" fill-rule="evenodd" fill-opacity="1" /><path clip-path="url(#clip660)" d="M1253.32 1522.27 L1253.32 1532.4 L1265.38 1532.4 L1265.38 1536.95 L1253.32 1536.95 L1253.32 1556.3 Q1253.32 1560.66 1254.5 1561.9 Q1255.71 1563.14 1259.37 1563.14 L1265.38 1563.14 L1265.38 1568.04 L1259.37 1568.04 Q1252.59 1568.04 1250.01 1565.53 Q1247.43 1562.98 1247.43 1556.3 L1247.43 1536.95 L1243.14 1536.95 L1243.14 1532.4 L1247.43 1532.4 L1247.43 1522.27 L1253.32 1522.27 Z" fill="#000000" fill-rule="evenodd" fill-opacity="1" /><polyline clip-path="url(#clip662)" style="stroke:#000000; stroke-linecap:butt; stroke-linejoin:round; stroke-width:2; stroke-opacity:0.1; fill:none" points="
  155.765,1384.24 2352.76,1384.24 
  "/>
<polyline clip-path="url(#clip662)" style="stroke:#000000; stroke-linecap:butt; stroke-linejoin:round; stroke-width:2; stroke-opacity:0.1; fill:none" points="
  155.765,972.105 2352.76,972.105 
  "/>
<polyline clip-path="url(#clip662)" style="stroke:#000000; stroke-linecap:butt; stroke-linejoin:round; stroke-width:2; stroke-opacity:0.1; fill:none" points="
  155.765,559.971 2352.76,559.971 
  "/>
<polyline clip-path="url(#clip662)" style="stroke:#000000; stroke-linecap:butt; stroke-linejoin:round; stroke-width:2; stroke-opacity:0.1; fill:none" points="
  155.765,147.837 2352.76,147.837 
  "/>
<polyline clip-path="url(#clip660)" style="stroke:#000000; stroke-linecap:butt; stroke-linejoin:round; stroke-width:4; stroke-opacity:1; fill:none" points="
  155.765,1423.18 155.765,47.2441 
  "/>
<polyline clip-path="url(#clip660)" style="stroke:#000000; stroke-linecap:butt; stroke-linejoin:round; stroke-width:4; stroke-opacity:1; fill:none" points="
  155.765,1384.24 174.663,1384.24 
  "/>
<polyline clip-path="url(#clip660)" style="stroke:#000000; stroke-linecap:butt; stroke-linejoin:round; stroke-width:4; stroke-opacity:1; fill:none" points="
  155.765,972.105 174.663,972.105 
  "/>
<polyline clip-path="url(#clip660)" style="stroke:#000000; stroke-linecap:butt; stroke-linejoin:round; stroke-width:4; stroke-opacity:1; fill:none" points="
  155.765,559.971 174.663,559.971 
  "/>
<polyline clip-path="url(#clip660)" style="stroke:#000000; stroke-linecap:butt; stroke-linejoin:round; stroke-width:4; stroke-opacity:1; fill:none" points="
  155.765,147.837 174.663,147.837 
  "/>
<path clip-path="url(#clip660)" d="M63.5847 1370.04 Q59.9736 1370.04 58.1449 1373.6 Q56.3393 1377.14 56.3393 1384.27 Q56.3393 1391.38 58.1449 1394.94 Q59.9736 1398.49 63.5847 1398.49 Q67.2189 1398.49 69.0244 1394.94 Q70.8531 1391.38 70.8531 1384.27 Q70.8531 1377.14 69.0244 1373.6 Q67.2189 1370.04 63.5847 1370.04 M63.5847 1366.33 Q69.3948 1366.33 72.4503 1370.94 Q75.529 1375.52 75.529 1384.27 Q75.529 1393 72.4503 1397.61 Q69.3948 1402.19 63.5847 1402.19 Q57.7745 1402.19 54.6958 1397.61 Q51.6403 1393 51.6403 1384.27 Q51.6403 1375.52 54.6958 1370.94 Q57.7745 1366.33 63.5847 1366.33 Z" fill="#000000" fill-rule="evenodd" fill-opacity="1" /><path clip-path="url(#clip660)" d="M83.7466 1395.64 L88.6308 1395.64 L88.6308 1401.52 L83.7466 1401.52 L83.7466 1395.64 Z" fill="#000000" fill-rule="evenodd" fill-opacity="1" /><path clip-path="url(#clip660)" d="M98.8622 1366.96 L117.219 1366.96 L117.219 1370.89 L103.145 1370.89 L103.145 1379.37 Q104.163 1379.02 105.182 1378.86 Q106.2 1378.67 107.219 1378.67 Q113.006 1378.67 116.385 1381.84 Q119.765 1385.01 119.765 1390.43 Q119.765 1396.01 116.293 1399.11 Q112.82 1402.19 106.501 1402.19 Q104.325 1402.19 102.057 1401.82 Q99.8113 1401.45 97.4039 1400.71 L97.4039 1396.01 Q99.4872 1397.14 101.709 1397.7 Q103.932 1398.25 106.408 1398.25 Q110.413 1398.25 112.751 1396.15 Q115.089 1394.04 115.089 1390.43 Q115.089 1386.82 112.751 1384.71 Q110.413 1382.61 106.408 1382.61 Q104.534 1382.61 102.659 1383.02 Q100.807 1383.44 98.8622 1384.32 L98.8622 1366.96 Z" fill="#000000" fill-rule="evenodd" fill-opacity="1" /><path clip-path="url(#clip660)" d="M53.3995 985.449 L61.0384 985.449 L61.0384 959.084 L52.7282 960.75 L52.7282 956.491 L60.9921 954.825 L65.668 954.825 L65.668 985.449 L73.3068 985.449 L73.3068 989.385 L53.3995 989.385 L53.3995 985.449 Z" fill="#000000" fill-rule="evenodd" fill-opacity="1" /><path clip-path="url(#clip660)" d="M82.7512 983.505 L87.6354 983.505 L87.6354 989.385 L82.7512 989.385 L82.7512 983.505 Z" fill="#000000" fill-rule="evenodd" fill-opacity="1" /><path clip-path="url(#clip660)" d="M107.821 957.903 Q104.209 957.903 102.381 961.468 Q100.575 965.01 100.575 972.139 Q100.575 979.246 102.381 982.811 Q104.209 986.352 107.821 986.352 Q111.455 986.352 113.26 982.811 Q115.089 979.246 115.089 972.139 Q115.089 965.01 113.26 961.468 Q111.455 957.903 107.821 957.903 M107.821 954.2 Q113.631 954.2 116.686 958.806 Q119.765 963.389 119.765 972.139 Q119.765 980.866 116.686 985.473 Q113.631 990.056 107.821 990.056 Q102.01 990.056 98.9317 985.473 Q95.8761 980.866 95.8761 972.139 Q95.8761 963.389 98.9317 958.806 Q102.01 954.2 107.821 954.2 Z" fill="#000000" fill-rule="evenodd" fill-opacity="1" /><path clip-path="url(#clip660)" d="M54.3949 573.316 L62.0337 573.316 L62.0337 546.95 L53.7236 548.617 L53.7236 544.358 L61.9874 542.691 L66.6633 542.691 L66.6633 573.316 L74.3022 573.316 L74.3022 577.251 L54.3949 577.251 L54.3949 573.316 Z" fill="#000000" fill-rule="evenodd" fill-opacity="1" /><path clip-path="url(#clip660)" d="M83.7466 571.371 L88.6308 571.371 L88.6308 577.251 L83.7466 577.251 L83.7466 571.371 Z" fill="#000000" fill-rule="evenodd" fill-opacity="1" /><path clip-path="url(#clip660)" d="M98.8622 542.691 L117.219 542.691 L117.219 546.626 L103.145 546.626 L103.145 555.098 Q104.163 554.751 105.182 554.589 Q106.2 554.404 107.219 554.404 Q113.006 554.404 116.385 557.575 Q119.765 560.746 119.765 566.163 Q119.765 571.742 116.293 574.844 Q112.82 577.922 106.501 577.922 Q104.325 577.922 102.057 577.552 Q99.8113 577.181 97.4039 576.441 L97.4039 571.742 Q99.4872 572.876 101.709 573.431 Q103.932 573.987 106.408 573.987 Q110.413 573.987 112.751 571.881 Q115.089 569.774 115.089 566.163 Q115.089 562.552 112.751 560.445 Q110.413 558.339 106.408 558.339 Q104.534 558.339 102.659 558.756 Q100.807 559.172 98.8622 560.052 L98.8622 542.691 Z" fill="#000000" fill-rule="evenodd" fill-opacity="1" /><path clip-path="url(#clip660)" d="M56.6171 161.182 L72.9365 161.182 L72.9365 165.117 L50.9921 165.117 L50.9921 161.182 Q53.6541 158.427 58.2375 153.798 Q62.8439 149.145 64.0245 147.803 Q66.2698 145.279 67.1494 143.543 Q68.0522 141.784 68.0522 140.094 Q68.0522 137.34 66.1078 135.604 Q64.1865 133.867 61.0847 133.867 Q58.8856 133.867 56.4319 134.631 Q54.0014 135.395 51.2236 136.946 L51.2236 132.224 Q54.0477 131.09 56.5014 130.511 Q58.955 129.932 60.9921 129.932 Q66.3624 129.932 69.5568 132.617 Q72.7513 135.303 72.7513 139.793 Q72.7513 141.923 71.9411 143.844 Q71.1541 145.742 69.0476 148.335 Q68.4689 149.006 65.367 152.224 Q62.2652 155.418 56.6171 161.182 Z" fill="#000000" fill-rule="evenodd" fill-opacity="1" /><path clip-path="url(#clip660)" d="M82.7512 159.238 L87.6354 159.238 L87.6354 165.117 L82.7512 165.117 L82.7512 159.238 Z" fill="#000000" fill-rule="evenodd" fill-opacity="1" /><path clip-path="url(#clip660)" d="M107.821 133.636 Q104.209 133.636 102.381 137.201 Q100.575 140.742 100.575 147.872 Q100.575 154.978 102.381 158.543 Q104.209 162.085 107.821 162.085 Q111.455 162.085 113.26 158.543 Q115.089 154.978 115.089 147.872 Q115.089 140.742 113.26 137.201 Q111.455 133.636 107.821 133.636 M107.821 129.932 Q113.631 129.932 116.686 134.539 Q119.765 139.122 119.765 147.872 Q119.765 156.599 116.686 161.205 Q113.631 165.789 107.821 165.789 Q102.01 165.789 98.9317 161.205 Q95.8761 156.599 95.8761 147.872 Q95.8761 139.122 98.9317 134.539 Q102.01 129.932 107.821 129.932 Z" fill="#000000" fill-rule="evenodd" fill-opacity="1" /><polyline clip-path="url(#clip662)" style="stroke:#009af9; stroke-linecap:butt; stroke-linejoin:round; stroke-width:4; stroke-opacity:1; fill:none" points="
  155.765,1384.24 293.077,1316.31 430.389,1098.65 567.701,982.614 705.013,707.26 842.325,930.776 979.637,982.361 1116.95,1027.29 1254.26,832.123 1391.57,554.497 
  1528.88,248.077 1666.2,324.803 1803.51,316.236 1940.82,86.1857 2078.13,544.479 2215.44,648.41 2352.76,755.224 
  "/>
<path clip-path="url(#clip660)" d="
M1927.73 196.789 L2279.52 196.789 L2279.52 93.1086 L1927.73 93.1086  Z
  " fill="#ffffff" fill-rule="evenodd" fill-opacity="1"/>
<polyline clip-path="url(#clip660)" style="stroke:#000000; stroke-linecap:butt; stroke-linejoin:round; stroke-width:4; stroke-opacity:1; fill:none" points="
  1927.73,196.789 2279.52,196.789 2279.52,93.1086 1927.73,93.1086 1927.73,196.789 
  "/>
<polyline clip-path="url(#clip660)" style="stroke:#009af9; stroke-linecap:butt; stroke-linejoin:round; stroke-width:4; stroke-opacity:1; fill:none" points="
  1952.14,144.949 2098.61,144.949 
  "/>
<path clip-path="url(#clip660)" d="M2123.02 151.997 L2123.02 136.303 L2127.28 136.303 L2127.28 151.835 Q2127.28 155.516 2128.71 157.368 Q2130.15 159.196 2133.02 159.196 Q2136.47 159.196 2138.46 156.997 Q2140.47 154.798 2140.47 151.002 L2140.47 136.303 L2144.73 136.303 L2144.73 162.229 L2140.47 162.229 L2140.47 158.247 Q2138.92 160.608 2136.86 161.766 Q2134.82 162.9 2132.11 162.9 Q2127.65 162.9 2125.33 160.122 Q2123.02 157.344 2123.02 151.997 M2133.73 135.678 L2133.73 135.678 Z" fill="#000000" fill-rule="evenodd" fill-opacity="1" /><path clip-path="url(#clip660)" d="M2154.91 158.293 L2162.55 158.293 L2162.55 131.928 L2154.24 133.595 L2154.24 129.335 L2162.51 127.669 L2167.18 127.669 L2167.18 158.293 L2174.82 158.293 L2174.82 162.229 L2154.91 162.229 L2154.91 158.293 Z" fill="#000000" fill-rule="evenodd" fill-opacity="1" /><path clip-path="url(#clip660)" d="M2193.9 126.257 Q2190.79 131.581 2189.29 136.789 Q2187.78 141.997 2187.78 147.344 Q2187.78 152.692 2189.29 157.946 Q2190.82 163.178 2193.9 168.479 L2190.19 168.479 Q2186.72 163.039 2184.98 157.784 Q2183.27 152.53 2183.27 147.344 Q2183.27 142.182 2184.98 136.951 Q2186.7 131.72 2190.19 126.257 L2193.9 126.257 Z" fill="#000000" fill-rule="evenodd" fill-opacity="1" /><path clip-path="url(#clip660)" d="M2206.37 128.942 L2206.37 136.303 L2215.15 136.303 L2215.15 139.613 L2206.37 139.613 L2206.37 153.687 Q2206.37 156.858 2207.23 157.761 Q2208.11 158.664 2210.77 158.664 L2215.15 158.664 L2215.15 162.229 L2210.77 162.229 Q2205.84 162.229 2203.96 160.4 Q2202.09 158.548 2202.09 153.687 L2202.09 139.613 L2198.96 139.613 L2198.96 136.303 L2202.09 136.303 L2202.09 128.942 L2206.37 128.942 Z" fill="#000000" fill-rule="evenodd" fill-opacity="1" /><path clip-path="url(#clip660)" d="M2220.08 126.257 L2223.78 126.257 Q2227.25 131.72 2228.96 136.951 Q2230.7 142.182 2230.7 147.344 Q2230.7 152.53 2228.96 157.784 Q2227.25 163.039 2223.78 168.479 L2220.08 168.479 Q2223.15 163.178 2224.66 157.946 Q2226.19 152.692 2226.19 147.344 Q2226.19 141.997 2224.66 136.789 Q2223.15 131.581 2220.08 126.257 Z" fill="#000000" fill-rule="evenodd" fill-opacity="1" /></svg>
