<?xml version="1.0" encoding="utf-8"?>
<svg xmlns="http://www.w3.org/2000/svg" xmlns:xlink="http://www.w3.org/1999/xlink" width="600" height="400" viewBox="0 0 2400 1600">
<defs>
  <clipPath id="clip700">
    <rect x="0" y="0" width="2400" height="1600"/>
  </clipPath>
</defs>
<path clip-path="url(#clip700)" d="
M0 1600 L2400 1600 L2400 0 L0 0  Z
  " fill="#ffffff" fill-rule="evenodd" fill-opacity="1"/>
<defs>
  <clipPath id="clip701">
    <rect x="480" y="0" width="1681" height="1600"/>
  </clipPath>
</defs>
<path clip-path="url(#clip700)" d="
M156.598 1423.18 L2352.76 1423.18 L2352.76 47.2441 L156.598 47.2441  Z
  " fill="#ffffff" fill-rule="evenodd" fill-opacity="1"/>
<defs>
  <clipPath id="clip702">
    <rect x="156" y="47" width="2197" height="1377"/>
  </clipPath>
</defs>
<polyline clip-path="url(#clip702)" style="stroke:#000000; stroke-linecap:butt; stroke-linejoin:round; stroke-width:2; stroke-opacity:0.1; fill:none" points="
  156.598,1423.18 156.598,47.2441 
  "/>
<polyline clip-path="url(#clip702)" style="stroke:#000000; stroke-linecap:butt; stroke-linejoin:round; stroke-width:2; stroke-opacity:0.1; fill:none" points="
  595.83,1423.18 595.83,47.2441 
  "/>
<polyline clip-path="url(#clip702)" style="stroke:#000000; stroke-linecap:butt; stroke-linejoin:round; stroke-width:2; stroke-opacity:0.1; fill:none" points="
  1035.06,1423.18 1035.06,47.2441 
  "/>
<polyline clip-path="url(#clip702)" style="stroke:#000000; stroke-linecap:butt; stroke-linejoin:round; stroke-width:2; stroke-opacity:0.1; fill:none" points="
  1474.29,1423.18 1474.29,47.2441 
  "/>
<polyline clip-path="url(#clip702)" style="stroke:#000000; stroke-linecap:butt; stroke-linejoin:round; stroke-width:2; stroke-opacity:0.1; fill:none" points="
  1913.52,1423.18 1913.52,47.2441 
  "/>
<polyline clip-path="url(#clip702)" style="stroke:#000000; stroke-linecap:butt; stroke-linejoin:round; stroke-width:2; stroke-opacity:0.1; fill:none" points="
  2352.76,1423.18 2352.76,47.2441 
  "/>
<polyline clip-path="url(#clip700)" style="stroke:#000000; stroke-linecap:butt; stroke-linejoin:round; stroke-width:4; stroke-opacity:1; fill:none" points="
  156.598,1423.18 2352.76,1423.18 
  "/>
<polyline clip-path="url(#clip700)" style="stroke:#000000; stroke-linecap:butt; stroke-linejoin:round; stroke-width:4; stroke-opacity:1; fill:none" points="
  156.598,1423.18 156.598,1404.28 
  "/>
<polyline clip-path="url(#clip700)" style="stroke:#000000; stroke-linecap:butt; stroke-linejoin:round; stroke-width:4; stroke-opacity:1; fill:none" points="
  595.83,1423.18 595.83,1404.28 
  "/>
<polyline clip-path="url(#clip700)" style="stroke:#000000; stroke-linecap:butt; stroke-linejoin:round; stroke-width:4; stroke-opacity:1; fill:none" points="
  1035.06,1423.18 1035.06,1404.28 
  "/>
<polyline clip-path="url(#clip700)" style="stroke:#000000; stroke-linecap:butt; stroke-linejoin:round; stroke-width:4; stroke-opacity:1; fill:none" points="
  1474.29,1423.18 1474.29,1404.28 
  "/>
<polyline clip-path="url(#clip700)" style="stroke:#000000; stroke-linecap:butt; stroke-linejoin:round; stroke-width:4; stroke-opacity:1; fill:none" points="
  1913.52,1423.18 1913.52,1404.28 
  "/>
<polyline clip-path="url(#clip700)" style="stroke:#000000; stroke-linecap:butt; stroke-linejoin:round; stroke-width:4; stroke-opacity:1; fill:none" points="
  2352.76,1423.18 2352.76,1404.28 
  "/>
<path clip-path="url(#clip700)" d="M133.983 1454.1 Q130.372 1454.1 128.543 1457.66 Q126.737 1461.2 126.737 1468.33 Q126.737 1475.44 128.543 1479.01 Q130.372 1482.55 133.983 1482.55 Q137.617 1482.55 139.422 1479.01 Q141.251 1475.44 141.251 1468.33 Q141.251 1461.2 139.422 1457.66 Q137.617 1454.1 133.983 1454.1 M133.983 1450.39 Q139.793 1450.39 142.848 1455 Q145.927 1459.58 145.927 1468.33 Q145.927 1477.06 142.848 1481.67 Q139.793 1486.25 133.983 1486.25 Q128.172 1486.25 125.094 1481.67 Q122.038 1477.06 122.038 1468.33 Q122.038 1459.58 125.094 1455 Q128.172 1450.39 133.983 1450.39 Z" fill="#000000" fill-rule="evenodd" fill-opacity="1" /><path clip-path="url(#clip700)" d="M154.145 1479.7 L159.029 1479.7 L159.029 1485.58 L154.145 1485.58 L154.145 1479.7 Z" fill="#000000" fill-rule="evenodd" fill-opacity="1" /><path clip-path="url(#clip700)" d="M179.214 1454.1 Q175.603 1454.1 173.774 1457.66 Q171.969 1461.2 171.969 1468.33 Q171.969 1475.44 173.774 1479.01 Q175.603 1482.55 179.214 1482.55 Q182.848 1482.55 184.654 1479.01 Q186.482 1475.44 186.482 1468.33 Q186.482 1461.2 184.654 1457.66 Q182.848 1454.1 179.214 1454.1 M179.214 1450.39 Q185.024 1450.39 188.08 1455 Q191.158 1459.58 191.158 1468.33 Q191.158 1477.06 188.08 1481.67 Q185.024 1486.25 179.214 1486.25 Q173.404 1486.25 170.325 1481.67 Q167.269 1477.06 167.269 1468.33 Q167.269 1459.58 170.325 1455 Q173.404 1450.39 179.214 1450.39 Z" fill="#000000" fill-rule="evenodd" fill-opacity="1" /><path clip-path="url(#clip700)" d="M574.013 1454.1 Q570.402 1454.1 568.573 1457.66 Q566.767 1461.2 566.767 1468.33 Q566.767 1475.44 568.573 1479.01 Q570.402 1482.55 574.013 1482.55 Q577.647 1482.55 579.453 1479.01 Q581.281 1475.44 581.281 1468.33 Q581.281 1461.2 579.453 1457.66 Q577.647 1454.1 574.013 1454.1 M574.013 1450.39 Q579.823 1450.39 582.878 1455 Q585.957 1459.58 585.957 1468.33 Q585.957 1477.06 582.878 1481.67 Q579.823 1486.25 574.013 1486.25 Q568.203 1486.25 565.124 1481.67 Q562.068 1477.06 562.068 1468.33 Q562.068 1459.58 565.124 1455 Q568.203 1450.39 574.013 1450.39 Z" fill="#000000" fill-rule="evenodd" fill-opacity="1" /><path clip-path="url(#clip700)" d="M594.175 1479.7 L599.059 1479.7 L599.059 1485.58 L594.175 1485.58 L594.175 1479.7 Z" fill="#000000" fill-rule="evenodd" fill-opacity="1" /><path clip-path="url(#clip700)" d="M613.272 1481.64 L629.591 1481.64 L629.591 1485.58 L607.647 1485.58 L607.647 1481.64 Q610.309 1478.89 614.892 1474.26 Q619.499 1469.61 620.679 1468.27 Q622.925 1465.74 623.804 1464.01 Q624.707 1462.25 624.707 1460.56 Q624.707 1457.8 622.762 1456.07 Q620.841 1454.33 617.739 1454.33 Q615.54 1454.33 613.087 1455.09 Q610.656 1455.86 607.878 1457.41 L607.878 1452.69 Q610.702 1451.55 613.156 1450.97 Q615.61 1450.39 617.647 1450.39 Q623.017 1450.39 626.212 1453.08 Q629.406 1455.77 629.406 1460.26 Q629.406 1462.39 628.596 1464.31 Q627.809 1466.2 625.702 1468.8 Q625.124 1469.47 622.022 1472.69 Q618.92 1475.88 613.272 1481.64 Z" fill="#000000" fill-rule="evenodd" fill-opacity="1" /><path clip-path="url(#clip700)" d="M1012.2 1454.1 Q1008.59 1454.1 1006.76 1457.66 Q1004.96 1461.2 1004.96 1468.33 Q1004.96 1475.44 1006.76 1479.01 Q1008.59 1482.55 1012.2 1482.55 Q1015.84 1482.55 1017.64 1479.01 Q1019.47 1475.44 1019.47 1468.33 Q1019.47 1461.2 1017.64 1457.66 Q1015.84 1454.1 1012.2 1454.1 M1012.2 1450.39 Q1018.01 1450.39 1021.07 1455 Q1024.15 1459.58 1024.15 1468.33 Q1024.15 1477.06 1021.07 1481.67 Q1018.01 1486.25 1012.2 1486.25 Q1006.39 1486.25 1003.31 1481.67 Q1000.26 1477.06 1000.26 1468.33 Q1000.26 1459.58 1003.31 1455 Q1006.39 1450.39 1012.2 1450.39 Z" fill="#000000" fill-rule="evenodd" fill-opacity="1" /><path clip-path="url(#clip700)" d="M1032.36 1479.7 L1037.25 1479.7 L1037.25 1485.58 L1032.36 1485.58 L1032.36 1479.7 Z" fill="#000000" fill-rule="evenodd" fill-opacity="1" /><path clip-path="url(#clip700)" d="M1060.28 1455.09 L1048.48 1473.54 L1060.28 1473.54 L1060.28 1455.09 M1059.05 1451.02 L1064.93 1451.02 L1064.93 1473.54 L1069.86 1473.54 L1069.86 1477.43 L1064.93 1477.43 L1064.93 1485.58 L1060.28 1485.58 L1060.28 1477.43 L1044.68 1477.43 L1044.68 1472.92 L1059.05 1451.02 Z" fill="#000000" fill-rule="evenodd" fill-opacity="1" /><path clip-path="url(#clip700)" d="M1451.6 1454.1 Q1447.99 1454.1 1446.16 1457.66 Q1444.35 1461.2 1444.35 1468.33 Q1444.35 1475.44 1446.16 1479.01 Q1447.99 1482.55 1451.6 1482.55 Q1455.23 1482.55 1457.04 1479.01 Q1458.86 1475.44 1458.86 1468.33 Q1458.86 1461.2 1457.04 1457.66 Q1455.23 1454.1 1451.6 1454.1 M1451.6 1450.39 Q1457.41 1450.39 1460.46 1455 Q1463.54 1459.58 1463.54 1468.33 Q1463.54 1477.06 1460.46 1481.67 Q1457.41 1486.25 1451.6 1486.25 Q1445.79 1486.25 1442.71 1481.67 Q1439.65 1477.06 1439.65 1468.33 Q1439.65 1459.58 1442.71 1455 Q1445.79 1450.39 1451.6 1450.39 Z" fill="#000000" fill-rule="evenodd" fill-opacity="1" /><path clip-path="url(#clip700)" d="M1471.76 1479.7 L1476.64 1479.7 L1476.64 1485.58 L1471.76 1485.58 L1471.76 1479.7 Z" fill="#000000" fill-rule="evenodd" fill-opacity="1" /><path clip-path="url(#clip700)" d="M1497.41 1466.44 Q1494.26 1466.44 1492.41 1468.59 Q1490.58 1470.74 1490.58 1474.49 Q1490.58 1478.22 1492.41 1480.39 Q1494.26 1482.55 1497.41 1482.55 Q1500.55 1482.55 1502.38 1480.39 Q1504.23 1478.22 1504.23 1474.49 Q1504.23 1470.74 1502.38 1468.59 Q1500.55 1466.44 1497.41 1466.44 M1506.69 1451.78 L1506.69 1456.04 Q1504.93 1455.21 1503.12 1454.77 Q1501.34 1454.33 1499.58 1454.33 Q1494.95 1454.33 1492.5 1457.45 Q1490.07 1460.58 1489.72 1466.9 Q1491.09 1464.89 1493.15 1463.82 Q1495.21 1462.73 1497.68 1462.73 Q1502.89 1462.73 1505.9 1465.9 Q1508.93 1469.05 1508.93 1474.49 Q1508.93 1479.82 1505.79 1483.03 Q1502.64 1486.25 1497.41 1486.25 Q1491.41 1486.25 1488.24 1481.67 Q1485.07 1477.06 1485.07 1468.33 Q1485.07 1460.14 1488.96 1455.28 Q1492.85 1450.39 1499.4 1450.39 Q1501.16 1450.39 1502.94 1450.74 Q1504.74 1451.09 1506.69 1451.78 Z" fill="#000000" fill-rule="evenodd" fill-opacity="1" /><path clip-path="url(#clip700)" d="M1890.96 1454.1 Q1887.34 1454.1 1885.52 1457.66 Q1883.71 1461.2 1883.71 1468.33 Q1883.71 1475.44 1885.52 1479.01 Q1887.34 1482.55 1890.96 1482.55 Q1894.59 1482.55 1896.39 1479.01 Q1898.22 1475.44 1898.22 1468.33 Q1898.22 1461.2 1896.39 1457.66 Q1894.59 1454.1 1890.96 1454.1 M1890.96 1450.39 Q1896.77 1450.39 1899.82 1455 Q1902.9 1459.58 1902.9 1468.33 Q1902.9 1477.06 1899.82 1481.67 Q1896.77 1486.25 1890.96 1486.25 Q1885.14 1486.25 1882.07 1481.67 Q1879.01 1477.06 1879.01 1468.33 Q1879.01 1459.58 1882.07 1455 Q1885.14 1450.39 1890.96 1450.39 Z" fill="#000000" fill-rule="evenodd" fill-opacity="1" /><path clip-path="url(#clip700)" d="M1911.12 1479.7 L1916 1479.7 L1916 1485.58 L1911.12 1485.58 L1911.12 1479.7 Z" fill="#000000" fill-rule="evenodd" fill-opacity="1" /><path clip-path="url(#clip700)" d="M1936.19 1469.17 Q1932.85 1469.17 1930.93 1470.95 Q1929.03 1472.73 1929.03 1475.86 Q1929.03 1478.98 1930.93 1480.77 Q1932.85 1482.55 1936.19 1482.55 Q1939.52 1482.55 1941.44 1480.77 Q1943.36 1478.96 1943.36 1475.86 Q1943.36 1472.73 1941.44 1470.95 Q1939.54 1469.17 1936.19 1469.17 M1931.51 1467.18 Q1928.5 1466.44 1926.81 1464.38 Q1925.14 1462.32 1925.14 1459.35 Q1925.14 1455.21 1928.08 1452.8 Q1931.05 1450.39 1936.19 1450.39 Q1941.35 1450.39 1944.29 1452.8 Q1947.23 1455.21 1947.23 1459.35 Q1947.23 1462.32 1945.54 1464.38 Q1943.87 1466.44 1940.89 1467.18 Q1944.26 1467.96 1946.14 1470.26 Q1948.04 1472.55 1948.04 1475.86 Q1948.04 1480.88 1944.96 1483.57 Q1941.9 1486.25 1936.19 1486.25 Q1930.47 1486.25 1927.39 1483.57 Q1924.33 1480.88 1924.33 1475.86 Q1924.33 1472.55 1926.23 1470.26 Q1928.13 1467.96 1931.51 1467.18 M1929.8 1459.79 Q1929.8 1462.48 1931.46 1463.98 Q1933.15 1465.49 1936.19 1465.49 Q1939.2 1465.49 1940.89 1463.98 Q1942.6 1462.48 1942.6 1459.79 Q1942.6 1457.11 1940.89 1455.6 Q1939.2 1454.1 1936.19 1454.1 Q1933.15 1454.1 1931.46 1455.6 Q1929.8 1457.11 1929.8 1459.79 Z" fill="#000000" fill-rule="evenodd" fill-opacity="1" /><path clip-path="url(#clip700)" d="M2319.91 1481.64 L2327.55 1481.64 L2327.55 1455.28 L2319.24 1456.95 L2319.24 1452.69 L2327.5 1451.02 L2332.18 1451.02 L2332.18 1481.64 L2339.82 1481.64 L2339.82 1485.58 L2319.91 1485.58 L2319.91 1481.64 Z" fill="#000000" fill-rule="evenodd" fill-opacity="1" /><path clip-path="url(#clip700)" d="M2349.26 1479.7 L2354.14 1479.7 L2354.14 1485.58 L2349.26 1485.58 L2349.26 1479.7 Z" fill="#000000" fill-rule="evenodd" fill-opacity="1" /><path clip-path="url(#clip700)" d="M2374.33 1454.1 Q2370.72 1454.1 2368.89 1457.66 Q2367.08 1461.2 2367.08 1468.33 Q2367.08 1475.44 2368.89 1479.01 Q2370.72 1482.55 2374.33 1482.55 Q2377.96 1482.55 2379.77 1479.01 Q2381.6 1475.44 2381.6 1468.33 Q2381.6 1461.2 2379.77 1457.66 Q2377.96 1454.1 2374.33 1454.1 M2374.33 1450.39 Q2380.14 1450.39 2383.2 1455 Q2386.27 1459.58 2386.27 1468.33 Q2386.27 1477.06 2383.2 1481.67 Q2380.14 1486.25 2374.33 1486.25 Q2368.52 1486.25 2365.44 1481.67 Q2362.39 1477.06 2362.39 1468.33 Q2362.39 1459.58 2365.44 1455 Q2368.52 1450.39 2374.33 1450.39 Z" fill="#000000" fill-rule="evenodd" fill-opacity="1" /><path clip-path="url(#clip700)" d="M1253.74 1522.27 L1253.74 1532.4 L1265.8 1532.4 L1265.8 1536.95 L1253.74 1536.95 L1253.74 1556.3 Q1253.74 1560.66 1254.92 1561.9 Q1256.13 1563.14 1259.79 1563.14 L1265.8 1563.14 L1265.8 1568.04 L1259.79 1568.04 Q1253.01 1568.04 1250.43 1565.53 Q1247.85 1562.98 1247.85 1556.3 L1247.85 1536.95 L1243.55 1536.95 L1243.55 1532.4 L1247.85 1532.4 L1247.85 1522.27 L1253.74 1522.27 Z" fill="#000000" fill-rule="evenodd" fill-opacity="1" /><polyline clip-path="url(#clip702)" style="stroke:#000000; stroke-linecap:butt; stroke-linejoin:round; stroke-width:2; stroke-opacity:0.1; fill:none" points="
  156.598,1269.26 2352.76,1269.26 
  "/>
<polyline clip-path="url(#clip702)" style="stroke:#000000; stroke-linecap:butt; stroke-linejoin:round; stroke-width:2; stroke-opacity:0.1; fill:none" points="
  156.598,874.901 2352.76,874.901 
  "/>
<polyline clip-path="url(#clip702)" style="stroke:#000000; stroke-linecap:butt; stroke-linejoin:round; stroke-width:2; stroke-opacity:0.1; fill:none" points="
  156.598,480.543 2352.76,480.543 
  "/>
<polyline clip-path="url(#clip702)" style="stroke:#000000; stroke-linecap:butt; stroke-linejoin:round; stroke-width:2; stroke-opacity:0.1; fill:none" points="
  156.598,86.1857 2352.76,86.1857 
  "/>
<polyline clip-path="url(#clip700)" style="stroke:#000000; stroke-linecap:butt; stroke-linejoin:round; stroke-width:4; stroke-opacity:1; fill:none" points="
  156.598,1423.18 156.598,47.2441 
  "/>
<polyline clip-path="url(#clip700)" style="stroke:#000000; stroke-linecap:butt; stroke-linejoin:round; stroke-width:4; stroke-opacity:1; fill:none" points="
  156.598,1269.26 175.496,1269.26 
  "/>
<polyline clip-path="url(#clip700)" style="stroke:#000000; stroke-linecap:butt; stroke-linejoin:round; stroke-width:4; stroke-opacity:1; fill:none" points="
  156.598,874.901 175.496,874.901 
  "/>
<polyline clip-path="url(#clip700)" style="stroke:#000000; stroke-linecap:butt; stroke-linejoin:round; stroke-width:4; stroke-opacity:1; fill:none" points="
  156.598,480.543 175.496,480.543 
  "/>
<polyline clip-path="url(#clip700)" style="stroke:#000000; stroke-linecap:butt; stroke-linejoin:round; stroke-width:4; stroke-opacity:1; fill:none" points="
  156.598,86.1857 175.496,86.1857 
  "/>
<path clip-path="url(#clip700)" d="M65.0198 1255.06 Q61.4087 1255.06 59.58 1258.62 Q57.7745 1262.16 57.7745 1269.29 Q57.7745 1276.4 59.58 1279.97 Q61.4087 1283.51 65.0198 1283.51 Q68.6541 1283.51 70.4596 1279.97 Q72.2883 1276.4 72.2883 1269.29 Q72.2883 1262.16 70.4596 1258.62 Q68.6541 1255.06 65.0198 1255.06 M65.0198 1251.35 Q70.83 1251.35 73.8855 1255.96 Q76.9642 1260.54 76.9642 1269.29 Q76.9642 1278.02 73.8855 1282.63 Q70.83 1287.21 65.0198 1287.21 Q59.2097 1287.21 56.131 1282.63 Q53.0754 1278.02 53.0754 1269.29 Q53.0754 1260.54 56.131 1255.96 Q59.2097 1251.35 65.0198 1251.35 Z" fill="#000000" fill-rule="evenodd" fill-opacity="1" /><path clip-path="url(#clip700)" d="M85.1818 1280.66 L90.066 1280.66 L90.066 1286.54 L85.1818 1286.54 L85.1818 1280.66 Z" fill="#000000" fill-rule="evenodd" fill-opacity="1" /><path clip-path="url(#clip700)" d="M104.279 1282.6 L120.598 1282.6 L120.598 1286.54 L98.6539 1286.54 L98.6539 1282.6 Q101.316 1279.85 105.899 1275.22 Q110.506 1270.57 111.686 1269.22 Q113.932 1266.7 114.811 1264.97 Q115.714 1263.21 115.714 1261.52 Q115.714 1258.76 113.77 1257.03 Q111.848 1255.29 108.746 1255.29 Q106.547 1255.29 104.094 1256.05 Q101.663 1256.82 98.8854 1258.37 L98.8854 1253.65 Q101.709 1252.51 104.163 1251.93 Q106.617 1251.35 108.654 1251.35 Q114.024 1251.35 117.219 1254.04 Q120.413 1256.72 120.413 1261.22 Q120.413 1263.34 119.603 1265.27 Q118.816 1267.16 116.709 1269.76 Q116.131 1270.43 113.029 1273.65 Q109.927 1276.84 104.279 1282.6 Z" fill="#000000" fill-rule="evenodd" fill-opacity="1" /><path clip-path="url(#clip700)" d="M64.0708 860.7 Q60.4597 860.7 58.631 864.265 Q56.8254 867.806 56.8254 874.936 Q56.8254 882.042 58.631 885.607 Q60.4597 889.149 64.0708 889.149 Q67.705 889.149 69.5105 885.607 Q71.3392 882.042 71.3392 874.936 Q71.3392 867.806 69.5105 864.265 Q67.705 860.7 64.0708 860.7 M64.0708 856.996 Q69.8809 856.996 72.9365 861.603 Q76.0151 866.186 76.0151 874.936 Q76.0151 883.663 72.9365 888.269 Q69.8809 892.853 64.0708 892.853 Q58.2606 892.853 55.1819 888.269 Q52.1264 883.663 52.1264 874.936 Q52.1264 866.186 55.1819 861.603 Q58.2606 856.996 64.0708 856.996 Z" fill="#000000" fill-rule="evenodd" fill-opacity="1" /><path clip-path="url(#clip700)" d="M84.2327 886.302 L89.1169 886.302 L89.1169 892.181 L84.2327 892.181 L84.2327 886.302 Z" fill="#000000" fill-rule="evenodd" fill-opacity="1" /><path clip-path="url(#clip700)" d="M113.469 873.547 Q116.825 874.265 118.7 876.533 Q120.598 878.802 120.598 882.135 Q120.598 887.251 117.08 890.052 Q113.561 892.853 107.08 892.853 Q104.904 892.853 102.589 892.413 Q100.297 891.996 97.8437 891.14 L97.8437 886.626 Q99.7882 887.76 102.103 888.339 Q104.418 888.917 106.941 888.917 Q111.339 888.917 113.631 887.181 Q115.945 885.445 115.945 882.135 Q115.945 879.08 113.793 877.367 Q111.663 875.63 107.844 875.63 L103.816 875.63 L103.816 871.788 L108.029 871.788 Q111.478 871.788 113.307 870.422 Q115.135 869.033 115.135 866.441 Q115.135 863.779 113.237 862.367 Q111.362 860.931 107.844 860.931 Q105.922 860.931 103.723 861.348 Q101.524 861.765 98.8854 862.644 L98.8854 858.478 Q101.547 857.737 103.862 857.367 Q106.2 856.996 108.26 856.996 Q113.584 856.996 116.686 859.427 Q119.788 861.834 119.788 865.955 Q119.788 868.825 118.145 870.816 Q116.501 872.783 113.469 873.547 Z" fill="#000000" fill-rule="evenodd" fill-opacity="1" /><path clip-path="url(#clip700)" d="M62.9365 466.342 Q59.3254 466.342 57.4967 469.907 Q55.6912 473.449 55.6912 480.578 Q55.6912 487.685 57.4967 491.249 Q59.3254 494.791 62.9365 494.791 Q66.5707 494.791 68.3763 491.249 Q70.205 487.685 70.205 480.578 Q70.205 473.449 68.3763 469.907 Q66.5707 466.342 62.9365 466.342 M62.9365 462.638 Q68.7467 462.638 71.8022 467.245 Q74.8809 471.828 74.8809 480.578 Q74.8809 489.305 71.8022 493.911 Q68.7467 498.495 62.9365 498.495 Q57.1264 498.495 54.0477 493.911 Q50.9921 489.305 50.9921 480.578 Q50.9921 471.828 54.0477 467.245 Q57.1264 462.638 62.9365 462.638 Z" fill="#000000" fill-rule="evenodd" fill-opacity="1" /><path clip-path="url(#clip700)" d="M83.0984 491.944 L87.9827 491.944 L87.9827 497.823 L83.0984 497.823 L83.0984 491.944 Z" fill="#000000" fill-rule="evenodd" fill-opacity="1" /><path clip-path="url(#clip700)" d="M111.015 467.338 L99.2095 485.787 L111.015 485.787 L111.015 467.338 M109.788 463.263 L115.668 463.263 L115.668 485.787 L120.598 485.787 L120.598 489.675 L115.668 489.675 L115.668 497.823 L111.015 497.823 L111.015 489.675 L95.4132 489.675 L95.4132 485.162 L109.788 463.263 Z" fill="#000000" fill-rule="evenodd" fill-opacity="1" /><path clip-path="url(#clip700)" d="M64.418 71.9844 Q60.8069 71.9844 58.9782 75.5492 Q57.1726 79.0908 57.1726 86.2204 Q57.1726 93.3268 58.9782 96.8916 Q60.8069 100.433 64.418 100.433 Q68.0522 100.433 69.8578 96.8916 Q71.6865 93.3268 71.6865 86.2204 Q71.6865 79.0908 69.8578 75.5492 Q68.0522 71.9844 64.418 71.9844 M64.418 68.2807 Q70.2281 68.2807 73.2837 72.8871 Q76.3624 77.4704 76.3624 86.2204 Q76.3624 94.9472 73.2837 99.5537 Q70.2281 104.137 64.418 104.137 Q58.6078 104.137 55.5291 99.5537 Q52.4736 94.9472 52.4736 86.2204 Q52.4736 77.4704 55.5291 72.8871 Q58.6078 68.2807 64.418 68.2807 Z" fill="#000000" fill-rule="evenodd" fill-opacity="1" /><path clip-path="url(#clip700)" d="M84.5799 97.5861 L89.4641 97.5861 L89.4641 103.466 L84.5799 103.466 L84.5799 97.5861 Z" fill="#000000" fill-rule="evenodd" fill-opacity="1" /><path clip-path="url(#clip700)" d="M99.6956 68.9057 L118.052 68.9057 L118.052 72.8408 L103.978 72.8408 L103.978 81.313 Q104.996 80.9658 106.015 80.8038 Q107.033 80.6186 108.052 80.6186 Q113.839 80.6186 117.219 83.7899 Q120.598 86.9611 120.598 92.3778 Q120.598 97.9564 117.126 101.058 Q113.654 104.137 107.334 104.137 Q105.159 104.137 102.89 103.767 Q100.645 103.396 98.2372 102.655 L98.2372 97.9564 Q100.321 99.0907 102.543 99.6462 Q104.765 100.202 107.242 100.202 Q111.246 100.202 113.584 98.0953 Q115.922 95.9889 115.922 92.3778 Q115.922 88.7667 113.584 86.6602 Q111.246 84.5537 107.242 84.5537 Q105.367 84.5537 103.492 84.9704 Q101.64 85.3871 99.6956 86.2667 L99.6956 68.9057 Z" fill="#000000" fill-rule="evenodd" fill-opacity="1" /><polyline clip-path="url(#clip702)" style="stroke:#009af9; stroke-linecap:butt; stroke-linejoin:round; stroke-width:4; stroke-opacity:1; fill:none" points="
  156.598,86.1857 293.858,476.852 431.118,1173.14 568.378,1331.73 705.638,1384.24 842.898,1218.41 980.157,871.237 1117.42,815.262 1254.68,705.201 1391.94,861.722 
  1529.2,858.258 1666.46,997.363 1803.72,729.269 1940.98,1092.41 2078.24,831.06 2215.5,1086.53 2352.76,754.958 
  "/>
<polyline clip-path="url(#clip702)" style="stroke:#e26f46; stroke-linecap:butt; stroke-linejoin:round; stroke-width:4; stroke-opacity:1; fill:none" points="
  156.598,86.1857 293.858,490.347 431.118,1079.8 568.378,1265.46 705.638,1343.42 842.898,1172.13 980.157,759.677 1117.42,738.846 1254.68,661.032 1391.94,851.947 
  1529.2,885.662 1666.46,1046.12 1803.72,795.21 1940.98,1126.75 2078.24,874.838 2215.5,1126.8 2352.76,788.294 
  "/>
<path clip-path="url(#clip700)" d="
M1807.92 248.629 L2279.55 248.629 L2279.55 93.1086 L1807.92 93.1086  Z
  " fill="#ffffff" fill-rule="evenodd" fill-opacity="1"/>
<polyline clip-path="url(#clip700)" style="stroke:#000000; stroke-linecap:butt; stroke-linejoin:round; stroke-width:4; stroke-opacity:1; fill:none" points="
  1807.92,248.629 2279.55,248.629 2279.55,93.1086 1807.92,93.1086 1807.92,248.629 
  "/>
<polyline clip-path="url(#clip700)" style="stroke:#009af9; stroke-linecap:butt; stroke-linejoin:round; stroke-width:4; stroke-opacity:1; fill:none" points="
  1832.32,144.949 1978.73,144.949 
  "/>
<path clip-path="url(#clip700)" d="M2003.13 151.997 L2003.13 136.303 L2007.39 136.303 L2007.39 151.835 Q2007.39 155.516 2008.83 157.368 Q2010.26 159.196 2013.13 159.196 Q2016.58 159.196 2018.57 156.997 Q2020.59 154.798 2020.59 151.002 L2020.59 136.303 L2024.85 136.303 L2024.85 162.229 L2020.59 162.229 L2020.59 158.247 Q2019.04 160.608 2016.98 161.766 Q2014.94 162.9 2012.23 162.9 Q2007.76 162.9 2005.45 160.122 Q2003.13 157.344 2003.13 151.997 M2013.85 135.678 L2013.85 135.678 Z" fill="#000000" fill-rule="evenodd" fill-opacity="1" /><path clip-path="url(#clip700)" d="M2035.03 158.293 L2042.67 158.293 L2042.67 131.928 L2034.36 133.595 L2034.36 129.335 L2042.62 127.669 L2047.3 127.669 L2047.3 158.293 L2054.94 158.293 L2054.94 162.229 L2035.03 162.229 L2035.03 158.293 Z" fill="#000000" fill-rule="evenodd" fill-opacity="1" /><path clip-path="url(#clip700)" d="M2074.01 126.257 Q2070.91 131.581 2069.41 136.789 Q2067.9 141.997 2067.9 147.344 Q2067.9 152.692 2069.41 157.946 Q2070.93 163.178 2074.01 168.479 L2070.31 168.479 Q2066.84 163.039 2065.1 157.784 Q2063.39 152.53 2063.39 147.344 Q2063.39 142.182 2065.1 136.951 Q2066.81 131.72 2070.31 126.257 L2074.01 126.257 Z" fill="#000000" fill-rule="evenodd" fill-opacity="1" /><path clip-path="url(#clip700)" d="M2086.49 128.942 L2086.49 136.303 L2095.26 136.303 L2095.26 139.613 L2086.49 139.613 L2086.49 153.687 Q2086.49 156.858 2087.35 157.761 Q2088.22 158.664 2090.89 158.664 L2095.26 158.664 L2095.26 162.229 L2090.89 162.229 Q2085.96 162.229 2084.08 160.4 Q2082.21 158.548 2082.21 153.687 L2082.21 139.613 L2079.08 139.613 L2079.08 136.303 L2082.21 136.303 L2082.21 128.942 L2086.49 128.942 Z" fill="#000000" fill-rule="evenodd" fill-opacity="1" /><path clip-path="url(#clip700)" d="M2100.19 126.257 L2103.9 126.257 Q2107.37 131.72 2109.08 136.951 Q2110.82 142.182 2110.82 147.344 Q2110.82 152.53 2109.08 157.784 Q2107.37 163.039 2103.9 168.479 L2100.19 168.479 Q2103.27 163.178 2104.78 157.946 Q2106.3 152.692 2106.3 147.344 Q2106.3 141.997 2104.78 136.789 Q2103.27 131.581 2100.19 126.257 Z" fill="#000000" fill-rule="evenodd" fill-opacity="1" /><polyline clip-path="url(#clip700)" style="stroke:#e26f46; stroke-linecap:butt; stroke-linejoin:round; stroke-width:4; stroke-opacity:1; fill:none" points="
  1832.32,196.789 1978.73,196.789 
  "/>
<path clip-path="url(#clip700)" d="M2003.13 179.509 L2032.37 179.509 L2032.37 183.444 L2020.1 183.444 L2020.1 214.069 L2015.4 214.069 L2015.4 183.444 L2003.13 183.444 L2003.13 179.509 Z" fill="#000000" fill-rule="evenodd" fill-opacity="1" /><path clip-path="url(#clip700)" d="M2044.75 192.124 Q2044.04 191.708 2043.18 191.522 Q2042.35 191.314 2041.33 191.314 Q2037.72 191.314 2035.77 193.675 Q2033.85 196.013 2033.85 200.411 L2033.85 214.069 L2029.57 214.069 L2029.57 188.143 L2033.85 188.143 L2033.85 192.171 Q2035.19 189.809 2037.35 188.675 Q2039.5 187.518 2042.58 187.518 Q2043.02 187.518 2043.55 187.587 Q2044.08 187.634 2044.73 187.749 L2044.75 192.124 Z" fill="#000000" fill-rule="evenodd" fill-opacity="1" /><path clip-path="url(#clip700)" d="M2048.78 203.837 L2048.78 188.143 L2053.04 188.143 L2053.04 203.675 Q2053.04 207.356 2054.47 209.208 Q2055.91 211.036 2058.78 211.036 Q2062.23 211.036 2064.22 208.837 Q2066.23 206.638 2066.23 202.842 L2066.23 188.143 L2070.49 188.143 L2070.49 214.069 L2066.23 214.069 L2066.23 210.087 Q2064.68 212.448 2062.62 213.606 Q2060.59 214.74 2057.88 214.74 Q2053.41 214.74 2051.1 211.962 Q2048.78 209.184 2048.78 203.837 M2059.5 187.518 L2059.5 187.518 Z" fill="#000000" fill-rule="evenodd" fill-opacity="1" /><path clip-path="url(#clip700)" d="M2101.44 200.041 L2101.44 202.124 L2081.86 202.124 Q2082.14 206.522 2084.5 208.837 Q2086.88 211.129 2091.12 211.129 Q2093.57 211.129 2095.86 210.527 Q2098.18 209.925 2100.45 208.721 L2100.45 212.749 Q2098.16 213.721 2095.75 214.231 Q2093.34 214.74 2090.86 214.74 Q2084.66 214.74 2081.03 211.129 Q2077.41 207.518 2077.41 201.36 Q2077.41 194.995 2080.84 191.268 Q2084.29 187.518 2090.12 187.518 Q2095.35 187.518 2098.39 190.897 Q2101.44 194.254 2101.44 200.041 M2097.18 198.791 Q2097.14 195.296 2095.22 193.212 Q2093.32 191.129 2090.17 191.129 Q2086.6 191.129 2084.45 193.143 Q2082.32 195.157 2082 198.814 L2097.18 198.791 Z" fill="#000000" fill-rule="evenodd" fill-opacity="1" /><path clip-path="url(#clip700)" d="M2123.06 203.837 L2123.06 188.143 L2127.32 188.143 L2127.32 203.675 Q2127.32 207.356 2128.76 209.208 Q2130.19 211.036 2133.06 211.036 Q2136.51 211.036 2138.5 208.837 Q2140.52 206.638 2140.52 202.842 L2140.52 188.143 L2144.78 188.143 L2144.78 214.069 L2140.52 214.069 L2140.52 210.087 Q2138.97 212.448 2136.91 213.606 Q2134.87 214.74 2132.16 214.74 Q2127.69 214.74 2125.38 211.962 Q2123.06 209.184 2123.06 203.837 M2133.78 187.518 L2133.78 187.518 Z" fill="#000000" fill-rule="evenodd" fill-opacity="1" /><path clip-path="url(#clip700)" d="M2154.96 210.133 L2162.6 210.133 L2162.6 183.768 L2154.29 185.435 L2154.29 181.175 L2162.55 179.509 L2167.23 179.509 L2167.23 210.133 L2174.87 210.133 L2174.87 214.069 L2154.96 214.069 L2154.96 210.133 Z" fill="#000000" fill-rule="evenodd" fill-opacity="1" /><path clip-path="url(#clip700)" d="M2193.94 178.097 Q2190.84 183.421 2189.34 188.629 Q2187.83 193.837 2187.83 199.184 Q2187.83 204.532 2189.34 209.786 Q2190.86 215.018 2193.94 220.319 L2190.24 220.319 Q2186.77 214.879 2185.03 209.624 Q2183.32 204.37 2183.32 199.184 Q2183.32 194.022 2185.03 188.791 Q2186.74 183.56 2190.24 178.097 L2193.94 178.097 Z" fill="#000000" fill-rule="evenodd" fill-opacity="1" /><path clip-path="url(#clip700)" d="M2206.42 180.782 L2206.42 188.143 L2215.19 188.143 L2215.19 191.453 L2206.42 191.453 L2206.42 205.527 Q2206.42 208.698 2207.28 209.601 Q2208.15 210.504 2210.82 210.504 L2215.19 210.504 L2215.19 214.069 L2210.82 214.069 Q2205.89 214.069 2204.01 212.24 Q2202.14 210.388 2202.14 205.527 L2202.14 191.453 L2199.01 191.453 L2199.01 188.143 L2202.14 188.143 L2202.14 180.782 L2206.42 180.782 Z" fill="#000000" fill-rule="evenodd" fill-opacity="1" /><path clip-path="url(#clip700)" d="M2220.12 178.097 L2223.83 178.097 Q2227.3 183.56 2229.01 188.791 Q2230.75 194.022 2230.75 199.184 Q2230.75 204.37 2229.01 209.624 Q2227.3 214.879 2223.83 220.319 L2220.12 220.319 Q2223.2 215.018 2224.71 209.786 Q2226.23 204.532 2226.23 199.184 Q2226.23 193.837 2224.71 188.629 Q2223.2 183.421 2220.12 178.097 Z" fill="#000000" fill-rule="evenodd" fill-opacity="1" /></svg>
