<?xml version="1.0" encoding="utf-8"?>
<svg xmlns="http://www.w3.org/2000/svg" xmlns:xlink="http://www.w3.org/1999/xlink" width="600" height="400" viewBox="0 0 2400 1600">
<defs>
  <clipPath id="clip640">
    <rect x="0" y="0" width="2400" height="1600"/>
  </clipPath>
</defs>
<path clip-path="url(#clip640)" d="
M0 1600 L2400 1600 L2400 0 L0 0  Z
  " fill="#ffffff" fill-rule="evenodd" fill-opacity="1"/>
<defs>
  <clipPath id="clip641">
    <rect x="480" y="0" width="1681" height="1600"/>
  </clipPath>
</defs>
<path clip-path="url(#clip640)" d="
M216.922 1423.18 L2352.76 1423.18 L2352.76 47.2441 L216.922 47.2441  Z
  " fill="#ffffff" fill-rule="evenodd" fill-opacity="1"/>
<defs>
  <clipPath id="clip642">
    <rect x="216" y="47" width="2137" height="1377"/>
  </clipPath>
</defs>
<polyline clip-path="url(#clip642)" style="stroke:#000000; stroke-linecap:butt; stroke-linejoin:round; stroke-width:2; stroke-opacity:0.1; fill:none" points="
  216.922,1423.18 216.922,47.2441 
  "/>
<polyline clip-path="url(#clip642)" style="stroke:#000000; stroke-linecap:butt; stroke-linejoin:round; stroke-width:2; stroke-opacity:0.1; fill:none" points="
  522.041,1423.18 522.041,47.2441 
  "/>
<polyline clip-path="url(#clip642)" style="stroke:#000000; stroke-linecap:butt; stroke-linejoin:round; stroke-width:2; stroke-opacity:0.1; fill:none" points="
  827.16,1423.18 827.16,47.2441 
  "/>
<polyline clip-path="url(#clip642)" style="stroke:#000000; stroke-linecap:butt; stroke-linejoin:round; stroke-width:2; stroke-opacity:0.1; fill:none" points="
  1132.28,1423.18 1132.28,47.2441 
  "/>
<polyline clip-path="url(#clip642)" style="stroke:#000000; stroke-linecap:butt; stroke-linejoin:round; stroke-width:2; stroke-opacity:0.1; fill:none" points="
  1437.4,1423.18 1437.4,47.2441 
  "/>
<polyline clip-path="url(#clip642)" style="stroke:#000000; stroke-linecap:butt; stroke-linejoin:round; stroke-width:2; stroke-opacity:0.1; fill:none" points="
  1742.52,1423.18 1742.52,47.2441 
  "/>
<polyline clip-path="url(#clip642)" style="stroke:#000000; stroke-linecap:butt; stroke-linejoin:round; stroke-width:2; stroke-opacity:0.1; fill:none" points="
  2047.64,1423.18 2047.64,47.2441 
  "/>
<polyline clip-path="url(#clip642)" style="stroke:#000000; stroke-linecap:butt; stroke-linejoin:round; stroke-width:2; stroke-opacity:0.1; fill:none" points="
  2352.76,1423.18 2352.76,47.2441 
  "/>
<polyline clip-path="url(#clip640)" style="stroke:#000000; stroke-linecap:butt; stroke-linejoin:round; stroke-width:4; stroke-opacity:1; fill:none" points="
  216.922,1423.18 2352.76,1423.18 
  "/>
<polyline clip-path="url(#clip640)" style="stroke:#000000; stroke-linecap:butt; stroke-linejoin:round; stroke-width:4; stroke-opacity:1; fill:none" points="
  216.922,1423.18 216.922,1404.28 
  "/>
<polyline clip-path="url(#clip640)" style="stroke:#000000; stroke-linecap:butt; stroke-linejoin:round; stroke-width:4; stroke-opacity:1; fill:none" points="
  522.041,1423.18 522.041,1404.28 
  "/>
<polyline clip-path="url(#clip640)" style="stroke:#000000; stroke-linecap:butt; stroke-linejoin:round; stroke-width:4; stroke-opacity:1; fill:none" points="
  827.16,1423.18 827.16,1404.28 
  "/>
<polyline clip-path="url(#clip640)" style="stroke:#000000; stroke-linecap:butt; stroke-linejoin:round; stroke-width:4; stroke-opacity:1; fill:none" points="
  1132.28,1423.18 1132.28,1404.28 
  "/>
<polyline clip-path="url(#clip640)" style="stroke:#000000; stroke-linecap:butt; stroke-linejoin:round; stroke-width:4; stroke-opacity:1; fill:none" points="
  1437.4,1423.18 1437.4,1404.28 
  "/>
<polyline clip-path="url(#clip640)" style="stroke:#000000; stroke-linecap:butt; stroke-linejoin:round; stroke-width:4; stroke-opacity:1; fill:none" points="
  1742.52,1423.18 1742.52,1404.28 
  "/>
<polyline clip-path="url(#clip640)" style="stroke:#000000; stroke-linecap:butt; stroke-linejoin:round; stroke-width:4; stroke-opacity:1; fill:none" points="
  2047.64,1423.18 2047.64,1404.28 
  "/>
<polyline clip-path="url(#clip640)" style="stroke:#000000; stroke-linecap:butt; stroke-linejoin:round; stroke-width:4; stroke-opacity:1; fill:none" points="
  2352.76,1423.18 2352.76,1404.28 
  "/>
<path clip-path="url(#clip640)" d="M216.922 1454.1 Q213.311 1454.1 211.482 1457.66 Q209.677 1461.2 209.677 1468.33 Q209.677 1475.44 211.482 1479.01 Q213.311 1482.55 216.922 1482.55 Q220.556 1482.55 222.362 1479.01 Q224.19 1475.44 224.19 1468.33 Q224.19 1461.2 222.362 1457.66 Q220.556 1454.1 216.922 1454.1 M216.922 1450.39 Q222.732 1450.39 225.788 1455 Q228.866 1459.58 228.866 1468.33 Q228.866 1477.06 225.788 1481.67 Q222.732 1486.25 216.922 1486.25 Q211.112 1486.25 208.033 1481.67 Q204.978 1477.06 204.978 1468.33 Q204.978 1459.58 208.033 1455 Q211.112 1450.39 216.922 1450.39 Z" fill="#000000" fill-rule="evenodd" fill-opacity="1" /><path clip-path="url(#clip640)" d="M481.648 1481.64 L489.287 1481.64 L489.287 1455.28 L480.977 1456.95 L480.977 1452.69 L489.24 1451.02 L493.916 1451.02 L493.916 1481.64 L501.555 1481.64 L501.555 1485.58 L481.648 1485.58 L481.648 1481.64 Z" fill="#000000" fill-rule="evenodd" fill-opacity="1" /><path clip-path="url(#clip640)" d="M520.999 1454.1 Q517.388 1454.1 515.56 1457.66 Q513.754 1461.2 513.754 1468.33 Q513.754 1475.44 515.56 1479.01 Q517.388 1482.55 520.999 1482.55 Q524.634 1482.55 526.439 1479.01 Q528.268 1475.44 528.268 1468.33 Q528.268 1461.2 526.439 1457.66 Q524.634 1454.1 520.999 1454.1 M520.999 1450.39 Q526.81 1450.39 529.865 1455 Q532.944 1459.58 532.944 1468.33 Q532.944 1477.06 529.865 1481.67 Q526.81 1486.25 520.999 1486.25 Q515.189 1486.25 512.111 1481.67 Q509.055 1477.06 509.055 1468.33 Q509.055 1459.58 512.111 1455 Q515.189 1450.39 520.999 1450.39 Z" fill="#000000" fill-rule="evenodd" fill-opacity="1" /><path clip-path="url(#clip640)" d="M551.161 1454.1 Q547.55 1454.1 545.722 1457.66 Q543.916 1461.2 543.916 1468.33 Q543.916 1475.44 545.722 1479.01 Q547.55 1482.55 551.161 1482.55 Q554.796 1482.55 556.601 1479.01 Q558.43 1475.44 558.43 1468.33 Q558.43 1461.2 556.601 1457.66 Q554.796 1454.1 551.161 1454.1 M551.161 1450.39 Q556.971 1450.39 560.027 1455 Q563.106 1459.58 563.106 1468.33 Q563.106 1477.06 560.027 1481.67 Q556.971 1486.25 551.161 1486.25 Q545.351 1486.25 542.272 1481.67 Q539.217 1477.06 539.217 1468.33 Q539.217 1459.58 542.272 1455 Q545.351 1450.39 551.161 1450.39 Z" fill="#000000" fill-rule="evenodd" fill-opacity="1" /><path clip-path="url(#clip640)" d="M790.853 1481.64 L807.172 1481.64 L807.172 1485.58 L785.228 1485.58 L785.228 1481.64 Q787.89 1478.89 792.473 1474.26 Q797.079 1469.61 798.26 1468.27 Q800.505 1465.74 801.385 1464.01 Q802.288 1462.25 802.288 1460.56 Q802.288 1457.8 800.343 1456.07 Q798.422 1454.33 795.32 1454.33 Q793.121 1454.33 790.667 1455.09 Q788.237 1455.86 785.459 1457.41 L785.459 1452.69 Q788.283 1451.55 790.737 1450.97 Q793.191 1450.39 795.228 1450.39 Q800.598 1450.39 803.792 1453.08 Q806.987 1455.77 806.987 1460.26 Q806.987 1462.39 806.177 1464.31 Q805.39 1466.2 803.283 1468.8 Q802.704 1469.47 799.603 1472.69 Q796.501 1475.88 790.853 1481.64 Z" fill="#000000" fill-rule="evenodd" fill-opacity="1" /><path clip-path="url(#clip640)" d="M826.987 1454.1 Q823.376 1454.1 821.547 1457.66 Q819.741 1461.2 819.741 1468.33 Q819.741 1475.44 821.547 1479.01 Q823.376 1482.55 826.987 1482.55 Q830.621 1482.55 832.426 1479.01 Q834.255 1475.44 834.255 1468.33 Q834.255 1461.2 832.426 1457.66 Q830.621 1454.1 826.987 1454.1 M826.987 1450.39 Q832.797 1450.39 835.852 1455 Q838.931 1459.58 838.931 1468.33 Q838.931 1477.06 835.852 1481.67 Q832.797 1486.25 826.987 1486.25 Q821.176 1486.25 818.098 1481.67 Q815.042 1477.06 815.042 1468.33 Q815.042 1459.58 818.098 1455 Q821.176 1450.39 826.987 1450.39 Z" fill="#000000" fill-rule="evenodd" fill-opacity="1" /><path clip-path="url(#clip640)" d="M857.149 1454.1 Q853.537 1454.1 851.709 1457.66 Q849.903 1461.2 849.903 1468.33 Q849.903 1475.44 851.709 1479.01 Q853.537 1482.55 857.149 1482.55 Q860.783 1482.55 862.588 1479.01 Q864.417 1475.44 864.417 1468.33 Q864.417 1461.2 862.588 1457.66 Q860.783 1454.1 857.149 1454.1 M857.149 1450.39 Q862.959 1450.39 866.014 1455 Q869.093 1459.58 869.093 1468.33 Q869.093 1477.06 866.014 1481.67 Q862.959 1486.25 857.149 1486.25 Q851.338 1486.25 848.26 1481.67 Q845.204 1477.06 845.204 1468.33 Q845.204 1459.58 848.26 1455 Q851.338 1450.39 857.149 1450.39 Z" fill="#000000" fill-rule="evenodd" fill-opacity="1" /><path clip-path="url(#clip640)" d="M1106.04 1466.95 Q1109.4 1467.66 1111.27 1469.93 Q1113.17 1472.2 1113.17 1475.53 Q1113.17 1480.65 1109.65 1483.45 Q1106.13 1486.25 1099.65 1486.25 Q1097.48 1486.25 1095.16 1485.81 Q1092.87 1485.39 1090.42 1484.54 L1090.42 1480.02 Q1092.36 1481.16 1094.68 1481.74 Q1096.99 1482.32 1099.51 1482.32 Q1103.91 1482.32 1106.2 1480.58 Q1108.52 1478.84 1108.52 1475.53 Q1108.52 1472.48 1106.37 1470.77 Q1104.24 1469.03 1100.42 1469.03 L1096.39 1469.03 L1096.39 1465.19 L1100.6 1465.19 Q1104.05 1465.19 1105.88 1463.82 Q1107.71 1462.43 1107.71 1459.84 Q1107.71 1457.18 1105.81 1455.77 Q1103.93 1454.33 1100.42 1454.33 Q1098.49 1454.33 1096.3 1454.75 Q1094.1 1455.16 1091.46 1456.04 L1091.46 1451.88 Q1094.12 1451.14 1096.43 1450.77 Q1098.77 1450.39 1100.83 1450.39 Q1106.16 1450.39 1109.26 1452.83 Q1112.36 1455.23 1112.36 1459.35 Q1112.36 1462.22 1110.72 1464.21 Q1109.07 1466.18 1106.04 1466.95 Z" fill="#000000" fill-rule="evenodd" fill-opacity="1" /><path clip-path="url(#clip640)" d="M1132.04 1454.1 Q1128.43 1454.1 1126.6 1457.66 Q1124.79 1461.2 1124.79 1468.33 Q1124.79 1475.44 1126.6 1479.01 Q1128.43 1482.55 1132.04 1482.55 Q1135.67 1482.55 1137.48 1479.01 Q1139.3 1475.44 1139.3 1468.33 Q1139.3 1461.2 1137.48 1457.66 Q1135.67 1454.1 1132.04 1454.1 M1132.04 1450.39 Q1137.85 1450.39 1140.9 1455 Q1143.98 1459.58 1143.98 1468.33 Q1143.98 1477.06 1140.9 1481.67 Q1137.85 1486.25 1132.04 1486.25 Q1126.23 1486.25 1123.15 1481.67 Q1120.09 1477.06 1120.09 1468.33 Q1120.09 1459.58 1123.15 1455 Q1126.23 1450.39 1132.04 1450.39 Z" fill="#000000" fill-rule="evenodd" fill-opacity="1" /><path clip-path="url(#clip640)" d="M1162.2 1454.1 Q1158.59 1454.1 1156.76 1457.66 Q1154.95 1461.2 1154.95 1468.33 Q1154.95 1475.44 1156.76 1479.01 Q1158.59 1482.55 1162.2 1482.55 Q1165.83 1482.55 1167.64 1479.01 Q1169.47 1475.44 1169.47 1468.33 Q1169.47 1461.2 1167.64 1457.66 Q1165.83 1454.1 1162.2 1454.1 M1162.2 1450.39 Q1168.01 1450.39 1171.06 1455 Q1174.14 1459.58 1174.14 1468.33 Q1174.14 1477.06 1171.06 1481.67 Q1168.01 1486.25 1162.2 1486.25 Q1156.39 1486.25 1153.31 1481.67 Q1150.25 1477.06 1150.25 1468.33 Q1150.25 1459.58 1153.31 1455 Q1156.39 1450.39 1162.2 1450.39 Z" fill="#000000" fill-rule="evenodd" fill-opacity="1" /><path clip-path="url(#clip640)" d="M1410.49 1455.09 L1398.68 1473.54 L1410.49 1473.54 L1410.49 1455.09 M1409.26 1451.02 L1415.14 1451.02 L1415.14 1473.54 L1420.07 1473.54 L1420.07 1477.43 L1415.14 1477.43 L1415.14 1485.58 L1410.49 1485.58 L1410.49 1477.43 L1394.89 1477.43 L1394.89 1472.92 L1409.26 1451.02 Z" fill="#000000" fill-rule="evenodd" fill-opacity="1" /><path clip-path="url(#clip640)" d="M1437.8 1454.1 Q1434.19 1454.1 1432.36 1457.66 Q1430.56 1461.2 1430.56 1468.33 Q1430.56 1475.44 1432.36 1479.01 Q1434.19 1482.55 1437.8 1482.55 Q1441.44 1482.55 1443.24 1479.01 Q1445.07 1475.44 1445.07 1468.33 Q1445.07 1461.2 1443.24 1457.66 Q1441.44 1454.1 1437.8 1454.1 M1437.8 1450.39 Q1443.61 1450.39 1446.67 1455 Q1449.75 1459.58 1449.75 1468.33 Q1449.75 1477.06 1446.67 1481.67 Q1443.61 1486.25 1437.8 1486.25 Q1431.99 1486.25 1428.91 1481.67 Q1425.86 1477.06 1425.86 1468.33 Q1425.86 1459.58 1428.91 1455 Q1431.99 1450.39 1437.8 1450.39 Z" fill="#000000" fill-rule="evenodd" fill-opacity="1" /><path clip-path="url(#clip640)" d="M1467.97 1454.1 Q1464.35 1454.1 1462.53 1457.66 Q1460.72 1461.2 1460.72 1468.33 Q1460.72 1475.44 1462.53 1479.01 Q1464.35 1482.55 1467.97 1482.55 Q1471.6 1482.55 1473.41 1479.01 Q1475.23 1475.44 1475.23 1468.33 Q1475.23 1461.2 1473.41 1457.66 Q1471.6 1454.1 1467.97 1454.1 M1467.97 1450.39 Q1473.78 1450.39 1476.83 1455 Q1479.91 1459.58 1479.91 1468.33 Q1479.91 1477.06 1476.83 1481.67 Q1473.78 1486.25 1467.97 1486.25 Q1462.16 1486.25 1459.08 1481.67 Q1456.02 1477.06 1456.02 1468.33 Q1456.02 1459.58 1459.08 1455 Q1462.16 1450.39 1467.97 1450.39 Z" fill="#000000" fill-rule="evenodd" fill-opacity="1" /><path clip-path="url(#clip640)" d="M1702.14 1451.02 L1720.49 1451.02 L1720.49 1454.96 L1706.42 1454.96 L1706.42 1463.43 Q1707.44 1463.08 1708.46 1462.92 Q1709.47 1462.73 1710.49 1462.73 Q1716.28 1462.73 1719.66 1465.9 Q1723.04 1469.08 1723.04 1474.49 Q1723.04 1480.07 1719.57 1483.17 Q1716.09 1486.25 1709.77 1486.25 Q1707.6 1486.25 1705.33 1485.88 Q1703.08 1485.51 1700.68 1484.77 L1700.68 1480.07 Q1702.76 1481.2 1704.98 1481.76 Q1707.21 1482.32 1709.68 1482.32 Q1713.69 1482.32 1716.02 1480.21 Q1718.36 1478.1 1718.36 1474.49 Q1718.36 1470.88 1716.02 1468.77 Q1713.69 1466.67 1709.68 1466.67 Q1707.81 1466.67 1705.93 1467.08 Q1704.08 1467.5 1702.14 1468.38 L1702.14 1451.02 Z" fill="#000000" fill-rule="evenodd" fill-opacity="1" /><path clip-path="url(#clip640)" d="M1742.25 1454.1 Q1738.64 1454.1 1736.81 1457.66 Q1735.01 1461.2 1735.01 1468.33 Q1735.01 1475.44 1736.81 1479.01 Q1738.64 1482.55 1742.25 1482.55 Q1745.89 1482.55 1747.69 1479.01 Q1749.52 1475.44 1749.52 1468.33 Q1749.52 1461.2 1747.69 1457.66 Q1745.89 1454.1 1742.25 1454.1 M1742.25 1450.39 Q1748.06 1450.39 1751.12 1455 Q1754.2 1459.58 1754.2 1468.33 Q1754.2 1477.06 1751.12 1481.67 Q1748.06 1486.25 1742.25 1486.25 Q1736.44 1486.25 1733.36 1481.67 Q1730.31 1477.06 1730.31 1468.33 Q1730.31 1459.58 1733.36 1455 Q1736.44 1450.39 1742.25 1450.39 Z" fill="#000000" fill-rule="evenodd" fill-opacity="1" /><path clip-path="url(#clip640)" d="M1772.41 1454.1 Q1768.8 1454.1 1766.97 1457.66 Q1765.17 1461.2 1765.17 1468.33 Q1765.17 1475.44 1766.97 1479.01 Q1768.8 1482.55 1772.41 1482.55 Q1776.05 1482.55 1777.85 1479.01 Q1779.68 1475.44 1779.68 1468.33 Q1779.68 1461.2 1777.85 1457.66 Q1776.05 1454.1 1772.41 1454.1 M1772.41 1450.39 Q1778.22 1450.39 1781.28 1455 Q1784.36 1459.58 1784.36 1468.33 Q1784.36 1477.06 1781.28 1481.67 Q1778.22 1486.25 1772.41 1486.25 Q1766.6 1486.25 1763.52 1481.67 Q1760.47 1477.06 1760.47 1468.33 Q1760.47 1459.58 1763.52 1455 Q1766.6 1450.39 1772.41 1450.39 Z" fill="#000000" fill-rule="evenodd" fill-opacity="1" /><path clip-path="url(#clip640)" d="M2017.96 1466.44 Q2014.81 1466.44 2012.96 1468.59 Q2011.13 1470.74 2011.13 1474.49 Q2011.13 1478.22 2012.96 1480.39 Q2014.81 1482.55 2017.96 1482.55 Q2021.11 1482.55 2022.94 1480.39 Q2024.79 1478.22 2024.79 1474.49 Q2024.79 1470.74 2022.94 1468.59 Q2021.11 1466.44 2017.96 1466.44 M2027.24 1451.78 L2027.24 1456.04 Q2025.48 1455.21 2023.68 1454.77 Q2021.9 1454.33 2020.14 1454.33 Q2015.51 1454.33 2013.05 1457.45 Q2010.62 1460.58 2010.28 1466.9 Q2011.64 1464.89 2013.7 1463.82 Q2015.76 1462.73 2018.24 1462.73 Q2023.45 1462.73 2026.46 1465.9 Q2029.49 1469.05 2029.49 1474.49 Q2029.49 1479.82 2026.34 1483.03 Q2023.19 1486.25 2017.96 1486.25 Q2011.97 1486.25 2008.79 1481.67 Q2005.62 1477.06 2005.62 1468.33 Q2005.62 1460.14 2009.51 1455.28 Q2013.4 1450.39 2019.95 1450.39 Q2021.71 1450.39 2023.49 1450.74 Q2025.3 1451.09 2027.24 1451.78 Z" fill="#000000" fill-rule="evenodd" fill-opacity="1" /><path clip-path="url(#clip640)" d="M2047.54 1454.1 Q2043.93 1454.1 2042.1 1457.66 Q2040.3 1461.2 2040.3 1468.33 Q2040.3 1475.44 2042.1 1479.01 Q2043.93 1482.55 2047.54 1482.55 Q2051.18 1482.55 2052.98 1479.01 Q2054.81 1475.44 2054.81 1468.33 Q2054.81 1461.2 2052.98 1457.66 Q2051.18 1454.1 2047.54 1454.1 M2047.54 1450.39 Q2053.35 1450.39 2056.41 1455 Q2059.49 1459.58 2059.49 1468.33 Q2059.49 1477.06 2056.41 1481.67 Q2053.35 1486.25 2047.54 1486.25 Q2041.73 1486.25 2038.66 1481.67 Q2035.6 1477.06 2035.6 1468.33 Q2035.6 1459.58 2038.66 1455 Q2041.73 1450.39 2047.54 1450.39 Z" fill="#000000" fill-rule="evenodd" fill-opacity="1" /><path clip-path="url(#clip640)" d="M2077.71 1454.1 Q2074.09 1454.1 2072.27 1457.66 Q2070.46 1461.2 2070.46 1468.33 Q2070.46 1475.44 2072.27 1479.01 Q2074.09 1482.55 2077.71 1482.55 Q2081.34 1482.55 2083.15 1479.01 Q2084.97 1475.44 2084.97 1468.33 Q2084.97 1461.2 2083.15 1457.66 Q2081.34 1454.1 2077.71 1454.1 M2077.71 1450.39 Q2083.52 1450.39 2086.57 1455 Q2089.65 1459.58 2089.65 1468.33 Q2089.65 1477.06 2086.57 1481.67 Q2083.52 1486.25 2077.71 1486.25 Q2071.9 1486.25 2068.82 1481.67 Q2065.76 1477.06 2065.76 1468.33 Q2065.76 1459.58 2068.82 1455 Q2071.9 1450.39 2077.71 1450.39 Z" fill="#000000" fill-rule="evenodd" fill-opacity="1" /><path clip-path="url(#clip640)" d="M2311.03 1451.02 L2333.25 1451.02 L2333.25 1453.01 L2320.71 1485.58 L2315.82 1485.58 L2327.63 1454.96 L2311.03 1454.96 L2311.03 1451.02 Z" fill="#000000" fill-rule="evenodd" fill-opacity="1" /><path clip-path="url(#clip640)" d="M2352.37 1454.1 Q2348.76 1454.1 2346.93 1457.66 Q2345.13 1461.2 2345.13 1468.33 Q2345.13 1475.44 2346.93 1479.01 Q2348.76 1482.55 2352.37 1482.55 Q2356.01 1482.55 2357.81 1479.01 Q2359.64 1475.44 2359.64 1468.33 Q2359.64 1461.2 2357.81 1457.66 Q2356.01 1454.1 2352.37 1454.1 M2352.37 1450.39 Q2358.18 1450.39 2361.24 1455 Q2364.32 1459.58 2364.32 1468.33 Q2364.32 1477.06 2361.24 1481.67 Q2358.18 1486.25 2352.37 1486.25 Q2346.56 1486.25 2343.49 1481.67 Q2340.43 1477.06 2340.43 1468.33 Q2340.43 1459.58 2343.49 1455 Q2346.56 1450.39 2352.37 1450.39 Z" fill="#000000" fill-rule="evenodd" fill-opacity="1" /><path clip-path="url(#clip640)" d="M2382.54 1454.1 Q2378.92 1454.1 2377.1 1457.66 Q2375.29 1461.2 2375.29 1468.33 Q2375.29 1475.44 2377.1 1479.01 Q2378.92 1482.55 2382.54 1482.55 Q2386.17 1482.55 2387.98 1479.01 Q2389.8 1475.44 2389.8 1468.33 Q2389.8 1461.2 2387.98 1457.66 Q2386.17 1454.1 2382.54 1454.1 M2382.54 1450.39 Q2388.35 1450.39 2391.4 1455 Q2394.48 1459.58 2394.48 1468.33 Q2394.48 1477.06 2391.4 1481.67 Q2388.35 1486.25 2382.54 1486.25 Q2376.73 1486.25 2373.65 1481.67 Q2370.59 1477.06 2370.59 1468.33 Q2370.59 1459.58 2373.65 1455 Q2376.73 1450.39 2382.54 1450.39 Z" fill="#000000" fill-rule="evenodd" fill-opacity="1" /><path clip-path="url(#clip640)" d="M1283.9 1522.27 L1283.9 1532.4 L1295.96 1532.4 L1295.96 1536.95 L1283.9 1536.95 L1283.9 1556.3 Q1283.9 1560.66 1285.08 1561.9 Q1286.29 1563.14 1289.95 1563.14 L1295.96 1563.14 L1295.96 1568.04 L1289.95 1568.04 Q1283.17 1568.04 1280.59 1565.53 Q1278.01 1562.98 1278.01 1556.3 L1278.01 1536.95 L1273.71 1536.95 L1273.71 1532.4 L1278.01 1532.4 L1278.01 1522.27 L1283.9 1522.27 Z" fill="#000000" fill-rule="evenodd" fill-opacity="1" /><polyline clip-path="url(#clip642)" style="stroke:#000000; stroke-linecap:butt; stroke-linejoin:round; stroke-width:2; stroke-opacity:0.1; fill:none" points="
  216.922,1384.24 2352.76,1384.24 
  "/>
<polyline clip-path="url(#clip642)" style="stroke:#000000; stroke-linecap:butt; stroke-linejoin:round; stroke-width:2; stroke-opacity:0.1; fill:none" points="
  216.922,1065.38 2352.76,1065.38 
  "/>
<polyline clip-path="url(#clip642)" style="stroke:#000000; stroke-linecap:butt; stroke-linejoin:round; stroke-width:2; stroke-opacity:0.1; fill:none" points="
  216.922,746.53 2352.76,746.53 
  "/>
<polyline clip-path="url(#clip642)" style="stroke:#000000; stroke-linecap:butt; stroke-linejoin:round; stroke-width:2; stroke-opacity:0.1; fill:none" points="
  216.922,427.675 2352.76,427.675 
  "/>
<polyline clip-path="url(#clip642)" style="stroke:#000000; stroke-linecap:butt; stroke-linejoin:round; stroke-width:2; stroke-opacity:0.1; fill:none" points="
  216.922,108.821 2352.76,108.821 
  "/>
<polyline clip-path="url(#clip640)" style="stroke:#000000; stroke-linecap:butt; stroke-linejoin:round; stroke-width:4; stroke-opacity:1; fill:none" points="
  216.922,1423.18 216.922,47.2441 
  "/>
<polyline clip-path="url(#clip640)" style="stroke:#000000; stroke-linecap:butt; stroke-linejoin:round; stroke-width:4; stroke-opacity:1; fill:none" points="
  216.922,1384.24 235.82,1384.24 
  "/>
<polyline clip-path="url(#clip640)" style="stroke:#000000; stroke-linecap:butt; stroke-linejoin:round; stroke-width:4; stroke-opacity:1; fill:none" points="
  216.922,1065.38 235.82,1065.38 
  "/>
<polyline clip-path="url(#clip640)" style="stroke:#000000; stroke-linecap:butt; stroke-linejoin:round; stroke-width:4; stroke-opacity:1; fill:none" points="
  216.922,746.53 235.82,746.53 
  "/>
<polyline clip-path="url(#clip640)" style="stroke:#000000; stroke-linecap:butt; stroke-linejoin:round; stroke-width:4; stroke-opacity:1; fill:none" points="
  216.922,427.675 235.82,427.675 
  "/>
<polyline clip-path="url(#clip640)" style="stroke:#000000; stroke-linecap:butt; stroke-linejoin:round; stroke-width:4; stroke-opacity:1; fill:none" points="
  216.922,108.821 235.82,108.821 
  "/>
<path clip-path="url(#clip640)" d="M63.4226 1370.04 Q59.8115 1370.04 57.9828 1373.6 Q56.1773 1377.14 56.1773 1384.27 Q56.1773 1391.38 57.9828 1394.94 Q59.8115 1398.49 63.4226 1398.49 Q67.0569 1398.49 68.8624 1394.94 Q70.6911 1391.38 70.6911 1384.27 Q70.6911 1377.14 68.8624 1373.6 Q67.0569 1370.04 63.4226 1370.04 M63.4226 1366.33 Q69.2328 1366.33 72.2883 1370.94 Q75.367 1375.52 75.367 1384.27 Q75.367 1393 72.2883 1397.61 Q69.2328 1402.19 63.4226 1402.19 Q57.6125 1402.19 54.5338 1397.61 Q51.4782 1393 51.4782 1384.27 Q51.4782 1375.52 54.5338 1370.94 Q57.6125 1366.33 63.4226 1366.33 Z" fill="#000000" fill-rule="evenodd" fill-opacity="1" /><path clip-path="url(#clip640)" d="M83.5845 1395.64 L88.4688 1395.64 L88.4688 1401.52 L83.5845 1401.52 L83.5845 1395.64 Z" fill="#000000" fill-rule="evenodd" fill-opacity="1" /><path clip-path="url(#clip640)" d="M108.654 1370.04 Q105.043 1370.04 103.214 1373.6 Q101.409 1377.14 101.409 1384.27 Q101.409 1391.38 103.214 1394.94 Q105.043 1398.49 108.654 1398.49 Q112.288 1398.49 114.094 1394.94 Q115.922 1391.38 115.922 1384.27 Q115.922 1377.14 114.094 1373.6 Q112.288 1370.04 108.654 1370.04 M108.654 1366.33 Q114.464 1366.33 117.52 1370.94 Q120.598 1375.52 120.598 1384.27 Q120.598 1393 117.52 1397.61 Q114.464 1402.19 108.654 1402.19 Q102.844 1402.19 99.765 1397.61 Q96.7095 1393 96.7095 1384.27 Q96.7095 1375.52 99.765 1370.94 Q102.844 1366.33 108.654 1366.33 Z" fill="#000000" fill-rule="evenodd" fill-opacity="1" /><path clip-path="url(#clip640)" d="M138.816 1370.04 Q135.205 1370.04 133.376 1373.6 Q131.57 1377.14 131.57 1384.27 Q131.57 1391.38 133.376 1394.94 Q135.205 1398.49 138.816 1398.49 Q142.45 1398.49 144.256 1394.94 Q146.084 1391.38 146.084 1384.27 Q146.084 1377.14 144.256 1373.6 Q142.45 1370.04 138.816 1370.04 M138.816 1366.33 Q144.626 1366.33 147.681 1370.94 Q150.76 1375.52 150.76 1384.27 Q150.76 1393 147.681 1397.61 Q144.626 1402.19 138.816 1402.19 Q133.006 1402.19 129.927 1397.61 Q126.871 1393 126.871 1384.27 Q126.871 1375.52 129.927 1370.94 Q133.006 1366.33 138.816 1366.33 Z" fill="#000000" fill-rule="evenodd" fill-opacity="1" /><path clip-path="url(#clip640)" d="M168.978 1370.04 Q165.367 1370.04 163.538 1373.6 Q161.732 1377.14 161.732 1384.27 Q161.732 1391.38 163.538 1394.94 Q165.367 1398.49 168.978 1398.49 Q172.612 1398.49 174.417 1394.94 Q176.246 1391.38 176.246 1384.27 Q176.246 1377.14 174.417 1373.6 Q172.612 1370.04 168.978 1370.04 M168.978 1366.33 Q174.788 1366.33 177.843 1370.94 Q180.922 1375.52 180.922 1384.27 Q180.922 1393 177.843 1397.61 Q174.788 1402.19 168.978 1402.19 Q163.167 1402.19 160.089 1397.61 Q157.033 1393 157.033 1384.27 Q157.033 1375.52 160.089 1370.94 Q163.167 1366.33 168.978 1366.33 Z" fill="#000000" fill-rule="evenodd" fill-opacity="1" /><path clip-path="url(#clip640)" d="M64.6495 1051.18 Q61.0384 1051.18 59.2097 1054.75 Q57.4041 1058.29 57.4041 1065.42 Q57.4041 1072.53 59.2097 1076.09 Q61.0384 1079.63 64.6495 1079.63 Q68.2837 1079.63 70.0892 1076.09 Q71.9179 1072.53 71.9179 1065.42 Q71.9179 1058.29 70.0892 1054.75 Q68.2837 1051.18 64.6495 1051.18 M64.6495 1047.48 Q70.4596 1047.48 73.5152 1052.09 Q76.5938 1056.67 76.5938 1065.42 Q76.5938 1074.15 73.5152 1078.75 Q70.4596 1083.34 64.6495 1083.34 Q58.8393 1083.34 55.7606 1078.75 Q52.7051 1074.15 52.7051 1065.42 Q52.7051 1056.67 55.7606 1052.09 Q58.8393 1047.48 64.6495 1047.48 Z" fill="#000000" fill-rule="evenodd" fill-opacity="1" /><path clip-path="url(#clip640)" d="M84.8114 1076.78 L89.6956 1076.78 L89.6956 1082.66 L84.8114 1082.66 L84.8114 1076.78 Z" fill="#000000" fill-rule="evenodd" fill-opacity="1" /><path clip-path="url(#clip640)" d="M109.881 1051.18 Q106.27 1051.18 104.441 1054.75 Q102.635 1058.29 102.635 1065.42 Q102.635 1072.53 104.441 1076.09 Q106.27 1079.63 109.881 1079.63 Q113.515 1079.63 115.32 1076.09 Q117.149 1072.53 117.149 1065.42 Q117.149 1058.29 115.32 1054.75 Q113.515 1051.18 109.881 1051.18 M109.881 1047.48 Q115.691 1047.48 118.746 1052.09 Q121.825 1056.67 121.825 1065.42 Q121.825 1074.15 118.746 1078.75 Q115.691 1083.34 109.881 1083.34 Q104.071 1083.34 100.992 1078.75 Q97.9363 1074.15 97.9363 1065.42 Q97.9363 1056.67 100.992 1052.09 Q104.071 1047.48 109.881 1047.48 Z" fill="#000000" fill-rule="evenodd" fill-opacity="1" /><path clip-path="url(#clip640)" d="M140.043 1051.18 Q136.431 1051.18 134.603 1054.75 Q132.797 1058.29 132.797 1065.42 Q132.797 1072.53 134.603 1076.09 Q136.431 1079.63 140.043 1079.63 Q143.677 1079.63 145.482 1076.09 Q147.311 1072.53 147.311 1065.42 Q147.311 1058.29 145.482 1054.75 Q143.677 1051.18 140.043 1051.18 M140.043 1047.48 Q145.853 1047.48 148.908 1052.09 Q151.987 1056.67 151.987 1065.42 Q151.987 1074.15 148.908 1078.75 Q145.853 1083.34 140.043 1083.34 Q134.232 1083.34 131.154 1078.75 Q128.098 1074.15 128.098 1065.42 Q128.098 1056.67 131.154 1052.09 Q134.232 1047.48 140.043 1047.48 Z" fill="#000000" fill-rule="evenodd" fill-opacity="1" /><path clip-path="url(#clip640)" d="M161.015 1078.73 L168.654 1078.73 L168.654 1052.36 L160.343 1054.03 L160.343 1049.77 L168.607 1048.1 L173.283 1048.1 L173.283 1078.73 L180.922 1078.73 L180.922 1082.66 L161.015 1082.66 L161.015 1078.73 Z" fill="#000000" fill-rule="evenodd" fill-opacity="1" /><path clip-path="url(#clip640)" d="M65.0198 732.328 Q61.4087 732.328 59.58 735.893 Q57.7745 739.435 57.7745 746.564 Q57.7745 753.671 59.58 757.236 Q61.4087 760.777 65.0198 760.777 Q68.6541 760.777 70.4596 757.236 Q72.2883 753.671 72.2883 746.564 Q72.2883 739.435 70.4596 735.893 Q68.6541 732.328 65.0198 732.328 M65.0198 728.625 Q70.83 728.625 73.8855 733.231 Q76.9642 737.814 76.9642 746.564 Q76.9642 755.291 73.8855 759.898 Q70.83 764.481 65.0198 764.481 Q59.2097 764.481 56.131 759.898 Q53.0754 755.291 53.0754 746.564 Q53.0754 737.814 56.131 733.231 Q59.2097 728.625 65.0198 728.625 Z" fill="#000000" fill-rule="evenodd" fill-opacity="1" /><path clip-path="url(#clip640)" d="M85.1818 757.93 L90.066 757.93 L90.066 763.81 L85.1818 763.81 L85.1818 757.93 Z" fill="#000000" fill-rule="evenodd" fill-opacity="1" /><path clip-path="url(#clip640)" d="M110.251 732.328 Q106.64 732.328 104.811 735.893 Q103.006 739.435 103.006 746.564 Q103.006 753.671 104.811 757.236 Q106.64 760.777 110.251 760.777 Q113.885 760.777 115.691 757.236 Q117.52 753.671 117.52 746.564 Q117.52 739.435 115.691 735.893 Q113.885 732.328 110.251 732.328 M110.251 728.625 Q116.061 728.625 119.117 733.231 Q122.195 737.814 122.195 746.564 Q122.195 755.291 119.117 759.898 Q116.061 764.481 110.251 764.481 Q104.441 764.481 101.362 759.898 Q98.3067 755.291 98.3067 746.564 Q98.3067 737.814 101.362 733.231 Q104.441 728.625 110.251 728.625 Z" fill="#000000" fill-rule="evenodd" fill-opacity="1" /><path clip-path="url(#clip640)" d="M140.413 732.328 Q136.802 732.328 134.973 735.893 Q133.168 739.435 133.168 746.564 Q133.168 753.671 134.973 757.236 Q136.802 760.777 140.413 760.777 Q144.047 760.777 145.853 757.236 Q147.681 753.671 147.681 746.564 Q147.681 739.435 145.853 735.893 Q144.047 732.328 140.413 732.328 M140.413 728.625 Q146.223 728.625 149.279 733.231 Q152.357 737.814 152.357 746.564 Q152.357 755.291 149.279 759.898 Q146.223 764.481 140.413 764.481 Q134.603 764.481 131.524 759.898 Q128.469 755.291 128.469 746.564 Q128.469 737.814 131.524 733.231 Q134.603 728.625 140.413 728.625 Z" fill="#000000" fill-rule="evenodd" fill-opacity="1" /><path clip-path="url(#clip640)" d="M164.603 759.874 L180.922 759.874 L180.922 763.81 L158.978 763.81 L158.978 759.874 Q161.64 757.12 166.223 752.49 Q170.829 747.837 172.01 746.495 Q174.255 743.972 175.135 742.236 Q176.038 740.476 176.038 738.787 Q176.038 736.032 174.093 734.296 Q172.172 732.56 169.07 732.56 Q166.871 732.56 164.417 733.324 Q161.987 734.088 159.209 735.638 L159.209 730.916 Q162.033 729.782 164.487 729.203 Q166.941 728.625 168.978 728.625 Q174.348 728.625 177.542 731.31 Q180.737 733.995 180.737 738.486 Q180.737 740.615 179.927 742.537 Q179.14 744.435 177.033 747.027 Q176.454 747.699 173.353 750.916 Q170.251 754.111 164.603 759.874 Z" fill="#000000" fill-rule="evenodd" fill-opacity="1" /><path clip-path="url(#clip640)" d="M64.0708 413.474 Q60.4597 413.474 58.631 417.039 Q56.8254 420.58 56.8254 427.71 Q56.8254 434.816 58.631 438.381 Q60.4597 441.923 64.0708 441.923 Q67.705 441.923 69.5105 438.381 Q71.3392 434.816 71.3392 427.71 Q71.3392 420.58 69.5105 417.039 Q67.705 413.474 64.0708 413.474 M64.0708 409.77 Q69.8809 409.77 72.9365 414.377 Q76.0151 418.96 76.0151 427.71 Q76.0151 436.437 72.9365 441.043 Q69.8809 445.627 64.0708 445.627 Q58.2606 445.627 55.1819 441.043 Q52.1264 436.437 52.1264 427.71 Q52.1264 418.96 55.1819 414.377 Q58.2606 409.77 64.0708 409.77 Z" fill="#000000" fill-rule="evenodd" fill-opacity="1" /><path clip-path="url(#clip640)" d="M84.2327 439.076 L89.1169 439.076 L89.1169 444.955 L84.2327 444.955 L84.2327 439.076 Z" fill="#000000" fill-rule="evenodd" fill-opacity="1" /><path clip-path="url(#clip640)" d="M109.302 413.474 Q105.691 413.474 103.862 417.039 Q102.057 420.58 102.057 427.71 Q102.057 434.816 103.862 438.381 Q105.691 441.923 109.302 441.923 Q112.936 441.923 114.742 438.381 Q116.57 434.816 116.57 427.71 Q116.57 420.58 114.742 417.039 Q112.936 413.474 109.302 413.474 M109.302 409.77 Q115.112 409.77 118.168 414.377 Q121.246 418.96 121.246 427.71 Q121.246 436.437 118.168 441.043 Q115.112 445.627 109.302 445.627 Q103.492 445.627 100.413 441.043 Q97.3576 436.437 97.3576 427.71 Q97.3576 418.96 100.413 414.377 Q103.492 409.77 109.302 409.77 Z" fill="#000000" fill-rule="evenodd" fill-opacity="1" /><path clip-path="url(#clip640)" d="M139.464 413.474 Q135.853 413.474 134.024 417.039 Q132.219 420.58 132.219 427.71 Q132.219 434.816 134.024 438.381 Q135.853 441.923 139.464 441.923 Q143.098 441.923 144.904 438.381 Q146.732 434.816 146.732 427.71 Q146.732 420.58 144.904 417.039 Q143.098 413.474 139.464 413.474 M139.464 409.77 Q145.274 409.77 148.33 414.377 Q151.408 418.96 151.408 427.71 Q151.408 436.437 148.33 441.043 Q145.274 445.627 139.464 445.627 Q133.654 445.627 130.575 441.043 Q127.519 436.437 127.519 427.71 Q127.519 418.96 130.575 414.377 Q133.654 409.77 139.464 409.77 Z" fill="#000000" fill-rule="evenodd" fill-opacity="1" /><path clip-path="url(#clip640)" d="M173.792 426.321 Q177.149 427.039 179.024 429.307 Q180.922 431.576 180.922 434.909 Q180.922 440.025 177.403 442.826 Q173.885 445.627 167.404 445.627 Q165.228 445.627 162.913 445.187 Q160.621 444.77 158.167 443.914 L158.167 439.4 Q160.112 440.534 162.427 441.113 Q164.742 441.691 167.265 441.691 Q171.663 441.691 173.954 439.955 Q176.269 438.219 176.269 434.909 Q176.269 431.853 174.116 430.14 Q171.987 428.404 168.167 428.404 L164.14 428.404 L164.14 424.562 L168.353 424.562 Q171.802 424.562 173.63 423.196 Q175.459 421.807 175.459 419.215 Q175.459 416.553 173.561 415.141 Q171.686 413.705 168.167 413.705 Q166.246 413.705 164.047 414.122 Q161.848 414.539 159.209 415.418 L159.209 411.252 Q161.871 410.511 164.186 410.141 Q166.524 409.77 168.584 409.77 Q173.908 409.77 177.01 412.201 Q180.112 414.608 180.112 418.729 Q180.112 421.599 178.468 423.59 Q176.825 425.557 173.792 426.321 Z" fill="#000000" fill-rule="evenodd" fill-opacity="1" /><path clip-path="url(#clip640)" d="M62.9365 94.6196 Q59.3254 94.6196 57.4967 98.1843 Q55.6912 101.726 55.6912 108.856 Q55.6912 115.962 57.4967 119.527 Q59.3254 123.068 62.9365 123.068 Q66.5707 123.068 68.3763 119.527 Q70.205 115.962 70.205 108.856 Q70.205 101.726 68.3763 98.1843 Q66.5707 94.6196 62.9365 94.6196 M62.9365 90.9159 Q68.7467 90.9159 71.8022 95.5223 Q74.8809 100.106 74.8809 108.856 Q74.8809 117.582 71.8022 122.189 Q68.7467 126.772 62.9365 126.772 Q57.1264 126.772 54.0477 122.189 Q50.9921 117.582 50.9921 108.856 Q50.9921 100.106 54.0477 95.5223 Q57.1264 90.9159 62.9365 90.9159 Z" fill="#000000" fill-rule="evenodd" fill-opacity="1" /><path clip-path="url(#clip640)" d="M83.0984 120.221 L87.9827 120.221 L87.9827 126.101 L83.0984 126.101 L83.0984 120.221 Z" fill="#000000" fill-rule="evenodd" fill-opacity="1" /><path clip-path="url(#clip640)" d="M108.168 94.6196 Q104.557 94.6196 102.728 98.1843 Q100.922 101.726 100.922 108.856 Q100.922 115.962 102.728 119.527 Q104.557 123.068 108.168 123.068 Q111.802 123.068 113.608 119.527 Q115.436 115.962 115.436 108.856 Q115.436 101.726 113.608 98.1843 Q111.802 94.6196 108.168 94.6196 M108.168 90.9159 Q113.978 90.9159 117.033 95.5223 Q120.112 100.106 120.112 108.856 Q120.112 117.582 117.033 122.189 Q113.978 126.772 108.168 126.772 Q102.358 126.772 99.2789 122.189 Q96.2234 117.582 96.2234 108.856 Q96.2234 100.106 99.2789 95.5223 Q102.358 90.9159 108.168 90.9159 Z" fill="#000000" fill-rule="evenodd" fill-opacity="1" /><path clip-path="url(#clip640)" d="M138.33 94.6196 Q134.719 94.6196 132.89 98.1843 Q131.084 101.726 131.084 108.856 Q131.084 115.962 132.89 119.527 Q134.719 123.068 138.33 123.068 Q141.964 123.068 143.769 119.527 Q145.598 115.962 145.598 108.856 Q145.598 101.726 143.769 98.1843 Q141.964 94.6196 138.33 94.6196 M138.33 90.9159 Q144.14 90.9159 147.195 95.5223 Q150.274 100.106 150.274 108.856 Q150.274 117.582 147.195 122.189 Q144.14 126.772 138.33 126.772 Q132.519 126.772 129.441 122.189 Q126.385 117.582 126.385 108.856 Q126.385 100.106 129.441 95.5223 Q132.519 90.9159 138.33 90.9159 Z" fill="#000000" fill-rule="evenodd" fill-opacity="1" /><path clip-path="url(#clip640)" d="M171.339 95.6149 L159.533 114.064 L171.339 114.064 L171.339 95.6149 M170.112 91.5409 L175.991 91.5409 L175.991 114.064 L180.922 114.064 L180.922 117.953 L175.991 117.953 L175.991 126.101 L171.339 126.101 L171.339 117.953 L155.737 117.953 L155.737 113.439 L170.112 91.5409 Z" fill="#000000" fill-rule="evenodd" fill-opacity="1" /><polyline clip-path="url(#clip642)" style="stroke:#009af9; stroke-linecap:butt; stroke-linejoin:round; stroke-width:8; stroke-opacity:1; fill:none" points="
  216.922,1384.24 218.765,1384.24 220.608,1384.24 222.45,1384.24 224.293,1384.24 226.136,1384.24 227.979,1384.24 229.822,1384.24 231.665,1384.24 233.507,1384.24 
  235.35,1384.24 237.193,1384.24 239.036,1384.24 240.879,1384.24 242.722,1384.24 244.564,1384.24 246.407,1384.24 248.25,1384.24 250.093,1384.24 251.936,1384.24 
  253.778,1384.24 255.621,1384.24 257.464,1384.24 259.307,1384.24 261.15,1384.24 262.993,1384.24 264.835,1384.24 266.678,1384.24 268.521,1384.24 270.364,1384.24 
  272.207,1384.24 274.05,1384.24 275.892,1384.24 277.735,1384.24 279.578,1384.24 281.421,1384.24 283.264,1384.24 285.107,1384.24 286.949,1384.24 288.792,1384.24 
  290.635,1384.24 292.478,1384.24 294.321,1384.24 296.163,1384.24 298.006,1384.24 299.849,1384.24 301.692,1384.24 303.535,1384.24 305.378,1384.24 307.22,1384.24 
  309.063,1384.24 310.906,1384.24 312.749,1384.24 314.592,1384.24 316.435,1384.24 318.277,1384.24 320.12,1384.24 321.963,1384.24 323.806,1384.24 325.649,1384.24 
  327.491,1384.24 329.334,1384.24 331.177,1384.24 333.02,1384.24 334.863,1384.24 336.706,1384.24 338.548,1384.24 340.391,1384.24 342.234,1384.24 344.077,1384.24 
  345.92,1384.24 347.763,1384.24 349.605,1384.24 351.448,1384.24 353.291,1384.24 355.134,1384.24 356.977,1384.24 358.819,1384.24 360.662,1384.24 362.505,1384.24 
  364.348,1384.24 366.191,1384.24 368.034,1384.24 369.876,1384.24 371.719,1384.24 373.562,1384.24 375.405,1384.24 377.248,1384.24 379.091,1384.24 380.933,1384.24 
  382.776,1384.24 384.619,1384.24 386.462,1384.24 388.305,1384.24 390.148,1384.24 391.99,1384.24 393.833,1384.24 395.676,1384.24 397.519,1384.24 399.362,1384.24 
  401.204,1384.24 403.047,1384.24 404.89,1384.24 406.733,1384.24 408.576,1384.24 410.419,1384.24 412.261,1384.24 414.104,1384.24 415.947,1384.24 417.79,1384.24 
  419.633,1384.24 421.476,1384.24 423.318,1384.24 425.161,1384.24 427.004,1384.24 428.847,1384.24 430.69,1384.24 432.532,1384.24 434.375,1384.24 436.218,1384.24 
  438.061,1384.24 439.904,1384.24 441.747,1384.24 443.589,1384.24 445.432,1384.24 447.275,1384.24 449.118,1384.24 450.961,1384.24 452.804,1384.24 454.646,1384.24 
  456.489,1384.24 458.332,1384.24 460.175,1384.24 462.018,1384.24 463.861,1384.24 465.703,1384.24 467.546,1384.24 469.389,1384.24 471.232,1384.24 473.075,1384.24 
  474.917,1384.24 476.76,1384.24 478.603,1384.24 480.446,1384.24 482.289,1384.24 484.132,1384.24 485.974,1384.24 487.817,1384.24 489.66,1384.24 491.503,1384.24 
  493.346,1384.24 495.189,1384.24 497.031,1384.24 498.874,1384.24 500.717,1384.24 502.56,1384.24 504.403,1384.24 506.245,1384.24 508.088,1384.24 509.931,1384.24 
  511.774,1384.24 513.617,1384.24 515.46,1384.24 517.302,1384.24 519.145,1384.24 520.988,1384.24 522.831,593.949 524.674,609.702 526.517,625.146 528.359,640.28 
  530.202,655.108 532.045,669.64 533.888,683.886 535.731,697.848 537.573,711.523 539.416,724.933 541.259,738.084 543.102,750.976 544.945,763.61 546.788,775.985 
  548.63,788.099 550.473,799.984 552.316,811.641 554.159,823.071 556.002,834.273 557.845,845.248 559.687,855.993 561.53,866.508 563.373,876.828 565.216,886.954 
  567.059,896.886 568.902,906.623 570.744,916.167 572.587,925.516 574.43,934.67 576.273,943.621 578.116,952.393 579.958,961.003 581.801,969.453 583.644,977.742 
  585.487,985.869 587.33,993.836 589.173,1001.64 591.015,1009.29 592.858,1016.77 594.701,1024.08 596.544,1031.24 598.387,1038.28 600.23,1045.18 602.072,1051.96 
  603.915,1058.61 605.758,1065.13 607.601,1071.53 609.444,1077.8 611.286,1083.93 613.129,1089.95 614.972,1095.83 616.815,1101.59 618.658,1107.2 620.501,1112.7 
  622.343,1118.11 624.186,1123.43 626.029,1128.64 627.872,1133.76 629.715,1138.78 631.558,1143.71 633.4,1148.54 635.243,1153.27 637.086,1157.91 638.929,1162.45 
  640.772,1166.89 642.615,1171.24 644.457,1175.48 646.3,1179.62 648.143,1183.68 649.986,1187.68 651.829,1191.6 653.671,1195.46 655.514,1199.24 657.357,1202.96 
  659.2,1206.6 661.043,1210.17 662.886,1213.67 664.728,1217.11 666.571,1220.47 668.414,1223.76 670.257,1226.98 672.1,1230.13 673.943,1233.21 675.785,1236.21 
  677.628,1239.14 679.471,1242.02 681.314,1244.85 683.157,1247.64 684.999,1250.37 686.842,1253.06 688.685,1255.7 690.528,1258.28 692.371,1260.82 694.214,1263.31 
  696.056,1265.75 697.899,1268.14 699.742,1270.48 701.585,1272.77 703.428,1275.01 705.271,1277.21 707.113,1279.35 708.956,1281.44 710.799,1283.47 712.642,1285.47 
  714.485,1287.43 716.328,1289.36 718.17,1291.25 720.013,1293.12 721.856,1294.94 723.699,1296.74 725.542,1298.51 727.384,1300.24 729.227,1301.93 731.07,1303.6 
  732.913,1305.23 734.756,1306.83 736.599,1308.4 738.441,1309.93 740.284,1311.43 742.127,1312.9 743.97,1314.33 745.813,1315.74 747.656,1317.1 749.498,1318.43 
  751.341,1319.73 753.184,1321 755.027,1322.26 756.87,1323.5 758.712,1324.71 760.555,1325.91 762.398,1327.08 764.241,1328.23 766.084,1329.37 767.927,1330.48 
  769.769,1331.57 771.612,1332.64 773.455,1333.69 775.298,1334.71 777.141,1335.72 778.984,1336.71 780.826,1337.67 782.669,1338.62 784.512,1339.54 786.355,1340.44 
  788.198,1341.32 790.04,1342.19 791.883,1343.03 793.726,1343.84 795.569,1344.64 797.412,1345.43 799.255,1346.2 801.097,1346.96 802.94,1347.71 804.783,1348.44 
  806.626,1349.16 808.469,1349.87 810.312,1350.56 812.154,1351.24 813.997,1351.91 815.84,1352.56 817.683,1353.2 819.526,1353.83 821.369,1354.44 823.211,1355.04 
  825.054,1355.62 826.897,1356.19 828.74,295.516 830.583,317.22 832.425,338.489 834.268,359.333 836.111,379.759 837.954,399.784 839.797,419.411 841.64,438.638 
  843.482,457.487 845.325,475.97 847.168,494.086 849.011,511.835 850.854,529.207 852.697,546.249 854.539,562.968 856.382,579.364 858.225,595.436 860.068,611.185 
  861.911,626.611 863.753,641.704 865.596,656.494 867.439,671.007 869.282,685.243 871.125,699.203 872.968,712.887 874.81,726.295 876.653,739.426 878.496,752.27 
  880.339,764.848 882.182,777.196 884.025,789.313 885.867,801.199 887.71,812.856 889.553,824.282 891.396,835.478 893.239,846.443 895.082,857.178 896.924,867.667 
  898.767,877.944 900.61,888.035 902.453,897.941 904.296,907.661 906.138,917.196 907.981,926.545 909.824,935.709 911.667,944.688 913.51,953.481 915.353,962.089 
  917.195,970.511 919.038,978.719 920.881,986.785 922.724,994.707 924.567,1002.49 926.41,1010.12 928.252,1017.62 930.095,1024.97 931.938,1032.18 933.781,1039.24 
  935.624,1046.17 937.466,1052.95 939.309,1059.58 941.152,1066.08 942.995,1072.43 944.838,1078.62 946.681,1084.69 948.523,1090.66 950.366,1096.52 952.209,1102.28 
  954.052,1107.92 955.895,1113.46 957.738,1118.9 959.58,1124.23 961.423,1129.45 963.266,1134.56 965.109,1139.57 966.952,1144.47 968.794,1149.27 970.637,1153.95 
  972.48,1158.51 974.323,1163 976.166,1167.4 978.009,1171.73 979.851,1175.98 981.694,1180.15 983.537,1184.25 985.38,1188.27 987.223,1192.21 989.066,1196.08 
  990.908,1199.87 992.751,1203.58 994.594,1207.21 996.437,1210.77 998.28,1214.25 1000.12,1217.65 1001.97,1220.98 1003.81,1224.21 1005.65,1227.38 1007.49,1230.5 
  1009.34,1233.57 1011.18,1236.58 1013.02,1239.54 1014.87,1242.44 1016.71,1245.3 1018.55,1248.09 1020.39,1250.84 1022.24,1253.53 1024.08,1256.17 1025.92,1258.75 
  1027.76,1261.28 1029.61,1263.75 1031.45,1266.18 1033.29,1268.55 1035.14,1270.86 1036.98,1273.11 1038.82,1275.31 1040.66,1277.47 1042.51,1279.59 1044.35,1281.67 
  1046.19,1283.73 1048.04,1285.74 1049.88,1287.72 1051.72,1289.66 1053.56,1291.57 1055.41,1293.44 1057.25,1295.28 1059.09,1297.08 1060.94,1298.85 1062.78,1300.58 
  1064.62,1302.27 1066.46,1303.93 1068.31,1305.55 1070.15,1307.14 1071.99,1308.69 1073.84,1310.2 1075.68,1311.68 1077.52,1313.11 1079.36,1314.51 1081.21,1315.9 
  1083.05,1317.26 1084.89,1318.59 1086.74,1319.91 1088.58,1321.2 1090.42,1322.47 1092.26,1323.71 1094.11,1324.93 1095.95,1326.14 1097.79,1327.31 1099.64,1328.47 
  1101.48,1329.6 1103.32,1330.71 1105.16,1331.8 1107.01,1332.87 1108.85,1333.91 1110.69,1334.93 1112.53,1335.93 1114.38,1336.9 1116.22,1337.85 1118.06,1338.78 
  1119.91,1339.69 1121.75,1340.58 1123.59,1341.45 1125.43,1342.3 1127.28,1343.14 1129.12,1343.96 1130.96,1344.76 1132.81,164.122 1134.65,188.443 1136.49,212.28 
  1138.33,235.638 1140.18,258.532 1142.02,280.972 1143.86,302.956 1145.71,324.514 1147.55,345.649 1149.39,366.362 1151.23,386.649 1153.08,406.533 1154.92,426.029 
  1156.76,445.14 1158.61,463.863 1160.45,482.183 1162.29,500.161 1164.13,517.8 1165.98,535.102 1167.82,552.067 1169.66,568.693 1171.51,584.981 1173.35,600.932 
  1175.19,616.537 1177.03,631.833 1178.88,646.84 1180.72,661.558 1182.56,675.987 1184.4,690.128 1186.25,703.981 1188.09,717.537 1189.93,730.795 1191.78,743.813 
  1193.62,756.592 1195.46,769.133 1197.3,781.434 1199.15,793.496 1200.99,805.32 1202.83,816.904 1204.68,828.249 1206.52,839.355 1208.36,850.217 1210.2,860.835 
  1212.05,871.262 1213.89,881.498 1215.73,891.543 1217.58,901.397 1219.42,911.059 1221.26,920.53 1223.1,929.81 1224.95,938.898 1226.79,947.795 1228.63,956.499 
  1230.48,964.983 1232.32,973.32 1234.16,981.511 1236,989.554 1237.85,997.451 1239.69,1005.2 1241.53,1012.8 1243.38,1020.26 1245.22,1027.57 1247.06,1034.73 
  1248.9,1041.74 1250.75,1048.61 1252.59,1055.33 1254.43,1061.91 1256.28,1068.32 1258.12,1074.6 1259.96,1080.76 1261.8,1086.81 1263.65,1092.76 1265.49,1098.59 
  1267.33,1104.32 1269.17,1109.93 1271.02,1115.43 1272.86,1120.83 1274.7,1126.11 1276.55,1131.29 1278.39,1136.35 1280.23,1141.3 1282.07,1146.13 1283.92,1150.85 
  1285.76,1155.49 1287.6,1160.05 1289.45,1164.52 1291.29,1168.92 1293.13,1173.24 1294.97,1177.48 1296.82,1181.64 1298.66,1185.71 1300.5,1189.71 1302.35,1193.63 
  1304.19,1197.47 1306.03,1201.23 1307.87,1204.9 1309.72,1208.5 1311.56,1212.02 1313.4,1215.46 1315.25,1218.8 1317.09,1222.08 1318.93,1225.31 1320.77,1228.48 
  1322.62,1231.59 1324.46,1234.65 1326.3,1237.65 1328.15,1240.6 1329.99,1243.49 1331.83,1246.33 1333.67,1249.11 1335.52,1251.83 1337.36,1254.5 1339.2,1257.11 
  1341.05,1259.67 1342.89,1262.17 1344.73,1264.62 1346.57,1267.01 1348.42,1269.33 1350.26,1271.6 1352.1,1273.83 1353.94,1276.03 1355.79,1278.19 1357.63,1280.31 
  1359.47,1282.4 1361.32,1284.45 1363.16,1286.46 1365,1288.43 1366.84,1290.37 1368.69,1292.27 1370.53,1294.13 1372.37,1295.96 1374.22,1297.75 1376.06,1299.5 
  1377.9,1301.21 1379.74,1302.89 1381.59,1304.53 1383.43,1306.13 1385.27,1307.69 1387.12,1309.22 1388.96,1310.69 1390.8,1312.15 1392.64,1313.58 1394.49,1314.99 
  1396.33,1316.37 1398.17,1317.73 1400.02,1319.07 1401.86,1320.38 1403.7,1321.67 1405.54,1322.93 1407.39,1324.17 1409.23,1325.39 1411.07,1326.59 1412.92,1327.76 
  1414.76,1328.9 1416.6,1330.03 1418.44,1331.13 1420.29,1332.2 1422.13,1333.26 1423.97,1334.28 1425.82,1335.29 1427.66,1336.27 1429.5,1337.23 1431.34,1338.17 
  1433.19,1339.09 1435.03,1339.99 1436.87,1340.87 1438.71,123.761 1440.56,148.888 1442.4,173.511 1444.24,197.642 1446.09,221.295 1447.93,244.471 1449.77,267.194 
  1451.61,289.468 1453.46,311.291 1455.3,332.675 1457.14,353.642 1458.99,374.192 1460.83,394.314 1462.67,414.036 1464.51,433.386 1466.36,452.364 1468.2,470.969 
  1470.04,489.202 1471.89,507.063 1473.73,524.546 1475.57,541.669 1477.41,558.47 1479.26,574.95 1481.1,591.108 1482.94,606.945 1484.79,622.46 1486.63,637.653 
  1488.47,652.507 1490.31,667.087 1492.16,681.395 1494,695.432 1495.84,709.198 1497.69,722.693 1499.53,735.917 1501.37,748.87 1503.21,761.551 1505.06,773.947 
  1506.9,786.094 1508.74,798.019 1510.58,809.723 1512.43,821.205 1514.27,832.465 1516.11,843.504 1517.96,854.321 1519.8,864.917 1521.64,875.291 1523.48,885.442 
  1525.33,895.342 1527.17,905.069 1529.01,914.623 1530.86,924.003 1532.7,933.21 1534.54,942.244 1536.38,951.105 1538.23,959.792 1540.07,968.306 1541.91,976.647 
  1543.76,984.815 1545.6,992.809 1547.44,1000.63 1549.28,1008.26 1551.13,1015.73 1552.97,1023.07 1554.81,1030.28 1556.66,1037.35 1558.5,1044.3 1560.34,1051.11 
  1562.18,1057.79 1564.03,1064.33 1565.87,1070.75 1567.71,1077.03 1569.56,1083.18 1571.4,1089.2 1573.24,1095.09 1575.08,1100.82 1576.93,1106.45 1578.77,1111.98 
  1580.61,1117.42 1582.46,1122.76 1584.3,1127.99 1586.14,1133.14 1587.98,1138.18 1589.83,1143.13 1591.67,1147.98 1593.51,1152.73 1595.35,1157.38 1597.2,1161.93 
  1599.04,1166.39 1600.88,1170.75 1602.73,1175.01 1604.57,1179.16 1606.41,1183.23 1608.25,1187.23 1610.1,1191.16 1611.94,1195.02 1613.78,1198.81 1615.63,1202.54 
  1617.47,1206.19 1619.31,1209.77 1621.15,1213.28 1623,1216.72 1624.84,1220.1 1626.68,1223.4 1628.53,1226.63 1630.37,1229.79 1632.21,1232.89 1634.05,1235.91 
  1635.9,1238.84 1637.74,1241.72 1639.58,1244.55 1641.43,1247.34 1643.27,1250.07 1645.11,1252.76 1646.95,1255.4 1648.8,1257.99 1650.64,1260.53 1652.48,1263.03 
  1654.33,1265.47 1656.17,1267.87 1658.01,1270.23 1659.85,1272.53 1661.7,1274.79 1663.54,1277 1665.38,1279.16 1667.23,1281.27 1669.07,1283.33 1670.91,1285.35 
  1672.75,1287.3 1674.6,1289.22 1676.44,1291.1 1678.28,1292.96 1680.12,1294.78 1681.97,1296.57 1683.81,1298.33 1685.65,1300.06 1687.5,1301.76 1689.34,1303.42 
  1691.18,1305.06 1693.02,1306.66 1694.87,1308.23 1696.71,1309.77 1698.55,1311.28 1700.4,1312.76 1702.24,1314.2 1704.08,1315.62 1705.92,1317 1707.77,1318.35 
  1709.61,1319.67 1711.45,1320.96 1713.3,1322.21 1715.14,1323.45 1716.98,1324.66 1718.82,1325.85 1720.67,1327.01 1722.51,1328.16 1724.35,1329.29 1726.2,1330.39 
  1728.04,1331.47 1729.88,1332.54 1731.72,1333.58 1733.57,1334.6 1735.41,1335.59 1737.25,1336.57 1739.1,1337.53 1740.94,1338.46 1742.78,86.1857 1744.62,112.059 
  1746.47,137.418 1748.31,162.269 1750.15,186.623 1752,210.498 1753.84,233.896 1755.68,256.82 1757.52,279.298 1759.37,301.332 1761.21,322.923 1763.05,344.065 
  1764.89,364.802 1766.74,385.14 1768.58,405.077 1770.42,424.613 1772.27,443.75 1774.11,462.473 1775.95,480.845 1777.79,498.87 1779.64,516.548 1781.48,533.879 
  1783.32,550.863 1785.17,567.5 1787.01,583.79 1788.85,599.721 1790.69,615.356 1792.54,630.698 1794.38,645.746 1796.22,660.501 1798.07,674.962 1799.91,689.129 
  1801.75,703.003 1803.59,716.569 1805.44,729.854 1807.28,742.897 1809.12,755.699 1810.97,768.26 1812.81,780.579 1814.65,792.656 1816.49,804.492 1818.34,816.087 
  1820.18,827.44 1822.02,838.552 1823.87,849.396 1825.71,860.036 1827.55,870.486 1829.39,880.745 1831.24,890.813 1833.08,900.691 1834.92,910.378 1836.76,919.875 
  1838.61,929.181 1840.45,938.296 1842.29,947.221 1844.14,955.955 1845.98,964.493 1847.82,972.825 1849.66,981.012 1851.51,989.052 1853.35,996.947 1855.19,1004.7 
  1857.04,1012.3 1858.88,1019.76 1860.72,1027.07 1862.56,1034.23 1864.41,1041.25 1866.25,1048.13 1868.09,1054.86 1869.94,1061.44 1871.78,1067.86 1873.62,1074.14 
  1875.46,1080.31 1877.31,1086.37 1879.15,1092.32 1880.99,1098.17 1882.84,1103.9 1884.68,1109.53 1886.52,1115.04 1888.36,1120.45 1890.21,1125.75 1892.05,1130.94 
  1893.89,1136.02 1895.74,1140.99 1897.58,1145.85 1899.42,1150.6 1901.26,1155.23 1903.11,1159.78 1904.95,1164.25 1906.79,1168.64 1908.64,1172.96 1910.48,1177.19 
  1912.32,1181.35 1914.16,1185.43 1916.01,1189.43 1917.85,1193.35 1919.69,1197.19 1921.53,1200.96 1923.38,1204.64 1925.22,1208.25 1927.06,1211.78 1928.91,1215.23 
  1930.75,1218.59 1932.59,1221.86 1934.43,1225.09 1936.28,1228.26 1938.12,1231.37 1939.96,1234.43 1941.81,1237.43 1943.65,1240.38 1945.49,1243.28 1947.33,1246.12 
  1949.18,1248.9 1951.02,1251.63 1952.86,1254.31 1954.71,1256.93 1956.55,1259.5 1958.39,1262.01 1960.23,1264.47 1962.08,1266.87 1963.92,1269.22 1965.76,1271.51 
  1967.61,1273.73 1969.45,1275.92 1971.29,1278.08 1973.13,1280.19 1974.98,1282.27 1976.82,1284.32 1978.66,1286.33 1980.51,1288.3 1982.35,1290.23 1984.19,1292.13 
  1986.03,1294 1987.88,1295.82 1989.72,1297.61 1991.56,1299.37 1993.41,1301.08 1995.25,1302.77 1997.09,1304.41 1998.93,1306.02 2000.78,1307.59 2002.62,1309.13 
  2004.46,1310.63 2006.3,1312.08 2008.15,1313.5 2009.99,1314.9 2011.83,1316.28 2013.68,1317.64 2015.52,1318.97 2017.36,1320.28 2019.2,1321.57 2021.05,1322.83 
  2022.89,1324.08 2024.73,1325.29 2026.58,1326.49 2028.42,1327.66 2030.26,1328.81 2032.1,1329.94 2033.95,1331.04 2035.79,1332.12 2037.63,1333.18 2039.48,1334.22 
  2041.32,1335.23 2043.16,1336.22 2045,1337.19 2046.85,1338.13 2048.69,1339.05 2050.53,1339.93 2052.38,1340.81 2054.22,1341.67 2056.06,1342.51 2057.9,1343.34 
  2059.75,1344.16 2061.59,1344.96 2063.43,1345.76 2065.28,1346.53 2067.12,1347.3 2068.96,1348.05 2070.8,1348.78 2072.65,1349.5 2074.49,1350.21 2076.33,1350.91 
  2078.18,1351.59 2080.02,1352.26 2081.86,1352.91 2083.7,1353.55 2085.55,1354.18 2087.39,1354.79 2089.23,1355.39 2091.07,1355.98 2092.92,1356.55 2094.76,1357.11 
  2096.6,1357.65 2098.45,1358.18 2100.29,1358.69 2102.13,1359.19 2103.97,1359.69 2105.82,1360.17 2107.66,1360.65 2109.5,1361.12 2111.35,1361.58 2113.19,1362.04 
  2115.03,1362.49 2116.87,1362.93 2118.72,1363.36 2120.56,1363.78 2122.4,1364.2 2124.25,1364.61 2126.09,1365.01 2127.93,1365.41 2129.77,1365.8 2131.62,1366.18 
  2133.46,1366.55 2135.3,1366.92 2137.15,1367.27 2138.99,1367.62 2140.83,1367.97 2142.67,1368.3 2144.52,1368.63 2146.36,1368.95 2148.2,1369.26 2150.05,1369.57 
  2151.89,1369.86 2153.73,1370.15 2155.57,1370.43 2157.42,1370.7 2159.26,1370.97 2161.1,1371.23 2162.94,1371.48 2164.79,1371.73 2166.63,1371.98 2168.47,1372.22 
  2170.32,1372.47 2172.16,1372.7 2174,1372.93 2175.84,1373.16 2177.69,1373.39 2179.53,1373.61 2181.37,1373.83 2183.22,1374.04 2185.06,1374.25 2186.9,1374.46 
  2188.74,1374.66 2190.59,1374.86 2192.43,1375.06 2194.27,1375.25 2196.12,1375.44 2197.96,1375.62 2199.8,1375.8 2201.64,1375.98 2203.49,1376.15 2205.33,1376.32 
  2207.17,1376.49 2209.02,1376.65 2210.86,1376.81 2212.7,1376.96 2214.54,1377.11 2216.39,1377.26 2218.23,1377.4 2220.07,1377.54 2221.92,1377.68 2223.76,1377.81 
  2225.6,1377.93 2227.44,1378.06 2229.29,1378.17 2231.13,1378.29 2232.97,1378.41 2234.82,1378.52 2236.66,1378.63 2238.5,1378.75 2240.34,1378.86 2242.19,1378.96 
  2244.03,1379.07 2245.87,1379.17 2247.71,1379.28 2249.56,1379.38 2251.4,1379.48 2253.24,1379.58 2255.09,1379.67 2256.93,1379.77 2258.77,1379.86 2260.61,1379.95 
  2262.46,1380.05 2264.3,1380.13 2266.14,1380.22 2267.99,1380.31 2269.83,1380.39 2271.67,1380.47 2273.51,1380.55 2275.36,1380.63 2277.2,1380.71 2279.04,1380.79 
  2280.89,1380.86 2282.73,1380.93 2284.57,1381 2286.41,1381.07 2288.26,1381.14 2290.1,1381.21 2291.94,1381.27 2293.79,1381.34 2295.63,1381.4 2297.47,1381.46 
  2299.31,1381.52 2301.16,1381.57 2303,1381.63 2304.84,1381.68 2306.69,1381.73 2308.53,1381.78 2310.37,1381.83 2312.21,1381.88 2314.06,1381.93 2315.9,1381.97 
  2317.74,1382.02 2319.59,1382.06 2321.43,1382.1 2323.27,1382.15 2325.11,1382.19 2326.96,1382.23 2328.8,1382.27 2330.64,1382.31 2332.48,1382.35 2334.33,1382.39 
  2336.17,1382.43 2338.01,1382.46 2339.86,1382.5 2341.7,1382.54 2343.54,1382.57 2345.38,1382.6 2347.23,1382.64 2349.07,1382.67 2350.91,1382.7 2352.76,1382.73 
  
  "/>
<path clip-path="url(#clip640)" d="
M1914.29 196.789 L2281.56 196.789 L2281.56 93.1086 L1914.29 93.1086  Z
  " fill="#ffffff" fill-rule="evenodd" fill-opacity="1"/>
<polyline clip-path="url(#clip640)" style="stroke:#000000; stroke-linecap:butt; stroke-linejoin:round; stroke-width:4; stroke-opacity:1; fill:none" points="
  1914.29,196.789 2281.56,196.789 2281.56,93.1086 1914.29,93.1086 1914.29,196.789 
  "/>
<polyline clip-path="url(#clip640)" style="stroke:#009af9; stroke-linecap:butt; stroke-linejoin:round; stroke-width:4; stroke-opacity:1; fill:none" points="
  1938.03,144.949 2080.41,144.949 
  "/>
<path clip-path="url(#clip640)" d="M2123.06 148.965 Q2123.06 144.335 2121.14 141.789 Q2119.24 139.243 2115.79 139.243 Q2112.36 139.243 2110.44 141.789 Q2108.54 144.335 2108.54 148.965 Q2108.54 153.571 2110.44 156.118 Q2112.36 158.664 2115.79 158.664 Q2119.24 158.664 2121.14 156.118 Q2123.06 153.571 2123.06 148.965 M2127.32 159.011 Q2127.32 165.631 2124.38 168.849 Q2121.44 172.09 2115.37 172.09 Q2113.13 172.09 2111.14 171.742 Q2109.15 171.418 2107.27 170.724 L2107.27 166.58 Q2109.15 167.599 2110.97 168.085 Q2112.8 168.571 2114.7 168.571 Q2118.89 168.571 2120.97 166.372 Q2123.06 164.196 2123.06 159.775 L2123.06 157.668 Q2121.74 159.96 2119.68 161.094 Q2117.62 162.229 2114.75 162.229 Q2109.98 162.229 2107.06 158.594 Q2104.15 154.96 2104.15 148.965 Q2104.15 142.946 2107.06 139.312 Q2109.98 135.678 2114.75 135.678 Q2117.62 135.678 2119.68 136.812 Q2121.74 137.946 2123.06 140.238 L2123.06 136.303 L2127.32 136.303 L2127.32 159.011 Z" fill="#000000" fill-rule="evenodd" fill-opacity="1" /><path clip-path="url(#clip640)" d="M2155.79 170.099 L2155.79 173.409 L2131.16 173.409 L2131.16 170.099 L2155.79 170.099 Z" fill="#000000" fill-rule="evenodd" fill-opacity="1" /><path clip-path="url(#clip640)" d="M2176.32 137.067 L2176.32 141.094 Q2174.52 140.169 2172.57 139.706 Q2170.63 139.243 2168.54 139.243 Q2165.37 139.243 2163.77 140.215 Q2162.2 141.187 2162.2 143.131 Q2162.2 144.613 2163.33 145.469 Q2164.47 146.303 2167.9 147.067 L2169.35 147.391 Q2173.89 148.363 2175.79 150.145 Q2177.71 151.905 2177.71 155.076 Q2177.71 158.687 2174.84 160.793 Q2171.99 162.9 2166.99 162.9 Q2164.91 162.9 2162.64 162.483 Q2160.4 162.09 2157.9 161.28 L2157.9 156.881 Q2160.26 158.108 2162.55 158.733 Q2164.84 159.335 2167.08 159.335 Q2170.09 159.335 2171.71 158.317 Q2173.33 157.275 2173.33 155.4 Q2173.33 153.664 2172.15 152.738 Q2171 151.812 2167.04 150.956 L2165.56 150.608 Q2161.6 149.775 2159.84 148.062 Q2158.08 146.326 2158.08 143.317 Q2158.08 139.659 2160.67 137.669 Q2163.27 135.678 2168.03 135.678 Q2170.4 135.678 2172.48 136.025 Q2174.56 136.372 2176.32 137.067 Z" fill="#000000" fill-rule="evenodd" fill-opacity="1" /><path clip-path="url(#clip640)" d="M2195.28 164.636 Q2193.47 169.266 2191.76 170.678 Q2190.05 172.09 2187.18 172.09 L2183.77 172.09 L2183.77 168.525 L2186.27 168.525 Q2188.03 168.525 2189.01 167.692 Q2189.98 166.858 2191.16 163.756 L2191.92 161.812 L2181.44 136.303 L2185.95 136.303 L2194.05 156.581 L2202.15 136.303 L2206.67 136.303 L2195.28 164.636 Z" fill="#000000" fill-rule="evenodd" fill-opacity="1" /><path clip-path="url(#clip640)" d="M2234.1 146.581 L2234.1 162.229 L2229.84 162.229 L2229.84 146.719 Q2229.84 143.039 2228.4 141.21 Q2226.97 139.382 2224.1 139.382 Q2220.65 139.382 2218.66 141.581 Q2216.67 143.78 2216.67 147.576 L2216.67 162.229 L2212.39 162.229 L2212.39 136.303 L2216.67 136.303 L2216.67 140.331 Q2218.2 137.993 2220.26 136.835 Q2222.34 135.678 2225.05 135.678 Q2229.52 135.678 2231.81 138.456 Q2234.1 141.21 2234.1 146.581 Z" fill="#000000" fill-rule="evenodd" fill-opacity="1" /></svg>
