<?xml version="1.0" encoding="utf-8"?>
<svg xmlns="http://www.w3.org/2000/svg" xmlns:xlink="http://www.w3.org/1999/xlink" width="600" height="400" viewBox="0 0 2400 1600">
<defs>
  <clipPath id="clip720">
    <rect x="0" y="0" width="2400" height="1600"/>
  </clipPath>
</defs>
<path clip-path="url(#clip720)" d="
M0 1600 L2400 1600 L2400 0 L0 0  Z
  " fill="#ffffff" fill-rule="evenodd" fill-opacity="1"/>
<defs>
  <clipPath id="clip721">
    <rect x="480" y="0" width="1681" height="1600"/>
  </clipPath>
</defs>
<path clip-path="url(#clip720)" d="
M246.598 1423.18 L2352.76 1423.18 L2352.76 47.2441 L246.598 47.2441  Z
  " fill="#ffffff" fill-rule="evenodd" fill-opacity="1"/>
<defs>
  <clipPath id="clip722">
    <rect x="246" y="47" width="2107" height="1377"/>
  </clipPath>
</defs>
<polyline clip-path="url(#clip722)" style="stroke:#000000; stroke-linecap:butt; stroke-linejoin:round; stroke-width:2; stroke-opacity:0.1; fill:none" points="
  246.598,1423.18 246.598,47.2441 
  "/>
<polyline clip-path="url(#clip722)" style="stroke:#000000; stroke-linecap:butt; stroke-linejoin:round; stroke-width:2; stroke-opacity:0.1; fill:none" points="
  547.477,1423.18 547.477,47.2441 
  "/>
<polyline clip-path="url(#clip722)" style="stroke:#000000; stroke-linecap:butt; stroke-linejoin:round; stroke-width:2; stroke-opacity:0.1; fill:none" points="
  848.357,1423.18 848.357,47.2441 
  "/>
<polyline clip-path="url(#clip722)" style="stroke:#000000; stroke-linecap:butt; stroke-linejoin:round; stroke-width:2; stroke-opacity:0.1; fill:none" points="
  1149.24,1423.18 1149.24,47.2441 
  "/>
<polyline clip-path="url(#clip722)" style="stroke:#000000; stroke-linecap:butt; stroke-linejoin:round; stroke-width:2; stroke-opacity:0.1; fill:none" points="
  1450.12,1423.18 1450.12,47.2441 
  "/>
<polyline clip-path="url(#clip722)" style="stroke:#000000; stroke-linecap:butt; stroke-linejoin:round; stroke-width:2; stroke-opacity:0.1; fill:none" points="
  1751,1423.18 1751,47.2441 
  "/>
<polyline clip-path="url(#clip722)" style="stroke:#000000; stroke-linecap:butt; stroke-linejoin:round; stroke-width:2; stroke-opacity:0.1; fill:none" points="
  2051.88,1423.18 2051.88,47.2441 
  "/>
<polyline clip-path="url(#clip722)" style="stroke:#000000; stroke-linecap:butt; stroke-linejoin:round; stroke-width:2; stroke-opacity:0.1; fill:none" points="
  2352.76,1423.18 2352.76,47.2441 
  "/>
<polyline clip-path="url(#clip720)" style="stroke:#000000; stroke-linecap:butt; stroke-linejoin:round; stroke-width:4; stroke-opacity:1; fill:none" points="
  246.598,1423.18 2352.76,1423.18 
  "/>
<polyline clip-path="url(#clip720)" style="stroke:#000000; stroke-linecap:butt; stroke-linejoin:round; stroke-width:4; stroke-opacity:1; fill:none" points="
  246.598,1423.18 246.598,1404.28 
  "/>
<polyline clip-path="url(#clip720)" style="stroke:#000000; stroke-linecap:butt; stroke-linejoin:round; stroke-width:4; stroke-opacity:1; fill:none" points="
  547.477,1423.18 547.477,1404.28 
  "/>
<polyline clip-path="url(#clip720)" style="stroke:#000000; stroke-linecap:butt; stroke-linejoin:round; stroke-width:4; stroke-opacity:1; fill:none" points="
  848.357,1423.18 848.357,1404.28 
  "/>
<polyline clip-path="url(#clip720)" style="stroke:#000000; stroke-linecap:butt; stroke-linejoin:round; stroke-width:4; stroke-opacity:1; fill:none" points="
  1149.24,1423.18 1149.24,1404.28 
  "/>
<polyline clip-path="url(#clip720)" style="stroke:#000000; stroke-linecap:butt; stroke-linejoin:round; stroke-width:4; stroke-opacity:1; fill:none" points="
  1450.12,1423.18 1450.12,1404.28 
  "/>
<polyline clip-path="url(#clip720)" style="stroke:#000000; stroke-linecap:butt; stroke-linejoin:round; stroke-width:4; stroke-opacity:1; fill:none" points="
  1751,1423.18 1751,1404.28 
  "/>
<polyline clip-path="url(#clip720)" style="stroke:#000000; stroke-linecap:butt; stroke-linejoin:round; stroke-width:4; stroke-opacity:1; fill:none" points="
  2051.88,1423.18 2051.88,1404.28 
  "/>
<polyline clip-path="url(#clip720)" style="stroke:#000000; stroke-linecap:butt; stroke-linejoin:round; stroke-width:4; stroke-opacity:1; fill:none" points="
  2352.76,1423.18 2352.76,1404.28 
  "/>
<path clip-path="url(#clip720)" d="M246.598 1454.1 Q242.987 1454.1 241.158 1457.66 Q239.352 1461.2 239.352 1468.33 Q239.352 1475.44 241.158 1479.01 Q242.987 1482.55 246.598 1482.55 Q250.232 1482.55 252.038 1479.01 Q253.866 1475.44 253.866 1468.33 Q253.866 1461.2 252.038 1457.66 Q250.232 1454.1 246.598 1454.1 M246.598 1450.39 Q252.408 1450.39 255.463 1455 Q258.542 1459.58 258.542 1468.33 Q258.542 1477.06 255.463 1481.67 Q252.408 1486.25 246.598 1486.25 Q240.788 1486.25 237.709 1481.67 Q234.653 1477.06 234.653 1468.33 Q234.653 1459.58 237.709 1455 Q240.788 1450.39 246.598 1450.39 Z" fill="#000000" fill-rule="evenodd" fill-opacity="1" /><path clip-path="url(#clip720)" d="M507.084 1481.64 L514.723 1481.64 L514.723 1455.28 L506.413 1456.95 L506.413 1452.69 L514.677 1451.02 L519.353 1451.02 L519.353 1481.64 L526.991 1481.64 L526.991 1485.58 L507.084 1485.58 L507.084 1481.64 Z" fill="#000000" fill-rule="evenodd" fill-opacity="1" /><path clip-path="url(#clip720)" d="M546.436 1454.1 Q542.825 1454.1 540.996 1457.66 Q539.19 1461.2 539.19 1468.33 Q539.19 1475.44 540.996 1479.01 Q542.825 1482.55 546.436 1482.55 Q550.07 1482.55 551.876 1479.01 Q553.704 1475.44 553.704 1468.33 Q553.704 1461.2 551.876 1457.66 Q550.07 1454.1 546.436 1454.1 M546.436 1450.39 Q552.246 1450.39 555.302 1455 Q558.38 1459.58 558.38 1468.33 Q558.38 1477.06 555.302 1481.67 Q552.246 1486.25 546.436 1486.25 Q540.626 1486.25 537.547 1481.67 Q534.491 1477.06 534.491 1468.33 Q534.491 1459.58 537.547 1455 Q540.626 1450.39 546.436 1450.39 Z" fill="#000000" fill-rule="evenodd" fill-opacity="1" /><path clip-path="url(#clip720)" d="M576.598 1454.1 Q572.987 1454.1 571.158 1457.66 Q569.352 1461.2 569.352 1468.33 Q569.352 1475.44 571.158 1479.01 Q572.987 1482.55 576.598 1482.55 Q580.232 1482.55 582.037 1479.01 Q583.866 1475.44 583.866 1468.33 Q583.866 1461.2 582.037 1457.66 Q580.232 1454.1 576.598 1454.1 M576.598 1450.39 Q582.408 1450.39 585.463 1455 Q588.542 1459.58 588.542 1468.33 Q588.542 1477.06 585.463 1481.67 Q582.408 1486.25 576.598 1486.25 Q570.788 1486.25 567.709 1481.67 Q564.653 1477.06 564.653 1468.33 Q564.653 1459.58 567.709 1455 Q570.788 1450.39 576.598 1450.39 Z" fill="#000000" fill-rule="evenodd" fill-opacity="1" /><path clip-path="url(#clip720)" d="M812.05 1481.64 L828.369 1481.64 L828.369 1485.58 L806.425 1485.58 L806.425 1481.64 Q809.087 1478.89 813.67 1474.26 Q818.276 1469.61 819.457 1468.27 Q821.702 1465.74 822.582 1464.01 Q823.485 1462.25 823.485 1460.56 Q823.485 1457.8 821.54 1456.07 Q819.619 1454.33 816.517 1454.33 Q814.318 1454.33 811.864 1455.09 Q809.434 1455.86 806.656 1457.41 L806.656 1452.69 Q809.48 1451.55 811.934 1450.97 Q814.387 1450.39 816.425 1450.39 Q821.795 1450.39 824.989 1453.08 Q828.184 1455.77 828.184 1460.26 Q828.184 1462.39 827.374 1464.31 Q826.587 1466.2 824.48 1468.8 Q823.901 1469.47 820.8 1472.69 Q817.698 1475.88 812.05 1481.64 Z" fill="#000000" fill-rule="evenodd" fill-opacity="1" /><path clip-path="url(#clip720)" d="M848.184 1454.1 Q844.573 1454.1 842.744 1457.66 Q840.938 1461.2 840.938 1468.33 Q840.938 1475.44 842.744 1479.01 Q844.573 1482.55 848.184 1482.55 Q851.818 1482.55 853.623 1479.01 Q855.452 1475.44 855.452 1468.33 Q855.452 1461.2 853.623 1457.66 Q851.818 1454.1 848.184 1454.1 M848.184 1450.39 Q853.994 1450.39 857.049 1455 Q860.128 1459.58 860.128 1468.33 Q860.128 1477.06 857.049 1481.67 Q853.994 1486.25 848.184 1486.25 Q842.373 1486.25 839.295 1481.67 Q836.239 1477.06 836.239 1468.33 Q836.239 1459.58 839.295 1455 Q842.373 1450.39 848.184 1450.39 Z" fill="#000000" fill-rule="evenodd" fill-opacity="1" /><path clip-path="url(#clip720)" d="M878.345 1454.1 Q874.734 1454.1 872.906 1457.66 Q871.1 1461.2 871.1 1468.33 Q871.1 1475.44 872.906 1479.01 Q874.734 1482.55 878.345 1482.55 Q881.98 1482.55 883.785 1479.01 Q885.614 1475.44 885.614 1468.33 Q885.614 1461.2 883.785 1457.66 Q881.98 1454.1 878.345 1454.1 M878.345 1450.39 Q884.156 1450.39 887.211 1455 Q890.29 1459.58 890.29 1468.33 Q890.29 1477.06 887.211 1481.67 Q884.156 1486.25 878.345 1486.25 Q872.535 1486.25 869.457 1481.67 Q866.401 1477.06 866.401 1468.33 Q866.401 1459.58 869.457 1455 Q872.535 1450.39 878.345 1450.39 Z" fill="#000000" fill-rule="evenodd" fill-opacity="1" /><path clip-path="url(#clip720)" d="M1123 1466.95 Q1126.36 1467.66 1128.23 1469.93 Q1130.13 1472.2 1130.13 1475.53 Q1130.13 1480.65 1126.61 1483.45 Q1123.09 1486.25 1116.61 1486.25 Q1114.43 1486.25 1112.12 1485.81 Q1109.83 1485.39 1107.37 1484.54 L1107.37 1480.02 Q1109.32 1481.16 1111.63 1481.74 Q1113.95 1482.32 1116.47 1482.32 Q1120.87 1482.32 1123.16 1480.58 Q1125.48 1478.84 1125.48 1475.53 Q1125.48 1472.48 1123.32 1470.77 Q1121.19 1469.03 1117.37 1469.03 L1113.35 1469.03 L1113.35 1465.19 L1117.56 1465.19 Q1121.01 1465.19 1122.84 1463.82 Q1124.67 1462.43 1124.67 1459.84 Q1124.67 1457.18 1122.77 1455.77 Q1120.89 1454.33 1117.37 1454.33 Q1115.45 1454.33 1113.25 1454.75 Q1111.05 1455.16 1108.42 1456.04 L1108.42 1451.88 Q1111.08 1451.14 1113.39 1450.77 Q1115.73 1450.39 1117.79 1450.39 Q1123.11 1450.39 1126.22 1452.83 Q1129.32 1455.23 1129.32 1459.35 Q1129.32 1462.22 1127.67 1464.21 Q1126.03 1466.18 1123 1466.95 Z" fill="#000000" fill-rule="evenodd" fill-opacity="1" /><path clip-path="url(#clip720)" d="M1148.99 1454.1 Q1145.38 1454.1 1143.55 1457.66 Q1141.75 1461.2 1141.75 1468.33 Q1141.75 1475.44 1143.55 1479.01 Q1145.38 1482.55 1148.99 1482.55 Q1152.63 1482.55 1154.43 1479.01 Q1156.26 1475.44 1156.26 1468.33 Q1156.26 1461.2 1154.43 1457.66 Q1152.63 1454.1 1148.99 1454.1 M1148.99 1450.39 Q1154.8 1450.39 1157.86 1455 Q1160.94 1459.58 1160.94 1468.33 Q1160.94 1477.06 1157.86 1481.67 Q1154.8 1486.25 1148.99 1486.25 Q1143.18 1486.25 1140.11 1481.67 Q1137.05 1477.06 1137.05 1468.33 Q1137.05 1459.58 1140.11 1455 Q1143.18 1450.39 1148.99 1450.39 Z" fill="#000000" fill-rule="evenodd" fill-opacity="1" /><path clip-path="url(#clip720)" d="M1179.16 1454.1 Q1175.54 1454.1 1173.72 1457.66 Q1171.91 1461.2 1171.91 1468.33 Q1171.91 1475.44 1173.72 1479.01 Q1175.54 1482.55 1179.16 1482.55 Q1182.79 1482.55 1184.6 1479.01 Q1186.42 1475.44 1186.42 1468.33 Q1186.42 1461.2 1184.6 1457.66 Q1182.79 1454.1 1179.16 1454.1 M1179.16 1450.39 Q1184.97 1450.39 1188.02 1455 Q1191.1 1459.58 1191.1 1468.33 Q1191.1 1477.06 1188.02 1481.67 Q1184.97 1486.25 1179.16 1486.25 Q1173.35 1486.25 1170.27 1481.67 Q1167.21 1477.06 1167.21 1468.33 Q1167.21 1459.58 1170.27 1455 Q1173.35 1450.39 1179.16 1450.39 Z" fill="#000000" fill-rule="evenodd" fill-opacity="1" /><path clip-path="url(#clip720)" d="M1423.21 1455.09 L1411.4 1473.54 L1423.21 1473.54 L1423.21 1455.09 M1421.98 1451.02 L1427.86 1451.02 L1427.86 1473.54 L1432.79 1473.54 L1432.79 1477.43 L1427.86 1477.43 L1427.86 1485.58 L1423.21 1485.58 L1423.21 1477.43 L1407.61 1477.43 L1407.61 1472.92 L1421.98 1451.02 Z" fill="#000000" fill-rule="evenodd" fill-opacity="1" /><path clip-path="url(#clip720)" d="M1450.52 1454.1 Q1446.91 1454.1 1445.08 1457.66 Q1443.28 1461.2 1443.28 1468.33 Q1443.28 1475.44 1445.08 1479.01 Q1446.91 1482.55 1450.52 1482.55 Q1454.16 1482.55 1455.96 1479.01 Q1457.79 1475.44 1457.79 1468.33 Q1457.79 1461.2 1455.96 1457.66 Q1454.16 1454.1 1450.52 1454.1 M1450.52 1450.39 Q1456.33 1450.39 1459.39 1455 Q1462.47 1459.58 1462.47 1468.33 Q1462.47 1477.06 1459.39 1481.67 Q1456.33 1486.25 1450.52 1486.25 Q1444.71 1486.25 1441.63 1481.67 Q1438.58 1477.06 1438.58 1468.33 Q1438.58 1459.58 1441.63 1455 Q1444.71 1450.39 1450.52 1450.39 Z" fill="#000000" fill-rule="evenodd" fill-opacity="1" /><path clip-path="url(#clip720)" d="M1480.68 1454.1 Q1477.07 1454.1 1475.24 1457.66 Q1473.44 1461.2 1473.44 1468.33 Q1473.44 1475.44 1475.24 1479.01 Q1477.07 1482.55 1480.68 1482.55 Q1484.32 1482.55 1486.12 1479.01 Q1487.95 1475.44 1487.95 1468.33 Q1487.95 1461.2 1486.12 1457.66 Q1484.32 1454.1 1480.68 1454.1 M1480.68 1450.39 Q1486.49 1450.39 1489.55 1455 Q1492.63 1459.58 1492.63 1468.33 Q1492.63 1477.06 1489.55 1481.67 Q1486.49 1486.25 1480.68 1486.25 Q1474.87 1486.25 1471.79 1481.67 Q1468.74 1477.06 1468.74 1468.33 Q1468.74 1459.58 1471.79 1455 Q1474.87 1450.39 1480.68 1450.39 Z" fill="#000000" fill-rule="evenodd" fill-opacity="1" /><path clip-path="url(#clip720)" d="M1710.61 1451.02 L1728.97 1451.02 L1728.97 1454.96 L1714.9 1454.96 L1714.9 1463.43 Q1715.92 1463.08 1716.93 1462.92 Q1717.95 1462.73 1718.97 1462.73 Q1724.76 1462.73 1728.14 1465.9 Q1731.52 1469.08 1731.52 1474.49 Q1731.52 1480.07 1728.05 1483.17 Q1724.57 1486.25 1718.25 1486.25 Q1716.08 1486.25 1713.81 1485.88 Q1711.56 1485.51 1709.16 1484.77 L1709.16 1480.07 Q1711.24 1481.2 1713.46 1481.76 Q1715.68 1482.32 1718.16 1482.32 Q1722.17 1482.32 1724.5 1480.21 Q1726.84 1478.1 1726.84 1474.49 Q1726.84 1470.88 1724.5 1468.77 Q1722.17 1466.67 1718.16 1466.67 Q1716.29 1466.67 1714.41 1467.08 Q1712.56 1467.5 1710.61 1468.38 L1710.61 1451.02 Z" fill="#000000" fill-rule="evenodd" fill-opacity="1" /><path clip-path="url(#clip720)" d="M1750.73 1454.1 Q1747.12 1454.1 1745.29 1457.66 Q1743.48 1461.2 1743.48 1468.33 Q1743.48 1475.44 1745.29 1479.01 Q1747.12 1482.55 1750.73 1482.55 Q1754.36 1482.55 1756.17 1479.01 Q1758 1475.44 1758 1468.33 Q1758 1461.2 1756.17 1457.66 Q1754.36 1454.1 1750.73 1454.1 M1750.73 1450.39 Q1756.54 1450.39 1759.6 1455 Q1762.67 1459.58 1762.67 1468.33 Q1762.67 1477.06 1759.6 1481.67 Q1756.54 1486.25 1750.73 1486.25 Q1744.92 1486.25 1741.84 1481.67 Q1738.79 1477.06 1738.79 1468.33 Q1738.79 1459.58 1741.84 1455 Q1744.92 1450.39 1750.73 1450.39 Z" fill="#000000" fill-rule="evenodd" fill-opacity="1" /><path clip-path="url(#clip720)" d="M1780.89 1454.1 Q1777.28 1454.1 1775.45 1457.66 Q1773.65 1461.2 1773.65 1468.33 Q1773.65 1475.44 1775.45 1479.01 Q1777.28 1482.55 1780.89 1482.55 Q1784.53 1482.55 1786.33 1479.01 Q1788.16 1475.44 1788.16 1468.33 Q1788.16 1461.2 1786.33 1457.66 Q1784.53 1454.1 1780.89 1454.1 M1780.89 1450.39 Q1786.7 1450.39 1789.76 1455 Q1792.84 1459.58 1792.84 1468.33 Q1792.84 1477.06 1789.76 1481.67 Q1786.7 1486.25 1780.89 1486.25 Q1775.08 1486.25 1772 1481.67 Q1768.95 1477.06 1768.95 1468.33 Q1768.95 1459.58 1772 1455 Q1775.08 1450.39 1780.89 1450.39 Z" fill="#000000" fill-rule="evenodd" fill-opacity="1" /><path clip-path="url(#clip720)" d="M2022.2 1466.44 Q2019.05 1466.44 2017.2 1468.59 Q2015.37 1470.74 2015.37 1474.49 Q2015.37 1478.22 2017.2 1480.39 Q2019.05 1482.55 2022.2 1482.55 Q2025.35 1482.55 2027.18 1480.39 Q2029.03 1478.22 2029.03 1474.49 Q2029.03 1470.74 2027.18 1468.59 Q2025.35 1466.44 2022.2 1466.44 M2031.48 1451.78 L2031.48 1456.04 Q2029.72 1455.21 2027.92 1454.77 Q2026.14 1454.33 2024.38 1454.33 Q2019.75 1454.33 2017.29 1457.45 Q2014.86 1460.58 2014.52 1466.9 Q2015.88 1464.89 2017.94 1463.82 Q2020 1462.73 2022.48 1462.73 Q2027.69 1462.73 2030.7 1465.9 Q2033.73 1469.05 2033.73 1474.49 Q2033.73 1479.82 2030.58 1483.03 Q2027.43 1486.25 2022.2 1486.25 Q2016.21 1486.25 2013.03 1481.67 Q2009.86 1477.06 2009.86 1468.33 Q2009.86 1460.14 2013.75 1455.28 Q2017.64 1450.39 2024.19 1450.39 Q2025.95 1450.39 2027.73 1450.74 Q2029.54 1451.09 2031.48 1451.78 Z" fill="#000000" fill-rule="evenodd" fill-opacity="1" /><path clip-path="url(#clip720)" d="M2051.78 1454.1 Q2048.17 1454.1 2046.34 1457.66 Q2044.54 1461.2 2044.54 1468.33 Q2044.54 1475.44 2046.34 1479.01 Q2048.17 1482.55 2051.78 1482.55 Q2055.42 1482.55 2057.22 1479.01 Q2059.05 1475.44 2059.05 1468.33 Q2059.05 1461.2 2057.22 1457.66 Q2055.42 1454.1 2051.78 1454.1 M2051.78 1450.39 Q2057.59 1450.39 2060.65 1455 Q2063.73 1459.58 2063.73 1468.33 Q2063.73 1477.06 2060.65 1481.67 Q2057.59 1486.25 2051.78 1486.25 Q2045.97 1486.25 2042.89 1481.67 Q2039.84 1477.06 2039.84 1468.33 Q2039.84 1459.58 2042.89 1455 Q2045.97 1450.39 2051.78 1450.39 Z" fill="#000000" fill-rule="evenodd" fill-opacity="1" /><path clip-path="url(#clip720)" d="M2081.95 1454.1 Q2078.33 1454.1 2076.51 1457.66 Q2074.7 1461.2 2074.7 1468.33 Q2074.7 1475.44 2076.51 1479.01 Q2078.33 1482.55 2081.95 1482.55 Q2085.58 1482.55 2087.39 1479.01 Q2089.21 1475.44 2089.21 1468.33 Q2089.21 1461.2 2087.39 1457.66 Q2085.58 1454.1 2081.95 1454.1 M2081.95 1450.39 Q2087.76 1450.39 2090.81 1455 Q2093.89 1459.58 2093.89 1468.33 Q2093.89 1477.06 2090.81 1481.67 Q2087.76 1486.25 2081.95 1486.25 Q2076.14 1486.25 2073.06 1481.67 Q2070 1477.06 2070 1468.33 Q2070 1459.58 2073.06 1455 Q2076.14 1450.39 2081.95 1450.39 Z" fill="#000000" fill-rule="evenodd" fill-opacity="1" /><path clip-path="url(#clip720)" d="M2311.03 1451.02 L2333.25 1451.02 L2333.25 1453.01 L2320.71 1485.58 L2315.82 1485.58 L2327.63 1454.96 L2311.03 1454.96 L2311.03 1451.02 Z" fill="#000000" fill-rule="evenodd" fill-opacity="1" /><path clip-path="url(#clip720)" d="M2352.37 1454.1 Q2348.76 1454.1 2346.93 1457.66 Q2345.13 1461.2 2345.13 1468.33 Q2345.13 1475.44 2346.93 1479.01 Q2348.76 1482.55 2352.37 1482.55 Q2356.01 1482.55 2357.81 1479.01 Q2359.64 1475.44 2359.64 1468.33 Q2359.64 1461.2 2357.81 1457.66 Q2356.01 1454.1 2352.37 1454.1 M2352.37 1450.39 Q2358.18 1450.39 2361.24 1455 Q2364.32 1459.58 2364.32 1468.33 Q2364.32 1477.06 2361.24 1481.67 Q2358.18 1486.25 2352.37 1486.25 Q2346.56 1486.25 2343.49 1481.67 Q2340.43 1477.06 2340.43 1468.33 Q2340.43 1459.58 2343.49 1455 Q2346.56 1450.39 2352.37 1450.39 Z" fill="#000000" fill-rule="evenodd" fill-opacity="1" /><path clip-path="url(#clip720)" d="M2382.54 1454.1 Q2378.92 1454.1 2377.1 1457.66 Q2375.29 1461.2 2375.29 1468.33 Q2375.29 1475.44 2377.1 1479.01 Q2378.92 1482.55 2382.54 1482.55 Q2386.17 1482.55 2387.98 1479.01 Q2389.8 1475.44 2389.8 1468.33 Q2389.8 1461.2 2387.98 1457.66 Q2386.17 1454.1 2382.54 1454.1 M2382.54 1450.39 Q2388.35 1450.39 2391.4 1455 Q2394.48 1459.58 2394.48 1468.33 Q2394.48 1477.06 2391.4 1481.67 Q2388.35 1486.25 2382.54 1486.25 Q2376.73 1486.25 2373.65 1481.67 Q2370.59 1477.06 2370.59 1468.33 Q2370.59 1459.58 2373.65 1455 Q2376.73 1450.39 2382.54 1450.39 Z" fill="#000000" fill-rule="evenodd" fill-opacity="1" /><path clip-path="url(#clip720)" d="M1298.74 1522.27 L1298.74 1532.4 L1310.8 1532.4 L1310.8 1536.95 L1298.74 1536.95 L1298.74 1556.3 Q1298.74 1560.66 1299.92 1561.9 Q1301.13 1563.14 1304.79 1563.14 L1310.8 1563.14 L1310.8 1568.04 L1304.79 1568.04 Q1298.01 1568.04 1295.43 1565.53 Q1292.85 1562.98 1292.85 1556.3 L1292.85 1536.95 L1288.55 1536.95 L1288.55 1532.4 L1292.85 1532.4 L1292.85 1522.27 L1298.74 1522.27 Z" fill="#000000" fill-rule="evenodd" fill-opacity="1" /><polyline clip-path="url(#clip722)" style="stroke:#000000; stroke-linecap:butt; stroke-linejoin:round; stroke-width:2; stroke-opacity:0.1; fill:none" points="
  246.598,1384.24 2352.76,1384.24 
  "/>
<polyline clip-path="url(#clip722)" style="stroke:#000000; stroke-linecap:butt; stroke-linejoin:round; stroke-width:2; stroke-opacity:0.1; fill:none" points="
  246.598,1122.89 2352.76,1122.89 
  "/>
<polyline clip-path="url(#clip722)" style="stroke:#000000; stroke-linecap:butt; stroke-linejoin:round; stroke-width:2; stroke-opacity:0.1; fill:none" points="
  246.598,861.542 2352.76,861.542 
  "/>
<polyline clip-path="url(#clip722)" style="stroke:#000000; stroke-linecap:butt; stroke-linejoin:round; stroke-width:2; stroke-opacity:0.1; fill:none" points="
  246.598,600.194 2352.76,600.194 
  "/>
<polyline clip-path="url(#clip722)" style="stroke:#000000; stroke-linecap:butt; stroke-linejoin:round; stroke-width:2; stroke-opacity:0.1; fill:none" points="
  246.598,338.845 2352.76,338.845 
  "/>
<polyline clip-path="url(#clip722)" style="stroke:#000000; stroke-linecap:butt; stroke-linejoin:round; stroke-width:2; stroke-opacity:0.1; fill:none" points="
  246.598,77.497 2352.76,77.497 
  "/>
<polyline clip-path="url(#clip720)" style="stroke:#000000; stroke-linecap:butt; stroke-linejoin:round; stroke-width:4; stroke-opacity:1; fill:none" points="
  246.598,1423.18 246.598,47.2441 
  "/>
<polyline clip-path="url(#clip720)" style="stroke:#000000; stroke-linecap:butt; stroke-linejoin:round; stroke-width:4; stroke-opacity:1; fill:none" points="
  246.598,1384.24 265.495,1384.24 
  "/>
<polyline clip-path="url(#clip720)" style="stroke:#000000; stroke-linecap:butt; stroke-linejoin:round; stroke-width:4; stroke-opacity:1; fill:none" points="
  246.598,1122.89 265.495,1122.89 
  "/>
<polyline clip-path="url(#clip720)" style="stroke:#000000; stroke-linecap:butt; stroke-linejoin:round; stroke-width:4; stroke-opacity:1; fill:none" points="
  246.598,861.542 265.495,861.542 
  "/>
<polyline clip-path="url(#clip720)" style="stroke:#000000; stroke-linecap:butt; stroke-linejoin:round; stroke-width:4; stroke-opacity:1; fill:none" points="
  246.598,600.194 265.495,600.194 
  "/>
<polyline clip-path="url(#clip720)" style="stroke:#000000; stroke-linecap:butt; stroke-linejoin:round; stroke-width:4; stroke-opacity:1; fill:none" points="
  246.598,338.845 265.495,338.845 
  "/>
<polyline clip-path="url(#clip720)" style="stroke:#000000; stroke-linecap:butt; stroke-linejoin:round; stroke-width:4; stroke-opacity:1; fill:none" points="
  246.598,77.497 265.495,77.497 
  "/>
<path clip-path="url(#clip720)" d="M62.9365 1370.04 Q59.3254 1370.04 57.4967 1373.6 Q55.6912 1377.14 55.6912 1384.27 Q55.6912 1391.38 57.4967 1394.94 Q59.3254 1398.49 62.9365 1398.49 Q66.5707 1398.49 68.3763 1394.94 Q70.205 1391.38 70.205 1384.27 Q70.205 1377.14 68.3763 1373.6 Q66.5707 1370.04 62.9365 1370.04 M62.9365 1366.33 Q68.7467 1366.33 71.8022 1370.94 Q74.8809 1375.52 74.8809 1384.27 Q74.8809 1393 71.8022 1397.61 Q68.7467 1402.19 62.9365 1402.19 Q57.1264 1402.19 54.0477 1397.61 Q50.9921 1393 50.9921 1384.27 Q50.9921 1375.52 54.0477 1370.94 Q57.1264 1366.33 62.9365 1366.33 Z" fill="#000000" fill-rule="evenodd" fill-opacity="1" /><path clip-path="url(#clip720)" d="M83.0984 1395.64 L87.9827 1395.64 L87.9827 1401.52 L83.0984 1401.52 L83.0984 1395.64 Z" fill="#000000" fill-rule="evenodd" fill-opacity="1" /><path clip-path="url(#clip720)" d="M108.168 1370.04 Q104.557 1370.04 102.728 1373.6 Q100.922 1377.14 100.922 1384.27 Q100.922 1391.38 102.728 1394.94 Q104.557 1398.49 108.168 1398.49 Q111.802 1398.49 113.608 1394.94 Q115.436 1391.38 115.436 1384.27 Q115.436 1377.14 113.608 1373.6 Q111.802 1370.04 108.168 1370.04 M108.168 1366.33 Q113.978 1366.33 117.033 1370.94 Q120.112 1375.52 120.112 1384.27 Q120.112 1393 117.033 1397.61 Q113.978 1402.19 108.168 1402.19 Q102.358 1402.19 99.2789 1397.61 Q96.2234 1393 96.2234 1384.27 Q96.2234 1375.52 99.2789 1370.94 Q102.358 1366.33 108.168 1366.33 Z" fill="#000000" fill-rule="evenodd" fill-opacity="1" /><path clip-path="url(#clip720)" d="M138.33 1370.04 Q134.719 1370.04 132.89 1373.6 Q131.084 1377.14 131.084 1384.27 Q131.084 1391.38 132.89 1394.94 Q134.719 1398.49 138.33 1398.49 Q141.964 1398.49 143.769 1394.94 Q145.598 1391.38 145.598 1384.27 Q145.598 1377.14 143.769 1373.6 Q141.964 1370.04 138.33 1370.04 M138.33 1366.33 Q144.14 1366.33 147.195 1370.94 Q150.274 1375.52 150.274 1384.27 Q150.274 1393 147.195 1397.61 Q144.14 1402.19 138.33 1402.19 Q132.519 1402.19 129.441 1397.61 Q126.385 1393 126.385 1384.27 Q126.385 1375.52 129.441 1370.94 Q132.519 1366.33 138.33 1366.33 Z" fill="#000000" fill-rule="evenodd" fill-opacity="1" /><path clip-path="url(#clip720)" d="M168.491 1370.04 Q164.88 1370.04 163.052 1373.6 Q161.246 1377.14 161.246 1384.27 Q161.246 1391.38 163.052 1394.94 Q164.88 1398.49 168.491 1398.49 Q172.126 1398.49 173.931 1394.94 Q175.76 1391.38 175.76 1384.27 Q175.76 1377.14 173.931 1373.6 Q172.126 1370.04 168.491 1370.04 M168.491 1366.33 Q174.302 1366.33 177.357 1370.94 Q180.436 1375.52 180.436 1384.27 Q180.436 1393 177.357 1397.61 Q174.302 1402.19 168.491 1402.19 Q162.681 1402.19 159.603 1397.61 Q156.547 1393 156.547 1384.27 Q156.547 1375.52 159.603 1370.94 Q162.681 1366.33 168.491 1366.33 Z" fill="#000000" fill-rule="evenodd" fill-opacity="1" /><path clip-path="url(#clip720)" d="M198.653 1370.04 Q195.042 1370.04 193.214 1373.6 Q191.408 1377.14 191.408 1384.27 Q191.408 1391.38 193.214 1394.94 Q195.042 1398.49 198.653 1398.49 Q202.288 1398.49 204.093 1394.94 Q205.922 1391.38 205.922 1384.27 Q205.922 1377.14 204.093 1373.6 Q202.288 1370.04 198.653 1370.04 M198.653 1366.33 Q204.464 1366.33 207.519 1370.94 Q210.598 1375.52 210.598 1384.27 Q210.598 1393 207.519 1397.61 Q204.464 1402.19 198.653 1402.19 Q192.843 1402.19 189.765 1397.61 Q186.709 1393 186.709 1384.27 Q186.709 1375.52 189.765 1370.94 Q192.843 1366.33 198.653 1366.33 Z" fill="#000000" fill-rule="evenodd" fill-opacity="1" /><path clip-path="url(#clip720)" d="M63.9319 1108.69 Q60.3208 1108.69 58.4921 1112.25 Q56.6865 1115.8 56.6865 1122.92 Q56.6865 1130.03 58.4921 1133.6 Q60.3208 1137.14 63.9319 1137.14 Q67.5661 1137.14 69.3717 1133.6 Q71.2004 1130.03 71.2004 1122.92 Q71.2004 1115.8 69.3717 1112.25 Q67.5661 1108.69 63.9319 1108.69 M63.9319 1104.99 Q69.742 1104.99 72.7976 1109.59 Q75.8763 1114.17 75.8763 1122.92 Q75.8763 1131.65 72.7976 1136.26 Q69.742 1140.84 63.9319 1140.84 Q58.1217 1140.84 55.043 1136.26 Q51.9875 1131.65 51.9875 1122.92 Q51.9875 1114.17 55.043 1109.59 Q58.1217 1104.99 63.9319 1104.99 Z" fill="#000000" fill-rule="evenodd" fill-opacity="1" /><path clip-path="url(#clip720)" d="M84.0938 1134.29 L88.978 1134.29 L88.978 1140.17 L84.0938 1140.17 L84.0938 1134.29 Z" fill="#000000" fill-rule="evenodd" fill-opacity="1" /><path clip-path="url(#clip720)" d="M109.163 1108.69 Q105.552 1108.69 103.723 1112.25 Q101.918 1115.8 101.918 1122.92 Q101.918 1130.03 103.723 1133.6 Q105.552 1137.14 109.163 1137.14 Q112.797 1137.14 114.603 1133.6 Q116.432 1130.03 116.432 1122.92 Q116.432 1115.8 114.603 1112.25 Q112.797 1108.69 109.163 1108.69 M109.163 1104.99 Q114.973 1104.99 118.029 1109.59 Q121.107 1114.17 121.107 1122.92 Q121.107 1131.65 118.029 1136.26 Q114.973 1140.84 109.163 1140.84 Q103.353 1140.84 100.274 1136.26 Q97.2187 1131.65 97.2187 1122.92 Q97.2187 1114.17 100.274 1109.59 Q103.353 1104.99 109.163 1104.99 Z" fill="#000000" fill-rule="evenodd" fill-opacity="1" /><path clip-path="url(#clip720)" d="M139.325 1108.69 Q135.714 1108.69 133.885 1112.25 Q132.08 1115.8 132.08 1122.92 Q132.08 1130.03 133.885 1133.6 Q135.714 1137.14 139.325 1137.14 Q142.959 1137.14 144.765 1133.6 Q146.593 1130.03 146.593 1122.92 Q146.593 1115.8 144.765 1112.25 Q142.959 1108.69 139.325 1108.69 M139.325 1104.99 Q145.135 1104.99 148.191 1109.59 Q151.269 1114.17 151.269 1122.92 Q151.269 1131.65 148.191 1136.26 Q145.135 1140.84 139.325 1140.84 Q133.515 1140.84 130.436 1136.26 Q127.381 1131.65 127.381 1122.92 Q127.381 1114.17 130.436 1109.59 Q133.515 1104.99 139.325 1104.99 Z" fill="#000000" fill-rule="evenodd" fill-opacity="1" /><path clip-path="url(#clip720)" d="M169.487 1108.69 Q165.876 1108.69 164.047 1112.25 Q162.242 1115.8 162.242 1122.92 Q162.242 1130.03 164.047 1133.6 Q165.876 1137.14 169.487 1137.14 Q173.121 1137.14 174.927 1133.6 Q176.755 1130.03 176.755 1122.92 Q176.755 1115.8 174.927 1112.25 Q173.121 1108.69 169.487 1108.69 M169.487 1104.99 Q175.297 1104.99 178.353 1109.59 Q181.431 1114.17 181.431 1122.92 Q181.431 1131.65 178.353 1136.26 Q175.297 1140.84 169.487 1140.84 Q163.677 1140.84 160.598 1136.26 Q157.542 1131.65 157.542 1122.92 Q157.542 1114.17 160.598 1109.59 Q163.677 1104.99 169.487 1104.99 Z" fill="#000000" fill-rule="evenodd" fill-opacity="1" /><path clip-path="url(#clip720)" d="M189.695 1105.61 L208.051 1105.61 L208.051 1109.55 L193.977 1109.55 L193.977 1118.02 Q194.996 1117.67 196.014 1117.51 Q197.033 1117.32 198.052 1117.32 Q203.839 1117.32 207.218 1120.49 Q210.598 1123.67 210.598 1129.08 Q210.598 1134.66 207.126 1137.76 Q203.653 1140.84 197.334 1140.84 Q195.158 1140.84 192.89 1140.47 Q190.644 1140.1 188.237 1139.36 L188.237 1134.66 Q190.32 1135.8 192.542 1136.35 Q194.765 1136.91 197.241 1136.91 Q201.246 1136.91 203.584 1134.8 Q205.922 1132.69 205.922 1129.08 Q205.922 1125.47 203.584 1123.36 Q201.246 1121.26 197.241 1121.26 Q195.366 1121.26 193.491 1121.67 Q191.64 1122.09 189.695 1122.97 L189.695 1105.61 Z" fill="#000000" fill-rule="evenodd" fill-opacity="1" /><path clip-path="url(#clip720)" d="M62.9365 847.34 Q59.3254 847.34 57.4967 850.905 Q55.6912 854.447 55.6912 861.576 Q55.6912 868.683 57.4967 872.248 Q59.3254 875.789 62.9365 875.789 Q66.5707 875.789 68.3763 872.248 Q70.205 868.683 70.205 861.576 Q70.205 854.447 68.3763 850.905 Q66.5707 847.34 62.9365 847.34 M62.9365 843.637 Q68.7467 843.637 71.8022 848.243 Q74.8809 852.827 74.8809 861.576 Q74.8809 870.303 71.8022 874.91 Q68.7467 879.493 62.9365 879.493 Q57.1264 879.493 54.0477 874.91 Q50.9921 870.303 50.9921 861.576 Q50.9921 852.827 54.0477 848.243 Q57.1264 843.637 62.9365 843.637 Z" fill="#000000" fill-rule="evenodd" fill-opacity="1" /><path clip-path="url(#clip720)" d="M83.0984 872.942 L87.9827 872.942 L87.9827 878.822 L83.0984 878.822 L83.0984 872.942 Z" fill="#000000" fill-rule="evenodd" fill-opacity="1" /><path clip-path="url(#clip720)" d="M108.168 847.34 Q104.557 847.34 102.728 850.905 Q100.922 854.447 100.922 861.576 Q100.922 868.683 102.728 872.248 Q104.557 875.789 108.168 875.789 Q111.802 875.789 113.608 872.248 Q115.436 868.683 115.436 861.576 Q115.436 854.447 113.608 850.905 Q111.802 847.34 108.168 847.34 M108.168 843.637 Q113.978 843.637 117.033 848.243 Q120.112 852.827 120.112 861.576 Q120.112 870.303 117.033 874.91 Q113.978 879.493 108.168 879.493 Q102.358 879.493 99.2789 874.91 Q96.2234 870.303 96.2234 861.576 Q96.2234 852.827 99.2789 848.243 Q102.358 843.637 108.168 843.637 Z" fill="#000000" fill-rule="evenodd" fill-opacity="1" /><path clip-path="url(#clip720)" d="M138.33 847.34 Q134.719 847.34 132.89 850.905 Q131.084 854.447 131.084 861.576 Q131.084 868.683 132.89 872.248 Q134.719 875.789 138.33 875.789 Q141.964 875.789 143.769 872.248 Q145.598 868.683 145.598 861.576 Q145.598 854.447 143.769 850.905 Q141.964 847.34 138.33 847.34 M138.33 843.637 Q144.14 843.637 147.195 848.243 Q150.274 852.827 150.274 861.576 Q150.274 870.303 147.195 874.91 Q144.14 879.493 138.33 879.493 Q132.519 879.493 129.441 874.91 Q126.385 870.303 126.385 861.576 Q126.385 852.827 129.441 848.243 Q132.519 843.637 138.33 843.637 Z" fill="#000000" fill-rule="evenodd" fill-opacity="1" /><path clip-path="url(#clip720)" d="M159.302 874.887 L166.941 874.887 L166.941 848.521 L158.63 850.188 L158.63 845.928 L166.894 844.262 L171.57 844.262 L171.57 874.887 L179.209 874.887 L179.209 878.822 L159.302 878.822 L159.302 874.887 Z" fill="#000000" fill-rule="evenodd" fill-opacity="1" /><path clip-path="url(#clip720)" d="M198.653 847.34 Q195.042 847.34 193.214 850.905 Q191.408 854.447 191.408 861.576 Q191.408 868.683 193.214 872.248 Q195.042 875.789 198.653 875.789 Q202.288 875.789 204.093 872.248 Q205.922 868.683 205.922 861.576 Q205.922 854.447 204.093 850.905 Q202.288 847.34 198.653 847.34 M198.653 843.637 Q204.464 843.637 207.519 848.243 Q210.598 852.827 210.598 861.576 Q210.598 870.303 207.519 874.91 Q204.464 879.493 198.653 879.493 Q192.843 879.493 189.765 874.91 Q186.709 870.303 186.709 861.576 Q186.709 852.827 189.765 848.243 Q192.843 843.637 198.653 843.637 Z" fill="#000000" fill-rule="evenodd" fill-opacity="1" /><path clip-path="url(#clip720)" d="M63.9319 585.992 Q60.3208 585.992 58.4921 589.557 Q56.6865 593.099 56.6865 600.228 Q56.6865 607.335 58.4921 610.899 Q60.3208 614.441 63.9319 614.441 Q67.5661 614.441 69.3717 610.899 Q71.2004 607.335 71.2004 600.228 Q71.2004 593.099 69.3717 589.557 Q67.5661 585.992 63.9319 585.992 M63.9319 582.289 Q69.742 582.289 72.7976 586.895 Q75.8763 591.478 75.8763 600.228 Q75.8763 608.955 72.7976 613.562 Q69.742 618.145 63.9319 618.145 Q58.1217 618.145 55.043 613.562 Q51.9875 608.955 51.9875 600.228 Q51.9875 591.478 55.043 586.895 Q58.1217 582.289 63.9319 582.289 Z" fill="#000000" fill-rule="evenodd" fill-opacity="1" /><path clip-path="url(#clip720)" d="M84.0938 611.594 L88.978 611.594 L88.978 617.474 L84.0938 617.474 L84.0938 611.594 Z" fill="#000000" fill-rule="evenodd" fill-opacity="1" /><path clip-path="url(#clip720)" d="M109.163 585.992 Q105.552 585.992 103.723 589.557 Q101.918 593.099 101.918 600.228 Q101.918 607.335 103.723 610.899 Q105.552 614.441 109.163 614.441 Q112.797 614.441 114.603 610.899 Q116.432 607.335 116.432 600.228 Q116.432 593.099 114.603 589.557 Q112.797 585.992 109.163 585.992 M109.163 582.289 Q114.973 582.289 118.029 586.895 Q121.107 591.478 121.107 600.228 Q121.107 608.955 118.029 613.562 Q114.973 618.145 109.163 618.145 Q103.353 618.145 100.274 613.562 Q97.2187 608.955 97.2187 600.228 Q97.2187 591.478 100.274 586.895 Q103.353 582.289 109.163 582.289 Z" fill="#000000" fill-rule="evenodd" fill-opacity="1" /><path clip-path="url(#clip720)" d="M139.325 585.992 Q135.714 585.992 133.885 589.557 Q132.08 593.099 132.08 600.228 Q132.08 607.335 133.885 610.899 Q135.714 614.441 139.325 614.441 Q142.959 614.441 144.765 610.899 Q146.593 607.335 146.593 600.228 Q146.593 593.099 144.765 589.557 Q142.959 585.992 139.325 585.992 M139.325 582.289 Q145.135 582.289 148.191 586.895 Q151.269 591.478 151.269 600.228 Q151.269 608.955 148.191 613.562 Q145.135 618.145 139.325 618.145 Q133.515 618.145 130.436 613.562 Q127.381 608.955 127.381 600.228 Q127.381 591.478 130.436 586.895 Q133.515 582.289 139.325 582.289 Z" fill="#000000" fill-rule="evenodd" fill-opacity="1" /><path clip-path="url(#clip720)" d="M160.297 613.538 L167.936 613.538 L167.936 587.173 L159.626 588.839 L159.626 584.58 L167.89 582.914 L172.566 582.914 L172.566 613.538 L180.204 613.538 L180.204 617.474 L160.297 617.474 L160.297 613.538 Z" fill="#000000" fill-rule="evenodd" fill-opacity="1" /><path clip-path="url(#clip720)" d="M189.695 582.914 L208.051 582.914 L208.051 586.849 L193.977 586.849 L193.977 595.321 Q194.996 594.974 196.014 594.812 Q197.033 594.626 198.052 594.626 Q203.839 594.626 207.218 597.798 Q210.598 600.969 210.598 606.386 Q210.598 611.964 207.126 615.066 Q203.653 618.145 197.334 618.145 Q195.158 618.145 192.89 617.774 Q190.644 617.404 188.237 616.663 L188.237 611.964 Q190.32 613.099 192.542 613.654 Q194.765 614.21 197.241 614.21 Q201.246 614.21 203.584 612.103 Q205.922 609.997 205.922 606.386 Q205.922 602.775 203.584 600.668 Q201.246 598.562 197.241 598.562 Q195.366 598.562 193.491 598.978 Q191.64 599.395 189.695 600.275 L189.695 582.914 Z" fill="#000000" fill-rule="evenodd" fill-opacity="1" /><path clip-path="url(#clip720)" d="M62.9365 324.644 Q59.3254 324.644 57.4967 328.209 Q55.6912 331.75 55.6912 338.88 Q55.6912 345.986 57.4967 349.551 Q59.3254 353.093 62.9365 353.093 Q66.5707 353.093 68.3763 349.551 Q70.205 345.986 70.205 338.88 Q70.205 331.75 68.3763 328.209 Q66.5707 324.644 62.9365 324.644 M62.9365 320.94 Q68.7467 320.94 71.8022 325.547 Q74.8809 330.13 74.8809 338.88 Q74.8809 347.607 71.8022 352.213 Q68.7467 356.797 62.9365 356.797 Q57.1264 356.797 54.0477 352.213 Q50.9921 347.607 50.9921 338.88 Q50.9921 330.13 54.0477 325.547 Q57.1264 320.94 62.9365 320.94 Z" fill="#000000" fill-rule="evenodd" fill-opacity="1" /><path clip-path="url(#clip720)" d="M83.0984 350.246 L87.9827 350.246 L87.9827 356.125 L83.0984 356.125 L83.0984 350.246 Z" fill="#000000" fill-rule="evenodd" fill-opacity="1" /><path clip-path="url(#clip720)" d="M108.168 324.644 Q104.557 324.644 102.728 328.209 Q100.922 331.75 100.922 338.88 Q100.922 345.986 102.728 349.551 Q104.557 353.093 108.168 353.093 Q111.802 353.093 113.608 349.551 Q115.436 345.986 115.436 338.88 Q115.436 331.75 113.608 328.209 Q111.802 324.644 108.168 324.644 M108.168 320.94 Q113.978 320.94 117.033 325.547 Q120.112 330.13 120.112 338.88 Q120.112 347.607 117.033 352.213 Q113.978 356.797 108.168 356.797 Q102.358 356.797 99.2789 352.213 Q96.2234 347.607 96.2234 338.88 Q96.2234 330.13 99.2789 325.547 Q102.358 320.94 108.168 320.94 Z" fill="#000000" fill-rule="evenodd" fill-opacity="1" /><path clip-path="url(#clip720)" d="M138.33 324.644 Q134.719 324.644 132.89 328.209 Q131.084 331.75 131.084 338.88 Q131.084 345.986 132.89 349.551 Q134.719 353.093 138.33 353.093 Q141.964 353.093 143.769 349.551 Q145.598 345.986 145.598 338.88 Q145.598 331.75 143.769 328.209 Q141.964 324.644 138.33 324.644 M138.33 320.94 Q144.14 320.94 147.195 325.547 Q150.274 330.13 150.274 338.88 Q150.274 347.607 147.195 352.213 Q144.14 356.797 138.33 356.797 Q132.519 356.797 129.441 352.213 Q126.385 347.607 126.385 338.88 Q126.385 330.13 129.441 325.547 Q132.519 320.94 138.33 320.94 Z" fill="#000000" fill-rule="evenodd" fill-opacity="1" /><path clip-path="url(#clip720)" d="M162.519 352.19 L178.839 352.19 L178.839 356.125 L156.894 356.125 L156.894 352.19 Q159.556 349.435 164.14 344.806 Q168.746 340.153 169.927 338.811 Q172.172 336.287 173.052 334.551 Q173.954 332.792 173.954 331.102 Q173.954 328.348 172.01 326.612 Q170.089 324.875 166.987 324.875 Q164.788 324.875 162.334 325.639 Q159.904 326.403 157.126 327.954 L157.126 323.232 Q159.95 322.098 162.404 321.519 Q164.857 320.94 166.894 320.94 Q172.265 320.94 175.459 323.625 Q178.653 326.311 178.653 330.801 Q178.653 332.931 177.843 334.852 Q177.056 336.75 174.95 339.343 Q174.371 340.014 171.269 343.232 Q168.167 346.426 162.519 352.19 Z" fill="#000000" fill-rule="evenodd" fill-opacity="1" /><path clip-path="url(#clip720)" d="M198.653 324.644 Q195.042 324.644 193.214 328.209 Q191.408 331.75 191.408 338.88 Q191.408 345.986 193.214 349.551 Q195.042 353.093 198.653 353.093 Q202.288 353.093 204.093 349.551 Q205.922 345.986 205.922 338.88 Q205.922 331.75 204.093 328.209 Q202.288 324.644 198.653 324.644 M198.653 320.94 Q204.464 320.94 207.519 325.547 Q210.598 330.13 210.598 338.88 Q210.598 347.607 207.519 352.213 Q204.464 356.797 198.653 356.797 Q192.843 356.797 189.765 352.213 Q186.709 347.607 186.709 338.88 Q186.709 330.13 189.765 325.547 Q192.843 320.94 198.653 320.94 Z" fill="#000000" fill-rule="evenodd" fill-opacity="1" /><path clip-path="url(#clip720)" d="M63.9319 63.2957 Q60.3208 63.2957 58.4921 66.8605 Q56.6865 70.4022 56.6865 77.5318 Q56.6865 84.6382 58.4921 88.203 Q60.3208 91.7446 63.9319 91.7446 Q67.5661 91.7446 69.3717 88.203 Q71.2004 84.6382 71.2004 77.5318 Q71.2004 70.4022 69.3717 66.8605 Q67.5661 63.2957 63.9319 63.2957 M63.9319 59.592 Q69.742 59.592 72.7976 64.1985 Q75.8763 68.7818 75.8763 77.5318 Q75.8763 86.2586 72.7976 90.865 Q69.742 95.4483 63.9319 95.4483 Q58.1217 95.4483 55.043 90.865 Q51.9875 86.2586 51.9875 77.5318 Q51.9875 68.7818 55.043 64.1985 Q58.1217 59.592 63.9319 59.592 Z" fill="#000000" fill-rule="evenodd" fill-opacity="1" /><path clip-path="url(#clip720)" d="M84.0938 88.8974 L88.978 88.8974 L88.978 94.777 L84.0938 94.777 L84.0938 88.8974 Z" fill="#000000" fill-rule="evenodd" fill-opacity="1" /><path clip-path="url(#clip720)" d="M109.163 63.2957 Q105.552 63.2957 103.723 66.8605 Q101.918 70.4022 101.918 77.5318 Q101.918 84.6382 103.723 88.203 Q105.552 91.7446 109.163 91.7446 Q112.797 91.7446 114.603 88.203 Q116.432 84.6382 116.432 77.5318 Q116.432 70.4022 114.603 66.8605 Q112.797 63.2957 109.163 63.2957 M109.163 59.592 Q114.973 59.592 118.029 64.1985 Q121.107 68.7818 121.107 77.5318 Q121.107 86.2586 118.029 90.865 Q114.973 95.4483 109.163 95.4483 Q103.353 95.4483 100.274 90.865 Q97.2187 86.2586 97.2187 77.5318 Q97.2187 68.7818 100.274 64.1985 Q103.353 59.592 109.163 59.592 Z" fill="#000000" fill-rule="evenodd" fill-opacity="1" /><path clip-path="url(#clip720)" d="M139.325 63.2957 Q135.714 63.2957 133.885 66.8605 Q132.08 70.4022 132.08 77.5318 Q132.08 84.6382 133.885 88.203 Q135.714 91.7446 139.325 91.7446 Q142.959 91.7446 144.765 88.203 Q146.593 84.6382 146.593 77.5318 Q146.593 70.4022 144.765 66.8605 Q142.959 63.2957 139.325 63.2957 M139.325 59.592 Q145.135 59.592 148.191 64.1985 Q151.269 68.7818 151.269 77.5318 Q151.269 86.2586 148.191 90.865 Q145.135 95.4483 139.325 95.4483 Q133.515 95.4483 130.436 90.865 Q127.381 86.2586 127.381 77.5318 Q127.381 68.7818 130.436 64.1985 Q133.515 59.592 139.325 59.592 Z" fill="#000000" fill-rule="evenodd" fill-opacity="1" /><path clip-path="url(#clip720)" d="M163.515 90.8419 L179.834 90.8419 L179.834 94.777 L157.89 94.777 L157.89 90.8419 Q160.552 88.0873 165.135 83.4576 Q169.741 78.8049 170.922 77.4623 Q173.167 74.9392 174.047 73.2031 Q174.95 71.4438 174.95 69.754 Q174.95 66.9994 173.005 65.2633 Q171.084 63.5272 167.982 63.5272 Q165.783 63.5272 163.329 64.2911 Q160.899 65.055 158.121 66.6059 L158.121 61.8837 Q160.945 60.7494 163.399 60.1707 Q165.853 59.592 167.89 59.592 Q173.26 59.592 176.454 62.2772 Q179.649 64.9624 179.649 69.4531 Q179.649 71.5827 178.839 73.504 Q178.052 75.4021 175.945 77.9947 Q175.366 78.666 172.265 81.8836 Q169.163 85.078 163.515 90.8419 Z" fill="#000000" fill-rule="evenodd" fill-opacity="1" /><path clip-path="url(#clip720)" d="M189.695 60.217 L208.051 60.217 L208.051 64.1522 L193.977 64.1522 L193.977 72.6244 Q194.996 72.2772 196.014 72.1151 Q197.033 71.9299 198.052 71.9299 Q203.839 71.9299 207.218 75.1012 Q210.598 78.2725 210.598 83.6891 Q210.598 89.2678 207.126 92.3696 Q203.653 95.4483 197.334 95.4483 Q195.158 95.4483 192.89 95.078 Q190.644 94.7076 188.237 93.9668 L188.237 89.2678 Q190.32 90.4021 192.542 90.9576 Q194.765 91.5132 197.241 91.5132 Q201.246 91.5132 203.584 89.4067 Q205.922 87.3002 205.922 83.6891 Q205.922 80.078 203.584 77.9716 Q201.246 75.8651 197.241 75.8651 Q195.366 75.8651 193.491 76.2818 Q191.64 76.6984 189.695 77.578 L189.695 60.217 Z" fill="#000000" fill-rule="evenodd" fill-opacity="1" /><polyline clip-path="url(#clip722)" style="stroke:#009af9; stroke-linecap:butt; stroke-linejoin:round; stroke-width:8; stroke-opacity:1; fill:none" points="
  246.598,1384.24 248.706,1384.24 250.814,1384.24 252.923,1384.24 255.031,1384.24 257.139,1384.24 259.247,1384.24 261.356,1384.24 263.464,1384.24 265.572,1384.24 
  267.68,1384.24 269.789,1384.24 271.897,1384.24 274.005,1384.24 276.113,1384.24 278.222,1384.24 280.33,1384.24 282.438,1384.24 284.547,1384.24 286.655,1384.24 
  288.763,1384.24 290.871,1384.24 292.98,1384.24 295.088,1384.24 297.196,1384.24 299.304,1384.24 301.413,1384.24 303.521,1384.24 305.629,1384.24 307.737,1384.24 
  309.846,1384.24 311.954,1384.24 314.062,1384.24 316.171,1384.24 318.279,1384.24 320.387,1384.24 322.495,1384.24 324.604,1384.24 326.712,1384.24 328.82,1384.24 
  330.928,1384.24 333.037,1384.24 335.145,1384.24 337.253,1384.24 339.361,1384.24 341.47,1384.24 343.578,1384.24 345.686,1384.24 347.795,1384.24 349.903,1384.24 
  352.011,1384.24 354.119,1384.24 356.228,1384.24 358.336,1384.24 360.444,1384.24 362.552,1384.24 364.661,1384.24 366.769,1384.24 368.877,1384.24 370.985,1384.24 
  373.094,1384.24 375.202,1384.24 377.31,1384.24 379.419,1384.24 381.527,1384.24 383.635,1384.24 385.743,1384.24 387.852,1384.24 389.96,1384.24 392.068,1384.24 
  394.176,1384.24 396.285,1384.24 398.393,1384.24 400.501,1384.24 402.609,1384.24 404.718,1384.24 406.826,1384.24 408.934,1384.24 411.043,1384.24 413.151,1384.24 
  415.259,1384.24 417.367,1384.24 419.476,1384.24 421.584,1384.24 423.692,1384.24 425.8,1384.24 427.909,1384.24 430.017,1384.24 432.125,1384.24 434.233,1384.24 
  436.342,1384.24 438.45,1384.24 440.558,1384.24 442.667,1384.24 444.775,1384.24 446.883,1384.24 448.991,1384.24 451.1,1384.24 453.208,1384.24 455.316,1384.24 
  457.424,1384.24 459.533,1384.24 461.641,1384.24 463.749,1384.24 465.857,1384.24 467.966,1384.24 470.074,1384.24 472.182,1384.24 474.291,1384.24 476.399,1384.24 
  478.507,1384.24 480.615,1384.24 482.724,1384.24 484.832,1384.24 486.94,1384.24 489.048,1384.24 491.157,1384.24 493.265,1384.24 495.373,1384.24 497.481,1384.24 
  499.59,1384.24 501.698,1384.24 503.806,1384.24 505.915,1384.24 508.023,1384.24 510.131,1384.24 512.239,1384.24 514.348,1384.24 516.456,1384.24 518.564,1384.24 
  520.672,1384.24 522.781,1384.24 524.889,1384.24 526.997,1384.24 529.105,1384.24 531.214,1384.24 533.322,1384.24 535.43,1384.24 537.539,1384.24 539.647,1384.24 
  541.755,1384.24 543.863,1384.24 545.972,1384.24 548.08,86.1857 550.188,116.157 552.296,145.444 554.405,174.048 556.513,201.986 558.621,229.282 560.729,255.953 
  562.838,281.992 564.946,307.444 567.054,332.325 569.163,356.636 571.271,380.377 573.379,403.538 575.487,426.182 577.596,448.325 579.704,469.965 581.812,491.104 
  583.92,511.74 586.029,531.86 588.137,551.537 590.245,570.785 592.353,589.605 594.462,607.996 596.57,625.959 598.678,643.494 600.787,660.587 602.895,677.272 
  605.003,693.602 607.111,709.577 609.22,725.198 611.328,740.464 613.436,755.375 615.544,769.932 617.653,784.134 619.761,797.952 621.869,811.465 623.977,824.697 
  626.086,837.648 628.194,850.317 630.302,862.705 632.411,874.812 634.519,886.638 636.627,898.182 638.735,909.445 640.844,920.426 642.952,931.095 645.06,941.529 
  647.168,951.75 649.277,961.759 651.385,971.555 653.493,981.138 655.601,990.508 657.71,999.666 659.818,1008.61 661.926,1017.34 664.035,1025.86 666.143,1034.17 
  668.251,1042.26 670.359,1050.11 672.468,1057.8 674.576,1065.34 676.684,1072.72 678.792,1079.95 680.901,1087.02 683.009,1093.94 685.117,1100.7 687.225,1107.31 
  689.334,1113.76 691.442,1120.06 693.55,1126.21 695.658,1132.2 697.767,1138.03 699.875,1143.68 701.983,1149.21 704.092,1154.62 706.2,1159.93 708.308,1165.13 
  710.416,1170.22 712.525,1175.2 714.633,1180.08 716.741,1184.85 718.849,1189.5 720.958,1194.05 723.066,1198.5 725.174,1202.83 727.282,1207.06 729.391,1211.17 
  731.499,1215.18 733.607,1219.06 735.716,1222.85 737.824,1226.56 739.932,1230.2 742.04,1233.76 744.149,1237.26 746.257,1240.68 748.365,1244.03 750.473,1247.31 
  752.582,1250.52 754.69,1253.65 756.798,1256.72 758.906,1259.71 761.015,1262.62 763.123,1265.47 765.231,1268.24 767.34,1270.94 769.448,1273.57 771.556,1276.12 
  773.664,1278.58 775.773,1281.01 777.881,1283.38 779.989,1285.71 782.097,1288 784.206,1290.24 786.314,1292.43 788.422,1294.58 790.53,1296.68 792.639,1298.74 
  794.747,1300.75 796.855,1302.72 798.964,1304.64 801.072,1306.51 803.18,1308.34 805.288,1310.13 807.397,1311.86 809.505,1313.55 811.613,1315.2 813.721,1316.8 
  815.83,1318.35 817.938,1319.86 820.046,1321.35 822.154,1322.8 824.263,1324.22 826.371,1325.62 828.479,1326.98 830.588,1328.32 832.696,1329.62 834.804,1330.9 
  836.912,1332.15 839.021,1333.36 841.129,1334.55 843.237,1335.71 845.345,1336.84 847.454,1337.93 849.562,503.015 851.67,523.229 853.778,543.051 855.887,562.482 
  857.995,581.52 860.103,600.168 862.212,618.424 864.32,636.288 866.428,653.761 868.536,670.842 870.645,687.531 872.753,703.829 874.861,719.736 876.969,735.25 
  879.078,750.374 881.186,765.105 883.294,779.445 885.402,793.386 887.511,807.018 889.619,820.358 891.727,833.408 893.836,846.167 895.944,858.635 898.052,870.812 
  900.16,882.698 902.269,894.293 904.377,905.506 906.485,916.472 908.593,927.23 910.702,937.78 912.81,948.121 914.918,958.255 917.026,968.181 919.135,977.899 
  921.243,987.409 923.351,996.71 925.46,1005.8 927.568,1014.69 929.676,1023.37 931.784,1031.84 933.893,1040.1 936.001,1048.15 938.109,1056 940.217,1063.64 
  942.326,1071.07 944.434,1078.27 946.542,1085.32 948.65,1092.22 950.759,1098.97 952.867,1105.59 954.975,1112.06 957.084,1118.39 959.192,1124.57 961.3,1130.61 
  963.408,1136.51 965.517,1142.26 967.625,1147.87 969.733,1153.34 971.841,1158.61 973.95,1163.77 976.058,1168.83 978.166,1173.8 980.274,1178.67 982.383,1183.45 
  984.491,1188.13 986.599,1192.71 988.708,1197.2 990.816,1201.59 992.924,1205.89 995.032,1210.09 997.141,1214.19 999.249,1218.2 1001.36,1222.12 1003.47,1225.93 
  1005.57,1229.66 1007.68,1233.28 1009.79,1236.81 1011.9,1240.25 1014.01,1243.59 1016.11,1246.81 1018.22,1249.96 1020.33,1253.06 1022.44,1256.09 1024.55,1259.06 
  1026.66,1261.96 1028.76,1264.81 1030.87,1267.6 1032.98,1270.33 1035.09,1272.99 1037.2,1275.6 1039.31,1278.14 1041.41,1280.62 1043.52,1283.05 1045.63,1285.41 
  1047.74,1287.71 1049.85,1289.95 1051.96,1292.12 1054.06,1294.21 1056.17,1296.26 1058.28,1298.28 1060.39,1300.26 1062.5,1302.2 1064.61,1304.11 1066.71,1305.98 
  1068.82,1307.81 1070.93,1309.6 1073.04,1311.36 1075.15,1313.08 1077.25,1314.77 1079.36,1316.42 1081.47,1318.03 1083.58,1319.6 1085.69,1321.13 1087.8,1322.63 
  1089.9,1324.1 1092.01,1325.52 1094.12,1326.91 1096.23,1328.26 1098.34,1329.58 1100.45,1330.85 1102.55,1332.09 1104.66,1333.29 1106.77,1334.45 1108.88,1335.59 
  1110.99,1336.71 1113.1,1337.81 1115.2,1338.89 1117.31,1339.94 1119.42,1340.98 1121.53,1341.99 1123.64,1342.98 1125.74,1343.95 1127.85,1344.9 1129.96,1345.83 
  1132.07,1346.74 1134.18,1347.62 1136.29,1348.49 1138.39,1349.33 1140.5,1350.15 1142.61,1350.95 1144.72,1351.73 1146.83,1352.49 1148.94,1353.22 1151.04,890.087 
  1153.15,901.404 1155.26,912.508 1157.37,923.397 1159.48,934.073 1161.59,944.536 1163.69,954.785 1165.8,964.82 1167.91,974.641 1170.02,984.249 1172.13,993.643 
  1174.23,1002.82 1176.34,1011.79 1178.45,1020.54 1180.56,1029.08 1182.67,1037.41 1184.78,1045.52 1186.88,1053.42 1188.99,1061.1 1191.1,1068.57 1193.21,1075.83 
  1195.32,1082.94 1197.43,1089.91 1199.53,1096.72 1201.64,1103.39 1203.75,1109.92 1205.86,1116.29 1207.97,1122.52 1210.08,1128.61 1212.18,1134.54 1214.29,1140.33 
  1216.4,1145.97 1218.51,1151.4 1220.62,1156.72 1222.73,1161.95 1224.83,1167.07 1226.94,1172.1 1229.05,1177.03 1231.16,1181.86 1233.27,1186.6 1235.37,1191.23 
  1237.48,1195.76 1239.59,1200.2 1241.7,1204.53 1243.81,1208.77 1245.92,1212.91 1248.02,1216.95 1250.13,1220.89 1252.24,1224.73 1254.35,1228.48 1256.46,1232.12 
  1258.57,1235.67 1260.67,1239.11 1262.78,1242.45 1264.89,1245.7 1267,1248.88 1269.11,1252.01 1271.22,1255.07 1273.32,1258.07 1275.43,1261.01 1277.54,1263.89 
  1279.65,1266.7 1281.76,1269.45 1283.86,1272.14 1285.97,1274.77 1288.08,1277.33 1290.19,1279.83 1292.3,1282.27 1294.41,1284.64 1296.51,1286.96 1298.62,1289.21 
  1300.73,1291.36 1302.84,1293.48 1304.95,1295.56 1307.06,1297.6 1309.16,1299.6 1311.27,1301.56 1313.38,1303.49 1315.49,1305.38 1317.6,1307.23 1319.71,1309.04 
  1321.81,1310.82 1323.92,1312.55 1326.03,1314.25 1328.14,1315.91 1330.25,1317.54 1332.35,1319.12 1334.46,1320.67 1336.57,1322.18 1338.68,1323.65 1340.79,1325.08 
  1342.9,1326.48 1345,1327.84 1347.11,1329.16 1349.22,1330.44 1351.33,1331.68 1353.44,1332.87 1355.55,1334.04 1357.65,1335.2 1359.76,1336.33 1361.87,1337.44 
  1363.98,1338.52 1366.09,1339.59 1368.2,1340.64 1370.3,1341.66 1372.41,1342.66 1374.52,1343.64 1376.63,1344.6 1378.74,1345.54 1380.85,1346.46 1382.95,1347.36 
  1385.06,1348.23 1387.17,1349.09 1389.28,1349.92 1391.39,1350.73 1393.49,1351.52 1395.6,1352.29 1397.71,1353.03 1399.82,1353.76 1401.93,1354.46 1404.04,1355.14 
  1406.14,1355.8 1408.25,1356.45 1410.36,1357.1 1412.47,1357.72 1414.58,1358.34 1416.69,1358.95 1418.79,1359.54 1420.9,1360.12 1423.01,1360.69 1425.12,1361.24 
  1427.23,1361.79 1429.34,1362.32 1431.44,1362.84 1433.55,1363.34 1435.66,1363.84 1437.77,1364.32 1439.88,1364.79 1441.98,1365.25 1444.09,1365.69 1446.2,1366.13 
  1448.31,1366.55 1450.42,1047.51 1452.53,1055.18 1454.63,1062.71 1456.74,1070.09 1458.85,1077.34 1460.96,1084.45 1463.07,1091.42 1465.18,1098.25 1467.28,1104.94 
  1469.39,1111.5 1471.5,1117.91 1473.61,1124.18 1475.72,1130.32 1477.83,1136.31 1479.93,1142.17 1482.04,1147.88 1484.15,1153.46 1486.26,1158.9 1488.37,1164.19 
  1490.47,1169.35 1492.58,1174.37 1494.69,1179.25 1496.8,1183.99 1498.91,1188.59 1501.02,1193.1 1503.12,1197.52 1505.23,1201.84 1507.34,1206.08 1509.45,1210.22 
  1511.56,1214.26 1513.67,1218.22 1515.77,1222.08 1517.88,1225.85 1519.99,1229.53 1522.1,1233.12 1524.21,1236.6 1526.32,1239.96 1528.42,1243.25 1530.53,1246.48 
  1532.64,1249.65 1534.75,1252.77 1536.86,1255.82 1538.97,1258.81 1541.07,1261.75 1543.18,1264.62 1545.29,1267.44 1547.4,1270.19 1549.51,1272.89 1551.61,1275.53 
  1553.72,1278.11 1555.83,1280.62 1557.94,1283.08 1560.05,1285.48 1562.16,1287.82 1564.26,1290.1 1566.37,1292.32 1568.48,1294.48 1570.59,1296.58 1572.7,1298.62 
  1574.81,1300.61 1576.91,1302.51 1579.02,1304.39 1581.13,1306.23 1583.24,1308.03 1585.35,1309.79 1587.46,1311.53 1589.56,1313.22 1591.67,1314.88 1593.78,1316.51 
  1595.89,1318.1 1598,1319.65 1600.1,1321.17 1602.21,1322.65 1604.32,1324.1 1606.43,1325.51 1608.54,1326.89 1610.65,1328.23 1612.75,1329.53 1614.86,1330.8 
  1616.97,1332.02 1619.08,1333.2 1621.19,1334.36 1623.3,1335.5 1625.4,1336.62 1627.51,1337.72 1629.62,1338.8 1631.73,1339.86 1633.84,1340.9 1635.95,1341.92 
  1638.05,1342.91 1640.16,1343.89 1642.27,1344.85 1644.38,1345.79 1646.49,1346.71 1648.59,1347.61 1650.7,1348.49 1652.81,1349.34 1654.92,1350.18 1657.03,1351 
  1659.14,1351.8 1661.24,1352.57 1663.35,1353.33 1665.46,1354.07 1667.57,1354.79 1669.68,1355.48 1671.79,1356.16 1673.89,1356.82 1676,1357.46 1678.11,1358.06 
  1680.22,1358.66 1682.33,1359.24 1684.44,1359.81 1686.54,1360.37 1688.65,1360.93 1690.76,1361.47 1692.87,1362 1694.98,1362.52 1697.09,1363.03 1699.19,1363.53 
  1701.3,1364.02 1703.41,1364.5 1705.52,1364.97 1707.63,1365.43 1709.73,1365.88 1711.84,1366.32 1713.95,1366.75 1716.06,1367.17 1718.17,1367.58 1720.28,1367.98 
  1722.38,1368.37 1724.49,1368.75 1726.6,1369.11 1728.71,1369.47 1730.82,1369.82 1732.93,1370.16 1735.03,1370.48 1737.14,1370.8 1739.25,1371.11 1741.36,1371.41 
  1743.47,1371.71 1745.58,1372 1747.68,1372.28 1749.79,1372.56 1751.9,1110.45 1754.01,1116.68 1756.12,1122.79 1758.22,1128.8 1760.33,1134.69 1762.44,1140.47 
  1764.55,1146.14 1766.66,1151.7 1768.77,1157.15 1770.87,1162.48 1772.98,1167.71 1775.09,1172.82 1777.2,1177.82 1779.31,1182.71 1781.42,1187.49 1783.52,1192.15 
  1785.63,1196.71 1787.74,1201.15 1789.85,1205.48 1791.96,1209.7 1794.07,1213.81 1796.17,1217.81 1798.28,1221.69 1800.39,1225.47 1802.5,1229.13 1804.61,1232.71 
  1806.71,1236.21 1808.82,1239.64 1810.93,1242.98 1813.04,1246.25 1815.15,1249.44 1817.26,1252.51 1819.36,1255.52 1821.47,1258.48 1823.58,1261.38 1825.69,1264.22 
  1827.8,1267.01 1829.91,1269.74 1832.01,1272.42 1834.12,1275.04 1836.23,1277.6 1838.34,1280.11 1840.45,1282.57 1842.56,1284.97 1844.66,1287.31 1846.77,1289.6 
  1848.88,1291.83 1850.99,1294 1853.1,1296.12 1855.21,1298.19 1857.31,1300.2 1859.42,1302.15 1861.53,1304.05 1863.64,1305.89 1865.75,1307.69 1867.85,1309.46 
  1869.96,1311.19 1872.07,1312.89 1874.18,1314.55 1876.29,1316.17 1878.4,1317.76 1880.5,1319.31 1882.61,1320.82 1884.72,1322.3 1886.83,1323.74 1888.94,1325.14 
  1891.05,1326.51 1893.15,1327.82 1895.26,1329.1 1897.37,1330.36 1899.48,1331.59 1901.59,1332.81 1903.7,1334 1905.8,1335.17 1907.91,1336.31 1910.02,1337.44 
  1912.13,1338.54 1914.24,1339.62 1916.34,1340.68 1918.45,1341.71 1920.56,1342.72 1922.67,1343.71 1924.78,1344.68 1926.89,1345.62 1928.99,1346.55 1931.1,1347.45 
  1933.21,1348.32 1935.32,1349.18 1937.43,1350.01 1939.54,1350.82 1941.64,1351.61 1943.75,1352.38 1945.86,1353.12 1947.97,1353.84 1950.08,1354.53 1952.19,1355.21 
  1954.29,1355.87 1956.4,1356.53 1958.51,1357.17 1960.62,1357.8 1962.73,1358.42 1964.83,1359.02 1966.94,1359.61 1969.05,1360.19 1971.16,1360.76 1973.27,1361.31 
  1975.38,1361.85 1977.48,1362.38 1979.59,1362.9 1981.7,1363.41 1983.81,1363.9 1985.92,1364.38 1988.03,1364.84 1990.13,1365.3 1992.24,1365.74 1994.35,1366.17 
  1996.46,1366.58 1998.57,1366.98 2000.68,1367.37 2002.78,1367.75 2004.89,1368.12 2007,1368.49 2009.11,1368.86 2011.22,1369.21 2013.33,1369.57 2015.43,1369.91 
  2017.54,1370.25 2019.65,1370.58 2021.76,1370.9 2023.87,1371.22 2025.97,1371.54 2028.08,1371.84 2030.19,1372.14 2032.3,1372.44 2034.41,1372.72 2036.52,1373 
  2038.62,1373.28 2040.73,1373.55 2042.84,1373.81 2044.95,1374.06 2047.06,1374.31 2049.17,1374.56 2051.27,1374.79 2053.38,1375.02 2055.49,1375.25 2057.6,1375.46 
  2059.71,1375.67 2061.82,1375.88 2063.92,1376.08 2066.03,1376.27 2068.14,1376.45 2070.25,1376.63 2072.36,1376.8 2074.46,1376.97 2076.57,1377.13 2078.68,1377.3 
  2080.79,1377.46 2082.9,1377.61 2085.01,1377.77 2087.11,1377.92 2089.22,1378.07 2091.33,1378.21 2093.44,1378.36 2095.55,1378.5 2097.66,1378.63 2099.76,1378.77 
  2101.87,1378.9 2103.98,1379.03 2106.09,1379.16 2108.2,1379.28 2110.31,1379.4 2112.41,1379.52 2114.52,1379.63 2116.63,1379.74 2118.74,1379.85 2120.85,1379.96 
  2122.95,1380.06 2125.06,1380.16 2127.17,1380.26 2129.28,1380.36 2131.39,1380.45 2133.5,1380.54 2135.6,1380.63 2137.71,1380.71 2139.82,1380.79 2141.93,1380.87 
  2144.04,1380.94 2146.15,1381.02 2148.25,1381.09 2150.36,1381.16 2152.47,1381.23 2154.58,1381.3 2156.69,1381.37 2158.8,1381.44 2160.9,1381.5 2163.01,1381.57 
  2165.12,1381.63 2167.23,1381.69 2169.34,1381.75 2171.44,1381.81 2173.55,1381.87 2175.66,1381.93 2177.77,1381.99 2179.88,1382.04 2181.99,1382.1 2184.09,1382.15 
  2186.2,1382.2 2188.31,1382.25 2190.42,1382.3 2192.53,1382.35 2194.64,1382.4 2196.74,1382.45 2198.85,1382.49 2200.96,1382.54 2203.07,1382.58 2205.18,1382.62 
  2207.29,1382.66 2209.39,1382.7 2211.5,1382.74 2213.61,1382.78 2215.72,1382.81 2217.83,1382.85 2219.94,1382.88 2222.04,1382.91 2224.15,1382.94 2226.26,1382.97 
  2228.37,1383 2230.48,1383.03 2232.58,1383.06 2234.69,1383.08 2236.8,1383.11 2238.91,1383.13 2241.02,1383.16 2243.13,1383.18 2245.23,1383.21 2247.34,1383.23 
  2249.45,1383.26 2251.56,1383.28 2253.67,1383.3 2255.78,1383.33 2257.88,1383.35 2259.99,1383.37 2262.1,1383.39 2264.21,1383.41 2266.32,1383.43 2268.43,1383.45 
  2270.53,1383.47 2272.64,1383.49 2274.75,1383.51 2276.86,1383.53 2278.97,1383.54 2281.07,1383.56 2283.18,1383.58 2285.29,1383.6 2287.4,1383.61 2289.51,1383.63 
  2291.62,1383.64 2293.72,1383.66 2295.83,1383.67 2297.94,1383.69 2300.05,1383.7 2302.16,1383.71 2304.27,1383.72 2306.37,1383.74 2308.48,1383.75 2310.59,1383.76 
  2312.7,1383.77 2314.81,1383.78 2316.92,1383.79 2319.02,1383.8 2321.13,1383.81 2323.24,1383.82 2325.35,1383.83 2327.46,1383.84 2329.56,1383.85 2331.67,1383.86 
  2333.78,1383.87 2335.89,1383.88 2338,1383.89 2340.11,1383.89 2342.21,1383.9 2344.32,1383.91 2346.43,1383.92 2348.54,1383.93 2350.65,1383.93 2352.76,1383.94 
  
  "/>
<path clip-path="url(#clip720)" d="
M1918.58 196.789 L2282.55 196.789 L2282.55 93.1086 L1918.58 93.1086  Z
  " fill="#ffffff" fill-rule="evenodd" fill-opacity="1"/>
<polyline clip-path="url(#clip720)" style="stroke:#000000; stroke-linecap:butt; stroke-linejoin:round; stroke-width:4; stroke-opacity:1; fill:none" points="
  1918.58,196.789 2282.55,196.789 2282.55,93.1086 1918.58,93.1086 1918.58,196.789 
  "/>
<polyline clip-path="url(#clip720)" style="stroke:#009af9; stroke-linecap:butt; stroke-linejoin:round; stroke-width:4; stroke-opacity:1; fill:none" points="
  1941.98,144.949 2082.39,144.949 
  "/>
<path clip-path="url(#clip720)" d="M2124.71 148.965 Q2124.71 144.335 2122.78 141.789 Q2120.89 139.243 2117.44 139.243 Q2114.01 139.243 2112.09 141.789 Q2110.19 144.335 2110.19 148.965 Q2110.19 153.571 2112.09 156.118 Q2114.01 158.664 2117.44 158.664 Q2120.89 158.664 2122.78 156.118 Q2124.71 153.571 2124.71 148.965 M2128.97 159.011 Q2128.97 165.631 2126.03 168.849 Q2123.09 172.09 2117.02 172.09 Q2114.78 172.09 2112.78 171.742 Q2110.79 171.418 2108.92 170.724 L2108.92 166.58 Q2110.79 167.599 2112.62 168.085 Q2114.45 168.571 2116.35 168.571 Q2120.54 168.571 2122.62 166.372 Q2124.71 164.196 2124.71 159.775 L2124.71 157.668 Q2123.39 159.96 2121.33 161.094 Q2119.27 162.229 2116.4 162.229 Q2111.63 162.229 2108.71 158.594 Q2105.79 154.96 2105.79 148.965 Q2105.79 142.946 2108.71 139.312 Q2111.63 135.678 2116.4 135.678 Q2119.27 135.678 2121.33 136.812 Q2123.39 137.946 2124.71 140.238 L2124.71 136.303 L2128.97 136.303 L2128.97 159.011 Z" fill="#000000" fill-rule="evenodd" fill-opacity="1" /><path clip-path="url(#clip720)" d="M2157.44 170.099 L2157.44 173.409 L2132.81 173.409 L2132.81 170.099 L2157.44 170.099 Z" fill="#000000" fill-rule="evenodd" fill-opacity="1" /><path clip-path="url(#clip720)" d="M2177.97 137.067 L2177.97 141.094 Q2176.16 140.169 2174.22 139.706 Q2172.28 139.243 2170.19 139.243 Q2167.02 139.243 2165.42 140.215 Q2163.85 141.187 2163.85 143.131 Q2163.85 144.613 2164.98 145.469 Q2166.12 146.303 2169.54 147.067 L2171 147.391 Q2175.54 148.363 2177.44 150.145 Q2179.36 151.905 2179.36 155.076 Q2179.36 158.687 2176.49 160.793 Q2173.64 162.9 2168.64 162.9 Q2166.56 162.9 2164.29 162.483 Q2162.04 162.09 2159.54 161.28 L2159.54 156.881 Q2161.9 158.108 2164.2 158.733 Q2166.49 159.335 2168.73 159.335 Q2171.74 159.335 2173.36 158.317 Q2174.98 157.275 2174.98 155.4 Q2174.98 153.664 2173.8 152.738 Q2172.65 151.812 2168.69 150.956 L2167.21 150.608 Q2163.25 149.775 2161.49 148.062 Q2159.73 146.326 2159.73 143.317 Q2159.73 139.659 2162.32 137.669 Q2164.91 135.678 2169.68 135.678 Q2172.04 135.678 2174.13 136.025 Q2176.21 136.372 2177.97 137.067 Z" fill="#000000" fill-rule="evenodd" fill-opacity="1" /><path clip-path="url(#clip720)" d="M2196.93 164.636 Q2195.12 169.266 2193.41 170.678 Q2191.7 172.09 2188.83 172.09 L2185.42 172.09 L2185.42 168.525 L2187.92 168.525 Q2189.68 168.525 2190.65 167.692 Q2191.63 166.858 2192.81 163.756 L2193.57 161.812 L2183.09 136.303 L2187.6 136.303 L2195.7 156.581 L2203.8 136.303 L2208.32 136.303 L2196.93 164.636 Z" fill="#000000" fill-rule="evenodd" fill-opacity="1" /><path clip-path="url(#clip720)" d="M2235.75 146.581 L2235.75 162.229 L2231.49 162.229 L2231.49 146.719 Q2231.49 143.039 2230.05 141.21 Q2228.62 139.382 2225.75 139.382 Q2222.3 139.382 2220.31 141.581 Q2218.32 143.78 2218.32 147.576 L2218.32 162.229 L2214.03 162.229 L2214.03 136.303 L2218.32 136.303 L2218.32 140.331 Q2219.84 137.993 2221.9 136.835 Q2223.99 135.678 2226.7 135.678 Q2231.16 135.678 2233.46 138.456 Q2235.75 141.21 2235.75 146.581 Z" fill="#000000" fill-rule="evenodd" fill-opacity="1" /></svg>
