<?xml version="1.0" encoding="utf-8"?>
<svg xmlns="http://www.w3.org/2000/svg" xmlns:xlink="http://www.w3.org/1999/xlink" width="600" height="400" viewBox="0 0 2400 1600">
<defs>
  <clipPath id="clip280">
    <rect x="0" y="0" width="2400" height="1600"/>
  </clipPath>
</defs>
<path clip-path="url(#clip280)" d="
M0 1600 L2400 1600 L2400 0 L0 0  Z
  " fill="#ffffff" fill-rule="evenodd" fill-opacity="1"/>
<defs>
  <clipPath id="clip281">
    <rect x="480" y="0" width="1681" height="1600"/>
  </clipPath>
</defs>
<path clip-path="url(#clip280)" d="
M178.867 1423.18 L2352.76 1423.18 L2352.76 47.2441 L178.867 47.2441  Z
  " fill="#ffffff" fill-rule="evenodd" fill-opacity="1"/>
<defs>
  <clipPath id="clip282">
    <rect x="178" y="47" width="2175" height="1377"/>
  </clipPath>
</defs>
<polyline clip-path="url(#clip282)" style="stroke:#000000; stroke-linecap:butt; stroke-linejoin:round; stroke-width:2; stroke-opacity:0.1; fill:none" points="
  178.867,1423.18 178.867,47.2441 
  "/>
<polyline clip-path="url(#clip282)" style="stroke:#000000; stroke-linecap:butt; stroke-linejoin:round; stroke-width:2; stroke-opacity:0.1; fill:none" points="
  722.339,1423.18 722.339,47.2441 
  "/>
<polyline clip-path="url(#clip282)" style="stroke:#000000; stroke-linecap:butt; stroke-linejoin:round; stroke-width:2; stroke-opacity:0.1; fill:none" points="
  1265.81,1423.18 1265.81,47.2441 
  "/>
<polyline clip-path="url(#clip282)" style="stroke:#000000; stroke-linecap:butt; stroke-linejoin:round; stroke-width:2; stroke-opacity:0.1; fill:none" points="
  1809.28,1423.18 1809.28,47.2441 
  "/>
<polyline clip-path="url(#clip282)" style="stroke:#000000; stroke-linecap:butt; stroke-linejoin:round; stroke-width:2; stroke-opacity:0.1; fill:none" points="
  2352.76,1423.18 2352.76,47.2441 
  "/>
<polyline clip-path="url(#clip280)" style="stroke:#000000; stroke-linecap:butt; stroke-linejoin:round; stroke-width:4; stroke-opacity:1; fill:none" points="
  178.867,1423.18 2352.76,1423.18 
  "/>
<polyline clip-path="url(#clip280)" style="stroke:#000000; stroke-linecap:butt; stroke-linejoin:round; stroke-width:4; stroke-opacity:1; fill:none" points="
  178.867,1423.18 178.867,1404.28 
  "/>
<polyline clip-path="url(#clip280)" style="stroke:#000000; stroke-linecap:butt; stroke-linejoin:round; stroke-width:4; stroke-opacity:1; fill:none" points="
  722.339,1423.18 722.339,1404.28 
  "/>
<polyline clip-path="url(#clip280)" style="stroke:#000000; stroke-linecap:butt; stroke-linejoin:round; stroke-width:4; stroke-opacity:1; fill:none" points="
  1265.81,1423.18 1265.81,1404.28 
  "/>
<polyline clip-path="url(#clip280)" style="stroke:#000000; stroke-linecap:butt; stroke-linejoin:round; stroke-width:4; stroke-opacity:1; fill:none" points="
  1809.28,1423.18 1809.28,1404.28 
  "/>
<polyline clip-path="url(#clip280)" style="stroke:#000000; stroke-linecap:butt; stroke-linejoin:round; stroke-width:4; stroke-opacity:1; fill:none" points="
  2352.76,1423.18 2352.76,1404.28 
  "/>
<path clip-path="url(#clip280)" d="M178.867 1454.1 Q175.256 1454.1 173.427 1457.66 Q171.621 1461.2 171.621 1468.33 Q171.621 1475.44 173.427 1479.01 Q175.256 1482.55 178.867 1482.55 Q182.501 1482.55 184.306 1479.01 Q186.135 1475.44 186.135 1468.33 Q186.135 1461.2 184.306 1457.66 Q182.501 1454.1 178.867 1454.1 M178.867 1450.39 Q184.677 1450.39 187.732 1455 Q190.811 1459.58 190.811 1468.33 Q190.811 1477.06 187.732 1481.67 Q184.677 1486.25 178.867 1486.25 Q173.056 1486.25 169.978 1481.67 Q166.922 1477.06 166.922 1468.33 Q166.922 1459.58 169.978 1455 Q173.056 1450.39 178.867 1450.39 Z" fill="#000000" fill-rule="evenodd" fill-opacity="1" /><path clip-path="url(#clip280)" d="M697.027 1481.64 L704.665 1481.64 L704.665 1455.28 L696.355 1456.95 L696.355 1452.69 L704.619 1451.02 L709.295 1451.02 L709.295 1481.64 L716.934 1481.64 L716.934 1485.58 L697.027 1485.58 L697.027 1481.64 Z" fill="#000000" fill-rule="evenodd" fill-opacity="1" /><path clip-path="url(#clip280)" d="M736.378 1454.1 Q732.767 1454.1 730.938 1457.66 Q729.133 1461.2 729.133 1468.33 Q729.133 1475.44 730.938 1479.01 Q732.767 1482.55 736.378 1482.55 Q740.012 1482.55 741.818 1479.01 Q743.647 1475.44 743.647 1468.33 Q743.647 1461.2 741.818 1457.66 Q740.012 1454.1 736.378 1454.1 M736.378 1450.39 Q742.188 1450.39 745.244 1455 Q748.323 1459.58 748.323 1468.33 Q748.323 1477.06 745.244 1481.67 Q742.188 1486.25 736.378 1486.25 Q730.568 1486.25 727.489 1481.67 Q724.434 1477.06 724.434 1468.33 Q724.434 1459.58 727.489 1455 Q730.568 1450.39 736.378 1450.39 Z" fill="#000000" fill-rule="evenodd" fill-opacity="1" /><path clip-path="url(#clip280)" d="M1244.58 1481.64 L1260.9 1481.64 L1260.9 1485.58 L1238.96 1485.58 L1238.96 1481.64 Q1241.62 1478.89 1246.2 1474.26 Q1250.81 1469.61 1251.99 1468.27 Q1254.24 1465.74 1255.12 1464.01 Q1256.02 1462.25 1256.02 1460.56 Q1256.02 1457.8 1254.08 1456.07 Q1252.15 1454.33 1249.05 1454.33 Q1246.85 1454.33 1244.4 1455.09 Q1241.97 1455.86 1239.19 1457.41 L1239.19 1452.69 Q1242.02 1451.55 1244.47 1450.97 Q1246.92 1450.39 1248.96 1450.39 Q1254.33 1450.39 1257.52 1453.08 Q1260.72 1455.77 1260.72 1460.26 Q1260.72 1462.39 1259.91 1464.31 Q1259.12 1466.2 1257.02 1468.8 Q1256.44 1469.47 1253.33 1472.69 Q1250.23 1475.88 1244.58 1481.64 Z" fill="#000000" fill-rule="evenodd" fill-opacity="1" /><path clip-path="url(#clip280)" d="M1280.72 1454.1 Q1277.11 1454.1 1275.28 1457.66 Q1273.47 1461.2 1273.47 1468.33 Q1273.47 1475.44 1275.28 1479.01 Q1277.11 1482.55 1280.72 1482.55 Q1284.35 1482.55 1286.16 1479.01 Q1287.99 1475.44 1287.99 1468.33 Q1287.99 1461.2 1286.16 1457.66 Q1284.35 1454.1 1280.72 1454.1 M1280.72 1450.39 Q1286.53 1450.39 1289.58 1455 Q1292.66 1459.58 1292.66 1468.33 Q1292.66 1477.06 1289.58 1481.67 Q1286.53 1486.25 1280.72 1486.25 Q1274.91 1486.25 1271.83 1481.67 Q1268.77 1477.06 1268.77 1468.33 Q1268.77 1459.58 1271.83 1455 Q1274.91 1450.39 1280.72 1450.39 Z" fill="#000000" fill-rule="evenodd" fill-opacity="1" /><path clip-path="url(#clip280)" d="M1798.13 1466.95 Q1801.48 1467.66 1803.36 1469.93 Q1805.26 1472.2 1805.26 1475.53 Q1805.26 1480.65 1801.74 1483.45 Q1798.22 1486.25 1791.74 1486.25 Q1789.56 1486.25 1787.25 1485.81 Q1784.96 1485.39 1782.5 1484.54 L1782.5 1480.02 Q1784.45 1481.16 1786.76 1481.74 Q1789.08 1482.32 1791.6 1482.32 Q1796 1482.32 1798.29 1480.58 Q1800.6 1478.84 1800.6 1475.53 Q1800.6 1472.48 1798.45 1470.77 Q1796.32 1469.03 1792.5 1469.03 L1788.47 1469.03 L1788.47 1465.19 L1792.69 1465.19 Q1796.14 1465.19 1797.96 1463.82 Q1799.79 1462.43 1799.79 1459.84 Q1799.79 1457.18 1797.89 1455.77 Q1796.02 1454.33 1792.5 1454.33 Q1790.58 1454.33 1788.38 1454.75 Q1786.18 1455.16 1783.54 1456.04 L1783.54 1451.88 Q1786.21 1451.14 1788.52 1450.77 Q1790.86 1450.39 1792.92 1450.39 Q1798.24 1450.39 1801.34 1452.83 Q1804.45 1455.23 1804.45 1459.35 Q1804.45 1462.22 1802.8 1464.21 Q1801.16 1466.18 1798.13 1466.95 Z" fill="#000000" fill-rule="evenodd" fill-opacity="1" /><path clip-path="url(#clip280)" d="M1824.12 1454.1 Q1820.51 1454.1 1818.68 1457.66 Q1816.88 1461.2 1816.88 1468.33 Q1816.88 1475.44 1818.68 1479.01 Q1820.51 1482.55 1824.12 1482.55 Q1827.76 1482.55 1829.56 1479.01 Q1831.39 1475.44 1831.39 1468.33 Q1831.39 1461.2 1829.56 1457.66 Q1827.76 1454.1 1824.12 1454.1 M1824.12 1450.39 Q1829.93 1450.39 1832.99 1455 Q1836.07 1459.58 1836.07 1468.33 Q1836.07 1477.06 1832.99 1481.67 Q1829.93 1486.25 1824.12 1486.25 Q1818.31 1486.25 1815.23 1481.67 Q1812.18 1477.06 1812.18 1468.33 Q1812.18 1459.58 1815.23 1455 Q1818.31 1450.39 1824.12 1450.39 Z" fill="#000000" fill-rule="evenodd" fill-opacity="1" /><path clip-path="url(#clip280)" d="M2340.93 1455.09 L2329.12 1473.54 L2340.93 1473.54 L2340.93 1455.09 M2339.7 1451.02 L2345.58 1451.02 L2345.58 1473.54 L2350.51 1473.54 L2350.51 1477.43 L2345.58 1477.43 L2345.58 1485.58 L2340.93 1485.58 L2340.93 1477.43 L2325.33 1477.43 L2325.33 1472.92 L2339.7 1451.02 Z" fill="#000000" fill-rule="evenodd" fill-opacity="1" /><path clip-path="url(#clip280)" d="M2368.24 1454.1 Q2364.63 1454.1 2362.8 1457.66 Q2361 1461.2 2361 1468.33 Q2361 1475.44 2362.8 1479.01 Q2364.63 1482.55 2368.24 1482.55 Q2371.88 1482.55 2373.68 1479.01 Q2375.51 1475.44 2375.51 1468.33 Q2375.51 1461.2 2373.68 1457.66 Q2371.88 1454.1 2368.24 1454.1 M2368.24 1450.39 Q2374.05 1450.39 2377.11 1455 Q2380.19 1459.58 2380.19 1468.33 Q2380.19 1477.06 2377.11 1481.67 Q2374.05 1486.25 2368.24 1486.25 Q2362.43 1486.25 2359.35 1481.67 Q2356.3 1477.06 2356.3 1468.33 Q2356.3 1459.58 2359.35 1455 Q2362.43 1450.39 2368.24 1450.39 Z" fill="#000000" fill-rule="evenodd" fill-opacity="1" /><path clip-path="url(#clip280)" d="M1264.87 1522.27 L1264.87 1532.4 L1276.94 1532.4 L1276.94 1536.95 L1264.87 1536.95 L1264.87 1556.3 Q1264.87 1560.66 1266.05 1561.9 Q1267.26 1563.14 1270.92 1563.14 L1276.94 1563.14 L1276.94 1568.04 L1270.92 1568.04 Q1264.14 1568.04 1261.56 1565.53 Q1258.98 1562.98 1258.98 1556.3 L1258.98 1536.95 L1254.69 1536.95 L1254.69 1532.4 L1258.98 1532.4 L1258.98 1522.27 L1264.87 1522.27 Z" fill="#000000" fill-rule="evenodd" fill-opacity="1" /><polyline clip-path="url(#clip282)" style="stroke:#000000; stroke-linecap:butt; stroke-linejoin:round; stroke-width:2; stroke-opacity:0.1; fill:none" points="
  178.867,1384.24 2352.76,1384.24 
  "/>
<polyline clip-path="url(#clip282)" style="stroke:#000000; stroke-linecap:butt; stroke-linejoin:round; stroke-width:2; stroke-opacity:0.1; fill:none" points="
  178.867,1174.83 2352.76,1174.83 
  "/>
<polyline clip-path="url(#clip282)" style="stroke:#000000; stroke-linecap:butt; stroke-linejoin:round; stroke-width:2; stroke-opacity:0.1; fill:none" points="
  178.867,965.418 2352.76,965.418 
  "/>
<polyline clip-path="url(#clip282)" style="stroke:#000000; stroke-linecap:butt; stroke-linejoin:round; stroke-width:2; stroke-opacity:0.1; fill:none" points="
  178.867,756.008 2352.76,756.008 
  "/>
<polyline clip-path="url(#clip282)" style="stroke:#000000; stroke-linecap:butt; stroke-linejoin:round; stroke-width:2; stroke-opacity:0.1; fill:none" points="
  178.867,546.598 2352.76,546.598 
  "/>
<polyline clip-path="url(#clip282)" style="stroke:#000000; stroke-linecap:butt; stroke-linejoin:round; stroke-width:2; stroke-opacity:0.1; fill:none" points="
  178.867,337.187 2352.76,337.187 
  "/>
<polyline clip-path="url(#clip282)" style="stroke:#000000; stroke-linecap:butt; stroke-linejoin:round; stroke-width:2; stroke-opacity:0.1; fill:none" points="
  178.867,127.777 2352.76,127.777 
  "/>
<polyline clip-path="url(#clip280)" style="stroke:#000000; stroke-linecap:butt; stroke-linejoin:round; stroke-width:4; stroke-opacity:1; fill:none" points="
  178.867,1423.18 178.867,47.2441 
  "/>
<polyline clip-path="url(#clip280)" style="stroke:#000000; stroke-linecap:butt; stroke-linejoin:round; stroke-width:4; stroke-opacity:1; fill:none" points="
  178.867,1384.24 197.764,1384.24 
  "/>
<polyline clip-path="url(#clip280)" style="stroke:#000000; stroke-linecap:butt; stroke-linejoin:round; stroke-width:4; stroke-opacity:1; fill:none" points="
  178.867,1174.83 197.764,1174.83 
  "/>
<polyline clip-path="url(#clip280)" style="stroke:#000000; stroke-linecap:butt; stroke-linejoin:round; stroke-width:4; stroke-opacity:1; fill:none" points="
  178.867,965.418 197.764,965.418 
  "/>
<polyline clip-path="url(#clip280)" style="stroke:#000000; stroke-linecap:butt; stroke-linejoin:round; stroke-width:4; stroke-opacity:1; fill:none" points="
  178.867,756.008 197.764,756.008 
  "/>
<polyline clip-path="url(#clip280)" style="stroke:#000000; stroke-linecap:butt; stroke-linejoin:round; stroke-width:4; stroke-opacity:1; fill:none" points="
  178.867,546.598 197.764,546.598 
  "/>
<polyline clip-path="url(#clip280)" style="stroke:#000000; stroke-linecap:butt; stroke-linejoin:round; stroke-width:4; stroke-opacity:1; fill:none" points="
  178.867,337.187 197.764,337.187 
  "/>
<polyline clip-path="url(#clip280)" style="stroke:#000000; stroke-linecap:butt; stroke-linejoin:round; stroke-width:4; stroke-opacity:1; fill:none" points="
  178.867,127.777 197.764,127.777 
  "/>
<path clip-path="url(#clip280)" d="M51.9875 1384.69 L81.6633 1384.69 L81.6633 1388.62 L51.9875 1388.62 L51.9875 1384.69 Z" fill="#000000" fill-rule="evenodd" fill-opacity="1" /><path clip-path="url(#clip280)" d="M90.5752 1366.96 L112.797 1366.96 L112.797 1368.95 L100.251 1401.52 L95.3669 1401.52 L107.172 1370.89 L90.5752 1370.89 L90.5752 1366.96 Z" fill="#000000" fill-rule="evenodd" fill-opacity="1" /><path clip-path="url(#clip280)" d="M121.964 1366.96 L140.32 1366.96 L140.32 1370.89 L126.246 1370.89 L126.246 1379.37 Q127.265 1379.02 128.283 1378.86 Q129.302 1378.67 130.32 1378.67 Q136.107 1378.67 139.487 1381.84 Q142.867 1385.01 142.867 1390.43 Q142.867 1396.01 139.394 1399.11 Q135.922 1402.19 129.603 1402.19 Q127.427 1402.19 125.158 1401.82 Q122.913 1401.45 120.506 1400.71 L120.506 1396.01 Q122.589 1397.14 124.811 1397.7 Q127.033 1398.25 129.51 1398.25 Q133.515 1398.25 135.853 1396.15 Q138.191 1394.04 138.191 1390.43 Q138.191 1386.82 135.853 1384.71 Q133.515 1382.61 129.51 1382.61 Q127.635 1382.61 125.76 1383.02 Q123.908 1383.44 121.964 1384.32 L121.964 1366.96 Z" fill="#000000" fill-rule="evenodd" fill-opacity="1" /><path clip-path="url(#clip280)" d="M50.9921 1175.28 L80.6679 1175.28 L80.6679 1179.21 L50.9921 1179.21 L50.9921 1175.28 Z" fill="#000000" fill-rule="evenodd" fill-opacity="1" /><path clip-path="url(#clip280)" d="M89.5799 1157.55 L111.802 1157.55 L111.802 1159.54 L99.2558 1192.11 L94.3715 1192.11 L106.177 1161.48 L89.5799 1161.48 L89.5799 1157.55 Z" fill="#000000" fill-rule="evenodd" fill-opacity="1" /><path clip-path="url(#clip280)" d="M130.922 1160.63 Q127.311 1160.63 125.482 1164.19 Q123.677 1167.73 123.677 1174.86 Q123.677 1181.97 125.482 1185.53 Q127.311 1189.08 130.922 1189.08 Q134.556 1189.08 136.362 1185.53 Q138.191 1181.97 138.191 1174.86 Q138.191 1167.73 136.362 1164.19 Q134.556 1160.63 130.922 1160.63 M130.922 1156.92 Q136.732 1156.92 139.788 1161.53 Q142.867 1166.11 142.867 1174.86 Q142.867 1183.59 139.788 1188.2 Q136.732 1192.78 130.922 1192.78 Q125.112 1192.78 122.033 1188.2 Q118.978 1183.59 118.978 1174.86 Q118.978 1166.11 122.033 1161.53 Q125.112 1156.92 130.922 1156.92 Z" fill="#000000" fill-rule="evenodd" fill-opacity="1" /><path clip-path="url(#clip280)" d="M51.9875 965.869 L81.6633 965.869 L81.6633 969.805 L51.9875 969.805 L51.9875 965.869 Z" fill="#000000" fill-rule="evenodd" fill-opacity="1" /><path clip-path="url(#clip280)" d="M102.334 963.555 Q99.1863 963.555 97.3345 965.707 Q95.5058 967.86 95.5058 971.61 Q95.5058 975.337 97.3345 977.513 Q99.1863 979.666 102.334 979.666 Q105.483 979.666 107.311 977.513 Q109.163 975.337 109.163 971.61 Q109.163 967.86 107.311 965.707 Q105.483 963.555 102.334 963.555 M111.617 948.902 L111.617 953.161 Q109.858 952.328 108.052 951.888 Q106.27 951.448 104.51 951.448 Q99.8808 951.448 97.4271 954.573 Q94.9965 957.698 94.6493 964.017 Q96.015 962.004 98.0752 960.939 Q100.135 959.851 102.612 959.851 Q107.821 959.851 110.83 963.022 Q113.862 966.17 113.862 971.61 Q113.862 976.934 110.714 980.152 Q107.566 983.369 102.334 983.369 Q96.3391 983.369 93.1678 978.786 Q89.9965 974.179 89.9965 965.453 Q89.9965 957.258 93.8854 952.397 Q97.7743 947.513 104.325 947.513 Q106.084 947.513 107.867 947.86 Q109.672 948.207 111.617 948.902 Z" fill="#000000" fill-rule="evenodd" fill-opacity="1" /><path clip-path="url(#clip280)" d="M121.964 948.138 L140.32 948.138 L140.32 952.073 L126.246 952.073 L126.246 960.545 Q127.265 960.198 128.283 960.036 Q129.302 959.851 130.32 959.851 Q136.107 959.851 139.487 963.022 Q142.867 966.193 142.867 971.61 Q142.867 977.189 139.394 980.291 Q135.922 983.369 129.603 983.369 Q127.427 983.369 125.158 982.999 Q122.913 982.629 120.506 981.888 L120.506 977.189 Q122.589 978.323 124.811 978.879 Q127.033 979.434 129.51 979.434 Q133.515 979.434 135.853 977.328 Q138.191 975.221 138.191 971.61 Q138.191 967.999 135.853 965.892 Q133.515 963.786 129.51 963.786 Q127.635 963.786 125.76 964.203 Q123.908 964.619 121.964 965.499 L121.964 948.138 Z" fill="#000000" fill-rule="evenodd" fill-opacity="1" /><path clip-path="url(#clip280)" d="M50.9921 756.459 L80.6679 756.459 L80.6679 760.394 L50.9921 760.394 L50.9921 756.459 Z" fill="#000000" fill-rule="evenodd" fill-opacity="1" /><path clip-path="url(#clip280)" d="M101.339 754.144 Q98.1909 754.144 96.3391 756.297 Q94.5104 758.45 94.5104 762.2 Q94.5104 765.927 96.3391 768.103 Q98.1909 770.255 101.339 770.255 Q104.487 770.255 106.316 768.103 Q108.168 765.927 108.168 762.2 Q108.168 758.45 106.316 756.297 Q104.487 754.144 101.339 754.144 M110.621 739.492 L110.621 743.751 Q108.862 742.918 107.057 742.478 Q105.274 742.038 103.515 742.038 Q98.8854 742.038 96.4317 745.163 Q94.0012 748.288 93.6539 754.607 Q95.0197 752.593 97.0798 751.529 Q99.14 750.441 101.617 750.441 Q106.825 750.441 109.834 753.612 Q112.867 756.76 112.867 762.2 Q112.867 767.524 109.719 770.742 Q106.571 773.959 101.339 773.959 Q95.3437 773.959 92.1725 769.376 Q89.0012 764.769 89.0012 756.043 Q89.0012 747.848 92.89 742.987 Q96.7789 738.103 103.33 738.103 Q105.089 738.103 106.871 738.45 Q108.677 738.797 110.621 739.492 Z" fill="#000000" fill-rule="evenodd" fill-opacity="1" /><path clip-path="url(#clip280)" d="M130.922 741.806 Q127.311 741.806 125.482 745.371 Q123.677 748.913 123.677 756.043 Q123.677 763.149 125.482 766.714 Q127.311 770.255 130.922 770.255 Q134.556 770.255 136.362 766.714 Q138.191 763.149 138.191 756.043 Q138.191 748.913 136.362 745.371 Q134.556 741.806 130.922 741.806 M130.922 738.103 Q136.732 738.103 139.788 742.709 Q142.867 747.293 142.867 756.043 Q142.867 764.769 139.788 769.376 Q136.732 773.959 130.922 773.959 Q125.112 773.959 122.033 769.376 Q118.978 764.769 118.978 756.043 Q118.978 747.293 122.033 742.709 Q125.112 738.103 130.922 738.103 Z" fill="#000000" fill-rule="evenodd" fill-opacity="1" /><path clip-path="url(#clip280)" d="M51.9875 547.049 L81.6633 547.049 L81.6633 550.984 L51.9875 550.984 L51.9875 547.049 Z" fill="#000000" fill-rule="evenodd" fill-opacity="1" /><path clip-path="url(#clip280)" d="M91.8021 529.318 L110.158 529.318 L110.158 533.253 L96.0845 533.253 L96.0845 541.725 Q97.103 541.378 98.1215 541.216 Q99.14 541.031 100.159 541.031 Q105.946 541.031 109.325 544.202 Q112.705 547.373 112.705 552.79 Q112.705 558.368 109.233 561.47 Q105.76 564.549 99.4409 564.549 Q97.265 564.549 94.9965 564.179 Q92.7512 563.808 90.3438 563.067 L90.3438 558.368 Q92.4271 559.503 94.6493 560.058 Q96.8715 560.614 99.3483 560.614 Q103.353 560.614 105.691 558.507 Q108.029 556.401 108.029 552.79 Q108.029 549.179 105.691 547.072 Q103.353 544.966 99.3483 544.966 Q97.4734 544.966 95.5984 545.382 Q93.7465 545.799 91.8021 546.679 L91.8021 529.318 Z" fill="#000000" fill-rule="evenodd" fill-opacity="1" /><path clip-path="url(#clip280)" d="M121.964 529.318 L140.32 529.318 L140.32 533.253 L126.246 533.253 L126.246 541.725 Q127.265 541.378 128.283 541.216 Q129.302 541.031 130.32 541.031 Q136.107 541.031 139.487 544.202 Q142.867 547.373 142.867 552.79 Q142.867 558.368 139.394 561.47 Q135.922 564.549 129.603 564.549 Q127.427 564.549 125.158 564.179 Q122.913 563.808 120.506 563.067 L120.506 558.368 Q122.589 559.503 124.811 560.058 Q127.033 560.614 129.51 560.614 Q133.515 560.614 135.853 558.507 Q138.191 556.401 138.191 552.79 Q138.191 549.179 135.853 547.072 Q133.515 544.966 129.51 544.966 Q127.635 544.966 125.76 545.382 Q123.908 545.799 121.964 546.679 L121.964 529.318 Z" fill="#000000" fill-rule="evenodd" fill-opacity="1" /><path clip-path="url(#clip280)" d="M50.9921 337.639 L80.6679 337.639 L80.6679 341.574 L50.9921 341.574 L50.9921 337.639 Z" fill="#000000" fill-rule="evenodd" fill-opacity="1" /><path clip-path="url(#clip280)" d="M90.8067 319.907 L109.163 319.907 L109.163 323.843 L95.0891 323.843 L95.0891 332.315 Q96.1076 331.968 97.1261 331.806 Q98.1447 331.62 99.1632 331.62 Q104.95 331.62 108.33 334.792 Q111.709 337.963 111.709 343.38 Q111.709 348.958 108.237 352.06 Q104.765 355.139 98.4456 355.139 Q96.2697 355.139 94.0012 354.768 Q91.7558 354.398 89.3484 353.657 L89.3484 348.958 Q91.4317 350.093 93.6539 350.648 Q95.8761 351.204 98.353 351.204 Q102.358 351.204 104.696 349.097 Q107.033 346.991 107.033 343.38 Q107.033 339.768 104.696 337.662 Q102.358 335.556 98.353 335.556 Q96.478 335.556 94.603 335.972 Q92.7512 336.389 90.8067 337.269 L90.8067 319.907 Z" fill="#000000" fill-rule="evenodd" fill-opacity="1" /><path clip-path="url(#clip280)" d="M130.922 322.986 Q127.311 322.986 125.482 326.551 Q123.677 330.093 123.677 337.222 Q123.677 344.329 125.482 347.893 Q127.311 351.435 130.922 351.435 Q134.556 351.435 136.362 347.893 Q138.191 344.329 138.191 337.222 Q138.191 330.093 136.362 326.551 Q134.556 322.986 130.922 322.986 M130.922 319.282 Q136.732 319.282 139.788 323.889 Q142.867 328.472 142.867 337.222 Q142.867 345.949 139.788 350.555 Q136.732 355.139 130.922 355.139 Q125.112 355.139 122.033 350.555 Q118.978 345.949 118.978 337.222 Q118.978 328.472 122.033 323.889 Q125.112 319.282 130.922 319.282 Z" fill="#000000" fill-rule="evenodd" fill-opacity="1" /><path clip-path="url(#clip280)" d="M51.9875 128.229 L81.6633 128.229 L81.6633 132.164 L51.9875 132.164 L51.9875 128.229 Z" fill="#000000" fill-rule="evenodd" fill-opacity="1" /><path clip-path="url(#clip280)" d="M104.603 114.571 L92.7975 133.02 L104.603 133.02 L104.603 114.571 M103.376 110.497 L109.256 110.497 L109.256 133.02 L114.186 133.02 L114.186 136.909 L109.256 136.909 L109.256 145.057 L104.603 145.057 L104.603 136.909 L89.0012 136.909 L89.0012 132.395 L103.376 110.497 Z" fill="#000000" fill-rule="evenodd" fill-opacity="1" /><path clip-path="url(#clip280)" d="M121.964 110.497 L140.32 110.497 L140.32 114.432 L126.246 114.432 L126.246 122.905 Q127.265 122.557 128.283 122.395 Q129.302 122.21 130.32 122.21 Q136.107 122.21 139.487 125.382 Q142.867 128.553 142.867 133.969 Q142.867 139.548 139.394 142.65 Q135.922 145.729 129.603 145.729 Q127.427 145.729 125.158 145.358 Q122.913 144.988 120.506 144.247 L120.506 139.548 Q122.589 140.682 124.811 141.238 Q127.033 141.793 129.51 141.793 Q133.515 141.793 135.853 139.687 Q138.191 137.581 138.191 133.969 Q138.191 130.358 135.853 128.252 Q133.515 126.145 129.51 126.145 Q127.635 126.145 125.76 126.562 Q123.908 126.979 121.964 127.858 L121.964 110.497 Z" fill="#000000" fill-rule="evenodd" fill-opacity="1" /><polyline clip-path="url(#clip282)" style="stroke:#009af9; stroke-linecap:butt; stroke-linejoin:round; stroke-width:8; stroke-opacity:1; fill:none" points="
  178.867,1384.24 180.845,1384.24 182.823,1384.24 184.801,1384.24 186.779,1384.24 188.757,1384.24 190.735,1384.24 192.713,1384.24 194.691,1384.24 196.669,1384.24 
  198.647,1384.24 200.625,1384.24 202.603,1384.24 204.581,1384.24 206.559,1384.24 208.538,1384.24 210.516,1384.24 212.494,1384.24 214.472,1384.24 216.45,1384.24 
  218.428,1384.24 220.406,1384.24 222.384,1384.24 224.362,1384.24 226.34,1384.24 228.318,1384.24 230.296,1384.24 232.274,1384.24 234.252,1384.24 236.23,1384.24 
  238.208,1384.24 240.187,1384.24 242.165,1384.24 244.143,1384.24 246.121,1384.24 248.099,1384.24 250.077,1384.24 252.055,1384.24 254.033,1384.24 256.011,1384.24 
  257.989,1384.24 259.967,1384.24 261.945,1384.24 263.923,1384.24 265.901,1384.24 267.879,1384.24 269.857,1384.24 271.836,1384.24 273.814,1384.24 275.792,1384.24 
  277.77,1384.24 279.748,1384.24 281.726,1384.24 283.704,1384.24 285.682,1384.24 287.66,1384.24 289.638,1384.24 291.616,1384.24 293.594,1384.24 295.572,1384.24 
  297.55,1384.24 299.528,1384.24 301.506,1384.24 303.484,1384.24 305.463,1384.24 307.441,1384.24 309.419,1384.24 311.397,1384.24 313.375,1384.24 315.353,1384.24 
  317.331,1384.24 319.309,1384.24 321.287,1384.24 323.265,1384.24 325.243,1384.24 327.221,1384.24 329.199,1384.24 331.177,1384.24 333.155,1384.24 335.133,1384.24 
  337.112,1384.24 339.09,1384.24 341.068,1384.24 343.046,1384.24 345.024,1384.24 347.002,1384.24 348.98,1384.24 350.958,1384.24 352.936,1384.24 354.914,1384.24 
  356.892,1384.24 358.87,1384.24 360.848,1384.24 362.826,1384.24 364.804,1384.24 366.782,1384.24 368.761,1384.24 370.739,1384.24 372.717,1384.24 374.695,1384.24 
  376.673,1384.24 378.651,1384.24 380.629,1384.24 382.607,1384.24 384.585,1384.24 386.563,1384.24 388.541,1384.24 390.519,1384.24 392.497,1384.24 394.475,1384.24 
  396.453,1384.24 398.431,1384.24 400.409,1384.24 402.388,1384.24 404.366,1384.24 406.344,1384.24 408.322,1384.24 410.3,1384.24 412.278,1384.24 414.256,1384.24 
  416.234,1384.24 418.212,1384.24 420.19,1384.24 422.168,1384.24 424.146,1384.24 426.124,1384.24 428.102,1384.24 430.08,1384.24 432.058,1384.24 434.037,1384.24 
  436.015,1384.24 437.993,1384.24 439.971,1384.24 441.949,1384.24 443.927,1384.24 445.905,1384.24 447.883,1384.24 449.861,1384.24 451.839,1384.24 453.817,1384.24 
  455.795,1384.24 457.773,1384.24 459.751,1384.24 461.729,1384.24 463.707,1384.24 465.686,1384.24 467.664,1384.24 469.642,1384.24 471.62,1384.24 473.598,1384.24 
  475.576,1384.24 477.554,1384.24 479.532,1384.24 481.51,1384.24 483.488,1384.24 485.466,1384.24 487.444,1384.24 489.422,1384.24 491.4,1384.24 493.378,1384.24 
  495.356,1384.24 497.334,1384.24 499.313,1384.24 501.291,1384.24 503.269,1384.24 505.247,1384.24 507.225,1384.24 509.203,1384.24 511.181,1384.24 513.159,1384.24 
  515.137,1384.24 517.115,1384.24 519.093,1384.24 521.071,1384.24 523.049,1384.24 525.027,1384.24 527.005,1384.24 528.983,1384.24 530.962,1384.24 532.94,1384.24 
  534.918,1384.24 536.896,1384.24 538.874,1384.24 540.852,1384.24 542.83,1384.24 544.808,1384.24 546.786,1384.24 548.764,1384.24 550.742,1384.24 552.72,1384.24 
  554.698,1384.24 556.676,1384.24 558.654,1384.24 560.632,1384.24 562.611,1384.24 564.589,1384.24 566.567,1384.24 568.545,1384.24 570.523,1384.24 572.501,1384.24 
  574.479,1384.24 576.457,1384.24 578.435,1384.24 580.413,1384.24 582.391,1384.24 584.369,1384.24 586.347,1384.24 588.325,1384.24 590.303,1384.24 592.281,1384.24 
  594.259,1384.24 596.238,1384.24 598.216,1384.24 600.194,1384.24 602.172,1384.24 604.15,1384.24 606.128,1384.24 608.106,1384.24 610.084,1384.24 612.062,1384.24 
  614.04,1384.24 616.018,1384.24 617.996,1384.24 619.974,1384.24 621.952,1384.24 623.93,1384.24 625.908,1384.24 627.887,1384.24 629.865,1384.24 631.843,1384.24 
  633.821,1384.24 635.799,1384.24 637.777,1384.24 639.755,1384.24 641.733,1384.24 643.711,1384.24 645.689,1384.24 647.667,1384.24 649.645,1384.24 651.623,1384.24 
  653.601,1384.24 655.579,1384.24 657.557,1384.24 659.536,1384.24 661.514,1384.24 663.492,1384.24 665.47,1384.24 667.448,1384.24 669.426,1384.24 671.404,1384.24 
  673.382,1384.24 675.36,1384.24 677.338,1384.24 679.316,1384.24 681.294,1384.24 683.272,1384.24 685.25,1384.24 687.228,1384.24 689.206,1384.24 691.184,1384.24 
  693.163,1384.24 695.141,1384.24 697.119,1384.24 699.097,1384.24 701.075,1384.24 703.053,1384.24 705.031,1384.24 707.009,1384.24 708.987,1384.24 710.965,1384.24 
  712.943,1384.24 714.921,1384.24 716.899,1384.24 718.877,1384.24 720.855,1384.24 722.833,1368.37 724.812,1307.54 726.79,1250.79 728.768,1197.93 730.746,1148.75 
  732.724,1103.05 734.702,1060.63 736.68,1021.3 738.658,984.87 740.636,951.138 742.614,919.921 744.592,891.032 746.57,864.286 748.548,839.502 750.526,816.499 
  752.504,795.101 754.482,775.131 756.461,756.416 758.439,738.803 760.417,722.366 762.395,707.083 764.373,692.874 766.351,679.664 768.329,667.383 770.307,655.965 
  772.285,645.348 774.263,635.474 776.241,626.278 778.219,617.712 780.197,609.741 782.175,602.331 784.153,595.446 786.131,589.054 788.109,583.121 790.088,577.618 
  792.066,572.513 794.044,567.777 796.022,563.381 798,559.298 799.978,555.502 801.956,551.965 803.934,548.664 805.912,545.579 807.89,542.707 809.868,540.034 
  811.846,537.55 813.824,535.241 815.802,533.096 817.78,531.103 819.758,529.252 821.737,527.532 823.715,525.935 825.693,524.45 827.671,523.068 829.649,521.782 
  831.627,1349.65 833.605,1290.03 835.583,1234.42 837.561,1182.62 839.539,1134.44 841.517,1089.68 843.495,1048.15 845.473,1009.66 847.451,974.025 849.429,941.056 
  851.407,910.567 853.386,882.372 855.364,856.288 857.342,832.134 859.32,809.728 861.298,788.89 863.276,769.443 865.254,751.209 867.232,734.015 869.21,717.909 
  871.188,702.927 873.166,688.996 875.144,676.046 877.122,664.012 879.1,652.829 881.078,642.437 883.056,632.78 885.034,623.802 887.013,615.454 888.991,607.688 
  890.969,600.457 892.947,593.71 894.925,587.421 896.903,581.565 898.881,576.12 900.859,571.061 902.837,566.367 904.815,562.014 906.793,557.981 908.771,554.246 
  910.749,550.788 912.727,547.585 914.705,544.618 916.683,541.864 918.662,539.305 920.64,536.921 922.618,534.693 924.596,1384 926.574,1322.18 928.552,1264.56 
  930.53,1210.92 932.508,1161.03 934.486,1114.67 936.464,1071.62 938.442,1031.68 940.42,994.631 942.398,960.285 944.376,928.443 946.354,898.913 948.332,871.513 
  950.311,846.06 952.289,822.382 954.267,800.308 956.245,779.674 958.223,760.367 960.201,742.39 962.179,725.664 964.157,710.114 966.135,695.662 968.113,682.237 
  970.091,669.769 972.069,658.19 974.047,647.438 976.025,637.449 978.003,628.167 979.981,619.534 981.959,611.499 983.938,604.012 985.916,597.026 987.894,590.514 
  989.872,584.45 991.85,578.809 993.828,573.567 995.806,568.7 997.784,564.186 999.762,560.001 1001.74,556.122 1003.72,552.529 1005.7,549.199 1007.67,546.112 
  1009.65,543.246 1011.63,540.583 1013.61,538.101 1015.59,535.783 1017.56,1373.32 1019.54,1312.18 1021.52,1255.16 1023.5,1202.05 1025.48,1152.65 1027.45,1106.74 
  1029.43,1064.13 1031.41,1024.61 1033.39,987.985 1035.37,954.062 1037.35,922.649 1039.32,893.559 1041.3,866.607 1043.28,841.612 1045.26,818.395 1047.24,796.78 
  1049.21,776.596 1051.19,757.673 1053.17,739.914 1055.15,723.374 1057.13,707.986 1059.1,693.679 1061.08,680.383 1063.06,668.032 1065.04,656.561 1067.02,645.909 
  1068.99,636.016 1070.97,626.828 1072.95,618.288 1074.93,610.348 1076.91,602.956 1078.88,596.069 1080.86,589.641 1082.84,583.645 1084.82,578.059 1086.8,572.861 
  1088.77,568.03 1090.75,563.545 1092.73,559.385 1094.71,555.53 1096.69,551.959 1098.67,548.654 1100.64,545.593 1102.62,542.759 1104.6,540.132 1106.58,537.693 
  1108.56,535.425 1110.53,533.308 1112.51,531.325 1114.49,1358.26 1116.47,1298.11 1118.45,1242.03 1120.42,1189.79 1122.4,1141.21 1124.38,1096.08 1126.36,1054.19 
  1128.34,1015.36 1130.31,979.386 1132.29,946.077 1134.27,915.245 1136.25,886.704 1138.23,860.269 1140.2,835.759 1142.18,812.995 1144.16,791.801 1146.14,772.003 
  1148.12,753.429 1150.09,735.974 1152.07,719.711 1154.05,704.579 1156.03,690.509 1158.01,677.432 1159.98,665.285 1161.96,654.004 1163.94,643.529 1165.92,633.803 
  1167.9,624.77 1169.88,616.376 1171.85,608.573 1173.83,601.311 1175.81,594.544 1177.79,588.231 1179.77,582.337 1181.74,576.844 1183.72,571.73 1185.7,566.975 
  1187.68,562.56 1189.66,558.464 1191.63,554.667 1193.61,551.151 1195.59,547.897 1197.57,544.885 1199.55,542.097 1201.52,539.515 1203.5,537.12 1205.48,534.894 
  1207.46,532.821 1209.44,530.882 1211.41,529.06 1213.39,1329.18 1215.37,1270.97 1217.35,1216.71 1219.33,1166.21 1221.3,1119.26 1223.28,1075.66 1225.26,1035.23 
  1227.24,997.758 1229.22,963.062 1231.2,930.952 1233.17,901.239 1235.15,873.739 1237.13,848.269 1239.11,824.649 1241.09,802.698 1243.06,782.242 1245.04,763.105 
  1247.02,745.115 1249,728.226 1250.98,712.503 1252.95,697.875 1254.93,684.276 1256.91,671.639 1258.89,659.9 1260.87,649 1262.84,638.879 1264.82,629.482 
  1266.8,620.754 1268.78,612.644 1270.76,605.102 1272.73,598.082 1274.71,591.54 1276.69,585.433 1278.67,579.734 1280.65,574.421 1282.62,569.475 1284.6,564.878 
  1286.58,560.609 1288.56,556.65 1290.54,552.981 1292.52,549.584 1294.49,546.44 1296.47,543.532 1298.45,540.84 1300.43,538.347 1302.41,536.036 1304.38,533.888 
  1306.36,531.887 1308.34,530.015 1310.32,528.255 1312.3,1330.77 1314.27,1272.45 1316.25,1218.07 1318.23,1167.46 1320.21,1120.4 1322.19,1076.7 1324.16,1036.17 
  1326.14,998.611 1328.12,963.839 1330.1,931.661 1332.08,901.892 1334.05,874.345 1336.03,848.839 1338.01,825.193 1339.99,803.225 1341.97,782.761 1343.94,763.623 
  1345.92,745.638 1347.9,728.724 1349.88,712.967 1351.86,698.308 1353.83,684.677 1355.81,672.009 1357.79,660.242 1359.77,649.315 1361.75,639.17 1363.73,629.75 
  1365.7,621.002 1367.68,612.874 1369.66,605.318 1371.64,598.285 1373.62,591.733 1375.59,585.618 1377.57,579.909 1379.55,574.585 1381.53,569.628 1383.51,565.019 
  1385.48,560.738 1387.46,556.766 1389.44,553.085 1391.42,549.677 1393.4,546.523 1395.37,543.605 1397.35,540.906 1399.33,538.406 1401.31,536.09 1403.29,533.94 
  1405.26,531.937 1407.24,530.066 1409.22,528.31 1411.2,1349.3 1413.18,1289.73 1415.15,1234.17 1417.13,1182.42 1419.11,1134.29 1421.09,1089.58 1423.07,1048.1 
  1425.05,1009.66 1427.02,974.054 1429,941.106 1430.98,910.626 1432.96,882.429 1434.94,856.33 1436.91,832.149 1438.89,809.705 1440.87,788.819 1442.85,769.315 
  1444.83,751.018 1446.8,733.778 1448.78,717.673 1450.76,702.685 1452.74,688.746 1454.72,675.789 1456.69,663.752 1458.67,652.573 1460.65,642.193 1462.63,632.556 
  1464.61,623.607 1466.58,615.295 1468.56,607.569 1470.54,600.383 1472.52,593.69 1474.5,587.448 1476.47,581.619 1478.45,576.18 1480.43,571.113 1482.41,566.398 
  1484.39,562.017 1486.37,557.951 1488.34,554.181 1490.32,550.69 1492.3,547.458 1494.28,544.468 1496.26,541.703 1498.23,539.143 1500.21,536.773 1502.19,534.574 
  1504.17,532.53 1506.15,530.623 1508.12,528.836 1510.1,1378.36 1512.08,1316.96 1514.06,1259.82 1516.04,1206.66 1518.01,1157.24 1519.99,1111.33 1521.97,1068.68 
  1523.95,1029.08 1525.93,992.305 1527.9,958.16 1529.88,926.444 1531.86,896.969 1533.84,869.556 1535.82,844.033 1537.79,812.273 1539.77,728.865 1541.75,651.248 
  1543.73,579.062 1545.71,511.961 1547.68,449.61 1549.66,391.689 1551.64,337.891 1553.62,287.923 1555.6,241.504 1557.58,198.368 1559.55,158.261 1561.53,120.942 
  1563.51,86.1857 1565.49,1272.57 1567.47,1156.76 1569.44,1049.05 1571.42,948.916 1573.4,855.863 1575.38,769.41 1577.36,689.099 1579.33,614.493 1581.31,545.176 
  1583.29,480.752 1585.27,420.846 1587.25,365.106 1589.22,1369.02 1591.2,1246.51 1593.18,1132.53 1595.16,1026.54 1597.14,928.01 1599.11,836.453 1601.09,751.389 
  1603.07,672.364 1605.05,598.945 1607.03,530.719 1609,467.297 1610.98,408.311 1612.96,353.413 1614.94,1313.51 1616.92,1194.86 1618.9,1084.49 1620.87,981.881 
  1622.85,886.514 1624.83,797.901 1626.81,715.575 1628.79,639.092 1630.76,568.028 1632.74,501.98 1634.72,440.569 1636.7,383.435 1638.68,1376.7 1640.65,1253.67 
  1642.63,1139.19 1644.61,1032.74 1646.59,933.786 1648.57,841.829 1650.54,756.391 1652.52,677.014 1654.5,603.264 1656.48,534.728 1658.46,471.015 1660.43,411.756 
  1662.41,356.604 1664.39,1301.51 1666.37,1183.71 1668.35,1074.13 1670.32,972.261 1672.3,877.584 1674.28,789.612 1676.26,707.88 1678.24,631.943 1680.22,561.381 
  1682.19,495.793 1684.17,434.802 1686.15,378.053 1688.13,1344.62 1690.11,1223.81 1692.08,1111.43 1694.06,1006.94 1696.04,909.812 1698.02,819.559 1700,735.704 
  1701.97,657.796 1703.95,585.405 1705.93,518.123 1707.91,455.567 1709.89,397.373 1711.86,1381.44 1713.84,1258.07 1715.82,1143.3 1717.8,1036.57 1719.78,937.353 
  1721.75,845.152 1723.73,759.483 1725.71,679.89 1727.69,605.935 1729.67,537.205 1731.64,473.31 1733.62,413.879 1735.6,358.567 1737.58,1288.77 1739.56,1171.85 
  1741.53,1063.12 1743.51,962.031 1745.49,868.086 1747.47,780.793 1749.45,699.689 1751.43,624.332 1753.4,554.304 1755.38,489.206 1757.36,428.666 1759.34,372.33 
  1761.32,1315.93 1763.29,1197.12 1765.27,1086.62 1767.25,983.878 1769.23,888.388 1771.21,799.658 1773.18,717.217 1775.16,640.619 1777.14,569.44 1779.12,503.278 
  1781.1,441.753 1783.07,384.509 1785.05,1340.6 1787.03,1220.07 1789.01,1107.96 1790.99,1003.72 1792.96,906.829 1794.94,816.793 1796.92,733.138 1798.9,655.412 
  1800.88,583.188 1802.85,516.057 1804.83,453.638 1806.81,395.568 1808.79,1363.07 1810.77,1240.99 1812.75,1127.41 1814.72,1021.8 1816.7,923.637 1818.68,832.412 
  1820.66,747.65 1822.64,668.896 1824.61,595.718 1826.59,527.705 1828.57,464.469 1830.55,405.646 1832.53,1383.91 1834.5,1260.37 1836.48,1145.45 1838.46,1038.57 
  1840.44,939.22 1842.42,846.892 1844.39,761.104 1846.37,681.397 1848.35,607.335 1850.33,538.503 1852.31,474.51 1854.28,414.987 1856.26,359.589 1858.24,1278.5 
  1860.22,1162.3 1862.2,1054.24 1864.17,953.789 1866.15,860.431 1868.13,773.684 1870.11,693.086 1872.09,618.197 1874.07,548.598 1876.04,483.897 1878.02,423.72 
  1880,367.718 1881.98,1295.66 1883.96,1178.26 1885.93,1069.08 1887.91,967.584 1889.89,873.25 1891.87,785.595 1893.85,704.153 1895.82,628.48 1897.8,558.156 
  1899.78,492.783 1901.76,431.986 1903.74,375.413 1905.71,1312.04 1907.69,1193.51 1909.67,1083.26 1911.65,980.759 1913.63,885.494 1915.6,796.972 1917.58,714.723 
  1919.56,638.302 1921.54,567.285 1923.52,501.27 1925.49,439.881 1927.47,382.76 1929.45,1327.83 1931.43,1208.2 1933.41,1096.92 1935.38,993.46 1937.36,897.298 
  1939.34,807.94 1941.32,724.914 1943.3,647.771 1945.28,576.085 1947.25,509.452 1949.23,447.49 1951.21,389.842 1953.19,1343.17 1955.17,1222.47 1957.14,1110.19 
  1959.12,1005.8 1961.1,908.762 1963.08,818.592 1965.06,734.811 1967.03,656.968 1969.01,584.632 1970.99,517.397 1972.97,454.88 1974.95,396.719 1976.92,1358.16 
  1978.9,1236.42 1980.88,1123.16 1982.86,1017.86 1984.84,919.97 1986.81,829.007 1988.79,744.488 1990.77,665.959 1992.75,592.987 1994.73,525.165 1996.7,462.104 
  1998.68,403.441 2000.66,1372.89 2002.64,1250.13 2004.62,1135.91 2006.6,1029.71 2008.57,930.988 2010.55,839.245 2012.53,754.001 2014.51,674.798 2016.49,601.202 
  2018.46,532.8 2020.44,469.205 2022.42,410.048 2024.4,354.987 2026.38,1263.67 2028.35,1148.51 2030.33,1041.42 2032.31,941.871 2034.29,849.358 2036.27,763.397 
  2038.24,683.528 2040.22,609.315 2042.2,540.342 2044.18,476.217 2046.16,416.573 2048.13,361.062 2050.11,1277.09 2052.09,1160.99 2054.07,1053.03 2056.05,952.662 
  2058.02,859.385 2060,772.713 2061.98,692.185 2063.96,617.359 2065.94,547.818 2067.92,483.17 2069.89,423.041 2071.87,367.084 2073.85,1290.44 2075.83,1173.41 
  2077.81,1064.58 2079.78,963.394 2081.76,869.358 2083.74,781.98 2085.72,700.794 2087.7,625.359 2089.67,555.255 2091.65,490.084 2093.63,429.474 2095.61,373.072 
  2097.59,1303.75 2099.56,1185.79 2101.54,1076.09 2103.52,974.096 2105.5,879.303 2107.48,791.221 2109.45,709.38 2111.43,633.337 2113.41,562.67 2115.39,496.979 
  2117.37,435.887 2119.34,379.041 2121.32,1317.05 2123.3,1198.17 2125.28,1087.59 2127.26,984.79 2129.23,889.242 2131.21,800.455 2133.19,717.96 2135.17,641.31 
  2137.15,570.079 2139.13,503.868 2141.1,442.295 2143.08,385.006 2145.06,1330.36 2147.04,1210.55 2149.02,1099.11 2150.99,995.495 2152.97,899.189 2154.95,809.698 
  2156.93,726.548 2158.91,649.29 2160.88,577.496 2162.86,510.763 2164.84,448.709 2166.82,390.975 2168.8,1343.7 2170.77,1222.96 2172.75,1110.65 2174.73,1006.22 
  2176.71,909.16 2178.69,818.963 2180.66,735.156 2182.64,657.288 2184.62,584.93 2186.6,517.673 2188.58,455.136 2190.55,396.956 2192.53,1357.08 2194.51,1235.41 
  2196.49,1122.23 2198.47,1016.99 2200.45,919.166 2202.42,828.26 2204.4,743.794 2206.38,665.314 2208.36,592.388 2210.34,524.607 2212.31,461.585 2214.29,402.957 
  2216.27,1370.52 2218.25,1247.92 2220.23,1133.86 2222.2,1027.8 2224.18,929.214 2226.16,837.596 2228.14,752.469 2230.12,673.375 2232.09,599.879 2234.07,531.571 
  2236.05,468.06 2238.03,408.983 2240.01,1384.02 2241.98,1260.48 2243.96,1145.55 2245.94,1038.67 2247.92,939.312 2249.9,846.98 2251.87,761.188 2253.85,681.476 
  2255.83,607.407 2257.81,538.568 2259.79,474.568 2261.77,415.038 2263.74,359.632 2265.72,1273.11 2267.7,1157.3 2269.68,1049.59 2271.66,949.466 2273.63,856.415 
  2275.61,769.955 2277.59,689.621 2279.57,614.977 2281.55,545.604 2283.52,481.111 2285.5,421.125 2287.48,365.299 2289.46,1285.82 2291.44,1169.12 2293.41,1060.58 
  2295.39,959.681 2297.37,865.908 2299.35,778.774 2301.33,697.816 2303.3,622.591 2305.28,552.682 2307.26,487.692 2309.24,427.248 2311.22,370.999 2313.19,1298.61 
  2315.17,1181.01 2317.15,1071.64 2319.13,969.96 2321.11,875.46 2323.08,787.65 2325.06,706.063 2327.04,630.255 2329.02,559.805 2331,494.314 2332.98,433.409 
  2334.95,376.734 2336.93,1311.49 2338.91,1193.08 2340.89,1082.97 2342.87,980.616 2344.84,885.459 2346.82,796.995 2348.8,714.747 2350.78,638.272 2352.76,567.154 
  
  "/>
<path clip-path="url(#clip280)" d="
M1931.07 196.789 L2280.29 196.789 L2280.29 93.1086 L1931.07 93.1086  Z
  " fill="#ffffff" fill-rule="evenodd" fill-opacity="1"/>
<polyline clip-path="url(#clip280)" style="stroke:#000000; stroke-linecap:butt; stroke-linejoin:round; stroke-width:4; stroke-opacity:1; fill:none" points="
  1931.07,196.789 2280.29,196.789 2280.29,93.1086 1931.07,93.1086 1931.07,196.789 
  "/>
<polyline clip-path="url(#clip280)" style="stroke:#009af9; stroke-linecap:butt; stroke-linejoin:round; stroke-width:4; stroke-opacity:1; fill:none" points="
  1955.22,144.949 2100.15,144.949 
  "/>
<path clip-path="url(#clip280)" d="M2124.3 151.997 L2124.3 136.303 L2128.56 136.303 L2128.56 151.835 Q2128.56 155.516 2129.99 157.368 Q2131.43 159.196 2134.3 159.196 Q2137.75 159.196 2139.74 156.997 Q2141.75 154.798 2141.75 151.002 L2141.75 136.303 L2146.01 136.303 L2146.01 162.229 L2141.75 162.229 L2141.75 158.247 Q2140.2 160.608 2138.14 161.766 Q2136.11 162.9 2133.4 162.9 Q2128.93 162.9 2126.61 160.122 Q2124.3 157.344 2124.3 151.997 M2135.02 135.678 L2135.02 135.678 Z" fill="#000000" fill-rule="evenodd" fill-opacity="1" /><path clip-path="url(#clip280)" d="M2156.2 158.293 L2163.84 158.293 L2163.84 131.928 L2155.53 133.595 L2155.53 129.335 L2163.79 127.669 L2168.47 127.669 L2168.47 158.293 L2176.1 158.293 L2176.1 162.229 L2156.2 162.229 L2156.2 158.293 Z" fill="#000000" fill-rule="evenodd" fill-opacity="1" /><path clip-path="url(#clip280)" d="M2195.18 126.257 Q2192.08 131.581 2190.57 136.789 Q2189.07 141.997 2189.07 147.344 Q2189.07 152.692 2190.57 157.946 Q2192.1 163.178 2195.18 168.479 L2191.48 168.479 Q2188 163.039 2186.27 157.784 Q2184.55 152.53 2184.55 147.344 Q2184.55 142.182 2186.27 136.951 Q2187.98 131.72 2191.48 126.257 L2195.18 126.257 Z" fill="#000000" fill-rule="evenodd" fill-opacity="1" /><path clip-path="url(#clip280)" d="M2207.66 128.942 L2207.66 136.303 L2216.43 136.303 L2216.43 139.613 L2207.66 139.613 L2207.66 153.687 Q2207.66 156.858 2208.51 157.761 Q2209.39 158.664 2212.05 158.664 L2216.43 158.664 L2216.43 162.229 L2212.05 162.229 Q2207.12 162.229 2205.25 160.4 Q2203.37 158.548 2203.37 153.687 L2203.37 139.613 L2200.25 139.613 L2200.25 136.303 L2203.37 136.303 L2203.37 128.942 L2207.66 128.942 Z" fill="#000000" fill-rule="evenodd" fill-opacity="1" /><path clip-path="url(#clip280)" d="M2221.36 126.257 L2225.06 126.257 Q2228.54 131.72 2230.25 136.951 Q2231.98 142.182 2231.98 147.344 Q2231.98 152.53 2230.25 157.784 Q2228.54 163.039 2225.06 168.479 L2221.36 168.479 Q2224.44 163.178 2225.94 157.946 Q2227.47 152.692 2227.47 147.344 Q2227.47 141.997 2225.94 136.789 Q2224.44 131.581 2221.36 126.257 Z" fill="#000000" fill-rule="evenodd" fill-opacity="1" /></svg>
