<?xml version="1.0" encoding="utf-8"?>
<svg xmlns="http://www.w3.org/2000/svg" xmlns:xlink="http://www.w3.org/1999/xlink" width="600" height="400" viewBox="0 0 2400 1600">
<defs>
  <clipPath id="clip600">
    <rect x="0" y="0" width="2400" height="1600"/>
  </clipPath>
</defs>
<path clip-path="url(#clip600)" d="
M0 1600 L2400 1600 L2400 0 L0 0  Z
  " fill="#ffffff" fill-rule="evenodd" fill-opacity="1"/>
<defs>
  <clipPath id="clip601">
    <rect x="480" y="0" width="1681" height="1600"/>
  </clipPath>
</defs>
<path clip-path="url(#clip600)" d="
M178.867 1423.18 L2352.76 1423.18 L2352.76 47.2441 L178.867 47.2441  Z
  " fill="#ffffff" fill-rule="evenodd" fill-opacity="1"/>
<defs>
  <clipPath id="clip602">
    <rect x="178" y="47" width="2175" height="1377"/>
  </clipPath>
</defs>
<polyline clip-path="url(#clip602)" style="stroke:#000000; stroke-linecap:butt; stroke-linejoin:round; stroke-width:2; stroke-opacity:0.1; fill:none" points="
  178.867,1423.18 178.867,47.2441 
  "/>
<polyline clip-path="url(#clip602)" style="stroke:#000000; stroke-linecap:butt; stroke-linejoin:round; stroke-width:2; stroke-opacity:0.1; fill:none" points="
  489.422,1423.18 489.422,47.2441 
  "/>
<polyline clip-path="url(#clip602)" style="stroke:#000000; stroke-linecap:butt; stroke-linejoin:round; stroke-width:2; stroke-opacity:0.1; fill:none" points="
  799.978,1423.18 799.978,47.2441 
  "/>
<polyline clip-path="url(#clip602)" style="stroke:#000000; stroke-linecap:butt; stroke-linejoin:round; stroke-width:2; stroke-opacity:0.1; fill:none" points="
  1110.53,1423.18 1110.53,47.2441 
  "/>
<polyline clip-path="url(#clip602)" style="stroke:#000000; stroke-linecap:butt; stroke-linejoin:round; stroke-width:2; stroke-opacity:0.1; fill:none" points="
  1421.09,1423.18 1421.09,47.2441 
  "/>
<polyline clip-path="url(#clip602)" style="stroke:#000000; stroke-linecap:butt; stroke-linejoin:round; stroke-width:2; stroke-opacity:0.1; fill:none" points="
  1731.64,1423.18 1731.64,47.2441 
  "/>
<polyline clip-path="url(#clip602)" style="stroke:#000000; stroke-linecap:butt; stroke-linejoin:round; stroke-width:2; stroke-opacity:0.1; fill:none" points="
  2042.2,1423.18 2042.2,47.2441 
  "/>
<polyline clip-path="url(#clip602)" style="stroke:#000000; stroke-linecap:butt; stroke-linejoin:round; stroke-width:2; stroke-opacity:0.1; fill:none" points="
  2352.76,1423.18 2352.76,47.2441 
  "/>
<polyline clip-path="url(#clip600)" style="stroke:#000000; stroke-linecap:butt; stroke-linejoin:round; stroke-width:4; stroke-opacity:1; fill:none" points="
  178.867,1423.18 2352.76,1423.18 
  "/>
<polyline clip-path="url(#clip600)" style="stroke:#000000; stroke-linecap:butt; stroke-linejoin:round; stroke-width:4; stroke-opacity:1; fill:none" points="
  178.867,1423.18 178.867,1404.28 
  "/>
<polyline clip-path="url(#clip600)" style="stroke:#000000; stroke-linecap:butt; stroke-linejoin:round; stroke-width:4; stroke-opacity:1; fill:none" points="
  489.422,1423.18 489.422,1404.28 
  "/>
<polyline clip-path="url(#clip600)" style="stroke:#000000; stroke-linecap:butt; stroke-linejoin:round; stroke-width:4; stroke-opacity:1; fill:none" points="
  799.978,1423.18 799.978,1404.28 
  "/>
<polyline clip-path="url(#clip600)" style="stroke:#000000; stroke-linecap:butt; stroke-linejoin:round; stroke-width:4; stroke-opacity:1; fill:none" points="
  1110.53,1423.18 1110.53,1404.28 
  "/>
<polyline clip-path="url(#clip600)" style="stroke:#000000; stroke-linecap:butt; stroke-linejoin:round; stroke-width:4; stroke-opacity:1; fill:none" points="
  1421.09,1423.18 1421.09,1404.28 
  "/>
<polyline clip-path="url(#clip600)" style="stroke:#000000; stroke-linecap:butt; stroke-linejoin:round; stroke-width:4; stroke-opacity:1; fill:none" points="
  1731.64,1423.18 1731.64,1404.28 
  "/>
<polyline clip-path="url(#clip600)" style="stroke:#000000; stroke-linecap:butt; stroke-linejoin:round; stroke-width:4; stroke-opacity:1; fill:none" points="
  2042.2,1423.18 2042.2,1404.28 
  "/>
<polyline clip-path="url(#clip600)" style="stroke:#000000; stroke-linecap:butt; stroke-linejoin:round; stroke-width:4; stroke-opacity:1; fill:none" points="
  2352.76,1423.18 2352.76,1404.28 
  "/>
<path clip-path="url(#clip600)" d="M178.867 1454.1 Q175.256 1454.1 173.427 1457.66 Q171.621 1461.2 171.621 1468.33 Q171.621 1475.44 173.427 1479.01 Q175.256 1482.55 178.867 1482.55 Q182.501 1482.55 184.306 1479.01 Q186.135 1475.44 186.135 1468.33 Q186.135 1461.2 184.306 1457.66 Q182.501 1454.1 178.867 1454.1 M178.867 1450.39 Q184.677 1450.39 187.732 1455 Q190.811 1459.58 190.811 1468.33 Q190.811 1477.06 187.732 1481.67 Q184.677 1486.25 178.867 1486.25 Q173.056 1486.25 169.978 1481.67 Q166.922 1477.06 166.922 1468.33 Q166.922 1459.58 169.978 1455 Q173.056 1450.39 178.867 1450.39 Z" fill="#000000" fill-rule="evenodd" fill-opacity="1" /><path clip-path="url(#clip600)" d="M449.029 1481.64 L456.668 1481.64 L456.668 1455.28 L448.358 1456.95 L448.358 1452.69 L456.621 1451.02 L461.297 1451.02 L461.297 1481.64 L468.936 1481.64 L468.936 1485.58 L449.029 1485.58 L449.029 1481.64 Z" fill="#000000" fill-rule="evenodd" fill-opacity="1" /><path clip-path="url(#clip600)" d="M488.381 1454.1 Q484.769 1454.1 482.941 1457.66 Q481.135 1461.2 481.135 1468.33 Q481.135 1475.44 482.941 1479.01 Q484.769 1482.55 488.381 1482.55 Q492.015 1482.55 493.82 1479.01 Q495.649 1475.44 495.649 1468.33 Q495.649 1461.2 493.82 1457.66 Q492.015 1454.1 488.381 1454.1 M488.381 1450.39 Q494.191 1450.39 497.246 1455 Q500.325 1459.58 500.325 1468.33 Q500.325 1477.06 497.246 1481.67 Q494.191 1486.25 488.381 1486.25 Q482.57 1486.25 479.492 1481.67 Q476.436 1477.06 476.436 1468.33 Q476.436 1459.58 479.492 1455 Q482.57 1450.39 488.381 1450.39 Z" fill="#000000" fill-rule="evenodd" fill-opacity="1" /><path clip-path="url(#clip600)" d="M518.542 1454.1 Q514.931 1454.1 513.103 1457.66 Q511.297 1461.2 511.297 1468.33 Q511.297 1475.44 513.103 1479.01 Q514.931 1482.55 518.542 1482.55 Q522.177 1482.55 523.982 1479.01 Q525.811 1475.44 525.811 1468.33 Q525.811 1461.2 523.982 1457.66 Q522.177 1454.1 518.542 1454.1 M518.542 1450.39 Q524.353 1450.39 527.408 1455 Q530.487 1459.58 530.487 1468.33 Q530.487 1477.06 527.408 1481.67 Q524.353 1486.25 518.542 1486.25 Q512.732 1486.25 509.654 1481.67 Q506.598 1477.06 506.598 1468.33 Q506.598 1459.58 509.654 1455 Q512.732 1450.39 518.542 1450.39 Z" fill="#000000" fill-rule="evenodd" fill-opacity="1" /><path clip-path="url(#clip600)" d="M763.67 1481.64 L779.99 1481.64 L779.99 1485.58 L758.045 1485.58 L758.045 1481.64 Q760.707 1478.89 765.291 1474.26 Q769.897 1469.61 771.078 1468.27 Q773.323 1465.74 774.203 1464.01 Q775.105 1462.25 775.105 1460.56 Q775.105 1457.8 773.161 1456.07 Q771.24 1454.33 768.138 1454.33 Q765.939 1454.33 763.485 1455.09 Q761.054 1455.86 758.277 1457.41 L758.277 1452.69 Q761.101 1451.55 763.554 1450.97 Q766.008 1450.39 768.045 1450.39 Q773.415 1450.39 776.61 1453.08 Q779.804 1455.77 779.804 1460.26 Q779.804 1462.39 778.994 1464.31 Q778.207 1466.2 776.101 1468.8 Q775.522 1469.47 772.42 1472.69 Q769.318 1475.88 763.67 1481.64 Z" fill="#000000" fill-rule="evenodd" fill-opacity="1" /><path clip-path="url(#clip600)" d="M799.804 1454.1 Q796.193 1454.1 794.364 1457.66 Q792.559 1461.2 792.559 1468.33 Q792.559 1475.44 794.364 1479.01 Q796.193 1482.55 799.804 1482.55 Q803.438 1482.55 805.244 1479.01 Q807.073 1475.44 807.073 1468.33 Q807.073 1461.2 805.244 1457.66 Q803.438 1454.1 799.804 1454.1 M799.804 1450.39 Q805.614 1450.39 808.67 1455 Q811.749 1459.58 811.749 1468.33 Q811.749 1477.06 808.67 1481.67 Q805.614 1486.25 799.804 1486.25 Q793.994 1486.25 790.915 1481.67 Q787.86 1477.06 787.86 1468.33 Q787.86 1459.58 790.915 1455 Q793.994 1450.39 799.804 1450.39 Z" fill="#000000" fill-rule="evenodd" fill-opacity="1" /><path clip-path="url(#clip600)" d="M829.966 1454.1 Q826.355 1454.1 824.526 1457.66 Q822.721 1461.2 822.721 1468.33 Q822.721 1475.44 824.526 1479.01 Q826.355 1482.55 829.966 1482.55 Q833.6 1482.55 835.406 1479.01 Q837.235 1475.44 837.235 1468.33 Q837.235 1461.2 835.406 1457.66 Q833.6 1454.1 829.966 1454.1 M829.966 1450.39 Q835.776 1450.39 838.832 1455 Q841.91 1459.58 841.91 1468.33 Q841.91 1477.06 838.832 1481.67 Q835.776 1486.25 829.966 1486.25 Q824.156 1486.25 821.077 1481.67 Q818.022 1477.06 818.022 1468.33 Q818.022 1459.58 821.077 1455 Q824.156 1450.39 829.966 1450.39 Z" fill="#000000" fill-rule="evenodd" fill-opacity="1" /><path clip-path="url(#clip600)" d="M1084.3 1466.95 Q1087.65 1467.66 1089.53 1469.93 Q1091.42 1472.2 1091.42 1475.53 Q1091.42 1480.65 1087.91 1483.45 Q1084.39 1486.25 1077.91 1486.25 Q1075.73 1486.25 1073.42 1485.81 Q1071.12 1485.39 1068.67 1484.54 L1068.67 1480.02 Q1070.61 1481.16 1072.93 1481.74 Q1075.24 1482.32 1077.77 1482.32 Q1082.17 1482.32 1084.46 1480.58 Q1086.77 1478.84 1086.77 1475.53 Q1086.77 1472.48 1084.62 1470.77 Q1082.49 1469.03 1078.67 1469.03 L1074.64 1469.03 L1074.64 1465.19 L1078.86 1465.19 Q1082.3 1465.19 1084.13 1463.82 Q1085.96 1462.43 1085.96 1459.84 Q1085.96 1457.18 1084.06 1455.77 Q1082.19 1454.33 1078.67 1454.33 Q1076.75 1454.33 1074.55 1454.75 Q1072.35 1455.16 1069.71 1456.04 L1069.71 1451.88 Q1072.37 1451.14 1074.69 1450.77 Q1077.03 1450.39 1079.09 1450.39 Q1084.41 1450.39 1087.51 1452.83 Q1090.61 1455.23 1090.61 1459.35 Q1090.61 1462.22 1088.97 1464.21 Q1087.33 1466.18 1084.3 1466.95 Z" fill="#000000" fill-rule="evenodd" fill-opacity="1" /><path clip-path="url(#clip600)" d="M1110.29 1454.1 Q1106.68 1454.1 1104.85 1457.66 Q1103.05 1461.2 1103.05 1468.33 Q1103.05 1475.44 1104.85 1479.01 Q1106.68 1482.55 1110.29 1482.55 Q1113.92 1482.55 1115.73 1479.01 Q1117.56 1475.44 1117.56 1468.33 Q1117.56 1461.2 1115.73 1457.66 Q1113.92 1454.1 1110.29 1454.1 M1110.29 1450.39 Q1116.1 1450.39 1119.16 1455 Q1122.23 1459.58 1122.23 1468.33 Q1122.23 1477.06 1119.16 1481.67 Q1116.1 1486.25 1110.29 1486.25 Q1104.48 1486.25 1101.4 1481.67 Q1098.35 1477.06 1098.35 1468.33 Q1098.35 1459.58 1101.4 1455 Q1104.48 1450.39 1110.29 1450.39 Z" fill="#000000" fill-rule="evenodd" fill-opacity="1" /><path clip-path="url(#clip600)" d="M1140.45 1454.1 Q1136.84 1454.1 1135.01 1457.66 Q1133.21 1461.2 1133.21 1468.33 Q1133.21 1475.44 1135.01 1479.01 Q1136.84 1482.55 1140.45 1482.55 Q1144.09 1482.55 1145.89 1479.01 Q1147.72 1475.44 1147.72 1468.33 Q1147.72 1461.2 1145.89 1457.66 Q1144.09 1454.1 1140.45 1454.1 M1140.45 1450.39 Q1146.26 1450.39 1149.32 1455 Q1152.4 1459.58 1152.4 1468.33 Q1152.4 1477.06 1149.32 1481.67 Q1146.26 1486.25 1140.45 1486.25 Q1134.64 1486.25 1131.56 1481.67 Q1128.51 1477.06 1128.51 1468.33 Q1128.51 1459.58 1131.56 1455 Q1134.64 1450.39 1140.45 1450.39 Z" fill="#000000" fill-rule="evenodd" fill-opacity="1" /><path clip-path="url(#clip600)" d="M1394.18 1455.09 L1382.37 1473.54 L1394.18 1473.54 L1394.18 1455.09 M1392.95 1451.02 L1398.83 1451.02 L1398.83 1473.54 L1403.76 1473.54 L1403.76 1477.43 L1398.83 1477.43 L1398.83 1485.58 L1394.18 1485.58 L1394.18 1477.43 L1378.58 1477.43 L1378.58 1472.92 L1392.95 1451.02 Z" fill="#000000" fill-rule="evenodd" fill-opacity="1" /><path clip-path="url(#clip600)" d="M1421.49 1454.1 Q1417.88 1454.1 1416.05 1457.66 Q1414.25 1461.2 1414.25 1468.33 Q1414.25 1475.44 1416.05 1479.01 Q1417.88 1482.55 1421.49 1482.55 Q1425.13 1482.55 1426.93 1479.01 Q1428.76 1475.44 1428.76 1468.33 Q1428.76 1461.2 1426.93 1457.66 Q1425.13 1454.1 1421.49 1454.1 M1421.49 1450.39 Q1427.3 1450.39 1430.36 1455 Q1433.44 1459.58 1433.44 1468.33 Q1433.44 1477.06 1430.36 1481.67 Q1427.3 1486.25 1421.49 1486.25 Q1415.68 1486.25 1412.61 1481.67 Q1409.55 1477.06 1409.55 1468.33 Q1409.55 1459.58 1412.61 1455 Q1415.68 1450.39 1421.49 1450.39 Z" fill="#000000" fill-rule="evenodd" fill-opacity="1" /><path clip-path="url(#clip600)" d="M1451.66 1454.1 Q1448.04 1454.1 1446.22 1457.66 Q1444.41 1461.2 1444.41 1468.33 Q1444.41 1475.44 1446.22 1479.01 Q1448.04 1482.55 1451.66 1482.55 Q1455.29 1482.55 1457.1 1479.01 Q1458.92 1475.44 1458.92 1468.33 Q1458.92 1461.2 1457.1 1457.66 Q1455.29 1454.1 1451.66 1454.1 M1451.66 1450.39 Q1457.47 1450.39 1460.52 1455 Q1463.6 1459.58 1463.6 1468.33 Q1463.6 1477.06 1460.52 1481.67 Q1457.47 1486.25 1451.66 1486.25 Q1445.85 1486.25 1442.77 1481.67 Q1439.71 1477.06 1439.71 1468.33 Q1439.71 1459.58 1442.77 1455 Q1445.85 1450.39 1451.66 1450.39 Z" fill="#000000" fill-rule="evenodd" fill-opacity="1" /><path clip-path="url(#clip600)" d="M1691.26 1451.02 L1709.62 1451.02 L1709.62 1454.96 L1695.55 1454.96 L1695.55 1463.43 Q1696.56 1463.08 1697.58 1462.92 Q1698.6 1462.73 1699.62 1462.73 Q1705.41 1462.73 1708.79 1465.9 Q1712.17 1469.08 1712.17 1474.49 Q1712.17 1480.07 1708.69 1483.17 Q1705.22 1486.25 1698.9 1486.25 Q1696.73 1486.25 1694.46 1485.88 Q1692.21 1485.51 1689.8 1484.77 L1689.8 1480.07 Q1691.89 1481.2 1694.11 1481.76 Q1696.33 1482.32 1698.81 1482.32 Q1702.81 1482.32 1705.15 1480.21 Q1707.49 1478.1 1707.49 1474.49 Q1707.49 1470.88 1705.15 1468.77 Q1702.81 1466.67 1698.81 1466.67 Q1696.93 1466.67 1695.06 1467.08 Q1693.21 1467.5 1691.26 1468.38 L1691.26 1451.02 Z" fill="#000000" fill-rule="evenodd" fill-opacity="1" /><path clip-path="url(#clip600)" d="M1731.38 1454.1 Q1727.77 1454.1 1725.94 1457.66 Q1724.13 1461.2 1724.13 1468.33 Q1724.13 1475.44 1725.94 1479.01 Q1727.77 1482.55 1731.38 1482.55 Q1735.01 1482.55 1736.82 1479.01 Q1738.65 1475.44 1738.65 1468.33 Q1738.65 1461.2 1736.82 1457.66 Q1735.01 1454.1 1731.38 1454.1 M1731.38 1450.39 Q1737.19 1450.39 1740.24 1455 Q1743.32 1459.58 1743.32 1468.33 Q1743.32 1477.06 1740.24 1481.67 Q1737.19 1486.25 1731.38 1486.25 Q1725.57 1486.25 1722.49 1481.67 Q1719.43 1477.06 1719.43 1468.33 Q1719.43 1459.58 1722.49 1455 Q1725.57 1450.39 1731.38 1450.39 Z" fill="#000000" fill-rule="evenodd" fill-opacity="1" /><path clip-path="url(#clip600)" d="M1761.54 1454.1 Q1757.93 1454.1 1756.1 1457.66 Q1754.3 1461.2 1754.3 1468.33 Q1754.3 1475.44 1756.1 1479.01 Q1757.93 1482.55 1761.54 1482.55 Q1765.17 1482.55 1766.98 1479.01 Q1768.81 1475.44 1768.81 1468.33 Q1768.81 1461.2 1766.98 1457.66 Q1765.17 1454.1 1761.54 1454.1 M1761.54 1450.39 Q1767.35 1450.39 1770.41 1455 Q1773.48 1459.58 1773.48 1468.33 Q1773.48 1477.06 1770.41 1481.67 Q1767.35 1486.25 1761.54 1486.25 Q1755.73 1486.25 1752.65 1481.67 Q1749.6 1477.06 1749.6 1468.33 Q1749.6 1459.58 1752.65 1455 Q1755.73 1450.39 1761.54 1450.39 Z" fill="#000000" fill-rule="evenodd" fill-opacity="1" /><path clip-path="url(#clip600)" d="M2012.52 1466.44 Q2009.38 1466.44 2007.52 1468.59 Q2005.7 1470.74 2005.7 1474.49 Q2005.7 1478.22 2007.52 1480.39 Q2009.38 1482.55 2012.52 1482.55 Q2015.67 1482.55 2017.5 1480.39 Q2019.35 1478.22 2019.35 1474.49 Q2019.35 1470.74 2017.5 1468.59 Q2015.67 1466.44 2012.52 1466.44 M2021.81 1451.78 L2021.81 1456.04 Q2020.05 1455.21 2018.24 1454.77 Q2016.46 1454.33 2014.7 1454.33 Q2010.07 1454.33 2007.62 1457.45 Q2005.19 1460.58 2004.84 1466.9 Q2006.21 1464.89 2008.27 1463.82 Q2010.33 1462.73 2012.8 1462.73 Q2018.01 1462.73 2021.02 1465.9 Q2024.05 1469.05 2024.05 1474.49 Q2024.05 1479.82 2020.9 1483.03 Q2017.76 1486.25 2012.52 1486.25 Q2006.53 1486.25 2003.36 1481.67 Q2000.19 1477.06 2000.19 1468.33 Q2000.19 1460.14 2004.08 1455.28 Q2007.96 1450.39 2014.52 1450.39 Q2016.27 1450.39 2018.06 1450.74 Q2019.86 1451.09 2021.81 1451.78 Z" fill="#000000" fill-rule="evenodd" fill-opacity="1" /><path clip-path="url(#clip600)" d="M2042.11 1454.1 Q2038.5 1454.1 2036.67 1457.66 Q2034.86 1461.2 2034.86 1468.33 Q2034.86 1475.44 2036.67 1479.01 Q2038.5 1482.55 2042.11 1482.55 Q2045.74 1482.55 2047.55 1479.01 Q2049.38 1475.44 2049.38 1468.33 Q2049.38 1461.2 2047.55 1457.66 Q2045.74 1454.1 2042.11 1454.1 M2042.11 1450.39 Q2047.92 1450.39 2050.97 1455 Q2054.05 1459.58 2054.05 1468.33 Q2054.05 1477.06 2050.97 1481.67 Q2047.92 1486.25 2042.11 1486.25 Q2036.3 1486.25 2033.22 1481.67 Q2030.16 1477.06 2030.16 1468.33 Q2030.16 1459.58 2033.22 1455 Q2036.3 1450.39 2042.11 1450.39 Z" fill="#000000" fill-rule="evenodd" fill-opacity="1" /><path clip-path="url(#clip600)" d="M2072.27 1454.1 Q2068.66 1454.1 2066.83 1457.66 Q2065.02 1461.2 2065.02 1468.33 Q2065.02 1475.44 2066.83 1479.01 Q2068.66 1482.55 2072.27 1482.55 Q2075.9 1482.55 2077.71 1479.01 Q2079.54 1475.44 2079.54 1468.33 Q2079.54 1461.2 2077.71 1457.66 Q2075.9 1454.1 2072.27 1454.1 M2072.27 1450.39 Q2078.08 1450.39 2081.14 1455 Q2084.21 1459.58 2084.21 1468.33 Q2084.21 1477.06 2081.14 1481.67 Q2078.08 1486.25 2072.27 1486.25 Q2066.46 1486.25 2063.38 1481.67 Q2060.33 1477.06 2060.33 1468.33 Q2060.33 1459.58 2063.38 1455 Q2066.46 1450.39 2072.27 1450.39 Z" fill="#000000" fill-rule="evenodd" fill-opacity="1" /><path clip-path="url(#clip600)" d="M2311.03 1451.02 L2333.25 1451.02 L2333.25 1453.01 L2320.71 1485.58 L2315.82 1485.58 L2327.63 1454.96 L2311.03 1454.96 L2311.03 1451.02 Z" fill="#000000" fill-rule="evenodd" fill-opacity="1" /><path clip-path="url(#clip600)" d="M2352.37 1454.1 Q2348.76 1454.1 2346.93 1457.66 Q2345.13 1461.2 2345.13 1468.33 Q2345.13 1475.44 2346.93 1479.01 Q2348.76 1482.55 2352.37 1482.55 Q2356.01 1482.55 2357.81 1479.01 Q2359.64 1475.44 2359.64 1468.33 Q2359.64 1461.2 2357.81 1457.66 Q2356.01 1454.1 2352.37 1454.1 M2352.37 1450.39 Q2358.18 1450.39 2361.24 1455 Q2364.32 1459.58 2364.32 1468.33 Q2364.32 1477.06 2361.24 1481.67 Q2358.18 1486.25 2352.37 1486.25 Q2346.56 1486.25 2343.49 1481.67 Q2340.43 1477.06 2340.43 1468.33 Q2340.43 1459.58 2343.49 1455 Q2346.56 1450.39 2352.37 1450.39 Z" fill="#000000" fill-rule="evenodd" fill-opacity="1" /><path clip-path="url(#clip600)" d="M2382.54 1454.1 Q2378.92 1454.1 2377.1 1457.66 Q2375.29 1461.2 2375.29 1468.33 Q2375.29 1475.44 2377.1 1479.01 Q2378.92 1482.55 2382.54 1482.55 Q2386.17 1482.55 2387.98 1479.01 Q2389.8 1475.44 2389.8 1468.33 Q2389.8 1461.2 2387.98 1457.66 Q2386.17 1454.1 2382.54 1454.1 M2382.54 1450.39 Q2388.35 1450.39 2391.4 1455 Q2394.48 1459.58 2394.48 1468.33 Q2394.48 1477.06 2391.4 1481.67 Q2388.35 1486.25 2382.54 1486.25 Q2376.73 1486.25 2373.65 1481.67 Q2370.59 1477.06 2370.59 1468.33 Q2370.59 1459.58 2373.65 1455 Q2376.73 1450.39 2382.54 1450.39 Z" fill="#000000" fill-rule="evenodd" fill-opacity="1" /><path clip-path="url(#clip600)" d="M1264.87 1522.27 L1264.87 1532.4 L1276.94 1532.4 L1276.94 1536.95 L1264.87 1536.95 L1264.87 1556.3 Q1264.87 1560.66 1266.05 1561.9 Q1267.26 1563.14 1270.92 1563.14 L1276.94 1563.14 L1276.94 1568.04 L1270.92 1568.04 Q1264.14 1568.04 1261.56 1565.53 Q1258.98 1562.98 1258.98 1556.3 L1258.98 1536.95 L1254.69 1536.95 L1254.69 1532.4 L1258.98 1532.4 L1258.98 1522.27 L1264.87 1522.27 Z" fill="#000000" fill-rule="evenodd" fill-opacity="1" /><polyline clip-path="url(#clip602)" style="stroke:#000000; stroke-linecap:butt; stroke-linejoin:round; stroke-width:2; stroke-opacity:0.1; fill:none" points="
  178.867,1227.49 2352.76,1227.49 
  "/>
<polyline clip-path="url(#clip602)" style="stroke:#000000; stroke-linecap:butt; stroke-linejoin:round; stroke-width:2; stroke-opacity:0.1; fill:none" points="
  178.867,847.058 2352.76,847.058 
  "/>
<polyline clip-path="url(#clip602)" style="stroke:#000000; stroke-linecap:butt; stroke-linejoin:round; stroke-width:2; stroke-opacity:0.1; fill:none" points="
  178.867,466.622 2352.76,466.622 
  "/>
<polyline clip-path="url(#clip602)" style="stroke:#000000; stroke-linecap:butt; stroke-linejoin:round; stroke-width:2; stroke-opacity:0.1; fill:none" points="
  178.867,86.1857 2352.76,86.1857 
  "/>
<polyline clip-path="url(#clip600)" style="stroke:#000000; stroke-linecap:butt; stroke-linejoin:round; stroke-width:4; stroke-opacity:1; fill:none" points="
  178.867,1423.18 178.867,47.2441 
  "/>
<polyline clip-path="url(#clip600)" style="stroke:#000000; stroke-linecap:butt; stroke-linejoin:round; stroke-width:4; stroke-opacity:1; fill:none" points="
  178.867,1227.49 197.764,1227.49 
  "/>
<polyline clip-path="url(#clip600)" style="stroke:#000000; stroke-linecap:butt; stroke-linejoin:round; stroke-width:4; stroke-opacity:1; fill:none" points="
  178.867,847.058 197.764,847.058 
  "/>
<polyline clip-path="url(#clip600)" style="stroke:#000000; stroke-linecap:butt; stroke-linejoin:round; stroke-width:4; stroke-opacity:1; fill:none" points="
  178.867,466.622 197.764,466.622 
  "/>
<polyline clip-path="url(#clip600)" style="stroke:#000000; stroke-linecap:butt; stroke-linejoin:round; stroke-width:4; stroke-opacity:1; fill:none" points="
  178.867,86.1857 197.764,86.1857 
  "/>
<path clip-path="url(#clip600)" d="M51.6403 1227.95 L81.316 1227.95 L81.316 1231.88 L51.6403 1231.88 L51.6403 1227.95 Z" fill="#000000" fill-rule="evenodd" fill-opacity="1" /><path clip-path="url(#clip600)" d="M101.987 1225.63 Q98.8391 1225.63 96.9872 1227.78 Q95.1586 1229.94 95.1586 1233.69 Q95.1586 1237.41 96.9872 1239.59 Q98.8391 1241.74 101.987 1241.74 Q105.135 1241.74 106.964 1239.59 Q108.816 1237.41 108.816 1233.69 Q108.816 1229.94 106.964 1227.78 Q105.135 1225.63 101.987 1225.63 M111.27 1210.98 L111.27 1215.24 Q109.51 1214.4 107.705 1213.96 Q105.922 1213.53 104.163 1213.53 Q99.5335 1213.53 97.0798 1216.65 Q94.6493 1219.78 94.3021 1226.09 Q95.6678 1224.08 97.728 1223.02 Q99.7882 1221.93 102.265 1221.93 Q107.473 1221.93 110.483 1225.1 Q113.515 1228.25 113.515 1233.69 Q113.515 1239.01 110.367 1242.23 Q107.219 1245.45 101.987 1245.45 Q95.9919 1245.45 92.8206 1240.86 Q89.6493 1236.26 89.6493 1227.53 Q89.6493 1219.34 93.5382 1214.47 Q97.4271 1209.59 103.978 1209.59 Q105.737 1209.59 107.52 1209.94 Q109.325 1210.28 111.27 1210.98 Z" fill="#000000" fill-rule="evenodd" fill-opacity="1" /><path clip-path="url(#clip600)" d="M135.737 1226.14 Q139.094 1226.86 140.968 1229.13 Q142.867 1231.4 142.867 1234.73 Q142.867 1239.84 139.348 1242.65 Q135.83 1245.45 129.348 1245.45 Q127.172 1245.45 124.857 1245.01 Q122.566 1244.59 120.112 1243.73 L120.112 1239.22 Q122.057 1240.35 124.371 1240.93 Q126.686 1241.51 129.209 1241.51 Q133.607 1241.51 135.899 1239.77 Q138.214 1238.04 138.214 1234.73 Q138.214 1231.67 136.061 1229.96 Q133.931 1228.22 130.112 1228.22 L126.084 1228.22 L126.084 1224.38 L130.297 1224.38 Q133.746 1224.38 135.575 1223.02 Q137.404 1221.63 137.404 1219.03 Q137.404 1216.37 135.506 1214.96 Q133.631 1213.53 130.112 1213.53 Q128.191 1213.53 125.992 1213.94 Q123.793 1214.36 121.154 1215.24 L121.154 1211.07 Q123.816 1210.33 126.131 1209.96 Q128.469 1209.59 130.529 1209.59 Q135.853 1209.59 138.955 1212.02 Q142.056 1214.43 142.056 1218.55 Q142.056 1221.42 140.413 1223.41 Q138.769 1225.38 135.737 1226.14 Z" fill="#000000" fill-rule="evenodd" fill-opacity="1" /><path clip-path="url(#clip600)" d="M52.5893 847.51 L82.2651 847.51 L82.2651 851.445 L52.5893 851.445 L52.5893 847.51 Z" fill="#000000" fill-rule="evenodd" fill-opacity="1" /><path clip-path="url(#clip600)" d="M102.936 845.195 Q99.7882 845.195 97.9363 847.348 Q96.1076 849.501 96.1076 853.251 Q96.1076 856.977 97.9363 859.153 Q99.7882 861.306 102.936 861.306 Q106.084 861.306 107.913 859.153 Q109.765 856.977 109.765 853.251 Q109.765 849.501 107.913 847.348 Q106.084 845.195 102.936 845.195 M112.219 830.542 L112.219 834.802 Q110.459 833.968 108.654 833.528 Q106.871 833.089 105.112 833.089 Q100.483 833.089 98.0289 836.214 Q95.5984 839.339 95.2511 845.658 Q96.6169 843.644 98.6771 842.579 Q100.737 841.491 103.214 841.491 Q108.422 841.491 111.432 844.663 Q114.464 847.811 114.464 853.251 Q114.464 858.575 111.316 861.792 Q108.168 865.01 102.936 865.01 Q96.941 865.01 93.7697 860.426 Q90.5984 855.82 90.5984 847.093 Q90.5984 838.899 94.4873 834.038 Q98.3761 829.153 104.927 829.153 Q106.686 829.153 108.469 829.501 Q110.274 829.848 112.219 830.542 Z" fill="#000000" fill-rule="evenodd" fill-opacity="1" /><path clip-path="url(#clip600)" d="M126.547 860.403 L142.867 860.403 L142.867 864.338 L120.922 864.338 L120.922 860.403 Q123.584 857.649 128.168 853.019 Q132.774 848.366 133.955 847.024 Q136.2 844.501 137.08 842.765 Q137.982 841.005 137.982 839.315 Q137.982 836.561 136.038 834.825 Q134.117 833.089 131.015 833.089 Q128.816 833.089 126.362 833.853 Q123.932 834.616 121.154 836.167 L121.154 831.445 Q123.978 830.311 126.432 829.732 Q128.885 829.153 130.922 829.153 Q136.293 829.153 139.487 831.839 Q142.681 834.524 142.681 839.015 Q142.681 841.144 141.871 843.065 Q141.084 844.964 138.978 847.556 Q138.399 848.227 135.297 851.445 Q132.195 854.639 126.547 860.403 Z" fill="#000000" fill-rule="evenodd" fill-opacity="1" /><path clip-path="url(#clip600)" d="M52.219 467.073 L81.8947 467.073 L81.8947 471.009 L52.219 471.009 L52.219 467.073 Z" fill="#000000" fill-rule="evenodd" fill-opacity="1" /><path clip-path="url(#clip600)" d="M102.566 464.759 Q99.4178 464.759 97.566 466.911 Q95.7373 469.064 95.7373 472.814 Q95.7373 476.541 97.566 478.717 Q99.4178 480.87 102.566 480.87 Q105.714 480.87 107.543 478.717 Q109.395 476.541 109.395 472.814 Q109.395 469.064 107.543 466.911 Q105.714 464.759 102.566 464.759 M111.848 450.106 L111.848 454.365 Q110.089 453.532 108.283 453.092 Q106.501 452.652 104.742 452.652 Q100.112 452.652 97.6585 455.777 Q95.228 458.902 94.8808 465.222 Q96.2465 463.208 98.3067 462.143 Q100.367 461.055 102.844 461.055 Q108.052 461.055 111.061 464.226 Q114.094 467.374 114.094 472.814 Q114.094 478.138 110.946 481.356 Q107.797 484.573 102.566 484.573 Q96.5706 484.573 93.3993 479.99 Q90.228 475.384 90.228 466.657 Q90.228 458.462 94.1169 453.601 Q98.0058 448.717 104.557 448.717 Q106.316 448.717 108.098 449.064 Q109.904 449.412 111.848 450.106 Z" fill="#000000" fill-rule="evenodd" fill-opacity="1" /><path clip-path="url(#clip600)" d="M122.959 479.967 L130.598 479.967 L130.598 453.601 L122.288 455.268 L122.288 451.009 L130.552 449.342 L135.228 449.342 L135.228 479.967 L142.867 479.967 L142.867 483.902 L122.959 483.902 L122.959 479.967 Z" fill="#000000" fill-rule="evenodd" fill-opacity="1" /><path clip-path="url(#clip600)" d="M50.9921 86.6371 L80.6679 86.6371 L80.6679 90.5722 L50.9921 90.5722 L50.9921 86.6371 Z" fill="#000000" fill-rule="evenodd" fill-opacity="1" /><path clip-path="url(#clip600)" d="M101.339 84.3223 Q98.1909 84.3223 96.3391 86.475 Q94.5104 88.6278 94.5104 92.3778 Q94.5104 96.1046 96.3391 98.2805 Q98.1909 100.433 101.339 100.433 Q104.487 100.433 106.316 98.2805 Q108.168 96.1046 108.168 92.3778 Q108.168 88.6278 106.316 86.475 Q104.487 84.3223 101.339 84.3223 M110.621 69.6696 L110.621 73.9288 Q108.862 73.0955 107.057 72.6557 Q105.274 72.2158 103.515 72.2158 Q98.8854 72.2158 96.4317 75.3408 Q94.0012 78.4658 93.6539 84.7852 Q95.0197 82.7713 97.0798 81.7065 Q99.14 80.6186 101.617 80.6186 Q106.825 80.6186 109.834 83.7899 Q112.867 86.938 112.867 92.3778 Q112.867 97.7018 109.719 100.919 Q106.571 104.137 101.339 104.137 Q95.3437 104.137 92.1725 99.5537 Q89.0012 94.9472 89.0012 86.2204 Q89.0012 78.026 92.89 73.1649 Q96.7789 68.2807 103.33 68.2807 Q105.089 68.2807 106.871 68.6279 Q108.677 68.9751 110.621 69.6696 Z" fill="#000000" fill-rule="evenodd" fill-opacity="1" /><path clip-path="url(#clip600)" d="M130.922 71.9844 Q127.311 71.9844 125.482 75.5492 Q123.677 79.0908 123.677 86.2204 Q123.677 93.3268 125.482 96.8916 Q127.311 100.433 130.922 100.433 Q134.556 100.433 136.362 96.8916 Q138.191 93.3268 138.191 86.2204 Q138.191 79.0908 136.362 75.5492 Q134.556 71.9844 130.922 71.9844 M130.922 68.2807 Q136.732 68.2807 139.788 72.8871 Q142.867 77.4704 142.867 86.2204 Q142.867 94.9472 139.788 99.5537 Q136.732 104.137 130.922 104.137 Q125.112 104.137 122.033 99.5537 Q118.978 94.9472 118.978 86.2204 Q118.978 77.4704 122.033 72.8871 Q125.112 68.2807 130.922 68.2807 Z" fill="#000000" fill-rule="evenodd" fill-opacity="1" /><polyline clip-path="url(#clip602)" style="stroke:#009af9; stroke-linecap:butt; stroke-linejoin:round; stroke-width:8; stroke-opacity:1; fill:none" points="
  178.867,86.1857 180.742,168.884 182.618,249.846 184.494,330.475 186.369,410.103 188.245,487.93 190.121,563.272 191.996,635.657 193.872,704.458 195.748,769.477 
  197.623,830.714 199.499,887.457 201.375,940.329 203.25,989.256 205.126,1033.76 207.002,1074.66 208.877,1112.07 210.753,1145.69 212.629,1176.07 214.504,1203.63 
  216.38,1228.22 218.255,1250.02 220.131,1269.62 222.007,1287.03 223.882,1302.19 225.758,1315.65 227.634,1327.44 229.509,1337.59 231.385,1346.47 233.261,1354.07 
  235.136,1360.15 237.012,1365.18 238.888,1369.61 240.763,1373.46 242.639,1376.73 244.515,1379.4 246.39,1381.49 248.266,1382.99 250.142,1383.91 252.017,1384.24 
  253.893,1383.98 255.769,1383.14 257.644,1382.02 259.52,1380.7 261.396,1379.19 263.271,1377.47 265.147,1375.56 267.023,1373.39 268.898,1371.15 270.774,1368.89 
  272.65,1366.59 274.525,1364.25 276.401,1361.88 278.277,1359.48 280.152,1357.04 282.028,1354.57 283.904,1352.06 285.779,1349.52 287.655,1346.95 289.531,1344.34 
  291.406,1341.69 293.282,1339.03 295.158,1336.41 297.033,1333.82 298.909,1331.28 300.784,1328.77 302.66,1326.31 304.536,1323.89 306.411,1321.5 308.287,1319.16 
  310.163,1316.86 312.038,1314.59 313.914,1312.39 315.79,1310.26 317.665,1308.17 319.541,1306.13 321.417,1304.12 323.292,1302.17 325.168,1300.26 327.044,1298.39 
  328.919,1296.57 330.795,1294.79 332.671,1293.05 334.546,1291.36 336.422,1289.72 338.298,1288.11 340.173,1286.56 342.049,1285.04 343.925,1283.58 345.8,1282.15 
  347.676,1280.77 349.552,1279.44 351.427,1278.14 353.303,1276.91 355.179,1275.75 357.054,1274.62 358.93,1273.52 360.806,1272.45 362.681,1271.41 364.557,1270.4 
  366.433,1269.42 368.308,1268.47 370.184,1267.55 372.06,1266.66 373.935,1265.81 375.811,1264.98 377.687,1264.19 379.562,1263.42 381.438,1262.69 383.314,1261.99 
  385.189,1261.31 387.065,1260.67 388.94,1260.06 390.816,1259.48 392.692,1258.94 394.567,1258.46 396.443,1257.99 398.319,1257.53 400.194,1257.09 402.07,1256.65 
  403.946,1256.23 405.821,1255.82 407.697,1255.42 409.573,1255.04 411.448,1254.67 413.324,1254.3 415.2,1253.95 417.075,1253.62 418.951,1253.29 420.827,1252.98 
  422.702,1252.68 424.578,1252.39 426.454,1252.11 428.329,1251.84 430.205,1251.59 432.081,1251.35 433.956,1251.12 435.832,1250.9 437.708,1250.7 439.583,1250.5 
  441.459,1250.32 443.335,1250.15 445.21,1249.99 447.086,1249.85 448.962,1249.72 450.837,1249.6 452.713,1249.49 454.589,1249.39 456.464,1249.31 458.34,1249.22 
  460.216,1249.15 462.091,1249.07 463.967,1249 465.843,1248.93 467.718,1248.87 469.594,1248.8 471.47,1248.75 473.345,1248.69 475.221,1248.64 477.096,1248.59 
  478.972,1248.54 480.848,1248.5 482.723,1248.46 484.599,1248.43 486.475,1248.39 488.35,1248.36 490.226,1233.61 492.102,1201.37 493.977,1172.12 495.853,1145.88 
  497.729,1122.14 499.604,1100.35 501.48,1080.45 503.356,1062.36 505.231,1046.19 507.107,1031.47 508.983,1018.08 510.858,1006.01 512.734,995.265 514.61,985.842 
  516.485,977.795 518.361,970.654 520.237,964.411 522.112,959.066 523.988,954.618 525.864,951.069 527.739,948.441 529.615,946.735 531.491,945.572 533.366,944.951 
  535.242,944.872 537.118,945.336 538.993,946.343 540.869,947.892 542.745,949.983 544.62,952.695 546.496,955.801 548.372,959.139 550.247,962.708 552.123,966.509 
  553.999,970.542 555.874,974.807 557.75,979.304 559.625,984.032 561.501,988.992 563.377,994.259 565.252,999.647 567.128,1005.03 569.004,1010.41 570.879,1015.79 
  572.755,1021.16 574.631,1026.53 576.506,1031.89 578.382,1037.25 580.258,1042.6 582.133,1047.96 584.009,1053.3 585.885,1058.65 587.76,1064.01 589.636,1069.27 
  591.512,1074.43 593.387,1079.49 595.263,1084.43 597.139,1089.27 599.014,1094.01 600.89,1098.64 602.766,1103.16 604.641,1107.57 606.517,1111.88 608.393,1116.08 
  610.268,1120.18 612.144,1124.17 614.02,1128.05 615.895,1131.81 617.771,1135.47 619.647,1139.03 621.522,1142.5 623.398,1145.86 625.274,1149.14 627.149,1152.31 
  629.025,1155.39 630.901,1158.37 632.776,1161.25 634.652,1164.04 636.528,1166.73 638.403,1169.32 640.279,1171.81 642.155,1174.21 644.03,1176.51 645.906,1178.69 
  647.781,1180.79 649.657,1182.84 651.533,1184.82 653.408,1186.76 655.284,1188.63 657.16,1190.45 659.035,1192.22 660.911,1193.93 662.787,1195.58 664.662,1197.17 
  666.538,1198.71 668.414,1200.2 670.289,1201.62 672.165,1202.99 674.041,1204.31 675.916,1205.57 677.792,1206.77 679.668,1207.92 681.543,1208.99 683.419,1210.03 
  685.295,1211.05 687.17,1212.04 689.046,1213.01 690.922,1213.95 692.797,1214.87 694.673,1215.76 696.549,1216.63 698.424,1217.47 700.3,1218.28 702.176,1219.07 
  704.051,1219.83 705.927,1220.57 707.803,1221.28 709.678,1221.97 711.554,1222.63 713.43,1223.27 715.305,1223.88 717.181,1224.47 719.057,1225.03 720.932,1225.55 
  722.808,1226.06 724.684,1226.56 726.559,1227.05 728.435,1227.53 730.311,1228 732.186,1228.46 734.062,1228.91 735.937,1229.35 737.813,1229.78 739.689,1230.2 
  741.564,1230.6 743.44,1231 745.316,1231.39 747.191,1231.77 749.067,1232.13 750.943,1232.49 752.818,1232.83 754.694,1233.17 756.57,1233.5 758.445,1233.81 
  760.321,1234.11 762.197,1234.41 764.072,1234.69 765.948,1234.96 767.824,1235.23 769.699,1235.49 771.575,1235.75 773.451,1236 775.326,1236.25 777.202,1236.49 
  779.078,1236.73 780.953,1236.96 782.829,1237.19 784.705,1237.41 786.58,1237.63 788.456,1237.84 790.332,1238.05 792.207,1238.25 794.083,1238.45 795.959,1238.65 
  797.834,1238.83 799.71,1239.02 801.586,1199.9 803.461,1158.34 805.337,1121.17 807.213,1087.21 809.088,1056.09 810.964,1027.54 812.84,1001.46 814.715,977.917 
  816.591,956.411 818.466,936.726 820.342,918.864 822.218,902.823 824.093,888.763 825.969,876.059 827.845,864.628 829.72,854.47 831.596,845.586 833.472,837.974 
  835.347,831.636 837.223,826.662 839.099,822.818 840.974,819.826 842.85,817.687 844.726,816.401 846.601,815.967 848.477,816.385 850.353,817.656 852.228,819.87 
  854.104,822.859 855.98,826.298 857.855,830.188 859.731,834.529 861.607,839.321 863.482,844.564 865.358,850.257 867.234,856.402 869.109,862.997 870.985,870.157 
  872.861,877.597 874.736,885.109 876.612,892.692 878.488,900.348 880.363,908.074 882.239,915.873 884.115,923.743 885.99,931.685 887.866,939.698 889.742,947.783 
  891.617,955.94 893.493,964.25 895.369,972.411 897.244,980.423 899.12,988.286 900.996,995.998 902.871,1003.56 904.747,1010.97 906.622,1018.24 908.498,1025.35 
  910.374,1032.32 912.249,1039.13 914.125,1045.8 916.001,1052.31 917.876,1058.68 919.752,1064.89 921.628,1070.94 923.503,1076.82 925.379,1082.53 927.255,1088.07 
  929.13,1093.45 931.006,1098.66 932.882,1103.7 934.757,1108.58 936.633,1113.29 938.509,1117.83 940.384,1122.2 942.26,1126.41 944.136,1130.45 946.011,1134.31 
  947.887,1137.99 949.763,1141.56 951.638,1145.03 953.514,1148.39 955.39,1151.64 957.265,1154.8 959.141,1157.84 961.017,1160.79 962.892,1163.62 964.768,1166.36 
  966.644,1168.99 968.519,1171.51 970.395,1173.93 972.271,1176.25 974.146,1178.46 976.022,1180.57 977.898,1182.57 979.773,1184.44 981.649,1186.26 983.525,1188.03 
  985.4,1189.75 987.276,1191.42 989.152,1193.04 991.027,1194.61 992.903,1196.14 994.778,1197.61 996.654,1199.03 998.53,1200.41 1000.41,1201.73 1002.28,1203.01 
  1004.16,1204.24 1006.03,1205.41 1007.91,1206.54 1009.78,1207.62 1011.66,1208.65 1013.54,1209.62 1015.41,1210.54 1017.29,1211.44 1019.16,1212.32 1021.04,1213.17 
  1022.91,1214.01 1024.79,1214.83 1026.66,1215.63 1028.54,1216.4 1030.42,1217.16 1032.29,1217.9 1034.17,1218.61 1036.04,1219.31 1037.92,1219.98 1039.79,1220.64 
  1041.67,1221.27 1043.55,1221.88 1045.42,1222.48 1047.3,1223.05 1049.17,1223.6 1051.05,1224.13 1052.92,1224.64 1054.8,1225.13 1056.68,1225.6 1058.55,1226.06 
  1060.43,1226.52 1062.3,1226.96 1064.18,1227.4 1066.05,1227.83 1067.93,1228.26 1069.8,1228.67 1071.68,1229.07 1073.56,1229.47 1075.43,1229.86 1077.31,1230.23 
  1079.18,1230.61 1081.06,1230.97 1082.93,1231.32 1084.81,1231.66 1086.69,1232 1088.56,1232.33 1090.44,1232.65 1092.31,1232.96 1094.19,1233.26 1096.06,1233.55 
  1097.94,1233.84 1099.82,1234.12 1101.69,1234.39 1103.57,1234.66 1105.44,1234.92 1107.32,1235.18 1109.19,1235.43 1111.07,1220.83 1112.95,1172.36 1114.82,1128.97 
  1116.7,1089.71 1118.57,1053.6 1120.45,1020.49 1122.32,990.492 1124.2,962.844 1126.07,937.447 1127.95,914.301 1129.83,893.447 1131.7,874.572 1133.58,857.393 
  1135.45,841.908 1137.33,828.118 1139.2,816.222 1141.08,805.573 1142.96,796.133 1144.83,787.9 1146.71,780.874 1148.58,775.057 1150.46,770.447 1152.33,767.046 
  1154.21,764.937 1156.09,763.853 1157.96,763.59 1159.84,764.148 1161.71,765.527 1163.59,767.729 1165.46,770.751 1167.34,774.659 1169.21,779.498 1171.09,784.73 
  1172.97,790.355 1174.84,796.373 1176.72,802.783 1178.59,809.586 1180.47,816.782 1182.34,824.37 1184.22,832.351 1186.1,840.725 1187.97,849.529 1189.85,858.7 
  1191.72,867.862 1193.6,877.017 1195.47,886.162 1197.35,895.3 1199.23,904.429 1201.1,913.55 1202.98,922.663 1204.85,931.767 1206.73,940.862 1208.6,949.959 
  1210.48,959.119 1212.35,968.08 1214.23,976.843 1216.11,985.406 1217.98,993.77 1219.86,1001.93 1221.73,1009.9 1223.61,1017.67 1225.48,1025.24 1227.36,1032.61 
  1229.24,1039.78 1231.11,1046.75 1232.99,1053.52 1234.86,1060.09 1236.74,1066.47 1238.61,1072.65 1240.49,1078.65 1242.37,1084.47 1244.24,1090.11 1246.12,1095.56 
  1247.99,1100.83 1249.87,1105.92 1251.74,1110.83 1253.62,1115.56 1255.5,1120.1 1257.37,1124.47 1259.25,1128.65 1261.12,1132.65 1263,1136.44 1264.87,1140.05 
  1266.75,1143.56 1268.62,1146.97 1270.5,1150.27 1272.38,1153.46 1274.25,1156.55 1276.13,1159.54 1278,1162.42 1279.88,1165.19 1281.75,1167.85 1283.63,1170.42 
  1285.51,1172.87 1287.38,1175.22 1289.26,1177.47 1291.13,1179.61 1293.01,1181.64 1294.88,1183.57 1296.76,1185.37 1298.64,1187.11 1300.51,1188.81 1302.39,1190.46 
  1304.26,1192.07 1306.14,1193.63 1308.01,1195.13 1309.89,1196.6 1311.76,1198.01 1313.64,1199.38 1315.52,1200.7 1317.39,1201.97 1319.27,1203.19 1321.14,1204.37 
  1323.02,1205.49 1324.89,1206.58 1326.77,1207.61 1328.65,1208.59 1330.52,1209.52 1332.4,1210.41 1334.27,1211.28 1336.15,1212.14 1338.02,1212.97 1339.9,1213.79 
  1341.78,1214.58 1343.65,1215.36 1345.53,1216.12 1347.4,1216.85 1349.28,1217.57 1351.15,1218.27 1353.03,1218.95 1354.91,1219.61 1356.78,1220.25 1358.66,1220.87 
  1360.53,1221.47 1362.41,1222.05 1364.28,1222.61 1366.16,1223.15 1368.03,1223.68 1369.91,1224.18 1371.79,1224.66 1373.66,1225.13 1375.54,1225.59 1377.41,1226.04 
  1379.29,1226.49 1381.16,1226.93 1383.04,1227.36 1384.92,1227.78 1386.79,1228.19 1388.67,1228.6 1390.54,1228.99 1392.42,1229.38 1394.29,1229.76 1396.17,1230.13 
  1398.05,1230.49 1399.92,1230.85 1401.8,1231.2 1403.67,1231.53 1405.55,1231.86 1407.42,1232.19 1409.3,1232.5 1411.17,1232.8 1413.05,1233.1 1414.93,1233.39 
  1416.8,1233.67 1418.68,1233.95 1420.55,1234.22 1422.43,1196.68 1424.3,1148.61 1426.18,1105.61 1428.06,1066.16 1429.93,1029.92 1431.81,996.959 1433.68,966.607 
  1435.56,938.77 1437.43,913.467 1439.31,890.491 1441.19,869.455 1443.06,850.359 1444.94,833.329 1446.81,818.065 1448.69,804.227 1450.56,791.812 1452.44,780.823 
  1454.32,771.258 1456.19,763.117 1458.07,756.456 1459.94,751.168 1461.82,746.909 1463.69,743.679 1465.57,741.479 1467.44,740.307 1469.32,740.165 1471.2,741.053 
  1473.07,743.129 1474.95,745.866 1476.82,749.226 1478.7,753.209 1480.57,757.815 1482.45,763.045 1484.33,768.897 1486.2,775.373 1488.08,782.472 1489.95,790.322 
  1491.83,798.586 1493.7,807.026 1495.58,815.643 1497.46,824.437 1499.33,833.408 1501.21,842.556 1503.08,851.88 1504.96,861.382 1506.83,871.061 1508.71,880.922 
  1510.58,891.113 1512.46,901.151 1514.34,911.036 1516.21,920.769 1518.09,930.349 1519.96,939.776 1521.84,949.051 1523.71,958.173 1525.59,967.142 1527.47,975.958 
  1529.34,984.622 1531.22,993.133 1533.09,1001.49 1534.97,1009.71 1536.84,1017.74 1538.72,1025.56 1540.6,1033.15 1542.47,1040.53 1544.35,1047.68 1546.22,1054.61 
  1548.1,1061.32 1549.97,1067.81 1551.85,1074.08 1553.72,1080.12 1555.6,1085.95 1557.48,1091.55 1559.35,1096.94 1561.23,1102.07 1563.1,1107.04 1564.98,1111.87 
  1566.85,1116.54 1568.73,1121.06 1570.61,1125.42 1572.48,1129.64 1574.36,1133.7 1576.23,1137.61 1578.11,1141.37 1579.98,1144.97 1581.86,1148.43 1583.74,1151.73 
  1585.61,1154.88 1587.49,1157.88 1589.36,1160.72 1591.24,1163.39 1593.11,1165.97 1594.99,1168.47 1596.87,1170.9 1598.74,1173.26 1600.62,1175.54 1602.49,1177.74 
  1604.37,1179.86 1606.24,1181.91 1608.12,1183.89 1609.99,1185.79 1611.87,1187.61 1613.75,1189.36 1615.62,1191.03 1617.5,1192.62 1619.37,1194.14 1621.25,1195.59 
  1623.12,1196.93 1625,1198.23 1626.88,1199.5 1628.75,1200.74 1630.63,1201.94 1632.5,1203.11 1634.38,1204.25 1636.25,1205.36 1638.13,1206.44 1640.01,1207.48 
  1641.88,1208.49 1643.76,1209.47 1645.63,1210.42 1647.51,1211.34 1649.38,1212.22 1651.26,1213.08 1653.13,1213.9 1655.01,1214.68 1656.89,1215.44 1658.76,1216.16 
  1660.64,1216.85 1662.51,1217.51 1664.39,1218.16 1666.26,1218.8 1668.14,1219.42 1670.02,1220.03 1671.89,1220.63 1673.77,1221.22 1675.64,1221.79 1677.52,1222.35 
  1679.39,1222.9 1681.27,1223.43 1683.15,1223.95 1685.02,1224.46 1686.9,1224.96 1688.77,1225.44 1690.65,1225.91 1692.52,1226.36 1694.4,1226.81 1696.28,1227.24 
  1698.15,1227.65 1700.03,1228.06 1701.9,1228.45 1703.78,1228.83 1705.65,1229.2 1707.53,1229.57 1709.4,1229.94 1711.28,1230.29 1713.16,1230.64 1715.03,1230.98 
  1716.91,1231.32 1718.78,1231.65 1720.66,1231.97 1722.53,1232.29 1724.41,1232.59 1726.29,1232.9 1728.16,1233.19 1730.04,1233.48 1731.91,1225.84 1733.79,1173.83 
  1735.66,1127.33 1737.54,1085.24 1739.42,1046.59 1741.29,1011.07 1743.17,978.563 1745.04,949.061 1746.92,921.875 1748.79,896.952 1750.67,874.291 1752.54,854.002 
  1754.42,835.427 1756.3,818.506 1758.17,803.238 1760.05,789.624 1761.92,777.663 1763.8,767.502 1765.67,758.574 1767.55,750.839 1769.43,744.297 1771.3,738.947 
  1773.18,734.789 1775.05,731.824 1776.93,730.052 1778.8,729.609 1780.68,729.976 1782.56,731.135 1784.43,733.086 1786.31,735.828 1788.18,739.361 1790.06,743.686 
  1791.93,748.803 1793.81,754.842 1795.69,761.573 1797.56,768.636 1799.44,776.03 1801.31,783.755 1803.19,791.812 1805.06,800.2 1806.94,808.92 1808.81,817.97 
  1810.69,827.352 1812.57,837.066 1814.44,847.276 1816.32,857.503 1818.19,867.649 1820.07,877.713 1821.94,887.695 1823.82,897.596 1825.7,907.415 1827.57,917.152 
  1829.45,926.807 1831.32,936.38 1833.2,945.872 1835.07,955.282 1836.95,964.621 1838.83,973.884 1840.7,982.917 1842.58,991.72 1844.45,1000.29 1846.33,1008.63 
  1848.2,1016.74 1850.08,1024.62 1851.95,1032.27 1853.83,1039.69 1855.71,1046.88 1857.58,1053.84 1859.46,1060.56 1861.33,1067.06 1863.21,1073.32 1865.08,1079.36 
  1866.96,1085.21 1868.84,1090.88 1870.71,1096.38 1872.59,1101.69 1874.46,1106.81 1876.34,1111.76 1878.21,1116.52 1880.09,1121.1 1881.97,1125.5 1883.84,1129.72 
  1885.72,1133.76 1887.59,1137.61 1889.47,1141.28 1891.34,1144.75 1893.22,1148.05 1895.1,1151.25 1896.97,1154.35 1898.85,1157.35 1900.72,1160.26 1902.6,1163.07 
  1904.47,1165.78 1906.35,1168.39 1908.22,1170.91 1910.1,1173.33 1911.98,1175.65 1913.85,1177.87 1915.73,1180 1917.6,1182.03 1919.48,1183.96 1921.35,1185.79 
  1923.23,1187.51 1925.11,1189.14 1926.98,1190.72 1928.86,1192.27 1930.73,1193.77 1932.61,1195.23 1934.48,1196.64 1936.36,1198.02 1938.24,1199.35 1940.11,1200.64 
  1941.99,1201.89 1943.86,1203.09 1945.74,1204.26 1947.61,1205.38 1949.49,1206.45 1951.36,1207.49 1953.24,1208.49 1955.12,1209.44 1956.99,1210.35 1958.87,1211.21 
  1960.74,1212.03 1962.62,1212.83 1964.49,1213.61 1966.37,1214.38 1968.25,1215.13 1970.12,1215.86 1972,1216.58 1973.87,1217.27 1975.75,1217.96 1977.62,1218.62 
  1979.5,1219.27 1981.38,1219.9 1983.25,1220.52 1985.13,1221.11 1987,1221.69 1988.88,1222.26 1990.75,1222.8 1992.63,1223.33 1994.5,1223.85 1996.38,1224.34 
  1998.26,1224.82 2000.13,1225.28 2002.01,1225.72 2003.88,1226.16 2005.76,1226.6 2007.63,1227.02 2009.51,1227.44 2011.39,1227.85 2013.26,1228.25 2015.14,1228.65 
  2017.01,1229.03 2018.89,1229.41 2020.76,1229.79 2022.64,1230.15 2024.52,1230.51 2026.39,1230.86 2028.27,1231.2 2030.14,1231.54 2032.02,1231.86 2033.89,1232.18 
  2035.77,1232.5 2037.65,1232.8 2039.52,1233.1 2041.4,1233.39 2043.27,1233.67 2045.15,1233.94 2047.02,1234.21 2048.9,1234.47 2050.77,1234.73 2052.65,1234.99 
  2054.53,1235.24 2056.4,1235.49 2058.28,1235.73 2060.15,1235.97 2062.03,1236.21 2063.9,1236.44 2065.78,1236.67 2067.66,1236.89 2069.53,1237.11 2071.41,1237.33 
  2073.28,1237.54 2075.16,1237.75 2077.03,1237.95 2078.91,1238.15 2080.79,1238.35 2082.66,1238.54 2084.54,1238.73 2086.41,1238.91 2088.29,1239.09 2090.16,1239.27 
  2092.04,1239.44 2093.91,1239.61 2095.79,1239.77 2097.67,1239.93 2099.54,1240.08 2101.42,1240.24 2103.29,1240.39 2105.17,1240.54 2107.04,1240.68 2108.92,1240.83 
  2110.8,1240.97 2112.67,1241.11 2114.55,1241.25 2116.42,1241.39 2118.3,1241.52 2120.17,1241.65 2122.05,1241.78 2123.93,1241.91 2125.8,1242.03 2127.68,1242.15 
  2129.55,1242.27 2131.43,1242.39 2133.3,1242.5 2135.18,1242.62 2137.06,1242.73 2138.93,1242.84 2140.81,1242.94 2142.68,1243.05 2144.56,1243.15 2146.43,1243.25 
  2148.31,1243.34 2150.18,1243.44 2152.06,1243.53 2153.94,1243.62 2155.81,1243.7 2157.69,1243.79 2159.56,1243.87 2161.44,1243.95 2163.31,1244.03 2165.19,1244.11 
  2167.07,1244.19 2168.94,1244.27 2170.82,1244.35 2172.69,1244.42 2174.57,1244.5 2176.44,1244.57 2178.32,1244.64 2180.2,1244.71 2182.07,1244.78 2183.95,1244.85 
  2185.82,1244.91 2187.7,1244.98 2189.57,1245.04 2191.45,1245.11 2193.32,1245.17 2195.2,1245.23 2197.08,1245.29 2198.95,1245.35 2200.83,1245.4 2202.7,1245.46 
  2204.58,1245.51 2206.45,1245.57 2208.33,1245.62 2210.21,1245.67 2212.08,1245.72 2213.96,1245.77 2215.83,1245.81 2217.71,1245.86 2219.58,1245.91 2221.46,1245.95 
  2223.34,1245.99 2225.21,1246.03 2227.09,1246.07 2228.96,1246.11 2230.84,1246.15 2232.71,1246.19 2234.59,1246.22 2236.47,1246.26 2238.34,1246.3 2240.22,1246.33 
  2242.09,1246.37 2243.97,1246.4 2245.84,1246.44 2247.72,1246.47 2249.59,1246.5 2251.47,1246.53 2253.35,1246.57 2255.22,1246.6 2257.1,1246.63 2258.97,1246.66 
  2260.85,1246.69 2262.72,1246.72 2264.6,1246.75 2266.48,1246.78 2268.35,1246.8 2270.23,1246.83 2272.1,1246.86 2273.98,1246.88 2275.85,1246.91 2277.73,1246.93 
  2279.61,1246.96 2281.48,1246.98 2283.36,1247.01 2285.23,1247.03 2287.11,1247.05 2288.98,1247.07 2290.86,1247.1 2292.73,1247.12 2294.61,1247.14 2296.49,1247.16 
  2298.36,1247.18 2300.24,1247.19 2302.11,1247.21 2303.99,1247.23 2305.86,1247.25 2307.74,1247.26 2309.62,1247.28 2311.49,1247.3 2313.37,1247.31 2315.24,1247.33 
  2317.12,1247.34 2318.99,1247.36 2320.87,1247.37 2322.75,1247.38 2324.62,1247.4 2326.5,1247.41 2328.37,1247.43 2330.25,1247.44 2332.12,1247.45 2334,1247.46 
  2335.87,1247.48 2337.75,1247.49 2339.63,1247.5 2341.5,1247.51 2343.38,1247.52 2345.25,1247.54 2347.13,1247.55 2349,1247.56 2350.88,1247.57 2352.76,1247.58 
  
  "/>
<polyline clip-path="url(#clip602)" style="stroke:#e26f46; stroke-linecap:butt; stroke-linejoin:round; stroke-width:8; stroke-opacity:1; fill:none" points="
  178.867,86.1857 180.443,155.93 182.019,224.032 183.596,291.963 185.172,359.444 186.749,426.013 188.325,491.212 189.902,554.628 191.478,615.994 193.054,674.867 
  194.631,731.34 196.207,784.784 197.784,835.752 199.36,883.365 200.937,928.503 202.513,970.376 204.089,1009.58 205.666,1046.08 207.242,1079.6 208.819,1110.97 
  210.395,1139.44 211.972,1165.86 213.548,1190 215.124,1211.93 216.701,1232.2 218.277,1250.26 219.854,1266.94 221.43,1281.82 223.007,1295.34 224.583,1307.41 
  226.159,1318.31 227.736,1328.02 229.312,1336.58 230.889,1344.24 232.465,1351 234.041,1356.86 235.618,1361.5 237.194,1365.63 238.771,1369.35 240.347,1372.66 
  241.924,1375.55 243.5,1378.03 245.076,1380.09 246.653,1381.74 248.229,1382.97 249.806,1383.79 251.382,1384.19 252.959,1384.18 254.535,1383.76 256.111,1382.95 
  257.688,1381.99 259.264,1380.89 260.841,1379.66 262.417,1378.28 263.994,1376.76 265.57,1375.09 267.146,1373.24 268.723,1371.36 270.299,1369.46 271.876,1367.54 
  273.452,1365.59 275.029,1363.62 276.605,1361.62 278.181,1359.6 279.758,1357.55 281.334,1355.48 282.911,1353.39 284.487,1351.27 286.063,1349.13 287.64,1346.97 
  289.216,1344.78 290.793,1342.56 292.369,1340.32 293.946,1338.1 295.522,1335.9 297.098,1333.73 298.675,1331.59 300.251,1329.48 301.828,1327.4 303.404,1325.34 
  304.981,1323.32 306.557,1321.32 308.133,1319.35 309.71,1317.41 311.286,1315.5 312.863,1313.61 314.439,1311.79 316.016,1310.01 317.592,1308.25 319.168,1306.53 
  320.745,1304.84 322.321,1303.18 323.898,1301.55 325.474,1299.95 327.051,1298.38 328.627,1296.85 330.203,1295.34 331.78,1293.87 333.356,1292.43 334.933,1291.02 
  336.509,1289.64 338.085,1288.29 339.662,1286.98 341.238,1285.69 342.815,1284.44 344.391,1283.22 345.968,1282.03 347.544,1280.87 349.12,1279.74 350.697,1278.64 
  352.273,1277.58 353.85,1276.57 355.426,1275.6 357.003,1274.65 358.579,1273.72 360.155,1272.81 361.732,1271.93 363.308,1271.07 364.885,1270.22 366.461,1269.4 
  368.038,1268.6 369.614,1267.83 371.19,1267.07 372.767,1266.34 374.343,1265.63 375.92,1264.94 377.496,1264.27 379.073,1263.62 380.649,1262.99 382.225,1262.39 
  383.802,1261.81 385.378,1261.25 386.955,1260.71 388.531,1260.19 390.108,1259.7 391.684,1259.22 393.26,1258.8 394.837,1258.39 396.413,1258 397.99,1257.61 
  399.566,1257.24 401.142,1256.87 402.719,1256.51 404.295,1256.15 405.872,1255.81 407.448,1255.48 409.025,1255.15 410.601,1254.83 412.177,1254.52 413.754,1254.22 
  415.33,1253.93 416.907,1253.65 418.483,1253.37 420.06,1253.1 421.636,1252.85 423.212,1252.6 424.789,1252.35 426.365,1252.12 427.942,1251.9 429.518,1251.68 
  431.095,1251.47 432.671,1251.28 434.247,1251.08 435.824,1250.9 437.4,1250.73 438.977,1250.56 440.553,1250.41 442.13,1250.26 443.706,1250.12 445.282,1249.99 
  446.859,1249.87 448.435,1249.75 450.012,1249.65 451.588,1249.55 453.164,1249.46 454.741,1249.38 456.317,1249.31 457.894,1249.24 459.47,1249.18 461.047,1249.11 
  462.623,1249.05 464.199,1248.99 465.776,1248.93 467.352,1248.88 468.929,1248.83 470.505,1248.78 472.082,1248.73 473.658,1248.68 475.234,1248.64 476.811,1248.6 
  478.387,1248.56 479.964,1248.52 481.54,1248.49 483.117,1248.45 484.693,1248.42 486.269,1248.4 487.846,1248.37 489.422,1248.35 490.999,1219.97 492.575,1193.7 
  494.152,1169.56 495.728,1147.53 497.304,1127.34 498.881,1108.52 500.457,1091.08 502.034,1074.92 503.61,1060.05 505.186,1046.56 506.763,1034.07 508.339,1022.52 
  509.916,1011.91 511.492,1002.23 513.069,993.487 514.645,985.677 516.221,978.871 517.798,972.703 519.374,967.17 520.951,962.27 522.527,958.005 524.104,954.374 
  525.68,951.376 527.256,949.014 528.833,947.38 530.409,946.176 531.986,945.355 533.562,944.917 535.139,944.862 536.715,945.191 538.291,945.903 539.868,946.998 
  541.444,948.476 543.021,950.337 544.597,952.658 546.174,955.25 547.75,958.007 549.326,960.927 550.903,964.01 552.479,967.258 554.056,970.669 555.632,974.244 
  557.208,977.982 558.785,981.884 560.361,985.95 561.938,990.179 563.514,994.654 565.091,999.182 566.667,1003.71 568.243,1008.23 569.82,1012.75 571.396,1017.27 
  572.973,1021.78 574.549,1026.29 576.126,1030.8 577.702,1035.31 579.278,1039.81 580.855,1044.31 582.431,1048.81 584.008,1053.3 585.584,1057.79 587.161,1062.3 
  588.737,1066.76 590.313,1071.15 591.89,1075.46 593.466,1079.7 595.043,1083.86 596.619,1087.94 598.196,1091.95 599.772,1095.89 601.348,1099.75 602.925,1103.54 
  604.501,1107.25 606.078,1110.88 607.654,1114.44 609.23,1117.93 610.807,1121.34 612.383,1124.67 613.96,1127.93 615.536,1131.09 617.113,1134.19 618.689,1137.22 
  620.265,1140.18 621.842,1143.08 623.418,1145.9 624.995,1148.66 626.571,1151.34 628.148,1153.96 629.724,1156.51 631.3,1158.99 632.877,1161.4 634.453,1163.74 
  636.03,1166.02 637.606,1168.22 639.183,1170.36 640.759,1172.43 642.335,1174.43 643.912,1176.36 645.488,1160.8 647.065,1129.75 648.641,1101.33 650.218,1075.51 
  651.794,1051.68 653.37,1029.46 654.947,1008.98 656.523,989.991 658.1,972.408 659.676,956.232 661.253,941.516 662.829,928.122 664.405,915.737 665.982,904.362 
  667.558,893.996 669.135,884.64 670.711,876.293 672.287,869.041 673.864,862.737 675.44,857.118 677.017,852.183 678.593,847.931 680.17,844.363 681.746,841.479 
  683.322,839.279 684.899,837.763 686.475,836.93 688.052,836.891 689.628,837.324 691.205,838.164 692.781,839.412 694.357,841.067 695.934,843.13 697.51,845.601 
  699.087,848.479 700.663,851.765 702.24,855.458 703.816,859.654 705.392,864.201 706.969,868.893 708.545,873.73 710.122,878.714 711.698,883.843 713.275,889.118 
  714.851,894.538 716.427,900.104 718.004,905.816 719.58,911.673 721.157,917.677 722.733,923.825 724.309,930.171 725.886,936.64 727.462,943.06 729.039,949.43 
  730.615,955.75 732.192,962.021 733.768,968.243 735.344,974.414 736.921,980.536 738.497,986.609 740.074,992.632 741.65,998.605 743.227,1004.53 744.803,1010.4 
  746.379,1016.23 747.956,1022 749.532,1027.74 751.109,1033.37 752.685,1038.89 754.262,1044.3 755.838,1049.6 757.414,1054.78 758.991,1059.85 760.567,1064.82 
  762.144,1069.67 763.72,1074.4 765.297,1079.03 766.873,1083.55 768.449,1087.95 770.026,1092.24 771.602,1096.42 773.179,1100.49 774.755,1104.45 776.331,1108.29 
  777.908,1112.03 779.484,1115.67 781.061,1119.23 782.637,1122.69 784.214,1126.07 785.79,1129.36 787.366,1132.55 788.943,1135.66 790.519,1138.67 792.096,1141.6 
  793.672,1144.43 795.249,1147.18 796.825,1149.84 798.401,1152.4 799.978,1154.88 801.554,1123.01 803.131,1093.66 804.707,1066.83 806.284,1042.48 807.86,1019.9 
  809.436,998.882 811.013,979.554 812.589,961.624 814.166,945.072 815.742,929.898 817.319,916.182 818.895,903.634 820.471,892.076 822.048,881.511 823.624,871.936 
  825.201,863.352 826.777,855.76 828.353,849.268 829.93,843.61 831.506,838.628 833.083,834.322 834.659,830.692 836.236,827.738 837.812,825.46 839.388,823.857 
  840.965,822.931 842.541,822.723 844.118,823.207 845.694,824.094 847.271,825.383 848.847,827.076 850.423,829.17 852,831.668 853.576,834.568 855.153,837.871 
  856.729,841.577 858.306,845.685 859.882,850.332 861.458,855.178 863.035,860.166 864.611,865.296 866.188,870.568 867.764,875.982 869.341,881.538 870.917,887.236 
  872.493,893.076 874.07,899.057 875.646,905.181 877.223,911.446 878.799,917.854 880.375,924.497 881.952,931.112 883.528,937.676 885.105,944.186 886.681,950.644 
  888.258,957.05 889.834,963.404 891.41,969.705 892.987,975.953 894.563,982.149 896.14,988.293 897.716,994.384 899.293,1000.42 900.869,1006.41 902.445,1012.34 
  904.022,1018.24 905.598,1024.05 907.175,1029.75 908.751,1035.33 910.328,1040.8 911.904,1046.15 913.48,1051.39 915.057,1056.52 916.633,1061.53 918.21,1066.43 
  919.786,1071.21 921.363,1075.88 922.939,1080.44 924.515,1084.88 926.092,1089.21 927.668,1093.43 929.245,1097.53 930.821,1101.51 932.398,1105.38 933.974,1109.16 
  935.55,1112.84 937.127,1116.43 938.703,1119.93 940.28,1123.34 941.856,1126.66 943.432,1129.89 945.009,1133.02 946.585,1136.06 948.162,1139.01 949.738,1141.87 
  951.315,1144.64 952.891,1147.32 954.467,1149.9 956.044,1134.87 957.62,1104.2 959.197,1076.06 960.773,1050.46 962.35,1027.05 963.926,1005.21 965.502,985.02 
  967.079,966.373 968.655,949.108 970.232,933.224 971.808,918.722 973.385,905.665 974.961,893.604 976.537,882.536 978.114,872.461 979.69,863.38 981.267,855.291 
  982.843,848.204 984.42,842.217 985.996,836.907 987.572,832.276 989.149,828.323 990.725,825.047 992.302,822.45 993.878,820.531 995.454,819.29 997.031,818.727 
  998.607,818.949 1000.18,819.662 1001.76,820.78 1003.34,822.303 1004.91,824.23 1006.49,826.562 1008.07,829.299 1009.64,832.44 1011.22,835.986 1012.8,839.937 
  1014.37,844.366 1015.95,849.186 1017.52,854.149 1019.1,859.256 1020.68,864.505 1022.25,869.898 1023.83,875.434 1025.41,881.114 1026.98,886.936 1028.56,892.902 
  1030.14,899.01 1031.71,905.262 1033.29,911.658 1034.87,918.261 1036.44,924.955 1038.02,931.596 1039.59,938.184 1041.17,944.721 1042.75,951.205 1044.32,957.636 
  1045.9,964.015 1047.48,970.342 1049.05,976.616 1050.63,982.838 1052.21,989.007 1053.78,995.124 1055.36,1001.19 1056.94,1007.2 1058.51,1013.17 1060.09,1019.08 
  1061.66,1024.88 1063.24,1030.56 1064.82,1036.13 1066.39,1041.59 1067.97,1046.93 1069.55,1052.15 1071.12,1057.26 1072.7,1062.26 1074.28,1067.14 1075.85,1071.9 
  1077.43,1076.55 1079,1081.09 1080.58,1085.51 1082.16,1089.82 1083.73,1094.01 1085.31,1098.08 1086.89,1102.03 1088.46,1105.89 1090.04,1109.65 1091.62,1113.32 
  1093.19,1116.9 1094.77,1120.39 1096.35,1123.78 1097.92,1127.08 1099.5,1130.29 1101.07,1133.4 1102.65,1136.42 1104.23,1139.35 1105.8,1142.19 1107.38,1144.93 
  1108.96,1147.59 1110.53,1150.14 1112.11,1118.06 1113.69,1088.53 1115.26,1061.56 1116.84,1037.08 1118.42,1014.35 1119.99,993.198 1121.57,973.761 1123.14,955.723 
  1124.72,939.074 1126.3,923.815 1127.87,910.025 1129.45,897.402 1131.03,885.779 1132.6,875.155 1134.18,865.53 1135.76,856.904 1137.33,849.277 1138.91,842.761 
  1140.49,837.072 1142.06,832.065 1143.64,827.742 1145.21,824.103 1146.79,821.147 1148.37,818.874 1149.94,817.285 1151.52,816.38 1153.1,816.217 1154.67,816.713 
  1156.25,817.618 1157.83,818.934 1159.4,820.659 1160.98,822.794 1162.56,825.339 1164.13,828.294 1165.71,831.658 1167.28,835.433 1168.86,839.616 1170.44,844.351 
  1172.01,849.255 1173.59,854.305 1175.17,859.502 1176.74,864.846 1178.32,870.338 1179.9,875.976 1181.47,881.761 1183.05,887.693 1184.63,893.773 1186.2,899.999 
  1187.78,906.372 1189.35,912.908 1190.93,919.656 1192.51,926.354 1194.08,933 1195.66,939.595 1197.24,946.139 1198.81,952.632 1200.39,959.074 1201.97,965.465 
  1203.54,971.805 1205.12,978.094 1206.7,984.331 1208.27,990.518 1209.85,996.653 1211.42,1002.74 1213,1008.77 1214.58,1014.77 1216.15,1020.66 1217.73,1026.44 
  1219.31,1032.1 1220.88,1037.65 1222.46,1043.08 1224.04,1048.39 1225.61,1053.59 1227.19,1058.67 1228.77,1063.64 1230.34,1068.49 1231.92,1073.23 1233.49,1077.85 
  1235.07,1082.36 1236.65,1086.75 1238.22,1091.02 1239.8,1095.18 1241.38,1099.21 1242.95,1103.14 1244.53,1106.98 1246.11,1110.72 1247.68,1114.37 1249.26,1117.93 
  1250.84,1121.39 1252.41,1124.76 1253.99,1128.03 1255.56,1131.21 1257.14,1134.3 1258.72,1137.29 1260.29,1140.19 1261.87,1143 1263.45,1145.71 1265.02,1148.33 
  1266.6,1133.21 1268.18,1102.32 1269.75,1074.01 1271.33,1048.25 1272.91,1024.68 1274.48,1002.68 1276.06,982.356 1277.63,963.575 1279.21,946.187 1280.79,930.19 
  1282.36,915.588 1283.94,902.432 1285.52,890.277 1287.09,879.123 1288.67,868.97 1290.25,859.817 1291.82,851.665 1293.4,844.535 1294.98,838.486 1296.55,833.121 
  1298.13,828.441 1299.7,824.447 1301.28,821.136 1302.86,818.511 1304.43,816.571 1306.01,815.315 1307.59,814.745 1309.16,814.969 1310.74,815.671 1312.32,816.783 
  1313.89,818.307 1315.47,820.241 1317.05,822.586 1318.62,825.342 1320.2,828.508 1321.77,832.086 1323.35,836.074 1324.93,840.564 1326.5,845.41 1328.08,850.404 
  1329.66,855.545 1331.23,860.834 1332.81,866.27 1334.39,871.853 1335.96,877.584 1337.54,883.462 1339.12,889.488 1340.69,895.661 1342.27,901.982 1343.84,908.45 
  1345.42,915.146 1347,921.894 1348.57,928.591 1350.15,935.237 1351.73,941.831 1353.3,948.374 1354.88,954.866 1356.46,961.306 1358.03,967.695 1359.61,974.033 
  1361.18,980.319 1362.76,986.554 1364.34,992.737 1365.91,998.869 1367.49,1004.95 1369.07,1010.99 1370.64,1016.96 1372.22,1022.82 1373.8,1028.56 1375.37,1034.19 
  1376.95,1039.7 1378.53,1045.09 1380.1,1050.36 1381.68,1055.52 1383.25,1060.57 1384.83,1065.5 1386.41,1070.31 1387.98,1075 1389.56,1079.58 1391.14,1084.04 
  1392.71,1088.39 1394.29,1092.62 1395.87,1096.74 1397.44,1100.73 1399.02,1104.62 1400.6,1108.43 1402.17,1112.13 1403.75,1115.75 1405.32,1119.27 1406.9,1122.7 
  1408.48,1126.03 1410.05,1129.27 1411.63,1132.41 1413.21,1135.46 1414.78,1138.42 1416.36,1141.28 1417.94,1144.05 1419.51,1146.73 1421.09,1149.31 1422.67,1117.11 
  1424.24,1087.47 1425.82,1060.4 1427.39,1035.84 1428.97,1013.02 1430.55,991.787 1432.12,972.278 1433.7,954.169 1435.28,937.455 1436.85,922.136 1438.43,908.292 
  1440.01,895.617 1441.58,883.944 1443.16,873.275 1444.74,863.608 1446.31,854.945 1447.89,847.284 1449.46,840.741 1451.04,835.02 1452.62,829.986 1454.19,825.639 
  1455.77,821.979 1457.35,819.005 1458.92,816.718 1460.5,815.119 1462.08,814.206 1463.65,814.042 1465.23,814.532 1466.81,815.435 1468.38,816.75 1469.96,818.478 
  1471.53,820.619 1473.11,823.173 1474.69,826.139 1476.26,829.519 1477.84,833.311 1479.42,837.515 1480.99,842.276 1482.57,847.197 1484.15,852.267 1485.72,857.485 
  1487.3,862.853 1488.88,868.37 1490.45,874.036 1492.03,879.851 1493.6,885.815 1495.18,891.928 1496.76,898.189 1498.33,904.6 1499.91,911.184 1501.49,917.965 
  1503.06,924.695 1504.64,931.374 1506.22,938.002 1507.79,944.58 1509.37,951.107 1510.95,957.583 1512.52,964.008 1514.1,970.383 1515.67,976.707 1517.25,982.98 
  1518.83,989.202 1520.4,995.374 1521.98,1001.49 1523.56,1007.57 1525.13,1013.6 1526.71,1019.53 1528.29,1025.34 1529.86,1031.03 1531.44,1036.6 1533.02,1042.06 
  1534.59,1047.41 1536.17,1052.63 1537.74,1057.75 1539.32,1062.74 1540.9,1067.62 1542.47,1072.38 1544.05,1077.02 1545.63,1081.55 1547.2,1085.97 1548.78,1090.26 
  1550.36,1094.44 1551.93,1098.5 1553.51,1102.45 1555.09,1106.31 1556.66,1110.07 1558.24,1113.74 1559.81,1117.31 1561.39,1120.79 1562.97,1124.18 1564.54,1127.47 
  1566.12,1130.67 1567.7,1133.77 1569.27,1136.78 1570.85,1139.7 1572.43,1142.52 1574,1145.25 1575.58,1147.88 1577.16,1132.73 1578.73,1101.79 1580.31,1073.42 
  1581.88,1047.63 1583.46,1024.01 1585.04,1001.97 1586.61,981.606 1588.19,962.79 1589.77,945.368 1591.34,929.341 1592.92,914.712 1594.5,901.529 1596.07,889.349 
  1597.65,878.172 1599.23,867.997 1600.8,858.825 1602.38,850.656 1603.95,843.515 1605.53,837.449 1607.11,832.069 1608.68,827.376 1610.26,823.37 1611.84,820.051 
  1613.41,817.418 1614.99,815.472 1616.57,814.213 1618.14,813.641 1619.72,813.866 1621.29,814.565 1622.87,815.676 1624.45,817.2 1626.02,819.136 1627.6,821.485 
  1629.18,824.247 1630.75,827.421 1632.33,831.007 1633.91,835.006 1635.48,839.513 1637.06,844.366 1638.64,849.369 1640.21,854.519 1641.79,859.819 1643.36,865.267 
  1644.94,870.864 1646.52,876.609 1648.09,882.503 1649.67,888.546 1651.25,894.737 1652.82,901.077 1654.4,907.565 1655.98,914.286 1657.55,921.05 1659.13,927.762 
  1660.71,934.424 1662.28,941.034 1663.86,947.594 1665.43,954.102 1667.01,960.559 1668.59,966.966 1670.16,973.321 1671.74,979.625 1673.32,985.878 1674.89,992.08 
  1676.47,998.231 1678.05,1004.33 1679.62,1010.39 1681.2,1016.38 1682.78,1022.26 1684.35,1028.01 1685.93,1033.65 1687.5,1039.17 1689.08,1044.58 1690.66,1049.87 
  1692.23,1055.05 1693.81,1060.1 1695.39,1065.04 1696.96,1069.87 1698.54,1074.58 1700.12,1079.17 1701.69,1083.64 1703.27,1088 1704.85,1092.24 1706.42,1096.37 
  1708,1100.37 1709.57,1104.28 1711.15,1108.09 1712.73,1111.81 1714.3,1115.43 1715.88,1118.96 1717.46,1122.4 1719.03,1125.74 1720.61,1128.99 1722.19,1132.14 
  1723.76,1135.2 1725.34,1138.17 1726.92,1141.04 1728.49,1143.81 1730.07,1146.5 1731.64,1149.08 1733.22,1116.85 1734.8,1087.19 1736.37,1060.1 1737.95,1035.51 
  1739.53,1012.67 1741.1,991.422 1742.68,971.896 1744.26,953.772 1745.83,937.042 1747.41,921.709 1748.99,907.852 1750.56,895.164 1752.14,883.481 1753.71,872.801 
  1755.29,863.125 1756.87,854.452 1758.44,846.784 1760.02,840.233 1761.6,834.505 1763.17,829.466 1764.75,825.113 1766.33,821.448 1767.9,818.471 1769.48,816.181 
  1771.06,814.579 1772.63,813.664 1774.21,813.5 1775.78,813.99 1777.36,814.892 1778.94,816.208 1780.51,817.937 1782.09,820.08 1783.67,822.636 1785.24,825.605 
  1786.82,828.988 1788.4,832.784 1789.97,836.994 1791.55,841.76 1793.13,846.686 1794.7,851.761 1796.28,856.986 1797.85,862.36 1799.43,867.884 1801.01,873.557 
  1802.58,879.379 1804.16,885.35 1805.74,891.471 1807.31,897.742 1808.89,904.161 1810.47,910.756 1812.04,917.545 1813.62,924.283 1815.2,930.971 1816.77,937.607 
  1818.35,944.194 1819.92,950.729 1821.5,957.214 1823.08,963.648 1824.65,970.031 1826.23,976.363 1827.81,982.645 1829.38,988.877 1830.96,995.057 1832.54,1001.19 
  1834.11,1007.27 1835.69,1013.31 1837.27,1019.24 1838.84,1025.06 1840.42,1030.76 1841.99,1036.34 1843.57,1041.81 1845.15,1047.16 1846.72,1052.4 1848.3,1057.51 
  1849.88,1062.51 1851.45,1067.4 1853.03,1072.17 1854.61,1076.82 1856.18,1081.35 1857.76,1085.77 1859.34,1090.07 1860.91,1094.26 1862.49,1098.31 1864.06,1102.26 
  1865.64,1106.12 1867.22,1109.88 1868.79,1113.56 1870.37,1117.14 1871.95,1120.63 1873.52,1124.03 1875.1,1127.34 1876.68,1130.55 1878.25,1133.68 1879.83,1136.71 
  1881.41,1139.65 1882.98,1142.5 1884.56,1145.26 1886.13,1147.93 1887.71,1150.5 1889.29,1152.98 1890.86,1155.37 1892.44,1157.64 1894.02,1159.86 1895.59,1162.03 
  1897.17,1164.15 1898.75,1166.21 1900.32,1168.23 1901.9,1170.19 1903.47,1172.11 1905.05,1173.97 1906.63,1175.79 1908.2,1177.55 1909.78,1179.26 1911.36,1180.92 
  1912.93,1182.54 1914.51,1184.1 1916.09,1185.61 1917.66,1187.07 1919.24,1188.48 1920.82,1189.83 1922.39,1191.14 1923.97,1192.4 1925.54,1193.59 1927.12,1194.75 
  1928.7,1195.88 1930.27,1196.99 1931.85,1198.08 1933.43,1199.15 1935,1200.19 1936.58,1201.21 1938.16,1202.21 1939.73,1203.18 1941.31,1204.13 1942.89,1205.06 
  1944.46,1205.96 1946.04,1206.84 1947.61,1207.7 1949.19,1208.53 1950.77,1209.34 1952.34,1210.13 1953.92,1210.89 1955.5,1211.63 1957.07,1212.35 1958.65,1213.04 
  1960.23,1213.71 1961.8,1214.35 1963.38,1214.97 1964.96,1215.58 1966.53,1216.18 1968.11,1216.77 1969.68,1217.34 1971.26,1217.91 1972.84,1218.47 1974.41,1219.02 
  1975.99,1219.56 1977.57,1220.08 1979.14,1220.6 1980.72,1221.11 1982.3,1221.6 1983.87,1222.09 1985.45,1222.57 1987.03,1223.03 1988.6,1223.49 1990.18,1223.93 
  1991.75,1224.37 1993.33,1224.79 1994.91,1225.21 1996.48,1225.61 1998.06,1226.01 1999.64,1226.39 2001.21,1226.77 2002.79,1227.13 2004.37,1227.48 2005.94,1227.82 
  2007.52,1228.16 2009.1,1228.5 2010.67,1228.83 2012.25,1229.15 2013.82,1229.48 2015.4,1229.79 2016.98,1230.1 2018.55,1230.41 2020.13,1230.71 2021.71,1231.01 
  2023.28,1231.3 2024.86,1231.59 2026.44,1231.87 2028.01,1232.15 2029.59,1232.42 2031.17,1232.69 2032.74,1232.95 2034.32,1233.21 2035.89,1233.46 2037.47,1233.71 
  2039.05,1233.95 2040.62,1234.19 2042.2,1234.42 2043.78,1234.65 2045.35,1234.88 2046.93,1235.09 2048.51,1235.31 2050.08,1235.51 2051.66,1235.72 2053.24,1235.92 
  2054.81,1236.12 2056.39,1236.31 2057.96,1236.51 2059.54,1236.7 2061.12,1236.89 2062.69,1237.07 2064.27,1237.25 2065.85,1237.43 2067.42,1237.61 2069,1237.79 
  2070.58,1237.96 2072.15,1238.13 2073.73,1238.3 2075.31,1238.46 2076.88,1238.63 2078.46,1238.79 2080.03,1238.94 2081.61,1239.1 2083.19,1239.25 2084.76,1239.4 
  2086.34,1239.54 2087.92,1239.69 2089.49,1239.83 2091.07,1239.97 2092.65,1240.11 2094.22,1240.24 2095.8,1240.37 2097.38,1240.5 2098.95,1240.63 2100.53,1240.75 
  2102.1,1240.87 2103.68,1240.98 2105.26,1241.1 2106.83,1241.21 2108.41,1241.33 2109.99,1241.44 2111.56,1241.55 2113.14,1241.66 2114.72,1241.76 2116.29,1241.87 
  2117.87,1241.97 2119.45,1242.07 2121.02,1242.17 2122.6,1242.27 2124.17,1242.37 2125.75,1242.47 2127.33,1242.56 2128.9,1242.66 2130.48,1242.75 2132.06,1242.84 
  2133.63,1242.93 2135.21,1243.02 2136.79,1243.11 2138.36,1243.19 2139.94,1243.28 2141.52,1243.36 2143.09,1243.44 2144.67,1243.52 2146.24,1243.6 2147.82,1243.68 
  2149.4,1243.75 2150.97,1243.83 2152.55,1243.9 2154.13,1243.97 2155.7,1244.04 2157.28,1244.11 2158.86,1244.18 2160.43,1244.24 2162.01,1244.31 2163.58,1244.37 
  2165.16,1244.43 2166.74,1244.49 2168.31,1244.55 2169.89,1244.6 2171.47,1244.66 2173.04,1244.72 2174.62,1244.77 2176.2,1244.83 2177.77,1244.88 2179.35,1244.94 
  2180.93,1244.99 2182.5,1245.04 2184.08,1245.09 2185.65,1245.15 2187.23,1245.2 2188.81,1245.25 2190.38,1245.29 2191.96,1245.34 2193.54,1245.39 2195.11,1245.44 
  2196.69,1245.48 2198.27,1245.53 2199.84,1245.57 2201.42,1245.62 2203,1245.66 2204.57,1245.7 2206.15,1245.75 2207.72,1245.79 2209.3,1245.83 2210.88,1245.87 
  2212.45,1245.91 2214.03,1245.94 2215.61,1245.98 2217.18,1246.02 2218.76,1246.05 2220.34,1246.09 2221.91,1246.13 2223.49,1246.16 2225.07,1246.19 2226.64,1246.23 
  2228.22,1246.26 2229.79,1246.29 2231.37,1246.32 2232.95,1246.35 2234.52,1246.38 2236.1,1246.41 2237.68,1246.43 2239.25,1246.46 2240.83,1246.49 2242.41,1246.51 
  2243.98,1246.54 2245.56,1246.56 2247.14,1246.59 2248.71,1246.61 2250.29,1246.64 2251.86,1246.66 2253.44,1246.69 2255.02,1246.71 2256.59,1246.73 2258.17,1246.75 
  2259.75,1246.78 2261.32,1246.8 2262.9,1246.82 2264.48,1246.84 2266.05,1246.87 2267.63,1246.89 2269.21,1246.91 2270.78,1246.93 2272.36,1246.95 2273.93,1246.97 
  2275.51,1246.99 2277.09,1247.01 2278.66,1247.03 2280.24,1247.05 2281.82,1247.06 2283.39,1247.08 2284.97,1247.1 2286.55,1247.12 2288.12,1247.14 2289.7,1247.15 
  2291.28,1247.17 2292.85,1247.19 2294.43,1247.2 2296,1247.22 2297.58,1247.23 2299.16,1247.25 2300.73,1247.27 2302.31,1247.28 2303.89,1247.29 2305.46,1247.31 
  2307.04,1247.32 2308.62,1247.34 2310.19,1247.35 2311.77,1247.36 2313.35,1247.38 2314.92,1247.39 2316.5,1247.4 2318.07,1247.41 2319.65,1247.42 2321.23,1247.43 
  2322.8,1247.45 2324.38,1247.46 2325.96,1247.47 2327.53,1247.48 2329.11,1247.49 2330.69,1247.5 2332.26,1247.51 2333.84,1247.52 2335.42,1247.53 2336.99,1247.53 
  2338.57,1247.54 2340.14,1247.55 2341.72,1247.56 2343.3,1247.57 2344.87,1247.58 2346.45,1247.59 2348.03,1247.6 2349.6,1247.6 2351.18,1247.61 2352.76,1247.62 
  
  "/>
<path clip-path="url(#clip600)" d="
M1848.94 248.629 L2280.29 248.629 L2280.29 93.1086 L1848.94 93.1086  Z
  " fill="#ffffff" fill-rule="evenodd" fill-opacity="1"/>
<polyline clip-path="url(#clip600)" style="stroke:#000000; stroke-linecap:butt; stroke-linejoin:round; stroke-width:4; stroke-opacity:1; fill:none" points="
  1848.94,248.629 2280.29,248.629 2280.29,93.1086 1848.94,93.1086 1848.94,248.629 
  "/>
<polyline clip-path="url(#clip600)" style="stroke:#009af9; stroke-linecap:butt; stroke-linejoin:round; stroke-width:4; stroke-opacity:1; fill:none" points="
  1873.09,144.949 2018.02,144.949 
  "/>
<path clip-path="url(#clip600)" d="M2042.17 136.303 L2046.68 136.303 L2054.79 158.062 L2062.89 136.303 L2067.4 136.303 L2057.68 162.229 L2051.89 162.229 L2042.17 136.303 Z" fill="#000000" fill-rule="evenodd" fill-opacity="1" /><path clip-path="url(#clip600)" d="M2098.58 126.257 Q2095.48 131.581 2093.98 136.789 Q2092.47 141.997 2092.47 147.344 Q2092.47 152.692 2093.98 157.946 Q2095.5 163.178 2098.58 168.479 L2094.88 168.479 Q2091.41 163.039 2089.67 157.784 Q2087.96 152.53 2087.96 147.344 Q2087.96 142.182 2089.67 136.951 Q2091.38 131.72 2094.88 126.257 L2098.58 126.257 Z" fill="#000000" fill-rule="evenodd" fill-opacity="1" /><path clip-path="url(#clip600)" d="M2108.26 158.293 L2115.9 158.293 L2115.9 131.928 L2107.59 133.595 L2107.59 129.335 L2115.85 127.669 L2120.53 127.669 L2120.53 158.293 L2128.17 158.293 L2128.17 162.229 L2108.26 162.229 L2108.26 158.293 Z" fill="#000000" fill-rule="evenodd" fill-opacity="1" /><path clip-path="url(#clip600)" d="M2147.61 130.747 Q2144 130.747 2142.17 134.312 Q2140.36 137.854 2140.36 144.983 Q2140.36 152.09 2142.17 155.655 Q2144 159.196 2147.61 159.196 Q2151.24 159.196 2153.05 155.655 Q2154.88 152.09 2154.88 144.983 Q2154.88 137.854 2153.05 134.312 Q2151.24 130.747 2147.61 130.747 M2147.61 127.044 Q2153.42 127.044 2156.48 131.65 Q2159.55 136.233 2159.55 144.983 Q2159.55 153.71 2156.48 158.317 Q2153.42 162.9 2147.61 162.9 Q2141.8 162.9 2138.72 158.317 Q2135.67 153.71 2135.67 144.983 Q2135.67 136.233 2138.72 131.65 Q2141.8 127.044 2147.61 127.044 Z" fill="#000000" fill-rule="evenodd" fill-opacity="1" /><path clip-path="url(#clip600)" d="M2177.77 130.747 Q2174.16 130.747 2172.33 134.312 Q2170.53 137.854 2170.53 144.983 Q2170.53 152.09 2172.33 155.655 Q2174.16 159.196 2177.77 159.196 Q2181.41 159.196 2183.21 155.655 Q2185.04 152.09 2185.04 144.983 Q2185.04 137.854 2183.21 134.312 Q2181.41 130.747 2177.77 130.747 M2177.77 127.044 Q2183.58 127.044 2186.64 131.65 Q2189.72 136.233 2189.72 144.983 Q2189.72 153.71 2186.64 158.317 Q2183.58 162.9 2177.77 162.9 Q2171.96 162.9 2168.88 158.317 Q2165.83 153.71 2165.83 144.983 Q2165.83 136.233 2168.88 131.65 Q2171.96 127.044 2177.77 127.044 Z" fill="#000000" fill-rule="evenodd" fill-opacity="1" /><path clip-path="url(#clip600)" d="M2213.86 137.067 L2213.86 141.094 Q2212.05 140.169 2210.11 139.706 Q2208.16 139.243 2206.08 139.243 Q2202.91 139.243 2201.31 140.215 Q2199.74 141.187 2199.74 143.131 Q2199.74 144.613 2200.87 145.469 Q2202.01 146.303 2205.43 147.067 L2206.89 147.391 Q2211.43 148.363 2213.33 150.145 Q2215.25 151.905 2215.25 155.076 Q2215.25 158.687 2212.38 160.793 Q2209.53 162.9 2204.53 162.9 Q2202.45 162.9 2200.18 162.483 Q2197.93 162.09 2195.43 161.28 L2195.43 156.881 Q2197.79 158.108 2200.09 158.733 Q2202.38 159.335 2204.62 159.335 Q2207.63 159.335 2209.25 158.317 Q2210.87 157.275 2210.87 155.4 Q2210.87 153.664 2209.69 152.738 Q2208.54 151.812 2204.58 150.956 L2203.1 150.608 Q2199.14 149.775 2197.38 148.062 Q2195.62 146.326 2195.62 143.317 Q2195.62 139.659 2198.21 137.669 Q2200.8 135.678 2205.57 135.678 Q2207.93 135.678 2210.02 136.025 Q2212.1 136.372 2213.86 137.067 Z" fill="#000000" fill-rule="evenodd" fill-opacity="1" /><path clip-path="url(#clip600)" d="M2221.36 126.257 L2225.06 126.257 Q2228.54 131.72 2230.25 136.951 Q2231.98 142.182 2231.98 147.344 Q2231.98 152.53 2230.25 157.784 Q2228.54 163.039 2225.06 168.479 L2221.36 168.479 Q2224.44 163.178 2225.94 157.946 Q2227.47 152.692 2227.47 147.344 Q2227.47 141.997 2225.94 136.789 Q2224.44 131.581 2221.36 126.257 Z" fill="#000000" fill-rule="evenodd" fill-opacity="1" /><polyline clip-path="url(#clip600)" style="stroke:#e26f46; stroke-linecap:butt; stroke-linejoin:round; stroke-width:4; stroke-opacity:1; fill:none" points="
  1873.09,196.789 2018.02,196.789 
  "/>
<path clip-path="url(#clip600)" d="M2042.17 188.143 L2046.68 188.143 L2054.79 209.902 L2062.89 188.143 L2067.4 188.143 L2057.68 214.069 L2051.89 214.069 L2042.17 188.143 Z" fill="#000000" fill-rule="evenodd" fill-opacity="1" /><path clip-path="url(#clip600)" d="M2098.58 178.097 Q2095.48 183.421 2093.98 188.629 Q2092.47 193.837 2092.47 199.184 Q2092.47 204.532 2093.98 209.786 Q2095.5 215.018 2098.58 220.319 L2094.88 220.319 Q2091.41 214.879 2089.67 209.624 Q2087.96 204.37 2087.96 199.184 Q2087.96 194.022 2089.67 188.791 Q2091.38 183.56 2094.88 178.097 L2098.58 178.097 Z" fill="#000000" fill-rule="evenodd" fill-opacity="1" /><path clip-path="url(#clip600)" d="M2107.49 179.509 L2125.85 179.509 L2125.85 183.444 L2111.78 183.444 L2111.78 191.916 Q2112.8 191.569 2113.81 191.407 Q2114.83 191.222 2115.85 191.222 Q2121.64 191.222 2125.02 194.393 Q2128.4 197.564 2128.4 202.981 Q2128.4 208.559 2124.92 211.661 Q2121.45 214.74 2115.13 214.74 Q2112.96 214.74 2110.69 214.37 Q2108.44 213.999 2106.04 213.258 L2106.04 208.559 Q2108.12 209.694 2110.34 210.249 Q2112.56 210.805 2115.04 210.805 Q2119.05 210.805 2121.38 208.698 Q2123.72 206.592 2123.72 202.981 Q2123.72 199.37 2121.38 197.263 Q2119.05 195.157 2115.04 195.157 Q2113.17 195.157 2111.29 195.573 Q2109.44 195.99 2107.49 196.87 L2107.49 179.509 Z" fill="#000000" fill-rule="evenodd" fill-opacity="1" /><path clip-path="url(#clip600)" d="M2147.61 182.587 Q2144 182.587 2142.17 186.152 Q2140.36 189.694 2140.36 196.823 Q2140.36 203.93 2142.17 207.495 Q2144 211.036 2147.61 211.036 Q2151.24 211.036 2153.05 207.495 Q2154.88 203.93 2154.88 196.823 Q2154.88 189.694 2153.05 186.152 Q2151.24 182.587 2147.61 182.587 M2147.61 178.884 Q2153.42 178.884 2156.48 183.49 Q2159.55 188.073 2159.55 196.823 Q2159.55 205.55 2156.48 210.157 Q2153.42 214.74 2147.61 214.74 Q2141.8 214.74 2138.72 210.157 Q2135.67 205.55 2135.67 196.823 Q2135.67 188.073 2138.72 183.49 Q2141.8 178.884 2147.61 178.884 Z" fill="#000000" fill-rule="evenodd" fill-opacity="1" /><path clip-path="url(#clip600)" d="M2183.7 188.907 L2183.7 192.934 Q2181.89 192.009 2179.95 191.546 Q2178 191.083 2175.92 191.083 Q2172.75 191.083 2171.15 192.055 Q2169.58 193.027 2169.58 194.971 Q2169.58 196.453 2170.71 197.309 Q2171.85 198.143 2175.27 198.907 L2176.73 199.231 Q2181.27 200.203 2183.17 201.985 Q2185.09 203.745 2185.09 206.916 Q2185.09 210.527 2182.22 212.633 Q2179.37 214.74 2174.37 214.74 Q2172.29 214.74 2170.02 214.323 Q2167.77 213.93 2165.27 213.12 L2165.27 208.721 Q2167.63 209.948 2169.92 210.573 Q2172.22 211.175 2174.46 211.175 Q2177.47 211.175 2179.09 210.157 Q2180.71 209.115 2180.71 207.24 Q2180.71 205.504 2179.53 204.578 Q2178.37 203.652 2174.42 202.796 L2172.93 202.448 Q2168.98 201.615 2167.22 199.902 Q2165.46 198.166 2165.46 195.157 Q2165.46 191.499 2168.05 189.509 Q2170.64 187.518 2175.41 187.518 Q2177.77 187.518 2179.85 187.865 Q2181.94 188.212 2183.7 188.907 Z" fill="#000000" fill-rule="evenodd" fill-opacity="1" /><path clip-path="url(#clip600)" d="M2191.2 178.097 L2194.9 178.097 Q2198.37 183.56 2200.09 188.791 Q2201.82 194.022 2201.82 199.184 Q2201.82 204.37 2200.09 209.624 Q2198.37 214.879 2194.9 220.319 L2191.2 220.319 Q2194.28 215.018 2195.78 209.786 Q2197.31 204.532 2197.31 199.184 Q2197.31 193.837 2195.78 188.629 Q2194.28 183.421 2191.2 178.097 Z" fill="#000000" fill-rule="evenodd" fill-opacity="1" /></svg>
