<?xml version="1.0" encoding="utf-8"?>
<svg xmlns="http://www.w3.org/2000/svg" xmlns:xlink="http://www.w3.org/1999/xlink" width="600" height="400" viewBox="0 0 2400 1600">
<defs>
  <clipPath id="clip680">
    <rect x="0" y="0" width="2400" height="1600"/>
  </clipPath>
</defs>
<path clip-path="url(#clip680)" d="
M0 1600 L2400 1600 L2400 0 L0 0  Z
  " fill="#ffffff" fill-rule="evenodd" fill-opacity="1"/>
<defs>
  <clipPath id="clip681">
    <rect x="480" y="0" width="1681" height="1600"/>
  </clipPath>
</defs>
<path clip-path="url(#clip680)" d="
M246.598 1423.18 L2352.76 1423.18 L2352.76 47.2441 L246.598 47.2441  Z
  " fill="#ffffff" fill-rule="evenodd" fill-opacity="1"/>
<defs>
  <clipPath id="clip682">
    <rect x="246" y="47" width="2107" height="1377"/>
  </clipPath>
</defs>
<polyline clip-path="url(#clip682)" style="stroke:#000000; stroke-linecap:butt; stroke-linejoin:round; stroke-width:2; stroke-opacity:0.1; fill:none" points="
  246.598,1423.18 246.598,47.2441 
  "/>
<polyline clip-path="url(#clip682)" style="stroke:#000000; stroke-linecap:butt; stroke-linejoin:round; stroke-width:2; stroke-opacity:0.1; fill:none" points="
  643.986,1423.18 643.986,47.2441 
  "/>
<polyline clip-path="url(#clip682)" style="stroke:#000000; stroke-linecap:butt; stroke-linejoin:round; stroke-width:2; stroke-opacity:0.1; fill:none" points="
  1041.37,1423.18 1041.37,47.2441 
  "/>
<polyline clip-path="url(#clip682)" style="stroke:#000000; stroke-linecap:butt; stroke-linejoin:round; stroke-width:2; stroke-opacity:0.1; fill:none" points="
  1438.76,1423.18 1438.76,47.2441 
  "/>
<polyline clip-path="url(#clip682)" style="stroke:#000000; stroke-linecap:butt; stroke-linejoin:round; stroke-width:2; stroke-opacity:0.1; fill:none" points="
  1836.15,1423.18 1836.15,47.2441 
  "/>
<polyline clip-path="url(#clip682)" style="stroke:#000000; stroke-linecap:butt; stroke-linejoin:round; stroke-width:2; stroke-opacity:0.1; fill:none" points="
  2233.54,1423.18 2233.54,47.2441 
  "/>
<polyline clip-path="url(#clip680)" style="stroke:#000000; stroke-linecap:butt; stroke-linejoin:round; stroke-width:4; stroke-opacity:1; fill:none" points="
  246.598,1423.18 2352.76,1423.18 
  "/>
<polyline clip-path="url(#clip680)" style="stroke:#000000; stroke-linecap:butt; stroke-linejoin:round; stroke-width:4; stroke-opacity:1; fill:none" points="
  246.598,1423.18 246.598,1404.28 
  "/>
<polyline clip-path="url(#clip680)" style="stroke:#000000; stroke-linecap:butt; stroke-linejoin:round; stroke-width:4; stroke-opacity:1; fill:none" points="
  643.986,1423.18 643.986,1404.28 
  "/>
<polyline clip-path="url(#clip680)" style="stroke:#000000; stroke-linecap:butt; stroke-linejoin:round; stroke-width:4; stroke-opacity:1; fill:none" points="
  1041.37,1423.18 1041.37,1404.28 
  "/>
<polyline clip-path="url(#clip680)" style="stroke:#000000; stroke-linecap:butt; stroke-linejoin:round; stroke-width:4; stroke-opacity:1; fill:none" points="
  1438.76,1423.18 1438.76,1404.28 
  "/>
<polyline clip-path="url(#clip680)" style="stroke:#000000; stroke-linecap:butt; stroke-linejoin:round; stroke-width:4; stroke-opacity:1; fill:none" points="
  1836.15,1423.18 1836.15,1404.28 
  "/>
<polyline clip-path="url(#clip680)" style="stroke:#000000; stroke-linecap:butt; stroke-linejoin:round; stroke-width:4; stroke-opacity:1; fill:none" points="
  2233.54,1423.18 2233.54,1404.28 
  "/>
<path clip-path="url(#clip680)" d="M246.598 1454.1 Q242.987 1454.1 241.158 1457.66 Q239.352 1461.2 239.352 1468.33 Q239.352 1475.44 241.158 1479.01 Q242.987 1482.55 246.598 1482.55 Q250.232 1482.55 252.038 1479.01 Q253.866 1475.44 253.866 1468.33 Q253.866 1461.2 252.038 1457.66 Q250.232 1454.1 246.598 1454.1 M246.598 1450.39 Q252.408 1450.39 255.463 1455 Q258.542 1459.58 258.542 1468.33 Q258.542 1477.06 255.463 1481.67 Q252.408 1486.25 246.598 1486.25 Q240.788 1486.25 237.709 1481.67 Q234.653 1477.06 234.653 1468.33 Q234.653 1459.58 237.709 1455 Q240.788 1450.39 246.598 1450.39 Z" fill="#000000" fill-rule="evenodd" fill-opacity="1" /><path clip-path="url(#clip680)" d="M588.512 1481.64 L596.151 1481.64 L596.151 1455.28 L587.841 1456.95 L587.841 1452.69 L596.104 1451.02 L600.78 1451.02 L600.78 1481.64 L608.419 1481.64 L608.419 1485.58 L588.512 1485.58 L588.512 1481.64 Z" fill="#000000" fill-rule="evenodd" fill-opacity="1" /><path clip-path="url(#clip680)" d="M627.863 1454.1 Q624.252 1454.1 622.424 1457.66 Q620.618 1461.2 620.618 1468.33 Q620.618 1475.44 622.424 1479.01 Q624.252 1482.55 627.863 1482.55 Q631.498 1482.55 633.303 1479.01 Q635.132 1475.44 635.132 1468.33 Q635.132 1461.2 633.303 1457.66 Q631.498 1454.1 627.863 1454.1 M627.863 1450.39 Q633.674 1450.39 636.729 1455 Q639.808 1459.58 639.808 1468.33 Q639.808 1477.06 636.729 1481.67 Q633.674 1486.25 627.863 1486.25 Q622.053 1486.25 618.975 1481.67 Q615.919 1477.06 615.919 1468.33 Q615.919 1459.58 618.975 1455 Q622.053 1450.39 627.863 1450.39 Z" fill="#000000" fill-rule="evenodd" fill-opacity="1" /><path clip-path="url(#clip680)" d="M658.025 1454.1 Q654.414 1454.1 652.586 1457.66 Q650.78 1461.2 650.78 1468.33 Q650.78 1475.44 652.586 1479.01 Q654.414 1482.55 658.025 1482.55 Q661.66 1482.55 663.465 1479.01 Q665.294 1475.44 665.294 1468.33 Q665.294 1461.2 663.465 1457.66 Q661.66 1454.1 658.025 1454.1 M658.025 1450.39 Q663.836 1450.39 666.891 1455 Q669.97 1459.58 669.97 1468.33 Q669.97 1477.06 666.891 1481.67 Q663.836 1486.25 658.025 1486.25 Q652.215 1486.25 649.137 1481.67 Q646.081 1477.06 646.081 1468.33 Q646.081 1459.58 649.137 1455 Q652.215 1450.39 658.025 1450.39 Z" fill="#000000" fill-rule="evenodd" fill-opacity="1" /><path clip-path="url(#clip680)" d="M688.187 1454.1 Q684.576 1454.1 682.747 1457.66 Q680.942 1461.2 680.942 1468.33 Q680.942 1475.44 682.747 1479.01 Q684.576 1482.55 688.187 1482.55 Q691.821 1482.55 693.627 1479.01 Q695.456 1475.44 695.456 1468.33 Q695.456 1461.2 693.627 1457.66 Q691.821 1454.1 688.187 1454.1 M688.187 1450.39 Q693.997 1450.39 697.053 1455 Q700.132 1459.58 700.132 1468.33 Q700.132 1477.06 697.053 1481.67 Q693.997 1486.25 688.187 1486.25 Q682.377 1486.25 679.298 1481.67 Q676.243 1477.06 676.243 1468.33 Q676.243 1459.58 679.298 1455 Q682.377 1450.39 688.187 1450.39 Z" fill="#000000" fill-rule="evenodd" fill-opacity="1" /><path clip-path="url(#clip680)" d="M989.986 1481.64 L1006.31 1481.64 L1006.31 1485.58 L984.361 1485.58 L984.361 1481.64 Q987.023 1478.89 991.606 1474.26 Q996.213 1469.61 997.393 1468.27 Q999.639 1465.74 1000.52 1464.01 Q1001.42 1462.25 1001.42 1460.56 Q1001.42 1457.8 999.476 1456.07 Q997.555 1454.33 994.453 1454.33 Q992.254 1454.33 989.801 1455.09 Q987.37 1455.86 984.592 1457.41 L984.592 1452.69 Q987.416 1451.55 989.87 1450.97 Q992.324 1450.39 994.361 1450.39 Q999.731 1450.39 1002.93 1453.08 Q1006.12 1455.77 1006.12 1460.26 Q1006.12 1462.39 1005.31 1464.31 Q1004.52 1466.2 1002.42 1468.8 Q1001.84 1469.47 998.736 1472.69 Q995.634 1475.88 989.986 1481.64 Z" fill="#000000" fill-rule="evenodd" fill-opacity="1" /><path clip-path="url(#clip680)" d="M1026.12 1454.1 Q1022.51 1454.1 1020.68 1457.66 Q1018.87 1461.2 1018.87 1468.33 Q1018.87 1475.44 1020.68 1479.01 Q1022.51 1482.55 1026.12 1482.55 Q1029.75 1482.55 1031.56 1479.01 Q1033.39 1475.44 1033.39 1468.33 Q1033.39 1461.2 1031.56 1457.66 Q1029.75 1454.1 1026.12 1454.1 M1026.12 1450.39 Q1031.93 1450.39 1034.99 1455 Q1038.06 1459.58 1038.06 1468.33 Q1038.06 1477.06 1034.99 1481.67 Q1031.93 1486.25 1026.12 1486.25 Q1020.31 1486.25 1017.23 1481.67 Q1014.18 1477.06 1014.18 1468.33 Q1014.18 1459.58 1017.23 1455 Q1020.31 1450.39 1026.12 1450.39 Z" fill="#000000" fill-rule="evenodd" fill-opacity="1" /><path clip-path="url(#clip680)" d="M1056.28 1454.1 Q1052.67 1454.1 1050.84 1457.66 Q1049.04 1461.2 1049.04 1468.33 Q1049.04 1475.44 1050.84 1479.01 Q1052.67 1482.55 1056.28 1482.55 Q1059.92 1482.55 1061.72 1479.01 Q1063.55 1475.44 1063.55 1468.33 Q1063.55 1461.2 1061.72 1457.66 Q1059.92 1454.1 1056.28 1454.1 M1056.28 1450.39 Q1062.09 1450.39 1065.15 1455 Q1068.23 1459.58 1068.23 1468.33 Q1068.23 1477.06 1065.15 1481.67 Q1062.09 1486.25 1056.28 1486.25 Q1050.47 1486.25 1047.39 1481.67 Q1044.34 1477.06 1044.34 1468.33 Q1044.34 1459.58 1047.39 1455 Q1050.47 1450.39 1056.28 1450.39 Z" fill="#000000" fill-rule="evenodd" fill-opacity="1" /><path clip-path="url(#clip680)" d="M1086.44 1454.1 Q1082.83 1454.1 1081 1457.66 Q1079.2 1461.2 1079.2 1468.33 Q1079.2 1475.44 1081 1479.01 Q1082.83 1482.55 1086.44 1482.55 Q1090.08 1482.55 1091.88 1479.01 Q1093.71 1475.44 1093.71 1468.33 Q1093.71 1461.2 1091.88 1457.66 Q1090.08 1454.1 1086.44 1454.1 M1086.44 1450.39 Q1092.25 1450.39 1095.31 1455 Q1098.39 1459.58 1098.39 1468.33 Q1098.39 1477.06 1095.31 1481.67 Q1092.25 1486.25 1086.44 1486.25 Q1080.63 1486.25 1077.55 1481.67 Q1074.5 1477.06 1074.5 1468.33 Q1074.5 1459.58 1077.55 1455 Q1080.63 1450.39 1086.44 1450.39 Z" fill="#000000" fill-rule="evenodd" fill-opacity="1" /><path clip-path="url(#clip680)" d="M1397.44 1466.95 Q1400.8 1467.66 1402.67 1469.93 Q1404.57 1472.2 1404.57 1475.53 Q1404.57 1480.65 1401.05 1483.45 Q1397.54 1486.25 1391.05 1486.25 Q1388.88 1486.25 1386.56 1485.81 Q1384.27 1485.39 1381.82 1484.54 L1381.82 1480.02 Q1383.76 1481.16 1386.08 1481.74 Q1388.39 1482.32 1390.92 1482.32 Q1395.31 1482.32 1397.61 1480.58 Q1399.92 1478.84 1399.92 1475.53 Q1399.92 1472.48 1397.77 1470.77 Q1395.64 1469.03 1391.82 1469.03 L1387.79 1469.03 L1387.79 1465.19 L1392 1465.19 Q1395.45 1465.19 1397.28 1463.82 Q1399.11 1462.43 1399.11 1459.84 Q1399.11 1457.18 1397.21 1455.77 Q1395.34 1454.33 1391.82 1454.33 Q1389.9 1454.33 1387.7 1454.75 Q1385.5 1455.16 1382.86 1456.04 L1382.86 1451.88 Q1385.52 1451.14 1387.84 1450.77 Q1390.18 1450.39 1392.24 1450.39 Q1397.56 1450.39 1400.66 1452.83 Q1403.76 1455.23 1403.76 1459.35 Q1403.76 1462.22 1402.12 1464.21 Q1400.48 1466.18 1397.44 1466.95 Z" fill="#000000" fill-rule="evenodd" fill-opacity="1" /><path clip-path="url(#clip680)" d="M1423.44 1454.1 Q1419.83 1454.1 1418 1457.66 Q1416.19 1461.2 1416.19 1468.33 Q1416.19 1475.44 1418 1479.01 Q1419.83 1482.55 1423.44 1482.55 Q1427.07 1482.55 1428.88 1479.01 Q1430.71 1475.44 1430.71 1468.33 Q1430.71 1461.2 1428.88 1457.66 Q1427.07 1454.1 1423.44 1454.1 M1423.44 1450.39 Q1429.25 1450.39 1432.3 1455 Q1435.38 1459.58 1435.38 1468.33 Q1435.38 1477.06 1432.3 1481.67 Q1429.25 1486.25 1423.44 1486.25 Q1417.63 1486.25 1414.55 1481.67 Q1411.49 1477.06 1411.49 1468.33 Q1411.49 1459.58 1414.55 1455 Q1417.63 1450.39 1423.44 1450.39 Z" fill="#000000" fill-rule="evenodd" fill-opacity="1" /><path clip-path="url(#clip680)" d="M1453.6 1454.1 Q1449.99 1454.1 1448.16 1457.66 Q1446.36 1461.2 1446.36 1468.33 Q1446.36 1475.44 1448.16 1479.01 Q1449.99 1482.55 1453.6 1482.55 Q1457.23 1482.55 1459.04 1479.01 Q1460.87 1475.44 1460.87 1468.33 Q1460.87 1461.2 1459.04 1457.66 Q1457.23 1454.1 1453.6 1454.1 M1453.6 1450.39 Q1459.41 1450.39 1462.47 1455 Q1465.55 1459.58 1465.55 1468.33 Q1465.55 1477.06 1462.47 1481.67 Q1459.41 1486.25 1453.6 1486.25 Q1447.79 1486.25 1444.71 1481.67 Q1441.66 1477.06 1441.66 1468.33 Q1441.66 1459.58 1444.71 1455 Q1447.79 1450.39 1453.6 1450.39 Z" fill="#000000" fill-rule="evenodd" fill-opacity="1" /><path clip-path="url(#clip680)" d="M1483.76 1454.1 Q1480.15 1454.1 1478.32 1457.66 Q1476.52 1461.2 1476.52 1468.33 Q1476.52 1475.44 1478.32 1479.01 Q1480.15 1482.55 1483.76 1482.55 Q1487.4 1482.55 1489.2 1479.01 Q1491.03 1475.44 1491.03 1468.33 Q1491.03 1461.2 1489.2 1457.66 Q1487.4 1454.1 1483.76 1454.1 M1483.76 1450.39 Q1489.57 1450.39 1492.63 1455 Q1495.71 1459.58 1495.71 1468.33 Q1495.71 1477.06 1492.63 1481.67 Q1489.57 1486.25 1483.76 1486.25 Q1477.95 1486.25 1474.87 1481.67 Q1471.82 1477.06 1471.82 1468.33 Q1471.82 1459.58 1474.87 1455 Q1477.95 1450.39 1483.76 1450.39 Z" fill="#000000" fill-rule="evenodd" fill-opacity="1" /><path clip-path="url(#clip680)" d="M1794.16 1455.09 L1782.36 1473.54 L1794.16 1473.54 L1794.16 1455.09 M1792.93 1451.02 L1798.81 1451.02 L1798.81 1473.54 L1803.74 1473.54 L1803.74 1477.43 L1798.81 1477.43 L1798.81 1485.58 L1794.16 1485.58 L1794.16 1477.43 L1778.56 1477.43 L1778.56 1472.92 L1792.93 1451.02 Z" fill="#000000" fill-rule="evenodd" fill-opacity="1" /><path clip-path="url(#clip680)" d="M1821.48 1454.1 Q1817.86 1454.1 1816.04 1457.66 Q1814.23 1461.2 1814.23 1468.33 Q1814.23 1475.44 1816.04 1479.01 Q1817.86 1482.55 1821.48 1482.55 Q1825.11 1482.55 1826.92 1479.01 Q1828.74 1475.44 1828.74 1468.33 Q1828.74 1461.2 1826.92 1457.66 Q1825.11 1454.1 1821.48 1454.1 M1821.48 1450.39 Q1827.29 1450.39 1830.34 1455 Q1833.42 1459.58 1833.42 1468.33 Q1833.42 1477.06 1830.34 1481.67 Q1827.29 1486.25 1821.48 1486.25 Q1815.67 1486.25 1812.59 1481.67 Q1809.53 1477.06 1809.53 1468.33 Q1809.53 1459.58 1812.59 1455 Q1815.67 1450.39 1821.48 1450.39 Z" fill="#000000" fill-rule="evenodd" fill-opacity="1" /><path clip-path="url(#clip680)" d="M1851.64 1454.1 Q1848.03 1454.1 1846.2 1457.66 Q1844.39 1461.2 1844.39 1468.33 Q1844.39 1475.44 1846.2 1479.01 Q1848.03 1482.55 1851.64 1482.55 Q1855.27 1482.55 1857.08 1479.01 Q1858.91 1475.44 1858.91 1468.33 Q1858.91 1461.2 1857.08 1457.66 Q1855.27 1454.1 1851.64 1454.1 M1851.64 1450.39 Q1857.45 1450.39 1860.5 1455 Q1863.58 1459.58 1863.58 1468.33 Q1863.58 1477.06 1860.5 1481.67 Q1857.45 1486.25 1851.64 1486.25 Q1845.83 1486.25 1842.75 1481.67 Q1839.69 1477.06 1839.69 1468.33 Q1839.69 1459.58 1842.75 1455 Q1845.83 1450.39 1851.64 1450.39 Z" fill="#000000" fill-rule="evenodd" fill-opacity="1" /><path clip-path="url(#clip680)" d="M1881.8 1454.1 Q1878.19 1454.1 1876.36 1457.66 Q1874.55 1461.2 1874.55 1468.33 Q1874.55 1475.44 1876.36 1479.01 Q1878.19 1482.55 1881.8 1482.55 Q1885.43 1482.55 1887.24 1479.01 Q1889.07 1475.44 1889.07 1468.33 Q1889.07 1461.2 1887.24 1457.66 Q1885.43 1454.1 1881.8 1454.1 M1881.8 1450.39 Q1887.61 1450.39 1890.66 1455 Q1893.74 1459.58 1893.74 1468.33 Q1893.74 1477.06 1890.66 1481.67 Q1887.61 1486.25 1881.8 1486.25 Q1875.99 1486.25 1872.91 1481.67 Q1869.85 1477.06 1869.85 1468.33 Q1869.85 1459.58 1872.91 1455 Q1875.99 1450.39 1881.8 1450.39 Z" fill="#000000" fill-rule="evenodd" fill-opacity="1" /><path clip-path="url(#clip680)" d="M2178.08 1451.02 L2196.43 1451.02 L2196.43 1454.96 L2182.36 1454.96 L2182.36 1463.43 Q2183.38 1463.08 2184.4 1462.92 Q2185.41 1462.73 2186.43 1462.73 Q2192.22 1462.73 2195.6 1465.9 Q2198.98 1469.08 2198.98 1474.49 Q2198.98 1480.07 2195.51 1483.17 Q2192.03 1486.25 2185.72 1486.25 Q2183.54 1486.25 2181.27 1485.88 Q2179.03 1485.51 2176.62 1484.77 L2176.62 1480.07 Q2178.7 1481.2 2180.92 1481.76 Q2183.15 1482.32 2185.62 1482.32 Q2189.63 1482.32 2191.97 1480.21 Q2194.3 1478.1 2194.3 1474.49 Q2194.3 1470.88 2191.97 1468.77 Q2189.63 1466.67 2185.62 1466.67 Q2183.75 1466.67 2181.87 1467.08 Q2180.02 1467.5 2178.08 1468.38 L2178.08 1451.02 Z" fill="#000000" fill-rule="evenodd" fill-opacity="1" /><path clip-path="url(#clip680)" d="M2218.19 1454.1 Q2214.58 1454.1 2212.75 1457.66 Q2210.95 1461.2 2210.95 1468.33 Q2210.95 1475.44 2212.75 1479.01 Q2214.58 1482.55 2218.19 1482.55 Q2221.83 1482.55 2223.63 1479.01 Q2225.46 1475.44 2225.46 1468.33 Q2225.46 1461.2 2223.63 1457.66 Q2221.83 1454.1 2218.19 1454.1 M2218.19 1450.39 Q2224 1450.39 2227.06 1455 Q2230.14 1459.58 2230.14 1468.33 Q2230.14 1477.06 2227.06 1481.67 Q2224 1486.25 2218.19 1486.25 Q2212.38 1486.25 2209.3 1481.67 Q2206.25 1477.06 2206.25 1468.33 Q2206.25 1459.58 2209.3 1455 Q2212.38 1450.39 2218.19 1450.39 Z" fill="#000000" fill-rule="evenodd" fill-opacity="1" /><path clip-path="url(#clip680)" d="M2248.35 1454.1 Q2244.74 1454.1 2242.91 1457.66 Q2241.11 1461.2 2241.11 1468.33 Q2241.11 1475.44 2242.91 1479.01 Q2244.74 1482.55 2248.35 1482.55 Q2251.99 1482.55 2253.79 1479.01 Q2255.62 1475.44 2255.62 1468.33 Q2255.62 1461.2 2253.79 1457.66 Q2251.99 1454.1 2248.35 1454.1 M2248.35 1450.39 Q2254.16 1450.39 2257.22 1455 Q2260.3 1459.58 2260.3 1468.33 Q2260.3 1477.06 2257.22 1481.67 Q2254.16 1486.25 2248.35 1486.25 Q2242.54 1486.25 2239.47 1481.67 Q2236.41 1477.06 2236.41 1468.33 Q2236.41 1459.58 2239.47 1455 Q2242.54 1450.39 2248.35 1450.39 Z" fill="#000000" fill-rule="evenodd" fill-opacity="1" /><path clip-path="url(#clip680)" d="M2278.52 1454.1 Q2274.9 1454.1 2273.08 1457.66 Q2271.27 1461.2 2271.27 1468.33 Q2271.27 1475.44 2273.08 1479.01 Q2274.9 1482.55 2278.52 1482.55 Q2282.15 1482.55 2283.96 1479.01 Q2285.78 1475.44 2285.78 1468.33 Q2285.78 1461.2 2283.96 1457.66 Q2282.15 1454.1 2278.52 1454.1 M2278.52 1450.39 Q2284.33 1450.39 2287.38 1455 Q2290.46 1459.58 2290.46 1468.33 Q2290.46 1477.06 2287.38 1481.67 Q2284.33 1486.25 2278.52 1486.25 Q2272.71 1486.25 2269.63 1481.67 Q2266.57 1477.06 2266.57 1468.33 Q2266.57 1459.58 2269.63 1455 Q2272.71 1450.39 2278.52 1450.39 Z" fill="#000000" fill-rule="evenodd" fill-opacity="1" /><path clip-path="url(#clip680)" d="M1298.74 1522.27 L1298.74 1532.4 L1310.8 1532.4 L1310.8 1536.95 L1298.74 1536.95 L1298.74 1556.3 Q1298.74 1560.66 1299.92 1561.9 Q1301.13 1563.14 1304.79 1563.14 L1310.8 1563.14 L1310.8 1568.04 L1304.79 1568.04 Q1298.01 1568.04 1295.43 1565.53 Q1292.85 1562.98 1292.85 1556.3 L1292.85 1536.95 L1288.55 1536.95 L1288.55 1532.4 L1292.85 1532.4 L1292.85 1522.27 L1298.74 1522.27 Z" fill="#000000" fill-rule="evenodd" fill-opacity="1" /><polyline clip-path="url(#clip682)" style="stroke:#000000; stroke-linecap:butt; stroke-linejoin:round; stroke-width:2; stroke-opacity:0.1; fill:none" points="
  246.598,1384.24 2352.76,1384.24 
  "/>
<polyline clip-path="url(#clip682)" style="stroke:#000000; stroke-linecap:butt; stroke-linejoin:round; stroke-width:2; stroke-opacity:0.1; fill:none" points="
  246.598,1138.85 2352.76,1138.85 
  "/>
<polyline clip-path="url(#clip682)" style="stroke:#000000; stroke-linecap:butt; stroke-linejoin:round; stroke-width:2; stroke-opacity:0.1; fill:none" points="
  246.598,893.454 2352.76,893.454 
  "/>
<polyline clip-path="url(#clip682)" style="stroke:#000000; stroke-linecap:butt; stroke-linejoin:round; stroke-width:2; stroke-opacity:0.1; fill:none" points="
  246.598,648.063 2352.76,648.063 
  "/>
<polyline clip-path="url(#clip682)" style="stroke:#000000; stroke-linecap:butt; stroke-linejoin:round; stroke-width:2; stroke-opacity:0.1; fill:none" points="
  246.598,402.672 2352.76,402.672 
  "/>
<polyline clip-path="url(#clip682)" style="stroke:#000000; stroke-linecap:butt; stroke-linejoin:round; stroke-width:2; stroke-opacity:0.1; fill:none" points="
  246.598,157.281 2352.76,157.281 
  "/>
<polyline clip-path="url(#clip680)" style="stroke:#000000; stroke-linecap:butt; stroke-linejoin:round; stroke-width:4; stroke-opacity:1; fill:none" points="
  246.598,1423.18 246.598,47.2441 
  "/>
<polyline clip-path="url(#clip680)" style="stroke:#000000; stroke-linecap:butt; stroke-linejoin:round; stroke-width:4; stroke-opacity:1; fill:none" points="
  246.598,1384.24 265.495,1384.24 
  "/>
<polyline clip-path="url(#clip680)" style="stroke:#000000; stroke-linecap:butt; stroke-linejoin:round; stroke-width:4; stroke-opacity:1; fill:none" points="
  246.598,1138.85 265.495,1138.85 
  "/>
<polyline clip-path="url(#clip680)" style="stroke:#000000; stroke-linecap:butt; stroke-linejoin:round; stroke-width:4; stroke-opacity:1; fill:none" points="
  246.598,893.454 265.495,893.454 
  "/>
<polyline clip-path="url(#clip680)" style="stroke:#000000; stroke-linecap:butt; stroke-linejoin:round; stroke-width:4; stroke-opacity:1; fill:none" points="
  246.598,648.063 265.495,648.063 
  "/>
<polyline clip-path="url(#clip680)" style="stroke:#000000; stroke-linecap:butt; stroke-linejoin:round; stroke-width:4; stroke-opacity:1; fill:none" points="
  246.598,402.672 265.495,402.672 
  "/>
<polyline clip-path="url(#clip680)" style="stroke:#000000; stroke-linecap:butt; stroke-linejoin:round; stroke-width:4; stroke-opacity:1; fill:none" points="
  246.598,157.281 265.495,157.281 
  "/>
<path clip-path="url(#clip680)" d="M62.9365 1370.04 Q59.3254 1370.04 57.4967 1373.6 Q55.6912 1377.14 55.6912 1384.27 Q55.6912 1391.38 57.4967 1394.94 Q59.3254 1398.48 62.9365 1398.48 Q66.5707 1398.48 68.3763 1394.94 Q70.205 1391.38 70.205 1384.27 Q70.205 1377.14 68.3763 1373.6 Q66.5707 1370.04 62.9365 1370.04 M62.9365 1366.33 Q68.7467 1366.33 71.8022 1370.94 Q74.8809 1375.52 74.8809 1384.27 Q74.8809 1393 71.8022 1397.6 Q68.7467 1402.19 62.9365 1402.19 Q57.1264 1402.19 54.0477 1397.6 Q50.9921 1393 50.9921 1384.27 Q50.9921 1375.52 54.0477 1370.94 Q57.1264 1366.33 62.9365 1366.33 Z" fill="#000000" fill-rule="evenodd" fill-opacity="1" /><path clip-path="url(#clip680)" d="M83.0984 1395.64 L87.9827 1395.64 L87.9827 1401.52 L83.0984 1401.52 L83.0984 1395.64 Z" fill="#000000" fill-rule="evenodd" fill-opacity="1" /><path clip-path="url(#clip680)" d="M108.168 1370.04 Q104.557 1370.04 102.728 1373.6 Q100.922 1377.14 100.922 1384.27 Q100.922 1391.38 102.728 1394.94 Q104.557 1398.48 108.168 1398.48 Q111.802 1398.48 113.608 1394.94 Q115.436 1391.38 115.436 1384.27 Q115.436 1377.14 113.608 1373.6 Q111.802 1370.04 108.168 1370.04 M108.168 1366.33 Q113.978 1366.33 117.033 1370.94 Q120.112 1375.52 120.112 1384.27 Q120.112 1393 117.033 1397.6 Q113.978 1402.19 108.168 1402.19 Q102.358 1402.19 99.2789 1397.6 Q96.2234 1393 96.2234 1384.27 Q96.2234 1375.52 99.2789 1370.94 Q102.358 1366.33 108.168 1366.33 Z" fill="#000000" fill-rule="evenodd" fill-opacity="1" /><path clip-path="url(#clip680)" d="M138.33 1370.04 Q134.719 1370.04 132.89 1373.6 Q131.084 1377.14 131.084 1384.27 Q131.084 1391.38 132.89 1394.94 Q134.719 1398.48 138.33 1398.48 Q141.964 1398.48 143.769 1394.94 Q145.598 1391.38 145.598 1384.27 Q145.598 1377.14 143.769 1373.6 Q141.964 1370.04 138.33 1370.04 M138.33 1366.33 Q144.14 1366.33 147.195 1370.94 Q150.274 1375.52 150.274 1384.27 Q150.274 1393 147.195 1397.6 Q144.14 1402.19 138.33 1402.19 Q132.519 1402.19 129.441 1397.6 Q126.385 1393 126.385 1384.27 Q126.385 1375.52 129.441 1370.94 Q132.519 1366.33 138.33 1366.33 Z" fill="#000000" fill-rule="evenodd" fill-opacity="1" /><path clip-path="url(#clip680)" d="M168.491 1370.04 Q164.88 1370.04 163.052 1373.6 Q161.246 1377.14 161.246 1384.27 Q161.246 1391.38 163.052 1394.94 Q164.88 1398.48 168.491 1398.48 Q172.126 1398.48 173.931 1394.94 Q175.76 1391.38 175.76 1384.27 Q175.76 1377.14 173.931 1373.6 Q172.126 1370.04 168.491 1370.04 M168.491 1366.33 Q174.302 1366.33 177.357 1370.94 Q180.436 1375.52 180.436 1384.27 Q180.436 1393 177.357 1397.6 Q174.302 1402.19 168.491 1402.19 Q162.681 1402.19 159.603 1397.6 Q156.547 1393 156.547 1384.27 Q156.547 1375.52 159.603 1370.94 Q162.681 1366.33 168.491 1366.33 Z" fill="#000000" fill-rule="evenodd" fill-opacity="1" /><path clip-path="url(#clip680)" d="M198.653 1370.04 Q195.042 1370.04 193.214 1373.6 Q191.408 1377.14 191.408 1384.27 Q191.408 1391.38 193.214 1394.94 Q195.042 1398.48 198.653 1398.48 Q202.288 1398.48 204.093 1394.94 Q205.922 1391.38 205.922 1384.27 Q205.922 1377.14 204.093 1373.6 Q202.288 1370.04 198.653 1370.04 M198.653 1366.33 Q204.464 1366.33 207.519 1370.94 Q210.598 1375.52 210.598 1384.27 Q210.598 1393 207.519 1397.6 Q204.464 1402.19 198.653 1402.19 Q192.843 1402.19 189.765 1397.6 Q186.709 1393 186.709 1384.27 Q186.709 1375.52 189.765 1370.94 Q192.843 1366.33 198.653 1366.33 Z" fill="#000000" fill-rule="evenodd" fill-opacity="1" /><path clip-path="url(#clip680)" d="M63.9319 1124.64 Q60.3208 1124.64 58.4921 1128.21 Q56.6865 1131.75 56.6865 1138.88 Q56.6865 1145.99 58.4921 1149.55 Q60.3208 1153.09 63.9319 1153.09 Q67.5661 1153.09 69.3717 1149.55 Q71.2004 1145.99 71.2004 1138.88 Q71.2004 1131.75 69.3717 1128.21 Q67.5661 1124.64 63.9319 1124.64 M63.9319 1120.94 Q69.742 1120.94 72.7976 1125.55 Q75.8763 1130.13 75.8763 1138.88 Q75.8763 1147.61 72.7976 1152.21 Q69.742 1156.8 63.9319 1156.8 Q58.1217 1156.8 55.043 1152.21 Q51.9875 1147.61 51.9875 1138.88 Q51.9875 1130.13 55.043 1125.55 Q58.1217 1120.94 63.9319 1120.94 Z" fill="#000000" fill-rule="evenodd" fill-opacity="1" /><path clip-path="url(#clip680)" d="M84.0938 1150.25 L88.978 1150.25 L88.978 1156.13 L84.0938 1156.13 L84.0938 1150.25 Z" fill="#000000" fill-rule="evenodd" fill-opacity="1" /><path clip-path="url(#clip680)" d="M109.163 1124.64 Q105.552 1124.64 103.723 1128.21 Q101.918 1131.75 101.918 1138.88 Q101.918 1145.99 103.723 1149.55 Q105.552 1153.09 109.163 1153.09 Q112.797 1153.09 114.603 1149.55 Q116.432 1145.99 116.432 1138.88 Q116.432 1131.75 114.603 1128.21 Q112.797 1124.64 109.163 1124.64 M109.163 1120.94 Q114.973 1120.94 118.029 1125.55 Q121.107 1130.13 121.107 1138.88 Q121.107 1147.61 118.029 1152.21 Q114.973 1156.8 109.163 1156.8 Q103.353 1156.8 100.274 1152.21 Q97.2187 1147.61 97.2187 1138.88 Q97.2187 1130.13 100.274 1125.55 Q103.353 1120.94 109.163 1120.94 Z" fill="#000000" fill-rule="evenodd" fill-opacity="1" /><path clip-path="url(#clip680)" d="M139.325 1124.64 Q135.714 1124.64 133.885 1128.21 Q132.08 1131.75 132.08 1138.88 Q132.08 1145.99 133.885 1149.55 Q135.714 1153.09 139.325 1153.09 Q142.959 1153.09 144.765 1149.55 Q146.593 1145.99 146.593 1138.88 Q146.593 1131.75 144.765 1128.21 Q142.959 1124.64 139.325 1124.64 M139.325 1120.94 Q145.135 1120.94 148.191 1125.55 Q151.269 1130.13 151.269 1138.88 Q151.269 1147.61 148.191 1152.21 Q145.135 1156.8 139.325 1156.8 Q133.515 1156.8 130.436 1152.21 Q127.381 1147.61 127.381 1138.88 Q127.381 1130.13 130.436 1125.55 Q133.515 1120.94 139.325 1120.94 Z" fill="#000000" fill-rule="evenodd" fill-opacity="1" /><path clip-path="url(#clip680)" d="M169.487 1124.64 Q165.876 1124.64 164.047 1128.21 Q162.242 1131.75 162.242 1138.88 Q162.242 1145.99 164.047 1149.55 Q165.876 1153.09 169.487 1153.09 Q173.121 1153.09 174.927 1149.55 Q176.755 1145.99 176.755 1138.88 Q176.755 1131.75 174.927 1128.21 Q173.121 1124.64 169.487 1124.64 M169.487 1120.94 Q175.297 1120.94 178.353 1125.55 Q181.431 1130.13 181.431 1138.88 Q181.431 1147.61 178.353 1152.21 Q175.297 1156.8 169.487 1156.8 Q163.677 1156.8 160.598 1152.21 Q157.542 1147.61 157.542 1138.88 Q157.542 1130.13 160.598 1125.55 Q163.677 1120.94 169.487 1120.94 Z" fill="#000000" fill-rule="evenodd" fill-opacity="1" /><path clip-path="url(#clip680)" d="M189.695 1121.57 L208.051 1121.57 L208.051 1125.5 L193.977 1125.5 L193.977 1133.97 Q194.996 1133.63 196.014 1133.46 Q197.033 1133.28 198.052 1133.28 Q203.839 1133.28 207.218 1136.45 Q210.598 1139.62 210.598 1145.04 Q210.598 1150.62 207.126 1153.72 Q203.653 1156.8 197.334 1156.8 Q195.158 1156.8 192.89 1156.43 Q190.644 1156.06 188.237 1155.32 L188.237 1150.62 Q190.32 1151.75 192.542 1152.31 Q194.765 1152.86 197.241 1152.86 Q201.246 1152.86 203.584 1150.75 Q205.922 1148.65 205.922 1145.04 Q205.922 1141.43 203.584 1139.32 Q201.246 1137.21 197.241 1137.21 Q195.366 1137.21 193.491 1137.63 Q191.64 1138.05 189.695 1138.93 L189.695 1121.57 Z" fill="#000000" fill-rule="evenodd" fill-opacity="1" /><path clip-path="url(#clip680)" d="M62.9365 879.253 Q59.3254 879.253 57.4967 882.818 Q55.6912 886.359 55.6912 893.489 Q55.6912 900.595 57.4967 904.16 Q59.3254 907.702 62.9365 907.702 Q66.5707 907.702 68.3763 904.16 Q70.205 900.595 70.205 893.489 Q70.205 886.359 68.3763 882.818 Q66.5707 879.253 62.9365 879.253 M62.9365 875.549 Q68.7467 875.549 71.8022 880.156 Q74.8809 884.739 74.8809 893.489 Q74.8809 902.216 71.8022 906.822 Q68.7467 911.405 62.9365 911.405 Q57.1264 911.405 54.0477 906.822 Q50.9921 902.216 50.9921 893.489 Q50.9921 884.739 54.0477 880.156 Q57.1264 875.549 62.9365 875.549 Z" fill="#000000" fill-rule="evenodd" fill-opacity="1" /><path clip-path="url(#clip680)" d="M83.0984 904.854 L87.9827 904.854 L87.9827 910.734 L83.0984 910.734 L83.0984 904.854 Z" fill="#000000" fill-rule="evenodd" fill-opacity="1" /><path clip-path="url(#clip680)" d="M108.168 879.253 Q104.557 879.253 102.728 882.818 Q100.922 886.359 100.922 893.489 Q100.922 900.595 102.728 904.16 Q104.557 907.702 108.168 907.702 Q111.802 907.702 113.608 904.16 Q115.436 900.595 115.436 893.489 Q115.436 886.359 113.608 882.818 Q111.802 879.253 108.168 879.253 M108.168 875.549 Q113.978 875.549 117.033 880.156 Q120.112 884.739 120.112 893.489 Q120.112 902.216 117.033 906.822 Q113.978 911.405 108.168 911.405 Q102.358 911.405 99.2789 906.822 Q96.2234 902.216 96.2234 893.489 Q96.2234 884.739 99.2789 880.156 Q102.358 875.549 108.168 875.549 Z" fill="#000000" fill-rule="evenodd" fill-opacity="1" /><path clip-path="url(#clip680)" d="M138.33 879.253 Q134.719 879.253 132.89 882.818 Q131.084 886.359 131.084 893.489 Q131.084 900.595 132.89 904.16 Q134.719 907.702 138.33 907.702 Q141.964 907.702 143.769 904.16 Q145.598 900.595 145.598 893.489 Q145.598 886.359 143.769 882.818 Q141.964 879.253 138.33 879.253 M138.33 875.549 Q144.14 875.549 147.195 880.156 Q150.274 884.739 150.274 893.489 Q150.274 902.216 147.195 906.822 Q144.14 911.405 138.33 911.405 Q132.519 911.405 129.441 906.822 Q126.385 902.216 126.385 893.489 Q126.385 884.739 129.441 880.156 Q132.519 875.549 138.33 875.549 Z" fill="#000000" fill-rule="evenodd" fill-opacity="1" /><path clip-path="url(#clip680)" d="M159.302 906.799 L166.941 906.799 L166.941 880.433 L158.63 882.1 L158.63 877.841 L166.894 876.174 L171.57 876.174 L171.57 906.799 L179.209 906.799 L179.209 910.734 L159.302 910.734 L159.302 906.799 Z" fill="#000000" fill-rule="evenodd" fill-opacity="1" /><path clip-path="url(#clip680)" d="M198.653 879.253 Q195.042 879.253 193.214 882.818 Q191.408 886.359 191.408 893.489 Q191.408 900.595 193.214 904.16 Q195.042 907.702 198.653 907.702 Q202.288 907.702 204.093 904.16 Q205.922 900.595 205.922 893.489 Q205.922 886.359 204.093 882.818 Q202.288 879.253 198.653 879.253 M198.653 875.549 Q204.464 875.549 207.519 880.156 Q210.598 884.739 210.598 893.489 Q210.598 902.216 207.519 906.822 Q204.464 911.405 198.653 911.405 Q192.843 911.405 189.765 906.822 Q186.709 902.216 186.709 893.489 Q186.709 884.739 189.765 880.156 Q192.843 875.549 198.653 875.549 Z" fill="#000000" fill-rule="evenodd" fill-opacity="1" /><path clip-path="url(#clip680)" d="M63.9319 633.862 Q60.3208 633.862 58.4921 637.426 Q56.6865 640.968 56.6865 648.098 Q56.6865 655.204 58.4921 658.769 Q60.3208 662.311 63.9319 662.311 Q67.5661 662.311 69.3717 658.769 Q71.2004 655.204 71.2004 648.098 Q71.2004 640.968 69.3717 637.426 Q67.5661 633.862 63.9319 633.862 M63.9319 630.158 Q69.742 630.158 72.7976 634.764 Q75.8763 639.348 75.8763 648.098 Q75.8763 656.824 72.7976 661.431 Q69.742 666.014 63.9319 666.014 Q58.1217 666.014 55.043 661.431 Q51.9875 656.824 51.9875 648.098 Q51.9875 639.348 55.043 634.764 Q58.1217 630.158 63.9319 630.158 Z" fill="#000000" fill-rule="evenodd" fill-opacity="1" /><path clip-path="url(#clip680)" d="M84.0938 659.463 L88.978 659.463 L88.978 665.343 L84.0938 665.343 L84.0938 659.463 Z" fill="#000000" fill-rule="evenodd" fill-opacity="1" /><path clip-path="url(#clip680)" d="M109.163 633.862 Q105.552 633.862 103.723 637.426 Q101.918 640.968 101.918 648.098 Q101.918 655.204 103.723 658.769 Q105.552 662.311 109.163 662.311 Q112.797 662.311 114.603 658.769 Q116.432 655.204 116.432 648.098 Q116.432 640.968 114.603 637.426 Q112.797 633.862 109.163 633.862 M109.163 630.158 Q114.973 630.158 118.029 634.764 Q121.107 639.348 121.107 648.098 Q121.107 656.824 118.029 661.431 Q114.973 666.014 109.163 666.014 Q103.353 666.014 100.274 661.431 Q97.2187 656.824 97.2187 648.098 Q97.2187 639.348 100.274 634.764 Q103.353 630.158 109.163 630.158 Z" fill="#000000" fill-rule="evenodd" fill-opacity="1" /><path clip-path="url(#clip680)" d="M139.325 633.862 Q135.714 633.862 133.885 637.426 Q132.08 640.968 132.08 648.098 Q132.08 655.204 133.885 658.769 Q135.714 662.311 139.325 662.311 Q142.959 662.311 144.765 658.769 Q146.593 655.204 146.593 648.098 Q146.593 640.968 144.765 637.426 Q142.959 633.862 139.325 633.862 M139.325 630.158 Q145.135 630.158 148.191 634.764 Q151.269 639.348 151.269 648.098 Q151.269 656.824 148.191 661.431 Q145.135 666.014 139.325 666.014 Q133.515 666.014 130.436 661.431 Q127.381 656.824 127.381 648.098 Q127.381 639.348 130.436 634.764 Q133.515 630.158 139.325 630.158 Z" fill="#000000" fill-rule="evenodd" fill-opacity="1" /><path clip-path="url(#clip680)" d="M160.297 661.408 L167.936 661.408 L167.936 635.042 L159.626 636.709 L159.626 632.45 L167.89 630.783 L172.566 630.783 L172.566 661.408 L180.204 661.408 L180.204 665.343 L160.297 665.343 L160.297 661.408 Z" fill="#000000" fill-rule="evenodd" fill-opacity="1" /><path clip-path="url(#clip680)" d="M189.695 630.783 L208.051 630.783 L208.051 634.718 L193.977 634.718 L193.977 643.19 Q194.996 642.843 196.014 642.681 Q197.033 642.496 198.052 642.496 Q203.839 642.496 207.218 645.667 Q210.598 648.838 210.598 654.255 Q210.598 659.834 207.126 662.936 Q203.653 666.014 197.334 666.014 Q195.158 666.014 192.89 665.644 Q190.644 665.273 188.237 664.533 L188.237 659.834 Q190.32 660.968 192.542 661.524 Q194.765 662.079 197.241 662.079 Q201.246 662.079 203.584 659.973 Q205.922 657.866 205.922 654.255 Q205.922 650.644 203.584 648.537 Q201.246 646.431 197.241 646.431 Q195.366 646.431 193.491 646.848 Q191.64 647.264 189.695 648.144 L189.695 630.783 Z" fill="#000000" fill-rule="evenodd" fill-opacity="1" /><path clip-path="url(#clip680)" d="M62.9365 388.47 Q59.3254 388.47 57.4967 392.035 Q55.6912 395.577 55.6912 402.706 Q55.6912 409.813 57.4967 413.378 Q59.3254 416.919 62.9365 416.919 Q66.5707 416.919 68.3763 413.378 Q70.205 409.813 70.205 402.706 Q70.205 395.577 68.3763 392.035 Q66.5707 388.47 62.9365 388.47 M62.9365 384.767 Q68.7467 384.767 71.8022 389.373 Q74.8809 393.957 74.8809 402.706 Q74.8809 411.433 71.8022 416.04 Q68.7467 420.623 62.9365 420.623 Q57.1264 420.623 54.0477 416.04 Q50.9921 411.433 50.9921 402.706 Q50.9921 393.957 54.0477 389.373 Q57.1264 384.767 62.9365 384.767 Z" fill="#000000" fill-rule="evenodd" fill-opacity="1" /><path clip-path="url(#clip680)" d="M83.0984 414.072 L87.9827 414.072 L87.9827 419.952 L83.0984 419.952 L83.0984 414.072 Z" fill="#000000" fill-rule="evenodd" fill-opacity="1" /><path clip-path="url(#clip680)" d="M108.168 388.47 Q104.557 388.47 102.728 392.035 Q100.922 395.577 100.922 402.706 Q100.922 409.813 102.728 413.378 Q104.557 416.919 108.168 416.919 Q111.802 416.919 113.608 413.378 Q115.436 409.813 115.436 402.706 Q115.436 395.577 113.608 392.035 Q111.802 388.47 108.168 388.47 M108.168 384.767 Q113.978 384.767 117.033 389.373 Q120.112 393.957 120.112 402.706 Q120.112 411.433 117.033 416.04 Q113.978 420.623 108.168 420.623 Q102.358 420.623 99.2789 416.04 Q96.2234 411.433 96.2234 402.706 Q96.2234 393.957 99.2789 389.373 Q102.358 384.767 108.168 384.767 Z" fill="#000000" fill-rule="evenodd" fill-opacity="1" /><path clip-path="url(#clip680)" d="M138.33 388.47 Q134.719 388.47 132.89 392.035 Q131.084 395.577 131.084 402.706 Q131.084 409.813 132.89 413.378 Q134.719 416.919 138.33 416.919 Q141.964 416.919 143.769 413.378 Q145.598 409.813 145.598 402.706 Q145.598 395.577 143.769 392.035 Q141.964 388.47 138.33 388.47 M138.33 384.767 Q144.14 384.767 147.195 389.373 Q150.274 393.957 150.274 402.706 Q150.274 411.433 147.195 416.04 Q144.14 420.623 138.33 420.623 Q132.519 420.623 129.441 416.04 Q126.385 411.433 126.385 402.706 Q126.385 393.957 129.441 389.373 Q132.519 384.767 138.33 384.767 Z" fill="#000000" fill-rule="evenodd" fill-opacity="1" /><path clip-path="url(#clip680)" d="M162.519 416.017 L178.839 416.017 L178.839 419.952 L156.894 419.952 L156.894 416.017 Q159.556 413.262 164.14 408.632 Q168.746 403.98 169.927 402.637 Q172.172 400.114 173.052 398.378 Q173.954 396.619 173.954 394.929 Q173.954 392.174 172.01 390.438 Q170.089 388.702 166.987 388.702 Q164.788 388.702 162.334 389.466 Q159.904 390.23 157.126 391.781 L157.126 387.058 Q159.95 385.924 162.404 385.345 Q164.857 384.767 166.894 384.767 Q172.265 384.767 175.459 387.452 Q178.653 390.137 178.653 394.628 Q178.653 396.757 177.843 398.679 Q177.056 400.577 174.95 403.169 Q174.371 403.841 171.269 407.058 Q168.167 410.253 162.519 416.017 Z" fill="#000000" fill-rule="evenodd" fill-opacity="1" /><path clip-path="url(#clip680)" d="M198.653 388.47 Q195.042 388.47 193.214 392.035 Q191.408 395.577 191.408 402.706 Q191.408 409.813 193.214 413.378 Q195.042 416.919 198.653 416.919 Q202.288 416.919 204.093 413.378 Q205.922 409.813 205.922 402.706 Q205.922 395.577 204.093 392.035 Q202.288 388.47 198.653 388.47 M198.653 384.767 Q204.464 384.767 207.519 389.373 Q210.598 393.957 210.598 402.706 Q210.598 411.433 207.519 416.04 Q204.464 420.623 198.653 420.623 Q192.843 420.623 189.765 416.04 Q186.709 411.433 186.709 402.706 Q186.709 393.957 189.765 389.373 Q192.843 384.767 198.653 384.767 Z" fill="#000000" fill-rule="evenodd" fill-opacity="1" /><path clip-path="url(#clip680)" d="M63.9319 143.079 Q60.3208 143.079 58.4921 146.644 Q56.6865 150.186 56.6865 157.315 Q56.6865 164.422 58.4921 167.987 Q60.3208 171.528 63.9319 171.528 Q67.5661 171.528 69.3717 167.987 Q71.2004 164.422 71.2004 157.315 Q71.2004 150.186 69.3717 146.644 Q67.5661 143.079 63.9319 143.079 M63.9319 139.376 Q69.742 139.376 72.7976 143.982 Q75.8763 148.565 75.8763 157.315 Q75.8763 166.042 72.7976 170.649 Q69.742 175.232 63.9319 175.232 Q58.1217 175.232 55.043 170.649 Q51.9875 166.042 51.9875 157.315 Q51.9875 148.565 55.043 143.982 Q58.1217 139.376 63.9319 139.376 Z" fill="#000000" fill-rule="evenodd" fill-opacity="1" /><path clip-path="url(#clip680)" d="M84.0938 168.681 L88.978 168.681 L88.978 174.561 L84.0938 174.561 L84.0938 168.681 Z" fill="#000000" fill-rule="evenodd" fill-opacity="1" /><path clip-path="url(#clip680)" d="M109.163 143.079 Q105.552 143.079 103.723 146.644 Q101.918 150.186 101.918 157.315 Q101.918 164.422 103.723 167.987 Q105.552 171.528 109.163 171.528 Q112.797 171.528 114.603 167.987 Q116.432 164.422 116.432 157.315 Q116.432 150.186 114.603 146.644 Q112.797 143.079 109.163 143.079 M109.163 139.376 Q114.973 139.376 118.029 143.982 Q121.107 148.565 121.107 157.315 Q121.107 166.042 118.029 170.649 Q114.973 175.232 109.163 175.232 Q103.353 175.232 100.274 170.649 Q97.2187 166.042 97.2187 157.315 Q97.2187 148.565 100.274 143.982 Q103.353 139.376 109.163 139.376 Z" fill="#000000" fill-rule="evenodd" fill-opacity="1" /><path clip-path="url(#clip680)" d="M139.325 143.079 Q135.714 143.079 133.885 146.644 Q132.08 150.186 132.08 157.315 Q132.08 164.422 133.885 167.987 Q135.714 171.528 139.325 171.528 Q142.959 171.528 144.765 167.987 Q146.593 164.422 146.593 157.315 Q146.593 150.186 144.765 146.644 Q142.959 143.079 139.325 143.079 M139.325 139.376 Q145.135 139.376 148.191 143.982 Q151.269 148.565 151.269 157.315 Q151.269 166.042 148.191 170.649 Q145.135 175.232 139.325 175.232 Q133.515 175.232 130.436 170.649 Q127.381 166.042 127.381 157.315 Q127.381 148.565 130.436 143.982 Q133.515 139.376 139.325 139.376 Z" fill="#000000" fill-rule="evenodd" fill-opacity="1" /><path clip-path="url(#clip680)" d="M163.515 170.625 L179.834 170.625 L179.834 174.561 L157.89 174.561 L157.89 170.625 Q160.552 167.871 165.135 163.241 Q169.741 158.588 170.922 157.246 Q173.167 154.723 174.047 152.987 Q174.95 151.227 174.95 149.538 Q174.95 146.783 173.005 145.047 Q171.084 143.311 167.982 143.311 Q165.783 143.311 163.329 144.075 Q160.899 144.839 158.121 146.389 L158.121 141.667 Q160.945 140.533 163.399 139.954 Q165.853 139.376 167.89 139.376 Q173.26 139.376 176.454 142.061 Q179.649 144.746 179.649 149.237 Q179.649 151.366 178.839 153.288 Q178.052 155.186 175.945 157.778 Q175.366 158.45 172.265 161.667 Q169.163 164.862 163.515 170.625 Z" fill="#000000" fill-rule="evenodd" fill-opacity="1" /><path clip-path="url(#clip680)" d="M189.695 140.001 L208.051 140.001 L208.051 143.936 L193.977 143.936 L193.977 152.408 Q194.996 152.061 196.014 151.899 Q197.033 151.714 198.052 151.714 Q203.839 151.714 207.218 154.885 Q210.598 158.056 210.598 163.473 Q210.598 169.051 207.126 172.153 Q203.653 175.232 197.334 175.232 Q195.158 175.232 192.89 174.862 Q190.644 174.491 188.237 173.75 L188.237 169.051 Q190.32 170.186 192.542 170.741 Q194.765 171.297 197.241 171.297 Q201.246 171.297 203.584 169.19 Q205.922 167.084 205.922 163.473 Q205.922 159.862 203.584 157.755 Q201.246 155.649 197.241 155.649 Q195.366 155.649 193.491 156.065 Q191.64 156.482 189.695 157.362 L189.695 140.001 Z" fill="#000000" fill-rule="evenodd" fill-opacity="1" /><polyline clip-path="url(#clip682)" style="stroke:#009af9; stroke-linecap:butt; stroke-linejoin:round; stroke-width:8; stroke-opacity:1; fill:none" points="
  246.598,1384.24 247.725,1384.24 248.852,1384.24 249.978,1384.24 251.105,1384.24 252.232,1384.24 253.359,1384.24 254.486,1384.24 255.613,1384.24 256.74,1384.24 
  257.867,1384.24 258.994,1384.24 260.12,1384.24 261.247,1384.24 262.374,1384.24 263.501,1384.24 264.628,1384.24 265.755,1384.24 266.882,1384.24 268.009,1384.24 
  269.136,1384.24 270.262,1384.24 271.389,1384.24 272.516,1384.24 273.643,1384.24 274.77,1384.24 275.897,1384.24 277.024,1384.24 278.151,1384.24 279.278,1384.24 
  280.404,1384.24 281.531,1384.24 282.658,1384.24 283.785,1384.24 284.912,1384.24 286.039,1384.24 287.166,239.74 288.293,342.971 289.42,436.948 290.546,522.432 
  291.673,600.187 292.8,671.043 293.927,735.378 295.054,794.065 296.181,847.291 297.308,895.873 298.435,940.122 299.562,980.137 300.688,1016.77 301.815,1050.13 
  302.942,1080.22 304.069,1107.76 305.196,1132.92 306.323,1155.68 307.45,1176.26 308.577,1195.18 309.704,1212.42 310.831,1227.97 311.957,1242.04 313.084,1254.98 
  314.211,1266.81 315.338,1277.52 316.465,1287.1 317.592,1295.9 318.719,1303.98 319.846,1311.36 320.973,1318.03 322.099,1323.97 323.226,1329.41 324.353,1334.43 
  325.48,1339.02 326.607,1343.2 327.734,1346.96 328.861,1350.29 329.988,1353.35 331.115,1356.19 332.241,1358.79 333.368,1361.17 334.495,1363.31 335.622,1365.23 
  336.749,1366.91 337.876,1368.47 339.003,1369.93 340.13,1371.26 341.257,1372.49 342.383,1373.61 343.51,1374.61 344.637,1375.5 345.764,1376.27 346.891,1376.98 
  348.018,1377.64 349.145,1378.26 350.272,1378.83 351.399,1379.35 352.525,1379.83 353.652,1380.26 354.779,1380.64 355.906,1380.98 357.033,1381.26 358.16,1381.52 
  359.287,1381.77 360.414,1381.99 361.541,1382.21 362.667,1382.41 363.794,1382.59 364.921,1382.76 366.048,1382.91 367.175,1383.05 368.302,1383.17 369.429,1383.28 
  370.556,1383.37 371.683,1383.45 372.809,1383.51 373.936,1383.58 375.063,1383.64 376.19,1383.69 377.317,1383.74 378.444,1383.79 379.571,1383.84 380.698,1383.88 
  381.825,1383.92 382.951,1383.96 384.078,1383.99 385.205,1384.02 386.332,1384.05 387.459,1384.07 388.586,1384.09 389.713,1384.11 390.84,1384.12 391.967,1384.13 
  393.094,1384.14 394.22,1384.15 395.347,1384.15 396.474,1384.16 397.601,1384.17 398.728,1384.18 399.855,1384.18 400.982,1384.19 402.109,1384.19 403.236,1384.2 
  404.362,1384.2 405.489,1384.21 406.616,1384.21 407.743,1384.22 408.87,1384.22 409.997,1384.22 411.124,1384.23 412.251,1384.23 413.378,1384.23 414.504,1384.23 
  415.631,1384.23 416.758,1384.24 417.885,1384.24 419.012,1384.24 420.139,1384.24 421.266,1384.24 422.393,1384.24 423.52,1384.24 424.646,1384.24 425.773,1384.24 
  426.9,1384.24 428.027,1384.24 429.154,1384.24 430.281,1384.24 431.408,1384.24 432.535,1384.24 433.662,1384.24 434.788,1384.24 435.915,1384.24 437.042,1384.24 
  438.169,1384.24 439.296,1384.24 440.423,1384.24 441.55,1384.24 442.677,1384.24 443.804,1384.24 444.93,1384.24 446.057,1384.24 447.184,1384.24 448.311,1384.24 
  449.438,1384.24 450.565,1384.24 451.692,1384.24 452.819,1384.24 453.946,1384.24 455.072,1384.24 456.199,1384.24 457.326,1384.24 458.453,1384.24 459.58,1384.24 
  460.707,1384.24 461.834,1384.24 462.961,1384.24 464.088,1384.24 465.214,1384.24 466.341,1384.24 467.468,1384.24 468.595,1384.24 469.722,1384.24 470.849,1384.24 
  471.976,1384.24 473.103,1384.24 474.23,1384.24 475.357,1384.24 476.483,1384.24 477.61,1384.24 478.737,1384.24 479.864,1384.24 480.991,1384.24 482.118,1384.24 
  483.245,1384.24 484.372,1384.24 485.499,1384.24 486.625,1384.24 487.752,1384.24 488.879,1384.24 490.006,1384.24 491.133,1384.24 492.26,1384.24 493.387,1384.24 
  494.514,1384.24 495.641,1384.24 496.767,1384.24 497.894,1384.24 499.021,1384.24 500.148,1384.24 501.275,1384.24 502.402,1384.24 503.529,1384.24 504.656,1384.24 
  505.783,1384.24 506.909,1384.24 508.036,1384.24 509.163,1384.24 510.29,1384.24 511.417,1384.24 512.544,1384.24 513.671,1384.24 514.798,1384.24 515.925,1384.24 
  517.051,1384.24 518.178,1384.24 519.305,1384.24 520.432,1384.24 521.559,1384.24 522.686,1384.24 523.813,1384.24 524.94,1384.24 526.067,1384.24 527.193,1384.24 
  528.32,1384.24 529.447,1384.24 530.574,1384.24 531.701,1384.24 532.828,1384.24 533.955,1384.24 535.082,1384.24 536.209,1384.24 537.335,1384.24 538.462,1384.24 
  539.589,1384.24 540.716,1384.24 541.843,1384.24 542.97,1384.24 544.097,1384.24 545.224,1384.24 546.351,1384.24 547.477,1384.24 548.604,1384.24 549.731,1384.24 
  550.858,1384.24 551.985,1384.24 553.112,1384.24 554.239,1384.24 555.366,1384.24 556.493,1384.24 557.62,1384.24 558.746,1384.24 559.873,1384.24 561,1384.24 
  562.127,1384.24 563.254,1384.24 564.381,1384.24 565.508,1384.24 566.635,1384.24 567.762,1384.24 568.888,1384.24 570.015,1384.24 571.142,1384.24 572.269,1384.24 
  573.396,1384.24 574.523,1384.24 575.65,1384.24 576.777,1384.24 577.904,1384.24 579.03,1384.24 580.157,1384.24 581.284,1384.24 582.411,1384.24 583.538,1384.24 
  584.665,1384.24 585.792,1384.24 586.919,1384.24 588.046,1384.24 589.172,1384.24 590.299,1384.24 591.426,1384.24 592.553,1384.24 593.68,1384.24 594.807,1384.24 
  595.934,1384.24 597.061,1384.24 598.188,1384.24 599.314,1384.24 600.441,1384.24 601.568,1384.24 602.695,1384.24 603.822,1384.24 604.949,1384.24 606.076,1384.24 
  607.203,1384.24 608.33,1384.24 609.456,1384.24 610.583,1384.24 611.71,1384.24 612.837,1384.24 613.964,1384.24 615.091,1384.24 616.218,1384.24 617.345,1384.24 
  618.472,1384.24 619.598,1384.24 620.725,1384.24 621.852,1384.24 622.979,1384.24 624.106,1384.24 625.233,1384.24 626.36,1384.24 627.487,1384.24 628.614,1384.24 
  629.74,1384.24 630.867,1384.24 631.994,1384.24 633.121,1384.24 634.248,1384.24 635.375,1384.24 636.502,1384.24 637.629,1384.24 638.756,1384.24 639.883,1384.24 
  641.009,1384.24 642.136,1384.24 643.263,1384.24 644.39,1384.24 645.517,1384.24 646.644,1384.24 647.771,1384.24 648.898,1384.24 650.025,1384.24 651.151,1384.24 
  652.278,1384.24 653.405,1384.24 654.532,1384.24 655.659,1384.24 656.786,1384.24 657.913,1384.24 659.04,1384.24 660.167,1384.24 661.293,1384.24 662.42,1384.24 
  663.547,1384.24 664.674,1384.24 665.801,1384.24 666.928,1384.24 668.055,1384.24 669.182,1384.24 670.309,1384.24 671.435,1384.24 672.562,1384.24 673.689,1384.24 
  674.816,1384.24 675.943,1384.24 677.07,1384.24 678.197,1384.24 679.324,1384.24 680.451,1384.24 681.577,1384.24 682.704,1384.24 683.831,86.1857 684.958,203.281 
  686.085,309.813 687.212,406.755 688.339,495.019 689.466,575.263 690.593,648.32 691.719,714.778 692.846,775.267 693.973,830.231 695.1,880.433 696.227,925.866 
  697.354,967.344 698.481,1005.19 699.608,1039.37 700.735,1070.57 701.861,1099.09 702.988,1124.94 704.115,1148.28 705.242,1169.72 706.369,1189.27 707.496,1206.91 
  708.623,1222.88 709.75,1237.57 710.877,1250.98 712.003,1263.11 713.13,1273.98 714.257,1283.98 715.384,1293.16 716.511,1301.52 717.638,1309.05 718.765,1315.78 
  719.892,1322 721.019,1327.71 722.146,1332.93 723.272,1337.65 724.399,1341.85 725.526,1345.65 726.653,1349.17 727.78,1352.41 728.907,1355.37 730.034,1358.05 
  731.161,1360.45 732.288,1362.56 733.414,1364.52 734.541,1366.33 735.668,1368 736.795,1369.53 737.922,1370.92 739.049,1372.16 740.176,1373.26 741.303,1374.22 
  742.43,1375.13 743.556,1375.97 744.683,1376.75 745.81,1377.46 746.937,1378.12 748.064,1378.71 749.191,1379.24 750.318,1379.7 751.445,1380.1 752.572,1380.46 
  753.698,1380.8 754.825,1381.12 755.952,1381.42 757.079,1381.7 758.206,1381.95 759.333,1382.18 760.46,1382.39 761.587,1382.58 762.714,1382.74 763.84,1382.88 
  764.967,1383 766.094,1383.1 767.221,1383.2 768.348,1383.3 769.475,1383.39 770.602,1383.47 771.729,1383.55 772.856,1383.62 773.982,1383.69 775.109,1383.75 
  776.236,1383.8 777.363,1383.85 778.49,1383.9 779.617,1383.93 780.744,1383.97 781.871,1383.99 782.998,1384.01 784.124,1384.03 785.251,1384.05 786.378,1384.07 
  787.505,1384.08 788.632,1384.1 789.759,1384.11 790.886,1384.12 792.013,1384.14 793.14,1384.15 794.266,1384.16 795.393,1384.17 796.52,1384.18 797.647,1384.19 
  798.774,1384.19 799.901,1384.2 801.028,1384.21 802.155,1384.21 803.282,1384.22 804.408,1384.22 805.535,1384.22 806.662,1384.23 807.789,1384.23 808.916,1384.23 
  810.043,1384.23 811.17,1384.23 812.297,1384.23 813.424,1384.23 814.551,1384.23 815.677,1384.23 816.804,1384.23 817.931,1384.23 819.058,1384.23 820.185,1384.23 
  821.312,1384.23 822.439,1384.23 823.566,1384.23 824.693,1384.23 825.819,1384.24 826.946,1384.24 828.073,1384.24 829.2,1384.24 830.327,1384.24 831.454,1384.24 
  832.581,1384.24 833.708,1384.24 834.835,1384.24 835.961,1384.24 837.088,1384.24 838.215,1384.24 839.342,1384.24 840.469,1384.24 841.596,1384.24 842.723,1384.24 
  843.85,1384.24 844.977,1384.24 846.103,1384.24 847.23,1384.24 848.357,1384.24 849.484,1384.24 850.611,1384.24 851.738,1384.24 852.865,1384.24 853.992,1384.24 
  855.119,1384.24 856.245,1384.24 857.372,1384.24 858.499,1384.24 859.626,1384.24 860.753,1384.24 861.88,1384.24 863.007,1384.24 864.134,1384.24 865.261,1384.24 
  866.387,1384.24 867.514,1384.24 868.641,1384.24 869.768,1384.24 870.895,1384.24 872.022,1384.24 873.149,1384.24 874.276,1384.24 875.403,1384.24 876.529,1384.24 
  877.656,1384.24 878.783,1384.24 879.91,1384.24 881.037,1384.24 882.164,1384.24 883.291,1384.24 884.418,1384.24 885.545,1384.24 886.671,1384.24 887.798,1384.24 
  888.925,1384.24 890.052,1384.24 891.179,1384.24 892.306,1384.24 893.433,1384.24 894.56,1384.24 895.687,1384.24 896.814,1384.24 897.94,1384.24 899.067,1384.24 
  900.194,1384.24 901.321,1384.24 902.448,1384.24 903.575,1384.24 904.702,1384.24 905.829,1384.24 906.956,1384.24 908.082,1384.24 909.209,1384.24 910.336,1384.24 
  911.463,1384.24 912.59,1384.24 913.717,1384.24 914.844,1384.24 915.971,1384.24 917.098,1384.24 918.224,1384.24 919.351,1384.24 920.478,1384.24 921.605,1384.24 
  922.732,1384.24 923.859,1384.24 924.986,1384.24 926.113,1384.24 927.24,1384.24 928.366,1384.24 929.493,1384.24 930.62,1384.24 931.747,1384.24 932.874,1384.24 
  934.001,1384.24 935.128,1384.24 936.255,1384.24 937.382,1384.24 938.508,1384.24 939.635,1384.24 940.762,1384.24 941.889,1384.24 943.016,1384.24 944.143,1384.24 
  945.27,1384.24 946.397,1384.24 947.524,1384.24 948.65,1384.24 949.777,1384.24 950.904,1384.24 952.031,1384.24 953.158,1384.24 954.285,1384.24 955.412,1384.24 
  956.539,1384.24 957.666,1384.24 958.792,1384.24 959.919,1384.24 961.046,1384.24 962.173,1384.24 963.3,1384.24 964.427,1384.24 965.554,1384.24 966.681,1384.24 
  967.808,1384.24 968.934,1384.24 970.061,1384.24 971.188,1384.24 972.315,1384.24 973.442,1384.24 974.569,1384.24 975.696,1384.24 976.823,1384.24 977.95,1384.24 
  979.077,1384.24 980.203,1384.24 981.33,1384.24 982.457,1384.24 983.584,1384.24 984.711,1384.24 985.838,1384.24 986.965,1384.24 988.092,1384.24 989.219,1384.24 
  990.345,1384.24 991.472,1384.24 992.599,1384.24 993.726,1384.24 994.853,1384.24 995.98,1384.24 997.107,1384.24 998.234,1384.24 999.361,1384.24 1000.49,1384.24 
  1001.61,1384.24 1002.74,1384.24 1003.87,1384.24 1004.99,1384.24 1006.12,1384.24 1007.25,1384.24 1008.38,1384.24 1009.5,1384.24 1010.63,1384.24 1011.76,1384.24 
  1012.88,1384.24 1014.01,1384.24 1015.14,1384.24 1016.26,1384.24 1017.39,1384.24 1018.52,1384.24 1019.64,1384.24 1020.77,1384.24 1021.9,1384.24 1023.03,1384.24 
  1024.15,1384.24 1025.28,1384.24 1026.41,1384.24 1027.53,1384.24 1028.66,1384.24 1029.79,1384.24 1030.91,1384.24 1032.04,1384.24 1033.17,1384.24 1034.29,1384.24 
  1035.42,1384.24 1036.55,1384.24 1037.67,1384.24 1038.8,1384.24 1039.93,1384.24 1041.06,1384.24 1042.18,1384.24 1043.31,1384.24 1044.44,1384.24 1045.56,1384.24 
  1046.69,1384.24 1047.82,1384.24 1048.94,1384.24 1050.07,1384.24 1051.2,1384.24 1052.32,1384.24 1053.45,1384.24 1054.58,1384.24 1055.71,1384.24 1056.83,1384.24 
  1057.96,1384.24 1059.09,1384.24 1060.21,1384.24 1061.34,1384.24 1062.47,1384.24 1063.59,1384.24 1064.72,1384.24 1065.85,1384.24 1066.97,1384.24 1068.1,1384.24 
  1069.23,1384.24 1070.35,1384.24 1071.48,1384.24 1072.61,1384.24 1073.74,1384.24 1074.86,1384.24 1075.99,1384.24 1077.12,1384.24 1078.24,1384.24 1079.37,1384.24 
  1080.5,1384.24 1081.62,124.084 1082.75,237.756 1083.88,341.187 1085,435.297 1086.13,521.021 1087.26,598.898 1088.38,669.893 1089.51,734.315 1090.64,793.143 
  1091.77,846.482 1092.89,895.104 1094.02,939.462 1095.15,979.552 1096.27,1016.19 1097.4,1049.64 1098.53,1079.87 1099.65,1107.35 1100.78,1132.53 1101.91,1155.41 
  1103.03,1176 1104.16,1194.87 1105.29,1212.14 1106.42,1227.83 1107.54,1241.91 1108.67,1254.78 1109.8,1266.6 1110.92,1277.37 1112.05,1287.09 1113.18,1295.8 
  1114.3,1303.83 1115.43,1311.21 1116.56,1317.93 1117.68,1323.99 1118.81,1329.39 1119.94,1334.35 1121.06,1338.92 1122.19,1343.11 1123.32,1346.92 1124.45,1350.34 
  1125.57,1353.36 1126.7,1356.15 1127.83,1358.72 1128.95,1361.09 1130.08,1363.26 1131.21,1365.22 1132.33,1366.97 1133.46,1368.5 1134.59,1369.91 1135.71,1371.23 
  1136.84,1372.44 1137.97,1373.55 1139.09,1374.57 1140.22,1375.49 1141.35,1376.31 1142.48,1377.02 1143.6,1377.66 1144.73,1378.25 1145.86,1378.8 1146.98,1379.32 
  1148.11,1379.79 1149.24,1380.22 1150.36,1380.62 1151.49,1380.97 1152.62,1381.29 1153.74,1381.57 1154.87,1381.8 1156,1382.01 1157.13,1382.21 1158.25,1382.4 
  1159.38,1382.57 1160.51,1382.74 1161.63,1382.89 1162.76,1383.03 1163.89,1383.15 1165.01,1383.27 1166.14,1383.37 1167.27,1383.46 1168.39,1383.54 1169.52,1383.6 
  1170.65,1383.65 1171.77,1383.7 1172.9,1383.75 1174.03,1383.8 1175.16,1383.84 1176.28,1383.88 1177.41,1383.91 1178.54,1383.95 1179.66,1383.98 1180.79,1384.01 
  1181.92,1384.04 1183.04,1384.06 1184.17,1384.08 1185.3,1384.1 1186.42,1384.12 1187.55,1384.14 1188.68,1384.15 1189.81,1384.16 1190.93,1384.17 1192.06,1384.17 
  1193.19,1384.18 1194.31,1384.18 1195.44,1384.19 1196.57,1384.19 1197.69,1384.2 1198.82,1384.2 1199.95,1384.2 1201.07,1384.21 1202.2,1384.21 1203.33,1384.21 
  1204.45,1384.22 1205.58,1384.22 1206.71,1384.22 1207.84,1384.22 1208.96,1384.23 1210.09,1384.23 1211.22,1384.23 1212.34,1384.23 1213.47,1384.23 1214.6,1384.24 
  1215.72,1384.24 1216.85,1384.24 1217.98,1384.24 1219.1,1384.24 1220.23,1384.24 1221.36,1384.24 1222.48,1384.24 1223.61,1384.24 1224.74,1384.24 1225.87,1384.24 
  1226.99,1384.24 1228.12,1384.24 1229.25,1384.24 1230.37,1384.24 1231.5,1384.24 1232.63,1384.24 1233.75,1384.24 1234.88,1384.24 1236.01,1384.24 1237.13,1384.24 
  1238.26,1384.24 1239.39,1384.24 1240.52,1384.24 1241.64,1384.24 1242.77,1384.24 1243.9,1384.24 1245.02,1384.24 1246.15,1384.24 1247.28,1384.24 1248.4,1384.24 
  1249.53,1384.24 1250.66,1384.24 1251.78,1384.24 1252.91,1384.24 1254.04,1384.24 1255.16,1384.24 1256.29,1384.24 1257.42,1384.24 1258.55,1384.24 1259.67,1384.24 
  1260.8,1384.24 1261.93,1384.24 1263.05,1384.24 1264.18,1384.24 1265.31,1384.24 1266.43,1384.24 1267.56,1384.24 1268.69,1384.24 1269.81,1384.24 1270.94,1384.24 
  1272.07,1384.24 1273.19,1384.24 1274.32,1384.24 1275.45,1384.24 1276.58,1384.24 1277.7,1384.24 1278.83,1384.24 1279.96,1384.24 1281.08,1384.24 1282.21,1384.24 
  1283.34,1384.24 1284.46,1384.24 1285.59,1384.24 1286.72,1384.24 1287.84,1384.24 1288.97,1384.24 1290.1,1384.24 1291.23,1384.24 1292.35,1384.24 1293.48,1384.24 
  1294.61,1384.24 1295.73,1384.24 1296.86,1384.24 1297.99,1384.24 1299.11,1384.24 1300.24,1384.24 1301.37,1384.24 1302.49,1384.24 1303.62,1384.24 1304.75,1384.24 
  1305.87,1384.24 1307,1384.24 1308.13,1384.24 1309.26,1384.24 1310.38,1384.24 1311.51,1384.24 1312.64,1384.24 1313.76,1384.24 1314.89,1384.24 1316.02,1384.24 
  1317.14,1384.24 1318.27,1384.24 1319.4,1384.24 1320.52,1384.24 1321.65,1384.24 1322.78,1384.24 1323.9,1384.24 1325.03,1384.24 1326.16,1384.24 1327.29,1384.24 
  1328.41,1384.24 1329.54,1384.24 1330.67,1384.24 1331.79,1384.24 1332.92,1384.24 1334.05,1384.24 1335.17,1384.24 1336.3,1384.24 1337.43,1384.24 1338.55,1384.24 
  1339.68,1384.24 1340.81,1384.24 1341.94,1384.24 1343.06,1384.24 1344.19,1384.24 1345.32,1384.24 1346.44,1384.24 1347.57,1384.24 1348.7,1384.24 1349.82,1384.24 
  1350.95,1384.24 1352.08,1384.24 1353.2,1384.24 1354.33,1384.24 1355.46,1384.24 1356.58,1384.24 1357.71,1384.24 1358.84,1384.24 1359.97,1384.24 1361.09,1384.24 
  1362.22,1384.24 1363.35,1384.24 1364.47,1384.24 1365.6,1384.24 1366.73,1384.24 1367.85,1384.24 1368.98,1384.24 1370.11,1384.24 1371.23,1384.24 1372.36,1384.24 
  1373.49,1384.24 1374.62,1384.24 1375.74,1384.24 1376.87,1384.24 1378,1384.24 1379.12,1384.24 1380.25,1384.24 1381.38,1384.24 1382.5,1384.24 1383.63,1384.24 
  1384.76,1384.24 1385.88,1384.24 1387.01,1384.24 1388.14,1384.24 1389.26,1384.24 1390.39,1384.24 1391.52,1384.24 1392.65,1384.24 1393.77,1384.24 1394.9,1384.24 
  1396.03,1384.24 1397.15,1384.24 1398.28,1384.24 1399.41,1384.24 1400.53,1384.24 1401.66,1384.24 1402.79,1384.24 1403.91,1384.24 1405.04,1384.24 1406.17,1384.24 
  1407.29,1384.24 1408.42,1384.24 1409.55,1384.24 1410.68,1384.24 1411.8,1384.24 1412.93,1384.24 1414.06,1384.24 1415.18,1384.24 1416.31,1384.24 1417.44,1384.24 
  1418.56,1384.24 1419.69,1384.24 1420.82,1384.24 1421.94,1384.24 1423.07,1384.24 1424.2,1384.24 1425.33,1384.24 1426.45,1384.24 1427.58,1384.24 1428.71,1384.24 
  1429.83,1384.24 1430.96,1384.24 1432.09,1384.24 1433.21,1384.24 1434.34,1384.24 1435.47,1384.24 1436.59,1384.24 1437.72,1384.24 1438.85,1384.24 1439.97,1384.24 
  1441.1,1384.24 1442.23,1384.24 1443.36,1384.24 1444.48,1384.24 1445.61,1384.24 1446.74,1384.24 1447.86,1384.24 1448.99,1384.24 1450.12,1384.24 1451.24,1384.24 
  1452.37,1384.24 1453.5,1384.24 1454.62,1384.24 1455.75,1384.24 1456.88,1384.24 1458,1384.24 1459.13,1384.24 1460.26,1384.24 1461.39,1384.24 1462.51,1384.24 
  1463.64,1384.24 1464.77,1384.24 1465.89,1384.24 1467.02,1384.24 1468.15,1384.24 1469.27,1384.24 1470.4,1384.24 1471.53,1384.24 1472.65,1384.24 1473.78,1384.24 
  1474.91,1384.24 1476.04,1384.24 1477.16,1384.24 1478.29,1384.24 1479.42,165.76 1480.54,275.671 1481.67,375.686 1482.8,466.683 1483.92,549.562 1485.05,624.866 
  1486.18,693.498 1487.3,755.8 1488.43,812.689 1489.56,864.234 1490.68,911.292 1491.81,954.158 1492.94,992.902 1494.07,1028.38 1495.19,1060.71 1496.32,1089.88 
  1497.45,1116.51 1498.57,1140.87 1499.7,1162.96 1500.83,1182.85 1501.95,1201.14 1503.08,1217.86 1504.21,1232.99 1505.33,1246.58 1506.46,1259.07 1507.59,1270.51 
  1508.71,1280.92 1509.84,1290.26 1510.97,1298.71 1512.1,1306.5 1513.22,1313.65 1514.35,1320.14 1515.48,1325.97 1516.6,1331.18 1517.73,1336 1518.86,1340.44 
  1519.98,1344.49 1521.11,1348.16 1522.24,1351.45 1523.36,1354.36 1524.49,1357.07 1525.62,1359.58 1526.75,1361.88 1527.87,1363.97 1529,1365.86 1530.13,1367.54 
  1531.25,1369.01 1532.38,1370.39 1533.51,1371.66 1534.63,1372.84 1535.76,1373.92 1536.89,1374.9 1538.01,1375.79 1539.14,1376.57 1540.27,1377.25 1541.39,1377.87 
  1542.52,1378.45 1543.65,1378.99 1544.78,1379.49 1545.9,1379.95 1547.03,1380.37 1548.16,1380.75 1549.28,1381.09 1550.41,1381.39 1551.54,1381.65 1552.66,1381.87 
  1553.79,1382.08 1554.92,1382.28 1556.04,1382.46 1557.17,1382.63 1558.3,1382.79 1559.43,1382.94 1560.55,1383.07 1561.68,1383.2 1562.81,1383.31 1563.93,1383.4 
  1565.06,1383.49 1566.19,1383.56 1567.31,1383.62 1568.44,1383.67 1569.57,1383.72 1570.69,1383.77 1571.82,1383.81 1572.95,1383.85 1574.07,1383.89 1575.2,1383.93 
  1576.33,1383.96 1577.46,1383.99 1578.58,1384.02 1579.71,1384.05 1580.84,1384.07 1581.96,1384.09 1583.09,1384.11 1584.22,1384.13 1585.34,1384.14 1586.47,1384.15 
  1587.6,1384.16 1588.72,1384.17 1589.85,1384.17 1590.98,1384.18 1592.1,1384.18 1593.23,1384.19 1594.36,1384.19 1595.49,1384.2 1596.61,1384.2 1597.74,1384.2 
  1598.87,1384.21 1599.99,1384.21 1601.12,1384.21 1602.25,1384.22 1603.37,1384.22 1604.5,1384.22 1605.63,1384.23 1606.75,1384.23 1607.88,1384.23 1609.01,1384.23 
  1610.14,1384.23 1611.26,1384.23 1612.39,1384.24 1613.52,1384.24 1614.64,1384.24 1615.77,1384.24 1616.9,1384.24 1618.02,1384.24 1619.15,1384.24 1620.28,1384.24 
  1621.4,1384.24 1622.53,1384.24 1623.66,1384.24 1624.78,1384.24 1625.91,1384.24 1627.04,1384.24 1628.17,1384.24 1629.29,1384.24 1630.42,1384.24 1631.55,1384.24 
  1632.67,1384.24 1633.8,1384.24 1634.93,1384.24 1636.05,1384.24 1637.18,1384.24 1638.31,1384.24 1639.43,1384.24 1640.56,1384.24 1641.69,1384.24 1642.81,1384.24 
  1643.94,1384.24 1645.07,1384.24 1646.2,1384.24 1647.32,1384.24 1648.45,1384.24 1649.58,1384.24 1650.7,1384.24 1651.83,1384.24 1652.96,1384.24 1654.08,1384.24 
  1655.21,1384.24 1656.34,1384.24 1657.46,1384.24 1658.59,1384.24 1659.72,1384.24 1660.85,1384.24 1661.97,1384.24 1663.1,1384.24 1664.23,1384.24 1665.35,1384.24 
  1666.48,1384.24 1667.61,1384.24 1668.73,1384.24 1669.86,1384.24 1670.99,1384.24 1672.11,1384.24 1673.24,1384.24 1674.37,1384.24 1675.49,1384.24 1676.62,1384.24 
  1677.75,1384.24 1678.88,1384.24 1680,1384.24 1681.13,1384.24 1682.26,1384.24 1683.38,1384.24 1684.51,1384.24 1685.64,1384.24 1686.76,1384.24 1687.89,1384.24 
  1689.02,1384.24 1690.14,1384.24 1691.27,1384.24 1692.4,1384.24 1693.53,1384.24 1694.65,1384.24 1695.78,1384.24 1696.91,1384.24 1698.03,1384.24 1699.16,1384.24 
  1700.29,1384.24 1701.41,1384.24 1702.54,1384.24 1703.67,1384.24 1704.79,1384.24 1705.92,1384.24 1707.05,1384.24 1708.17,1384.24 1709.3,1384.24 1710.43,1384.24 
  1711.56,1384.24 1712.68,1384.24 1713.81,1384.24 1714.94,1384.24 1716.06,1384.24 1717.19,1384.24 1718.32,1384.24 1719.44,1384.24 1720.57,1384.24 1721.7,1384.24 
  1722.82,1384.24 1723.95,1384.24 1725.08,1384.24 1726.2,1384.24 1727.33,1384.24 1728.46,1384.24 1729.59,1384.24 1730.71,1384.24 1731.84,1384.24 1732.97,1384.24 
  1734.09,1384.24 1735.22,1384.24 1736.35,1384.24 1737.47,1384.24 1738.6,1384.24 1739.73,1384.24 1740.85,1384.24 1741.98,1384.24 1743.11,1384.24 1744.24,1384.24 
  1745.36,1384.24 1746.49,1384.24 1747.62,1384.24 1748.74,1384.24 1749.87,1384.24 1751,1384.24 1752.12,1384.24 1753.25,1384.24 1754.38,1384.24 1755.5,1384.24 
  1756.63,1384.24 1757.76,1384.24 1758.88,1384.24 1760.01,1384.24 1761.14,1384.24 1762.27,1384.24 1763.39,1384.24 1764.52,1384.24 1765.65,1384.24 1766.77,1384.24 
  1767.9,1384.24 1769.03,1384.24 1770.15,1384.24 1771.28,1384.24 1772.41,1384.24 1773.53,1384.24 1774.66,1384.24 1775.79,1384.24 1776.91,1384.24 1778.04,1384.24 
  1779.17,1384.24 1780.3,1384.24 1781.42,1384.24 1782.55,1384.24 1783.68,1384.24 1784.8,1384.24 1785.93,1384.24 1787.06,1384.24 1788.18,1384.24 1789.31,1384.24 
  1790.44,1384.24 1791.56,1384.24 1792.69,1384.24 1793.82,1384.24 1794.95,1384.24 1796.07,1384.24 1797.2,1384.24 1798.33,1384.24 1799.45,1384.24 1800.58,1384.24 
  1801.71,1384.24 1802.83,1384.24 1803.96,1384.24 1805.09,1384.24 1806.21,1384.24 1807.34,1384.24 1808.47,1384.24 1809.59,1384.24 1810.72,1384.24 1811.85,1384.24 
  1812.98,1384.24 1814.1,1384.24 1815.23,1384.24 1816.36,1384.24 1817.48,1384.24 1818.61,1384.24 1819.74,1384.24 1820.86,1384.24 1821.99,1384.24 1823.12,1384.24 
  1824.24,1384.24 1825.37,1384.24 1826.5,1384.24 1827.62,1384.24 1828.75,1384.24 1829.88,1384.24 1831.01,1384.24 1832.13,1384.24 1833.26,1384.24 1834.39,1384.24 
  1835.51,1384.24 1836.64,1384.24 1837.77,1384.24 1838.89,1384.24 1840.02,1384.24 1841.15,1384.24 1842.27,1384.24 1843.4,1384.24 1844.53,1384.24 1845.66,1384.24 
  1846.78,1384.24 1847.91,1384.24 1849.04,1384.24 1850.16,1384.24 1851.29,1384.24 1852.42,1384.24 1853.54,1384.24 1854.67,1384.24 1855.8,1384.24 1856.92,1384.24 
  1858.05,1384.24 1859.18,1384.24 1860.3,1384.24 1861.43,1384.24 1862.56,1384.24 1863.69,1384.24 1864.81,1384.24 1865.94,1384.24 1867.07,1384.24 1868.19,1384.24 
  1869.32,1384.24 1870.45,1384.24 1871.57,1384.24 1872.7,1384.24 1873.83,1384.24 1874.95,1384.24 1876.08,89.5458 1877.21,206.34 1878.34,312.61 1879.46,409.307 
  1880.59,497.264 1881.72,577.383 1882.84,650.208 1883.97,716.476 1885.1,776.798 1886.22,831.771 1887.35,881.577 1888.48,927.132 1889.6,968.487 1890.73,1005.97 
  1891.86,1040.32 1892.98,1071.53 1894.11,1099.68 1895.24,1125.5 1896.37,1149.04 1897.49,1170.29 1898.62,1189.59 1899.75,1207.31 1900.87,1223.46 1902,1238.02 
  1903.13,1251.17 1904.25,1263.29 1905.38,1274.36 1906.51,1284.39 1907.63,1293.36 1908.76,1301.58 1909.89,1309.14 1911.01,1316.05 1912.14,1322.3 1913.27,1327.89 
  1914.4,1332.95 1915.52,1337.63 1916.65,1341.93 1917.78,1345.85 1918.9,1349.38 1920.03,1352.52 1921.16,1355.36 1922.28,1358 1923.41,1360.43 1924.54,1362.65 
  1925.66,1364.67 1926.79,1366.48 1927.92,1368.08 1929.05,1369.52 1930.17,1370.86 1931.3,1372.1 1932.43,1373.24 1933.55,1374.28 1934.68,1375.23 1935.81,1376.08 
  1936.93,1376.83 1938.06,1377.48 1939.19,1378.08 1940.31,1378.65 1941.44,1379.17 1942.57,1379.66 1943.69,1380.1 1944.82,1380.51 1945.95,1380.87 1947.08,1381.2 
  1948.2,1381.49 1949.33,1381.73 1950.46,1381.95 1951.58,1382.15 1952.71,1382.34 1953.84,1382.52 1954.96,1382.69 1956.09,1382.84 1957.22,1382.99 1958.34,1383.12 
  1959.47,1383.24 1960.6,1383.34 1961.72,1383.44 1962.85,1383.52 1963.98,1383.59 1965.11,1383.64 1966.23,1383.69 1967.36,1383.74 1968.49,1383.78 1969.61,1383.83 
  1970.74,1383.87 1971.87,1383.9 1972.99,1383.94 1974.12,1383.97 1975.25,1384 1976.37,1384.03 1977.5,1384.05 1978.63,1384.08 1979.76,1384.1 1980.88,1384.12 
  1982.01,1384.13 1983.14,1384.15 1984.26,1384.16 1985.39,1384.16 1986.52,1384.17 1987.64,1384.18 1988.77,1384.18 1989.9,1384.19 1991.02,1384.19 1992.15,1384.19 
  1993.28,1384.2 1994.4,1384.2 1995.53,1384.21 1996.66,1384.21 1997.79,1384.21 1998.91,1384.22 2000.04,1384.22 2001.17,1384.22 2002.29,1384.22 2003.42,1384.23 
  2004.55,1384.23 2005.67,1384.23 2006.8,1384.23 2007.93,1384.23 2009.05,1384.23 2010.18,1384.24 2011.31,1384.24 2012.44,1384.24 2013.56,1384.24 2014.69,1384.24 
  2015.82,1384.24 2016.94,1384.24 2018.07,1384.24 2019.2,1384.24 2020.32,1384.24 2021.45,1384.24 2022.58,1384.24 2023.7,1384.24 2024.83,1384.24 2025.96,1384.24 
  2027.08,1384.24 2028.21,1384.24 2029.34,1384.24 2030.47,1384.24 2031.59,1384.24 2032.72,1384.24 2033.85,1384.24 2034.97,1384.24 2036.1,1384.24 2037.23,1384.24 
  2038.35,1384.24 2039.48,1384.24 2040.61,1384.24 2041.73,1384.24 2042.86,1384.24 2043.99,1384.24 2045.11,1384.24 2046.24,1384.24 2047.37,1384.24 2048.5,1384.24 
  2049.62,1384.24 2050.75,1384.24 2051.88,1384.24 2053,1384.24 2054.13,1384.24 2055.26,1384.24 2056.38,1384.24 2057.51,1384.24 2058.64,1384.24 2059.76,1384.24 
  2060.89,1384.24 2062.02,1384.24 2063.15,1384.24 2064.27,1384.24 2065.4,1384.24 2066.53,1384.24 2067.65,1384.24 2068.78,1384.24 2069.91,1384.24 2071.03,1384.24 
  2072.16,1384.24 2073.29,1384.24 2074.41,1384.24 2075.54,1384.24 2076.67,1384.24 2077.79,1384.24 2078.92,1384.24 2080.05,1384.24 2081.18,1384.24 2082.3,1384.24 
  2083.43,1384.24 2084.56,1384.24 2085.68,1384.24 2086.81,1384.24 2087.94,1384.24 2089.06,1384.24 2090.19,1384.24 2091.32,1384.24 2092.44,1384.24 2093.57,1384.24 
  2094.7,1384.24 2095.82,1384.24 2096.95,1384.24 2098.08,1384.24 2099.21,1384.24 2100.33,1384.24 2101.46,1384.24 2102.59,1384.24 2103.71,1384.24 2104.84,1384.24 
  2105.97,1384.24 2107.09,1384.24 2108.22,1384.24 2109.35,1384.24 2110.47,1384.24 2111.6,1384.24 2112.73,1384.24 2113.86,1384.24 2114.98,1384.24 2116.11,1384.24 
  2117.24,1384.24 2118.36,1384.24 2119.49,1384.24 2120.62,1384.24 2121.74,1384.24 2122.87,1384.24 2124,1384.24 2125.12,1384.24 2126.25,1384.24 2127.38,1384.24 
  2128.5,1384.24 2129.63,1384.24 2130.76,1384.24 2131.89,1384.24 2133.01,1384.24 2134.14,1384.24 2135.27,1384.24 2136.39,1384.24 2137.52,1384.24 2138.65,1384.24 
  2139.77,1384.24 2140.9,1384.24 2142.03,1384.24 2143.15,1384.24 2144.28,1384.24 2145.41,1384.24 2146.53,1384.24 2147.66,1384.24 2148.79,1384.24 2149.92,1384.24 
  2151.04,1384.24 2152.17,1384.24 2153.3,1384.24 2154.42,1384.24 2155.55,1384.24 2156.68,1384.24 2157.8,1384.24 2158.93,1384.24 2160.06,1384.24 2161.18,1384.24 
  2162.31,1384.24 2163.44,1384.24 2164.57,1384.24 2165.69,1384.24 2166.82,1384.24 2167.95,1384.24 2169.07,1384.24 2170.2,1384.24 2171.33,1384.24 2172.45,1384.24 
  2173.58,1384.24 2174.71,1384.24 2175.83,1384.24 2176.96,1384.24 2178.09,1384.24 2179.21,1384.24 2180.34,1384.24 2181.47,1384.24 2182.6,1384.24 2183.72,1384.24 
  2184.85,1384.24 2185.98,1384.24 2187.1,1384.24 2188.23,1384.24 2189.36,1384.24 2190.48,1384.24 2191.61,1384.24 2192.74,1384.24 2193.86,1384.24 2194.99,1384.24 
  2196.12,1384.24 2197.25,1384.24 2198.37,1384.24 2199.5,1384.24 2200.63,1384.24 2201.75,1384.24 2202.88,1384.24 2204.01,1384.24 2205.13,1384.24 2206.26,1384.24 
  2207.39,1384.24 2208.51,1384.24 2209.64,1384.24 2210.77,1384.24 2211.89,1384.24 2213.02,1384.24 2214.15,1384.24 2215.28,1384.24 2216.4,1384.24 2217.53,1384.24 
  2218.66,1384.24 2219.78,1384.24 2220.91,1384.24 2222.04,1384.24 2223.16,1384.24 2224.29,1384.24 2225.42,1384.24 2226.54,1384.24 2227.67,1384.24 2228.8,1384.24 
  2229.92,1384.24 2231.05,1384.24 2232.18,1384.24 2233.31,1384.24 2234.43,1384.24 2235.56,1384.24 2236.69,1384.24 2237.81,1384.24 2238.94,1384.24 2240.07,1384.24 
  2241.19,1384.24 2242.32,1384.24 2243.45,1384.24 2244.57,1384.24 2245.7,1384.24 2246.83,1384.24 2247.96,1384.24 2249.08,1384.24 2250.21,1384.24 2251.34,1384.24 
  2252.46,1384.24 2253.59,1384.24 2254.72,1384.24 2255.84,1384.24 2256.97,1384.24 2258.1,1384.24 2259.22,1384.24 2260.35,1384.24 2261.48,1384.24 2262.6,1384.24 
  2263.73,1384.24 2264.86,1384.24 2265.99,1384.24 2267.11,1384.24 2268.24,1384.24 2269.37,1384.24 2270.49,1384.24 2271.62,1384.24 2272.75,1384.24 2273.87,132.695 
  2275,245.582 2276.13,348.307 2277.25,441.81 2278.38,526.872 2279.51,604.24 2280.63,674.724 2281.76,738.715 2282.89,797.121 2284.02,850.144 2285.14,898.39 
  2286.27,942.444 2287.4,982.283 2288.52,1018.65 2289.65,1051.87 2290.78,1081.92 2291.9,1109.2 2293.03,1134.2 2294.16,1156.93 2295.28,1177.39 2296.41,1196.12 
  2297.54,1213.28 2298.67,1228.87 2299.79,1242.85 2300.92,1255.64 2302.05,1267.38 2303.17,1278.08 2304.3,1287.73 2305.43,1296.38 2306.55,1304.36 2307.68,1311.69 
  2308.81,1318.37 2309.93,1324.39 2311.06,1329.74 2312.19,1334.67 2313.31,1339.22 2314.44,1343.38 2315.57,1347.16 2316.7,1350.56 2317.82,1353.56 2318.95,1356.33 
  2320.08,1358.89 2321.2,1361.25 2322.33,1363.4 2323.46,1365.34 2324.58,1367.08 2325.71,1368.6 2326.84,1370.01 2327.96,1371.31 2329.09,1372.52 2330.22,1373.63 
  2331.34,1374.64 2332.47,1375.55 2333.6,1376.36 2334.73,1377.07 2335.85,1377.7 2336.98,1378.29 2338.11,1378.84 2339.23,1379.35 2340.36,1379.82 2341.49,1380.25 
  2342.61,1380.64 2343.74,1381 2344.87,1381.31 2345.99,1381.58 2347.12,1381.82 2348.25,1382.04 2349.38,1382.24 2350.5,1382.43 2351.63,1382.59 2352.76,1382.74 
  
  "/>
<path clip-path="url(#clip680)" d="
M1918.58 196.789 L2282.55 196.789 L2282.55 93.1086 L1918.58 93.1086  Z
  " fill="#ffffff" fill-rule="evenodd" fill-opacity="1"/>
<polyline clip-path="url(#clip680)" style="stroke:#000000; stroke-linecap:butt; stroke-linejoin:round; stroke-width:4; stroke-opacity:1; fill:none" points="
  1918.58,196.789 2282.55,196.789 2282.55,93.1086 1918.58,93.1086 1918.58,196.789 
  "/>
<polyline clip-path="url(#clip680)" style="stroke:#009af9; stroke-linecap:butt; stroke-linejoin:round; stroke-width:4; stroke-opacity:1; fill:none" points="
  1941.98,144.949 2082.39,144.949 
  "/>
<path clip-path="url(#clip680)" d="M2124.71 148.965 Q2124.71 144.335 2122.78 141.789 Q2120.89 139.243 2117.44 139.243 Q2114.01 139.243 2112.09 141.789 Q2110.19 144.335 2110.19 148.965 Q2110.19 153.571 2112.09 156.118 Q2114.01 158.664 2117.44 158.664 Q2120.89 158.664 2122.78 156.118 Q2124.71 153.571 2124.71 148.965 M2128.97 159.011 Q2128.97 165.631 2126.03 168.849 Q2123.09 172.09 2117.02 172.09 Q2114.78 172.09 2112.78 171.742 Q2110.79 171.418 2108.92 170.724 L2108.92 166.58 Q2110.79 167.599 2112.62 168.085 Q2114.45 168.571 2116.35 168.571 Q2120.54 168.571 2122.62 166.372 Q2124.71 164.196 2124.71 159.775 L2124.71 157.668 Q2123.39 159.96 2121.33 161.094 Q2119.27 162.229 2116.4 162.229 Q2111.63 162.229 2108.71 158.594 Q2105.79 154.96 2105.79 148.965 Q2105.79 142.946 2108.71 139.312 Q2111.63 135.678 2116.4 135.678 Q2119.27 135.678 2121.33 136.812 Q2123.39 137.946 2124.71 140.238 L2124.71 136.303 L2128.97 136.303 L2128.97 159.011 Z" fill="#000000" fill-rule="evenodd" fill-opacity="1" /><path clip-path="url(#clip680)" d="M2157.44 170.099 L2157.44 173.409 L2132.81 173.409 L2132.81 170.099 L2157.44 170.099 Z" fill="#000000" fill-rule="evenodd" fill-opacity="1" /><path clip-path="url(#clip680)" d="M2177.97 137.067 L2177.97 141.094 Q2176.16 140.169 2174.22 139.706 Q2172.28 139.243 2170.19 139.243 Q2167.02 139.243 2165.42 140.215 Q2163.85 141.187 2163.85 143.131 Q2163.85 144.613 2164.98 145.469 Q2166.12 146.303 2169.54 147.067 L2171 147.391 Q2175.54 148.363 2177.44 150.145 Q2179.36 151.905 2179.36 155.076 Q2179.36 158.687 2176.49 160.793 Q2173.64 162.9 2168.64 162.9 Q2166.56 162.9 2164.29 162.483 Q2162.04 162.09 2159.54 161.28 L2159.54 156.881 Q2161.9 158.108 2164.2 158.733 Q2166.49 159.335 2168.73 159.335 Q2171.74 159.335 2173.36 158.317 Q2174.98 157.275 2174.98 155.4 Q2174.98 153.664 2173.8 152.738 Q2172.65 151.812 2168.69 150.956 L2167.21 150.608 Q2163.25 149.775 2161.49 148.062 Q2159.73 146.326 2159.73 143.317 Q2159.73 139.659 2162.32 137.669 Q2164.91 135.678 2169.68 135.678 Q2172.04 135.678 2174.13 136.025 Q2176.21 136.372 2177.97 137.067 Z" fill="#000000" fill-rule="evenodd" fill-opacity="1" /><path clip-path="url(#clip680)" d="M2196.93 164.636 Q2195.12 169.266 2193.41 170.678 Q2191.7 172.09 2188.83 172.09 L2185.42 172.09 L2185.42 168.525 L2187.92 168.525 Q2189.68 168.525 2190.65 167.692 Q2191.63 166.858 2192.81 163.756 L2193.57 161.812 L2183.09 136.303 L2187.6 136.303 L2195.7 156.581 L2203.8 136.303 L2208.32 136.303 L2196.93 164.636 Z" fill="#000000" fill-rule="evenodd" fill-opacity="1" /><path clip-path="url(#clip680)" d="M2235.75 146.581 L2235.75 162.229 L2231.49 162.229 L2231.49 146.719 Q2231.49 143.039 2230.05 141.21 Q2228.62 139.382 2225.75 139.382 Q2222.3 139.382 2220.31 141.581 Q2218.32 143.78 2218.32 147.576 L2218.32 162.229 L2214.03 162.229 L2214.03 136.303 L2218.32 136.303 L2218.32 140.331 Q2219.84 137.993 2221.9 136.835 Q2223.99 135.678 2226.7 135.678 Q2231.16 135.678 2233.46 138.456 Q2235.75 141.21 2235.75 146.581 Z" fill="#000000" fill-rule="evenodd" fill-opacity="1" /></svg>
